  0
SECTION
  2
HEADER
  9
$ACADVER
  1
AC1009
  9
$FILLMODE
 70
 0
  9
$SPLFRAME
 70
 1
  9
$EXTMIN
 10
0
 20
0
 30
0.0
  9
$EXTMAX
 10
41.6667
 20
41.6667
 30
0.0
  0
ENDSEC
  0
SECTION
  2
TABLES
  0
TABLE
  2
LAYER
 70
1
  0
LAYER
  2
0
 70
     0
 62
     7
  6
CONTINUOUS
  0
ENDTAB
  0
ENDSEC
  0
SECTION
  2
ENTITIES
  0
POLYLINE
  8
0
 62
     0
 66
     1
 10
0
 20
0
 30
0.0
 70
     1
 40
0
 41
0
  0
VERTEX
  8
0
 10
0.138889
 20
10.9306
 30
0.0
 40
0
 41
0
  0
VERTEX
  8
0
 10
0.138889
 20
10.9373
 30
0.0
 40
0
 41
0
  0
VERTEX
  8
0
 10
0.133409
 20
10.9576
 30
0.0
 40
0
 41
0
  0
VERTEX
  8
0
 10
0.118544
 20
10.9797
 30
0.0
 40
0
 41
0
  0
VERTEX
  8
0
 10
0.0964626
 20
10.9946
 30
0.0
 40
0
 41
0
  0
VERTEX
  8
0
 10
0.0761719
 20
11
 30
0.0
 40
0
 41
0
  0
VERTEX
  8
0
 10
0.0694444
 20
11
 30
0.0
 40
0
 41
0
  0
VERTEX
  8
0
 10
0.0626628
 20
11
 30
0.0
 40
0
 41
0
  0
VERTEX
  8
0
 10
0.0423719
 20
10.9946
 30
0.0
 40
0
 41
0
  0
VERTEX
  8
0
 10
0.0202908
 20
10.9797
 30
0.0
 40
0
 41
0
  0
VERTEX
  8
0
 10
0.00542535
 20
10.9576
 30
0.0
 40
0
 41
0
  0
VERTEX
  8
0
 10
0
 20
10.9373
 30
0.0
 40
0
 41
0
  0
VERTEX
  8
0
 10
0
 20
10.9306
 30
0.0
 40
0
 41
0
  0
VERTEX
  8
0
 10
0
 20
10.9238
 30
0.0
 40
0
 41
0
  0
VERTEX
  8
0
 10
0.00542535
 20
10.9035
 30
0.0
 40
0
 41
0
  0
VERTEX
  8
0
 10
0.0202908
 20
10.8815
 30
0.0
 40
0
 41
0
  0
VERTEX
  8
0
 10
0.0423719
 20
10.8666
 30
0.0
 40
0
 41
0
  0
VERTEX
  8
0
 10
0.0626628
 20
10.8611
 30
0.0
 40
0
 41
0
  0
VERTEX
  8
0
 10
0.0694444
 20
10.8611
 30
0.0
 40
0
 41
0
  0
VERTEX
  8
0
 10
0.0761719
 20
10.8611
 30
0.0
 40
0
 41
0
  0
VERTEX
  8
0
 10
0.0964626
 20
10.8666
 30
0.0
 40
0
 41
0
  0
VERTEX
  8
0
 10
0.118544
 20
10.8815
 30
0.0
 40
0
 41
0
  0
VERTEX
  8
0
 10
0.133409
 20
10.9035
 30
0.0
 40
0
 41
0
  0
VERTEX
  8
0
 10
0.138889
 20
10.9238
 30
0.0
 40
0
 41
0
  0
VERTEX
  8
0
 10
0.138889
 20
10.9306
 30
0.0
 40
0
 41
0
  0
SEQEND
 8
0
  0
POLYLINE
  8
0
 62
     0
 66
     1
 10
0
 20
0
 30
0.0
 70
     1
 40
0
 41
0
  0
VERTEX
  8
0
 10
8.5
 20
10.9306
 30
0.0
 40
0
 41
0
  0
VERTEX
  8
0
 10
8.5
 20
10.9373
 30
0.0
 40
0
 41
0
  0
VERTEX
  8
0
 10
8.49451
 20
10.9576
 30
0.0
 40
0
 41
0
  0
VERTEX
  8
0
 10
8.47965
 20
10.9797
 30
0.0
 40
0
 41
0
  0
VERTEX
  8
0
 10
8.45757
 20
10.9946
 30
0.0
 40
0
 41
0
  0
VERTEX
  8
0
 10
8.43728
 20
11
 30
0.0
 40
0
 41
0
  0
VERTEX
  8
0
 10
8.43056
 20
11
 30
0.0
 40
0
 41
0
  0
VERTEX
  8
0
 10
8.42378
 20
11
 30
0.0
 40
0
 41
0
  0
VERTEX
  8
0
 10
8.40349
 20
10.9946
 30
0.0
 40
0
 41
0
  0
VERTEX
  8
0
 10
8.3814
 20
10.9797
 30
0.0
 40
0
 41
0
  0
VERTEX
  8
0
 10
8.36654
 20
10.9576
 30
0.0
 40
0
 41
0
  0
VERTEX
  8
0
 10
8.36111
 20
10.9373
 30
0.0
 40
0
 41
0
  0
VERTEX
  8
0
 10
8.36111
 20
10.9306
 30
0.0
 40
0
 41
0
  0
VERTEX
  8
0
 10
8.36111
 20
10.9238
 30
0.0
 40
0
 41
0
  0
VERTEX
  8
0
 10
8.36654
 20
10.9035
 30
0.0
 40
0
 41
0
  0
VERTEX
  8
0
 10
8.3814
 20
10.8815
 30
0.0
 40
0
 41
0
  0
VERTEX
  8
0
 10
8.40349
 20
10.8666
 30
0.0
 40
0
 41
0
  0
VERTEX
  8
0
 10
8.42378
 20
10.8611
 30
0.0
 40
0
 41
0
  0
VERTEX
  8
0
 10
8.43056
 20
10.8611
 30
0.0
 40
0
 41
0
  0
VERTEX
  8
0
 10
8.43728
 20
10.8611
 30
0.0
 40
0
 41
0
  0
VERTEX
  8
0
 10
8.45757
 20
10.8666
 30
0.0
 40
0
 41
0
  0
VERTEX
  8
0
 10
8.47965
 20
10.8815
 30
0.0
 40
0
 41
0
  0
VERTEX
  8
0
 10
8.49451
 20
10.9035
 30
0.0
 40
0
 41
0
  0
VERTEX
  8
0
 10
8.5
 20
10.9238
 30
0.0
 40
0
 41
0
  0
VERTEX
  8
0
 10
8.5
 20
10.9306
 30
0.0
 40
0
 41
0
  0
SEQEND
 8
0
  0
POLYLINE
  8
0
 62
     0
 66
     1
 10
0
 20
0
 30
0.0
 70
     1
 40
0
 41
0
  0
VERTEX
  8
0
 10
0.138889
 20
0.0694444
 30
0.0
 40
0
 41
0
  0
VERTEX
  8
0
 10
0.138889
 20
0.0762261
 30
0.0
 40
0
 41
0
  0
VERTEX
  8
0
 10
0.133409
 20
0.0965169
 30
0.0
 40
0
 41
0
  0
VERTEX
  8
0
 10
0.118544
 20
0.118598
 30
0.0
 40
0
 41
0
  0
VERTEX
  8
0
 10
0.0964626
 20
0.133464
 30
0.0
 40
0
 41
0
  0
VERTEX
  8
0
 10
0.0761719
 20
0.138889
 30
0.0
 40
0
 41
0
  0
VERTEX
  8
0
 10
0.0694444
 20
0.138889
 30
0.0
 40
0
 41
0
  0
VERTEX
  8
0
 10
0.0626628
 20
0.138889
 30
0.0
 40
0
 41
0
  0
VERTEX
  8
0
 10
0.0423719
 20
0.133464
 30
0.0
 40
0
 41
0
  0
VERTEX
  8
0
 10
0.0202908
 20
0.118598
 30
0.0
 40
0
 41
0
  0
VERTEX
  8
0
 10
0.00542535
 20
0.0965169
 30
0.0
 40
0
 41
0
  0
VERTEX
  8
0
 10
0
 20
0.0762261
 30
0.0
 40
0
 41
0
  0
VERTEX
  8
0
 10
0
 20
0.0694444
 30
0.0
 40
0
 41
0
  0
VERTEX
  8
0
 10
0
 20
0.0627171
 30
0.0
 40
0
 41
0
  0
VERTEX
  8
0
 10
0.00542535
 20
0.0424262
 30
0.0
 40
0
 41
0
  0
VERTEX
  8
0
 10
0.0202908
 20
0.020345
 30
0.0
 40
0
 41
0
  0
VERTEX
  8
0
 10
0.0423719
 20
0.0054796
 30
0.0
 40
0
 41
0
  0
VERTEX
  8
0
 10
0.0626628
 20
0
 30
0.0
 40
0
 41
0
  0
VERTEX
  8
0
 10
0.0694444
 20
0
 30
0.0
 40
0
 41
0
  0
VERTEX
  8
0
 10
0.0761719
 20
0
 30
0.0
 40
0
 41
0
  0
VERTEX
  8
0
 10
0.0964626
 20
0.0054796
 30
0.0
 40
0
 41
0
  0
VERTEX
  8
0
 10
0.118544
 20
0.020345
 30
0.0
 40
0
 41
0
  0
VERTEX
  8
0
 10
0.133409
 20
0.0424262
 30
0.0
 40
0
 41
0
  0
VERTEX
  8
0
 10
0.138889
 20
0.0627171
 30
0.0
 40
0
 41
0
  0
VERTEX
  8
0
 10
0.138889
 20
0.0694444
 30
0.0
 40
0
 41
0
  0
SEQEND
 8
0
  0
POLYLINE
  8
0
 62
     0
 66
     1
 10
0
 20
0
 30
0.0
 70
     1
 40
0
 41
0
  0
VERTEX
  8
0
 10
8.5
 20
0.0694444
 30
0.0
 40
0
 41
0
  0
VERTEX
  8
0
 10
8.5
 20
0.0762261
 30
0.0
 40
0
 41
0
  0
VERTEX
  8
0
 10
8.49451
 20
0.0965169
 30
0.0
 40
0
 41
0
  0
VERTEX
  8
0
 10
8.47965
 20
0.118598
 30
0.0
 40
0
 41
0
  0
VERTEX
  8
0
 10
8.45757
 20
0.133464
 30
0.0
 40
0
 41
0
  0
VERTEX
  8
0
 10
8.43728
 20
0.138889
 30
0.0
 40
0
 41
0
  0
VERTEX
  8
0
 10
8.43056
 20
0.138889
 30
0.0
 40
0
 41
0
  0
VERTEX
  8
0
 10
8.42378
 20
0.138889
 30
0.0
 40
0
 41
0
  0
VERTEX
  8
0
 10
8.40349
 20
0.133464
 30
0.0
 40
0
 41
0
  0
VERTEX
  8
0
 10
8.3814
 20
0.118598
 30
0.0
 40
0
 41
0
  0
VERTEX
  8
0
 10
8.36654
 20
0.0965169
 30
0.0
 40
0
 41
0
  0
VERTEX
  8
0
 10
8.36111
 20
0.0762261
 30
0.0
 40
0
 41
0
  0
VERTEX
  8
0
 10
8.36111
 20
0.0694444
 30
0.0
 40
0
 41
0
  0
VERTEX
  8
0
 10
8.36111
 20
0.0627171
 30
0.0
 40
0
 41
0
  0
VERTEX
  8
0
 10
8.36654
 20
0.0424262
 30
0.0
 40
0
 41
0
  0
VERTEX
  8
0
 10
8.3814
 20
0.020345
 30
0.0
 40
0
 41
0
  0
VERTEX
  8
0
 10
8.40349
 20
0.0054796
 30
0.0
 40
0
 41
0
  0
VERTEX
  8
0
 10
8.42378
 20
0
 30
0.0
 40
0
 41
0
  0
VERTEX
  8
0
 10
8.43056
 20
0
 30
0.0
 40
0
 41
0
  0
VERTEX
  8
0
 10
8.43728
 20
0
 30
0.0
 40
0
 41
0
  0
VERTEX
  8
0
 10
8.45757
 20
0.0054796
 30
0.0
 40
0
 41
0
  0
VERTEX
  8
0
 10
8.47965
 20
0.020345
 30
0.0
 40
0
 41
0
  0
VERTEX
  8
0
 10
8.49451
 20
0.0424262
 30
0.0
 40
0
 41
0
  0
VERTEX
  8
0
 10
8.5
 20
0.0627171
 30
0.0
 40
0
 41
0
  0
VERTEX
  8
0
 10
8.5
 20
0.0694444
 30
0.0
 40
0
 41
0
  0
SEQEND
 8
0
  0
POLYLINE
  8
0
 62
     254
 66
     1
 10
0
 20
0
 30
0.0
 70
     1
 40
1
 41
1
  0
VERTEX
  8
0
 10
1.22054
 20
10.4861
 30
0.0
 40
0.0138889
 41
0.0138889
  0
VERTEX
  8
0
 10
1.22054
 20
10.505
 30
0.0
 40
0.0138889
 41
0.0138889
  0
VERTEX
  8
0
 10
1.20909
 20
10.5617
 30
0.0
 40
0.0138889
 41
0.0138889
  0
VERTEX
  8
0
 10
1.17632
 20
10.6321
 30
0.0
 40
0.0138889
 41
0.0138889
  0
VERTEX
  8
0
 10
1.12446
 20
10.6958
 30
0.0
 40
0.0138889
 41
0.0138889
  0
VERTEX
  8
0
 10
1.05577
 20
10.7513
 30
0.0
 40
0.0138889
 41
0.0138889
  0
VERTEX
  8
0
 10
0.972547
 20
10.7971
 30
0.0
 40
0.0138889
 41
0.0138889
  0
VERTEX
  8
0
 10
0.877007
 20
10.8317
 30
0.0
 40
0.0138889
 41
0.0138889
  0
VERTEX
  8
0
 10
0.771376
 20
10.8535
 30
0.0
 40
0.0138889
 41
0.0138889
  0
VERTEX
  8
0
 10
0.686361
 20
10.8611
 30
0.0
 40
0.0138889
 41
0.0138889
  0
VERTEX
  8
0
 10
0.65804
 20
10.8611
 30
0.0
 40
0.0138889
 41
0.0138889
  0
VERTEX
  8
0
 10
0.629665
 20
10.8611
 30
0.0
 40
0.0138889
 41
0.0138889
  0
VERTEX
  8
0
 10
0.54465
 20
10.8535
 30
0.0
 40
0.0138889
 41
0.0138889
  0
VERTEX
  8
0
 10
0.439074
 20
10.8317
 30
0.0
 40
0.0138889
 41
0.0138889
  0
VERTEX
  8
0
 10
0.343533
 20
10.7971
 30
0.0
 40
0.0138889
 41
0.0138889
  0
VERTEX
  8
0
 10
0.260254
 20
10.7513
 30
0.0
 40
0.0138889
 41
0.0138889
  0
VERTEX
  8
0
 10
0.191569
 20
10.6958
 30
0.0
 40
0.0138889
 41
0.0138889
  0
VERTEX
  8
0
 10
0.139703
 20
10.6321
 30
0.0
 40
0.0138889
 41
0.0138889
  0
VERTEX
  8
0
 10
0.106934
 20
10.5617
 30
0.0
 40
0.0138889
 41
0.0138889
  0
VERTEX
  8
0
 10
0.0955404
 20
10.505
 30
0.0
 40
0.0138889
 41
0.0138889
  0
VERTEX
  8
0
 10
0.0955404
 20
10.4861
 30
0.0
 40
0.0138889
 41
0.0138889
  0
VERTEX
  8
0
 10
0.0955404
 20
10.4672
 30
0.0
 40
0.0138889
 41
0.0138889
  0
VERTEX
  8
0
 10
0.106934
 20
10.4106
 30
0.0
 40
0.0138889
 41
0.0138889
  0
VERTEX
  8
0
 10
0.139703
 20
10.3402
 30
0.0
 40
0.0138889
 41
0.0138889
  0
VERTEX
  8
0
 10
0.191569
 20
10.2765
 30
0.0
 40
0.0138889
 41
0.0138889
  0
VERTEX
  8
0
 10
0.260254
 20
10.221
 30
0.0
 40
0.0138889
 41
0.0138889
  0
VERTEX
  8
0
 10
0.343533
 20
10.1752
 30
0.0
 40
0.0138889
 41
0.0138889
  0
VERTEX
  8
0
 10
0.439074
 20
10.1406
 30
0.0
 40
0.0138889
 41
0.0138889
  0
VERTEX
  8
0
 10
0.54465
 20
10.1188
 30
0.0
 40
0.0138889
 41
0.0138889
  0
VERTEX
  8
0
 10
0.629665
 20
10.1111
 30
0.0
 40
0.0138889
 41
0.0138889
  0
VERTEX
  8
0
 10
0.65804
 20
10.1111
 30
0.0
 40
0.0138889
 41
0.0138889
  0
VERTEX
  8
0
 10
0.686361
 20
10.1111
 30
0.0
 40
0.0138889
 41
0.0138889
  0
VERTEX
  8
0
 10
0.771376
 20
10.1188
 30
0.0
 40
0.0138889
 41
0.0138889
  0
VERTEX
  8
0
 10
0.877007
 20
10.1406
 30
0.0
 40
0.0138889
 41
0.0138889
  0
VERTEX
  8
0
 10
0.972547
 20
10.1752
 30
0.0
 40
0.0138889
 41
0.0138889
  0
VERTEX
  8
0
 10
1.05577
 20
10.221
 30
0.0
 40
0.0138889
 41
0.0138889
  0
VERTEX
  8
0
 10
1.12446
 20
10.2765
 30
0.0
 40
0.0138889
 41
0.0138889
  0
VERTEX
  8
0
 10
1.17632
 20
10.3402
 30
0.0
 40
0.0138889
 41
0.0138889
  0
VERTEX
  8
0
 10
1.20909
 20
10.4106
 30
0.0
 40
0.0138889
 41
0.0138889
  0
VERTEX
  8
0
 10
1.22054
 20
10.4672
 30
0.0
 40
0.0138889
 41
0.0138889
  0
VERTEX
  8
0
 10
1.22054
 20
10.4861
 30
0.0
 40
0.0138889
 41
0.0138889
  0
SEQEND
 8
0
  0
POLYLINE
  8
0
 62
     254
 66
     1
 10
0
 20
0
 30
0.0
 70
     1
 40
1
 41
1
  0
VERTEX
  8
0
 10
0.109429
 20
10.1111
 30
0.0
 40
0.0138889
 41
0.0138889
  0
VERTEX
  8
0
 10
0.109429
 20
10.1136
 30
0.0
 40
0.0138889
 41
0.0138889
  0
VERTEX
  8
0
 10
0.10536
 20
10.1209
 30
0.0
 40
0.0138889
 41
0.0138889
  0
VERTEX
  8
0
 10
0.0979818
 20
10.125
 30
0.0
 40
0.0138889
 41
0.0138889
  0
VERTEX
  8
0
 10
0.0955404
 20
10.125
 30
0.0
 40
0.0138889
 41
0.0138889
  0
VERTEX
  8
0
 10
0.0930447
 20
10.125
 30
0.0
 40
0.0138889
 41
0.0138889
  0
VERTEX
  8
0
 10
0.0857206
 20
10.1209
 30
0.0
 40
0.0138889
 41
0.0138889
  0
VERTEX
  8
0
 10
0.0816515
 20
10.1136
 30
0.0
 40
0.0138889
 41
0.0138889
  0
VERTEX
  8
0
 10
0.0816515
 20
10.1111
 30
0.0
 40
0.0138889
 41
0.0138889
  0
VERTEX
  8
0
 10
0.0816515
 20
10.1087
 30
0.0
 40
0.0138889
 41
0.0138889
  0
VERTEX
  8
0
 10
0.0857206
 20
10.1013
 30
0.0
 40
0.0138889
 41
0.0138889
  0
VERTEX
  8
0
 10
0.0930447
 20
10.0972
 30
0.0
 40
0.0138889
 41
0.0138889
  0
VERTEX
  8
0
 10
0.0955404
 20
10.0972
 30
0.0
 40
0.0138889
 41
0.0138889
  0
VERTEX
  8
0
 10
0.0979818
 20
10.0972
 30
0.0
 40
0.0138889
 41
0.0138889
  0
VERTEX
  8
0
 10
0.10536
 20
10.1013
 30
0.0
 40
0.0138889
 41
0.0138889
  0
VERTEX
  8
0
 10
0.109429
 20
10.1087
 30
0.0
 40
0.0138889
 41
0.0138889
  0
VERTEX
  8
0
 10
0.109429
 20
10.1111
 30
0.0
 40
0.0138889
 41
0.0138889
  0
SEQEND
 8
0
  0
POLYLINE
  8
0
 62
     33
 66
     1
 10
0
 20
0
 30
0.0
 40
1
 41
1
  0
VERTEX
  8
0
 10
0.100477
 20
10.116
 30
0.0
 40
0.0138889
 41
0.0138889
  0
VERTEX
  8
0
 10
0.0997721
 20
10.1168
 30
0.0
 40
0.0138889
 41
0.0138889
  0
VERTEX
  8
0
 10
0.0913086
 20
10.1168
 30
0.0
 40
0.0138889
 41
0.0138889
  0
VERTEX
  8
0
 10
0.0906575
 20
10.116
 30
0.0
 40
0.0138889
 41
0.0138889
  0
VERTEX
  8
0
 10
0.0899522
 20
10.1154
 30
0.0
 40
0.0138889
 41
0.0138889
  0
VERTEX
  8
0
 10
0.0899522
 20
10.1069
 30
0.0
 40
0.0138889
 41
0.0138889
  0
VERTEX
  8
0
 10
0.0906575
 20
10.1062
 30
0.0
 40
0.0138889
 41
0.0138889
  0
SEQEND
 8
0
  0
POLYLINE
  8
0
 62
     0
 66
     1
 10
0
 20
0
 30
0.0
 40
1
 41
1
  0
VERTEX
  8
0
 10
0.110297
 20
10.1258
 30
0.0
 40
0.0138889
 41
0.0138889
  0
VERTEX
  8
0
 10
0.108236
 20
10.1279
 30
0.0
 40
0.0138889
 41
0.0138889
  0
VERTEX
  8
0
 10
0.0955404
 20
10.132
 30
0.0
 40
0.0138889
 41
0.0138889
  0
VERTEX
  8
0
 10
0.082845
 20
10.1279
 30
0.0
 40
0.0138889
 41
0.0138889
  0
VERTEX
  8
0
 10
0.0808376
 20
10.1258
 30
0.0
 40
0.0138889
 41
0.0138889
  0
VERTEX
  8
0
 10
0.0787761
 20
10.1238
 30
0.0
 40
0.0138889
 41
0.0138889
  0
VERTEX
  8
0
 10
0.0746528
 20
10.1111
 30
0.0
 40
0.0138889
 41
0.0138889
  0
VERTEX
  8
0
 10
0.0787761
 20
10.0985
 30
0.0
 40
0.0138889
 41
0.0138889
  0
VERTEX
  8
0
 10
0.0808376
 20
10.0964
 30
0.0
 40
0.0138889
 41
0.0138889
  0
SEQEND
 8
0
  0
POLYLINE
  8
0
 62
     0
 66
     1
 10
0
 20
0
 30
0.0
 70
     1
 40
0
 41
0
  0
VERTEX
  8
0
 10
0.151096
 20
10.1111
 30
0.0
 40
0
 41
0
  0
VERTEX
  8
0
 10
0.151096
 20
10.1165
 30
0.0
 40
0
 41
0
  0
VERTEX
  8
0
 10
0.146701
 20
10.1328
 30
0.0
 40
0
 41
0
  0
VERTEX
  8
0
 10
0.13482
 20
10.1504
 30
0.0
 40
0
 41
0
  0
VERTEX
  8
0
 10
0.117133
 20
10.1623
 30
0.0
 40
0
 41
0
  0
VERTEX
  8
0
 10
0.100912
 20
10.1667
 30
0.0
 40
0
 41
0
  0
VERTEX
  8
0
 10
0.0955404
 20
10.1667
 30
0.0
 40
0
 41
0
  0
VERTEX
  8
0
 10
0.090115
 20
10.1667
 30
0.0
 40
0
 41
0
  0
VERTEX
  8
0
 10
0.0738932
 20
10.1623
 30
0.0
 40
0
 41
0
  0
VERTEX
  8
0
 10
0.0562608
 20
10.1504
 30
0.0
 40
0
 41
0
  0
VERTEX
  8
0
 10
0.0443251
 20
10.1328
 30
0.0
 40
0
 41
0
  0
VERTEX
  8
0
 10
0.0399849
 20
10.1165
 30
0.0
 40
0
 41
0
  0
VERTEX
  8
0
 10
0.0399849
 20
10.1111
 30
0.0
 40
0
 41
0
  0
VERTEX
  8
0
 10
0.0399849
 20
10.1057
 30
0.0
 40
0
 41
0
  0
VERTEX
  8
0
 10
0.0443251
 20
10.0895
 30
0.0
 40
0
 41
0
  0
VERTEX
  8
0
 10
0.0562608
 20
10.0718
 30
0.0
 40
0
 41
0
  0
VERTEX
  8
0
 10
0.0738932
 20
10.0599
 30
0.0
 40
0
 41
0
  0
VERTEX
  8
0
 10
0.090115
 20
10.0556
 30
0.0
 40
0
 41
0
  0
VERTEX
  8
0
 10
0.0955404
 20
10.0556
 30
0.0
 40
0
 41
0
  0
VERTEX
  8
0
 10
0.100912
 20
10.0556
 30
0.0
 40
0
 41
0
  0
VERTEX
  8
0
 10
0.117133
 20
10.0599
 30
0.0
 40
0
 41
0
  0
VERTEX
  8
0
 10
0.13482
 20
10.0718
 30
0.0
 40
0
 41
0
  0
VERTEX
  8
0
 10
0.146701
 20
10.0895
 30
0.0
 40
0
 41
0
  0
VERTEX
  8
0
 10
0.151096
 20
10.1057
 30
0.0
 40
0
 41
0
  0
VERTEX
  8
0
 10
0.151096
 20
10.1111
 30
0.0
 40
0
 41
0
  0
SEQEND
 8
0
  0
POLYLINE
  8
0
 62
     254
 66
     1
 10
0
 20
0
 30
0.0
 70
     1
 40
1
 41
1
  0
VERTEX
  8
0
 10
2.42111
 20
10.4861
 30
0.0
 40
0.0138889
 41
0.0138889
  0
VERTEX
  8
0
 10
2.42111
 20
10.505
 30
0.0
 40
0.0138889
 41
0.0138889
  0
VERTEX
  8
0
 10
2.40967
 20
10.5617
 30
0.0
 40
0.0138889
 41
0.0138889
  0
VERTEX
  8
0
 10
2.3769
 20
10.6321
 30
0.0
 40
0.0138889
 41
0.0138889
  0
VERTEX
  8
0
 10
2.32503
 20
10.6958
 30
0.0
 40
0.0138889
 41
0.0138889
  0
VERTEX
  8
0
 10
2.25635
 20
10.7513
 30
0.0
 40
0.0138889
 41
0.0138889
  0
VERTEX
  8
0
 10
2.17312
 20
10.7971
 30
0.0
 40
0.0138889
 41
0.0138889
  0
VERTEX
  8
0
 10
2.07758
 20
10.8317
 30
0.0
 40
0.0138889
 41
0.0138889
  0
VERTEX
  8
0
 10
1.97194
 20
10.8535
 30
0.0
 40
0.0138889
 41
0.0138889
  0
VERTEX
  8
0
 10
1.88693
 20
10.8611
 30
0.0
 40
0.0138889
 41
0.0138889
  0
VERTEX
  8
0
 10
1.85861
 20
10.8611
 30
0.0
 40
0.0138889
 41
0.0138889
  0
VERTEX
  8
0
 10
1.83024
 20
10.8611
 30
0.0
 40
0.0138889
 41
0.0138889
  0
VERTEX
  8
0
 10
1.74522
 20
10.8535
 30
0.0
 40
0.0138889
 41
0.0138889
  0
VERTEX
  8
0
 10
1.6396
 20
10.8317
 30
0.0
 40
0.0138889
 41
0.0138889
  0
VERTEX
  8
0
 10
1.54406
 20
10.7971
 30
0.0
 40
0.0138889
 41
0.0138889
  0
VERTEX
  8
0
 10
1.46083
 20
10.7513
 30
0.0
 40
0.0138889
 41
0.0138889
  0
VERTEX
  8
0
 10
1.39214
 20
10.6958
 30
0.0
 40
0.0138889
 41
0.0138889
  0
VERTEX
  8
0
 10
1.34028
 20
10.6321
 30
0.0
 40
0.0138889
 41
0.0138889
  0
VERTEX
  8
0
 10
1.30751
 20
10.5617
 30
0.0
 40
0.0138889
 41
0.0138889
  0
VERTEX
  8
0
 10
1.29612
 20
10.505
 30
0.0
 40
0.0138889
 41
0.0138889
  0
VERTEX
  8
0
 10
1.29612
 20
10.4861
 30
0.0
 40
0.0138889
 41
0.0138889
  0
VERTEX
  8
0
 10
1.29612
 20
10.4672
 30
0.0
 40
0.0138889
 41
0.0138889
  0
VERTEX
  8
0
 10
1.30751
 20
10.4106
 30
0.0
 40
0.0138889
 41
0.0138889
  0
VERTEX
  8
0
 10
1.34028
 20
10.3402
 30
0.0
 40
0.0138889
 41
0.0138889
  0
VERTEX
  8
0
 10
1.39214
 20
10.2765
 30
0.0
 40
0.0138889
 41
0.0138889
  0
VERTEX
  8
0
 10
1.46083
 20
10.221
 30
0.0
 40
0.0138889
 41
0.0138889
  0
VERTEX
  8
0
 10
1.54406
 20
10.1752
 30
0.0
 40
0.0138889
 41
0.0138889
  0
VERTEX
  8
0
 10
1.6396
 20
10.1406
 30
0.0
 40
0.0138889
 41
0.0138889
  0
VERTEX
  8
0
 10
1.74522
 20
10.1188
 30
0.0
 40
0.0138889
 41
0.0138889
  0
VERTEX
  8
0
 10
1.83024
 20
10.1111
 30
0.0
 40
0.0138889
 41
0.0138889
  0
VERTEX
  8
0
 10
1.85861
 20
10.1111
 30
0.0
 40
0.0138889
 41
0.0138889
  0
VERTEX
  8
0
 10
1.88693
 20
10.1111
 30
0.0
 40
0.0138889
 41
0.0138889
  0
VERTEX
  8
0
 10
1.97194
 20
10.1188
 30
0.0
 40
0.0138889
 41
0.0138889
  0
VERTEX
  8
0
 10
2.07758
 20
10.1406
 30
0.0
 40
0.0138889
 41
0.0138889
  0
VERTEX
  8
0
 10
2.17312
 20
10.1752
 30
0.0
 40
0.0138889
 41
0.0138889
  0
VERTEX
  8
0
 10
2.25635
 20
10.221
 30
0.0
 40
0.0138889
 41
0.0138889
  0
VERTEX
  8
0
 10
2.32503
 20
10.2765
 30
0.0
 40
0.0138889
 41
0.0138889
  0
VERTEX
  8
0
 10
2.3769
 20
10.3402
 30
0.0
 40
0.0138889
 41
0.0138889
  0
VERTEX
  8
0
 10
2.40967
 20
10.4106
 30
0.0
 40
0.0138889
 41
0.0138889
  0
VERTEX
  8
0
 10
2.42111
 20
10.4672
 30
0.0
 40
0.0138889
 41
0.0138889
  0
VERTEX
  8
0
 10
2.42111
 20
10.4861
 30
0.0
 40
0.0138889
 41
0.0138889
  0
SEQEND
 8
0
  0
POLYLINE
  8
0
 62
     254
 66
     1
 10
0
 20
0
 30
0.0
 70
     1
 40
1
 41
1
  0
VERTEX
  8
0
 10
1.31
 20
10.1111
 30
0.0
 40
0.0138889
 41
0.0138889
  0
VERTEX
  8
0
 10
1.31
 20
10.1136
 30
0.0
 40
0.0138889
 41
0.0138889
  0
VERTEX
  8
0
 10
1.30588
 20
10.1209
 30
0.0
 40
0.0138889
 41
0.0138889
  0
VERTEX
  8
0
 10
1.29856
 20
10.125
 30
0.0
 40
0.0138889
 41
0.0138889
  0
VERTEX
  8
0
 10
1.29612
 20
10.125
 30
0.0
 40
0.0138889
 41
0.0138889
  0
VERTEX
  8
0
 10
1.29362
 20
10.125
 30
0.0
 40
0.0138889
 41
0.0138889
  0
VERTEX
  8
0
 10
1.2863
 20
10.1209
 30
0.0
 40
0.0138889
 41
0.0138889
  0
VERTEX
  8
0
 10
1.28223
 20
10.1136
 30
0.0
 40
0.0138889
 41
0.0138889
  0
VERTEX
  8
0
 10
1.28223
 20
10.1111
 30
0.0
 40
0.0138889
 41
0.0138889
  0
VERTEX
  8
0
 10
1.28223
 20
10.1087
 30
0.0
 40
0.0138889
 41
0.0138889
  0
VERTEX
  8
0
 10
1.2863
 20
10.1013
 30
0.0
 40
0.0138889
 41
0.0138889
  0
VERTEX
  8
0
 10
1.29362
 20
10.0972
 30
0.0
 40
0.0138889
 41
0.0138889
  0
VERTEX
  8
0
 10
1.29612
 20
10.0972
 30
0.0
 40
0.0138889
 41
0.0138889
  0
VERTEX
  8
0
 10
1.29856
 20
10.0972
 30
0.0
 40
0.0138889
 41
0.0138889
  0
VERTEX
  8
0
 10
1.30588
 20
10.1013
 30
0.0
 40
0.0138889
 41
0.0138889
  0
VERTEX
  8
0
 10
1.31
 20
10.1087
 30
0.0
 40
0.0138889
 41
0.0138889
  0
VERTEX
  8
0
 10
1.31
 20
10.1111
 30
0.0
 40
0.0138889
 41
0.0138889
  0
SEQEND
 8
0
  0
POLYLINE
  8
0
 62
     33
 66
     1
 10
0
 20
0
 30
0.0
 40
1
 41
1
  0
VERTEX
  8
0
 10
1.301
 20
10.116
 30
0.0
 40
0.0138889
 41
0.0138889
  0
VERTEX
  8
0
 10
1.30029
 20
10.1168
 30
0.0
 40
0.0138889
 41
0.0138889
  0
VERTEX
  8
0
 10
1.29183
 20
10.1168
 30
0.0
 40
0.0138889
 41
0.0138889
  0
VERTEX
  8
0
 10
1.29118
 20
10.116
 30
0.0
 40
0.0138889
 41
0.0138889
  0
VERTEX
  8
0
 10
1.29047
 20
10.1154
 30
0.0
 40
0.0138889
 41
0.0138889
  0
VERTEX
  8
0
 10
1.29047
 20
10.1069
 30
0.0
 40
0.0138889
 41
0.0138889
  0
VERTEX
  8
0
 10
1.29118
 20
10.1062
 30
0.0
 40
0.0138889
 41
0.0138889
  0
SEQEND
 8
0
  0
POLYLINE
  8
0
 62
     0
 66
     1
 10
0
 20
0
 30
0.0
 40
1
 41
1
  0
VERTEX
  8
0
 10
1.31082
 20
10.1258
 30
0.0
 40
0.0138889
 41
0.0138889
  0
VERTEX
  8
0
 10
1.30876
 20
10.1279
 30
0.0
 40
0.0138889
 41
0.0138889
  0
VERTEX
  8
0
 10
1.29606
 20
10.132
 30
0.0
 40
0.0138889
 41
0.0138889
  0
VERTEX
  8
0
 10
1.28342
 20
10.1279
 30
0.0
 40
0.0138889
 41
0.0138889
  0
VERTEX
  8
0
 10
1.28141
 20
10.1258
 30
0.0
 40
0.0138889
 41
0.0138889
  0
VERTEX
  8
0
 10
1.27935
 20
10.1238
 30
0.0
 40
0.0138889
 41
0.0138889
  0
VERTEX
  8
0
 10
1.27523
 20
10.1111
 30
0.0
 40
0.0138889
 41
0.0138889
  0
VERTEX
  8
0
 10
1.27935
 20
10.0985
 30
0.0
 40
0.0138889
 41
0.0138889
  0
VERTEX
  8
0
 10
1.28141
 20
10.0964
 30
0.0
 40
0.0138889
 41
0.0138889
  0
SEQEND
 8
0
  0
POLYLINE
  8
0
 62
     0
 66
     1
 10
0
 20
0
 30
0.0
 70
     1
 40
0
 41
0
  0
VERTEX
  8
0
 10
1.35167
 20
10.1111
 30
0.0
 40
0
 41
0
  0
VERTEX
  8
0
 10
1.35167
 20
10.1165
 30
0.0
 40
0
 41
0
  0
VERTEX
  8
0
 10
1.34728
 20
10.1328
 30
0.0
 40
0
 41
0
  0
VERTEX
  8
0
 10
1.33539
 20
10.1504
 30
0.0
 40
0
 41
0
  0
VERTEX
  8
0
 10
1.31771
 20
10.1623
 30
0.0
 40
0
 41
0
  0
VERTEX
  8
0
 10
1.30149
 20
10.1667
 30
0.0
 40
0
 41
0
  0
VERTEX
  8
0
 10
1.29612
 20
10.1667
 30
0.0
 40
0
 41
0
  0
VERTEX
  8
0
 10
1.29069
 20
10.1667
 30
0.0
 40
0
 41
0
  0
VERTEX
  8
0
 10
1.27447
 20
10.1623
 30
0.0
 40
0
 41
0
  0
VERTEX
  8
0
 10
1.25678
 20
10.1504
 30
0.0
 40
0
 41
0
  0
VERTEX
  8
0
 10
1.2449
 20
10.1328
 30
0.0
 40
0
 41
0
  0
VERTEX
  8
0
 10
1.24056
 20
10.1165
 30
0.0
 40
0
 41
0
  0
VERTEX
  8
0
 10
1.24056
 20
10.1111
 30
0.0
 40
0
 41
0
  0
VERTEX
  8
0
 10
1.24056
 20
10.1057
 30
0.0
 40
0
 41
0
  0
VERTEX
  8
0
 10
1.2449
 20
10.0895
 30
0.0
 40
0
 41
0
  0
VERTEX
  8
0
 10
1.25678
 20
10.0718
 30
0.0
 40
0
 41
0
  0
VERTEX
  8
0
 10
1.27447
 20
10.0599
 30
0.0
 40
0
 41
0
  0
VERTEX
  8
0
 10
1.29069
 20
10.0556
 30
0.0
 40
0
 41
0
  0
VERTEX
  8
0
 10
1.29612
 20
10.0556
 30
0.0
 40
0
 41
0
  0
VERTEX
  8
0
 10
1.30149
 20
10.0556
 30
0.0
 40
0
 41
0
  0
VERTEX
  8
0
 10
1.31771
 20
10.0599
 30
0.0
 40
0
 41
0
  0
VERTEX
  8
0
 10
1.33539
 20
10.0718
 30
0.0
 40
0
 41
0
  0
VERTEX
  8
0
 10
1.34728
 20
10.0895
 30
0.0
 40
0
 41
0
  0
VERTEX
  8
0
 10
1.35167
 20
10.1057
 30
0.0
 40
0
 41
0
  0
VERTEX
  8
0
 10
1.35167
 20
10.1111
 30
0.0
 40
0
 41
0
  0
SEQEND
 8
0
  0
POLYLINE
  8
0
 62
     254
 66
     1
 10
0
 20
0
 30
0.0
 70
     1
 40
1
 41
1
  0
VERTEX
  8
0
 10
3.62181
 20
10.4861
 30
0.0
 40
0.0138889
 41
0.0138889
  0
VERTEX
  8
0
 10
3.62181
 20
10.505
 30
0.0
 40
0.0138889
 41
0.0138889
  0
VERTEX
  8
0
 10
3.61035
 20
10.5617
 30
0.0
 40
0.0138889
 41
0.0138889
  0
VERTEX
  8
0
 10
3.57758
 20
10.6321
 30
0.0
 40
0.0138889
 41
0.0138889
  0
VERTEX
  8
0
 10
3.52572
 20
10.6958
 30
0.0
 40
0.0138889
 41
0.0138889
  0
VERTEX
  8
0
 10
3.45703
 20
10.7513
 30
0.0
 40
0.0138889
 41
0.0138889
  0
VERTEX
  8
0
 10
3.37381
 20
10.7971
 30
0.0
 40
0.0138889
 41
0.0138889
  0
VERTEX
  8
0
 10
3.27826
 20
10.8317
 30
0.0
 40
0.0138889
 41
0.0138889
  0
VERTEX
  8
0
 10
3.17264
 20
10.8535
 30
0.0
 40
0.0138889
 41
0.0138889
  0
VERTEX
  8
0
 10
3.08763
 20
10.8611
 30
0.0
 40
0.0138889
 41
0.0138889
  0
VERTEX
  8
0
 10
3.05931
 20
10.8611
 30
0.0
 40
0.0138889
 41
0.0138889
  0
VERTEX
  8
0
 10
3.03093
 20
10.8611
 30
0.0
 40
0.0138889
 41
0.0138889
  0
VERTEX
  8
0
 10
2.9459
 20
10.8535
 30
0.0
 40
0.0138889
 41
0.0138889
  0
VERTEX
  8
0
 10
2.84028
 20
10.8317
 30
0.0
 40
0.0138889
 41
0.0138889
  0
VERTEX
  8
0
 10
2.74474
 20
10.7971
 30
0.0
 40
0.0138889
 41
0.0138889
  0
VERTEX
  8
0
 10
2.66151
 20
10.7513
 30
0.0
 40
0.0138889
 41
0.0138889
  0
VERTEX
  8
0
 10
2.59283
 20
10.6958
 30
0.0
 40
0.0138889
 41
0.0138889
  0
VERTEX
  8
0
 10
2.54096
 20
10.6321
 30
0.0
 40
0.0138889
 41
0.0138889
  0
VERTEX
  8
0
 10
2.50819
 20
10.5617
 30
0.0
 40
0.0138889
 41
0.0138889
  0
VERTEX
  8
0
 10
2.49681
 20
10.505
 30
0.0
 40
0.0138889
 41
0.0138889
  0
VERTEX
  8
0
 10
2.49681
 20
10.4861
 30
0.0
 40
0.0138889
 41
0.0138889
  0
VERTEX
  8
0
 10
2.49681
 20
10.4672
 30
0.0
 40
0.0138889
 41
0.0138889
  0
VERTEX
  8
0
 10
2.50819
 20
10.4106
 30
0.0
 40
0.0138889
 41
0.0138889
  0
VERTEX
  8
0
 10
2.54096
 20
10.3402
 30
0.0
 40
0.0138889
 41
0.0138889
  0
VERTEX
  8
0
 10
2.59283
 20
10.2765
 30
0.0
 40
0.0138889
 41
0.0138889
  0
VERTEX
  8
0
 10
2.66151
 20
10.221
 30
0.0
 40
0.0138889
 41
0.0138889
  0
VERTEX
  8
0
 10
2.74474
 20
10.1752
 30
0.0
 40
0.0138889
 41
0.0138889
  0
VERTEX
  8
0
 10
2.84028
 20
10.1406
 30
0.0
 40
0.0138889
 41
0.0138889
  0
VERTEX
  8
0
 10
2.9459
 20
10.1188
 30
0.0
 40
0.0138889
 41
0.0138889
  0
VERTEX
  8
0
 10
3.03093
 20
10.1111
 30
0.0
 40
0.0138889
 41
0.0138889
  0
VERTEX
  8
0
 10
3.05931
 20
10.1111
 30
0.0
 40
0.0138889
 41
0.0138889
  0
VERTEX
  8
0
 10
3.08763
 20
10.1111
 30
0.0
 40
0.0138889
 41
0.0138889
  0
VERTEX
  8
0
 10
3.17264
 20
10.1188
 30
0.0
 40
0.0138889
 41
0.0138889
  0
VERTEX
  8
0
 10
3.27826
 20
10.1406
 30
0.0
 40
0.0138889
 41
0.0138889
  0
VERTEX
  8
0
 10
3.37381
 20
10.1752
 30
0.0
 40
0.0138889
 41
0.0138889
  0
VERTEX
  8
0
 10
3.45703
 20
10.221
 30
0.0
 40
0.0138889
 41
0.0138889
  0
VERTEX
  8
0
 10
3.52572
 20
10.2765
 30
0.0
 40
0.0138889
 41
0.0138889
  0
VERTEX
  8
0
 10
3.57758
 20
10.3402
 30
0.0
 40
0.0138889
 41
0.0138889
  0
VERTEX
  8
0
 10
3.61035
 20
10.4106
 30
0.0
 40
0.0138889
 41
0.0138889
  0
VERTEX
  8
0
 10
3.62181
 20
10.4672
 30
0.0
 40
0.0138889
 41
0.0138889
  0
VERTEX
  8
0
 10
3.62181
 20
10.4861
 30
0.0
 40
0.0138889
 41
0.0138889
  0
SEQEND
 8
0
  0
POLYLINE
  8
0
 62
     254
 66
     1
 10
0
 20
0
 30
0.0
 70
     1
 40
1
 41
1
  0
VERTEX
  8
0
 10
2.51069
 20
10.1111
 30
0.0
 40
0.0138889
 41
0.0138889
  0
VERTEX
  8
0
 10
2.51069
 20
10.1136
 30
0.0
 40
0.0138889
 41
0.0138889
  0
VERTEX
  8
0
 10
2.50663
 20
10.1209
 30
0.0
 40
0.0138889
 41
0.0138889
  0
VERTEX
  8
0
 10
2.49924
 20
10.125
 30
0.0
 40
0.0138889
 41
0.0138889
  0
VERTEX
  8
0
 10
2.49681
 20
10.125
 30
0.0
 40
0.0138889
 41
0.0138889
  0
VERTEX
  8
0
 10
2.49431
 20
10.125
 30
0.0
 40
0.0138889
 41
0.0138889
  0
VERTEX
  8
0
 10
2.48699
 20
10.1209
 30
0.0
 40
0.0138889
 41
0.0138889
  0
VERTEX
  8
0
 10
2.48292
 20
10.1136
 30
0.0
 40
0.0138889
 41
0.0138889
  0
VERTEX
  8
0
 10
2.48292
 20
10.1111
 30
0.0
 40
0.0138889
 41
0.0138889
  0
VERTEX
  8
0
 10
2.48292
 20
10.1087
 30
0.0
 40
0.0138889
 41
0.0138889
  0
VERTEX
  8
0
 10
2.48699
 20
10.1013
 30
0.0
 40
0.0138889
 41
0.0138889
  0
VERTEX
  8
0
 10
2.49431
 20
10.0972
 30
0.0
 40
0.0138889
 41
0.0138889
  0
VERTEX
  8
0
 10
2.49681
 20
10.0972
 30
0.0
 40
0.0138889
 41
0.0138889
  0
VERTEX
  8
0
 10
2.49924
 20
10.0972
 30
0.0
 40
0.0138889
 41
0.0138889
  0
VERTEX
  8
0
 10
2.50663
 20
10.1013
 30
0.0
 40
0.0138889
 41
0.0138889
  0
VERTEX
  8
0
 10
2.51069
 20
10.1087
 30
0.0
 40
0.0138889
 41
0.0138889
  0
VERTEX
  8
0
 10
2.51069
 20
10.1111
 30
0.0
 40
0.0138889
 41
0.0138889
  0
SEQEND
 8
0
  0
POLYLINE
  8
0
 62
     33
 66
     1
 10
0
 20
0
 30
0.0
 40
1
 41
1
  0
VERTEX
  8
0
 10
2.50174
 20
10.116
 30
0.0
 40
0.0138889
 41
0.0138889
  0
VERTEX
  8
0
 10
2.50103
 20
10.1168
 30
0.0
 40
0.0138889
 41
0.0138889
  0
VERTEX
  8
0
 10
2.49257
 20
10.1168
 30
0.0
 40
0.0138889
 41
0.0138889
  0
VERTEX
  8
0
 10
2.49192
 20
10.116
 30
0.0
 40
0.0138889
 41
0.0138889
  0
VERTEX
  8
0
 10
2.49121
 20
10.1154
 30
0.0
 40
0.0138889
 41
0.0138889
  0
VERTEX
  8
0
 10
2.49121
 20
10.1069
 30
0.0
 40
0.0138889
 41
0.0138889
  0
VERTEX
  8
0
 10
2.49192
 20
10.1062
 30
0.0
 40
0.0138889
 41
0.0138889
  0
SEQEND
 8
0
  0
POLYLINE
  8
0
 62
     0
 66
     1
 10
0
 20
0
 30
0.0
 40
1
 41
1
  0
VERTEX
  8
0
 10
2.5115
 20
10.1258
 30
0.0
 40
0.0138889
 41
0.0138889
  0
VERTEX
  8
0
 10
2.50944
 20
10.1279
 30
0.0
 40
0.0138889
 41
0.0138889
  0
VERTEX
  8
0
 10
2.49681
 20
10.132
 30
0.0
 40
0.0138889
 41
0.0138889
  0
VERTEX
  8
0
 10
2.4841
 20
10.1279
 30
0.0
 40
0.0138889
 41
0.0138889
  0
VERTEX
  8
0
 10
2.4821
 20
10.1258
 30
0.0
 40
0.0138889
 41
0.0138889
  0
VERTEX
  8
0
 10
2.48004
 20
10.1238
 30
0.0
 40
0.0138889
 41
0.0138889
  0
VERTEX
  8
0
 10
2.47592
 20
10.1111
 30
0.0
 40
0.0138889
 41
0.0138889
  0
VERTEX
  8
0
 10
2.48004
 20
10.0985
 30
0.0
 40
0.0138889
 41
0.0138889
  0
VERTEX
  8
0
 10
2.4821
 20
10.0964
 30
0.0
 40
0.0138889
 41
0.0138889
  0
SEQEND
 8
0
  0
POLYLINE
  8
0
 62
     0
 66
     1
 10
0
 20
0
 30
0.0
 70
     1
 40
0
 41
0
  0
VERTEX
  8
0
 10
2.55236
 20
10.1111
 30
0.0
 40
0
 41
0
  0
VERTEX
  8
0
 10
2.55236
 20
10.1165
 30
0.0
 40
0
 41
0
  0
VERTEX
  8
0
 10
2.54796
 20
10.1328
 30
0.0
 40
0
 41
0
  0
VERTEX
  8
0
 10
2.53608
 20
10.1504
 30
0.0
 40
0
 41
0
  0
VERTEX
  8
0
 10
2.51839
 20
10.1623
 30
0.0
 40
0
 41
0
  0
VERTEX
  8
0
 10
2.50217
 20
10.1667
 30
0.0
 40
0
 41
0
  0
VERTEX
  8
0
 10
2.49681
 20
10.1667
 30
0.0
 40
0
 41
0
  0
VERTEX
  8
0
 10
2.49137
 20
10.1667
 30
0.0
 40
0
 41
0
  0
VERTEX
  8
0
 10
2.47515
 20
10.1623
 30
0.0
 40
0
 41
0
  0
VERTEX
  8
0
 10
2.45747
 20
10.1504
 30
0.0
 40
0
 41
0
  0
VERTEX
  8
0
 10
2.44558
 20
10.1328
 30
0.0
 40
0
 41
0
  0
VERTEX
  8
0
 10
2.44125
 20
10.1165
 30
0.0
 40
0
 41
0
  0
VERTEX
  8
0
 10
2.44125
 20
10.1111
 30
0.0
 40
0
 41
0
  0
VERTEX
  8
0
 10
2.44125
 20
10.1057
 30
0.0
 40
0
 41
0
  0
VERTEX
  8
0
 10
2.44558
 20
10.0895
 30
0.0
 40
0
 41
0
  0
VERTEX
  8
0
 10
2.45747
 20
10.0718
 30
0.0
 40
0
 41
0
  0
VERTEX
  8
0
 10
2.47515
 20
10.0599
 30
0.0
 40
0
 41
0
  0
VERTEX
  8
0
 10
2.49137
 20
10.0556
 30
0.0
 40
0
 41
0
  0
VERTEX
  8
0
 10
2.49681
 20
10.0556
 30
0.0
 40
0
 41
0
  0
VERTEX
  8
0
 10
2.50217
 20
10.0556
 30
0.0
 40
0
 41
0
  0
VERTEX
  8
0
 10
2.51839
 20
10.0599
 30
0.0
 40
0
 41
0
  0
VERTEX
  8
0
 10
2.53608
 20
10.0718
 30
0.0
 40
0
 41
0
  0
VERTEX
  8
0
 10
2.54796
 20
10.0895
 30
0.0
 40
0
 41
0
  0
VERTEX
  8
0
 10
2.55236
 20
10.1057
 30
0.0
 40
0
 41
0
  0
VERTEX
  8
0
 10
2.55236
 20
10.1111
 30
0.0
 40
0
 41
0
  0
SEQEND
 8
0
  0
POLYLINE
  8
0
 62
     254
 66
     1
 10
0
 20
0
 30
0.0
 70
     1
 40
1
 41
1
  0
VERTEX
  8
0
 10
4.82249
 20
10.4861
 30
0.0
 40
0.0138889
 41
0.0138889
  0
VERTEX
  8
0
 10
4.82249
 20
10.505
 30
0.0
 40
0.0138889
 41
0.0138889
  0
VERTEX
  8
0
 10
4.81104
 20
10.5617
 30
0.0
 40
0.0138889
 41
0.0138889
  0
VERTEX
  8
0
 10
4.77826
 20
10.6321
 30
0.0
 40
0.0138889
 41
0.0138889
  0
VERTEX
  8
0
 10
4.7264
 20
10.6958
 30
0.0
 40
0.0138889
 41
0.0138889
  0
VERTEX
  8
0
 10
4.65771
 20
10.7513
 30
0.0
 40
0.0138889
 41
0.0138889
  0
VERTEX
  8
0
 10
4.57449
 20
10.7971
 30
0.0
 40
0.0138889
 41
0.0138889
  0
VERTEX
  8
0
 10
4.47894
 20
10.8317
 30
0.0
 40
0.0138889
 41
0.0138889
  0
VERTEX
  8
0
 10
4.37332
 20
10.8535
 30
0.0
 40
0.0138889
 41
0.0138889
  0
VERTEX
  8
0
 10
4.28831
 20
10.8611
 30
0.0
 40
0.0138889
 41
0.0138889
  0
VERTEX
  8
0
 10
4.25999
 20
10.8611
 30
0.0
 40
0.0138889
 41
0.0138889
  0
VERTEX
  8
0
 10
4.23161
 20
10.8611
 30
0.0
 40
0.0138889
 41
0.0138889
  0
VERTEX
  8
0
 10
4.1466
 20
10.8535
 30
0.0
 40
0.0138889
 41
0.0138889
  0
VERTEX
  8
0
 10
4.04101
 20
10.8317
 30
0.0
 40
0.0138889
 41
0.0138889
  0
VERTEX
  8
0
 10
3.94547
 20
10.7971
 30
0.0
 40
0.0138889
 41
0.0138889
  0
VERTEX
  8
0
 10
3.86219
 20
10.7513
 30
0.0
 40
0.0138889
 41
0.0138889
  0
VERTEX
  8
0
 10
3.79351
 20
10.6958
 30
0.0
 40
0.0138889
 41
0.0138889
  0
VERTEX
  8
0
 10
3.74164
 20
10.6321
 30
0.0
 40
0.0138889
 41
0.0138889
  0
VERTEX
  8
0
 10
3.70888
 20
10.5617
 30
0.0
 40
0.0138889
 41
0.0138889
  0
VERTEX
  8
0
 10
3.69749
 20
10.505
 30
0.0
 40
0.0138889
 41
0.0138889
  0
VERTEX
  8
0
 10
3.69749
 20
10.4861
 30
0.0
 40
0.0138889
 41
0.0138889
  0
VERTEX
  8
0
 10
3.69749
 20
10.4672
 30
0.0
 40
0.0138889
 41
0.0138889
  0
VERTEX
  8
0
 10
3.70888
 20
10.4106
 30
0.0
 40
0.0138889
 41
0.0138889
  0
VERTEX
  8
0
 10
3.74164
 20
10.3402
 30
0.0
 40
0.0138889
 41
0.0138889
  0
VERTEX
  8
0
 10
3.79351
 20
10.2765
 30
0.0
 40
0.0138889
 41
0.0138889
  0
VERTEX
  8
0
 10
3.86219
 20
10.221
 30
0.0
 40
0.0138889
 41
0.0138889
  0
VERTEX
  8
0
 10
3.94547
 20
10.1752
 30
0.0
 40
0.0138889
 41
0.0138889
  0
VERTEX
  8
0
 10
4.04101
 20
10.1406
 30
0.0
 40
0.0138889
 41
0.0138889
  0
VERTEX
  8
0
 10
4.1466
 20
10.1188
 30
0.0
 40
0.0138889
 41
0.0138889
  0
VERTEX
  8
0
 10
4.23161
 20
10.1111
 30
0.0
 40
0.0138889
 41
0.0138889
  0
VERTEX
  8
0
 10
4.25999
 20
10.1111
 30
0.0
 40
0.0138889
 41
0.0138889
  0
VERTEX
  8
0
 10
4.28831
 20
10.1111
 30
0.0
 40
0.0138889
 41
0.0138889
  0
VERTEX
  8
0
 10
4.37332
 20
10.1188
 30
0.0
 40
0.0138889
 41
0.0138889
  0
VERTEX
  8
0
 10
4.47894
 20
10.1406
 30
0.0
 40
0.0138889
 41
0.0138889
  0
VERTEX
  8
0
 10
4.57449
 20
10.1752
 30
0.0
 40
0.0138889
 41
0.0138889
  0
VERTEX
  8
0
 10
4.65771
 20
10.221
 30
0.0
 40
0.0138889
 41
0.0138889
  0
VERTEX
  8
0
 10
4.7264
 20
10.2765
 30
0.0
 40
0.0138889
 41
0.0138889
  0
VERTEX
  8
0
 10
4.77826
 20
10.3402
 30
0.0
 40
0.0138889
 41
0.0138889
  0
VERTEX
  8
0
 10
4.81104
 20
10.4106
 30
0.0
 40
0.0138889
 41
0.0138889
  0
VERTEX
  8
0
 10
4.82249
 20
10.4672
 30
0.0
 40
0.0138889
 41
0.0138889
  0
VERTEX
  8
0
 10
4.82249
 20
10.4861
 30
0.0
 40
0.0138889
 41
0.0138889
  0
SEQEND
 8
0
  0
POLYLINE
  8
0
 62
     254
 66
     1
 10
0
 20
0
 30
0.0
 70
     1
 40
1
 41
1
  0
VERTEX
  8
0
 10
3.71137
 20
10.1111
 30
0.0
 40
0.0138889
 41
0.0138889
  0
VERTEX
  8
0
 10
3.71137
 20
10.1136
 30
0.0
 40
0.0138889
 41
0.0138889
  0
VERTEX
  8
0
 10
3.70731
 20
10.1209
 30
0.0
 40
0.0138889
 41
0.0138889
  0
VERTEX
  8
0
 10
3.69993
 20
10.125
 30
0.0
 40
0.0138889
 41
0.0138889
  0
VERTEX
  8
0
 10
3.69749
 20
10.125
 30
0.0
 40
0.0138889
 41
0.0138889
  0
VERTEX
  8
0
 10
3.69499
 20
10.125
 30
0.0
 40
0.0138889
 41
0.0138889
  0
VERTEX
  8
0
 10
3.68767
 20
10.1209
 30
0.0
 40
0.0138889
 41
0.0138889
  0
VERTEX
  8
0
 10
3.6836
 20
10.1136
 30
0.0
 40
0.0138889
 41
0.0138889
  0
VERTEX
  8
0
 10
3.6836
 20
10.1111
 30
0.0
 40
0.0138889
 41
0.0138889
  0
VERTEX
  8
0
 10
3.6836
 20
10.1087
 30
0.0
 40
0.0138889
 41
0.0138889
  0
VERTEX
  8
0
 10
3.68767
 20
10.1013
 30
0.0
 40
0.0138889
 41
0.0138889
  0
VERTEX
  8
0
 10
3.69499
 20
10.0972
 30
0.0
 40
0.0138889
 41
0.0138889
  0
VERTEX
  8
0
 10
3.69749
 20
10.0972
 30
0.0
 40
0.0138889
 41
0.0138889
  0
VERTEX
  8
0
 10
3.69993
 20
10.0972
 30
0.0
 40
0.0138889
 41
0.0138889
  0
VERTEX
  8
0
 10
3.70731
 20
10.1013
 30
0.0
 40
0.0138889
 41
0.0138889
  0
VERTEX
  8
0
 10
3.71137
 20
10.1087
 30
0.0
 40
0.0138889
 41
0.0138889
  0
VERTEX
  8
0
 10
3.71137
 20
10.1111
 30
0.0
 40
0.0138889
 41
0.0138889
  0
SEQEND
 8
0
  0
POLYLINE
  8
0
 62
     33
 66
     1
 10
0
 20
0
 30
0.0
 40
1
 41
1
  0
VERTEX
  8
0
 10
3.70242
 20
10.116
 30
0.0
 40
0.0138889
 41
0.0138889
  0
VERTEX
  8
0
 10
3.70171
 20
10.1168
 30
0.0
 40
0.0138889
 41
0.0138889
  0
VERTEX
  8
0
 10
3.69325
 20
10.1168
 30
0.0
 40
0.0138889
 41
0.0138889
  0
VERTEX
  8
0
 10
3.6926
 20
10.116
 30
0.0
 40
0.0138889
 41
0.0138889
  0
VERTEX
  8
0
 10
3.69189
 20
10.1154
 30
0.0
 40
0.0138889
 41
0.0138889
  0
VERTEX
  8
0
 10
3.69189
 20
10.1069
 30
0.0
 40
0.0138889
 41
0.0138889
  0
VERTEX
  8
0
 10
3.6926
 20
10.1062
 30
0.0
 40
0.0138889
 41
0.0138889
  0
SEQEND
 8
0
  0
POLYLINE
  8
0
 62
     0
 66
     1
 10
0
 20
0
 30
0.0
 40
1
 41
1
  0
VERTEX
  8
0
 10
3.71224
 20
10.1258
 30
0.0
 40
0.0138889
 41
0.0138889
  0
VERTEX
  8
0
 10
3.71018
 20
10.1279
 30
0.0
 40
0.0138889
 41
0.0138889
  0
VERTEX
  8
0
 10
3.69749
 20
10.132
 30
0.0
 40
0.0138889
 41
0.0138889
  0
VERTEX
  8
0
 10
3.68479
 20
10.1279
 30
0.0
 40
0.0138889
 41
0.0138889
  0
VERTEX
  8
0
 10
3.68278
 20
10.1258
 30
0.0
 40
0.0138889
 41
0.0138889
  0
VERTEX
  8
0
 10
3.68072
 20
10.1238
 30
0.0
 40
0.0138889
 41
0.0138889
  0
VERTEX
  8
0
 10
3.6766
 20
10.1111
 30
0.0
 40
0.0138889
 41
0.0138889
  0
VERTEX
  8
0
 10
3.68072
 20
10.0985
 30
0.0
 40
0.0138889
 41
0.0138889
  0
VERTEX
  8
0
 10
3.68278
 20
10.0964
 30
0.0
 40
0.0138889
 41
0.0138889
  0
SEQEND
 8
0
  0
POLYLINE
  8
0
 62
     0
 66
     1
 10
0
 20
0
 30
0.0
 70
     1
 40
0
 41
0
  0
VERTEX
  8
0
 10
3.75304
 20
10.1111
 30
0.0
 40
0
 41
0
  0
VERTEX
  8
0
 10
3.75304
 20
10.1165
 30
0.0
 40
0
 41
0
  0
VERTEX
  8
0
 10
3.74864
 20
10.1328
 30
0.0
 40
0
 41
0
  0
VERTEX
  8
0
 10
3.73676
 20
10.1504
 30
0.0
 40
0
 41
0
  0
VERTEX
  8
0
 10
3.71907
 20
10.1623
 30
0.0
 40
0
 41
0
  0
VERTEX
  8
0
 10
3.70285
 20
10.1667
 30
0.0
 40
0
 41
0
  0
VERTEX
  8
0
 10
3.69749
 20
10.1667
 30
0.0
 40
0
 41
0
  0
VERTEX
  8
0
 10
3.69206
 20
10.1667
 30
0.0
 40
0
 41
0
  0
VERTEX
  8
0
 10
3.67583
 20
10.1623
 30
0.0
 40
0
 41
0
  0
VERTEX
  8
0
 10
3.65821
 20
10.1504
 30
0.0
 40
0
 41
0
  0
VERTEX
  8
0
 10
3.64626
 20
10.1328
 30
0.0
 40
0
 41
0
  0
VERTEX
  8
0
 10
3.64193
 20
10.1165
 30
0.0
 40
0
 41
0
  0
VERTEX
  8
0
 10
3.64193
 20
10.1111
 30
0.0
 40
0
 41
0
  0
VERTEX
  8
0
 10
3.64193
 20
10.1057
 30
0.0
 40
0
 41
0
  0
VERTEX
  8
0
 10
3.64626
 20
10.0895
 30
0.0
 40
0
 41
0
  0
VERTEX
  8
0
 10
3.65821
 20
10.0718
 30
0.0
 40
0
 41
0
  0
VERTEX
  8
0
 10
3.67583
 20
10.0599
 30
0.0
 40
0
 41
0
  0
VERTEX
  8
0
 10
3.69206
 20
10.0556
 30
0.0
 40
0
 41
0
  0
VERTEX
  8
0
 10
3.69749
 20
10.0556
 30
0.0
 40
0
 41
0
  0
VERTEX
  8
0
 10
3.70285
 20
10.0556
 30
0.0
 40
0
 41
0
  0
VERTEX
  8
0
 10
3.71907
 20
10.0599
 30
0.0
 40
0
 41
0
  0
VERTEX
  8
0
 10
3.73676
 20
10.0718
 30
0.0
 40
0
 41
0
  0
VERTEX
  8
0
 10
3.74864
 20
10.0895
 30
0.0
 40
0
 41
0
  0
VERTEX
  8
0
 10
3.75304
 20
10.1057
 30
0.0
 40
0
 41
0
  0
VERTEX
  8
0
 10
3.75304
 20
10.1111
 30
0.0
 40
0
 41
0
  0
SEQEND
 8
0
  0
ENDSEC
  0
EOF
