  0
SECTION
  2
HEADER
  9
$ACADVER
  1
AC1015
  9
$ACADMAINTVER
 70
6
  9
$DWGCODEPAGE
  3
ANSI_1252
  9
$INSBASE
 10
0.0
 20
0.0
 30
0.0
  9
$EXTMIN
 10
1e+20
 20
1e+20
 30
1e+20
  9
$EXTMAX
 10
-1e+20
 20
-1e+20
 30
-1e+20
  9
$LIMMIN
 10
0.0
 20
0.0
  9
$LIMMAX
 10
420.0
 20
297.0
  9
$ORTHOMODE
 70
0
  9
$REGENMODE
 70
1
  9
$FILLMODE
 70
1
  9
$QTEXTMODE
 70
0
  9
$MIRRTEXT
 70
1
  9
$LTSCALE
 40
1.0
  9
$ATTMODE
 70
1
  9
$TEXTSIZE
 40
2.5
  9
$TRACEWID
 40
1.0
  9
$TEXTSTYLE
  7
Standard
  9
$CLAYER
  8
0
  9
$CELTYPE
  6
ByLayer
  9
$CECOLOR
 62
256
  9
$CELTSCALE
 40
1.0
  9
$DISPSILH
 70
0
  9
$DIMSCALE
 40
1.0
  9
$DIMASZ
 40
2.5
  9
$DIMEXO
 40
0.625
  9
$DIMDLI
 40
3.75
  9
$DIMRND
 40
0.0
  9
$DIMDLE
 40
0.0
  9
$DIMEXE
 40
1.25
  9
$DIMTP
 40
0.0
  9
$DIMTM
 40
0.0
  9
$DIMTXT
 40
2.5
  9
$DIMCEN
 40
2.5
  9
$DIMTSZ
 40
0.0
  9
$DIMTOL
 70
0
  9
$DIMLIM
 70
0
  9
$DIMTIH
 70
0
  9
$DIMTOH
 70
0
  9
$DIMSE1
 70
0
  9
$DIMSE2
 70
0
  9
$DIMTAD
 70
1
  9
$DIMZIN
 70
8
  9
$DIMBLK
  1

  9
$DIMASO
 70
1
  9
$DIMSHO
 70
1
  9
$DIMPOST
  1

  9
$DIMAPOST
  1

  9
$DIMALT
 70
0
  9
$DIMALTD
 70
3
  9
$DIMALTF
 40
0.03937007874
  9
$DIMLFAC
 40
1.0
  9
$DIMTOFL
 70
1
  9
$DIMTVP
 40
0.0
  9
$DIMTIX
 70
0
  9
$DIMSOXD
 70
0
  9
$DIMSAH
 70
0
  9
$DIMBLK1
  1

  9
$DIMBLK2
  1

  9
$DIMSTYLE
  2
ISO-25
  9
$DIMCLRD
 70
0
  9
$DIMCLRE
 70
0
  9
$DIMCLRT
 70
0
  9
$DIMTFAC
 40
1.0
  9
$DIMGAP
 40
0.625
  9
$DIMJUST
 70
0
  9
$DIMSD1
 70
0
  9
$DIMSD2
 70
0
  9
$DIMTOLJ
 70
0
  9
$DIMTZIN
 70
8
  9
$DIMALTZ
 70
0
  9
$DIMALTTZ
 70
0
  9
$DIMUPT
 70
0
  9
$DIMDEC
 70
2
  9
$DIMTDEC
 70
2
  9
$DIMALTU
 70
2
  9
$DIMALTTD
 70
3
  9
$DIMTXSTY
  7
Standard
  9
$DIMAUNIT
 70
0
  9
$DIMADEC
 70
0
  9
$DIMALTRND
 40
0.0
  9
$DIMAZIN
 70
0
  9
$DIMDSEP
 70
44
  9
$DIMATFIT
 70
3
  9
$DIMFRAC
 70
0
  9
$DIMLDRBLK
  1

  9
$DIMLUNIT
 70
2
  9
$DIMLWD
 70
-2
  9
$DIMLWE
 70
-2
  9
$DIMTMOVE
 70
0
  9
$LUNITS
 70
2
  9
$LUPREC
 70
4
  9
$SKETCHINC
 40
1.0
  9
$FILLETRAD
 40
10.0
  9
$AUNITS
 70
0
  9
$AUPREC
 70
2
  9
$MENU
  1
.
  9
$ELEVATION
 40
0.0
  9
$PELEVATION
 40
0.0
  9
$THICKNESS
 40
0.0
  9
$LIMCHECK
 70
0
  9
$CHAMFERA
 40
0.0
  9
$CHAMFERB
 40
0.0
  9
$CHAMFERC
 40
0.0
  9
$CHAMFERD
 40
0.0
  9
$SKPOLY
 70
0
  9
$TDCREATE
 40
2460376.2470717593
  9
$TDUCREATE
 40
2458532.153996898
  9
$TDUPDATE
 40
2460376.2470717593
  9
$TDUUPDATE
 40
2458532.1544311
  9
$TDINDWG
 40
0.0
  9
$TDUSRTIMER
 40
0.0
  9
$USRTIMER
 70
1
  9
$ANGBASE
 50
0.0
  9
$ANGDIR
 70
0
  9
$PDMODE
 70
0
  9
$PDSIZE
 40
0.0
  9
$PLINEWID
 40
0.0
  9
$SPLFRAME
 70
0
  9
$SPLINETYPE
 70
6
  9
$SPLINESEGS
 70
8
  9
$HANDSEED
  5
320
  9
$SURFTAB1
 70
6
  9
$SURFTAB2
 70
6
  9
$SURFTYPE
 70
6
  9
$SURFU
 70
6
  9
$SURFV
 70
6
  9
$UCSBASE
  2

  9
$UCSNAME
  2

  9
$UCSORG
 10
0.0
 20
0.0
 30
0.0
  9
$UCSXDIR
 10
1.0
 20
0.0
 30
0.0
  9
$UCSYDIR
 10
0.0
 20
1.0
 30
0.0
  9
$UCSORTHOREF
  2

  9
$UCSORTHOVIEW
 70
0
  9
$UCSORGTOP
 10
0.0
 20
0.0
 30
0.0
  9
$UCSORGBOTTOM
 10
0.0
 20
0.0
 30
0.0
  9
$UCSORGLEFT
 10
0.0
 20
0.0
 30
0.0
  9
$UCSORGRIGHT
 10
0.0
 20
0.0
 30
0.0
  9
$UCSORGFRONT
 10
0.0
 20
0.0
 30
0.0
  9
$UCSORGBACK
 10
0.0
 20
0.0
 30
0.0
  9
$PUCSBASE
  2

  9
$PUCSNAME
  2

  9
$PUCSORG
 10
0.0
 20
0.0
 30
0.0
  9
$PUCSXDIR
 10
1.0
 20
0.0
 30
0.0
  9
$PUCSYDIR
 10
0.0
 20
1.0
 30
0.0
  9
$PUCSORTHOREF
  2

  9
$PUCSORTHOVIEW
 70
0
  9
$PUCSORGTOP
 10
0.0
 20
0.0
 30
0.0
  9
$PUCSORGBOTTOM
 10
0.0
 20
0.0
 30
0.0
  9
$PUCSORGLEFT
 10
0.0
 20
0.0
 30
0.0
  9
$PUCSORGRIGHT
 10
0.0
 20
0.0
 30
0.0
  9
$PUCSORGFRONT
 10
0.0
 20
0.0
 30
0.0
  9
$PUCSORGBACK
 10
0.0
 20
0.0
 30
0.0
  9
$USERI1
 70
0
  9
$USERI2
 70
0
  9
$USERI3
 70
0
  9
$USERI4
 70
0
  9
$USERI5
 70
0
  9
$USERR1
 40
0.0
  9
$USERR2
 40
0.0
  9
$USERR3
 40
0.0
  9
$USERR4
 40
0.0
  9
$USERR5
 40
0.0
  9
$WORLDVIEW
 70
1
  9
$SHADEDGE
 70
3
  9
$SHADEDIF
 70
70
  9
$TILEMODE
 70
1
  9
$MAXACTVP
 70
64
  9
$PINSBASE
 10
0.0
 20
0.0
 30
0.0
  9
$PLIMCHECK
 70
0
  9
$PEXTMIN
 10
1e+20
 20
1e+20
 30
1e+20
  9
$PEXTMAX
 10
-1e+20
 20
-1e+20
 30
-1e+20
  9
$PLIMMIN
 10
0.0
 20
0.0
  9
$PLIMMAX
 10
420.0
 20
297.0
  9
$UNITMODE
 70
0
  9
$VISRETAIN
 70
1
  9
$PLINEGEN
 70
0
  9
$PSLTSCALE
 70
1
  9
$TREEDEPTH
 70
3020
  9
$CMLSTYLE
  2
Standard
  9
$CMLJUST
 70
0
  9
$CMLSCALE
 40
20.0
  9
$PROXYGRAPHICS
 70
1
  9
$MEASUREMENT
 70
1
  9
$CELWEIGHT
370
-1
  9
$ENDCAPS
280
0
  9
$JOINSTYLE
280
0
  9
$LWDISPLAY
290
0
  9
$INSUNITS
 70
6
  9
$HYPERLINKBASE
  1

  9
$STYLESHEET
  1

  9
$XEDIT
290
1
  9
$CEPSNTYPE
380
0
  9
$PSTYLEMODE
290
1
  9
$FINGERPRINTGUID
  2
{03C62075-A207-46B6-9D10-3466EE87E4B2}
  9
$VERSIONGUID
  2
{0AF74624-3402-47DC-974F-FE1462751096}
  9
$EXTNAMES
290
1
  9
$PSVPSCALE
 40
0.0
  9
$OLESTARTUP
290
0
  0
ENDSEC
  0
SECTION
  2
CLASSES
  0
CLASS
  1
ACDBDICTIONARYWDFLT
  2
AcDbDictionaryWithDefault
  3
ObjectDBX Classes
 90
0
280
0
281
0
  0
CLASS
  1
SUN
  2
AcDbSun
  3
SCENEOE
 90
1153
280
0
281
0
  0
CLASS
  1
VISUALSTYLE
  2
AcDbVisualStyle
  3
ObjectDBX Classes
 90
4095
280
0
281
0
  0
CLASS
  1
MATERIAL
  2
AcDbMaterial
  3
ObjectDBX Classes
 90
1153
280
0
281
0
  0
CLASS
  1
SCALE
  2
AcDbScale
  3
ObjectDBX Classes
 90
1153
280
0
281
0
  0
CLASS
  1
TABLESTYLE
  2
AcDbTableStyle
  3
ObjectDBX Classes
 90
4095
280
0
281
0
  0
CLASS
  1
MLEADERSTYLE
  2
AcDbMLeaderStyle
  3
ACDB_MLEADERSTYLE_CLASS
 90
4095
280
0
281
0
  0
CLASS
  1
DICTIONARYVAR
  2
AcDbDictionaryVar
  3
ObjectDBX Classes
 90
0
280
0
281
0
  0
CLASS
  1
CELLSTYLEMAP
  2
AcDbCellStyleMap
  3
ObjectDBX Classes
 90
1152
280
0
281
0
  0
CLASS
  1
MENTALRAYRENDERSETTINGS
  2
AcDbMentalRayRenderSettings
  3
SCENEOE
 90
1024
280
0
281
0
  0
CLASS
  1
ACDBDETAILVIEWSTYLE
  2
AcDbDetailViewStyle
  3
ObjectDBX Classes
 90
1025
280
0
281
0
  0
CLASS
  1
ACDBSECTIONVIEWSTYLE
  2
AcDbSectionViewStyle
  3
ObjectDBX Classes
 90
1025
280
0
281
0
  0
CLASS
  1
RASTERVARIABLES
  2
AcDbRasterVariables
  3
ISM
 90
0
280
0
281
0
  0
CLASS
  1
ACDBPLACEHOLDER
  2
AcDbPlaceHolder
  3
ObjectDBX Classes
 90
0
280
0
281
0
  0
CLASS
  1
LAYOUT
  2
AcDbLayout
  3
ObjectDBX Classes
 90
0
280
0
281
0
  0
ENDSEC
  0
SECTION
  2
TABLES
  0
TABLE
  2
VPORT
  5
8
330
0
100
AcDbSymbolTable
 70
1
  0
VPORT
  5
23
330
8
100
AcDbSymbolTableRecord
100
AcDbViewportTableRecord
  2
*Active
 70
0
 10
0.0
 20
0.0
 11
1.0
 21
1.0
 12
0.0
 22
0.0
 13
0.0
 23
0.0
 14
0.5
 24
0.5
 15
0.5
 25
0.5
 16
0.0
 26
0.0
 36
1.0
 17
0.0
 27
0.0
 37
0.0
 40
1000.0
 41
1.34
 42
50.0
 43
0.0
 44
0.0
 50
0.0
 51
0.0
 71
0
 72
1000
 73
1
 74
3
 75
0
 76
0
 77
0
 78
0
281
0
 65
0
146
0.0
  0
ENDTAB
  0
TABLE
  2
LTYPE
  5
2
330
0
100
AcDbSymbolTable
 70
3
  0
LTYPE
  5
24
330
2
100
AcDbSymbolTableRecord
100
AcDbLinetypeTableRecord
  2
ByBlock
 70
0
  3

 72
65
 73
0
 40
0.0
  0
LTYPE
  5
25
330
2
100
AcDbSymbolTableRecord
100
AcDbLinetypeTableRecord
  2
ByLayer
 70
0
  3

 72
65
 73
0
 40
0.0
  0
LTYPE
  5
26
330
2
100
AcDbSymbolTableRecord
100
AcDbLinetypeTableRecord
  2
Continuous
 70
0
  3

 72
65
 73
0
 40
0.0
  0
ENDTAB
  0
TABLE
  2
LAYER
  5
1
330
0
100
AcDbSymbolTable
 70
2
  0
LAYER
  5
27
330
1
100
AcDbSymbolTableRecord
100
AcDbLayerTableRecord
  2
0
 70
0
 62
7
  6
Continuous
370
-3
390
13
  0
LAYER
  5
28
330
1
100
AcDbSymbolTableRecord
100
AcDbLayerTableRecord
  2
Defpoints
 70
0
 62
7
  6
Continuous
290
0
370
-3
390
13
  0
ENDTAB
  0
TABLE
  2
STYLE
  5
5
330
0
100
AcDbSymbolTable
 70
1
  0
STYLE
  5
29
330
5
100
AcDbSymbolTableRecord
100
AcDbTextStyleTableRecord
  2
Standard
 70
0
 40
0.0
 41
1.0
 50
0.0
 71
0
 42
2.5
  3
txt
  4

  0
ENDTAB
  0
TABLE
  2
VIEW
  5
7
330
0
100
AcDbSymbolTable
 70
0
  0
ENDTAB
  0
TABLE
  2
UCS
  5
6
330
0
100
AcDbSymbolTable
 70
0
  0
ENDTAB
  0
TABLE
  2
APPID
  5
3
330
0
100
AcDbSymbolTable
 70
3
  0
APPID
  5
2A
330
3
100
AcDbSymbolTableRecord
100
AcDbRegAppTableRecord
  2
ACAD
 70
0
  0
APPID
  5
31D
330
3
100
AcDbSymbolTableRecord
100
AcDbRegAppTableRecord
  2
HATCHBACKGROUNDCOLOR
 70
0
  0
APPID
  5
31E
330
3
100
AcDbSymbolTableRecord
100
AcDbRegAppTableRecord
  2
EZDXF
 70
0
  0
ENDTAB
  0
TABLE
  2
DIMSTYLE
  5
4
330
0
100
AcDbSymbolTable
 70
1
100
AcDbDimStyleTable
  0
DIMSTYLE
105
2B
330
4
100
AcDbSymbolTableRecord
100
AcDbDimStyleTableRecord
  2
Standard
 70
0
  3

  4

 40
1.0
 41
2.5
 42
0.625
 43
3.75
 44
1.25
 45
0.0
 46
0.0
 47
0.0
 48
0.0
140
2.5
141
2.5
142
0.0
143
0.03937007874
144
1.0
145
0.0
146
1.0
147
0.625
148
0.0
 71
0
 72
0
 73
0
 74
0
 75
0
 76
0
 77
1
 78
8
 79
3
170
0
171
3
172
1
173
0
174
0
175
0
176
0
177
0
178
0
179
2
271
2
272
2
273
2
274
3
275
0
276
0
277
2
278
44
279
0
280
0
281
0
282
0
283
0
284
8
285
0
286
0
288
0
289
3
371
-2
372
-2
  0
ENDTAB
  0
TABLE
  2
BLOCK_RECORD
  5
9
330
0
100
AcDbSymbolTable
 70
3
  0
BLOCK_RECORD
  5
17
330
9
100
AcDbSymbolTableRecord
100
AcDbBlockTableRecord
  2
*Model_Space
340
1A
  0
BLOCK_RECORD
  5
1B
330
9
100
AcDbSymbolTableRecord
100
AcDbBlockTableRecord
  2
*Paper_Space
340
1E
  0
BLOCK_RECORD
  5
2F
330
9
100
AcDbSymbolTableRecord
100
AcDbBlockTableRecord
  2
page_1.dxf
340
0
  0
ENDTAB
  0
ENDSEC
  0
SECTION
  2
BLOCKS
  0
BLOCK
  5
18
330
17
100
AcDbEntity
  8
0
100
AcDbBlockBegin
  2
*Model_Space
 70
0
 10
0.0
 20
0.0
 30
0.0
  3
*Model_Space
  1

  0
ENDBLK
  5
19
330
17
100
AcDbEntity
  8
0
100
AcDbBlockEnd
  0
BLOCK
  5
1C
330
1B
100
AcDbEntity
  8
0
100
AcDbBlockBegin
  2
*Paper_Space
 70
0
 10
0.0
 20
0.0
 30
0.0
  3
*Paper_Space
  1

  0
ENDBLK
  5
1D
330
1B
100
AcDbEntity
  8
0
100
AcDbBlockEnd
  0
BLOCK
  5
30
330
2F
100
AcDbEntity
  8
0
100
AcDbBlockBegin
  2
page_1.dxf
 70
0
 10
0.0
 20
0.0
 30
0.0
  3
page_1.dxf
  1

  0
POLYLINE
  5
32
330
2F
100
AcDbEntity
  8
0
 62
254
100
AcDb2dPolyline
 66
1
 10
0.0
 20
0.0
 30
0.0
 70
1
 40
0.75
 41
0.75
  0
VERTEX
  5
33
330
32
100
AcDbEntity
  8
0
100
AcDbVertex
100
AcDb2dVertex
 10
1.48438
 20
9.59896
 30
0.0
 40
0.0104167
 41
0.0104167
 70
0
  0
VERTEX
  5
34
330
32
100
AcDbEntity
  8
0
100
AcDbVertex
100
AcDb2dVertex
 10
2.30729
 20
9.59896
 30
0.0
 40
0.0104167
 41
0.0104167
 70
0
  0
VERTEX
  5
35
330
32
100
AcDbEntity
  8
0
100
AcDbVertex
100
AcDb2dVertex
 10
2.30729
 20
8.04688
 30
0.0
 40
0.0104167
 41
0.0104167
 70
0
  0
VERTEX
  5
36
330
32
100
AcDbEntity
  8
0
100
AcDbVertex
100
AcDb2dVertex
 10
1.48438
 20
8.04688
 30
0.0
 40
0.0104167
 41
0.0104167
 70
0
  0
VERTEX
  5
37
330
32
100
AcDbEntity
  8
0
100
AcDbVertex
100
AcDb2dVertex
 10
1.48438
 20
9.59896
 30
0.0
 40
0.0104167
 41
0.0104167
 70
0
  0
SEQEND
  5
38
330
32
100
AcDbEntity
  8
0
  0
POLYLINE
  5
39
330
2F
100
AcDbEntity
  8
0
 62
254
100
AcDb2dPolyline
 66
1
 10
0.0
 20
0.0
 30
0.0
 70
1
 40
0.75
 41
0.75
  0
VERTEX
  5
3A
330
39
100
AcDbEntity
  8
0
100
AcDbVertex
100
AcDb2dVertex
 10
2.31771
 20
9.59896
 30
0.0
 40
0.0104167
 41
0.0104167
 70
0
  0
VERTEX
  5
3B
330
39
100
AcDbEntity
  8
0
100
AcDbVertex
100
AcDb2dVertex
 10
3.14063
 20
9.59896
 30
0.0
 40
0.0104167
 41
0.0104167
 70
0
  0
VERTEX
  5
3C
330
39
100
AcDbEntity
  8
0
100
AcDbVertex
100
AcDb2dVertex
 10
3.14063
 20
8.04688
 30
0.0
 40
0.0104167
 41
0.0104167
 70
0
  0
VERTEX
  5
3D
330
39
100
AcDbEntity
  8
0
100
AcDbVertex
100
AcDb2dVertex
 10
2.31771
 20
8.04688
 30
0.0
 40
0.0104167
 41
0.0104167
 70
0
  0
VERTEX
  5
3E
330
39
100
AcDbEntity
  8
0
100
AcDbVertex
100
AcDb2dVertex
 10
2.31771
 20
9.59896
 30
0.0
 40
0.0104167
 41
0.0104167
 70
0
  0
SEQEND
  5
3F
330
39
100
AcDbEntity
  8
0
  0
POLYLINE
  5
40
330
2F
100
AcDbEntity
  8
0
 62
254
100
AcDb2dPolyline
 66
1
 10
0.0
 20
0.0
 30
0.0
 70
1
 40
0.75
 41
0.75
  0
VERTEX
  5
41
330
40
100
AcDbEntity
  8
0
100
AcDbVertex
100
AcDb2dVertex
 10
3.15104
 20
9.59896
 30
0.0
 40
0.0104167
 41
0.0104167
 70
0
  0
VERTEX
  5
42
330
40
100
AcDbEntity
  8
0
100
AcDbVertex
100
AcDb2dVertex
 10
3.97396
 20
9.59896
 30
0.0
 40
0.0104167
 41
0.0104167
 70
0
  0
VERTEX
  5
43
330
40
100
AcDbEntity
  8
0
100
AcDbVertex
100
AcDb2dVertex
 10
3.97396
 20
8.04688
 30
0.0
 40
0.0104167
 41
0.0104167
 70
0
  0
VERTEX
  5
44
330
40
100
AcDbEntity
  8
0
100
AcDbVertex
100
AcDb2dVertex
 10
3.15104
 20
8.04688
 30
0.0
 40
0.0104167
 41
0.0104167
 70
0
  0
VERTEX
  5
45
330
40
100
AcDbEntity
  8
0
100
AcDbVertex
100
AcDb2dVertex
 10
3.15104
 20
9.59896
 30
0.0
 40
0.0104167
 41
0.0104167
 70
0
  0
SEQEND
  5
46
330
40
100
AcDbEntity
  8
0
  0
POLYLINE
  5
47
330
2F
100
AcDbEntity
  8
0
 62
254
100
AcDb2dPolyline
 66
1
 10
0.0
 20
0.0
 30
0.0
 70
1
 40
0.75
 41
0.75
  0
VERTEX
  5
48
330
47
100
AcDbEntity
  8
0
100
AcDbVertex
100
AcDb2dVertex
 10
3.98438
 20
9.59896
 30
0.0
 40
0.0104167
 41
0.0104167
 70
0
  0
VERTEX
  5
49
330
47
100
AcDbEntity
  8
0
100
AcDbVertex
100
AcDb2dVertex
 10
4.80729
 20
9.59896
 30
0.0
 40
0.0104167
 41
0.0104167
 70
0
  0
VERTEX
  5
4A
330
47
100
AcDbEntity
  8
0
100
AcDbVertex
100
AcDb2dVertex
 10
4.80729
 20
8.04688
 30
0.0
 40
0.0104167
 41
0.0104167
 70
0
  0
VERTEX
  5
4B
330
47
100
AcDbEntity
  8
0
100
AcDbVertex
100
AcDb2dVertex
 10
3.98438
 20
8.04688
 30
0.0
 40
0.0104167
 41
0.0104167
 70
0
  0
VERTEX
  5
4C
330
47
100
AcDbEntity
  8
0
100
AcDbVertex
100
AcDb2dVertex
 10
3.98438
 20
9.59896
 30
0.0
 40
0.0104167
 41
0.0104167
 70
0
  0
SEQEND
  5
4D
330
47
100
AcDbEntity
  8
0
  0
POLYLINE
  5
4E
330
2F
100
AcDbEntity
  8
0
 62
254
100
AcDb2dPolyline
 66
1
 10
0.0
 20
0.0
 30
0.0
 70
1
 40
0.75
 41
0.75
  0
VERTEX
  5
4F
330
4E
100
AcDbEntity
  8
0
100
AcDbVertex
100
AcDb2dVertex
 10
4.81771
 20
9.59896
 30
0.0
 40
0.0104167
 41
0.0104167
 70
0
  0
VERTEX
  5
50
330
4E
100
AcDbEntity
  8
0
100
AcDbVertex
100
AcDb2dVertex
 10
5.64063
 20
9.59896
 30
0.0
 40
0.0104167
 41
0.0104167
 70
0
  0
VERTEX
  5
51
330
4E
100
AcDbEntity
  8
0
100
AcDbVertex
100
AcDb2dVertex
 10
5.64063
 20
8.04688
 30
0.0
 40
0.0104167
 41
0.0104167
 70
0
  0
VERTEX
  5
52
330
4E
100
AcDbEntity
  8
0
100
AcDbVertex
100
AcDb2dVertex
 10
4.81771
 20
8.04688
 30
0.0
 40
0.0104167
 41
0.0104167
 70
0
  0
VERTEX
  5
53
330
4E
100
AcDbEntity
  8
0
100
AcDbVertex
100
AcDb2dVertex
 10
4.81771
 20
9.59896
 30
0.0
 40
0.0104167
 41
0.0104167
 70
0
  0
SEQEND
  5
54
330
4E
100
AcDbEntity
  8
0
  0
POLYLINE
  5
55
330
2F
100
AcDbEntity
  8
0
 62
254
100
AcDb2dPolyline
 66
1
 10
0.0
 20
0.0
 30
0.0
 70
1
 40
0.75
 41
0.75
  0
VERTEX
  5
56
330
55
100
AcDbEntity
  8
0
100
AcDbVertex
100
AcDb2dVertex
 10
5.65104
 20
9.59896
 30
0.0
 40
0.0104167
 41
0.0104167
 70
0
  0
VERTEX
  5
57
330
55
100
AcDbEntity
  8
0
100
AcDbVertex
100
AcDb2dVertex
 10
6.47396
 20
9.59896
 30
0.0
 40
0.0104167
 41
0.0104167
 70
0
  0
VERTEX
  5
58
330
55
100
AcDbEntity
  8
0
100
AcDbVertex
100
AcDb2dVertex
 10
6.47396
 20
8.04688
 30
0.0
 40
0.0104167
 41
0.0104167
 70
0
  0
VERTEX
  5
59
330
55
100
AcDbEntity
  8
0
100
AcDbVertex
100
AcDb2dVertex
 10
5.65104
 20
8.04688
 30
0.0
 40
0.0104167
 41
0.0104167
 70
0
  0
VERTEX
  5
5A
330
55
100
AcDbEntity
  8
0
100
AcDbVertex
100
AcDb2dVertex
 10
5.65104
 20
9.59896
 30
0.0
 40
0.0104167
 41
0.0104167
 70
0
  0
SEQEND
  5
5B
330
55
100
AcDbEntity
  8
0
  0
POLYLINE
  5
5C
330
2F
100
AcDbEntity
  8
0
 62
254
100
AcDb2dPolyline
 66
1
 10
0.0
 20
0.0
 30
0.0
 70
1
 40
0.75
 41
0.75
  0
VERTEX
  5
5D
330
5C
100
AcDbEntity
  8
0
100
AcDbVertex
100
AcDb2dVertex
 10
3.03646
 20
7.26042
 30
0.0
 40
0.0104167
 41
0.0104167
 70
0
  0
VERTEX
  5
5E
330
5C
100
AcDbEntity
  8
0
100
AcDbVertex
100
AcDb2dVertex
 10
3.03646
 20
7.24143
 30
0.0
 40
0.0104167
 41
0.0104167
 70
0
  0
VERTEX
  5
5F
330
5C
100
AcDbEntity
  8
0
100
AcDbVertex
100
AcDb2dVertex
 10
3.03331
 20
7.19069
 30
0.0
 40
0.0104167
 41
0.0104167
 70
0
  0
VERTEX
  5
60
330
5C
100
AcDbEntity
  8
0
100
AcDbVertex
100
AcDb2dVertex
 10
3.03271
 20
7.18435
 30
0.0
 40
0.0104167
 41
0.0104167
 70
0
  0
VERTEX
  5
61
330
5C
100
AcDbEntity
  8
0
100
AcDbVertex
100
AcDb2dVertex
 10
3.03207
 20
7.17806
 30
0.0
 40
0.0104167
 41
0.0104167
 70
0
  0
VERTEX
  5
62
330
5C
100
AcDbEntity
  8
0
100
AcDbVertex
100
AcDb2dVertex
 10
3.02279
 20
7.11524
 30
0.0
 40
0.0104167
 41
0.0104167
 70
0
  0
VERTEX
  5
63
330
5C
100
AcDbEntity
  8
0
100
AcDbVertex
100
AcDb2dVertex
 10
3.02154
 20
7.109
 30
0.0
 40
0.0104167
 41
0.0104167
 70
0
  0
VERTEX
  5
64
330
5C
100
AcDbEntity
  8
0
100
AcDbVertex
100
AcDb2dVertex
 10
3.02029
 20
7.10281
 30
0.0
 40
0.0104167
 41
0.0104167
 70
0
  0
VERTEX
  5
65
330
5C
100
AcDbEntity
  8
0
100
AcDbVertex
100
AcDb2dVertex
 10
3.00489
 20
7.04124
 30
0.0
 40
0.0104167
 41
0.0104167
 70
0
  0
VERTEX
  5
66
330
5C
100
AcDbEntity
  8
0
100
AcDbVertex
100
AcDb2dVertex
 10
3.00304
 20
7.03515
 30
0.0
 40
0.0104167
 41
0.0104167
 70
0
  0
VERTEX
  5
67
330
5C
100
AcDbEntity
  8
0
100
AcDbVertex
100
AcDb2dVertex
 10
3.00119
 20
7.02908
 30
0.0
 40
0.0104167
 41
0.0104167
 70
0
  0
VERTEX
  5
68
330
5C
100
AcDbEntity
  8
0
100
AcDbVertex
100
AcDb2dVertex
 10
2.97976
 20
6.96935
 30
0.0
 40
0.0104167
 41
0.0104167
 70
0
  0
VERTEX
  5
69
330
5C
100
AcDbEntity
  8
0
100
AcDbVertex
100
AcDb2dVertex
 10
2.97738
 20
6.96343
 30
0.0
 40
0.0104167
 41
0.0104167
 70
0
  0
VERTEX
  5
6A
330
5C
100
AcDbEntity
  8
0
100
AcDbVertex
100
AcDb2dVertex
 10
2.97493
 20
6.95757
 30
0.0
 40
0.0104167
 41
0.0104167
 70
0
  0
VERTEX
  5
6B
330
5C
100
AcDbEntity
  8
0
100
AcDbVertex
100
AcDb2dVertex
 10
2.94781
 20
6.90022
 30
0.0
 40
0.0104167
 41
0.0104167
 70
0
  0
VERTEX
  5
6C
330
5C
100
AcDbEntity
  8
0
100
AcDbVertex
100
AcDb2dVertex
 10
2.94482
 20
6.89458
 30
0.0
 40
0.0104167
 41
0.0104167
 70
0
  0
VERTEX
  5
6D
330
5C
100
AcDbEntity
  8
0
100
AcDbVertex
100
AcDb2dVertex
 10
2.94179
 20
6.889
 30
0.0
 40
0.0104167
 41
0.0104167
 70
0
  0
VERTEX
  5
6E
330
5C
100
AcDbEntity
  8
0
100
AcDbVertex
100
AcDb2dVertex
 10
2.90918
 20
6.83458
 30
0.0
 40
0.0104167
 41
0.0104167
 70
0
  0
VERTEX
  5
6F
330
5C
100
AcDbEntity
  8
0
100
AcDbVertex
100
AcDb2dVertex
 10
2.90565
 20
6.82926
 30
0.0
 40
0.0104167
 41
0.0104167
 70
0
  0
VERTEX
  5
70
330
5C
100
AcDbEntity
  8
0
100
AcDbVertex
100
AcDb2dVertex
 10
2.90213
 20
6.824
 30
0.0
 40
0.0104167
 41
0.0104167
 70
0
  0
VERTEX
  5
71
330
5C
100
AcDbEntity
  8
0
100
AcDbVertex
100
AcDb2dVertex
 10
2.86431
 20
6.77306
 30
0.0
 40
0.0104167
 41
0.0104167
 70
0
  0
VERTEX
  5
72
330
5C
100
AcDbEntity
  8
0
100
AcDbVertex
100
AcDb2dVertex
 10
2.86029
 20
6.76812
 30
0.0
 40
0.0104167
 41
0.0104167
 70
0
  0
VERTEX
  5
73
330
5C
100
AcDbEntity
  8
0
100
AcDbVertex
100
AcDb2dVertex
 10
2.85622
 20
6.76324
 30
0.0
 40
0.0104167
 41
0.0104167
 70
0
  0
VERTEX
  5
74
330
5C
100
AcDbEntity
  8
0
100
AcDbVertex
100
AcDb2dVertex
 10
2.81364
 20
6.71619
 30
0.0
 40
0.0104167
 41
0.0104167
 70
0
  0
VERTEX
  5
75
330
5C
100
AcDbEntity
  8
0
100
AcDbVertex
100
AcDb2dVertex
 10
2.80914
 20
6.71169
 30
0.0
 40
0.0104167
 41
0.0104167
 70
0
  0
VERTEX
  5
76
330
5C
100
AcDbEntity
  8
0
100
AcDbVertex
100
AcDb2dVertex
 10
2.80464
 20
6.70719
 30
0.0
 40
0.0104167
 41
0.0104167
 70
0
  0
VERTEX
  5
77
330
5C
100
AcDbEntity
  8
0
100
AcDbVertex
100
AcDb2dVertex
 10
2.7576
 20
6.66461
 30
0.0
 40
0.0104167
 41
0.0104167
 70
0
  0
VERTEX
  5
78
330
5C
100
AcDbEntity
  8
0
100
AcDbVertex
100
AcDb2dVertex
 10
2.75271
 20
6.66054
 30
0.0
 40
0.0104167
 41
0.0104167
 70
0
  0
VERTEX
  5
79
330
5C
100
AcDbEntity
  8
0
100
AcDbVertex
100
AcDb2dVertex
 10
2.74778
 20
6.65653
 30
0.0
 40
0.0104167
 41
0.0104167
 70
0
  0
VERTEX
  5
7A
330
5C
100
AcDbEntity
  8
0
100
AcDbVertex
100
AcDb2dVertex
 10
2.69683
 20
6.61871
 30
0.0
 40
0.0104167
 41
0.0104167
 70
0
  0
VERTEX
  5
7B
330
5C
100
AcDbEntity
  8
0
100
AcDbVertex
100
AcDb2dVertex
 10
2.69157
 20
6.61518
 30
0.0
 40
0.0104167
 41
0.0104167
 70
0
  0
VERTEX
  5
7C
330
5C
100
AcDbEntity
  8
0
100
AcDbVertex
100
AcDb2dVertex
 10
2.68625
 20
6.61165
 30
0.0
 40
0.0104167
 41
0.0104167
 70
0
  0
VERTEX
  5
7D
330
5C
100
AcDbEntity
  8
0
100
AcDbVertex
100
AcDb2dVertex
 10
2.63183
 20
6.57904
 30
0.0
 40
0.0104167
 41
0.0104167
 70
0
  0
VERTEX
  5
7E
330
5C
100
AcDbEntity
  8
0
100
AcDbVertex
100
AcDb2dVertex
 10
2.62625
 20
6.57601
 30
0.0
 40
0.0104167
 41
0.0104167
 70
0
  0
VERTEX
  5
7F
330
5C
100
AcDbEntity
  8
0
100
AcDbVertex
100
AcDb2dVertex
 10
2.62061
 20
6.57303
 30
0.0
 40
0.0104167
 41
0.0104167
 70
0
  0
VERTEX
  5
80
330
5C
100
AcDbEntity
  8
0
100
AcDbVertex
100
AcDb2dVertex
 10
2.56326
 20
6.5459
 30
0.0
 40
0.0104167
 41
0.0104167
 70
0
  0
VERTEX
  5
81
330
5C
100
AcDbEntity
  8
0
100
AcDbVertex
100
AcDb2dVertex
 10
2.5574
 20
6.54346
 30
0.0
 40
0.0104167
 41
0.0104167
 70
0
  0
VERTEX
  5
82
330
5C
100
AcDbEntity
  8
0
100
AcDbVertex
100
AcDb2dVertex
 10
2.55149
 20
6.54107
 30
0.0
 40
0.0104167
 41
0.0104167
 70
0
  0
VERTEX
  5
83
330
5C
100
AcDbEntity
  8
0
100
AcDbVertex
100
AcDb2dVertex
 10
2.49175
 20
6.51964
 30
0.0
 40
0.0104167
 41
0.0104167
 70
0
  0
VERTEX
  5
84
330
5C
100
AcDbEntity
  8
0
100
AcDbVertex
100
AcDb2dVertex
 10
2.48568
 20
6.51779
 30
0.0
 40
0.0104167
 41
0.0104167
 70
0
  0
VERTEX
  5
85
330
5C
100
AcDbEntity
  8
0
100
AcDbVertex
100
AcDb2dVertex
 10
2.4796
 20
6.51594
 30
0.0
 40
0.0104167
 41
0.0104167
 70
0
  0
VERTEX
  5
86
330
5C
100
AcDbEntity
  8
0
100
AcDbVertex
100
AcDb2dVertex
 10
2.41803
 20
6.50054
 30
0.0
 40
0.0104167
 41
0.0104167
 70
0
  0
VERTEX
  5
87
330
5C
100
AcDbEntity
  8
0
100
AcDbVertex
100
AcDb2dVertex
 10
2.41183
 20
6.49929
 30
0.0
 40
0.0104167
 41
0.0104167
 70
0
  0
VERTEX
  5
88
330
5C
100
AcDbEntity
  8
0
100
AcDbVertex
100
AcDb2dVertex
 10
2.4056
 20
6.49804
 30
0.0
 40
0.0104167
 41
0.0104167
 70
0
  0
VERTEX
  5
89
330
5C
100
AcDbEntity
  8
0
100
AcDbVertex
100
AcDb2dVertex
 10
2.34278
 20
6.48876
 30
0.0
 40
0.0104167
 41
0.0104167
 70
0
  0
VERTEX
  5
8A
330
5C
100
AcDbEntity
  8
0
100
AcDbVertex
100
AcDb2dVertex
 10
2.33649
 20
6.48812
 30
0.0
 40
0.0104167
 41
0.0104167
 70
0
  0
VERTEX
  5
8B
330
5C
100
AcDbEntity
  8
0
100
AcDbVertex
100
AcDb2dVertex
 10
2.33014
 20
6.48753
 30
0.0
 40
0.0104167
 41
0.0104167
 70
0
  0
VERTEX
  5
8C
330
5C
100
AcDbEntity
  8
0
100
AcDbVertex
100
AcDb2dVertex
 10
2.27783
 20
6.48438
 30
0.0
 40
0.0104167
 41
0.0104167
 70
0
  0
VERTEX
  5
8D
330
5C
100
AcDbEntity
  8
0
100
AcDbVertex
100
AcDb2dVertex
 10
2.26042
 20
6.48438
 30
0.0
 40
0.0104167
 41
0.0104167
 70
0
  0
VERTEX
  5
8E
330
5C
100
AcDbEntity
  8
0
100
AcDbVertex
100
AcDb2dVertex
 10
2.24137
 20
6.48438
 30
0.0
 40
0.0104167
 41
0.0104167
 70
0
  0
VERTEX
  5
8F
330
5C
100
AcDbEntity
  8
0
100
AcDbVertex
100
AcDb2dVertex
 10
2.19065
 20
6.48753
 30
0.0
 40
0.0104167
 41
0.0104167
 70
0
  0
VERTEX
  5
90
330
5C
100
AcDbEntity
  8
0
100
AcDbVertex
100
AcDb2dVertex
 10
2.18435
 20
6.48812
 30
0.0
 40
0.0104167
 41
0.0104167
 70
0
  0
VERTEX
  5
91
330
5C
100
AcDbEntity
  8
0
100
AcDbVertex
100
AcDb2dVertex
 10
2.178
 20
6.48876
 30
0.0
 40
0.0104167
 41
0.0104167
 70
0
  0
VERTEX
  5
92
330
5C
100
AcDbEntity
  8
0
100
AcDbVertex
100
AcDb2dVertex
 10
2.11524
 20
6.49804
 30
0.0
 40
0.0104167
 41
0.0104167
 70
0
  0
VERTEX
  5
93
330
5C
100
AcDbEntity
  8
0
100
AcDbVertex
100
AcDb2dVertex
 10
2.109
 20
6.49929
 30
0.0
 40
0.0104167
 41
0.0104167
 70
0
  0
VERTEX
  5
94
330
5C
100
AcDbEntity
  8
0
100
AcDbVertex
100
AcDb2dVertex
 10
2.10275
 20
6.50054
 30
0.0
 40
0.0104167
 41
0.0104167
 70
0
  0
VERTEX
  5
95
330
5C
100
AcDbEntity
  8
0
100
AcDbVertex
100
AcDb2dVertex
 10
2.04124
 20
6.51594
 30
0.0
 40
0.0104167
 41
0.0104167
 70
0
  0
VERTEX
  5
96
330
5C
100
AcDbEntity
  8
0
100
AcDbVertex
100
AcDb2dVertex
 10
2.03515
 20
6.51779
 30
0.0
 40
0.0104167
 41
0.0104167
 70
0
  0
VERTEX
  5
97
330
5C
100
AcDbEntity
  8
0
100
AcDbVertex
100
AcDb2dVertex
 10
2.02903
 20
6.51964
 30
0.0
 40
0.0104167
 41
0.0104167
 70
0
  0
VERTEX
  5
98
330
5C
100
AcDbEntity
  8
0
100
AcDbVertex
100
AcDb2dVertex
 10
1.96929
 20
6.54107
 30
0.0
 40
0.0104167
 41
0.0104167
 70
0
  0
VERTEX
  5
99
330
5C
100
AcDbEntity
  8
0
100
AcDbVertex
100
AcDb2dVertex
 10
1.96343
 20
6.54346
 30
0.0
 40
0.0104167
 41
0.0104167
 70
0
  0
VERTEX
  5
9A
330
5C
100
AcDbEntity
  8
0
100
AcDbVertex
100
AcDb2dVertex
 10
1.95751
 20
6.5459
 30
0.0
 40
0.0104167
 41
0.0104167
 70
0
  0
VERTEX
  5
9B
330
5C
100
AcDbEntity
  8
0
100
AcDbVertex
100
AcDb2dVertex
 10
1.90018
 20
6.57303
 30
0.0
 40
0.0104167
 41
0.0104167
 70
0
  0
VERTEX
  5
9C
330
5C
100
AcDbEntity
  8
0
100
AcDbVertex
100
AcDb2dVertex
 10
1.89458
 20
6.57601
 30
0.0
 40
0.0104167
 41
0.0104167
 70
0
  0
VERTEX
  5
9D
330
5C
100
AcDbEntity
  8
0
100
AcDbVertex
100
AcDb2dVertex
 10
1.88894
 20
6.57904
 30
0.0
 40
0.0104167
 41
0.0104167
 70
0
  0
VERTEX
  5
9E
330
5C
100
AcDbEntity
  8
0
100
AcDbVertex
100
AcDb2dVertex
 10
1.83453
 20
6.61165
 30
0.0
 40
0.0104167
 41
0.0104167
 70
0
  0
VERTEX
  5
9F
330
5C
100
AcDbEntity
  8
0
100
AcDbVertex
100
AcDb2dVertex
 10
1.82926
 20
6.61518
 30
0.0
 40
0.0104167
 41
0.0104167
 70
0
  0
VERTEX
  5
A0
330
5C
100
AcDbEntity
  8
0
100
AcDbVertex
100
AcDb2dVertex
 10
1.82394
 20
6.61871
 30
0.0
 40
0.0104167
 41
0.0104167
 70
0
  0
VERTEX
  5
A1
330
5C
100
AcDbEntity
  8
0
100
AcDbVertex
100
AcDb2dVertex
 10
1.773
 20
6.65653
 30
0.0
 40
0.0104167
 41
0.0104167
 70
0
  0
VERTEX
  5
A2
330
5C
100
AcDbEntity
  8
0
100
AcDbVertex
100
AcDb2dVertex
 10
1.76813
 20
6.66054
 30
0.0
 40
0.0104167
 41
0.0104167
 70
0
  0
VERTEX
  5
A3
330
5C
100
AcDbEntity
  8
0
100
AcDbVertex
100
AcDb2dVertex
 10
1.76318
 20
6.66461
 30
0.0
 40
0.0104167
 41
0.0104167
 70
0
  0
VERTEX
  5
A4
330
5C
100
AcDbEntity
  8
0
100
AcDbVertex
100
AcDb2dVertex
 10
1.71615
 20
6.70719
 30
0.0
 40
0.0104167
 41
0.0104167
 70
0
  0
VERTEX
  5
A5
330
5C
100
AcDbEntity
  8
0
100
AcDbVertex
100
AcDb2dVertex
 10
1.71169
 20
6.71169
 30
0.0
 40
0.0104167
 41
0.0104167
 70
0
  0
VERTEX
  5
A6
330
5C
100
AcDbEntity
  8
0
100
AcDbVertex
100
AcDb2dVertex
 10
1.70719
 20
6.71619
 30
0.0
 40
0.0104167
 41
0.0104167
 70
0
  0
VERTEX
  5
A7
330
5C
100
AcDbEntity
  8
0
100
AcDbVertex
100
AcDb2dVertex
 10
1.66456
 20
6.76324
 30
0.0
 40
0.0104167
 41
0.0104167
 70
0
  0
VERTEX
  5
A8
330
5C
100
AcDbEntity
  8
0
100
AcDbVertex
100
AcDb2dVertex
 10
1.66054
 20
6.76812
 30
0.0
 40
0.0104167
 41
0.0104167
 70
0
  0
VERTEX
  5
A9
330
5C
100
AcDbEntity
  8
0
100
AcDbVertex
100
AcDb2dVertex
 10
1.65647
 20
6.77306
 30
0.0
 40
0.0104167
 41
0.0104167
 70
0
  0
VERTEX
  5
AA
330
5C
100
AcDbEntity
  8
0
100
AcDbVertex
100
AcDb2dVertex
 10
1.61871
 20
6.824
 30
0.0
 40
0.0104167
 41
0.0104167
 70
0
  0
VERTEX
  5
AB
330
5C
100
AcDbEntity
  8
0
100
AcDbVertex
100
AcDb2dVertex
 10
1.61518
 20
6.82926
 30
0.0
 40
0.0104167
 41
0.0104167
 70
0
  0
VERTEX
  5
AC
330
5C
100
AcDbEntity
  8
0
100
AcDbVertex
100
AcDb2dVertex
 10
1.6116
 20
6.83458
 30
0.0
 40
0.0104167
 41
0.0104167
 70
0
  0
VERTEX
  5
AD
330
5C
100
AcDbEntity
  8
0
100
AcDbVertex
100
AcDb2dVertex
 10
1.579
 20
6.889
 30
0.0
 40
0.0104167
 41
0.0104167
 70
0
  0
VERTEX
  5
AE
330
5C
100
AcDbEntity
  8
0
100
AcDbVertex
100
AcDb2dVertex
 10
1.57601
 20
6.89458
 30
0.0
 40
0.0104167
 41
0.0104167
 70
0
  0
VERTEX
  5
AF
330
5C
100
AcDbEntity
  8
0
100
AcDbVertex
100
AcDb2dVertex
 10
1.57297
 20
6.90022
 30
0.0
 40
0.0104167
 41
0.0104167
 70
0
  0
VERTEX
  5
B0
330
5C
100
AcDbEntity
  8
0
100
AcDbVertex
100
AcDb2dVertex
 10
1.54585
 20
6.95757
 30
0.0
 40
0.0104167
 41
0.0104167
 70
0
  0
VERTEX
  5
B1
330
5C
100
AcDbEntity
  8
0
100
AcDbVertex
100
AcDb2dVertex
 10
1.54346
 20
6.96343
 30
0.0
 40
0.0104167
 41
0.0104167
 70
0
  0
VERTEX
  5
B2
330
5C
100
AcDbEntity
  8
0
100
AcDbVertex
100
AcDb2dVertex
 10
1.54101
 20
6.96935
 30
0.0
 40
0.0104167
 41
0.0104167
 70
0
  0
VERTEX
  5
B3
330
5C
100
AcDbEntity
  8
0
100
AcDbVertex
100
AcDb2dVertex
 10
1.51964
 20
7.02908
 30
0.0
 40
0.0104167
 41
0.0104167
 70
0
  0
VERTEX
  5
B4
330
5C
100
AcDbEntity
  8
0
100
AcDbVertex
100
AcDb2dVertex
 10
1.51779
 20
7.03515
 30
0.0
 40
0.0104167
 41
0.0104167
 70
0
  0
VERTEX
  5
B5
330
5C
100
AcDbEntity
  8
0
100
AcDbVertex
100
AcDb2dVertex
 10
1.51594
 20
7.04124
 30
0.0
 40
0.0104167
 41
0.0104167
 70
0
  0
VERTEX
  5
B6
330
5C
100
AcDbEntity
  8
0
100
AcDbVertex
100
AcDb2dVertex
 10
1.50049
 20
7.10281
 30
0.0
 40
0.0104167
 41
0.0104167
 70
0
  0
VERTEX
  5
B7
330
5C
100
AcDbEntity
  8
0
100
AcDbVertex
100
AcDb2dVertex
 10
1.49929
 20
7.109
 30
0.0
 40
0.0104167
 41
0.0104167
 70
0
  0
VERTEX
  5
B8
330
5C
100
AcDbEntity
  8
0
100
AcDbVertex
100
AcDb2dVertex
 10
1.49804
 20
7.11524
 30
0.0
 40
0.0104167
 41
0.0104167
 70
0
  0
VERTEX
  5
B9
330
5C
100
AcDbEntity
  8
0
100
AcDbVertex
100
AcDb2dVertex
 10
1.48872
 20
7.17806
 30
0.0
 40
0.0104167
 41
0.0104167
 70
0
  0
VERTEX
  5
BA
330
5C
100
AcDbEntity
  8
0
100
AcDbVertex
100
AcDb2dVertex
 10
1.48812
 20
7.18435
 30
0.0
 40
0.0104167
 41
0.0104167
 70
0
  0
VERTEX
  5
BB
330
5C
100
AcDbEntity
  8
0
100
AcDbVertex
100
AcDb2dVertex
 10
1.48747
 20
7.19069
 30
0.0
 40
0.0104167
 41
0.0104167
 70
0
  0
VERTEX
  5
BC
330
5C
100
AcDbEntity
  8
0
100
AcDbVertex
100
AcDb2dVertex
 10
1.48438
 20
7.243
 30
0.0
 40
0.0104167
 41
0.0104167
 70
0
  0
VERTEX
  5
BD
330
5C
100
AcDbEntity
  8
0
100
AcDbVertex
100
AcDb2dVertex
 10
1.48438
 20
7.26042
 30
0.0
 40
0.0104167
 41
0.0104167
 70
0
  0
VERTEX
  5
BE
330
5C
100
AcDbEntity
  8
0
100
AcDbVertex
100
AcDb2dVertex
 10
1.48438
 20
7.27946
 30
0.0
 40
0.0104167
 41
0.0104167
 70
0
  0
VERTEX
  5
BF
330
5C
100
AcDbEntity
  8
0
100
AcDbVertex
100
AcDb2dVertex
 10
1.48747
 20
7.33018
 30
0.0
 40
0.0104167
 41
0.0104167
 70
0
  0
VERTEX
  5
C0
330
5C
100
AcDbEntity
  8
0
100
AcDbVertex
100
AcDb2dVertex
 10
1.48812
 20
7.33649
 30
0.0
 40
0.0104167
 41
0.0104167
 70
0
  0
VERTEX
  5
C1
330
5C
100
AcDbEntity
  8
0
100
AcDbVertex
100
AcDb2dVertex
 10
1.48872
 20
7.34283
 30
0.0
 40
0.0104167
 41
0.0104167
 70
0
  0
VERTEX
  5
C2
330
5C
100
AcDbEntity
  8
0
100
AcDbVertex
100
AcDb2dVertex
 10
1.49804
 20
7.4056
 30
0.0
 40
0.0104167
 41
0.0104167
 70
0
  0
VERTEX
  5
C3
330
5C
100
AcDbEntity
  8
0
100
AcDbVertex
100
AcDb2dVertex
 10
1.49929
 20
7.41183
 30
0.0
 40
0.0104167
 41
0.0104167
 70
0
  0
VERTEX
  5
C4
330
5C
100
AcDbEntity
  8
0
100
AcDbVertex
100
AcDb2dVertex
 10
1.50049
 20
7.41808
 30
0.0
 40
0.0104167
 41
0.0104167
 70
0
  0
VERTEX
  5
C5
330
5C
100
AcDbEntity
  8
0
100
AcDbVertex
100
AcDb2dVertex
 10
1.51594
 20
7.4796
 30
0.0
 40
0.0104167
 41
0.0104167
 70
0
  0
VERTEX
  5
C6
330
5C
100
AcDbEntity
  8
0
100
AcDbVertex
100
AcDb2dVertex
 10
1.51779
 20
7.48568
 30
0.0
 40
0.0104167
 41
0.0104167
 70
0
  0
VERTEX
  5
C7
330
5C
100
AcDbEntity
  8
0
100
AcDbVertex
100
AcDb2dVertex
 10
1.51964
 20
7.49181
 30
0.0
 40
0.0104167
 41
0.0104167
 70
0
  0
VERTEX
  5
C8
330
5C
100
AcDbEntity
  8
0
100
AcDbVertex
100
AcDb2dVertex
 10
1.54101
 20
7.55154
 30
0.0
 40
0.0104167
 41
0.0104167
 70
0
  0
VERTEX
  5
C9
330
5C
100
AcDbEntity
  8
0
100
AcDbVertex
100
AcDb2dVertex
 10
1.54346
 20
7.5574
 30
0.0
 40
0.0104167
 41
0.0104167
 70
0
  0
VERTEX
  5
CA
330
5C
100
AcDbEntity
  8
0
100
AcDbVertex
100
AcDb2dVertex
 10
1.54585
 20
7.56332
 30
0.0
 40
0.0104167
 41
0.0104167
 70
0
  0
VERTEX
  5
CB
330
5C
100
AcDbEntity
  8
0
100
AcDbVertex
100
AcDb2dVertex
 10
1.57297
 20
7.62067
 30
0.0
 40
0.0104167
 41
0.0104167
 70
0
  0
VERTEX
  5
CC
330
5C
100
AcDbEntity
  8
0
100
AcDbVertex
100
AcDb2dVertex
 10
1.57601
 20
7.62625
 30
0.0
 40
0.0104167
 41
0.0104167
 70
0
  0
VERTEX
  5
CD
330
5C
100
AcDbEntity
  8
0
100
AcDbVertex
100
AcDb2dVertex
 10
1.579
 20
7.63189
 30
0.0
 40
0.0104167
 41
0.0104167
 70
0
  0
VERTEX
  5
CE
330
5C
100
AcDbEntity
  8
0
100
AcDbVertex
100
AcDb2dVertex
 10
1.6116
 20
7.68631
 30
0.0
 40
0.0104167
 41
0.0104167
 70
0
  0
VERTEX
  5
CF
330
5C
100
AcDbEntity
  8
0
100
AcDbVertex
100
AcDb2dVertex
 10
1.61518
 20
7.69157
 30
0.0
 40
0.0104167
 41
0.0104167
 70
0
  0
VERTEX
  5
D0
330
5C
100
AcDbEntity
  8
0
100
AcDbVertex
100
AcDb2dVertex
 10
1.61871
 20
7.69689
 30
0.0
 40
0.0104167
 41
0.0104167
 70
0
  0
VERTEX
  5
D1
330
5C
100
AcDbEntity
  8
0
100
AcDbVertex
100
AcDb2dVertex
 10
1.65647
 20
7.74783
 30
0.0
 40
0.0104167
 41
0.0104167
 70
0
  0
VERTEX
  5
D2
330
5C
100
AcDbEntity
  8
0
100
AcDbVertex
100
AcDb2dVertex
 10
1.66054
 20
7.75271
 30
0.0
 40
0.0104167
 41
0.0104167
 70
0
  0
VERTEX
  5
D3
330
5C
100
AcDbEntity
  8
0
100
AcDbVertex
100
AcDb2dVertex
 10
1.66456
 20
7.75765
 30
0.0
 40
0.0104167
 41
0.0104167
 70
0
  0
VERTEX
  5
D4
330
5C
100
AcDbEntity
  8
0
100
AcDbVertex
100
AcDb2dVertex
 10
1.70719
 20
7.80469
 30
0.0
 40
0.0104167
 41
0.0104167
 70
0
  0
VERTEX
  5
D5
330
5C
100
AcDbEntity
  8
0
100
AcDbVertex
100
AcDb2dVertex
 10
1.71169
 20
7.80914
 30
0.0
 40
0.0104167
 41
0.0104167
 70
0
  0
VERTEX
  5
D6
330
5C
100
AcDbEntity
  8
0
100
AcDbVertex
100
AcDb2dVertex
 10
1.71615
 20
7.81364
 30
0.0
 40
0.0104167
 41
0.0104167
 70
0
  0
VERTEX
  5
D7
330
5C
100
AcDbEntity
  8
0
100
AcDbVertex
100
AcDb2dVertex
 10
1.76318
 20
7.85628
 30
0.0
 40
0.0104167
 41
0.0104167
 70
0
  0
VERTEX
  5
D8
330
5C
100
AcDbEntity
  8
0
100
AcDbVertex
100
AcDb2dVertex
 10
1.76813
 20
7.86029
 30
0.0
 40
0.0104167
 41
0.0104167
 70
0
  0
VERTEX
  5
D9
330
5C
100
AcDbEntity
  8
0
100
AcDbVertex
100
AcDb2dVertex
 10
1.773
 20
7.86436
 30
0.0
 40
0.0104167
 41
0.0104167
 70
0
  0
VERTEX
  5
DA
330
5C
100
AcDbEntity
  8
0
100
AcDbVertex
100
AcDb2dVertex
 10
1.82394
 20
7.90213
 30
0.0
 40
0.0104167
 41
0.0104167
 70
0
  0
VERTEX
  5
DB
330
5C
100
AcDbEntity
  8
0
100
AcDbVertex
100
AcDb2dVertex
 10
1.82926
 20
7.90565
 30
0.0
 40
0.0104167
 41
0.0104167
 70
0
  0
VERTEX
  5
DC
330
5C
100
AcDbEntity
  8
0
100
AcDbVertex
100
AcDb2dVertex
 10
1.83453
 20
7.90924
 30
0.0
 40
0.0104167
 41
0.0104167
 70
0
  0
VERTEX
  5
DD
330
5C
100
AcDbEntity
  8
0
100
AcDbVertex
100
AcDb2dVertex
 10
1.88894
 20
7.94185
 30
0.0
 40
0.0104167
 41
0.0104167
 70
0
  0
VERTEX
  5
DE
330
5C
100
AcDbEntity
  8
0
100
AcDbVertex
100
AcDb2dVertex
 10
1.89458
 20
7.94482
 30
0.0
 40
0.0104167
 41
0.0104167
 70
0
  0
VERTEX
  5
DF
330
5C
100
AcDbEntity
  8
0
100
AcDbVertex
100
AcDb2dVertex
 10
1.90018
 20
7.94786
 30
0.0
 40
0.0104167
 41
0.0104167
 70
0
  0
VERTEX
  5
E0
330
5C
100
AcDbEntity
  8
0
100
AcDbVertex
100
AcDb2dVertex
 10
1.95751
 20
7.97499
 30
0.0
 40
0.0104167
 41
0.0104167
 70
0
  0
VERTEX
  5
E1
330
5C
100
AcDbEntity
  8
0
100
AcDbVertex
100
AcDb2dVertex
 10
1.96343
 20
7.97737
 30
0.0
 40
0.0104167
 41
0.0104167
 70
0
  0
VERTEX
  5
E2
330
5C
100
AcDbEntity
  8
0
100
AcDbVertex
100
AcDb2dVertex
 10
1.96929
 20
7.97982
 30
0.0
 40
0.0104167
 41
0.0104167
 70
0
  0
VERTEX
  5
E3
330
5C
100
AcDbEntity
  8
0
100
AcDbVertex
100
AcDb2dVertex
 10
2.02903
 20
8.00119
 30
0.0
 40
0.0104167
 41
0.0104167
 70
0
  0
VERTEX
  5
E4
330
5C
100
AcDbEntity
  8
0
100
AcDbVertex
100
AcDb2dVertex
 10
2.03515
 20
8.00304
 30
0.0
 40
0.0104167
 41
0.0104167
 70
0
  0
VERTEX
  5
E5
330
5C
100
AcDbEntity
  8
0
100
AcDbVertex
100
AcDb2dVertex
 10
2.04124
 20
8.00489
 30
0.0
 40
0.0104167
 41
0.0104167
 70
0
  0
VERTEX
  5
E6
330
5C
100
AcDbEntity
  8
0
100
AcDbVertex
100
AcDb2dVertex
 10
2.10275
 20
8.02035
 30
0.0
 40
0.0104167
 41
0.0104167
 70
0
  0
VERTEX
  5
E7
330
5C
100
AcDbEntity
  8
0
100
AcDbVertex
100
AcDb2dVertex
 10
2.109
 20
8.02154
 30
0.0
 40
0.0104167
 41
0.0104167
 70
0
  0
VERTEX
  5
E8
330
5C
100
AcDbEntity
  8
0
100
AcDbVertex
100
AcDb2dVertex
 10
2.11524
 20
8.02279
 30
0.0
 40
0.0104167
 41
0.0104167
 70
0
  0
VERTEX
  5
E9
330
5C
100
AcDbEntity
  8
0
100
AcDbVertex
100
AcDb2dVertex
 10
2.178
 20
8.03212
 30
0.0
 40
0.0104167
 41
0.0104167
 70
0
  0
VERTEX
  5
EA
330
5C
100
AcDbEntity
  8
0
100
AcDbVertex
100
AcDb2dVertex
 10
2.18435
 20
8.03271
 30
0.0
 40
0.0104167
 41
0.0104167
 70
0
  0
VERTEX
  5
EB
330
5C
100
AcDbEntity
  8
0
100
AcDbVertex
100
AcDb2dVertex
 10
2.19065
 20
8.03336
 30
0.0
 40
0.0104167
 41
0.0104167
 70
0
  0
VERTEX
  5
EC
330
5C
100
AcDbEntity
  8
0
100
AcDbVertex
100
AcDb2dVertex
 10
2.24294
 20
8.03646
 30
0.0
 40
0.0104167
 41
0.0104167
 70
0
  0
VERTEX
  5
ED
330
5C
100
AcDbEntity
  8
0
100
AcDbVertex
100
AcDb2dVertex
 10
2.26042
 20
8.03646
 30
0.0
 40
0.0104167
 41
0.0104167
 70
0
  0
VERTEX
  5
EE
330
5C
100
AcDbEntity
  8
0
100
AcDbVertex
100
AcDb2dVertex
 10
2.2794
 20
8.03646
 30
0.0
 40
0.0104167
 41
0.0104167
 70
0
  0
VERTEX
  5
EF
330
5C
100
AcDbEntity
  8
0
100
AcDbVertex
100
AcDb2dVertex
 10
2.33014
 20
8.03336
 30
0.0
 40
0.0104167
 41
0.0104167
 70
0
  0
VERTEX
  5
F0
330
5C
100
AcDbEntity
  8
0
100
AcDbVertex
100
AcDb2dVertex
 10
2.33649
 20
8.03271
 30
0.0
 40
0.0104167
 41
0.0104167
 70
0
  0
VERTEX
  5
F1
330
5C
100
AcDbEntity
  8
0
100
AcDbVertex
100
AcDb2dVertex
 10
2.34278
 20
8.03212
 30
0.0
 40
0.0104167
 41
0.0104167
 70
0
  0
VERTEX
  5
F2
330
5C
100
AcDbEntity
  8
0
100
AcDbVertex
100
AcDb2dVertex
 10
2.4056
 20
8.02279
 30
0.0
 40
0.0104167
 41
0.0104167
 70
0
  0
VERTEX
  5
F3
330
5C
100
AcDbEntity
  8
0
100
AcDbVertex
100
AcDb2dVertex
 10
2.41183
 20
8.02154
 30
0.0
 40
0.0104167
 41
0.0104167
 70
0
  0
VERTEX
  5
F4
330
5C
100
AcDbEntity
  8
0
100
AcDbVertex
100
AcDb2dVertex
 10
2.41803
 20
8.02035
 30
0.0
 40
0.0104167
 41
0.0104167
 70
0
  0
VERTEX
  5
F5
330
5C
100
AcDbEntity
  8
0
100
AcDbVertex
100
AcDb2dVertex
 10
2.4796
 20
8.00489
 30
0.0
 40
0.0104167
 41
0.0104167
 70
0
  0
VERTEX
  5
F6
330
5C
100
AcDbEntity
  8
0
100
AcDbVertex
100
AcDb2dVertex
 10
2.48568
 20
8.00304
 30
0.0
 40
0.0104167
 41
0.0104167
 70
0
  0
VERTEX
  5
F7
330
5C
100
AcDbEntity
  8
0
100
AcDbVertex
100
AcDb2dVertex
 10
2.49175
 20
8.00119
 30
0.0
 40
0.0104167
 41
0.0104167
 70
0
  0
VERTEX
  5
F8
330
5C
100
AcDbEntity
  8
0
100
AcDbVertex
100
AcDb2dVertex
 10
2.55149
 20
7.97982
 30
0.0
 40
0.0104167
 41
0.0104167
 70
0
  0
VERTEX
  5
F9
330
5C
100
AcDbEntity
  8
0
100
AcDbVertex
100
AcDb2dVertex
 10
2.5574
 20
7.97737
 30
0.0
 40
0.0104167
 41
0.0104167
 70
0
  0
VERTEX
  5
FA
330
5C
100
AcDbEntity
  8
0
100
AcDbVertex
100
AcDb2dVertex
 10
2.56326
 20
7.97499
 30
0.0
 40
0.0104167
 41
0.0104167
 70
0
  0
VERTEX
  5
FB
330
5C
100
AcDbEntity
  8
0
100
AcDbVertex
100
AcDb2dVertex
 10
2.62061
 20
7.94786
 30
0.0
 40
0.0104167
 41
0.0104167
 70
0
  0
VERTEX
  5
FC
330
5C
100
AcDbEntity
  8
0
100
AcDbVertex
100
AcDb2dVertex
 10
2.62625
 20
7.94482
 30
0.0
 40
0.0104167
 41
0.0104167
 70
0
  0
VERTEX
  5
FD
330
5C
100
AcDbEntity
  8
0
100
AcDbVertex
100
AcDb2dVertex
 10
2.63183
 20
7.94185
 30
0.0
 40
0.0104167
 41
0.0104167
 70
0
  0
VERTEX
  5
FE
330
5C
100
AcDbEntity
  8
0
100
AcDbVertex
100
AcDb2dVertex
 10
2.68625
 20
7.90924
 30
0.0
 40
0.0104167
 41
0.0104167
 70
0
  0
VERTEX
  5
FF
330
5C
100
AcDbEntity
  8
0
100
AcDbVertex
100
AcDb2dVertex
 10
2.69157
 20
7.90565
 30
0.0
 40
0.0104167
 41
0.0104167
 70
0
  0
VERTEX
  5
100
330
5C
100
AcDbEntity
  8
0
100
AcDbVertex
100
AcDb2dVertex
 10
2.69683
 20
7.90213
 30
0.0
 40
0.0104167
 41
0.0104167
 70
0
  0
VERTEX
  5
101
330
5C
100
AcDbEntity
  8
0
100
AcDbVertex
100
AcDb2dVertex
 10
2.74778
 20
7.86436
 30
0.0
 40
0.0104167
 41
0.0104167
 70
0
  0
VERTEX
  5
102
330
5C
100
AcDbEntity
  8
0
100
AcDbVertex
100
AcDb2dVertex
 10
2.75271
 20
7.86029
 30
0.0
 40
0.0104167
 41
0.0104167
 70
0
  0
VERTEX
  5
103
330
5C
100
AcDbEntity
  8
0
100
AcDbVertex
100
AcDb2dVertex
 10
2.7576
 20
7.85628
 30
0.0
 40
0.0104167
 41
0.0104167
 70
0
  0
VERTEX
  5
104
330
5C
100
AcDbEntity
  8
0
100
AcDbVertex
100
AcDb2dVertex
 10
2.80464
 20
7.81364
 30
0.0
 40
0.0104167
 41
0.0104167
 70
0
  0
VERTEX
  5
105
330
5C
100
AcDbEntity
  8
0
100
AcDbVertex
100
AcDb2dVertex
 10
2.80914
 20
7.80914
 30
0.0
 40
0.0104167
 41
0.0104167
 70
0
  0
VERTEX
  5
106
330
5C
100
AcDbEntity
  8
0
100
AcDbVertex
100
AcDb2dVertex
 10
2.81364
 20
7.80469
 30
0.0
 40
0.0104167
 41
0.0104167
 70
0
  0
VERTEX
  5
107
330
5C
100
AcDbEntity
  8
0
100
AcDbVertex
100
AcDb2dVertex
 10
2.85622
 20
7.75765
 30
0.0
 40
0.0104167
 41
0.0104167
 70
0
  0
VERTEX
  5
108
330
5C
100
AcDbEntity
  8
0
100
AcDbVertex
100
AcDb2dVertex
 10
2.86029
 20
7.75271
 30
0.0
 40
0.0104167
 41
0.0104167
 70
0
  0
VERTEX
  5
109
330
5C
100
AcDbEntity
  8
0
100
AcDbVertex
100
AcDb2dVertex
 10
2.86431
 20
7.74783
 30
0.0
 40
0.0104167
 41
0.0104167
 70
0
  0
VERTEX
  5
10A
330
5C
100
AcDbEntity
  8
0
100
AcDbVertex
100
AcDb2dVertex
 10
2.90213
 20
7.69689
 30
0.0
 40
0.0104167
 41
0.0104167
 70
0
  0
VERTEX
  5
10B
330
5C
100
AcDbEntity
  8
0
100
AcDbVertex
100
AcDb2dVertex
 10
2.90565
 20
7.69157
 30
0.0
 40
0.0104167
 41
0.0104167
 70
0
  0
VERTEX
  5
10C
330
5C
100
AcDbEntity
  8
0
100
AcDbVertex
100
AcDb2dVertex
 10
2.90918
 20
7.68631
 30
0.0
 40
0.0104167
 41
0.0104167
 70
0
  0
VERTEX
  5
10D
330
5C
100
AcDbEntity
  8
0
100
AcDbVertex
100
AcDb2dVertex
 10
2.94179
 20
7.63189
 30
0.0
 40
0.0104167
 41
0.0104167
 70
0
  0
VERTEX
  5
10E
330
5C
100
AcDbEntity
  8
0
100
AcDbVertex
100
AcDb2dVertex
 10
2.94482
 20
7.62625
 30
0.0
 40
0.0104167
 41
0.0104167
 70
0
  0
VERTEX
  5
10F
330
5C
100
AcDbEntity
  8
0
100
AcDbVertex
100
AcDb2dVertex
 10
2.94781
 20
7.62067
 30
0.0
 40
0.0104167
 41
0.0104167
 70
0
  0
VERTEX
  5
110
330
5C
100
AcDbEntity
  8
0
100
AcDbVertex
100
AcDb2dVertex
 10
2.97493
 20
7.56332
 30
0.0
 40
0.0104167
 41
0.0104167
 70
0
  0
VERTEX
  5
111
330
5C
100
AcDbEntity
  8
0
100
AcDbVertex
100
AcDb2dVertex
 10
2.97738
 20
7.5574
 30
0.0
 40
0.0104167
 41
0.0104167
 70
0
  0
VERTEX
  5
112
330
5C
100
AcDbEntity
  8
0
100
AcDbVertex
100
AcDb2dVertex
 10
2.97976
 20
7.55154
 30
0.0
 40
0.0104167
 41
0.0104167
 70
0
  0
VERTEX
  5
113
330
5C
100
AcDbEntity
  8
0
100
AcDbVertex
100
AcDb2dVertex
 10
3.00119
 20
7.49181
 30
0.0
 40
0.0104167
 41
0.0104167
 70
0
  0
VERTEX
  5
114
330
5C
100
AcDbEntity
  8
0
100
AcDbVertex
100
AcDb2dVertex
 10
3.00304
 20
7.48568
 30
0.0
 40
0.0104167
 41
0.0104167
 70
0
  0
VERTEX
  5
115
330
5C
100
AcDbEntity
  8
0
100
AcDbVertex
100
AcDb2dVertex
 10
3.00489
 20
7.4796
 30
0.0
 40
0.0104167
 41
0.0104167
 70
0
  0
VERTEX
  5
116
330
5C
100
AcDbEntity
  8
0
100
AcDbVertex
100
AcDb2dVertex
 10
3.02029
 20
7.41808
 30
0.0
 40
0.0104167
 41
0.0104167
 70
0
  0
VERTEX
  5
117
330
5C
100
AcDbEntity
  8
0
100
AcDbVertex
100
AcDb2dVertex
 10
3.02154
 20
7.41183
 30
0.0
 40
0.0104167
 41
0.0104167
 70
0
  0
VERTEX
  5
118
330
5C
100
AcDbEntity
  8
0
100
AcDbVertex
100
AcDb2dVertex
 10
3.02279
 20
7.4056
 30
0.0
 40
0.0104167
 41
0.0104167
 70
0
  0
VERTEX
  5
119
330
5C
100
AcDbEntity
  8
0
100
AcDbVertex
100
AcDb2dVertex
 10
3.03207
 20
7.34283
 30
0.0
 40
0.0104167
 41
0.0104167
 70
0
  0
VERTEX
  5
11A
330
5C
100
AcDbEntity
  8
0
100
AcDbVertex
100
AcDb2dVertex
 10
3.03271
 20
7.33649
 30
0.0
 40
0.0104167
 41
0.0104167
 70
0
  0
VERTEX
  5
11B
330
5C
100
AcDbEntity
  8
0
100
AcDbVertex
100
AcDb2dVertex
 10
3.03331
 20
7.33018
 30
0.0
 40
0.0104167
 41
0.0104167
 70
0
  0
VERTEX
  5
11C
330
5C
100
AcDbEntity
  8
0
100
AcDbVertex
100
AcDb2dVertex
 10
3.03646
 20
7.27789
 30
0.0
 40
0.0104167
 41
0.0104167
 70
0
  0
VERTEX
  5
11D
330
5C
100
AcDbEntity
  8
0
100
AcDbVertex
100
AcDb2dVertex
 10
3.03646
 20
7.26042
 30
0.0
 40
0.0104167
 41
0.0104167
 70
0
  0
SEQEND
  5
11E
330
5C
100
AcDbEntity
  8
0
  0
POLYLINE
  5
11F
330
2F
100
AcDbEntity
  8
0
 62
254
100
AcDb2dPolyline
 66
1
 10
0.0
 20
0.0
 30
0.0
 70
1
 40
0.75
 41
0.75
  0
VERTEX
  5
120
330
11F
100
AcDbEntity
  8
0
100
AcDbVertex
100
AcDb2dVertex
 10
4.59896
 20
7.26042
 30
0.0
 40
0.0104167
 41
0.0104167
 70
0
  0
VERTEX
  5
121
330
11F
100
AcDbEntity
  8
0
100
AcDbVertex
100
AcDb2dVertex
 10
4.59896
 20
7.24143
 30
0.0
 40
0.0104167
 41
0.0104167
 70
0
  0
VERTEX
  5
122
330
11F
100
AcDbEntity
  8
0
100
AcDbVertex
100
AcDb2dVertex
 10
4.59581
 20
7.19069
 30
0.0
 40
0.0104167
 41
0.0104167
 70
0
  0
VERTEX
  5
123
330
11F
100
AcDbEntity
  8
0
100
AcDbVertex
100
AcDb2dVertex
 10
4.59521
 20
7.18435
 30
0.0
 40
0.0104167
 41
0.0104167
 70
0
  0
VERTEX
  5
124
330
11F
100
AcDbEntity
  8
0
100
AcDbVertex
100
AcDb2dVertex
 10
4.59457
 20
7.17806
 30
0.0
 40
0.0104167
 41
0.0104167
 70
0
  0
VERTEX
  5
125
330
11F
100
AcDbEntity
  8
0
100
AcDbVertex
100
AcDb2dVertex
 10
4.58529
 20
7.11524
 30
0.0
 40
0.0104167
 41
0.0104167
 70
0
  0
VERTEX
  5
126
330
11F
100
AcDbEntity
  8
0
100
AcDbVertex
100
AcDb2dVertex
 10
4.58404
 20
7.109
 30
0.0
 40
0.0104167
 41
0.0104167
 70
0
  0
VERTEX
  5
127
330
11F
100
AcDbEntity
  8
0
100
AcDbVertex
100
AcDb2dVertex
 10
4.58279
 20
7.10281
 30
0.0
 40
0.0104167
 41
0.0104167
 70
0
  0
VERTEX
  5
128
330
11F
100
AcDbEntity
  8
0
100
AcDbVertex
100
AcDb2dVertex
 10
4.56739
 20
7.04124
 30
0.0
 40
0.0104167
 41
0.0104167
 70
0
  0
VERTEX
  5
129
330
11F
100
AcDbEntity
  8
0
100
AcDbVertex
100
AcDb2dVertex
 10
4.56554
 20
7.03515
 30
0.0
 40
0.0104167
 41
0.0104167
 70
0
  0
VERTEX
  5
12A
330
11F
100
AcDbEntity
  8
0
100
AcDbVertex
100
AcDb2dVertex
 10
4.56369
 20
7.02908
 30
0.0
 40
0.0104167
 41
0.0104167
 70
0
  0
VERTEX
  5
12B
330
11F
100
AcDbEntity
  8
0
100
AcDbVertex
100
AcDb2dVertex
 10
4.54226
 20
6.96935
 30
0.0
 40
0.0104167
 41
0.0104167
 70
0
  0
VERTEX
  5
12C
330
11F
100
AcDbEntity
  8
0
100
AcDbVertex
100
AcDb2dVertex
 10
4.53988
 20
6.96343
 30
0.0
 40
0.0104167
 41
0.0104167
 70
0
  0
VERTEX
  5
12D
330
11F
100
AcDbEntity
  8
0
100
AcDbVertex
100
AcDb2dVertex
 10
4.53743
 20
6.95757
 30
0.0
 40
0.0104167
 41
0.0104167
 70
0
  0
VERTEX
  5
12E
330
11F
100
AcDbEntity
  8
0
100
AcDbVertex
100
AcDb2dVertex
 10
4.51031
 20
6.90022
 30
0.0
 40
0.0104167
 41
0.0104167
 70
0
  0
VERTEX
  5
12F
330
11F
100
AcDbEntity
  8
0
100
AcDbVertex
100
AcDb2dVertex
 10
4.50732
 20
6.89458
 30
0.0
 40
0.0104167
 41
0.0104167
 70
0
  0
VERTEX
  5
130
330
11F
100
AcDbEntity
  8
0
100
AcDbVertex
100
AcDb2dVertex
 10
4.50429
 20
6.889
 30
0.0
 40
0.0104167
 41
0.0104167
 70
0
  0
VERTEX
  5
131
330
11F
100
AcDbEntity
  8
0
100
AcDbVertex
100
AcDb2dVertex
 10
4.47168
 20
6.83458
 30
0.0
 40
0.0104167
 41
0.0104167
 70
0
  0
VERTEX
  5
132
330
11F
100
AcDbEntity
  8
0
100
AcDbVertex
100
AcDb2dVertex
 10
4.46815
 20
6.82926
 30
0.0
 40
0.0104167
 41
0.0104167
 70
0
  0
VERTEX
  5
133
330
11F
100
AcDbEntity
  8
0
100
AcDbVertex
100
AcDb2dVertex
 10
4.46463
 20
6.824
 30
0.0
 40
0.0104167
 41
0.0104167
 70
0
  0
VERTEX
  5
134
330
11F
100
AcDbEntity
  8
0
100
AcDbVertex
100
AcDb2dVertex
 10
4.42681
 20
6.77306
 30
0.0
 40
0.0104167
 41
0.0104167
 70
0
  0
VERTEX
  5
135
330
11F
100
AcDbEntity
  8
0
100
AcDbVertex
100
AcDb2dVertex
 10
4.42279
 20
6.76812
 30
0.0
 40
0.0104167
 41
0.0104167
 70
0
  0
VERTEX
  5
136
330
11F
100
AcDbEntity
  8
0
100
AcDbVertex
100
AcDb2dVertex
 10
4.41872
 20
6.76324
 30
0.0
 40
0.0104167
 41
0.0104167
 70
0
  0
VERTEX
  5
137
330
11F
100
AcDbEntity
  8
0
100
AcDbVertex
100
AcDb2dVertex
 10
4.37614
 20
6.71619
 30
0.0
 40
0.0104167
 41
0.0104167
 70
0
  0
VERTEX
  5
138
330
11F
100
AcDbEntity
  8
0
100
AcDbVertex
100
AcDb2dVertex
 10
4.37164
 20
6.71169
 30
0.0
 40
0.0104167
 41
0.0104167
 70
0
  0
VERTEX
  5
139
330
11F
100
AcDbEntity
  8
0
100
AcDbVertex
100
AcDb2dVertex
 10
4.36714
 20
6.70719
 30
0.0
 40
0.0104167
 41
0.0104167
 70
0
  0
VERTEX
  5
13A
330
11F
100
AcDbEntity
  8
0
100
AcDbVertex
100
AcDb2dVertex
 10
4.3201
 20
6.66461
 30
0.0
 40
0.0104167
 41
0.0104167
 70
0
  0
VERTEX
  5
13B
330
11F
100
AcDbEntity
  8
0
100
AcDbVertex
100
AcDb2dVertex
 10
4.31521
 20
6.66054
 30
0.0
 40
0.0104167
 41
0.0104167
 70
0
  0
VERTEX
  5
13C
330
11F
100
AcDbEntity
  8
0
100
AcDbVertex
100
AcDb2dVertex
 10
4.31028
 20
6.65653
 30
0.0
 40
0.0104167
 41
0.0104167
 70
0
  0
VERTEX
  5
13D
330
11F
100
AcDbEntity
  8
0
100
AcDbVertex
100
AcDb2dVertex
 10
4.25933
 20
6.61871
 30
0.0
 40
0.0104167
 41
0.0104167
 70
0
  0
VERTEX
  5
13E
330
11F
100
AcDbEntity
  8
0
100
AcDbVertex
100
AcDb2dVertex
 10
4.25407
 20
6.61518
 30
0.0
 40
0.0104167
 41
0.0104167
 70
0
  0
VERTEX
  5
13F
330
11F
100
AcDbEntity
  8
0
100
AcDbVertex
100
AcDb2dVertex
 10
4.24875
 20
6.61165
 30
0.0
 40
0.0104167
 41
0.0104167
 70
0
  0
VERTEX
  5
140
330
11F
100
AcDbEntity
  8
0
100
AcDbVertex
100
AcDb2dVertex
 10
4.19433
 20
6.57904
 30
0.0
 40
0.0104167
 41
0.0104167
 70
0
  0
VERTEX
  5
141
330
11F
100
AcDbEntity
  8
0
100
AcDbVertex
100
AcDb2dVertex
 10
4.18875
 20
6.57601
 30
0.0
 40
0.0104167
 41
0.0104167
 70
0
  0
VERTEX
  5
142
330
11F
100
AcDbEntity
  8
0
100
AcDbVertex
100
AcDb2dVertex
 10
4.18311
 20
6.57303
 30
0.0
 40
0.0104167
 41
0.0104167
 70
0
  0
VERTEX
  5
143
330
11F
100
AcDbEntity
  8
0
100
AcDbVertex
100
AcDb2dVertex
 10
4.12576
 20
6.5459
 30
0.0
 40
0.0104167
 41
0.0104167
 70
0
  0
VERTEX
  5
144
330
11F
100
AcDbEntity
  8
0
100
AcDbVertex
100
AcDb2dVertex
 10
4.1199
 20
6.54346
 30
0.0
 40
0.0104167
 41
0.0104167
 70
0
  0
VERTEX
  5
145
330
11F
100
AcDbEntity
  8
0
100
AcDbVertex
100
AcDb2dVertex
 10
4.11399
 20
6.54107
 30
0.0
 40
0.0104167
 41
0.0104167
 70
0
  0
VERTEX
  5
146
330
11F
100
AcDbEntity
  8
0
100
AcDbVertex
100
AcDb2dVertex
 10
4.05425
 20
6.51964
 30
0.0
 40
0.0104167
 41
0.0104167
 70
0
  0
VERTEX
  5
147
330
11F
100
AcDbEntity
  8
0
100
AcDbVertex
100
AcDb2dVertex
 10
4.04818
 20
6.51779
 30
0.0
 40
0.0104167
 41
0.0104167
 70
0
  0
VERTEX
  5
148
330
11F
100
AcDbEntity
  8
0
100
AcDbVertex
100
AcDb2dVertex
 10
4.0421
 20
6.51594
 30
0.0
 40
0.0104167
 41
0.0104167
 70
0
  0
VERTEX
  5
149
330
11F
100
AcDbEntity
  8
0
100
AcDbVertex
100
AcDb2dVertex
 10
3.98053
 20
6.50054
 30
0.0
 40
0.0104167
 41
0.0104167
 70
0
  0
VERTEX
  5
14A
330
11F
100
AcDbEntity
  8
0
100
AcDbVertex
100
AcDb2dVertex
 10
3.97433
 20
6.49929
 30
0.0
 40
0.0104167
 41
0.0104167
 70
0
  0
VERTEX
  5
14B
330
11F
100
AcDbEntity
  8
0
100
AcDbVertex
100
AcDb2dVertex
 10
3.9681
 20
6.49804
 30
0.0
 40
0.0104167
 41
0.0104167
 70
0
  0
VERTEX
  5
14C
330
11F
100
AcDbEntity
  8
0
100
AcDbVertex
100
AcDb2dVertex
 10
3.90528
 20
6.48876
 30
0.0
 40
0.0104167
 41
0.0104167
 70
0
  0
VERTEX
  5
14D
330
11F
100
AcDbEntity
  8
0
100
AcDbVertex
100
AcDb2dVertex
 10
3.89899
 20
6.48812
 30
0.0
 40
0.0104167
 41
0.0104167
 70
0
  0
VERTEX
  5
14E
330
11F
100
AcDbEntity
  8
0
100
AcDbVertex
100
AcDb2dVertex
 10
3.89264
 20
6.48753
 30
0.0
 40
0.0104167
 41
0.0104167
 70
0
  0
VERTEX
  5
14F
330
11F
100
AcDbEntity
  8
0
100
AcDbVertex
100
AcDb2dVertex
 10
3.84033
 20
6.48438
 30
0.0
 40
0.0104167
 41
0.0104167
 70
0
  0
VERTEX
  5
150
330
11F
100
AcDbEntity
  8
0
100
AcDbVertex
100
AcDb2dVertex
 10
3.82292
 20
6.48438
 30
0.0
 40
0.0104167
 41
0.0104167
 70
0
  0
VERTEX
  5
151
330
11F
100
AcDbEntity
  8
0
100
AcDbVertex
100
AcDb2dVertex
 10
3.80387
 20
6.48438
 30
0.0
 40
0.0104167
 41
0.0104167
 70
0
  0
VERTEX
  5
152
330
11F
100
AcDbEntity
  8
0
100
AcDbVertex
100
AcDb2dVertex
 10
3.75315
 20
6.48753
 30
0.0
 40
0.0104167
 41
0.0104167
 70
0
  0
VERTEX
  5
153
330
11F
100
AcDbEntity
  8
0
100
AcDbVertex
100
AcDb2dVertex
 10
3.74685
 20
6.48812
 30
0.0
 40
0.0104167
 41
0.0104167
 70
0
  0
VERTEX
  5
154
330
11F
100
AcDbEntity
  8
0
100
AcDbVertex
100
AcDb2dVertex
 10
3.7405
 20
6.48876
 30
0.0
 40
0.0104167
 41
0.0104167
 70
0
  0
VERTEX
  5
155
330
11F
100
AcDbEntity
  8
0
100
AcDbVertex
100
AcDb2dVertex
 10
3.67774
 20
6.49804
 30
0.0
 40
0.0104167
 41
0.0104167
 70
0
  0
VERTEX
  5
156
330
11F
100
AcDbEntity
  8
0
100
AcDbVertex
100
AcDb2dVertex
 10
3.6715
 20
6.49929
 30
0.0
 40
0.0104167
 41
0.0104167
 70
0
  0
VERTEX
  5
157
330
11F
100
AcDbEntity
  8
0
100
AcDbVertex
100
AcDb2dVertex
 10
3.66525
 20
6.50054
 30
0.0
 40
0.0104167
 41
0.0104167
 70
0
  0
VERTEX
  5
158
330
11F
100
AcDbEntity
  8
0
100
AcDbVertex
100
AcDb2dVertex
 10
3.60374
 20
6.51594
 30
0.0
 40
0.0104167
 41
0.0104167
 70
0
  0
VERTEX
  5
159
330
11F
100
AcDbEntity
  8
0
100
AcDbVertex
100
AcDb2dVertex
 10
3.59765
 20
6.51779
 30
0.0
 40
0.0104167
 41
0.0104167
 70
0
  0
VERTEX
  5
15A
330
11F
100
AcDbEntity
  8
0
100
AcDbVertex
100
AcDb2dVertex
 10
3.59153
 20
6.51964
 30
0.0
 40
0.0104167
 41
0.0104167
 70
0
  0
VERTEX
  5
15B
330
11F
100
AcDbEntity
  8
0
100
AcDbVertex
100
AcDb2dVertex
 10
3.53179
 20
6.54107
 30
0.0
 40
0.0104167
 41
0.0104167
 70
0
  0
VERTEX
  5
15C
330
11F
100
AcDbEntity
  8
0
100
AcDbVertex
100
AcDb2dVertex
 10
3.52593
 20
6.54346
 30
0.0
 40
0.0104167
 41
0.0104167
 70
0
  0
VERTEX
  5
15D
330
11F
100
AcDbEntity
  8
0
100
AcDbVertex
100
AcDb2dVertex
 10
3.52001
 20
6.5459
 30
0.0
 40
0.0104167
 41
0.0104167
 70
0
  0
VERTEX
  5
15E
330
11F
100
AcDbEntity
  8
0
100
AcDbVertex
100
AcDb2dVertex
 10
3.46268
 20
6.57303
 30
0.0
 40
0.0104167
 41
0.0104167
 70
0
  0
VERTEX
  5
15F
330
11F
100
AcDbEntity
  8
0
100
AcDbVertex
100
AcDb2dVertex
 10
3.45708
 20
6.57601
 30
0.0
 40
0.0104167
 41
0.0104167
 70
0
  0
VERTEX
  5
160
330
11F
100
AcDbEntity
  8
0
100
AcDbVertex
100
AcDb2dVertex
 10
3.45144
 20
6.57904
 30
0.0
 40
0.0104167
 41
0.0104167
 70
0
  0
VERTEX
  5
161
330
11F
100
AcDbEntity
  8
0
100
AcDbVertex
100
AcDb2dVertex
 10
3.39703
 20
6.61165
 30
0.0
 40
0.0104167
 41
0.0104167
 70
0
  0
VERTEX
  5
162
330
11F
100
AcDbEntity
  8
0
100
AcDbVertex
100
AcDb2dVertex
 10
3.39176
 20
6.61518
 30
0.0
 40
0.0104167
 41
0.0104167
 70
0
  0
VERTEX
  5
163
330
11F
100
AcDbEntity
  8
0
100
AcDbVertex
100
AcDb2dVertex
 10
3.38644
 20
6.61871
 30
0.0
 40
0.0104167
 41
0.0104167
 70
0
  0
VERTEX
  5
164
330
11F
100
AcDbEntity
  8
0
100
AcDbVertex
100
AcDb2dVertex
 10
3.3355
 20
6.65653
 30
0.0
 40
0.0104167
 41
0.0104167
 70
0
  0
VERTEX
  5
165
330
11F
100
AcDbEntity
  8
0
100
AcDbVertex
100
AcDb2dVertex
 10
3.33062
 20
6.66054
 30
0.0
 40
0.0104167
 41
0.0104167
 70
0
  0
VERTEX
  5
166
330
11F
100
AcDbEntity
  8
0
100
AcDbVertex
100
AcDb2dVertex
 10
3.32568
 20
6.66461
 30
0.0
 40
0.0104167
 41
0.0104167
 70
0
  0
VERTEX
  5
167
330
11F
100
AcDbEntity
  8
0
100
AcDbVertex
100
AcDb2dVertex
 10
3.27865
 20
6.70719
 30
0.0
 40
0.0104167
 41
0.0104167
 70
0
  0
VERTEX
  5
168
330
11F
100
AcDbEntity
  8
0
100
AcDbVertex
100
AcDb2dVertex
 10
3.27419
 20
6.71169
 30
0.0
 40
0.0104167
 41
0.0104167
 70
0
  0
VERTEX
  5
169
330
11F
100
AcDbEntity
  8
0
100
AcDbVertex
100
AcDb2dVertex
 10
3.26969
 20
6.71619
 30
0.0
 40
0.0104167
 41
0.0104167
 70
0
  0
VERTEX
  5
16A
330
11F
100
AcDbEntity
  8
0
100
AcDbVertex
100
AcDb2dVertex
 10
3.22706
 20
6.76324
 30
0.0
 40
0.0104167
 41
0.0104167
 70
0
  0
VERTEX
  5
16B
330
11F
100
AcDbEntity
  8
0
100
AcDbVertex
100
AcDb2dVertex
 10
3.22304
 20
6.76812
 30
0.0
 40
0.0104167
 41
0.0104167
 70
0
  0
VERTEX
  5
16C
330
11F
100
AcDbEntity
  8
0
100
AcDbVertex
100
AcDb2dVertex
 10
3.21897
 20
6.77306
 30
0.0
 40
0.0104167
 41
0.0104167
 70
0
  0
VERTEX
  5
16D
330
11F
100
AcDbEntity
  8
0
100
AcDbVertex
100
AcDb2dVertex
 10
3.18121
 20
6.824
 30
0.0
 40
0.0104167
 41
0.0104167
 70
0
  0
VERTEX
  5
16E
330
11F
100
AcDbEntity
  8
0
100
AcDbVertex
100
AcDb2dVertex
 10
3.17768
 20
6.82926
 30
0.0
 40
0.0104167
 41
0.0104167
 70
0
  0
VERTEX
  5
16F
330
11F
100
AcDbEntity
  8
0
100
AcDbVertex
100
AcDb2dVertex
 10
3.1741
 20
6.83458
 30
0.0
 40
0.0104167
 41
0.0104167
 70
0
  0
VERTEX
  5
170
330
11F
100
AcDbEntity
  8
0
100
AcDbVertex
100
AcDb2dVertex
 10
3.1415
 20
6.889
 30
0.0
 40
0.0104167
 41
0.0104167
 70
0
  0
VERTEX
  5
171
330
11F
100
AcDbEntity
  8
0
100
AcDbVertex
100
AcDb2dVertex
 10
3.13851
 20
6.89458
 30
0.0
 40
0.0104167
 41
0.0104167
 70
0
  0
VERTEX
  5
172
330
11F
100
AcDbEntity
  8
0
100
AcDbVertex
100
AcDb2dVertex
 10
3.13547
 20
6.90022
 30
0.0
 40
0.0104167
 41
0.0104167
 70
0
  0
VERTEX
  5
173
330
11F
100
AcDbEntity
  8
0
100
AcDbVertex
100
AcDb2dVertex
 10
3.10835
 20
6.95757
 30
0.0
 40
0.0104167
 41
0.0104167
 70
0
  0
VERTEX
  5
174
330
11F
100
AcDbEntity
  8
0
100
AcDbVertex
100
AcDb2dVertex
 10
3.10596
 20
6.96343
 30
0.0
 40
0.0104167
 41
0.0104167
 70
0
  0
VERTEX
  5
175
330
11F
100
AcDbEntity
  8
0
100
AcDbVertex
100
AcDb2dVertex
 10
3.10351
 20
6.96935
 30
0.0
 40
0.0104167
 41
0.0104167
 70
0
  0
VERTEX
  5
176
330
11F
100
AcDbEntity
  8
0
100
AcDbVertex
100
AcDb2dVertex
 10
3.08214
 20
7.02908
 30
0.0
 40
0.0104167
 41
0.0104167
 70
0
  0
VERTEX
  5
177
330
11F
100
AcDbEntity
  8
0
100
AcDbVertex
100
AcDb2dVertex
 10
3.08029
 20
7.03515
 30
0.0
 40
0.0104167
 41
0.0104167
 70
0
  0
VERTEX
  5
178
330
11F
100
AcDbEntity
  8
0
100
AcDbVertex
100
AcDb2dVertex
 10
3.07844
 20
7.04124
 30
0.0
 40
0.0104167
 41
0.0104167
 70
0
  0
VERTEX
  5
179
330
11F
100
AcDbEntity
  8
0
100
AcDbVertex
100
AcDb2dVertex
 10
3.06299
 20
7.10281
 30
0.0
 40
0.0104167
 41
0.0104167
 70
0
  0
VERTEX
  5
17A
330
11F
100
AcDbEntity
  8
0
100
AcDbVertex
100
AcDb2dVertex
 10
3.06179
 20
7.109
 30
0.0
 40
0.0104167
 41
0.0104167
 70
0
  0
VERTEX
  5
17B
330
11F
100
AcDbEntity
  8
0
100
AcDbVertex
100
AcDb2dVertex
 10
3.06054
 20
7.11524
 30
0.0
 40
0.0104167
 41
0.0104167
 70
0
  0
VERTEX
  5
17C
330
11F
100
AcDbEntity
  8
0
100
AcDbVertex
100
AcDb2dVertex
 10
3.05122
 20
7.17806
 30
0.0
 40
0.0104167
 41
0.0104167
 70
0
  0
VERTEX
  5
17D
330
11F
100
AcDbEntity
  8
0
100
AcDbVertex
100
AcDb2dVertex
 10
3.05063
 20
7.18435
 30
0.0
 40
0.0104167
 41
0.0104167
 70
0
  0
VERTEX
  5
17E
330
11F
100
AcDbEntity
  8
0
100
AcDbVertex
100
AcDb2dVertex
 10
3.04997
 20
7.19069
 30
0.0
 40
0.0104167
 41
0.0104167
 70
0
  0
VERTEX
  5
17F
330
11F
100
AcDbEntity
  8
0
100
AcDbVertex
100
AcDb2dVertex
 10
3.04688
 20
7.243
 30
0.0
 40
0.0104167
 41
0.0104167
 70
0
  0
VERTEX
  5
180
330
11F
100
AcDbEntity
  8
0
100
AcDbVertex
100
AcDb2dVertex
 10
3.04688
 20
7.26042
 30
0.0
 40
0.0104167
 41
0.0104167
 70
0
  0
VERTEX
  5
181
330
11F
100
AcDbEntity
  8
0
100
AcDbVertex
100
AcDb2dVertex
 10
3.04688
 20
7.27946
 30
0.0
 40
0.0104167
 41
0.0104167
 70
0
  0
VERTEX
  5
182
330
11F
100
AcDbEntity
  8
0
100
AcDbVertex
100
AcDb2dVertex
 10
3.04997
 20
7.33018
 30
0.0
 40
0.0104167
 41
0.0104167
 70
0
  0
VERTEX
  5
183
330
11F
100
AcDbEntity
  8
0
100
AcDbVertex
100
AcDb2dVertex
 10
3.05063
 20
7.33649
 30
0.0
 40
0.0104167
 41
0.0104167
 70
0
  0
VERTEX
  5
184
330
11F
100
AcDbEntity
  8
0
100
AcDbVertex
100
AcDb2dVertex
 10
3.05122
 20
7.34283
 30
0.0
 40
0.0104167
 41
0.0104167
 70
0
  0
VERTEX
  5
185
330
11F
100
AcDbEntity
  8
0
100
AcDbVertex
100
AcDb2dVertex
 10
3.06054
 20
7.4056
 30
0.0
 40
0.0104167
 41
0.0104167
 70
0
  0
VERTEX
  5
186
330
11F
100
AcDbEntity
  8
0
100
AcDbVertex
100
AcDb2dVertex
 10
3.06179
 20
7.41183
 30
0.0
 40
0.0104167
 41
0.0104167
 70
0
  0
VERTEX
  5
187
330
11F
100
AcDbEntity
  8
0
100
AcDbVertex
100
AcDb2dVertex
 10
3.06299
 20
7.41808
 30
0.0
 40
0.0104167
 41
0.0104167
 70
0
  0
VERTEX
  5
188
330
11F
100
AcDbEntity
  8
0
100
AcDbVertex
100
AcDb2dVertex
 10
3.07844
 20
7.4796
 30
0.0
 40
0.0104167
 41
0.0104167
 70
0
  0
VERTEX
  5
189
330
11F
100
AcDbEntity
  8
0
100
AcDbVertex
100
AcDb2dVertex
 10
3.08029
 20
7.48568
 30
0.0
 40
0.0104167
 41
0.0104167
 70
0
  0
VERTEX
  5
18A
330
11F
100
AcDbEntity
  8
0
100
AcDbVertex
100
AcDb2dVertex
 10
3.08214
 20
7.49181
 30
0.0
 40
0.0104167
 41
0.0104167
 70
0
  0
VERTEX
  5
18B
330
11F
100
AcDbEntity
  8
0
100
AcDbVertex
100
AcDb2dVertex
 10
3.10351
 20
7.55154
 30
0.0
 40
0.0104167
 41
0.0104167
 70
0
  0
VERTEX
  5
18C
330
11F
100
AcDbEntity
  8
0
100
AcDbVertex
100
AcDb2dVertex
 10
3.10596
 20
7.5574
 30
0.0
 40
0.0104167
 41
0.0104167
 70
0
  0
VERTEX
  5
18D
330
11F
100
AcDbEntity
  8
0
100
AcDbVertex
100
AcDb2dVertex
 10
3.10835
 20
7.56332
 30
0.0
 40
0.0104167
 41
0.0104167
 70
0
  0
VERTEX
  5
18E
330
11F
100
AcDbEntity
  8
0
100
AcDbVertex
100
AcDb2dVertex
 10
3.13547
 20
7.62067
 30
0.0
 40
0.0104167
 41
0.0104167
 70
0
  0
VERTEX
  5
18F
330
11F
100
AcDbEntity
  8
0
100
AcDbVertex
100
AcDb2dVertex
 10
3.13851
 20
7.62625
 30
0.0
 40
0.0104167
 41
0.0104167
 70
0
  0
VERTEX
  5
190
330
11F
100
AcDbEntity
  8
0
100
AcDbVertex
100
AcDb2dVertex
 10
3.1415
 20
7.63189
 30
0.0
 40
0.0104167
 41
0.0104167
 70
0
  0
VERTEX
  5
191
330
11F
100
AcDbEntity
  8
0
100
AcDbVertex
100
AcDb2dVertex
 10
3.1741
 20
7.68631
 30
0.0
 40
0.0104167
 41
0.0104167
 70
0
  0
VERTEX
  5
192
330
11F
100
AcDbEntity
  8
0
100
AcDbVertex
100
AcDb2dVertex
 10
3.17768
 20
7.69157
 30
0.0
 40
0.0104167
 41
0.0104167
 70
0
  0
VERTEX
  5
193
330
11F
100
AcDbEntity
  8
0
100
AcDbVertex
100
AcDb2dVertex
 10
3.18121
 20
7.69689
 30
0.0
 40
0.0104167
 41
0.0104167
 70
0
  0
VERTEX
  5
194
330
11F
100
AcDbEntity
  8
0
100
AcDbVertex
100
AcDb2dVertex
 10
3.21897
 20
7.74783
 30
0.0
 40
0.0104167
 41
0.0104167
 70
0
  0
VERTEX
  5
195
330
11F
100
AcDbEntity
  8
0
100
AcDbVertex
100
AcDb2dVertex
 10
3.22304
 20
7.75271
 30
0.0
 40
0.0104167
 41
0.0104167
 70
0
  0
VERTEX
  5
196
330
11F
100
AcDbEntity
  8
0
100
AcDbVertex
100
AcDb2dVertex
 10
3.22706
 20
7.75765
 30
0.0
 40
0.0104167
 41
0.0104167
 70
0
  0
VERTEX
  5
197
330
11F
100
AcDbEntity
  8
0
100
AcDbVertex
100
AcDb2dVertex
 10
3.26969
 20
7.80469
 30
0.0
 40
0.0104167
 41
0.0104167
 70
0
  0
VERTEX
  5
198
330
11F
100
AcDbEntity
  8
0
100
AcDbVertex
100
AcDb2dVertex
 10
3.27419
 20
7.80914
 30
0.0
 40
0.0104167
 41
0.0104167
 70
0
  0
VERTEX
  5
199
330
11F
100
AcDbEntity
  8
0
100
AcDbVertex
100
AcDb2dVertex
 10
3.27865
 20
7.81364
 30
0.0
 40
0.0104167
 41
0.0104167
 70
0
  0
VERTEX
  5
19A
330
11F
100
AcDbEntity
  8
0
100
AcDbVertex
100
AcDb2dVertex
 10
3.32568
 20
7.85628
 30
0.0
 40
0.0104167
 41
0.0104167
 70
0
  0
VERTEX
  5
19B
330
11F
100
AcDbEntity
  8
0
100
AcDbVertex
100
AcDb2dVertex
 10
3.33062
 20
7.86029
 30
0.0
 40
0.0104167
 41
0.0104167
 70
0
  0
VERTEX
  5
19C
330
11F
100
AcDbEntity
  8
0
100
AcDbVertex
100
AcDb2dVertex
 10
3.3355
 20
7.86436
 30
0.0
 40
0.0104167
 41
0.0104167
 70
0
  0
VERTEX
  5
19D
330
11F
100
AcDbEntity
  8
0
100
AcDbVertex
100
AcDb2dVertex
 10
3.38644
 20
7.90213
 30
0.0
 40
0.0104167
 41
0.0104167
 70
0
  0
VERTEX
  5
19E
330
11F
100
AcDbEntity
  8
0
100
AcDbVertex
100
AcDb2dVertex
 10
3.39176
 20
7.90565
 30
0.0
 40
0.0104167
 41
0.0104167
 70
0
  0
VERTEX
  5
19F
330
11F
100
AcDbEntity
  8
0
100
AcDbVertex
100
AcDb2dVertex
 10
3.39703
 20
7.90924
 30
0.0
 40
0.0104167
 41
0.0104167
 70
0
  0
VERTEX
  5
1A0
330
11F
100
AcDbEntity
  8
0
100
AcDbVertex
100
AcDb2dVertex
 10
3.45144
 20
7.94185
 30
0.0
 40
0.0104167
 41
0.0104167
 70
0
  0
VERTEX
  5
1A1
330
11F
100
AcDbEntity
  8
0
100
AcDbVertex
100
AcDb2dVertex
 10
3.45708
 20
7.94482
 30
0.0
 40
0.0104167
 41
0.0104167
 70
0
  0
VERTEX
  5
1A2
330
11F
100
AcDbEntity
  8
0
100
AcDbVertex
100
AcDb2dVertex
 10
3.46268
 20
7.94786
 30
0.0
 40
0.0104167
 41
0.0104167
 70
0
  0
VERTEX
  5
1A3
330
11F
100
AcDbEntity
  8
0
100
AcDbVertex
100
AcDb2dVertex
 10
3.52001
 20
7.97499
 30
0.0
 40
0.0104167
 41
0.0104167
 70
0
  0
VERTEX
  5
1A4
330
11F
100
AcDbEntity
  8
0
100
AcDbVertex
100
AcDb2dVertex
 10
3.52593
 20
7.97737
 30
0.0
 40
0.0104167
 41
0.0104167
 70
0
  0
VERTEX
  5
1A5
330
11F
100
AcDbEntity
  8
0
100
AcDbVertex
100
AcDb2dVertex
 10
3.53179
 20
7.97982
 30
0.0
 40
0.0104167
 41
0.0104167
 70
0
  0
VERTEX
  5
1A6
330
11F
100
AcDbEntity
  8
0
100
AcDbVertex
100
AcDb2dVertex
 10
3.59153
 20
8.00119
 30
0.0
 40
0.0104167
 41
0.0104167
 70
0
  0
VERTEX
  5
1A7
330
11F
100
AcDbEntity
  8
0
100
AcDbVertex
100
AcDb2dVertex
 10
3.59765
 20
8.00304
 30
0.0
 40
0.0104167
 41
0.0104167
 70
0
  0
VERTEX
  5
1A8
330
11F
100
AcDbEntity
  8
0
100
AcDbVertex
100
AcDb2dVertex
 10
3.60374
 20
8.00489
 30
0.0
 40
0.0104167
 41
0.0104167
 70
0
  0
VERTEX
  5
1A9
330
11F
100
AcDbEntity
  8
0
100
AcDbVertex
100
AcDb2dVertex
 10
3.66525
 20
8.02035
 30
0.0
 40
0.0104167
 41
0.0104167
 70
0
  0
VERTEX
  5
1AA
330
11F
100
AcDbEntity
  8
0
100
AcDbVertex
100
AcDb2dVertex
 10
3.6715
 20
8.02154
 30
0.0
 40
0.0104167
 41
0.0104167
 70
0
  0
VERTEX
  5
1AB
330
11F
100
AcDbEntity
  8
0
100
AcDbVertex
100
AcDb2dVertex
 10
3.67774
 20
8.02279
 30
0.0
 40
0.0104167
 41
0.0104167
 70
0
  0
VERTEX
  5
1AC
330
11F
100
AcDbEntity
  8
0
100
AcDbVertex
100
AcDb2dVertex
 10
3.7405
 20
8.03212
 30
0.0
 40
0.0104167
 41
0.0104167
 70
0
  0
VERTEX
  5
1AD
330
11F
100
AcDbEntity
  8
0
100
AcDbVertex
100
AcDb2dVertex
 10
3.74685
 20
8.03271
 30
0.0
 40
0.0104167
 41
0.0104167
 70
0
  0
VERTEX
  5
1AE
330
11F
100
AcDbEntity
  8
0
100
AcDbVertex
100
AcDb2dVertex
 10
3.75315
 20
8.03336
 30
0.0
 40
0.0104167
 41
0.0104167
 70
0
  0
VERTEX
  5
1AF
330
11F
100
AcDbEntity
  8
0
100
AcDbVertex
100
AcDb2dVertex
 10
3.80544
 20
8.03646
 30
0.0
 40
0.0104167
 41
0.0104167
 70
0
  0
VERTEX
  5
1B0
330
11F
100
AcDbEntity
  8
0
100
AcDbVertex
100
AcDb2dVertex
 10
3.82292
 20
8.03646
 30
0.0
 40
0.0104167
 41
0.0104167
 70
0
  0
VERTEX
  5
1B1
330
11F
100
AcDbEntity
  8
0
100
AcDbVertex
100
AcDb2dVertex
 10
3.8419
 20
8.03646
 30
0.0
 40
0.0104167
 41
0.0104167
 70
0
  0
VERTEX
  5
1B2
330
11F
100
AcDbEntity
  8
0
100
AcDbVertex
100
AcDb2dVertex
 10
3.89264
 20
8.03336
 30
0.0
 40
0.0104167
 41
0.0104167
 70
0
  0
VERTEX
  5
1B3
330
11F
100
AcDbEntity
  8
0
100
AcDbVertex
100
AcDb2dVertex
 10
3.89899
 20
8.03271
 30
0.0
 40
0.0104167
 41
0.0104167
 70
0
  0
VERTEX
  5
1B4
330
11F
100
AcDbEntity
  8
0
100
AcDbVertex
100
AcDb2dVertex
 10
3.90528
 20
8.03212
 30
0.0
 40
0.0104167
 41
0.0104167
 70
0
  0
VERTEX
  5
1B5
330
11F
100
AcDbEntity
  8
0
100
AcDbVertex
100
AcDb2dVertex
 10
3.9681
 20
8.02279
 30
0.0
 40
0.0104167
 41
0.0104167
 70
0
  0
VERTEX
  5
1B6
330
11F
100
AcDbEntity
  8
0
100
AcDbVertex
100
AcDb2dVertex
 10
3.97433
 20
8.02154
 30
0.0
 40
0.0104167
 41
0.0104167
 70
0
  0
VERTEX
  5
1B7
330
11F
100
AcDbEntity
  8
0
100
AcDbVertex
100
AcDb2dVertex
 10
3.98053
 20
8.02035
 30
0.0
 40
0.0104167
 41
0.0104167
 70
0
  0
VERTEX
  5
1B8
330
11F
100
AcDbEntity
  8
0
100
AcDbVertex
100
AcDb2dVertex
 10
4.0421
 20
8.00489
 30
0.0
 40
0.0104167
 41
0.0104167
 70
0
  0
VERTEX
  5
1B9
330
11F
100
AcDbEntity
  8
0
100
AcDbVertex
100
AcDb2dVertex
 10
4.04818
 20
8.00304
 30
0.0
 40
0.0104167
 41
0.0104167
 70
0
  0
VERTEX
  5
1BA
330
11F
100
AcDbEntity
  8
0
100
AcDbVertex
100
AcDb2dVertex
 10
4.05425
 20
8.00119
 30
0.0
 40
0.0104167
 41
0.0104167
 70
0
  0
VERTEX
  5
1BB
330
11F
100
AcDbEntity
  8
0
100
AcDbVertex
100
AcDb2dVertex
 10
4.11399
 20
7.97982
 30
0.0
 40
0.0104167
 41
0.0104167
 70
0
  0
VERTEX
  5
1BC
330
11F
100
AcDbEntity
  8
0
100
AcDbVertex
100
AcDb2dVertex
 10
4.1199
 20
7.97737
 30
0.0
 40
0.0104167
 41
0.0104167
 70
0
  0
VERTEX
  5
1BD
330
11F
100
AcDbEntity
  8
0
100
AcDbVertex
100
AcDb2dVertex
 10
4.12576
 20
7.97499
 30
0.0
 40
0.0104167
 41
0.0104167
 70
0
  0
VERTEX
  5
1BE
330
11F
100
AcDbEntity
  8
0
100
AcDbVertex
100
AcDb2dVertex
 10
4.18311
 20
7.94786
 30
0.0
 40
0.0104167
 41
0.0104167
 70
0
  0
VERTEX
  5
1BF
330
11F
100
AcDbEntity
  8
0
100
AcDbVertex
100
AcDb2dVertex
 10
4.18875
 20
7.94482
 30
0.0
 40
0.0104167
 41
0.0104167
 70
0
  0
VERTEX
  5
1C0
330
11F
100
AcDbEntity
  8
0
100
AcDbVertex
100
AcDb2dVertex
 10
4.19433
 20
7.94185
 30
0.0
 40
0.0104167
 41
0.0104167
 70
0
  0
VERTEX
  5
1C1
330
11F
100
AcDbEntity
  8
0
100
AcDbVertex
100
AcDb2dVertex
 10
4.24875
 20
7.90924
 30
0.0
 40
0.0104167
 41
0.0104167
 70
0
  0
VERTEX
  5
1C2
330
11F
100
AcDbEntity
  8
0
100
AcDbVertex
100
AcDb2dVertex
 10
4.25407
 20
7.90565
 30
0.0
 40
0.0104167
 41
0.0104167
 70
0
  0
VERTEX
  5
1C3
330
11F
100
AcDbEntity
  8
0
100
AcDbVertex
100
AcDb2dVertex
 10
4.25933
 20
7.90213
 30
0.0
 40
0.0104167
 41
0.0104167
 70
0
  0
VERTEX
  5
1C4
330
11F
100
AcDbEntity
  8
0
100
AcDbVertex
100
AcDb2dVertex
 10
4.31028
 20
7.86436
 30
0.0
 40
0.0104167
 41
0.0104167
 70
0
  0
VERTEX
  5
1C5
330
11F
100
AcDbEntity
  8
0
100
AcDbVertex
100
AcDb2dVertex
 10
4.31521
 20
7.86029
 30
0.0
 40
0.0104167
 41
0.0104167
 70
0
  0
VERTEX
  5
1C6
330
11F
100
AcDbEntity
  8
0
100
AcDbVertex
100
AcDb2dVertex
 10
4.3201
 20
7.85628
 30
0.0
 40
0.0104167
 41
0.0104167
 70
0
  0
VERTEX
  5
1C7
330
11F
100
AcDbEntity
  8
0
100
AcDbVertex
100
AcDb2dVertex
 10
4.36714
 20
7.81364
 30
0.0
 40
0.0104167
 41
0.0104167
 70
0
  0
VERTEX
  5
1C8
330
11F
100
AcDbEntity
  8
0
100
AcDbVertex
100
AcDb2dVertex
 10
4.37164
 20
7.80914
 30
0.0
 40
0.0104167
 41
0.0104167
 70
0
  0
VERTEX
  5
1C9
330
11F
100
AcDbEntity
  8
0
100
AcDbVertex
100
AcDb2dVertex
 10
4.37614
 20
7.80469
 30
0.0
 40
0.0104167
 41
0.0104167
 70
0
  0
VERTEX
  5
1CA
330
11F
100
AcDbEntity
  8
0
100
AcDbVertex
100
AcDb2dVertex
 10
4.41872
 20
7.75765
 30
0.0
 40
0.0104167
 41
0.0104167
 70
0
  0
VERTEX
  5
1CB
330
11F
100
AcDbEntity
  8
0
100
AcDbVertex
100
AcDb2dVertex
 10
4.42279
 20
7.75271
 30
0.0
 40
0.0104167
 41
0.0104167
 70
0
  0
VERTEX
  5
1CC
330
11F
100
AcDbEntity
  8
0
100
AcDbVertex
100
AcDb2dVertex
 10
4.42681
 20
7.74783
 30
0.0
 40
0.0104167
 41
0.0104167
 70
0
  0
VERTEX
  5
1CD
330
11F
100
AcDbEntity
  8
0
100
AcDbVertex
100
AcDb2dVertex
 10
4.46463
 20
7.69689
 30
0.0
 40
0.0104167
 41
0.0104167
 70
0
  0
VERTEX
  5
1CE
330
11F
100
AcDbEntity
  8
0
100
AcDbVertex
100
AcDb2dVertex
 10
4.46815
 20
7.69157
 30
0.0
 40
0.0104167
 41
0.0104167
 70
0
  0
VERTEX
  5
1CF
330
11F
100
AcDbEntity
  8
0
100
AcDbVertex
100
AcDb2dVertex
 10
4.47168
 20
7.68631
 30
0.0
 40
0.0104167
 41
0.0104167
 70
0
  0
VERTEX
  5
1D0
330
11F
100
AcDbEntity
  8
0
100
AcDbVertex
100
AcDb2dVertex
 10
4.50429
 20
7.63189
 30
0.0
 40
0.0104167
 41
0.0104167
 70
0
  0
VERTEX
  5
1D1
330
11F
100
AcDbEntity
  8
0
100
AcDbVertex
100
AcDb2dVertex
 10
4.50732
 20
7.62625
 30
0.0
 40
0.0104167
 41
0.0104167
 70
0
  0
VERTEX
  5
1D2
330
11F
100
AcDbEntity
  8
0
100
AcDbVertex
100
AcDb2dVertex
 10
4.51031
 20
7.62067
 30
0.0
 40
0.0104167
 41
0.0104167
 70
0
  0
VERTEX
  5
1D3
330
11F
100
AcDbEntity
  8
0
100
AcDbVertex
100
AcDb2dVertex
 10
4.53743
 20
7.56332
 30
0.0
 40
0.0104167
 41
0.0104167
 70
0
  0
VERTEX
  5
1D4
330
11F
100
AcDbEntity
  8
0
100
AcDbVertex
100
AcDb2dVertex
 10
4.53988
 20
7.5574
 30
0.0
 40
0.0104167
 41
0.0104167
 70
0
  0
VERTEX
  5
1D5
330
11F
100
AcDbEntity
  8
0
100
AcDbVertex
100
AcDb2dVertex
 10
4.54226
 20
7.55154
 30
0.0
 40
0.0104167
 41
0.0104167
 70
0
  0
VERTEX
  5
1D6
330
11F
100
AcDbEntity
  8
0
100
AcDbVertex
100
AcDb2dVertex
 10
4.56369
 20
7.49181
 30
0.0
 40
0.0104167
 41
0.0104167
 70
0
  0
VERTEX
  5
1D7
330
11F
100
AcDbEntity
  8
0
100
AcDbVertex
100
AcDb2dVertex
 10
4.56554
 20
7.48568
 30
0.0
 40
0.0104167
 41
0.0104167
 70
0
  0
VERTEX
  5
1D8
330
11F
100
AcDbEntity
  8
0
100
AcDbVertex
100
AcDb2dVertex
 10
4.56739
 20
7.4796
 30
0.0
 40
0.0104167
 41
0.0104167
 70
0
  0
VERTEX
  5
1D9
330
11F
100
AcDbEntity
  8
0
100
AcDbVertex
100
AcDb2dVertex
 10
4.58279
 20
7.41808
 30
0.0
 40
0.0104167
 41
0.0104167
 70
0
  0
VERTEX
  5
1DA
330
11F
100
AcDbEntity
  8
0
100
AcDbVertex
100
AcDb2dVertex
 10
4.58404
 20
7.41183
 30
0.0
 40
0.0104167
 41
0.0104167
 70
0
  0
VERTEX
  5
1DB
330
11F
100
AcDbEntity
  8
0
100
AcDbVertex
100
AcDb2dVertex
 10
4.58529
 20
7.4056
 30
0.0
 40
0.0104167
 41
0.0104167
 70
0
  0
VERTEX
  5
1DC
330
11F
100
AcDbEntity
  8
0
100
AcDbVertex
100
AcDb2dVertex
 10
4.59457
 20
7.34283
 30
0.0
 40
0.0104167
 41
0.0104167
 70
0
  0
VERTEX
  5
1DD
330
11F
100
AcDbEntity
  8
0
100
AcDbVertex
100
AcDb2dVertex
 10
4.59521
 20
7.33649
 30
0.0
 40
0.0104167
 41
0.0104167
 70
0
  0
VERTEX
  5
1DE
330
11F
100
AcDbEntity
  8
0
100
AcDbVertex
100
AcDb2dVertex
 10
4.59581
 20
7.33018
 30
0.0
 40
0.0104167
 41
0.0104167
 70
0
  0
VERTEX
  5
1DF
330
11F
100
AcDbEntity
  8
0
100
AcDbVertex
100
AcDb2dVertex
 10
4.59896
 20
7.27789
 30
0.0
 40
0.0104167
 41
0.0104167
 70
0
  0
VERTEX
  5
1E0
330
11F
100
AcDbEntity
  8
0
100
AcDbVertex
100
AcDb2dVertex
 10
4.59896
 20
7.26042
 30
0.0
 40
0.0104167
 41
0.0104167
 70
0
  0
SEQEND
  5
1E1
330
11F
100
AcDbEntity
  8
0
  0
POLYLINE
  5
1E2
330
2F
100
AcDbEntity
  8
0
 62
254
100
AcDb2dPolyline
 66
1
 10
0.0
 20
0.0
 30
0.0
 70
1
 40
0.75
 41
0.75
  0
VERTEX
  5
1E3
330
1E2
100
AcDbEntity
  8
0
100
AcDbVertex
100
AcDb2dVertex
 10
6.16146
 20
7.26042
 30
0.0
 40
0.0104167
 41
0.0104167
 70
0
  0
VERTEX
  5
1E4
330
1E2
100
AcDbEntity
  8
0
100
AcDbVertex
100
AcDb2dVertex
 10
6.16146
 20
7.24143
 30
0.0
 40
0.0104167
 41
0.0104167
 70
0
  0
VERTEX
  5
1E5
330
1E2
100
AcDbEntity
  8
0
100
AcDbVertex
100
AcDb2dVertex
 10
6.15831
 20
7.19069
 30
0.0
 40
0.0104167
 41
0.0104167
 70
0
  0
VERTEX
  5
1E6
330
1E2
100
AcDbEntity
  8
0
100
AcDbVertex
100
AcDb2dVertex
 10
6.15771
 20
7.18435
 30
0.0
 40
0.0104167
 41
0.0104167
 70
0
  0
VERTEX
  5
1E7
330
1E2
100
AcDbEntity
  8
0
100
AcDbVertex
100
AcDb2dVertex
 10
6.15707
 20
7.17806
 30
0.0
 40
0.0104167
 41
0.0104167
 70
0
  0
VERTEX
  5
1E8
330
1E2
100
AcDbEntity
  8
0
100
AcDbVertex
100
AcDb2dVertex
 10
6.14779
 20
7.11524
 30
0.0
 40
0.0104167
 41
0.0104167
 70
0
  0
VERTEX
  5
1E9
330
1E2
100
AcDbEntity
  8
0
100
AcDbVertex
100
AcDb2dVertex
 10
6.14654
 20
7.109
 30
0.0
 40
0.0104167
 41
0.0104167
 70
0
  0
VERTEX
  5
1EA
330
1E2
100
AcDbEntity
  8
0
100
AcDbVertex
100
AcDb2dVertex
 10
6.14529
 20
7.10281
 30
0.0
 40
0.0104167
 41
0.0104167
 70
0
  0
VERTEX
  5
1EB
330
1E2
100
AcDbEntity
  8
0
100
AcDbVertex
100
AcDb2dVertex
 10
6.12989
 20
7.04124
 30
0.0
 40
0.0104167
 41
0.0104167
 70
0
  0
VERTEX
  5
1EC
330
1E2
100
AcDbEntity
  8
0
100
AcDbVertex
100
AcDb2dVertex
 10
6.12804
 20
7.03515
 30
0.0
 40
0.0104167
 41
0.0104167
 70
0
  0
VERTEX
  5
1ED
330
1E2
100
AcDbEntity
  8
0
100
AcDbVertex
100
AcDb2dVertex
 10
6.12619
 20
7.02908
 30
0.0
 40
0.0104167
 41
0.0104167
 70
0
  0
VERTEX
  5
1EE
330
1E2
100
AcDbEntity
  8
0
100
AcDbVertex
100
AcDb2dVertex
 10
6.10476
 20
6.96935
 30
0.0
 40
0.0104167
 41
0.0104167
 70
0
  0
VERTEX
  5
1EF
330
1E2
100
AcDbEntity
  8
0
100
AcDbVertex
100
AcDb2dVertex
 10
6.10238
 20
6.96343
 30
0.0
 40
0.0104167
 41
0.0104167
 70
0
  0
VERTEX
  5
1F0
330
1E2
100
AcDbEntity
  8
0
100
AcDbVertex
100
AcDb2dVertex
 10
6.09993
 20
6.95757
 30
0.0
 40
0.0104167
 41
0.0104167
 70
0
  0
VERTEX
  5
1F1
330
1E2
100
AcDbEntity
  8
0
100
AcDbVertex
100
AcDb2dVertex
 10
6.07281
 20
6.90022
 30
0.0
 40
0.0104167
 41
0.0104167
 70
0
  0
VERTEX
  5
1F2
330
1E2
100
AcDbEntity
  8
0
100
AcDbVertex
100
AcDb2dVertex
 10
6.06982
 20
6.89458
 30
0.0
 40
0.0104167
 41
0.0104167
 70
0
  0
VERTEX
  5
1F3
330
1E2
100
AcDbEntity
  8
0
100
AcDbVertex
100
AcDb2dVertex
 10
6.06679
 20
6.889
 30
0.0
 40
0.0104167
 41
0.0104167
 70
0
  0
VERTEX
  5
1F4
330
1E2
100
AcDbEntity
  8
0
100
AcDbVertex
100
AcDb2dVertex
 10
6.03418
 20
6.83458
 30
0.0
 40
0.0104167
 41
0.0104167
 70
0
  0
VERTEX
  5
1F5
330
1E2
100
AcDbEntity
  8
0
100
AcDbVertex
100
AcDb2dVertex
 10
6.03065
 20
6.82926
 30
0.0
 40
0.0104167
 41
0.0104167
 70
0
  0
VERTEX
  5
1F6
330
1E2
100
AcDbEntity
  8
0
100
AcDbVertex
100
AcDb2dVertex
 10
6.02713
 20
6.824
 30
0.0
 40
0.0104167
 41
0.0104167
 70
0
  0
VERTEX
  5
1F7
330
1E2
100
AcDbEntity
  8
0
100
AcDbVertex
100
AcDb2dVertex
 10
5.98931
 20
6.77306
 30
0.0
 40
0.0104167
 41
0.0104167
 70
0
  0
VERTEX
  5
1F8
330
1E2
100
AcDbEntity
  8
0
100
AcDbVertex
100
AcDb2dVertex
 10
5.98529
 20
6.76812
 30
0.0
 40
0.0104167
 41
0.0104167
 70
0
  0
VERTEX
  5
1F9
330
1E2
100
AcDbEntity
  8
0
100
AcDbVertex
100
AcDb2dVertex
 10
5.98122
 20
6.76324
 30
0.0
 40
0.0104167
 41
0.0104167
 70
0
  0
VERTEX
  5
1FA
330
1E2
100
AcDbEntity
  8
0
100
AcDbVertex
100
AcDb2dVertex
 10
5.93864
 20
6.71619
 30
0.0
 40
0.0104167
 41
0.0104167
 70
0
  0
VERTEX
  5
1FB
330
1E2
100
AcDbEntity
  8
0
100
AcDbVertex
100
AcDb2dVertex
 10
5.93414
 20
6.71169
 30
0.0
 40
0.0104167
 41
0.0104167
 70
0
  0
VERTEX
  5
1FC
330
1E2
100
AcDbEntity
  8
0
100
AcDbVertex
100
AcDb2dVertex
 10
5.92964
 20
6.70719
 30
0.0
 40
0.0104167
 41
0.0104167
 70
0
  0
VERTEX
  5
1FD
330
1E2
100
AcDbEntity
  8
0
100
AcDbVertex
100
AcDb2dVertex
 10
5.8826
 20
6.66461
 30
0.0
 40
0.0104167
 41
0.0104167
 70
0
  0
VERTEX
  5
1FE
330
1E2
100
AcDbEntity
  8
0
100
AcDbVertex
100
AcDb2dVertex
 10
5.87771
 20
6.66054
 30
0.0
 40
0.0104167
 41
0.0104167
 70
0
  0
VERTEX
  5
1FF
330
1E2
100
AcDbEntity
  8
0
100
AcDbVertex
100
AcDb2dVertex
 10
5.87278
 20
6.65653
 30
0.0
 40
0.0104167
 41
0.0104167
 70
0
  0
VERTEX
  5
200
330
1E2
100
AcDbEntity
  8
0
100
AcDbVertex
100
AcDb2dVertex
 10
5.82183
 20
6.61871
 30
0.0
 40
0.0104167
 41
0.0104167
 70
0
  0
VERTEX
  5
201
330
1E2
100
AcDbEntity
  8
0
100
AcDbVertex
100
AcDb2dVertex
 10
5.81657
 20
6.61518
 30
0.0
 40
0.0104167
 41
0.0104167
 70
0
  0
VERTEX
  5
202
330
1E2
100
AcDbEntity
  8
0
100
AcDbVertex
100
AcDb2dVertex
 10
5.81125
 20
6.61165
 30
0.0
 40
0.0104167
 41
0.0104167
 70
0
  0
VERTEX
  5
203
330
1E2
100
AcDbEntity
  8
0
100
AcDbVertex
100
AcDb2dVertex
 10
5.75683
 20
6.57904
 30
0.0
 40
0.0104167
 41
0.0104167
 70
0
  0
VERTEX
  5
204
330
1E2
100
AcDbEntity
  8
0
100
AcDbVertex
100
AcDb2dVertex
 10
5.75125
 20
6.57601
 30
0.0
 40
0.0104167
 41
0.0104167
 70
0
  0
VERTEX
  5
205
330
1E2
100
AcDbEntity
  8
0
100
AcDbVertex
100
AcDb2dVertex
 10
5.74561
 20
6.57303
 30
0.0
 40
0.0104167
 41
0.0104167
 70
0
  0
VERTEX
  5
206
330
1E2
100
AcDbEntity
  8
0
100
AcDbVertex
100
AcDb2dVertex
 10
5.68826
 20
6.5459
 30
0.0
 40
0.0104167
 41
0.0104167
 70
0
  0
VERTEX
  5
207
330
1E2
100
AcDbEntity
  8
0
100
AcDbVertex
100
AcDb2dVertex
 10
5.6824
 20
6.54346
 30
0.0
 40
0.0104167
 41
0.0104167
 70
0
  0
VERTEX
  5
208
330
1E2
100
AcDbEntity
  8
0
100
AcDbVertex
100
AcDb2dVertex
 10
5.67649
 20
6.54107
 30
0.0
 40
0.0104167
 41
0.0104167
 70
0
  0
VERTEX
  5
209
330
1E2
100
AcDbEntity
  8
0
100
AcDbVertex
100
AcDb2dVertex
 10
5.61675
 20
6.51964
 30
0.0
 40
0.0104167
 41
0.0104167
 70
0
  0
VERTEX
  5
20A
330
1E2
100
AcDbEntity
  8
0
100
AcDbVertex
100
AcDb2dVertex
 10
5.61068
 20
6.51779
 30
0.0
 40
0.0104167
 41
0.0104167
 70
0
  0
VERTEX
  5
20B
330
1E2
100
AcDbEntity
  8
0
100
AcDbVertex
100
AcDb2dVertex
 10
5.6046
 20
6.51594
 30
0.0
 40
0.0104167
 41
0.0104167
 70
0
  0
VERTEX
  5
20C
330
1E2
100
AcDbEntity
  8
0
100
AcDbVertex
100
AcDb2dVertex
 10
5.54303
 20
6.50054
 30
0.0
 40
0.0104167
 41
0.0104167
 70
0
  0
VERTEX
  5
20D
330
1E2
100
AcDbEntity
  8
0
100
AcDbVertex
100
AcDb2dVertex
 10
5.53683
 20
6.49929
 30
0.0
 40
0.0104167
 41
0.0104167
 70
0
  0
VERTEX
  5
20E
330
1E2
100
AcDbEntity
  8
0
100
AcDbVertex
100
AcDb2dVertex
 10
5.5306
 20
6.49804
 30
0.0
 40
0.0104167
 41
0.0104167
 70
0
  0
VERTEX
  5
20F
330
1E2
100
AcDbEntity
  8
0
100
AcDbVertex
100
AcDb2dVertex
 10
5.46778
 20
6.48876
 30
0.0
 40
0.0104167
 41
0.0104167
 70
0
  0
VERTEX
  5
210
330
1E2
100
AcDbEntity
  8
0
100
AcDbVertex
100
AcDb2dVertex
 10
5.46149
 20
6.48812
 30
0.0
 40
0.0104167
 41
0.0104167
 70
0
  0
VERTEX
  5
211
330
1E2
100
AcDbEntity
  8
0
100
AcDbVertex
100
AcDb2dVertex
 10
5.45514
 20
6.48753
 30
0.0
 40
0.0104167
 41
0.0104167
 70
0
  0
VERTEX
  5
212
330
1E2
100
AcDbEntity
  8
0
100
AcDbVertex
100
AcDb2dVertex
 10
5.40283
 20
6.48438
 30
0.0
 40
0.0104167
 41
0.0104167
 70
0
  0
VERTEX
  5
213
330
1E2
100
AcDbEntity
  8
0
100
AcDbVertex
100
AcDb2dVertex
 10
5.38542
 20
6.48438
 30
0.0
 40
0.0104167
 41
0.0104167
 70
0
  0
VERTEX
  5
214
330
1E2
100
AcDbEntity
  8
0
100
AcDbVertex
100
AcDb2dVertex
 10
5.36638
 20
6.48438
 30
0.0
 40
0.0104167
 41
0.0104167
 70
0
  0
VERTEX
  5
215
330
1E2
100
AcDbEntity
  8
0
100
AcDbVertex
100
AcDb2dVertex
 10
5.31565
 20
6.48753
 30
0.0
 40
0.0104167
 41
0.0104167
 70
0
  0
VERTEX
  5
216
330
1E2
100
AcDbEntity
  8
0
100
AcDbVertex
100
AcDb2dVertex
 10
5.30935
 20
6.48812
 30
0.0
 40
0.0104167
 41
0.0104167
 70
0
  0
VERTEX
  5
217
330
1E2
100
AcDbEntity
  8
0
100
AcDbVertex
100
AcDb2dVertex
 10
5.303
 20
6.48876
 30
0.0
 40
0.0104167
 41
0.0104167
 70
0
  0
VERTEX
  5
218
330
1E2
100
AcDbEntity
  8
0
100
AcDbVertex
100
AcDb2dVertex
 10
5.24024
 20
6.49804
 30
0.0
 40
0.0104167
 41
0.0104167
 70
0
  0
VERTEX
  5
219
330
1E2
100
AcDbEntity
  8
0
100
AcDbVertex
100
AcDb2dVertex
 10
5.234
 20
6.49929
 30
0.0
 40
0.0104167
 41
0.0104167
 70
0
  0
VERTEX
  5
21A
330
1E2
100
AcDbEntity
  8
0
100
AcDbVertex
100
AcDb2dVertex
 10
5.22775
 20
6.50054
 30
0.0
 40
0.0104167
 41
0.0104167
 70
0
  0
VERTEX
  5
21B
330
1E2
100
AcDbEntity
  8
0
100
AcDbVertex
100
AcDb2dVertex
 10
5.16624
 20
6.51594
 30
0.0
 40
0.0104167
 41
0.0104167
 70
0
  0
VERTEX
  5
21C
330
1E2
100
AcDbEntity
  8
0
100
AcDbVertex
100
AcDb2dVertex
 10
5.16015
 20
6.51779
 30
0.0
 40
0.0104167
 41
0.0104167
 70
0
  0
VERTEX
  5
21D
330
1E2
100
AcDbEntity
  8
0
100
AcDbVertex
100
AcDb2dVertex
 10
5.15403
 20
6.51964
 30
0.0
 40
0.0104167
 41
0.0104167
 70
0
  0
VERTEX
  5
21E
330
1E2
100
AcDbEntity
  8
0
100
AcDbVertex
100
AcDb2dVertex
 10
5.09429
 20
6.54107
 30
0.0
 40
0.0104167
 41
0.0104167
 70
0
  0
VERTEX
  5
21F
330
1E2
100
AcDbEntity
  8
0
100
AcDbVertex
100
AcDb2dVertex
 10
5.08843
 20
6.54346
 30
0.0
 40
0.0104167
 41
0.0104167
 70
0
  0
VERTEX
  5
220
330
1E2
100
AcDbEntity
  8
0
100
AcDbVertex
100
AcDb2dVertex
 10
5.08251
 20
6.5459
 30
0.0
 40
0.0104167
 41
0.0104167
 70
0
  0
VERTEX
  5
221
330
1E2
100
AcDbEntity
  8
0
100
AcDbVertex
100
AcDb2dVertex
 10
5.02518
 20
6.57303
 30
0.0
 40
0.0104167
 41
0.0104167
 70
0
  0
VERTEX
  5
222
330
1E2
100
AcDbEntity
  8
0
100
AcDbVertex
100
AcDb2dVertex
 10
5.01958
 20
6.57601
 30
0.0
 40
0.0104167
 41
0.0104167
 70
0
  0
VERTEX
  5
223
330
1E2
100
AcDbEntity
  8
0
100
AcDbVertex
100
AcDb2dVertex
 10
5.01394
 20
6.57904
 30
0.0
 40
0.0104167
 41
0.0104167
 70
0
  0
VERTEX
  5
224
330
1E2
100
AcDbEntity
  8
0
100
AcDbVertex
100
AcDb2dVertex
 10
4.95953
 20
6.61165
 30
0.0
 40
0.0104167
 41
0.0104167
 70
0
  0
VERTEX
  5
225
330
1E2
100
AcDbEntity
  8
0
100
AcDbVertex
100
AcDb2dVertex
 10
4.95426
 20
6.61518
 30
0.0
 40
0.0104167
 41
0.0104167
 70
0
  0
VERTEX
  5
226
330
1E2
100
AcDbEntity
  8
0
100
AcDbVertex
100
AcDb2dVertex
 10
4.94894
 20
6.61871
 30
0.0
 40
0.0104167
 41
0.0104167
 70
0
  0
VERTEX
  5
227
330
1E2
100
AcDbEntity
  8
0
100
AcDbVertex
100
AcDb2dVertex
 10
4.898
 20
6.65653
 30
0.0
 40
0.0104167
 41
0.0104167
 70
0
  0
VERTEX
  5
228
330
1E2
100
AcDbEntity
  8
0
100
AcDbVertex
100
AcDb2dVertex
 10
4.89312
 20
6.66054
 30
0.0
 40
0.0104167
 41
0.0104167
 70
0
  0
VERTEX
  5
229
330
1E2
100
AcDbEntity
  8
0
100
AcDbVertex
100
AcDb2dVertex
 10
4.88818
 20
6.66461
 30
0.0
 40
0.0104167
 41
0.0104167
 70
0
  0
VERTEX
  5
22A
330
1E2
100
AcDbEntity
  8
0
100
AcDbVertex
100
AcDb2dVertex
 10
4.84115
 20
6.70719
 30
0.0
 40
0.0104167
 41
0.0104167
 70
0
  0
VERTEX
  5
22B
330
1E2
100
AcDbEntity
  8
0
100
AcDbVertex
100
AcDb2dVertex
 10
4.83669
 20
6.71169
 30
0.0
 40
0.0104167
 41
0.0104167
 70
0
  0
VERTEX
  5
22C
330
1E2
100
AcDbEntity
  8
0
100
AcDbVertex
100
AcDb2dVertex
 10
4.83219
 20
6.71619
 30
0.0
 40
0.0104167
 41
0.0104167
 70
0
  0
VERTEX
  5
22D
330
1E2
100
AcDbEntity
  8
0
100
AcDbVertex
100
AcDb2dVertex
 10
4.78956
 20
6.76324
 30
0.0
 40
0.0104167
 41
0.0104167
 70
0
  0
VERTEX
  5
22E
330
1E2
100
AcDbEntity
  8
0
100
AcDbVertex
100
AcDb2dVertex
 10
4.78554
 20
6.76812
 30
0.0
 40
0.0104167
 41
0.0104167
 70
0
  0
VERTEX
  5
22F
330
1E2
100
AcDbEntity
  8
0
100
AcDbVertex
100
AcDb2dVertex
 10
4.78147
 20
6.77306
 30
0.0
 40
0.0104167
 41
0.0104167
 70
0
  0
VERTEX
  5
230
330
1E2
100
AcDbEntity
  8
0
100
AcDbVertex
100
AcDb2dVertex
 10
4.74371
 20
6.824
 30
0.0
 40
0.0104167
 41
0.0104167
 70
0
  0
VERTEX
  5
231
330
1E2
100
AcDbEntity
  8
0
100
AcDbVertex
100
AcDb2dVertex
 10
4.74018
 20
6.82926
 30
0.0
 40
0.0104167
 41
0.0104167
 70
0
  0
VERTEX
  5
232
330
1E2
100
AcDbEntity
  8
0
100
AcDbVertex
100
AcDb2dVertex
 10
4.7366
 20
6.83458
 30
0.0
 40
0.0104167
 41
0.0104167
 70
0
  0
VERTEX
  5
233
330
1E2
100
AcDbEntity
  8
0
100
AcDbVertex
100
AcDb2dVertex
 10
4.704
 20
6.889
 30
0.0
 40
0.0104167
 41
0.0104167
 70
0
  0
VERTEX
  5
234
330
1E2
100
AcDbEntity
  8
0
100
AcDbVertex
100
AcDb2dVertex
 10
4.70101
 20
6.89458
 30
0.0
 40
0.0104167
 41
0.0104167
 70
0
  0
VERTEX
  5
235
330
1E2
100
AcDbEntity
  8
0
100
AcDbVertex
100
AcDb2dVertex
 10
4.69797
 20
6.90022
 30
0.0
 40
0.0104167
 41
0.0104167
 70
0
  0
VERTEX
  5
236
330
1E2
100
AcDbEntity
  8
0
100
AcDbVertex
100
AcDb2dVertex
 10
4.67085
 20
6.95757
 30
0.0
 40
0.0104167
 41
0.0104167
 70
0
  0
VERTEX
  5
237
330
1E2
100
AcDbEntity
  8
0
100
AcDbVertex
100
AcDb2dVertex
 10
4.66846
 20
6.96343
 30
0.0
 40
0.0104167
 41
0.0104167
 70
0
  0
VERTEX
  5
238
330
1E2
100
AcDbEntity
  8
0
100
AcDbVertex
100
AcDb2dVertex
 10
4.66601
 20
6.96935
 30
0.0
 40
0.0104167
 41
0.0104167
 70
0
  0
VERTEX
  5
239
330
1E2
100
AcDbEntity
  8
0
100
AcDbVertex
100
AcDb2dVertex
 10
4.64464
 20
7.02908
 30
0.0
 40
0.0104167
 41
0.0104167
 70
0
  0
VERTEX
  5
23A
330
1E2
100
AcDbEntity
  8
0
100
AcDbVertex
100
AcDb2dVertex
 10
4.64279
 20
7.03515
 30
0.0
 40
0.0104167
 41
0.0104167
 70
0
  0
VERTEX
  5
23B
330
1E2
100
AcDbEntity
  8
0
100
AcDbVertex
100
AcDb2dVertex
 10
4.64094
 20
7.04124
 30
0.0
 40
0.0104167
 41
0.0104167
 70
0
  0
VERTEX
  5
23C
330
1E2
100
AcDbEntity
  8
0
100
AcDbVertex
100
AcDb2dVertex
 10
4.62549
 20
7.10281
 30
0.0
 40
0.0104167
 41
0.0104167
 70
0
  0
VERTEX
  5
23D
330
1E2
100
AcDbEntity
  8
0
100
AcDbVertex
100
AcDb2dVertex
 10
4.62429
 20
7.109
 30
0.0
 40
0.0104167
 41
0.0104167
 70
0
  0
VERTEX
  5
23E
330
1E2
100
AcDbEntity
  8
0
100
AcDbVertex
100
AcDb2dVertex
 10
4.62304
 20
7.11524
 30
0.0
 40
0.0104167
 41
0.0104167
 70
0
  0
VERTEX
  5
23F
330
1E2
100
AcDbEntity
  8
0
100
AcDbVertex
100
AcDb2dVertex
 10
4.61372
 20
7.17806
 30
0.0
 40
0.0104167
 41
0.0104167
 70
0
  0
VERTEX
  5
240
330
1E2
100
AcDbEntity
  8
0
100
AcDbVertex
100
AcDb2dVertex
 10
4.61312
 20
7.18435
 30
0.0
 40
0.0104167
 41
0.0104167
 70
0
  0
VERTEX
  5
241
330
1E2
100
AcDbEntity
  8
0
100
AcDbVertex
100
AcDb2dVertex
 10
4.61247
 20
7.19069
 30
0.0
 40
0.0104167
 41
0.0104167
 70
0
  0
VERTEX
  5
242
330
1E2
100
AcDbEntity
  8
0
100
AcDbVertex
100
AcDb2dVertex
 10
4.60938
 20
7.243
 30
0.0
 40
0.0104167
 41
0.0104167
 70
0
  0
VERTEX
  5
243
330
1E2
100
AcDbEntity
  8
0
100
AcDbVertex
100
AcDb2dVertex
 10
4.60938
 20
7.26042
 30
0.0
 40
0.0104167
 41
0.0104167
 70
0
  0
VERTEX
  5
244
330
1E2
100
AcDbEntity
  8
0
100
AcDbVertex
100
AcDb2dVertex
 10
4.60938
 20
7.27946
 30
0.0
 40
0.0104167
 41
0.0104167
 70
0
  0
VERTEX
  5
245
330
1E2
100
AcDbEntity
  8
0
100
AcDbVertex
100
AcDb2dVertex
 10
4.61247
 20
7.33018
 30
0.0
 40
0.0104167
 41
0.0104167
 70
0
  0
VERTEX
  5
246
330
1E2
100
AcDbEntity
  8
0
100
AcDbVertex
100
AcDb2dVertex
 10
4.61312
 20
7.33649
 30
0.0
 40
0.0104167
 41
0.0104167
 70
0
  0
VERTEX
  5
247
330
1E2
100
AcDbEntity
  8
0
100
AcDbVertex
100
AcDb2dVertex
 10
4.61372
 20
7.34283
 30
0.0
 40
0.0104167
 41
0.0104167
 70
0
  0
VERTEX
  5
248
330
1E2
100
AcDbEntity
  8
0
100
AcDbVertex
100
AcDb2dVertex
 10
4.62304
 20
7.4056
 30
0.0
 40
0.0104167
 41
0.0104167
 70
0
  0
VERTEX
  5
249
330
1E2
100
AcDbEntity
  8
0
100
AcDbVertex
100
AcDb2dVertex
 10
4.62429
 20
7.41183
 30
0.0
 40
0.0104167
 41
0.0104167
 70
0
  0
VERTEX
  5
24A
330
1E2
100
AcDbEntity
  8
0
100
AcDbVertex
100
AcDb2dVertex
 10
4.62549
 20
7.41808
 30
0.0
 40
0.0104167
 41
0.0104167
 70
0
  0
VERTEX
  5
24B
330
1E2
100
AcDbEntity
  8
0
100
AcDbVertex
100
AcDb2dVertex
 10
4.64094
 20
7.4796
 30
0.0
 40
0.0104167
 41
0.0104167
 70
0
  0
VERTEX
  5
24C
330
1E2
100
AcDbEntity
  8
0
100
AcDbVertex
100
AcDb2dVertex
 10
4.64279
 20
7.48568
 30
0.0
 40
0.0104167
 41
0.0104167
 70
0
  0
VERTEX
  5
24D
330
1E2
100
AcDbEntity
  8
0
100
AcDbVertex
100
AcDb2dVertex
 10
4.64464
 20
7.49181
 30
0.0
 40
0.0104167
 41
0.0104167
 70
0
  0
VERTEX
  5
24E
330
1E2
100
AcDbEntity
  8
0
100
AcDbVertex
100
AcDb2dVertex
 10
4.66601
 20
7.55154
 30
0.0
 40
0.0104167
 41
0.0104167
 70
0
  0
VERTEX
  5
24F
330
1E2
100
AcDbEntity
  8
0
100
AcDbVertex
100
AcDb2dVertex
 10
4.66846
 20
7.5574
 30
0.0
 40
0.0104167
 41
0.0104167
 70
0
  0
VERTEX
  5
250
330
1E2
100
AcDbEntity
  8
0
100
AcDbVertex
100
AcDb2dVertex
 10
4.67085
 20
7.56332
 30
0.0
 40
0.0104167
 41
0.0104167
 70
0
  0
VERTEX
  5
251
330
1E2
100
AcDbEntity
  8
0
100
AcDbVertex
100
AcDb2dVertex
 10
4.69797
 20
7.62067
 30
0.0
 40
0.0104167
 41
0.0104167
 70
0
  0
VERTEX
  5
252
330
1E2
100
AcDbEntity
  8
0
100
AcDbVertex
100
AcDb2dVertex
 10
4.70101
 20
7.62625
 30
0.0
 40
0.0104167
 41
0.0104167
 70
0
  0
VERTEX
  5
253
330
1E2
100
AcDbEntity
  8
0
100
AcDbVertex
100
AcDb2dVertex
 10
4.704
 20
7.63189
 30
0.0
 40
0.0104167
 41
0.0104167
 70
0
  0
VERTEX
  5
254
330
1E2
100
AcDbEntity
  8
0
100
AcDbVertex
100
AcDb2dVertex
 10
4.7366
 20
7.68631
 30
0.0
 40
0.0104167
 41
0.0104167
 70
0
  0
VERTEX
  5
255
330
1E2
100
AcDbEntity
  8
0
100
AcDbVertex
100
AcDb2dVertex
 10
4.74018
 20
7.69157
 30
0.0
 40
0.0104167
 41
0.0104167
 70
0
  0
VERTEX
  5
256
330
1E2
100
AcDbEntity
  8
0
100
AcDbVertex
100
AcDb2dVertex
 10
4.74371
 20
7.69689
 30
0.0
 40
0.0104167
 41
0.0104167
 70
0
  0
VERTEX
  5
257
330
1E2
100
AcDbEntity
  8
0
100
AcDbVertex
100
AcDb2dVertex
 10
4.78147
 20
7.74783
 30
0.0
 40
0.0104167
 41
0.0104167
 70
0
  0
VERTEX
  5
258
330
1E2
100
AcDbEntity
  8
0
100
AcDbVertex
100
AcDb2dVertex
 10
4.78554
 20
7.75271
 30
0.0
 40
0.0104167
 41
0.0104167
 70
0
  0
VERTEX
  5
259
330
1E2
100
AcDbEntity
  8
0
100
AcDbVertex
100
AcDb2dVertex
 10
4.78956
 20
7.75765
 30
0.0
 40
0.0104167
 41
0.0104167
 70
0
  0
VERTEX
  5
25A
330
1E2
100
AcDbEntity
  8
0
100
AcDbVertex
100
AcDb2dVertex
 10
4.83219
 20
7.80469
 30
0.0
 40
0.0104167
 41
0.0104167
 70
0
  0
VERTEX
  5
25B
330
1E2
100
AcDbEntity
  8
0
100
AcDbVertex
100
AcDb2dVertex
 10
4.83669
 20
7.80914
 30
0.0
 40
0.0104167
 41
0.0104167
 70
0
  0
VERTEX
  5
25C
330
1E2
100
AcDbEntity
  8
0
100
AcDbVertex
100
AcDb2dVertex
 10
4.84115
 20
7.81364
 30
0.0
 40
0.0104167
 41
0.0104167
 70
0
  0
VERTEX
  5
25D
330
1E2
100
AcDbEntity
  8
0
100
AcDbVertex
100
AcDb2dVertex
 10
4.88818
 20
7.85628
 30
0.0
 40
0.0104167
 41
0.0104167
 70
0
  0
VERTEX
  5
25E
330
1E2
100
AcDbEntity
  8
0
100
AcDbVertex
100
AcDb2dVertex
 10
4.89312
 20
7.86029
 30
0.0
 40
0.0104167
 41
0.0104167
 70
0
  0
VERTEX
  5
25F
330
1E2
100
AcDbEntity
  8
0
100
AcDbVertex
100
AcDb2dVertex
 10
4.898
 20
7.86436
 30
0.0
 40
0.0104167
 41
0.0104167
 70
0
  0
VERTEX
  5
260
330
1E2
100
AcDbEntity
  8
0
100
AcDbVertex
100
AcDb2dVertex
 10
4.94894
 20
7.90213
 30
0.0
 40
0.0104167
 41
0.0104167
 70
0
  0
VERTEX
  5
261
330
1E2
100
AcDbEntity
  8
0
100
AcDbVertex
100
AcDb2dVertex
 10
4.95426
 20
7.90565
 30
0.0
 40
0.0104167
 41
0.0104167
 70
0
  0
VERTEX
  5
262
330
1E2
100
AcDbEntity
  8
0
100
AcDbVertex
100
AcDb2dVertex
 10
4.95953
 20
7.90924
 30
0.0
 40
0.0104167
 41
0.0104167
 70
0
  0
VERTEX
  5
263
330
1E2
100
AcDbEntity
  8
0
100
AcDbVertex
100
AcDb2dVertex
 10
5.01394
 20
7.94185
 30
0.0
 40
0.0104167
 41
0.0104167
 70
0
  0
VERTEX
  5
264
330
1E2
100
AcDbEntity
  8
0
100
AcDbVertex
100
AcDb2dVertex
 10
5.01958
 20
7.94482
 30
0.0
 40
0.0104167
 41
0.0104167
 70
0
  0
VERTEX
  5
265
330
1E2
100
AcDbEntity
  8
0
100
AcDbVertex
100
AcDb2dVertex
 10
5.02518
 20
7.94786
 30
0.0
 40
0.0104167
 41
0.0104167
 70
0
  0
VERTEX
  5
266
330
1E2
100
AcDbEntity
  8
0
100
AcDbVertex
100
AcDb2dVertex
 10
5.08251
 20
7.97499
 30
0.0
 40
0.0104167
 41
0.0104167
 70
0
  0
VERTEX
  5
267
330
1E2
100
AcDbEntity
  8
0
100
AcDbVertex
100
AcDb2dVertex
 10
5.08843
 20
7.97737
 30
0.0
 40
0.0104167
 41
0.0104167
 70
0
  0
VERTEX
  5
268
330
1E2
100
AcDbEntity
  8
0
100
AcDbVertex
100
AcDb2dVertex
 10
5.09429
 20
7.97982
 30
0.0
 40
0.0104167
 41
0.0104167
 70
0
  0
VERTEX
  5
269
330
1E2
100
AcDbEntity
  8
0
100
AcDbVertex
100
AcDb2dVertex
 10
5.15403
 20
8.00119
 30
0.0
 40
0.0104167
 41
0.0104167
 70
0
  0
VERTEX
  5
26A
330
1E2
100
AcDbEntity
  8
0
100
AcDbVertex
100
AcDb2dVertex
 10
5.16015
 20
8.00304
 30
0.0
 40
0.0104167
 41
0.0104167
 70
0
  0
VERTEX
  5
26B
330
1E2
100
AcDbEntity
  8
0
100
AcDbVertex
100
AcDb2dVertex
 10
5.16624
 20
8.00489
 30
0.0
 40
0.0104167
 41
0.0104167
 70
0
  0
VERTEX
  5
26C
330
1E2
100
AcDbEntity
  8
0
100
AcDbVertex
100
AcDb2dVertex
 10
5.22775
 20
8.02035
 30
0.0
 40
0.0104167
 41
0.0104167
 70
0
  0
VERTEX
  5
26D
330
1E2
100
AcDbEntity
  8
0
100
AcDbVertex
100
AcDb2dVertex
 10
5.234
 20
8.02154
 30
0.0
 40
0.0104167
 41
0.0104167
 70
0
  0
VERTEX
  5
26E
330
1E2
100
AcDbEntity
  8
0
100
AcDbVertex
100
AcDb2dVertex
 10
5.24024
 20
8.02279
 30
0.0
 40
0.0104167
 41
0.0104167
 70
0
  0
VERTEX
  5
26F
330
1E2
100
AcDbEntity
  8
0
100
AcDbVertex
100
AcDb2dVertex
 10
5.303
 20
8.03212
 30
0.0
 40
0.0104167
 41
0.0104167
 70
0
  0
VERTEX
  5
270
330
1E2
100
AcDbEntity
  8
0
100
AcDbVertex
100
AcDb2dVertex
 10
5.30935
 20
8.03271
 30
0.0
 40
0.0104167
 41
0.0104167
 70
0
  0
VERTEX
  5
271
330
1E2
100
AcDbEntity
  8
0
100
AcDbVertex
100
AcDb2dVertex
 10
5.31565
 20
8.03336
 30
0.0
 40
0.0104167
 41
0.0104167
 70
0
  0
VERTEX
  5
272
330
1E2
100
AcDbEntity
  8
0
100
AcDbVertex
100
AcDb2dVertex
 10
5.36794
 20
8.03646
 30
0.0
 40
0.0104167
 41
0.0104167
 70
0
  0
VERTEX
  5
273
330
1E2
100
AcDbEntity
  8
0
100
AcDbVertex
100
AcDb2dVertex
 10
5.38542
 20
8.03646
 30
0.0
 40
0.0104167
 41
0.0104167
 70
0
  0
VERTEX
  5
274
330
1E2
100
AcDbEntity
  8
0
100
AcDbVertex
100
AcDb2dVertex
 10
5.4044
 20
8.03646
 30
0.0
 40
0.0104167
 41
0.0104167
 70
0
  0
VERTEX
  5
275
330
1E2
100
AcDbEntity
  8
0
100
AcDbVertex
100
AcDb2dVertex
 10
5.45514
 20
8.03336
 30
0.0
 40
0.0104167
 41
0.0104167
 70
0
  0
VERTEX
  5
276
330
1E2
100
AcDbEntity
  8
0
100
AcDbVertex
100
AcDb2dVertex
 10
5.46149
 20
8.03271
 30
0.0
 40
0.0104167
 41
0.0104167
 70
0
  0
VERTEX
  5
277
330
1E2
100
AcDbEntity
  8
0
100
AcDbVertex
100
AcDb2dVertex
 10
5.46778
 20
8.03212
 30
0.0
 40
0.0104167
 41
0.0104167
 70
0
  0
VERTEX
  5
278
330
1E2
100
AcDbEntity
  8
0
100
AcDbVertex
100
AcDb2dVertex
 10
5.5306
 20
8.02279
 30
0.0
 40
0.0104167
 41
0.0104167
 70
0
  0
VERTEX
  5
279
330
1E2
100
AcDbEntity
  8
0
100
AcDbVertex
100
AcDb2dVertex
 10
5.53683
 20
8.02154
 30
0.0
 40
0.0104167
 41
0.0104167
 70
0
  0
VERTEX
  5
27A
330
1E2
100
AcDbEntity
  8
0
100
AcDbVertex
100
AcDb2dVertex
 10
5.54303
 20
8.02035
 30
0.0
 40
0.0104167
 41
0.0104167
 70
0
  0
VERTEX
  5
27B
330
1E2
100
AcDbEntity
  8
0
100
AcDbVertex
100
AcDb2dVertex
 10
5.6046
 20
8.00489
 30
0.0
 40
0.0104167
 41
0.0104167
 70
0
  0
VERTEX
  5
27C
330
1E2
100
AcDbEntity
  8
0
100
AcDbVertex
100
AcDb2dVertex
 10
5.61068
 20
8.00304
 30
0.0
 40
0.0104167
 41
0.0104167
 70
0
  0
VERTEX
  5
27D
330
1E2
100
AcDbEntity
  8
0
100
AcDbVertex
100
AcDb2dVertex
 10
5.61675
 20
8.00119
 30
0.0
 40
0.0104167
 41
0.0104167
 70
0
  0
VERTEX
  5
27E
330
1E2
100
AcDbEntity
  8
0
100
AcDbVertex
100
AcDb2dVertex
 10
5.67649
 20
7.97982
 30
0.0
 40
0.0104167
 41
0.0104167
 70
0
  0
VERTEX
  5
27F
330
1E2
100
AcDbEntity
  8
0
100
AcDbVertex
100
AcDb2dVertex
 10
5.6824
 20
7.97737
 30
0.0
 40
0.0104167
 41
0.0104167
 70
0
  0
VERTEX
  5
280
330
1E2
100
AcDbEntity
  8
0
100
AcDbVertex
100
AcDb2dVertex
 10
5.68826
 20
7.97499
 30
0.0
 40
0.0104167
 41
0.0104167
 70
0
  0
VERTEX
  5
281
330
1E2
100
AcDbEntity
  8
0
100
AcDbVertex
100
AcDb2dVertex
 10
5.74561
 20
7.94786
 30
0.0
 40
0.0104167
 41
0.0104167
 70
0
  0
VERTEX
  5
282
330
1E2
100
AcDbEntity
  8
0
100
AcDbVertex
100
AcDb2dVertex
 10
5.75125
 20
7.94482
 30
0.0
 40
0.0104167
 41
0.0104167
 70
0
  0
VERTEX
  5
283
330
1E2
100
AcDbEntity
  8
0
100
AcDbVertex
100
AcDb2dVertex
 10
5.75683
 20
7.94185
 30
0.0
 40
0.0104167
 41
0.0104167
 70
0
  0
VERTEX
  5
284
330
1E2
100
AcDbEntity
  8
0
100
AcDbVertex
100
AcDb2dVertex
 10
5.81125
 20
7.90924
 30
0.0
 40
0.0104167
 41
0.0104167
 70
0
  0
VERTEX
  5
285
330
1E2
100
AcDbEntity
  8
0
100
AcDbVertex
100
AcDb2dVertex
 10
5.81657
 20
7.90565
 30
0.0
 40
0.0104167
 41
0.0104167
 70
0
  0
VERTEX
  5
286
330
1E2
100
AcDbEntity
  8
0
100
AcDbVertex
100
AcDb2dVertex
 10
5.82183
 20
7.90213
 30
0.0
 40
0.0104167
 41
0.0104167
 70
0
  0
VERTEX
  5
287
330
1E2
100
AcDbEntity
  8
0
100
AcDbVertex
100
AcDb2dVertex
 10
5.87278
 20
7.86436
 30
0.0
 40
0.0104167
 41
0.0104167
 70
0
  0
VERTEX
  5
288
330
1E2
100
AcDbEntity
  8
0
100
AcDbVertex
100
AcDb2dVertex
 10
5.87771
 20
7.86029
 30
0.0
 40
0.0104167
 41
0.0104167
 70
0
  0
VERTEX
  5
289
330
1E2
100
AcDbEntity
  8
0
100
AcDbVertex
100
AcDb2dVertex
 10
5.8826
 20
7.85628
 30
0.0
 40
0.0104167
 41
0.0104167
 70
0
  0
VERTEX
  5
28A
330
1E2
100
AcDbEntity
  8
0
100
AcDbVertex
100
AcDb2dVertex
 10
5.92964
 20
7.81364
 30
0.0
 40
0.0104167
 41
0.0104167
 70
0
  0
VERTEX
  5
28B
330
1E2
100
AcDbEntity
  8
0
100
AcDbVertex
100
AcDb2dVertex
 10
5.93414
 20
7.80914
 30
0.0
 40
0.0104167
 41
0.0104167
 70
0
  0
VERTEX
  5
28C
330
1E2
100
AcDbEntity
  8
0
100
AcDbVertex
100
AcDb2dVertex
 10
5.93864
 20
7.80469
 30
0.0
 40
0.0104167
 41
0.0104167
 70
0
  0
VERTEX
  5
28D
330
1E2
100
AcDbEntity
  8
0
100
AcDbVertex
100
AcDb2dVertex
 10
5.98122
 20
7.75765
 30
0.0
 40
0.0104167
 41
0.0104167
 70
0
  0
VERTEX
  5
28E
330
1E2
100
AcDbEntity
  8
0
100
AcDbVertex
100
AcDb2dVertex
 10
5.98529
 20
7.75271
 30
0.0
 40
0.0104167
 41
0.0104167
 70
0
  0
VERTEX
  5
28F
330
1E2
100
AcDbEntity
  8
0
100
AcDbVertex
100
AcDb2dVertex
 10
5.98931
 20
7.74783
 30
0.0
 40
0.0104167
 41
0.0104167
 70
0
  0
VERTEX
  5
290
330
1E2
100
AcDbEntity
  8
0
100
AcDbVertex
100
AcDb2dVertex
 10
6.02713
 20
7.69689
 30
0.0
 40
0.0104167
 41
0.0104167
 70
0
  0
VERTEX
  5
291
330
1E2
100
AcDbEntity
  8
0
100
AcDbVertex
100
AcDb2dVertex
 10
6.03065
 20
7.69157
 30
0.0
 40
0.0104167
 41
0.0104167
 70
0
  0
VERTEX
  5
292
330
1E2
100
AcDbEntity
  8
0
100
AcDbVertex
100
AcDb2dVertex
 10
6.03418
 20
7.68631
 30
0.0
 40
0.0104167
 41
0.0104167
 70
0
  0
VERTEX
  5
293
330
1E2
100
AcDbEntity
  8
0
100
AcDbVertex
100
AcDb2dVertex
 10
6.06679
 20
7.63189
 30
0.0
 40
0.0104167
 41
0.0104167
 70
0
  0
VERTEX
  5
294
330
1E2
100
AcDbEntity
  8
0
100
AcDbVertex
100
AcDb2dVertex
 10
6.06982
 20
7.62625
 30
0.0
 40
0.0104167
 41
0.0104167
 70
0
  0
VERTEX
  5
295
330
1E2
100
AcDbEntity
  8
0
100
AcDbVertex
100
AcDb2dVertex
 10
6.07281
 20
7.62067
 30
0.0
 40
0.0104167
 41
0.0104167
 70
0
  0
VERTEX
  5
296
330
1E2
100
AcDbEntity
  8
0
100
AcDbVertex
100
AcDb2dVertex
 10
6.09993
 20
7.56332
 30
0.0
 40
0.0104167
 41
0.0104167
 70
0
  0
VERTEX
  5
297
330
1E2
100
AcDbEntity
  8
0
100
AcDbVertex
100
AcDb2dVertex
 10
6.10238
 20
7.5574
 30
0.0
 40
0.0104167
 41
0.0104167
 70
0
  0
VERTEX
  5
298
330
1E2
100
AcDbEntity
  8
0
100
AcDbVertex
100
AcDb2dVertex
 10
6.10476
 20
7.55154
 30
0.0
 40
0.0104167
 41
0.0104167
 70
0
  0
VERTEX
  5
299
330
1E2
100
AcDbEntity
  8
0
100
AcDbVertex
100
AcDb2dVertex
 10
6.12619
 20
7.49181
 30
0.0
 40
0.0104167
 41
0.0104167
 70
0
  0
VERTEX
  5
29A
330
1E2
100
AcDbEntity
  8
0
100
AcDbVertex
100
AcDb2dVertex
 10
6.12804
 20
7.48568
 30
0.0
 40
0.0104167
 41
0.0104167
 70
0
  0
VERTEX
  5
29B
330
1E2
100
AcDbEntity
  8
0
100
AcDbVertex
100
AcDb2dVertex
 10
6.12989
 20
7.4796
 30
0.0
 40
0.0104167
 41
0.0104167
 70
0
  0
VERTEX
  5
29C
330
1E2
100
AcDbEntity
  8
0
100
AcDbVertex
100
AcDb2dVertex
 10
6.14529
 20
7.41808
 30
0.0
 40
0.0104167
 41
0.0104167
 70
0
  0
VERTEX
  5
29D
330
1E2
100
AcDbEntity
  8
0
100
AcDbVertex
100
AcDb2dVertex
 10
6.14654
 20
7.41183
 30
0.0
 40
0.0104167
 41
0.0104167
 70
0
  0
VERTEX
  5
29E
330
1E2
100
AcDbEntity
  8
0
100
AcDbVertex
100
AcDb2dVertex
 10
6.14779
 20
7.4056
 30
0.0
 40
0.0104167
 41
0.0104167
 70
0
  0
VERTEX
  5
29F
330
1E2
100
AcDbEntity
  8
0
100
AcDbVertex
100
AcDb2dVertex
 10
6.15707
 20
7.34283
 30
0.0
 40
0.0104167
 41
0.0104167
 70
0
  0
VERTEX
  5
2A0
330
1E2
100
AcDbEntity
  8
0
100
AcDbVertex
100
AcDb2dVertex
 10
6.15771
 20
7.33649
 30
0.0
 40
0.0104167
 41
0.0104167
 70
0
  0
VERTEX
  5
2A1
330
1E2
100
AcDbEntity
  8
0
100
AcDbVertex
100
AcDb2dVertex
 10
6.15831
 20
7.33018
 30
0.0
 40
0.0104167
 41
0.0104167
 70
0
  0
VERTEX
  5
2A2
330
1E2
100
AcDbEntity
  8
0
100
AcDbVertex
100
AcDb2dVertex
 10
6.16146
 20
7.27789
 30
0.0
 40
0.0104167
 41
0.0104167
 70
0
  0
VERTEX
  5
2A3
330
1E2
100
AcDbEntity
  8
0
100
AcDbVertex
100
AcDb2dVertex
 10
6.16146
 20
7.26042
 30
0.0
 40
0.0104167
 41
0.0104167
 70
0
  0
SEQEND
  5
2A4
330
1E2
100
AcDbEntity
  8
0
  0
POLYLINE
  5
2A5
330
2F
100
AcDbEntity
  8
0
 62
0
100
AcDb2dPolyline
 66
1
 10
0.0
 20
0.0
 30
0.0
 70
1
  0
VERTEX
  5
2A6
330
2A5
100
AcDbEntity
  8
0
100
AcDbVertex
100
AcDb2dVertex
 10
1.33333
 20
10.3301
 30
0.0
 70
0
  0
VERTEX
  5
2A7
330
2A5
100
AcDbEntity
  8
0
100
AcDbVertex
100
AcDb2dVertex
 10
1.33333
 20
10.3226
 30
0.0
 70
0
  0
VERTEX
  5
2A8
330
2A5
100
AcDbEntity
  8
0
100
AcDbVertex
100
AcDb2dVertex
 10
1.32823
 20
10.3027
 30
0.0
 70
0
  0
VERTEX
  5
2A9
330
2A5
100
AcDbEntity
  8
0
100
AcDbVertex
100
AcDb2dVertex
 10
1.32726
 20
10.3003
 30
0.0
 70
0
  0
VERTEX
  5
2AA
330
2A5
100
AcDbEntity
  8
0
100
AcDbVertex
100
AcDb2dVertex
 10
1.32557
 20
10.2976
 30
0.0
 70
0
  0
VERTEX
  5
2AB
330
2A5
100
AcDbEntity
  8
0
100
AcDbVertex
100
AcDb2dVertex
 10
1.31228
 20
10.2778
 30
0.0
 70
0
  0
VERTEX
  5
2AC
330
2A5
100
AcDbEntity
  8
0
100
AcDbVertex
100
AcDb2dVertex
 10
1.31055
 20
10.276
 30
0.0
 70
0
  0
VERTEX
  5
2AD
330
2A5
100
AcDbEntity
  8
0
100
AcDbVertex
100
AcDb2dVertex
 10
1.30838
 20
10.2736
 30
0.0
 70
0
  0
VERTEX
  5
2AE
330
2A5
100
AcDbEntity
  8
0
100
AcDbVertex
100
AcDb2dVertex
 10
1.29861
 20
10.2656
 30
0.0
 70
0
  0
VERTEX
  5
2AF
330
2A5
100
AcDbEntity
  8
0
100
AcDbVertex
100
AcDb2dVertex
 10
1.28852
 20
10.2606
 30
0.0
 70
0
  0
VERTEX
  5
2B0
330
2A5
100
AcDbEntity
  8
0
100
AcDbVertex
100
AcDb2dVertex
 10
1.28624
 20
10.2596
 30
0.0
 70
0
  0
VERTEX
  5
2B1
330
2A5
100
AcDbEntity
  8
0
100
AcDbVertex
100
AcDb2dVertex
 10
1.2832
 20
10.258
 30
0.0
 70
0
  0
VERTEX
  5
2B2
330
2A5
100
AcDbEntity
  8
0
100
AcDbVertex
100
AcDb2dVertex
 10
1.27078
 20
10.2542
 30
0.0
 70
0
  0
VERTEX
  5
2B3
330
2A5
100
AcDbEntity
  8
0
100
AcDbVertex
100
AcDb2dVertex
 10
1.26004
 20
10.2535
 30
0.0
 70
0
  0
VERTEX
  5
2B4
330
2A5
100
AcDbEntity
  8
0
100
AcDbVertex
100
AcDb2dVertex
 10
1.25651
 20
10.2535
 30
0.0
 70
0
  0
VERTEX
  5
2B5
330
2A5
100
AcDbEntity
  8
0
100
AcDbVertex
100
AcDb2dVertex
 10
1.24913
 20
10.2535
 30
0.0
 70
0
  0
VERTEX
  5
2B6
330
2A5
100
AcDbEntity
  8
0
100
AcDbVertex
100
AcDb2dVertex
 10
1.22927
 20
10.2586
 30
0.0
 70
0
  0
VERTEX
  5
2B7
330
2A5
100
AcDbEntity
  8
0
100
AcDbVertex
100
AcDb2dVertex
 10
1.227
 20
10.2596
 30
0.0
 70
0
  0
VERTEX
  5
2B8
330
2A5
100
AcDbEntity
  8
0
100
AcDbVertex
100
AcDb2dVertex
 10
1.22428
 20
10.2601
 30
0.0
 70
0
  0
VERTEX
  5
2B9
330
2A5
100
AcDbEntity
  8
0
100
AcDbVertex
100
AcDb2dVertex
 10
1.21338
 20
10.2659
 30
0.0
 70
0
  0
VERTEX
  5
2BA
330
2A5
100
AcDbEntity
  8
0
100
AcDbVertex
100
AcDb2dVertex
 10
1.20443
 20
10.2743
 30
0.0
 70
0
  0
VERTEX
  5
2BB
330
2A5
100
AcDbEntity
  8
0
100
AcDbVertex
100
AcDb2dVertex
 10
1.20269
 20
10.276
 30
0.0
 70
0
  0
VERTEX
  5
2BC
330
2A5
100
AcDbEntity
  8
0
100
AcDbVertex
100
AcDb2dVertex
 10
1.2003
 20
10.2771
 30
0.0
 70
0
  0
VERTEX
  5
2BD
330
2A5
100
AcDbEntity
  8
0
100
AcDbVertex
100
AcDb2dVertex
 10
1.19244
 20
10.2862
 30
0.0
 70
0
  0
VERTEX
  5
2BE
330
2A5
100
AcDbEntity
  8
0
100
AcDbVertex
100
AcDb2dVertex
 10
1.18739
 20
10.2981
 30
0.0
 70
0
  0
VERTEX
  5
2BF
330
2A5
100
AcDbEntity
  8
0
100
AcDbVertex
100
AcDb2dVertex
 10
1.18642
 20
10.3003
 30
0.0
 70
0
  0
VERTEX
  5
2C0
330
2A5
100
AcDbEntity
  8
0
100
AcDbVertex
100
AcDb2dVertex
 10
1.18495
 20
10.3023
 30
0.0
 70
0
  0
VERTEX
  5
2C1
330
2A5
100
AcDbEntity
  8
0
100
AcDbVertex
100
AcDb2dVertex
 10
1.18126
 20
10.3141
 30
0.0
 70
0
  0
VERTEX
  5
2C2
330
2A5
100
AcDbEntity
  8
0
100
AcDbVertex
100
AcDb2dVertex
 10
1.18056
 20
10.3261
 30
0.0
 70
0
  0
VERTEX
  5
2C3
330
2A5
100
AcDbEntity
  8
0
100
AcDbVertex
100
AcDb2dVertex
 10
1.18056
 20
10.3301
 30
0.0
 70
0
  0
VERTEX
  5
2C4
330
2A5
100
AcDbEntity
  8
0
100
AcDbVertex
100
AcDb2dVertex
 10
1.18056
 20
10.3375
 30
0.0
 70
0
  0
VERTEX
  5
2C5
330
2A5
100
AcDbEntity
  8
0
100
AcDbVertex
100
AcDb2dVertex
 10
1.18544
 20
10.3575
 30
0.0
 70
0
  0
VERTEX
  5
2C6
330
2A5
100
AcDbEntity
  8
0
100
AcDbVertex
100
AcDb2dVertex
 10
1.18642
 20
10.3598
 30
0.0
 70
0
  0
VERTEX
  5
2C7
330
2A5
100
AcDbEntity
  8
0
100
AcDbVertex
100
AcDb2dVertex
 10
1.1869
 20
10.3614
 30
0.0
 70
0
  0
VERTEX
  5
2C8
330
2A5
100
AcDbEntity
  8
0
100
AcDbVertex
100
AcDb2dVertex
 10
1.19276
 20
10.3716
 30
0.0
 70
0
  0
VERTEX
  5
2C9
330
2A5
100
AcDbEntity
  8
0
100
AcDbVertex
100
AcDb2dVertex
 10
1.20096
 20
10.3822
 30
0.0
 70
0
  0
VERTEX
  5
2CA
330
2A5
100
AcDbEntity
  8
0
100
AcDbVertex
100
AcDb2dVertex
 10
1.20269
 20
10.3839
 30
0.0
 70
0
  0
VERTEX
  5
2CB
330
2A5
100
AcDbEntity
  8
0
100
AcDbVertex
100
AcDb2dVertex
 10
1.20372
 20
10.3852
 30
0.0
 70
0
  0
VERTEX
  5
2CC
330
2A5
100
AcDbEntity
  8
0
100
AcDbVertex
100
AcDb2dVertex
 10
1.21289
 20
10.3925
 30
0.0
 70
0
  0
VERTEX
  5
2CD
330
2A5
100
AcDbEntity
  8
0
100
AcDbVertex
100
AcDb2dVertex
 10
1.22466
 20
10.3992
 30
0.0
 70
0
  0
VERTEX
  5
2CE
330
2A5
100
AcDbEntity
  8
0
100
AcDbVertex
100
AcDb2dVertex
 10
1.227
 20
10.4002
 30
0.0
 70
0
  0
VERTEX
  5
2CF
330
2A5
100
AcDbEntity
  8
0
100
AcDbVertex
100
AcDb2dVertex
 10
1.2289
 20
10.4006
 30
0.0
 70
0
  0
VERTEX
  5
2D0
330
2A5
100
AcDbEntity
  8
0
100
AcDbVertex
100
AcDb2dVertex
 10
1.24957
 20
10.4063
 30
0.0
 70
0
  0
VERTEX
  5
2D1
330
2A5
100
AcDbEntity
  8
0
100
AcDbVertex
100
AcDb2dVertex
 10
1.25651
 20
10.4063
 30
0.0
 70
0
  0
VERTEX
  5
2D2
330
2A5
100
AcDbEntity
  8
0
100
AcDbVertex
100
AcDb2dVertex
 10
1.26394
 20
10.4063
 30
0.0
 70
0
  0
VERTEX
  5
2D3
330
2A5
100
AcDbEntity
  8
0
100
AcDbVertex
100
AcDb2dVertex
 10
1.28391
 20
10.4012
 30
0.0
 70
0
  0
VERTEX
  5
2D4
330
2A5
100
AcDbEntity
  8
0
100
AcDbVertex
100
AcDb2dVertex
 10
1.28624
 20
10.4002
 30
0.0
 70
0
  0
VERTEX
  5
2D5
330
2A5
100
AcDbEntity
  8
0
100
AcDbVertex
100
AcDb2dVertex
 10
1.28782
 20
10.3985
 30
0.0
 70
0
  0
VERTEX
  5
2D6
330
2A5
100
AcDbEntity
  8
0
100
AcDbVertex
100
AcDb2dVertex
 10
1.30881
 20
10.3856
 30
0.0
 70
0
  0
VERTEX
  5
2D7
330
2A5
100
AcDbEntity
  8
0
100
AcDbVertex
100
AcDb2dVertex
 10
1.31055
 20
10.3839
 30
0.0
 70
0
  0
VERTEX
  5
2D8
330
2A5
100
AcDbEntity
  8
0
100
AcDbVertex
100
AcDb2dVertex
 10
1.3119
 20
10.3818
 30
0.0
 70
0
  0
VERTEX
  5
2D9
330
2A5
100
AcDbEntity
  8
0
100
AcDbVertex
100
AcDb2dVertex
 10
1.32623
 20
10.3621
 30
0.0
 70
0
  0
VERTEX
  5
2DA
330
2A5
100
AcDbEntity
  8
0
100
AcDbVertex
100
AcDb2dVertex
 10
1.32726
 20
10.3598
 30
0.0
 70
0
  0
VERTEX
  5
2DB
330
2A5
100
AcDbEntity
  8
0
100
AcDbVertex
100
AcDb2dVertex
 10
1.32758
 20
10.3568
 30
0.0
 70
0
  0
VERTEX
  5
2DC
330
2A5
100
AcDbEntity
  8
0
100
AcDbVertex
100
AcDb2dVertex
 10
1.33078
 20
10.3443
 30
0.0
 70
0
  0
VERTEX
  5
2DD
330
2A5
100
AcDbEntity
  8
0
100
AcDbVertex
100
AcDb2dVertex
 10
1.33333
 20
10.3337
 30
0.0
 70
0
  0
VERTEX
  5
2DE
330
2A5
100
AcDbEntity
  8
0
100
AcDbVertex
100
AcDb2dVertex
 10
1.33333
 20
10.3301
 30
0.0
 70
0
  0
SEQEND
  5
2DF
330
2A5
100
AcDbEntity
  8
0
  0
POLYLINE
  5
2E0
330
2F
100
AcDbEntity
  8
0
 62
0
100
AcDb2dPolyline
 66
1
 10
0.0
 20
0.0
 30
0.0
 70
1
  0
VERTEX
  5
2E1
330
2E0
100
AcDbEntity
  8
0
100
AcDbVertex
100
AcDb2dVertex
 10
7.31754
 20
10.3301
 30
0.0
 70
0
  0
VERTEX
  5
2E2
330
2E0
100
AcDbEntity
  8
0
100
AcDbVertex
100
AcDb2dVertex
 10
7.31754
 20
10.3226
 30
0.0
 70
0
  0
VERTEX
  5
2E3
330
2E0
100
AcDbEntity
  8
0
100
AcDbVertex
100
AcDb2dVertex
 10
7.31244
 20
10.3027
 30
0.0
 70
0
  0
VERTEX
  5
2E4
330
2E0
100
AcDbEntity
  8
0
100
AcDbVertex
100
AcDb2dVertex
 10
7.31147
 20
10.3003
 30
0.0
 70
0
  0
VERTEX
  5
2E5
330
2E0
100
AcDbEntity
  8
0
100
AcDbVertex
100
AcDb2dVertex
 10
7.30979
 20
10.2976
 30
0.0
 70
0
  0
VERTEX
  5
2E6
330
2E0
100
AcDbEntity
  8
0
100
AcDbVertex
100
AcDb2dVertex
 10
7.2965
 20
10.2778
 30
0.0
 70
0
  0
VERTEX
  5
2E7
330
2E0
100
AcDbEntity
  8
0
100
AcDbVertex
100
AcDb2dVertex
 10
7.29476
 20
10.276
 30
0.0
 70
0
  0
VERTEX
  5
2E8
330
2E0
100
AcDbEntity
  8
0
100
AcDbVertex
100
AcDb2dVertex
 10
7.29258
 20
10.2736
 30
0.0
 70
0
  0
VERTEX
  5
2E9
330
2E0
100
AcDbEntity
  8
0
100
AcDbVertex
100
AcDb2dVertex
 10
7.28282
 20
10.2656
 30
0.0
 70
0
  0
VERTEX
  5
2EA
330
2E0
100
AcDbEntity
  8
0
100
AcDbVertex
100
AcDb2dVertex
 10
7.27274
 20
10.2606
 30
0.0
 70
0
  0
VERTEX
  5
2EB
330
2E0
100
AcDbEntity
  8
0
100
AcDbVertex
100
AcDb2dVertex
 10
7.27046
 20
10.2596
 30
0.0
 70
0
  0
VERTEX
  5
2EC
330
2E0
100
AcDbEntity
  8
0
100
AcDbVertex
100
AcDb2dVertex
 10
7.26742
 20
10.258
 30
0.0
 70
0
  0
VERTEX
  5
2ED
330
2E0
100
AcDbEntity
  8
0
100
AcDbVertex
100
AcDb2dVertex
 10
7.25499
 20
10.2542
 30
0.0
 70
0
  0
VERTEX
  5
2EE
330
2E0
100
AcDbEntity
  8
0
100
AcDbVertex
100
AcDb2dVertex
 10
7.24425
 20
10.2535
 30
0.0
 70
0
  0
VERTEX
  5
2EF
330
2E0
100
AcDbEntity
  8
0
100
AcDbVertex
100
AcDb2dVertex
 10
7.24072
 20
10.2535
 30
0.0
 70
0
  0
VERTEX
  5
2F0
330
2E0
100
AcDbEntity
  8
0
100
AcDbVertex
100
AcDb2dVertex
 10
7.23335
 20
10.2535
 30
0.0
 70
0
  0
VERTEX
  5
2F1
330
2E0
100
AcDbEntity
  8
0
100
AcDbVertex
100
AcDb2dVertex
 10
7.21349
 20
10.2586
 30
0.0
 70
0
  0
VERTEX
  5
2F2
330
2E0
100
AcDbEntity
  8
0
100
AcDbVertex
100
AcDb2dVertex
 10
7.21121
 20
10.2596
 30
0.0
 70
0
  0
VERTEX
  5
2F3
330
2E0
100
AcDbEntity
  8
0
100
AcDbVertex
100
AcDb2dVertex
 10
7.2085
 20
10.2601
 30
0.0
 70
0
  0
VERTEX
  5
2F4
330
2E0
100
AcDbEntity
  8
0
100
AcDbVertex
100
AcDb2dVertex
 10
7.1976
 20
10.2659
 30
0.0
 70
0
  0
VERTEX
  5
2F5
330
2E0
100
AcDbEntity
  8
0
100
AcDbVertex
100
AcDb2dVertex
 10
7.18864
 20
10.2743
 30
0.0
 70
0
  0
VERTEX
  5
2F6
330
2E0
100
AcDbEntity
  8
0
100
AcDbVertex
100
AcDb2dVertex
 10
7.1869
 20
10.276
 30
0.0
 70
0
  0
VERTEX
  5
2F7
330
2E0
100
AcDbEntity
  8
0
100
AcDbVertex
100
AcDb2dVertex
 10
7.18451
 20
10.2771
 30
0.0
 70
0
  0
VERTEX
  5
2F8
330
2E0
100
AcDbEntity
  8
0
100
AcDbVertex
100
AcDb2dVertex
 10
7.17665
 20
10.2862
 30
0.0
 70
0
  0
VERTEX
  5
2F9
330
2E0
100
AcDbEntity
  8
0
100
AcDbVertex
100
AcDb2dVertex
 10
7.1716
 20
10.2981
 30
0.0
 70
0
  0
VERTEX
  5
2FA
330
2E0
100
AcDbEntity
  8
0
100
AcDbVertex
100
AcDb2dVertex
 10
7.17062
 20
10.3003
 30
0.0
 70
0
  0
VERTEX
  5
2FB
330
2E0
100
AcDbEntity
  8
0
100
AcDbVertex
100
AcDb2dVertex
 10
7.16917
 20
10.3023
 30
0.0
 70
0
  0
VERTEX
  5
2FC
330
2E0
100
AcDbEntity
  8
0
100
AcDbVertex
100
AcDb2dVertex
 10
7.16547
 20
10.3141
 30
0.0
 70
0
  0
VERTEX
  5
2FD
330
2E0
100
AcDbEntity
  8
0
100
AcDbVertex
100
AcDb2dVertex
 10
7.16476
 20
10.3261
 30
0.0
 70
0
  0
VERTEX
  5
2FE
330
2E0
100
AcDbEntity
  8
0
100
AcDbVertex
100
AcDb2dVertex
 10
7.16476
 20
10.3301
 30
0.0
 70
0
  0
VERTEX
  5
2FF
330
2E0
100
AcDbEntity
  8
0
100
AcDbVertex
100
AcDb2dVertex
 10
7.16476
 20
10.3375
 30
0.0
 70
0
  0
VERTEX
  5
300
330
2E0
100
AcDbEntity
  8
0
100
AcDbVertex
100
AcDb2dVertex
 10
7.16965
 20
10.3575
 30
0.0
 70
0
  0
VERTEX
  5
301
330
2E0
100
AcDbEntity
  8
0
100
AcDbVertex
100
AcDb2dVertex
 10
7.17062
 20
10.3598
 30
0.0
 70
0
  0
VERTEX
  5
302
330
2E0
100
AcDbEntity
  8
0
100
AcDbVertex
100
AcDb2dVertex
 10
7.17111
 20
10.3614
 30
0.0
 70
0
  0
VERTEX
  5
303
330
2E0
100
AcDbEntity
  8
0
100
AcDbVertex
100
AcDb2dVertex
 10
7.17697
 20
10.3716
 30
0.0
 70
0
  0
VERTEX
  5
304
330
2E0
100
AcDbEntity
  8
0
100
AcDbVertex
100
AcDb2dVertex
 10
7.18517
 20
10.3822
 30
0.0
 70
0
  0
VERTEX
  5
305
330
2E0
100
AcDbEntity
  8
0
100
AcDbVertex
100
AcDb2dVertex
 10
7.1869
 20
10.3839
 30
0.0
 70
0
  0
VERTEX
  5
306
330
2E0
100
AcDbEntity
  8
0
100
AcDbVertex
100
AcDb2dVertex
 10
7.18793
 20
10.3852
 30
0.0
 70
0
  0
VERTEX
  5
307
330
2E0
100
AcDbEntity
  8
0
100
AcDbVertex
100
AcDb2dVertex
 10
7.1971
 20
10.3925
 30
0.0
 70
0
  0
VERTEX
  5
308
330
2E0
100
AcDbEntity
  8
0
100
AcDbVertex
100
AcDb2dVertex
 10
7.20888
 20
10.3992
 30
0.0
 70
0
  0
VERTEX
  5
309
330
2E0
100
AcDbEntity
  8
0
100
AcDbVertex
100
AcDb2dVertex
 10
7.21121
 20
10.4002
 30
0.0
 70
0
  0
VERTEX
  5
30A
330
2E0
100
AcDbEntity
  8
0
100
AcDbVertex
100
AcDb2dVertex
 10
7.21311
 20
10.4006
 30
0.0
 70
0
  0
VERTEX
  5
30B
330
2E0
100
AcDbEntity
  8
0
100
AcDbVertex
100
AcDb2dVertex
 10
7.23378
 20
10.4063
 30
0.0
 70
0
  0
VERTEX
  5
30C
330
2E0
100
AcDbEntity
  8
0
100
AcDbVertex
100
AcDb2dVertex
 10
7.24072
 20
10.4063
 30
0.0
 70
0
  0
VERTEX
  5
30D
330
2E0
100
AcDbEntity
  8
0
100
AcDbVertex
100
AcDb2dVertex
 10
7.24815
 20
10.4063
 30
0.0
 70
0
  0
VERTEX
  5
30E
330
2E0
100
AcDbEntity
  8
0
100
AcDbVertex
100
AcDb2dVertex
 10
7.26812
 20
10.4012
 30
0.0
 70
0
  0
VERTEX
  5
30F
330
2E0
100
AcDbEntity
  8
0
100
AcDbVertex
100
AcDb2dVertex
 10
7.27046
 20
10.4002
 30
0.0
 70
0
  0
VERTEX
  5
310
330
2E0
100
AcDbEntity
  8
0
100
AcDbVertex
100
AcDb2dVertex
 10
7.27203
 20
10.3985
 30
0.0
 70
0
  0
VERTEX
  5
311
330
2E0
100
AcDbEntity
  8
0
100
AcDbVertex
100
AcDb2dVertex
 10
7.29303
 20
10.3856
 30
0.0
 70
0
  0
VERTEX
  5
312
330
2E0
100
AcDbEntity
  8
0
100
AcDbVertex
100
AcDb2dVertex
 10
7.29476
 20
10.3839
 30
0.0
 70
0
  0
VERTEX
  5
313
330
2E0
100
AcDbEntity
  8
0
100
AcDbVertex
100
AcDb2dVertex
 10
7.29611
 20
10.3818
 30
0.0
 70
0
  0
VERTEX
  5
314
330
2E0
100
AcDbEntity
  8
0
100
AcDbVertex
100
AcDb2dVertex
 10
7.31044
 20
10.3621
 30
0.0
 70
0
  0
VERTEX
  5
315
330
2E0
100
AcDbEntity
  8
0
100
AcDbVertex
100
AcDb2dVertex
 10
7.31147
 20
10.3598
 30
0.0
 70
0
  0
VERTEX
  5
316
330
2E0
100
AcDbEntity
  8
0
100
AcDbVertex
100
AcDb2dVertex
 10
7.31179
 20
10.3568
 30
0.0
 70
0
  0
VERTEX
  5
317
330
2E0
100
AcDbEntity
  8
0
100
AcDbVertex
100
AcDb2dVertex
 10
7.315
 20
10.3443
 30
0.0
 70
0
  0
VERTEX
  5
318
330
2E0
100
AcDbEntity
  8
0
100
AcDbVertex
100
AcDb2dVertex
 10
7.31754
 20
10.3337
 30
0.0
 70
0
  0
VERTEX
  5
319
330
2E0
100
AcDbEntity
  8
0
100
AcDbVertex
100
AcDb2dVertex
 10
7.31754
 20
10.3301
 30
0.0
 70
0
  0
SEQEND
  5
31A
330
2E0
100
AcDbEntity
  8
0
  0
ENDBLK
  5
31
330
2F
100
AcDbEntity
  8
0
100
AcDbBlockEnd
  0
ENDSEC
  0
SECTION
  2
ENTITIES
  0
INSERT
  5
31B
330
17
100
AcDbEntity
  8
0
100
AcDbBlockReference
  2
page_1.dxf
 10
0.0
 20
0.0
 30
0.0
  0
ENDSEC
  0
SECTION
  2
OBJECTS
  0
DICTIONARY
  5
A
330
0
100
AcDbDictionary
280
0
281
1
  3
ACAD_COLOR
350
B
  3
ACAD_GROUP
350
C
  3
ACAD_LAYOUT
350
D
  3
ACAD_MATERIAL
350
E
  3
ACAD_MLEADERSTYLE
350
F
  3
ACAD_MLINESTYLE
350
10
  3
ACAD_PLOTSETTINGS
350
11
  3
ACAD_PLOTSTYLENAME
350
12
  3
ACAD_SCALELIST
350
14
  3
ACAD_TABLESTYLE
350
15
  3
ACAD_VISUALSTYLE
350
16
  3
EZDXF_META
350
2D
  0
DICTIONARY
  5
B
330
A
100
AcDbDictionary
280
0
281
1
  0
DICTIONARY
  5
C
330
A
100
AcDbDictionary
280
0
281
1
  0
DICTIONARY
  5
D
330
A
100
AcDbDictionary
280
0
281
1
  3
Model
350
1A
  3
Layout1
350
1E
  0
DICTIONARY
  5
E
330
A
100
AcDbDictionary
280
0
281
1
  3
ByBlock
350
1F
  3
ByLayer
350
20
  3
Global
350
21
  0
DICTIONARY
  5
F
330
A
100
AcDbDictionary
280
0
281
1
  3
Standard
350
2C
  0
DICTIONARY
  5
10
330
A
100
AcDbDictionary
280
0
281
1
  3
Standard
350
22
  0
DICTIONARY
  5
11
330
A
100
AcDbDictionary
280
0
281
1
  0
ACDBDICTIONARYWDFLT
  5
12
330
A
100
AcDbDictionary
280
0
281
1
  3
Normal
350
13
100
AcDbDictionaryWithDefault
340
13
  0
ACDBPLACEHOLDER
  5
13
330
12
  0
DICTIONARY
  5
14
330
A
100
AcDbDictionary
280
0
281
1
  0
DICTIONARY
  5
15
330
A
100
AcDbDictionary
280
0
281
1
  0
DICTIONARY
  5
16
330
A
100
AcDbDictionary
280
0
281
1
  0
LAYOUT
  5
1A
330
D
100
AcDbPlotSettings
  1

  2
Adobe PDF
  4
A3
  6

 40
7.5
 41
20.0
 42
7.5
 43
20.0
 44
420.0
 45
297.0
 46
0.0
 47
0.0
 48
0.0
 49
0.0
140
0.0
141
0.0
142
1.0
143
1.0
 70
1024
 72
1
 73
0
 74
5
  7

 75
16
 76
0
 77
2
 78
300
147
1.0
148
0.0
149
0.0
100
AcDbLayout
  1
Model
 70
1
 71
0
 10
0.0
 20
0.0
 11
420.0
 21
297.0
 12
0.0
 22
0.0
 32
0.0
 14
1e+20
 24
1e+20
 34
1e+20
 15
-1e+20
 25
-1e+20
 35
-1e+20
146
0.0
 13
0.0
 23
0.0
 33
0.0
 16
1.0
 26
0.0
 36
0.0
 17
0.0
 27
1.0
 37
0.0
 76
1
330
17
  0
LAYOUT
  5
1E
330
D
100
AcDbPlotSettings
  1

  2
Adobe PDF
  4
A3
  6

 40
7.5
 41
20.0
 42
7.5
 43
20.0
 44
420.0
 45
297.0
 46
0.0
 47
0.0
 48
0.0
 49
0.0
140
0.0
141
0.0
142
1.0
143
1.0
 70
0
 72
1
 73
0
 74
5
  7

 75
16
 76
0
 77
2
 78
300
147
1.0
148
0.0
149
0.0
100
AcDbLayout
  1
Layout1
 70
1
 71
1
 10
0.0
 20
0.0
 11
420.0
 21
297.0
 12
0.0
 22
0.0
 32
0.0
 14
1e+20
 24
1e+20
 34
1e+20
 15
-1e+20
 25
-1e+20
 35
-1e+20
146
0.0
 13
0.0
 23
0.0
 33
0.0
 16
1.0
 26
0.0
 36
0.0
 17
0.0
 27
1.0
 37
0.0
 76
1
330
1B
  0
MATERIAL
  5
1F
102
{ACAD_REACTORS
330
E
102
}
330
E
100
AcDbMaterial
  1
ByBlock
  2

 70
0
 40
1.0
 71
1
 41
1.0
 91
-1023410177
 42
1.0
 72
1
  3

 73
1
 74
1
 75
1
 44
0.5
 73
0
 45
1.0
 46
1.0
 77
1
  4

 78
1
 79
1
170
1
 48
1.0
171
1
  6

172
1
173
1
174
1
140
1.0
141
1.0
175
1
  7

176
1
177
1
178
1
143
1.0
179
1
  8

270
1
271
1
272
1
145
1.0
146
1.0
273
1
  9

274
1
275
1
276
1
 42
1.0
 72
1
  3

 73
1
 74
1
 75
1
 94
63
  0
MATERIAL
  5
20
102
{ACAD_REACTORS
330
E
102
}
330
E
100
AcDbMaterial
  1
ByLayer
  2

 70
0
 40
1.0
 71
1
 41
1.0
 91
-1023410177
 42
1.0
 72
1
  3

 73
1
 74
1
 75
1
 44
0.5
 73
0
 45
1.0
 46
1.0
 77
1
  4

 78
1
 79
1
170
1
 48
1.0
171
1
  6

172
1
173
1
174
1
140
1.0
141
1.0
175
1
  7

176
1
177
1
178
1
143
1.0
179
1
  8

270
1
271
1
272
1
145
1.0
146
1.0
273
1
  9

274
1
275
1
276
1
 42
1.0
 72
1
  3

 73
1
 74
1
 75
1
 94
63
  0
MATERIAL
  5
21
102
{ACAD_REACTORS
330
E
102
}
330
E
100
AcDbMaterial
  1
Global
  2

 70
0
 40
1.0
 71
1
 41
1.0
 91
-1023410177
 42
1.0
 72
1
  3

 73
1
 74
1
 75
1
 44
0.5
 73
0
 45
1.0
 46
1.0
 77
1
  4

 78
1
 79
1
170
1
 48
1.0
171
1
  6

172
1
173
1
174
1
140
1.0
141
1.0
175
1
  7

176
1
177
1
178
1
143
1.0
179
1
  8

270
1
271
1
272
1
145
1.0
146
1.0
273
1
  9

274
1
275
1
276
1
 42
1.0
 72
1
  3

 73
1
 74
1
 75
1
 94
63
  0
MLINESTYLE
  5
22
102
{ACAD_REACTORS
330
10
102
}
330
10
100
AcDbMlineStyle
  2
Standard
 70
0
  3

 62
256
 51
90.0
 52
90.0
 71
2
 49
0.5
 62
256
  6
BYLAYER
 49
-0.5
 62
256
  6
BYLAYER
  0
MLEADERSTYLE
  5
2C
102
{ACAD_REACTORS
330
F
102
}
330
F
100
AcDbMLeaderStyle
179
2
170
2
171
1
172
0
 90
2
 40
0.0
 41
0.0
173
1
 91
-1056964608
 92
-2
290
1
 42
2.0
291
1
 43
8.0
  3
Standard
 44
4.0
300

342
29
174
1
175
1
176
0
178
1
 93
-1056964608
 45
4.0
292
0
297
0
 46
4.0
 94
-1056964608
 47
1.0
 49
1.0
140
1.0
294
1
141
0.0
177
0
142
1.0
295
0
296
0
143
3.75
271
0
272
9
273
9
  0
DICTIONARY
  5
2D
330
A
100
AcDbDictionary
281
1
  3
CREATED_BY_EZDXF
350
2E
  3
WRITTEN_BY_EZDXF
350
31F
  0
DICTIONARYVAR
  5
2E
330
2D
100
DictionaryVariables
280
0
  1
1.1.3 @ 2024-03-06T05:55:47.200854+00:00
  0
DICTIONARYVAR
  5
31F
330
2D
100
DictionaryVariables
280
0
  1
1.1.3 @ 2024-03-06T05:55:47.274924+00:00
  0
ENDSEC
  0
EOF
