  0
SECTION
  2
HEADER
  9
$ACADVER
  1
AC1009
  9
$FILLMODE
 70
 0
  9
$SPLFRAME
 70
 1
  9
$EXTMIN
 10
0
 20
0
 30
0.0
  9
$EXTMAX
 10
1058.33
 20
1058.33
 30
0.0
  0
ENDSEC
  0
SECTION
  2
TABLES
  0
TABLE
  2
LAYER
 70
4
  0
LAYER
  2
0
 70
     0
 62
     7
  6
CONTINUOUS
  0
LAYER
  2
C00-00-00-BLACK
 70
0
 62
7
  6
CONTINUOUS
  0
LAYER
  2
CFF-FF-FF-WHITE
 70
0
 62
7
  6
CONTINUOUS
  0
ENDTAB
  0
ENDSEC
  0
SECTION
  2
ENTITIES
  0
POLYLINE
  8
C00-00-00-BLACK
 66
     1
 10
0
 20
0
 30
0.0
 70
     1
 40
2
 41
2
  0
VERTEX
  8
C00-00-00-BLACK
 10
3.57738
 20
250.472
 30
0.0
 40
0.705556
 41
0.705556
  0
VERTEX
  8
C00-00-00-BLACK
 10
41.6775
 20
250.472
 30
0.0
 40
0.705556
 41
0.705556
  0
VERTEX
  8
C00-00-00-BLACK
 10
41.6775
 20
275.872
 30
0.0
 40
0.705556
 41
0.705556
  0
VERTEX
  8
C00-00-00-BLACK
 10
3.57738
 20
275.872
 30
0.0
 40
0.705556
 41
0.705556
  0
VERTEX
  8
C00-00-00-BLACK
 10
3.57738
 20
250.472
 30
0.0
 40
0.705556
 41
0.705556
  0
SEQEND
 8
0
  0
POLYLINE
  8
C00-00-00-BLACK
 66
     1
 10
0
 20
0
 30
0.0
 70
     1
 40
2
 41
2
  0
VERTEX
  8
C00-00-00-BLACK
 10
46.2386
 20
250.472
 30
0.0
 40
0.705556
 41
0.705556
  0
VERTEX
  8
C00-00-00-BLACK
 10
84.3386
 20
250.472
 30
0.0
 40
0.705556
 41
0.705556
  0
VERTEX
  8
C00-00-00-BLACK
 10
84.3386
 20
275.872
 30
0.0
 40
0.705556
 41
0.705556
  0
VERTEX
  8
C00-00-00-BLACK
 10
46.2386
 20
275.872
 30
0.0
 40
0.705556
 41
0.705556
  0
VERTEX
  8
C00-00-00-BLACK
 10
46.2386
 20
250.472
 30
0.0
 40
0.705556
 41
0.705556
  0
SEQEND
 8
0
  0
POLYLINE
  8
C00-00-00-BLACK
 66
     1
 10
0
 20
0
 30
0.0
 70
     1
 40
2
 41
2
  0
VERTEX
  8
C00-00-00-BLACK
 10
88.9
 20
250.472
 30
0.0
 40
0.705556
 41
0.705556
  0
VERTEX
  8
C00-00-00-BLACK
 10
127
 20
250.472
 30
0.0
 40
0.705556
 41
0.705556
  0
VERTEX
  8
C00-00-00-BLACK
 10
127
 20
275.872
 30
0.0
 40
0.705556
 41
0.705556
  0
VERTEX
  8
C00-00-00-BLACK
 10
88.9
 20
275.872
 30
0.0
 40
0.705556
 41
0.705556
  0
VERTEX
  8
C00-00-00-BLACK
 10
88.9
 20
250.472
 30
0.0
 40
0.705556
 41
0.705556
  0
SEQEND
 8
0
  0
POLYLINE
  8
C00-00-00-BLACK
 66
     1
 10
0
 20
0
 30
0.0
 70
     1
 40
2
 41
2
  0
VERTEX
  8
C00-00-00-BLACK
 10
131.561
 20
250.472
 30
0.0
 40
0.705556
 41
0.705556
  0
VERTEX
  8
C00-00-00-BLACK
 10
169.661
 20
250.472
 30
0.0
 40
0.705556
 41
0.705556
  0
VERTEX
  8
C00-00-00-BLACK
 10
169.661
 20
275.872
 30
0.0
 40
0.705556
 41
0.705556
  0
VERTEX
  8
C00-00-00-BLACK
 10
131.561
 20
275.872
 30
0.0
 40
0.705556
 41
0.705556
  0
VERTEX
  8
C00-00-00-BLACK
 10
131.561
 20
250.472
 30
0.0
 40
0.705556
 41
0.705556
  0
SEQEND
 8
0
  0
POLYLINE
  8
C00-00-00-BLACK
 66
     1
 10
0
 20
0
 30
0.0
 70
     1
 40
2
 41
2
  0
VERTEX
  8
C00-00-00-BLACK
 10
174.222
 20
250.472
 30
0.0
 40
0.705556
 41
0.705556
  0
VERTEX
  8
C00-00-00-BLACK
 10
212.322
 20
250.472
 30
0.0
 40
0.705556
 41
0.705556
  0
VERTEX
  8
C00-00-00-BLACK
 10
212.322
 20
275.872
 30
0.0
 40
0.705556
 41
0.705556
  0
VERTEX
  8
C00-00-00-BLACK
 10
174.222
 20
275.872
 30
0.0
 40
0.705556
 41
0.705556
  0
VERTEX
  8
C00-00-00-BLACK
 10
174.222
 20
250.472
 30
0.0
 40
0.705556
 41
0.705556
  0
SEQEND
 8
0
  0
POLYLINE
  8
C00-00-00-BLACK
 66
     1
 10
0
 20
0
 30
0.0
 70
     1
 40
0
 41
0
  0
VERTEX
  8
C00-00-00-BLACK
 10
3.52778
 20
277.636
 30
0.0
 40
0
 41
0
  0
VERTEX
  8
C00-00-00-BLACK
 10
3.52778
 20
277.808
 30
0.0
 40
0
 41
0
  0
VERTEX
  8
C00-00-00-BLACK
 10
3.3886
 20
278.324
 30
0.0
 40
0
 41
0
  0
VERTEX
  8
C00-00-00-BLACK
 10
3.01101
 20
278.885
 30
0.0
 40
0
 41
0
  0
VERTEX
  8
C00-00-00-BLACK
 10
2.45015
 20
279.262
 30
0.0
 40
0
 41
0
  0
VERTEX
  8
C00-00-00-BLACK
 10
1.93477
 20
279.4
 30
0.0
 40
0
 41
0
  0
VERTEX
  8
C00-00-00-BLACK
 10
1.76389
 20
279.4
 30
0.0
 40
0
 41
0
  0
VERTEX
  8
C00-00-00-BLACK
 10
1.59163
 20
279.4
 30
0.0
 40
0
 41
0
  0
VERTEX
  8
C00-00-00-BLACK
 10
1.07625
 20
279.262
 30
0.0
 40
0
 41
0
  0
VERTEX
  8
C00-00-00-BLACK
 10
0.515387
 20
278.885
 30
0.0
 40
0
 41
0
  0
VERTEX
  8
C00-00-00-BLACK
 10
0.137804
 20
278.324
 30
0.0
 40
0
 41
0
  0
VERTEX
  8
C00-00-00-BLACK
 10
0
 20
277.808
 30
0.0
 40
0
 41
0
  0
VERTEX
  8
C00-00-00-BLACK
 10
0
 20
277.636
 30
0.0
 40
0
 41
0
  0
VERTEX
  8
C00-00-00-BLACK
 10
0
 20
277.465
 30
0.0
 40
0
 41
0
  0
VERTEX
  8
C00-00-00-BLACK
 10
0.137804
 20
276.95
 30
0.0
 40
0
 41
0
  0
VERTEX
  8
C00-00-00-BLACK
 10
0.515387
 20
276.389
 30
0.0
 40
0
 41
0
  0
VERTEX
  8
C00-00-00-BLACK
 10
1.07625
 20
276.012
 30
0.0
 40
0
 41
0
  0
VERTEX
  8
C00-00-00-BLACK
 10
1.59163
 20
275.872
 30
0.0
 40
0
 41
0
  0
VERTEX
  8
C00-00-00-BLACK
 10
1.76389
 20
275.872
 30
0.0
 40
0
 41
0
  0
VERTEX
  8
C00-00-00-BLACK
 10
1.93477
 20
275.872
 30
0.0
 40
0
 41
0
  0
VERTEX
  8
C00-00-00-BLACK
 10
2.45015
 20
276.012
 30
0.0
 40
0
 41
0
  0
VERTEX
  8
C00-00-00-BLACK
 10
3.01101
 20
276.389
 30
0.0
 40
0
 41
0
  0
VERTEX
  8
C00-00-00-BLACK
 10
3.3886
 20
276.95
 30
0.0
 40
0
 41
0
  0
VERTEX
  8
C00-00-00-BLACK
 10
3.52778
 20
277.465
 30
0.0
 40
0
 41
0
  0
VERTEX
  8
C00-00-00-BLACK
 10
3.52778
 20
277.636
 30
0.0
 40
0
 41
0
  0
SEQEND
 8
0
  0
POLYLINE
  8
C00-00-00-BLACK
 66
     1
 10
0
 20
0
 30
0.0
 70
     1
 40
0
 41
0
  0
VERTEX
  8
C00-00-00-BLACK
 10
215.9
 20
277.636
 30
0.0
 40
0
 41
0
  0
VERTEX
  8
C00-00-00-BLACK
 10
215.9
 20
277.808
 30
0.0
 40
0
 41
0
  0
VERTEX
  8
C00-00-00-BLACK
 10
215.761
 20
278.324
 30
0.0
 40
0
 41
0
  0
VERTEX
  8
C00-00-00-BLACK
 10
215.383
 20
278.885
 30
0.0
 40
0
 41
0
  0
VERTEX
  8
C00-00-00-BLACK
 10
214.822
 20
279.262
 30
0.0
 40
0
 41
0
  0
VERTEX
  8
C00-00-00-BLACK
 10
214.307
 20
279.4
 30
0.0
 40
0
 41
0
  0
VERTEX
  8
C00-00-00-BLACK
 10
214.136
 20
279.4
 30
0.0
 40
0
 41
0
  0
VERTEX
  8
C00-00-00-BLACK
 10
213.964
 20
279.4
 30
0.0
 40
0
 41
0
  0
VERTEX
  8
C00-00-00-BLACK
 10
213.449
 20
279.262
 30
0.0
 40
0
 41
0
  0
VERTEX
  8
C00-00-00-BLACK
 10
212.888
 20
278.885
 30
0.0
 40
0
 41
0
  0
VERTEX
  8
C00-00-00-BLACK
 10
212.51
 20
278.324
 30
0.0
 40
0
 41
0
  0
VERTEX
  8
C00-00-00-BLACK
 10
212.372
 20
277.808
 30
0.0
 40
0
 41
0
  0
VERTEX
  8
C00-00-00-BLACK
 10
212.372
 20
277.636
 30
0.0
 40
0
 41
0
  0
VERTEX
  8
C00-00-00-BLACK
 10
212.372
 20
277.465
 30
0.0
 40
0
 41
0
  0
VERTEX
  8
C00-00-00-BLACK
 10
212.51
 20
276.95
 30
0.0
 40
0
 41
0
  0
VERTEX
  8
C00-00-00-BLACK
 10
212.888
 20
276.389
 30
0.0
 40
0
 41
0
  0
VERTEX
  8
C00-00-00-BLACK
 10
213.449
 20
276.012
 30
0.0
 40
0
 41
0
  0
VERTEX
  8
C00-00-00-BLACK
 10
213.964
 20
275.872
 30
0.0
 40
0
 41
0
  0
VERTEX
  8
C00-00-00-BLACK
 10
214.136
 20
275.872
 30
0.0
 40
0
 41
0
  0
VERTEX
  8
C00-00-00-BLACK
 10
214.307
 20
275.872
 30
0.0
 40
0
 41
0
  0
VERTEX
  8
C00-00-00-BLACK
 10
214.822
 20
276.012
 30
0.0
 40
0
 41
0
  0
VERTEX
  8
C00-00-00-BLACK
 10
215.383
 20
276.389
 30
0.0
 40
0
 41
0
  0
VERTEX
  8
C00-00-00-BLACK
 10
215.761
 20
276.95
 30
0.0
 40
0
 41
0
  0
VERTEX
  8
C00-00-00-BLACK
 10
215.9
 20
277.465
 30
0.0
 40
0
 41
0
  0
VERTEX
  8
C00-00-00-BLACK
 10
215.9
 20
277.636
 30
0.0
 40
0
 41
0
  0
SEQEND
 8
0
  0
POLYLINE
  8
C00-00-00-BLACK
 66
     1
 10
0
 20
0
 30
0.0
 70
     1
 40
0
 41
0
  0
VERTEX
  8
C00-00-00-BLACK
 10
3.52778
 20
1.76389
 30
0.0
 40
0
 41
0
  0
VERTEX
  8
C00-00-00-BLACK
 10
3.52778
 20
1.93614
 30
0.0
 40
0
 41
0
  0
VERTEX
  8
C00-00-00-BLACK
 10
3.3886
 20
2.45153
 30
0.0
 40
0
 41
0
  0
VERTEX
  8
C00-00-00-BLACK
 10
3.01101
 20
3.01239
 30
0.0
 40
0
 41
0
  0
VERTEX
  8
C00-00-00-BLACK
 10
2.45015
 20
3.38998
 30
0.0
 40
0
 41
0
  0
VERTEX
  8
C00-00-00-BLACK
 10
1.93477
 20
3.52778
 30
0.0
 40
0
 41
0
  0
VERTEX
  8
C00-00-00-BLACK
 10
1.76389
 20
3.52778
 30
0.0
 40
0
 41
0
  0
VERTEX
  8
C00-00-00-BLACK
 10
1.59163
 20
3.52778
 30
0.0
 40
0
 41
0
  0
VERTEX
  8
C00-00-00-BLACK
 10
1.07625
 20
3.38998
 30
0.0
 40
0
 41
0
  0
VERTEX
  8
C00-00-00-BLACK
 10
0.515387
 20
3.01239
 30
0.0
 40
0
 41
0
  0
VERTEX
  8
C00-00-00-BLACK
 10
0.137804
 20
2.45153
 30
0.0
 40
0
 41
0
  0
VERTEX
  8
C00-00-00-BLACK
 10
0
 20
1.93614
 30
0.0
 40
0
 41
0
  0
VERTEX
  8
C00-00-00-BLACK
 10
0
 20
1.76389
 30
0.0
 40
0
 41
0
  0
VERTEX
  8
C00-00-00-BLACK
 10
0
 20
1.59301
 30
0.0
 40
0
 41
0
  0
VERTEX
  8
C00-00-00-BLACK
 10
0.137804
 20
1.07763
 30
0.0
 40
0
 41
0
  0
VERTEX
  8
C00-00-00-BLACK
 10
0.515387
 20
0.516763
 30
0.0
 40
0
 41
0
  0
VERTEX
  8
C00-00-00-BLACK
 10
1.07625
 20
0.139182
 30
0.0
 40
0
 41
0
  0
VERTEX
  8
C00-00-00-BLACK
 10
1.59163
 20
0
 30
0.0
 40
0
 41
0
  0
VERTEX
  8
C00-00-00-BLACK
 10
1.76389
 20
0
 30
0.0
 40
0
 41
0
  0
VERTEX
  8
C00-00-00-BLACK
 10
1.93477
 20
0
 30
0.0
 40
0
 41
0
  0
VERTEX
  8
C00-00-00-BLACK
 10
2.45015
 20
0.139182
 30
0.0
 40
0
 41
0
  0
VERTEX
  8
C00-00-00-BLACK
 10
3.01101
 20
0.516763
 30
0.0
 40
0
 41
0
  0
VERTEX
  8
C00-00-00-BLACK
 10
3.3886
 20
1.07763
 30
0.0
 40
0
 41
0
  0
VERTEX
  8
C00-00-00-BLACK
 10
3.52778
 20
1.59301
 30
0.0
 40
0
 41
0
  0
VERTEX
  8
C00-00-00-BLACK
 10
3.52778
 20
1.76389
 30
0.0
 40
0
 41
0
  0
SEQEND
 8
0
  0
POLYLINE
  8
C00-00-00-BLACK
 66
     1
 10
0
 20
0
 30
0.0
 70
     1
 40
0
 41
0
  0
VERTEX
  8
C00-00-00-BLACK
 10
215.9
 20
1.76389
 30
0.0
 40
0
 41
0
  0
VERTEX
  8
C00-00-00-BLACK
 10
215.9
 20
1.93614
 30
0.0
 40
0
 41
0
  0
VERTEX
  8
C00-00-00-BLACK
 10
215.761
 20
2.45153
 30
0.0
 40
0
 41
0
  0
VERTEX
  8
C00-00-00-BLACK
 10
215.383
 20
3.01239
 30
0.0
 40
0
 41
0
  0
VERTEX
  8
C00-00-00-BLACK
 10
214.822
 20
3.38998
 30
0.0
 40
0
 41
0
  0
VERTEX
  8
C00-00-00-BLACK
 10
214.307
 20
3.52778
 30
0.0
 40
0
 41
0
  0
VERTEX
  8
C00-00-00-BLACK
 10
214.136
 20
3.52778
 30
0.0
 40
0
 41
0
  0
VERTEX
  8
C00-00-00-BLACK
 10
213.964
 20
3.52778
 30
0.0
 40
0
 41
0
  0
VERTEX
  8
C00-00-00-BLACK
 10
213.449
 20
3.38998
 30
0.0
 40
0
 41
0
  0
VERTEX
  8
C00-00-00-BLACK
 10
212.888
 20
3.01239
 30
0.0
 40
0
 41
0
  0
VERTEX
  8
C00-00-00-BLACK
 10
212.51
 20
2.45153
 30
0.0
 40
0
 41
0
  0
VERTEX
  8
C00-00-00-BLACK
 10
212.372
 20
1.93614
 30
0.0
 40
0
 41
0
  0
VERTEX
  8
C00-00-00-BLACK
 10
212.372
 20
1.76389
 30
0.0
 40
0
 41
0
  0
VERTEX
  8
C00-00-00-BLACK
 10
212.372
 20
1.59301
 30
0.0
 40
0
 41
0
  0
VERTEX
  8
C00-00-00-BLACK
 10
212.51
 20
1.07763
 30
0.0
 40
0
 41
0
  0
VERTEX
  8
C00-00-00-BLACK
 10
212.888
 20
0.516763
 30
0.0
 40
0
 41
0
  0
VERTEX
  8
C00-00-00-BLACK
 10
213.449
 20
0.139182
 30
0.0
 40
0
 41
0
  0
VERTEX
  8
C00-00-00-BLACK
 10
213.964
 20
0
 30
0.0
 40
0
 41
0
  0
VERTEX
  8
C00-00-00-BLACK
 10
214.136
 20
0
 30
0.0
 40
0
 41
0
  0
VERTEX
  8
C00-00-00-BLACK
 10
214.307
 20
0
 30
0.0
 40
0
 41
0
  0
VERTEX
  8
C00-00-00-BLACK
 10
214.822
 20
0.139182
 30
0.0
 40
0
 41
0
  0
VERTEX
  8
C00-00-00-BLACK
 10
215.383
 20
0.516763
 30
0.0
 40
0
 41
0
  0
VERTEX
  8
C00-00-00-BLACK
 10
215.761
 20
1.07763
 30
0.0
 40
0
 41
0
  0
VERTEX
  8
C00-00-00-BLACK
 10
215.9
 20
1.59301
 30
0.0
 40
0
 41
0
  0
VERTEX
  8
C00-00-00-BLACK
 10
215.9
 20
1.76389
 30
0.0
 40
0
 41
0
  0
SEQEND
 8
0
  0
POLYLINE
  8
C00-00-00-BLACK
 66
     1
 10
0
 20
0
 30
0.0
 70
     1
 40
2
 41
2
  0
VERTEX
  8
C00-00-00-BLACK
 10
3.57738
 20
225.072
 30
0.0
 40
0.705556
 41
0.705556
  0
VERTEX
  8
C00-00-00-BLACK
 10
41.6775
 20
225.072
 30
0.0
 40
0.705556
 41
0.705556
  0
VERTEX
  8
C00-00-00-BLACK
 10
41.6775
 20
250.472
 30
0.0
 40
0.705556
 41
0.705556
  0
VERTEX
  8
C00-00-00-BLACK
 10
3.57738
 20
250.472
 30
0.0
 40
0.705556
 41
0.705556
  0
VERTEX
  8
C00-00-00-BLACK
 10
3.57738
 20
225.072
 30
0.0
 40
0.705556
 41
0.705556
  0
SEQEND
 8
0
  0
POLYLINE
  8
C00-00-00-BLACK
 66
     1
 10
0
 20
0
 30
0.0
 70
     1
 40
2
 41
2
  0
VERTEX
  8
C00-00-00-BLACK
 10
46.2386
 20
225.072
 30
0.0
 40
0.705556
 41
0.705556
  0
VERTEX
  8
C00-00-00-BLACK
 10
84.3386
 20
225.072
 30
0.0
 40
0.705556
 41
0.705556
  0
VERTEX
  8
C00-00-00-BLACK
 10
84.3386
 20
250.472
 30
0.0
 40
0.705556
 41
0.705556
  0
VERTEX
  8
C00-00-00-BLACK
 10
46.2386
 20
250.472
 30
0.0
 40
0.705556
 41
0.705556
  0
VERTEX
  8
C00-00-00-BLACK
 10
46.2386
 20
225.072
 30
0.0
 40
0.705556
 41
0.705556
  0
SEQEND
 8
0
  0
POLYLINE
  8
C00-00-00-BLACK
 66
     1
 10
0
 20
0
 30
0.0
 70
     1
 40
2
 41
2
  0
VERTEX
  8
C00-00-00-BLACK
 10
88.9
 20
225.072
 30
0.0
 40
0.705556
 41
0.705556
  0
VERTEX
  8
C00-00-00-BLACK
 10
127
 20
225.072
 30
0.0
 40
0.705556
 41
0.705556
  0
VERTEX
  8
C00-00-00-BLACK
 10
127
 20
250.472
 30
0.0
 40
0.705556
 41
0.705556
  0
VERTEX
  8
C00-00-00-BLACK
 10
88.9
 20
250.472
 30
0.0
 40
0.705556
 41
0.705556
  0
VERTEX
  8
C00-00-00-BLACK
 10
88.9
 20
225.072
 30
0.0
 40
0.705556
 41
0.705556
  0
SEQEND
 8
0
  0
POLYLINE
  8
C00-00-00-BLACK
 66
     1
 10
0
 20
0
 30
0.0
 70
     1
 40
2
 41
2
  0
VERTEX
  8
C00-00-00-BLACK
 10
131.561
 20
225.072
 30
0.0
 40
0.705556
 41
0.705556
  0
VERTEX
  8
C00-00-00-BLACK
 10
169.661
 20
225.072
 30
0.0
 40
0.705556
 41
0.705556
  0
VERTEX
  8
C00-00-00-BLACK
 10
169.661
 20
250.472
 30
0.0
 40
0.705556
 41
0.705556
  0
VERTEX
  8
C00-00-00-BLACK
 10
131.561
 20
250.472
 30
0.0
 40
0.705556
 41
0.705556
  0
VERTEX
  8
C00-00-00-BLACK
 10
131.561
 20
225.072
 30
0.0
 40
0.705556
 41
0.705556
  0
SEQEND
 8
0
  0
POLYLINE
  8
C00-00-00-BLACK
 66
     1
 10
0
 20
0
 30
0.0
 70
     1
 40
2
 41
2
  0
VERTEX
  8
C00-00-00-BLACK
 10
174.222
 20
225.072
 30
0.0
 40
0.705556
 41
0.705556
  0
VERTEX
  8
C00-00-00-BLACK
 10
212.322
 20
225.072
 30
0.0
 40
0.705556
 41
0.705556
  0
VERTEX
  8
C00-00-00-BLACK
 10
212.322
 20
250.472
 30
0.0
 40
0.705556
 41
0.705556
  0
VERTEX
  8
C00-00-00-BLACK
 10
174.222
 20
250.472
 30
0.0
 40
0.705556
 41
0.705556
  0
VERTEX
  8
C00-00-00-BLACK
 10
174.222
 20
225.072
 30
0.0
 40
0.705556
 41
0.705556
  0
SEQEND
 8
0
  0
POLYLINE
  8
C00-00-00-BLACK
 66
     1
 10
0
 20
0
 30
0.0
 70
     1
 40
0
 41
0
  0
VERTEX
  8
C00-00-00-BLACK
 10
3.52778
 20
277.636
 30
0.0
 40
0
 41
0
  0
VERTEX
  8
C00-00-00-BLACK
 10
3.52778
 20
277.808
 30
0.0
 40
0
 41
0
  0
VERTEX
  8
C00-00-00-BLACK
 10
3.3886
 20
278.324
 30
0.0
 40
0
 41
0
  0
VERTEX
  8
C00-00-00-BLACK
 10
3.01101
 20
278.885
 30
0.0
 40
0
 41
0
  0
VERTEX
  8
C00-00-00-BLACK
 10
2.45015
 20
279.262
 30
0.0
 40
0
 41
0
  0
VERTEX
  8
C00-00-00-BLACK
 10
1.93477
 20
279.4
 30
0.0
 40
0
 41
0
  0
VERTEX
  8
C00-00-00-BLACK
 10
1.76389
 20
279.4
 30
0.0
 40
0
 41
0
  0
VERTEX
  8
C00-00-00-BLACK
 10
1.59163
 20
279.4
 30
0.0
 40
0
 41
0
  0
VERTEX
  8
C00-00-00-BLACK
 10
1.07625
 20
279.262
 30
0.0
 40
0
 41
0
  0
VERTEX
  8
C00-00-00-BLACK
 10
0.515387
 20
278.885
 30
0.0
 40
0
 41
0
  0
VERTEX
  8
C00-00-00-BLACK
 10
0.137804
 20
278.324
 30
0.0
 40
0
 41
0
  0
VERTEX
  8
C00-00-00-BLACK
 10
0
 20
277.808
 30
0.0
 40
0
 41
0
  0
VERTEX
  8
C00-00-00-BLACK
 10
0
 20
277.636
 30
0.0
 40
0
 41
0
  0
VERTEX
  8
C00-00-00-BLACK
 10
0
 20
277.465
 30
0.0
 40
0
 41
0
  0
VERTEX
  8
C00-00-00-BLACK
 10
0.137804
 20
276.95
 30
0.0
 40
0
 41
0
  0
VERTEX
  8
C00-00-00-BLACK
 10
0.515387
 20
276.389
 30
0.0
 40
0
 41
0
  0
VERTEX
  8
C00-00-00-BLACK
 10
1.07625
 20
276.012
 30
0.0
 40
0
 41
0
  0
VERTEX
  8
C00-00-00-BLACK
 10
1.59163
 20
275.872
 30
0.0
 40
0
 41
0
  0
VERTEX
  8
C00-00-00-BLACK
 10
1.76389
 20
275.872
 30
0.0
 40
0
 41
0
  0
VERTEX
  8
C00-00-00-BLACK
 10
1.93477
 20
275.872
 30
0.0
 40
0
 41
0
  0
VERTEX
  8
C00-00-00-BLACK
 10
2.45015
 20
276.012
 30
0.0
 40
0
 41
0
  0
VERTEX
  8
C00-00-00-BLACK
 10
3.01101
 20
276.389
 30
0.0
 40
0
 41
0
  0
VERTEX
  8
C00-00-00-BLACK
 10
3.3886
 20
276.95
 30
0.0
 40
0
 41
0
  0
VERTEX
  8
C00-00-00-BLACK
 10
3.52778
 20
277.465
 30
0.0
 40
0
 41
0
  0
VERTEX
  8
C00-00-00-BLACK
 10
3.52778
 20
277.636
 30
0.0
 40
0
 41
0
  0
SEQEND
 8
0
  0
POLYLINE
  8
C00-00-00-BLACK
 66
     1
 10
0
 20
0
 30
0.0
 70
     1
 40
0
 41
0
  0
VERTEX
  8
C00-00-00-BLACK
 10
215.9
 20
277.636
 30
0.0
 40
0
 41
0
  0
VERTEX
  8
C00-00-00-BLACK
 10
215.9
 20
277.808
 30
0.0
 40
0
 41
0
  0
VERTEX
  8
C00-00-00-BLACK
 10
215.761
 20
278.324
 30
0.0
 40
0
 41
0
  0
VERTEX
  8
C00-00-00-BLACK
 10
215.383
 20
278.885
 30
0.0
 40
0
 41
0
  0
VERTEX
  8
C00-00-00-BLACK
 10
214.822
 20
279.262
 30
0.0
 40
0
 41
0
  0
VERTEX
  8
C00-00-00-BLACK
 10
214.307
 20
279.4
 30
0.0
 40
0
 41
0
  0
VERTEX
  8
C00-00-00-BLACK
 10
214.136
 20
279.4
 30
0.0
 40
0
 41
0
  0
VERTEX
  8
C00-00-00-BLACK
 10
213.964
 20
279.4
 30
0.0
 40
0
 41
0
  0
VERTEX
  8
C00-00-00-BLACK
 10
213.449
 20
279.262
 30
0.0
 40
0
 41
0
  0
VERTEX
  8
C00-00-00-BLACK
 10
212.888
 20
278.885
 30
0.0
 40
0
 41
0
  0
VERTEX
  8
C00-00-00-BLACK
 10
212.51
 20
278.324
 30
0.0
 40
0
 41
0
  0
VERTEX
  8
C00-00-00-BLACK
 10
212.372
 20
277.808
 30
0.0
 40
0
 41
0
  0
VERTEX
  8
C00-00-00-BLACK
 10
212.372
 20
277.636
 30
0.0
 40
0
 41
0
  0
VERTEX
  8
C00-00-00-BLACK
 10
212.372
 20
277.465
 30
0.0
 40
0
 41
0
  0
VERTEX
  8
C00-00-00-BLACK
 10
212.51
 20
276.95
 30
0.0
 40
0
 41
0
  0
VERTEX
  8
C00-00-00-BLACK
 10
212.888
 20
276.389
 30
0.0
 40
0
 41
0
  0
VERTEX
  8
C00-00-00-BLACK
 10
213.449
 20
276.012
 30
0.0
 40
0
 41
0
  0
VERTEX
  8
C00-00-00-BLACK
 10
213.964
 20
275.872
 30
0.0
 40
0
 41
0
  0
VERTEX
  8
C00-00-00-BLACK
 10
214.136
 20
275.872
 30
0.0
 40
0
 41
0
  0
VERTEX
  8
C00-00-00-BLACK
 10
214.307
 20
275.872
 30
0.0
 40
0
 41
0
  0
VERTEX
  8
C00-00-00-BLACK
 10
214.822
 20
276.012
 30
0.0
 40
0
 41
0
  0
VERTEX
  8
C00-00-00-BLACK
 10
215.383
 20
276.389
 30
0.0
 40
0
 41
0
  0
VERTEX
  8
C00-00-00-BLACK
 10
215.761
 20
276.95
 30
0.0
 40
0
 41
0
  0
VERTEX
  8
C00-00-00-BLACK
 10
215.9
 20
277.465
 30
0.0
 40
0
 41
0
  0
VERTEX
  8
C00-00-00-BLACK
 10
215.9
 20
277.636
 30
0.0
 40
0
 41
0
  0
SEQEND
 8
0
  0
POLYLINE
  8
C00-00-00-BLACK
 66
     1
 10
0
 20
0
 30
0.0
 70
     1
 40
0
 41
0
  0
VERTEX
  8
C00-00-00-BLACK
 10
3.52778
 20
1.76389
 30
0.0
 40
0
 41
0
  0
VERTEX
  8
C00-00-00-BLACK
 10
3.52778
 20
1.93614
 30
0.0
 40
0
 41
0
  0
VERTEX
  8
C00-00-00-BLACK
 10
3.3886
 20
2.45153
 30
0.0
 40
0
 41
0
  0
VERTEX
  8
C00-00-00-BLACK
 10
3.01101
 20
3.01239
 30
0.0
 40
0
 41
0
  0
VERTEX
  8
C00-00-00-BLACK
 10
2.45015
 20
3.38998
 30
0.0
 40
0
 41
0
  0
VERTEX
  8
C00-00-00-BLACK
 10
1.93477
 20
3.52778
 30
0.0
 40
0
 41
0
  0
VERTEX
  8
C00-00-00-BLACK
 10
1.76389
 20
3.52778
 30
0.0
 40
0
 41
0
  0
VERTEX
  8
C00-00-00-BLACK
 10
1.59163
 20
3.52778
 30
0.0
 40
0
 41
0
  0
VERTEX
  8
C00-00-00-BLACK
 10
1.07625
 20
3.38998
 30
0.0
 40
0
 41
0
  0
VERTEX
  8
C00-00-00-BLACK
 10
0.515387
 20
3.01239
 30
0.0
 40
0
 41
0
  0
VERTEX
  8
C00-00-00-BLACK
 10
0.137804
 20
2.45153
 30
0.0
 40
0
 41
0
  0
VERTEX
  8
C00-00-00-BLACK
 10
0
 20
1.93614
 30
0.0
 40
0
 41
0
  0
VERTEX
  8
C00-00-00-BLACK
 10
0
 20
1.76389
 30
0.0
 40
0
 41
0
  0
VERTEX
  8
C00-00-00-BLACK
 10
0
 20
1.59301
 30
0.0
 40
0
 41
0
  0
VERTEX
  8
C00-00-00-BLACK
 10
0.137804
 20
1.07763
 30
0.0
 40
0
 41
0
  0
VERTEX
  8
C00-00-00-BLACK
 10
0.515387
 20
0.516763
 30
0.0
 40
0
 41
0
  0
VERTEX
  8
C00-00-00-BLACK
 10
1.07625
 20
0.139182
 30
0.0
 40
0
 41
0
  0
VERTEX
  8
C00-00-00-BLACK
 10
1.59163
 20
0
 30
0.0
 40
0
 41
0
  0
VERTEX
  8
C00-00-00-BLACK
 10
1.76389
 20
0
 30
0.0
 40
0
 41
0
  0
VERTEX
  8
C00-00-00-BLACK
 10
1.93477
 20
0
 30
0.0
 40
0
 41
0
  0
VERTEX
  8
C00-00-00-BLACK
 10
2.45015
 20
0.139182
 30
0.0
 40
0
 41
0
  0
VERTEX
  8
C00-00-00-BLACK
 10
3.01101
 20
0.516763
 30
0.0
 40
0
 41
0
  0
VERTEX
  8
C00-00-00-BLACK
 10
3.3886
 20
1.07763
 30
0.0
 40
0
 41
0
  0
VERTEX
  8
C00-00-00-BLACK
 10
3.52778
 20
1.59301
 30
0.0
 40
0
 41
0
  0
VERTEX
  8
C00-00-00-BLACK
 10
3.52778
 20
1.76389
 30
0.0
 40
0
 41
0
  0
SEQEND
 8
0
  0
POLYLINE
  8
C00-00-00-BLACK
 66
     1
 10
0
 20
0
 30
0.0
 70
     1
 40
0
 41
0
  0
VERTEX
  8
C00-00-00-BLACK
 10
215.9
 20
1.76389
 30
0.0
 40
0
 41
0
  0
VERTEX
  8
C00-00-00-BLACK
 10
215.9
 20
1.93614
 30
0.0
 40
0
 41
0
  0
VERTEX
  8
C00-00-00-BLACK
 10
215.761
 20
2.45153
 30
0.0
 40
0
 41
0
  0
VERTEX
  8
C00-00-00-BLACK
 10
215.383
 20
3.01239
 30
0.0
 40
0
 41
0
  0
VERTEX
  8
C00-00-00-BLACK
 10
214.822
 20
3.38998
 30
0.0
 40
0
 41
0
  0
VERTEX
  8
C00-00-00-BLACK
 10
214.307
 20
3.52778
 30
0.0
 40
0
 41
0
  0
VERTEX
  8
C00-00-00-BLACK
 10
214.136
 20
3.52778
 30
0.0
 40
0
 41
0
  0
VERTEX
  8
C00-00-00-BLACK
 10
213.964
 20
3.52778
 30
0.0
 40
0
 41
0
  0
VERTEX
  8
C00-00-00-BLACK
 10
213.449
 20
3.38998
 30
0.0
 40
0
 41
0
  0
VERTEX
  8
C00-00-00-BLACK
 10
212.888
 20
3.01239
 30
0.0
 40
0
 41
0
  0
VERTEX
  8
C00-00-00-BLACK
 10
212.51
 20
2.45153
 30
0.0
 40
0
 41
0
  0
VERTEX
  8
C00-00-00-BLACK
 10
212.372
 20
1.93614
 30
0.0
 40
0
 41
0
  0
VERTEX
  8
C00-00-00-BLACK
 10
212.372
 20
1.76389
 30
0.0
 40
0
 41
0
  0
VERTEX
  8
C00-00-00-BLACK
 10
212.372
 20
1.59301
 30
0.0
 40
0
 41
0
  0
VERTEX
  8
C00-00-00-BLACK
 10
212.51
 20
1.07763
 30
0.0
 40
0
 41
0
  0
VERTEX
  8
C00-00-00-BLACK
 10
212.888
 20
0.516763
 30
0.0
 40
0
 41
0
  0
VERTEX
  8
C00-00-00-BLACK
 10
213.449
 20
0.139182
 30
0.0
 40
0
 41
0
  0
VERTEX
  8
C00-00-00-BLACK
 10
213.964
 20
0
 30
0.0
 40
0
 41
0
  0
VERTEX
  8
C00-00-00-BLACK
 10
214.136
 20
0
 30
0.0
 40
0
 41
0
  0
VERTEX
  8
C00-00-00-BLACK
 10
214.307
 20
0
 30
0.0
 40
0
 41
0
  0
VERTEX
  8
C00-00-00-BLACK
 10
214.822
 20
0.139182
 30
0.0
 40
0
 41
0
  0
VERTEX
  8
C00-00-00-BLACK
 10
215.383
 20
0.516763
 30
0.0
 40
0
 41
0
  0
VERTEX
  8
C00-00-00-BLACK
 10
215.761
 20
1.07763
 30
0.0
 40
0
 41
0
  0
VERTEX
  8
C00-00-00-BLACK
 10
215.9
 20
1.59301
 30
0.0
 40
0
 41
0
  0
VERTEX
  8
C00-00-00-BLACK
 10
215.9
 20
1.76389
 30
0.0
 40
0
 41
0
  0
SEQEND
 8
0
  0
POLYLINE
  8
C00-00-00-BLACK
 66
     1
 10
0
 20
0
 30
0.0
 70
     1
 40
2
 41
2
  0
VERTEX
  8
C00-00-00-BLACK
 10
3.57738
 20
199.672
 30
0.0
 40
0.705556
 41
0.705556
  0
VERTEX
  8
C00-00-00-BLACK
 10
41.6775
 20
199.672
 30
0.0
 40
0.705556
 41
0.705556
  0
VERTEX
  8
C00-00-00-BLACK
 10
41.6775
 20
225.072
 30
0.0
 40
0.705556
 41
0.705556
  0
VERTEX
  8
C00-00-00-BLACK
 10
3.57738
 20
225.072
 30
0.0
 40
0.705556
 41
0.705556
  0
VERTEX
  8
C00-00-00-BLACK
 10
3.57738
 20
199.672
 30
0.0
 40
0.705556
 41
0.705556
  0
SEQEND
 8
0
  0
POLYLINE
  8
C00-00-00-BLACK
 66
     1
 10
0
 20
0
 30
0.0
 70
     1
 40
2
 41
2
  0
VERTEX
  8
C00-00-00-BLACK
 10
46.2386
 20
199.672
 30
0.0
 40
0.705556
 41
0.705556
  0
VERTEX
  8
C00-00-00-BLACK
 10
84.3386
 20
199.672
 30
0.0
 40
0.705556
 41
0.705556
  0
VERTEX
  8
C00-00-00-BLACK
 10
84.3386
 20
225.072
 30
0.0
 40
0.705556
 41
0.705556
  0
VERTEX
  8
C00-00-00-BLACK
 10
46.2386
 20
225.072
 30
0.0
 40
0.705556
 41
0.705556
  0
VERTEX
  8
C00-00-00-BLACK
 10
46.2386
 20
199.672
 30
0.0
 40
0.705556
 41
0.705556
  0
SEQEND
 8
0
  0
POLYLINE
  8
C00-00-00-BLACK
 66
     1
 10
0
 20
0
 30
0.0
 70
     1
 40
2
 41
2
  0
VERTEX
  8
C00-00-00-BLACK
 10
88.9
 20
199.672
 30
0.0
 40
0.705556
 41
0.705556
  0
VERTEX
  8
C00-00-00-BLACK
 10
127
 20
199.672
 30
0.0
 40
0.705556
 41
0.705556
  0
VERTEX
  8
C00-00-00-BLACK
 10
127
 20
225.072
 30
0.0
 40
0.705556
 41
0.705556
  0
VERTEX
  8
C00-00-00-BLACK
 10
88.9
 20
225.072
 30
0.0
 40
0.705556
 41
0.705556
  0
VERTEX
  8
C00-00-00-BLACK
 10
88.9
 20
199.672
 30
0.0
 40
0.705556
 41
0.705556
  0
SEQEND
 8
0
  0
POLYLINE
  8
C00-00-00-BLACK
 66
     1
 10
0
 20
0
 30
0.0
 70
     1
 40
2
 41
2
  0
VERTEX
  8
C00-00-00-BLACK
 10
131.561
 20
199.672
 30
0.0
 40
0.705556
 41
0.705556
  0
VERTEX
  8
C00-00-00-BLACK
 10
169.661
 20
199.672
 30
0.0
 40
0.705556
 41
0.705556
  0
VERTEX
  8
C00-00-00-BLACK
 10
169.661
 20
225.072
 30
0.0
 40
0.705556
 41
0.705556
  0
VERTEX
  8
C00-00-00-BLACK
 10
131.561
 20
225.072
 30
0.0
 40
0.705556
 41
0.705556
  0
VERTEX
  8
C00-00-00-BLACK
 10
131.561
 20
199.672
 30
0.0
 40
0.705556
 41
0.705556
  0
SEQEND
 8
0
  0
POLYLINE
  8
C00-00-00-BLACK
 66
     1
 10
0
 20
0
 30
0.0
 70
     1
 40
2
 41
2
  0
VERTEX
  8
C00-00-00-BLACK
 10
174.222
 20
199.672
 30
0.0
 40
0.705556
 41
0.705556
  0
VERTEX
  8
C00-00-00-BLACK
 10
212.322
 20
199.672
 30
0.0
 40
0.705556
 41
0.705556
  0
VERTEX
  8
C00-00-00-BLACK
 10
212.322
 20
225.072
 30
0.0
 40
0.705556
 41
0.705556
  0
VERTEX
  8
C00-00-00-BLACK
 10
174.222
 20
225.072
 30
0.0
 40
0.705556
 41
0.705556
  0
VERTEX
  8
C00-00-00-BLACK
 10
174.222
 20
199.672
 30
0.0
 40
0.705556
 41
0.705556
  0
SEQEND
 8
0
  0
POLYLINE
  8
C00-00-00-BLACK
 66
     1
 10
0
 20
0
 30
0.0
 70
     1
 40
0
 41
0
  0
VERTEX
  8
C00-00-00-BLACK
 10
3.52778
 20
277.636
 30
0.0
 40
0
 41
0
  0
VERTEX
  8
C00-00-00-BLACK
 10
3.52778
 20
277.808
 30
0.0
 40
0
 41
0
  0
VERTEX
  8
C00-00-00-BLACK
 10
3.3886
 20
278.324
 30
0.0
 40
0
 41
0
  0
VERTEX
  8
C00-00-00-BLACK
 10
3.01101
 20
278.885
 30
0.0
 40
0
 41
0
  0
VERTEX
  8
C00-00-00-BLACK
 10
2.45015
 20
279.262
 30
0.0
 40
0
 41
0
  0
VERTEX
  8
C00-00-00-BLACK
 10
1.93477
 20
279.4
 30
0.0
 40
0
 41
0
  0
VERTEX
  8
C00-00-00-BLACK
 10
1.76389
 20
279.4
 30
0.0
 40
0
 41
0
  0
VERTEX
  8
C00-00-00-BLACK
 10
1.59163
 20
279.4
 30
0.0
 40
0
 41
0
  0
VERTEX
  8
C00-00-00-BLACK
 10
1.07625
 20
279.262
 30
0.0
 40
0
 41
0
  0
VERTEX
  8
C00-00-00-BLACK
 10
0.515387
 20
278.885
 30
0.0
 40
0
 41
0
  0
VERTEX
  8
C00-00-00-BLACK
 10
0.137804
 20
278.324
 30
0.0
 40
0
 41
0
  0
VERTEX
  8
C00-00-00-BLACK
 10
0
 20
277.808
 30
0.0
 40
0
 41
0
  0
VERTEX
  8
C00-00-00-BLACK
 10
0
 20
277.636
 30
0.0
 40
0
 41
0
  0
VERTEX
  8
C00-00-00-BLACK
 10
0
 20
277.465
 30
0.0
 40
0
 41
0
  0
VERTEX
  8
C00-00-00-BLACK
 10
0.137804
 20
276.95
 30
0.0
 40
0
 41
0
  0
VERTEX
  8
C00-00-00-BLACK
 10
0.515387
 20
276.389
 30
0.0
 40
0
 41
0
  0
VERTEX
  8
C00-00-00-BLACK
 10
1.07625
 20
276.012
 30
0.0
 40
0
 41
0
  0
VERTEX
  8
C00-00-00-BLACK
 10
1.59163
 20
275.872
 30
0.0
 40
0
 41
0
  0
VERTEX
  8
C00-00-00-BLACK
 10
1.76389
 20
275.872
 30
0.0
 40
0
 41
0
  0
VERTEX
  8
C00-00-00-BLACK
 10
1.93477
 20
275.872
 30
0.0
 40
0
 41
0
  0
VERTEX
  8
C00-00-00-BLACK
 10
2.45015
 20
276.012
 30
0.0
 40
0
 41
0
  0
VERTEX
  8
C00-00-00-BLACK
 10
3.01101
 20
276.389
 30
0.0
 40
0
 41
0
  0
VERTEX
  8
C00-00-00-BLACK
 10
3.3886
 20
276.95
 30
0.0
 40
0
 41
0
  0
VERTEX
  8
C00-00-00-BLACK
 10
3.52778
 20
277.465
 30
0.0
 40
0
 41
0
  0
VERTEX
  8
C00-00-00-BLACK
 10
3.52778
 20
277.636
 30
0.0
 40
0
 41
0
  0
SEQEND
 8
0
  0
POLYLINE
  8
C00-00-00-BLACK
 66
     1
 10
0
 20
0
 30
0.0
 70
     1
 40
0
 41
0
  0
VERTEX
  8
C00-00-00-BLACK
 10
215.9
 20
277.636
 30
0.0
 40
0
 41
0
  0
VERTEX
  8
C00-00-00-BLACK
 10
215.9
 20
277.808
 30
0.0
 40
0
 41
0
  0
VERTEX
  8
C00-00-00-BLACK
 10
215.761
 20
278.324
 30
0.0
 40
0
 41
0
  0
VERTEX
  8
C00-00-00-BLACK
 10
215.383
 20
278.885
 30
0.0
 40
0
 41
0
  0
VERTEX
  8
C00-00-00-BLACK
 10
214.822
 20
279.262
 30
0.0
 40
0
 41
0
  0
VERTEX
  8
C00-00-00-BLACK
 10
214.307
 20
279.4
 30
0.0
 40
0
 41
0
  0
VERTEX
  8
C00-00-00-BLACK
 10
214.136
 20
279.4
 30
0.0
 40
0
 41
0
  0
VERTEX
  8
C00-00-00-BLACK
 10
213.964
 20
279.4
 30
0.0
 40
0
 41
0
  0
VERTEX
  8
C00-00-00-BLACK
 10
213.449
 20
279.262
 30
0.0
 40
0
 41
0
  0
VERTEX
  8
C00-00-00-BLACK
 10
212.888
 20
278.885
 30
0.0
 40
0
 41
0
  0
VERTEX
  8
C00-00-00-BLACK
 10
212.51
 20
278.324
 30
0.0
 40
0
 41
0
  0
VERTEX
  8
C00-00-00-BLACK
 10
212.372
 20
277.808
 30
0.0
 40
0
 41
0
  0
VERTEX
  8
C00-00-00-BLACK
 10
212.372
 20
277.636
 30
0.0
 40
0
 41
0
  0
VERTEX
  8
C00-00-00-BLACK
 10
212.372
 20
277.465
 30
0.0
 40
0
 41
0
  0
VERTEX
  8
C00-00-00-BLACK
 10
212.51
 20
276.95
 30
0.0
 40
0
 41
0
  0
VERTEX
  8
C00-00-00-BLACK
 10
212.888
 20
276.389
 30
0.0
 40
0
 41
0
  0
VERTEX
  8
C00-00-00-BLACK
 10
213.449
 20
276.012
 30
0.0
 40
0
 41
0
  0
VERTEX
  8
C00-00-00-BLACK
 10
213.964
 20
275.872
 30
0.0
 40
0
 41
0
  0
VERTEX
  8
C00-00-00-BLACK
 10
214.136
 20
275.872
 30
0.0
 40
0
 41
0
  0
VERTEX
  8
C00-00-00-BLACK
 10
214.307
 20
275.872
 30
0.0
 40
0
 41
0
  0
VERTEX
  8
C00-00-00-BLACK
 10
214.822
 20
276.012
 30
0.0
 40
0
 41
0
  0
VERTEX
  8
C00-00-00-BLACK
 10
215.383
 20
276.389
 30
0.0
 40
0
 41
0
  0
VERTEX
  8
C00-00-00-BLACK
 10
215.761
 20
276.95
 30
0.0
 40
0
 41
0
  0
VERTEX
  8
C00-00-00-BLACK
 10
215.9
 20
277.465
 30
0.0
 40
0
 41
0
  0
VERTEX
  8
C00-00-00-BLACK
 10
215.9
 20
277.636
 30
0.0
 40
0
 41
0
  0
SEQEND
 8
0
  0
POLYLINE
  8
C00-00-00-BLACK
 66
     1
 10
0
 20
0
 30
0.0
 70
     1
 40
0
 41
0
  0
VERTEX
  8
C00-00-00-BLACK
 10
3.52778
 20
1.76389
 30
0.0
 40
0
 41
0
  0
VERTEX
  8
C00-00-00-BLACK
 10
3.52778
 20
1.93614
 30
0.0
 40
0
 41
0
  0
VERTEX
  8
C00-00-00-BLACK
 10
3.3886
 20
2.45153
 30
0.0
 40
0
 41
0
  0
VERTEX
  8
C00-00-00-BLACK
 10
3.01101
 20
3.01239
 30
0.0
 40
0
 41
0
  0
VERTEX
  8
C00-00-00-BLACK
 10
2.45015
 20
3.38998
 30
0.0
 40
0
 41
0
  0
VERTEX
  8
C00-00-00-BLACK
 10
1.93477
 20
3.52778
 30
0.0
 40
0
 41
0
  0
VERTEX
  8
C00-00-00-BLACK
 10
1.76389
 20
3.52778
 30
0.0
 40
0
 41
0
  0
VERTEX
  8
C00-00-00-BLACK
 10
1.59163
 20
3.52778
 30
0.0
 40
0
 41
0
  0
VERTEX
  8
C00-00-00-BLACK
 10
1.07625
 20
3.38998
 30
0.0
 40
0
 41
0
  0
VERTEX
  8
C00-00-00-BLACK
 10
0.515387
 20
3.01239
 30
0.0
 40
0
 41
0
  0
VERTEX
  8
C00-00-00-BLACK
 10
0.137804
 20
2.45153
 30
0.0
 40
0
 41
0
  0
VERTEX
  8
C00-00-00-BLACK
 10
0
 20
1.93614
 30
0.0
 40
0
 41
0
  0
VERTEX
  8
C00-00-00-BLACK
 10
0
 20
1.76389
 30
0.0
 40
0
 41
0
  0
VERTEX
  8
C00-00-00-BLACK
 10
0
 20
1.59301
 30
0.0
 40
0
 41
0
  0
VERTEX
  8
C00-00-00-BLACK
 10
0.137804
 20
1.07763
 30
0.0
 40
0
 41
0
  0
VERTEX
  8
C00-00-00-BLACK
 10
0.515387
 20
0.516763
 30
0.0
 40
0
 41
0
  0
VERTEX
  8
C00-00-00-BLACK
 10
1.07625
 20
0.139182
 30
0.0
 40
0
 41
0
  0
VERTEX
  8
C00-00-00-BLACK
 10
1.59163
 20
0
 30
0.0
 40
0
 41
0
  0
VERTEX
  8
C00-00-00-BLACK
 10
1.76389
 20
0
 30
0.0
 40
0
 41
0
  0
VERTEX
  8
C00-00-00-BLACK
 10
1.93477
 20
0
 30
0.0
 40
0
 41
0
  0
VERTEX
  8
C00-00-00-BLACK
 10
2.45015
 20
0.139182
 30
0.0
 40
0
 41
0
  0
VERTEX
  8
C00-00-00-BLACK
 10
3.01101
 20
0.516763
 30
0.0
 40
0
 41
0
  0
VERTEX
  8
C00-00-00-BLACK
 10
3.3886
 20
1.07763
 30
0.0
 40
0
 41
0
  0
VERTEX
  8
C00-00-00-BLACK
 10
3.52778
 20
1.59301
 30
0.0
 40
0
 41
0
  0
VERTEX
  8
C00-00-00-BLACK
 10
3.52778
 20
1.76389
 30
0.0
 40
0
 41
0
  0
SEQEND
 8
0
  0
POLYLINE
  8
C00-00-00-BLACK
 66
     1
 10
0
 20
0
 30
0.0
 70
     1
 40
0
 41
0
  0
VERTEX
  8
C00-00-00-BLACK
 10
215.9
 20
1.76389
 30
0.0
 40
0
 41
0
  0
VERTEX
  8
C00-00-00-BLACK
 10
215.9
 20
1.93614
 30
0.0
 40
0
 41
0
  0
VERTEX
  8
C00-00-00-BLACK
 10
215.761
 20
2.45153
 30
0.0
 40
0
 41
0
  0
VERTEX
  8
C00-00-00-BLACK
 10
215.383
 20
3.01239
 30
0.0
 40
0
 41
0
  0
VERTEX
  8
C00-00-00-BLACK
 10
214.822
 20
3.38998
 30
0.0
 40
0
 41
0
  0
VERTEX
  8
C00-00-00-BLACK
 10
214.307
 20
3.52778
 30
0.0
 40
0
 41
0
  0
VERTEX
  8
C00-00-00-BLACK
 10
214.136
 20
3.52778
 30
0.0
 40
0
 41
0
  0
VERTEX
  8
C00-00-00-BLACK
 10
213.964
 20
3.52778
 30
0.0
 40
0
 41
0
  0
VERTEX
  8
C00-00-00-BLACK
 10
213.449
 20
3.38998
 30
0.0
 40
0
 41
0
  0
VERTEX
  8
C00-00-00-BLACK
 10
212.888
 20
3.01239
 30
0.0
 40
0
 41
0
  0
VERTEX
  8
C00-00-00-BLACK
 10
212.51
 20
2.45153
 30
0.0
 40
0
 41
0
  0
VERTEX
  8
C00-00-00-BLACK
 10
212.372
 20
1.93614
 30
0.0
 40
0
 41
0
  0
VERTEX
  8
C00-00-00-BLACK
 10
212.372
 20
1.76389
 30
0.0
 40
0
 41
0
  0
VERTEX
  8
C00-00-00-BLACK
 10
212.372
 20
1.59301
 30
0.0
 40
0
 41
0
  0
VERTEX
  8
C00-00-00-BLACK
 10
212.51
 20
1.07763
 30
0.0
 40
0
 41
0
  0
VERTEX
  8
C00-00-00-BLACK
 10
212.888
 20
0.516763
 30
0.0
 40
0
 41
0
  0
VERTEX
  8
C00-00-00-BLACK
 10
213.449
 20
0.139182
 30
0.0
 40
0
 41
0
  0
VERTEX
  8
C00-00-00-BLACK
 10
213.964
 20
0
 30
0.0
 40
0
 41
0
  0
VERTEX
  8
C00-00-00-BLACK
 10
214.136
 20
0
 30
0.0
 40
0
 41
0
  0
VERTEX
  8
C00-00-00-BLACK
 10
214.307
 20
0
 30
0.0
 40
0
 41
0
  0
VERTEX
  8
C00-00-00-BLACK
 10
214.822
 20
0.139182
 30
0.0
 40
0
 41
0
  0
VERTEX
  8
C00-00-00-BLACK
 10
215.383
 20
0.516763
 30
0.0
 40
0
 41
0
  0
VERTEX
  8
C00-00-00-BLACK
 10
215.761
 20
1.07763
 30
0.0
 40
0
 41
0
  0
VERTEX
  8
C00-00-00-BLACK
 10
215.9
 20
1.59301
 30
0.0
 40
0
 41
0
  0
VERTEX
  8
C00-00-00-BLACK
 10
215.9
 20
1.76389
 30
0.0
 40
0
 41
0
  0
SEQEND
 8
0
  0
POLYLINE
  8
C00-00-00-BLACK
 66
     1
 10
0
 20
0
 30
0.0
 70
     1
 40
2
 41
2
  0
VERTEX
  8
C00-00-00-BLACK
 10
3.57738
 20
174.272
 30
0.0
 40
0.705556
 41
0.705556
  0
VERTEX
  8
C00-00-00-BLACK
 10
41.6775
 20
174.272
 30
0.0
 40
0.705556
 41
0.705556
  0
VERTEX
  8
C00-00-00-BLACK
 10
41.6775
 20
199.672
 30
0.0
 40
0.705556
 41
0.705556
  0
VERTEX
  8
C00-00-00-BLACK
 10
3.57738
 20
199.672
 30
0.0
 40
0.705556
 41
0.705556
  0
VERTEX
  8
C00-00-00-BLACK
 10
3.57738
 20
174.272
 30
0.0
 40
0.705556
 41
0.705556
  0
SEQEND
 8
0
  0
POLYLINE
  8
C00-00-00-BLACK
 66
     1
 10
0
 20
0
 30
0.0
 70
     1
 40
2
 41
2
  0
VERTEX
  8
C00-00-00-BLACK
 10
46.2386
 20
174.272
 30
0.0
 40
0.705556
 41
0.705556
  0
VERTEX
  8
C00-00-00-BLACK
 10
84.3386
 20
174.272
 30
0.0
 40
0.705556
 41
0.705556
  0
VERTEX
  8
C00-00-00-BLACK
 10
84.3386
 20
199.672
 30
0.0
 40
0.705556
 41
0.705556
  0
VERTEX
  8
C00-00-00-BLACK
 10
46.2386
 20
199.672
 30
0.0
 40
0.705556
 41
0.705556
  0
VERTEX
  8
C00-00-00-BLACK
 10
46.2386
 20
174.272
 30
0.0
 40
0.705556
 41
0.705556
  0
SEQEND
 8
0
  0
POLYLINE
  8
C00-00-00-BLACK
 66
     1
 10
0
 20
0
 30
0.0
 70
     1
 40
2
 41
2
  0
VERTEX
  8
C00-00-00-BLACK
 10
88.9
 20
174.272
 30
0.0
 40
0.705556
 41
0.705556
  0
VERTEX
  8
C00-00-00-BLACK
 10
127
 20
174.272
 30
0.0
 40
0.705556
 41
0.705556
  0
VERTEX
  8
C00-00-00-BLACK
 10
127
 20
199.672
 30
0.0
 40
0.705556
 41
0.705556
  0
VERTEX
  8
C00-00-00-BLACK
 10
88.9
 20
199.672
 30
0.0
 40
0.705556
 41
0.705556
  0
VERTEX
  8
C00-00-00-BLACK
 10
88.9
 20
174.272
 30
0.0
 40
0.705556
 41
0.705556
  0
SEQEND
 8
0
  0
POLYLINE
  8
C00-00-00-BLACK
 66
     1
 10
0
 20
0
 30
0.0
 70
     1
 40
2
 41
2
  0
VERTEX
  8
C00-00-00-BLACK
 10
131.561
 20
174.272
 30
0.0
 40
0.705556
 41
0.705556
  0
VERTEX
  8
C00-00-00-BLACK
 10
169.661
 20
174.272
 30
0.0
 40
0.705556
 41
0.705556
  0
VERTEX
  8
C00-00-00-BLACK
 10
169.661
 20
199.672
 30
0.0
 40
0.705556
 41
0.705556
  0
VERTEX
  8
C00-00-00-BLACK
 10
131.561
 20
199.672
 30
0.0
 40
0.705556
 41
0.705556
  0
VERTEX
  8
C00-00-00-BLACK
 10
131.561
 20
174.272
 30
0.0
 40
0.705556
 41
0.705556
  0
SEQEND
 8
0
  0
POLYLINE
  8
C00-00-00-BLACK
 66
     1
 10
0
 20
0
 30
0.0
 70
     1
 40
2
 41
2
  0
VERTEX
  8
C00-00-00-BLACK
 10
174.222
 20
174.272
 30
0.0
 40
0.705556
 41
0.705556
  0
VERTEX
  8
C00-00-00-BLACK
 10
212.322
 20
174.272
 30
0.0
 40
0.705556
 41
0.705556
  0
VERTEX
  8
C00-00-00-BLACK
 10
212.322
 20
199.672
 30
0.0
 40
0.705556
 41
0.705556
  0
VERTEX
  8
C00-00-00-BLACK
 10
174.222
 20
199.672
 30
0.0
 40
0.705556
 41
0.705556
  0
VERTEX
  8
C00-00-00-BLACK
 10
174.222
 20
174.272
 30
0.0
 40
0.705556
 41
0.705556
  0
SEQEND
 8
0
  0
POLYLINE
  8
C00-00-00-BLACK
 66
     1
 10
0
 20
0
 30
0.0
 70
     1
 40
0
 41
0
  0
VERTEX
  8
C00-00-00-BLACK
 10
3.52778
 20
277.636
 30
0.0
 40
0
 41
0
  0
VERTEX
  8
C00-00-00-BLACK
 10
3.52778
 20
277.808
 30
0.0
 40
0
 41
0
  0
VERTEX
  8
C00-00-00-BLACK
 10
3.3886
 20
278.324
 30
0.0
 40
0
 41
0
  0
VERTEX
  8
C00-00-00-BLACK
 10
3.01101
 20
278.885
 30
0.0
 40
0
 41
0
  0
VERTEX
  8
C00-00-00-BLACK
 10
2.45015
 20
279.262
 30
0.0
 40
0
 41
0
  0
VERTEX
  8
C00-00-00-BLACK
 10
1.93477
 20
279.4
 30
0.0
 40
0
 41
0
  0
VERTEX
  8
C00-00-00-BLACK
 10
1.76389
 20
279.4
 30
0.0
 40
0
 41
0
  0
VERTEX
  8
C00-00-00-BLACK
 10
1.59163
 20
279.4
 30
0.0
 40
0
 41
0
  0
VERTEX
  8
C00-00-00-BLACK
 10
1.07625
 20
279.262
 30
0.0
 40
0
 41
0
  0
VERTEX
  8
C00-00-00-BLACK
 10
0.515387
 20
278.885
 30
0.0
 40
0
 41
0
  0
VERTEX
  8
C00-00-00-BLACK
 10
0.137804
 20
278.324
 30
0.0
 40
0
 41
0
  0
VERTEX
  8
C00-00-00-BLACK
 10
0
 20
277.808
 30
0.0
 40
0
 41
0
  0
VERTEX
  8
C00-00-00-BLACK
 10
0
 20
277.636
 30
0.0
 40
0
 41
0
  0
VERTEX
  8
C00-00-00-BLACK
 10
0
 20
277.465
 30
0.0
 40
0
 41
0
  0
VERTEX
  8
C00-00-00-BLACK
 10
0.137804
 20
276.95
 30
0.0
 40
0
 41
0
  0
VERTEX
  8
C00-00-00-BLACK
 10
0.515387
 20
276.389
 30
0.0
 40
0
 41
0
  0
VERTEX
  8
C00-00-00-BLACK
 10
1.07625
 20
276.012
 30
0.0
 40
0
 41
0
  0
VERTEX
  8
C00-00-00-BLACK
 10
1.59163
 20
275.872
 30
0.0
 40
0
 41
0
  0
VERTEX
  8
C00-00-00-BLACK
 10
1.76389
 20
275.872
 30
0.0
 40
0
 41
0
  0
VERTEX
  8
C00-00-00-BLACK
 10
1.93477
 20
275.872
 30
0.0
 40
0
 41
0
  0
VERTEX
  8
C00-00-00-BLACK
 10
2.45015
 20
276.012
 30
0.0
 40
0
 41
0
  0
VERTEX
  8
C00-00-00-BLACK
 10
3.01101
 20
276.389
 30
0.0
 40
0
 41
0
  0
VERTEX
  8
C00-00-00-BLACK
 10
3.3886
 20
276.95
 30
0.0
 40
0
 41
0
  0
VERTEX
  8
C00-00-00-BLACK
 10
3.52778
 20
277.465
 30
0.0
 40
0
 41
0
  0
VERTEX
  8
C00-00-00-BLACK
 10
3.52778
 20
277.636
 30
0.0
 40
0
 41
0
  0
SEQEND
 8
0
  0
POLYLINE
  8
C00-00-00-BLACK
 66
     1
 10
0
 20
0
 30
0.0
 70
     1
 40
0
 41
0
  0
VERTEX
  8
C00-00-00-BLACK
 10
215.9
 20
277.636
 30
0.0
 40
0
 41
0
  0
VERTEX
  8
C00-00-00-BLACK
 10
215.9
 20
277.808
 30
0.0
 40
0
 41
0
  0
VERTEX
  8
C00-00-00-BLACK
 10
215.761
 20
278.324
 30
0.0
 40
0
 41
0
  0
VERTEX
  8
C00-00-00-BLACK
 10
215.383
 20
278.885
 30
0.0
 40
0
 41
0
  0
VERTEX
  8
C00-00-00-BLACK
 10
214.822
 20
279.262
 30
0.0
 40
0
 41
0
  0
VERTEX
  8
C00-00-00-BLACK
 10
214.307
 20
279.4
 30
0.0
 40
0
 41
0
  0
VERTEX
  8
C00-00-00-BLACK
 10
214.136
 20
279.4
 30
0.0
 40
0
 41
0
  0
VERTEX
  8
C00-00-00-BLACK
 10
213.964
 20
279.4
 30
0.0
 40
0
 41
0
  0
VERTEX
  8
C00-00-00-BLACK
 10
213.449
 20
279.262
 30
0.0
 40
0
 41
0
  0
VERTEX
  8
C00-00-00-BLACK
 10
212.888
 20
278.885
 30
0.0
 40
0
 41
0
  0
VERTEX
  8
C00-00-00-BLACK
 10
212.51
 20
278.324
 30
0.0
 40
0
 41
0
  0
VERTEX
  8
C00-00-00-BLACK
 10
212.372
 20
277.808
 30
0.0
 40
0
 41
0
  0
VERTEX
  8
C00-00-00-BLACK
 10
212.372
 20
277.636
 30
0.0
 40
0
 41
0
  0
VERTEX
  8
C00-00-00-BLACK
 10
212.372
 20
277.465
 30
0.0
 40
0
 41
0
  0
VERTEX
  8
C00-00-00-BLACK
 10
212.51
 20
276.95
 30
0.0
 40
0
 41
0
  0
VERTEX
  8
C00-00-00-BLACK
 10
212.888
 20
276.389
 30
0.0
 40
0
 41
0
  0
VERTEX
  8
C00-00-00-BLACK
 10
213.449
 20
276.012
 30
0.0
 40
0
 41
0
  0
VERTEX
  8
C00-00-00-BLACK
 10
213.964
 20
275.872
 30
0.0
 40
0
 41
0
  0
VERTEX
  8
C00-00-00-BLACK
 10
214.136
 20
275.872
 30
0.0
 40
0
 41
0
  0
VERTEX
  8
C00-00-00-BLACK
 10
214.307
 20
275.872
 30
0.0
 40
0
 41
0
  0
VERTEX
  8
C00-00-00-BLACK
 10
214.822
 20
276.012
 30
0.0
 40
0
 41
0
  0
VERTEX
  8
C00-00-00-BLACK
 10
215.383
 20
276.389
 30
0.0
 40
0
 41
0
  0
VERTEX
  8
C00-00-00-BLACK
 10
215.761
 20
276.95
 30
0.0
 40
0
 41
0
  0
VERTEX
  8
C00-00-00-BLACK
 10
215.9
 20
277.465
 30
0.0
 40
0
 41
0
  0
VERTEX
  8
C00-00-00-BLACK
 10
215.9
 20
277.636
 30
0.0
 40
0
 41
0
  0
SEQEND
 8
0
  0
POLYLINE
  8
C00-00-00-BLACK
 66
     1
 10
0
 20
0
 30
0.0
 70
     1
 40
0
 41
0
  0
VERTEX
  8
C00-00-00-BLACK
 10
3.52778
 20
1.76389
 30
0.0
 40
0
 41
0
  0
VERTEX
  8
C00-00-00-BLACK
 10
3.52778
 20
1.93614
 30
0.0
 40
0
 41
0
  0
VERTEX
  8
C00-00-00-BLACK
 10
3.3886
 20
2.45153
 30
0.0
 40
0
 41
0
  0
VERTEX
  8
C00-00-00-BLACK
 10
3.01101
 20
3.01239
 30
0.0
 40
0
 41
0
  0
VERTEX
  8
C00-00-00-BLACK
 10
2.45015
 20
3.38998
 30
0.0
 40
0
 41
0
  0
VERTEX
  8
C00-00-00-BLACK
 10
1.93477
 20
3.52778
 30
0.0
 40
0
 41
0
  0
VERTEX
  8
C00-00-00-BLACK
 10
1.76389
 20
3.52778
 30
0.0
 40
0
 41
0
  0
VERTEX
  8
C00-00-00-BLACK
 10
1.59163
 20
3.52778
 30
0.0
 40
0
 41
0
  0
VERTEX
  8
C00-00-00-BLACK
 10
1.07625
 20
3.38998
 30
0.0
 40
0
 41
0
  0
VERTEX
  8
C00-00-00-BLACK
 10
0.515387
 20
3.01239
 30
0.0
 40
0
 41
0
  0
VERTEX
  8
C00-00-00-BLACK
 10
0.137804
 20
2.45153
 30
0.0
 40
0
 41
0
  0
VERTEX
  8
C00-00-00-BLACK
 10
0
 20
1.93614
 30
0.0
 40
0
 41
0
  0
VERTEX
  8
C00-00-00-BLACK
 10
0
 20
1.76389
 30
0.0
 40
0
 41
0
  0
VERTEX
  8
C00-00-00-BLACK
 10
0
 20
1.59301
 30
0.0
 40
0
 41
0
  0
VERTEX
  8
C00-00-00-BLACK
 10
0.137804
 20
1.07763
 30
0.0
 40
0
 41
0
  0
VERTEX
  8
C00-00-00-BLACK
 10
0.515387
 20
0.516763
 30
0.0
 40
0
 41
0
  0
VERTEX
  8
C00-00-00-BLACK
 10
1.07625
 20
0.139182
 30
0.0
 40
0
 41
0
  0
VERTEX
  8
C00-00-00-BLACK
 10
1.59163
 20
0
 30
0.0
 40
0
 41
0
  0
VERTEX
  8
C00-00-00-BLACK
 10
1.76389
 20
0
 30
0.0
 40
0
 41
0
  0
VERTEX
  8
C00-00-00-BLACK
 10
1.93477
 20
0
 30
0.0
 40
0
 41
0
  0
VERTEX
  8
C00-00-00-BLACK
 10
2.45015
 20
0.139182
 30
0.0
 40
0
 41
0
  0
VERTEX
  8
C00-00-00-BLACK
 10
3.01101
 20
0.516763
 30
0.0
 40
0
 41
0
  0
VERTEX
  8
C00-00-00-BLACK
 10
3.3886
 20
1.07763
 30
0.0
 40
0
 41
0
  0
VERTEX
  8
C00-00-00-BLACK
 10
3.52778
 20
1.59301
 30
0.0
 40
0
 41
0
  0
VERTEX
  8
C00-00-00-BLACK
 10
3.52778
 20
1.76389
 30
0.0
 40
0
 41
0
  0
SEQEND
 8
0
  0
POLYLINE
  8
C00-00-00-BLACK
 66
     1
 10
0
 20
0
 30
0.0
 70
     1
 40
0
 41
0
  0
VERTEX
  8
C00-00-00-BLACK
 10
215.9
 20
1.76389
 30
0.0
 40
0
 41
0
  0
VERTEX
  8
C00-00-00-BLACK
 10
215.9
 20
1.93614
 30
0.0
 40
0
 41
0
  0
VERTEX
  8
C00-00-00-BLACK
 10
215.761
 20
2.45153
 30
0.0
 40
0
 41
0
  0
VERTEX
  8
C00-00-00-BLACK
 10
215.383
 20
3.01239
 30
0.0
 40
0
 41
0
  0
VERTEX
  8
C00-00-00-BLACK
 10
214.822
 20
3.38998
 30
0.0
 40
0
 41
0
  0
VERTEX
  8
C00-00-00-BLACK
 10
214.307
 20
3.52778
 30
0.0
 40
0
 41
0
  0
VERTEX
  8
C00-00-00-BLACK
 10
214.136
 20
3.52778
 30
0.0
 40
0
 41
0
  0
VERTEX
  8
C00-00-00-BLACK
 10
213.964
 20
3.52778
 30
0.0
 40
0
 41
0
  0
VERTEX
  8
C00-00-00-BLACK
 10
213.449
 20
3.38998
 30
0.0
 40
0
 41
0
  0
VERTEX
  8
C00-00-00-BLACK
 10
212.888
 20
3.01239
 30
0.0
 40
0
 41
0
  0
VERTEX
  8
C00-00-00-BLACK
 10
212.51
 20
2.45153
 30
0.0
 40
0
 41
0
  0
VERTEX
  8
C00-00-00-BLACK
 10
212.372
 20
1.93614
 30
0.0
 40
0
 41
0
  0
VERTEX
  8
C00-00-00-BLACK
 10
212.372
 20
1.76389
 30
0.0
 40
0
 41
0
  0
VERTEX
  8
C00-00-00-BLACK
 10
212.372
 20
1.59301
 30
0.0
 40
0
 41
0
  0
VERTEX
  8
C00-00-00-BLACK
 10
212.51
 20
1.07763
 30
0.0
 40
0
 41
0
  0
VERTEX
  8
C00-00-00-BLACK
 10
212.888
 20
0.516763
 30
0.0
 40
0
 41
0
  0
VERTEX
  8
C00-00-00-BLACK
 10
213.449
 20
0.139182
 30
0.0
 40
0
 41
0
  0
VERTEX
  8
C00-00-00-BLACK
 10
213.964
 20
0
 30
0.0
 40
0
 41
0
  0
VERTEX
  8
C00-00-00-BLACK
 10
214.136
 20
0
 30
0.0
 40
0
 41
0
  0
VERTEX
  8
C00-00-00-BLACK
 10
214.307
 20
0
 30
0.0
 40
0
 41
0
  0
VERTEX
  8
C00-00-00-BLACK
 10
214.822
 20
0.139182
 30
0.0
 40
0
 41
0
  0
VERTEX
  8
C00-00-00-BLACK
 10
215.383
 20
0.516763
 30
0.0
 40
0
 41
0
  0
VERTEX
  8
C00-00-00-BLACK
 10
215.761
 20
1.07763
 30
0.0
 40
0
 41
0
  0
VERTEX
  8
C00-00-00-BLACK
 10
215.9
 20
1.59301
 30
0.0
 40
0
 41
0
  0
VERTEX
  8
C00-00-00-BLACK
 10
215.9
 20
1.76389
 30
0.0
 40
0
 41
0
  0
SEQEND
 8
0
  0
POLYLINE
  8
C00-00-00-BLACK
 66
     1
 10
0
 20
0
 30
0.0
 70
     1
 40
2
 41
2
  0
VERTEX
  8
C00-00-00-BLACK
 10
3.57738
 20
148.872
 30
0.0
 40
0.705556
 41
0.705556
  0
VERTEX
  8
C00-00-00-BLACK
 10
41.6775
 20
148.872
 30
0.0
 40
0.705556
 41
0.705556
  0
VERTEX
  8
C00-00-00-BLACK
 10
41.6775
 20
174.272
 30
0.0
 40
0.705556
 41
0.705556
  0
VERTEX
  8
C00-00-00-BLACK
 10
3.57738
 20
174.272
 30
0.0
 40
0.705556
 41
0.705556
  0
VERTEX
  8
C00-00-00-BLACK
 10
3.57738
 20
148.872
 30
0.0
 40
0.705556
 41
0.705556
  0
SEQEND
 8
0
  0
POLYLINE
  8
C00-00-00-BLACK
 66
     1
 10
0
 20
0
 30
0.0
 70
     1
 40
2
 41
2
  0
VERTEX
  8
C00-00-00-BLACK
 10
46.2386
 20
148.872
 30
0.0
 40
0.705556
 41
0.705556
  0
VERTEX
  8
C00-00-00-BLACK
 10
84.3386
 20
148.872
 30
0.0
 40
0.705556
 41
0.705556
  0
VERTEX
  8
C00-00-00-BLACK
 10
84.3386
 20
174.272
 30
0.0
 40
0.705556
 41
0.705556
  0
VERTEX
  8
C00-00-00-BLACK
 10
46.2386
 20
174.272
 30
0.0
 40
0.705556
 41
0.705556
  0
VERTEX
  8
C00-00-00-BLACK
 10
46.2386
 20
148.872
 30
0.0
 40
0.705556
 41
0.705556
  0
SEQEND
 8
0
  0
POLYLINE
  8
C00-00-00-BLACK
 66
     1
 10
0
 20
0
 30
0.0
 70
     1
 40
2
 41
2
  0
VERTEX
  8
C00-00-00-BLACK
 10
88.9
 20
148.872
 30
0.0
 40
0.705556
 41
0.705556
  0
VERTEX
  8
C00-00-00-BLACK
 10
127
 20
148.872
 30
0.0
 40
0.705556
 41
0.705556
  0
VERTEX
  8
C00-00-00-BLACK
 10
127
 20
174.272
 30
0.0
 40
0.705556
 41
0.705556
  0
VERTEX
  8
C00-00-00-BLACK
 10
88.9
 20
174.272
 30
0.0
 40
0.705556
 41
0.705556
  0
VERTEX
  8
C00-00-00-BLACK
 10
88.9
 20
148.872
 30
0.0
 40
0.705556
 41
0.705556
  0
SEQEND
 8
0
  0
POLYLINE
  8
C00-00-00-BLACK
 66
     1
 10
0
 20
0
 30
0.0
 70
     1
 40
2
 41
2
  0
VERTEX
  8
C00-00-00-BLACK
 10
131.561
 20
148.872
 30
0.0
 40
0.705556
 41
0.705556
  0
VERTEX
  8
C00-00-00-BLACK
 10
169.661
 20
148.872
 30
0.0
 40
0.705556
 41
0.705556
  0
VERTEX
  8
C00-00-00-BLACK
 10
169.661
 20
174.272
 30
0.0
 40
0.705556
 41
0.705556
  0
VERTEX
  8
C00-00-00-BLACK
 10
131.561
 20
174.272
 30
0.0
 40
0.705556
 41
0.705556
  0
VERTEX
  8
C00-00-00-BLACK
 10
131.561
 20
148.872
 30
0.0
 40
0.705556
 41
0.705556
  0
SEQEND
 8
0
  0
POLYLINE
  8
C00-00-00-BLACK
 66
     1
 10
0
 20
0
 30
0.0
 70
     1
 40
2
 41
2
  0
VERTEX
  8
C00-00-00-BLACK
 10
174.222
 20
148.872
 30
0.0
 40
0.705556
 41
0.705556
  0
VERTEX
  8
C00-00-00-BLACK
 10
212.322
 20
148.872
 30
0.0
 40
0.705556
 41
0.705556
  0
VERTEX
  8
C00-00-00-BLACK
 10
212.322
 20
174.272
 30
0.0
 40
0.705556
 41
0.705556
  0
VERTEX
  8
C00-00-00-BLACK
 10
174.222
 20
174.272
 30
0.0
 40
0.705556
 41
0.705556
  0
VERTEX
  8
C00-00-00-BLACK
 10
174.222
 20
148.872
 30
0.0
 40
0.705556
 41
0.705556
  0
SEQEND
 8
0
  0
POLYLINE
  8
C00-00-00-BLACK
 66
     1
 10
0
 20
0
 30
0.0
 70
     1
 40
0
 41
0
  0
VERTEX
  8
C00-00-00-BLACK
 10
3.52778
 20
277.636
 30
0.0
 40
0
 41
0
  0
VERTEX
  8
C00-00-00-BLACK
 10
3.52778
 20
277.808
 30
0.0
 40
0
 41
0
  0
VERTEX
  8
C00-00-00-BLACK
 10
3.3886
 20
278.324
 30
0.0
 40
0
 41
0
  0
VERTEX
  8
C00-00-00-BLACK
 10
3.01101
 20
278.885
 30
0.0
 40
0
 41
0
  0
VERTEX
  8
C00-00-00-BLACK
 10
2.45015
 20
279.262
 30
0.0
 40
0
 41
0
  0
VERTEX
  8
C00-00-00-BLACK
 10
1.93477
 20
279.4
 30
0.0
 40
0
 41
0
  0
VERTEX
  8
C00-00-00-BLACK
 10
1.76389
 20
279.4
 30
0.0
 40
0
 41
0
  0
VERTEX
  8
C00-00-00-BLACK
 10
1.59163
 20
279.4
 30
0.0
 40
0
 41
0
  0
VERTEX
  8
C00-00-00-BLACK
 10
1.07625
 20
279.262
 30
0.0
 40
0
 41
0
  0
VERTEX
  8
C00-00-00-BLACK
 10
0.515387
 20
278.885
 30
0.0
 40
0
 41
0
  0
VERTEX
  8
C00-00-00-BLACK
 10
0.137804
 20
278.324
 30
0.0
 40
0
 41
0
  0
VERTEX
  8
C00-00-00-BLACK
 10
0
 20
277.808
 30
0.0
 40
0
 41
0
  0
VERTEX
  8
C00-00-00-BLACK
 10
0
 20
277.636
 30
0.0
 40
0
 41
0
  0
VERTEX
  8
C00-00-00-BLACK
 10
0
 20
277.465
 30
0.0
 40
0
 41
0
  0
VERTEX
  8
C00-00-00-BLACK
 10
0.137804
 20
276.95
 30
0.0
 40
0
 41
0
  0
VERTEX
  8
C00-00-00-BLACK
 10
0.515387
 20
276.389
 30
0.0
 40
0
 41
0
  0
VERTEX
  8
C00-00-00-BLACK
 10
1.07625
 20
276.012
 30
0.0
 40
0
 41
0
  0
VERTEX
  8
C00-00-00-BLACK
 10
1.59163
 20
275.872
 30
0.0
 40
0
 41
0
  0
VERTEX
  8
C00-00-00-BLACK
 10
1.76389
 20
275.872
 30
0.0
 40
0
 41
0
  0
VERTEX
  8
C00-00-00-BLACK
 10
1.93477
 20
275.872
 30
0.0
 40
0
 41
0
  0
VERTEX
  8
C00-00-00-BLACK
 10
2.45015
 20
276.012
 30
0.0
 40
0
 41
0
  0
VERTEX
  8
C00-00-00-BLACK
 10
3.01101
 20
276.389
 30
0.0
 40
0
 41
0
  0
VERTEX
  8
C00-00-00-BLACK
 10
3.3886
 20
276.95
 30
0.0
 40
0
 41
0
  0
VERTEX
  8
C00-00-00-BLACK
 10
3.52778
 20
277.465
 30
0.0
 40
0
 41
0
  0
VERTEX
  8
C00-00-00-BLACK
 10
3.52778
 20
277.636
 30
0.0
 40
0
 41
0
  0
SEQEND
 8
0
  0
POLYLINE
  8
C00-00-00-BLACK
 66
     1
 10
0
 20
0
 30
0.0
 70
     1
 40
0
 41
0
  0
VERTEX
  8
C00-00-00-BLACK
 10
215.9
 20
277.636
 30
0.0
 40
0
 41
0
  0
VERTEX
  8
C00-00-00-BLACK
 10
215.9
 20
277.808
 30
0.0
 40
0
 41
0
  0
VERTEX
  8
C00-00-00-BLACK
 10
215.761
 20
278.324
 30
0.0
 40
0
 41
0
  0
VERTEX
  8
C00-00-00-BLACK
 10
215.383
 20
278.885
 30
0.0
 40
0
 41
0
  0
VERTEX
  8
C00-00-00-BLACK
 10
214.822
 20
279.262
 30
0.0
 40
0
 41
0
  0
VERTEX
  8
C00-00-00-BLACK
 10
214.307
 20
279.4
 30
0.0
 40
0
 41
0
  0
VERTEX
  8
C00-00-00-BLACK
 10
214.136
 20
279.4
 30
0.0
 40
0
 41
0
  0
VERTEX
  8
C00-00-00-BLACK
 10
213.964
 20
279.4
 30
0.0
 40
0
 41
0
  0
VERTEX
  8
C00-00-00-BLACK
 10
213.449
 20
279.262
 30
0.0
 40
0
 41
0
  0
VERTEX
  8
C00-00-00-BLACK
 10
212.888
 20
278.885
 30
0.0
 40
0
 41
0
  0
VERTEX
  8
C00-00-00-BLACK
 10
212.51
 20
278.324
 30
0.0
 40
0
 41
0
  0
VERTEX
  8
C00-00-00-BLACK
 10
212.372
 20
277.808
 30
0.0
 40
0
 41
0
  0
VERTEX
  8
C00-00-00-BLACK
 10
212.372
 20
277.636
 30
0.0
 40
0
 41
0
  0
VERTEX
  8
C00-00-00-BLACK
 10
212.372
 20
277.465
 30
0.0
 40
0
 41
0
  0
VERTEX
  8
C00-00-00-BLACK
 10
212.51
 20
276.95
 30
0.0
 40
0
 41
0
  0
VERTEX
  8
C00-00-00-BLACK
 10
212.888
 20
276.389
 30
0.0
 40
0
 41
0
  0
VERTEX
  8
C00-00-00-BLACK
 10
213.449
 20
276.012
 30
0.0
 40
0
 41
0
  0
VERTEX
  8
C00-00-00-BLACK
 10
213.964
 20
275.872
 30
0.0
 40
0
 41
0
  0
VERTEX
  8
C00-00-00-BLACK
 10
214.136
 20
275.872
 30
0.0
 40
0
 41
0
  0
VERTEX
  8
C00-00-00-BLACK
 10
214.307
 20
275.872
 30
0.0
 40
0
 41
0
  0
VERTEX
  8
C00-00-00-BLACK
 10
214.822
 20
276.012
 30
0.0
 40
0
 41
0
  0
VERTEX
  8
C00-00-00-BLACK
 10
215.383
 20
276.389
 30
0.0
 40
0
 41
0
  0
VERTEX
  8
C00-00-00-BLACK
 10
215.761
 20
276.95
 30
0.0
 40
0
 41
0
  0
VERTEX
  8
C00-00-00-BLACK
 10
215.9
 20
277.465
 30
0.0
 40
0
 41
0
  0
VERTEX
  8
C00-00-00-BLACK
 10
215.9
 20
277.636
 30
0.0
 40
0
 41
0
  0
SEQEND
 8
0
  0
POLYLINE
  8
C00-00-00-BLACK
 66
     1
 10
0
 20
0
 30
0.0
 70
     1
 40
0
 41
0
  0
VERTEX
  8
C00-00-00-BLACK
 10
3.52778
 20
1.76389
 30
0.0
 40
0
 41
0
  0
VERTEX
  8
C00-00-00-BLACK
 10
3.52778
 20
1.93614
 30
0.0
 40
0
 41
0
  0
VERTEX
  8
C00-00-00-BLACK
 10
3.3886
 20
2.45153
 30
0.0
 40
0
 41
0
  0
VERTEX
  8
C00-00-00-BLACK
 10
3.01101
 20
3.01239
 30
0.0
 40
0
 41
0
  0
VERTEX
  8
C00-00-00-BLACK
 10
2.45015
 20
3.38998
 30
0.0
 40
0
 41
0
  0
VERTEX
  8
C00-00-00-BLACK
 10
1.93477
 20
3.52778
 30
0.0
 40
0
 41
0
  0
VERTEX
  8
C00-00-00-BLACK
 10
1.76389
 20
3.52778
 30
0.0
 40
0
 41
0
  0
VERTEX
  8
C00-00-00-BLACK
 10
1.59163
 20
3.52778
 30
0.0
 40
0
 41
0
  0
VERTEX
  8
C00-00-00-BLACK
 10
1.07625
 20
3.38998
 30
0.0
 40
0
 41
0
  0
VERTEX
  8
C00-00-00-BLACK
 10
0.515387
 20
3.01239
 30
0.0
 40
0
 41
0
  0
VERTEX
  8
C00-00-00-BLACK
 10
0.137804
 20
2.45153
 30
0.0
 40
0
 41
0
  0
VERTEX
  8
C00-00-00-BLACK
 10
0
 20
1.93614
 30
0.0
 40
0
 41
0
  0
VERTEX
  8
C00-00-00-BLACK
 10
0
 20
1.76389
 30
0.0
 40
0
 41
0
  0
VERTEX
  8
C00-00-00-BLACK
 10
0
 20
1.59301
 30
0.0
 40
0
 41
0
  0
VERTEX
  8
C00-00-00-BLACK
 10
0.137804
 20
1.07763
 30
0.0
 40
0
 41
0
  0
VERTEX
  8
C00-00-00-BLACK
 10
0.515387
 20
0.516763
 30
0.0
 40
0
 41
0
  0
VERTEX
  8
C00-00-00-BLACK
 10
1.07625
 20
0.139182
 30
0.0
 40
0
 41
0
  0
VERTEX
  8
C00-00-00-BLACK
 10
1.59163
 20
0
 30
0.0
 40
0
 41
0
  0
VERTEX
  8
C00-00-00-BLACK
 10
1.76389
 20
0
 30
0.0
 40
0
 41
0
  0
VERTEX
  8
C00-00-00-BLACK
 10
1.93477
 20
0
 30
0.0
 40
0
 41
0
  0
VERTEX
  8
C00-00-00-BLACK
 10
2.45015
 20
0.139182
 30
0.0
 40
0
 41
0
  0
VERTEX
  8
C00-00-00-BLACK
 10
3.01101
 20
0.516763
 30
0.0
 40
0
 41
0
  0
VERTEX
  8
C00-00-00-BLACK
 10
3.3886
 20
1.07763
 30
0.0
 40
0
 41
0
  0
VERTEX
  8
C00-00-00-BLACK
 10
3.52778
 20
1.59301
 30
0.0
 40
0
 41
0
  0
VERTEX
  8
C00-00-00-BLACK
 10
3.52778
 20
1.76389
 30
0.0
 40
0
 41
0
  0
SEQEND
 8
0
  0
POLYLINE
  8
C00-00-00-BLACK
 66
     1
 10
0
 20
0
 30
0.0
 70
     1
 40
0
 41
0
  0
VERTEX
  8
C00-00-00-BLACK
 10
215.9
 20
1.76389
 30
0.0
 40
0
 41
0
  0
VERTEX
  8
C00-00-00-BLACK
 10
215.9
 20
1.93614
 30
0.0
 40
0
 41
0
  0
VERTEX
  8
C00-00-00-BLACK
 10
215.761
 20
2.45153
 30
0.0
 40
0
 41
0
  0
VERTEX
  8
C00-00-00-BLACK
 10
215.383
 20
3.01239
 30
0.0
 40
0
 41
0
  0
VERTEX
  8
C00-00-00-BLACK
 10
214.822
 20
3.38998
 30
0.0
 40
0
 41
0
  0
VERTEX
  8
C00-00-00-BLACK
 10
214.307
 20
3.52778
 30
0.0
 40
0
 41
0
  0
VERTEX
  8
C00-00-00-BLACK
 10
214.136
 20
3.52778
 30
0.0
 40
0
 41
0
  0
VERTEX
  8
C00-00-00-BLACK
 10
213.964
 20
3.52778
 30
0.0
 40
0
 41
0
  0
VERTEX
  8
C00-00-00-BLACK
 10
213.449
 20
3.38998
 30
0.0
 40
0
 41
0
  0
VERTEX
  8
C00-00-00-BLACK
 10
212.888
 20
3.01239
 30
0.0
 40
0
 41
0
  0
VERTEX
  8
C00-00-00-BLACK
 10
212.51
 20
2.45153
 30
0.0
 40
0
 41
0
  0
VERTEX
  8
C00-00-00-BLACK
 10
212.372
 20
1.93614
 30
0.0
 40
0
 41
0
  0
VERTEX
  8
C00-00-00-BLACK
 10
212.372
 20
1.76389
 30
0.0
 40
0
 41
0
  0
VERTEX
  8
C00-00-00-BLACK
 10
212.372
 20
1.59301
 30
0.0
 40
0
 41
0
  0
VERTEX
  8
C00-00-00-BLACK
 10
212.51
 20
1.07763
 30
0.0
 40
0
 41
0
  0
VERTEX
  8
C00-00-00-BLACK
 10
212.888
 20
0.516763
 30
0.0
 40
0
 41
0
  0
VERTEX
  8
C00-00-00-BLACK
 10
213.449
 20
0.139182
 30
0.0
 40
0
 41
0
  0
VERTEX
  8
C00-00-00-BLACK
 10
213.964
 20
0
 30
0.0
 40
0
 41
0
  0
VERTEX
  8
C00-00-00-BLACK
 10
214.136
 20
0
 30
0.0
 40
0
 41
0
  0
VERTEX
  8
C00-00-00-BLACK
 10
214.307
 20
0
 30
0.0
 40
0
 41
0
  0
VERTEX
  8
C00-00-00-BLACK
 10
214.822
 20
0.139182
 30
0.0
 40
0
 41
0
  0
VERTEX
  8
C00-00-00-BLACK
 10
215.383
 20
0.516763
 30
0.0
 40
0
 41
0
  0
VERTEX
  8
C00-00-00-BLACK
 10
215.761
 20
1.07763
 30
0.0
 40
0
 41
0
  0
VERTEX
  8
C00-00-00-BLACK
 10
215.9
 20
1.59301
 30
0.0
 40
0
 41
0
  0
VERTEX
  8
C00-00-00-BLACK
 10
215.9
 20
1.76389
 30
0.0
 40
0
 41
0
  0
SEQEND
 8
0
  0
POLYLINE
  8
C00-00-00-BLACK
 66
     1
 10
0
 20
0
 30
0.0
 70
     1
 40
2
 41
2
  0
VERTEX
  8
C00-00-00-BLACK
 10
3.57738
 20
123.472
 30
0.0
 40
0.705556
 41
0.705556
  0
VERTEX
  8
C00-00-00-BLACK
 10
41.6775
 20
123.472
 30
0.0
 40
0.705556
 41
0.705556
  0
VERTEX
  8
C00-00-00-BLACK
 10
41.6775
 20
148.872
 30
0.0
 40
0.705556
 41
0.705556
  0
VERTEX
  8
C00-00-00-BLACK
 10
3.57738
 20
148.872
 30
0.0
 40
0.705556
 41
0.705556
  0
VERTEX
  8
C00-00-00-BLACK
 10
3.57738
 20
123.472
 30
0.0
 40
0.705556
 41
0.705556
  0
SEQEND
 8
0
  0
POLYLINE
  8
C00-00-00-BLACK
 66
     1
 10
0
 20
0
 30
0.0
 70
     1
 40
2
 41
2
  0
VERTEX
  8
C00-00-00-BLACK
 10
46.2386
 20
123.472
 30
0.0
 40
0.705556
 41
0.705556
  0
VERTEX
  8
C00-00-00-BLACK
 10
84.3386
 20
123.472
 30
0.0
 40
0.705556
 41
0.705556
  0
VERTEX
  8
C00-00-00-BLACK
 10
84.3386
 20
148.872
 30
0.0
 40
0.705556
 41
0.705556
  0
VERTEX
  8
C00-00-00-BLACK
 10
46.2386
 20
148.872
 30
0.0
 40
0.705556
 41
0.705556
  0
VERTEX
  8
C00-00-00-BLACK
 10
46.2386
 20
123.472
 30
0.0
 40
0.705556
 41
0.705556
  0
SEQEND
 8
0
  0
POLYLINE
  8
C00-00-00-BLACK
 66
     1
 10
0
 20
0
 30
0.0
 70
     1
 40
2
 41
2
  0
VERTEX
  8
C00-00-00-BLACK
 10
88.9
 20
123.472
 30
0.0
 40
0.705556
 41
0.705556
  0
VERTEX
  8
C00-00-00-BLACK
 10
127
 20
123.472
 30
0.0
 40
0.705556
 41
0.705556
  0
VERTEX
  8
C00-00-00-BLACK
 10
127
 20
148.872
 30
0.0
 40
0.705556
 41
0.705556
  0
VERTEX
  8
C00-00-00-BLACK
 10
88.9
 20
148.872
 30
0.0
 40
0.705556
 41
0.705556
  0
VERTEX
  8
C00-00-00-BLACK
 10
88.9
 20
123.472
 30
0.0
 40
0.705556
 41
0.705556
  0
SEQEND
 8
0
  0
POLYLINE
  8
C00-00-00-BLACK
 66
     1
 10
0
 20
0
 30
0.0
 70
     1
 40
2
 41
2
  0
VERTEX
  8
C00-00-00-BLACK
 10
131.561
 20
123.472
 30
0.0
 40
0.705556
 41
0.705556
  0
VERTEX
  8
C00-00-00-BLACK
 10
169.661
 20
123.472
 30
0.0
 40
0.705556
 41
0.705556
  0
VERTEX
  8
C00-00-00-BLACK
 10
169.661
 20
148.872
 30
0.0
 40
0.705556
 41
0.705556
  0
VERTEX
  8
C00-00-00-BLACK
 10
131.561
 20
148.872
 30
0.0
 40
0.705556
 41
0.705556
  0
VERTEX
  8
C00-00-00-BLACK
 10
131.561
 20
123.472
 30
0.0
 40
0.705556
 41
0.705556
  0
SEQEND
 8
0
  0
POLYLINE
  8
C00-00-00-BLACK
 66
     1
 10
0
 20
0
 30
0.0
 70
     1
 40
2
 41
2
  0
VERTEX
  8
C00-00-00-BLACK
 10
174.222
 20
123.472
 30
0.0
 40
0.705556
 41
0.705556
  0
VERTEX
  8
C00-00-00-BLACK
 10
212.322
 20
123.472
 30
0.0
 40
0.705556
 41
0.705556
  0
VERTEX
  8
C00-00-00-BLACK
 10
212.322
 20
148.872
 30
0.0
 40
0.705556
 41
0.705556
  0
VERTEX
  8
C00-00-00-BLACK
 10
174.222
 20
148.872
 30
0.0
 40
0.705556
 41
0.705556
  0
VERTEX
  8
C00-00-00-BLACK
 10
174.222
 20
123.472
 30
0.0
 40
0.705556
 41
0.705556
  0
SEQEND
 8
0
  0
POLYLINE
  8
C00-00-00-BLACK
 66
     1
 10
0
 20
0
 30
0.0
 70
     1
 40
0
 41
0
  0
VERTEX
  8
C00-00-00-BLACK
 10
3.52778
 20
277.636
 30
0.0
 40
0
 41
0
  0
VERTEX
  8
C00-00-00-BLACK
 10
3.52778
 20
277.808
 30
0.0
 40
0
 41
0
  0
VERTEX
  8
C00-00-00-BLACK
 10
3.3886
 20
278.324
 30
0.0
 40
0
 41
0
  0
VERTEX
  8
C00-00-00-BLACK
 10
3.01101
 20
278.885
 30
0.0
 40
0
 41
0
  0
VERTEX
  8
C00-00-00-BLACK
 10
2.45015
 20
279.262
 30
0.0
 40
0
 41
0
  0
VERTEX
  8
C00-00-00-BLACK
 10
1.93477
 20
279.4
 30
0.0
 40
0
 41
0
  0
VERTEX
  8
C00-00-00-BLACK
 10
1.76389
 20
279.4
 30
0.0
 40
0
 41
0
  0
VERTEX
  8
C00-00-00-BLACK
 10
1.59163
 20
279.4
 30
0.0
 40
0
 41
0
  0
VERTEX
  8
C00-00-00-BLACK
 10
1.07625
 20
279.262
 30
0.0
 40
0
 41
0
  0
VERTEX
  8
C00-00-00-BLACK
 10
0.515387
 20
278.885
 30
0.0
 40
0
 41
0
  0
VERTEX
  8
C00-00-00-BLACK
 10
0.137804
 20
278.324
 30
0.0
 40
0
 41
0
  0
VERTEX
  8
C00-00-00-BLACK
 10
0
 20
277.808
 30
0.0
 40
0
 41
0
  0
VERTEX
  8
C00-00-00-BLACK
 10
0
 20
277.636
 30
0.0
 40
0
 41
0
  0
VERTEX
  8
C00-00-00-BLACK
 10
0
 20
277.465
 30
0.0
 40
0
 41
0
  0
VERTEX
  8
C00-00-00-BLACK
 10
0.137804
 20
276.95
 30
0.0
 40
0
 41
0
  0
VERTEX
  8
C00-00-00-BLACK
 10
0.515387
 20
276.389
 30
0.0
 40
0
 41
0
  0
VERTEX
  8
C00-00-00-BLACK
 10
1.07625
 20
276.012
 30
0.0
 40
0
 41
0
  0
VERTEX
  8
C00-00-00-BLACK
 10
1.59163
 20
275.872
 30
0.0
 40
0
 41
0
  0
VERTEX
  8
C00-00-00-BLACK
 10
1.76389
 20
275.872
 30
0.0
 40
0
 41
0
  0
VERTEX
  8
C00-00-00-BLACK
 10
1.93477
 20
275.872
 30
0.0
 40
0
 41
0
  0
VERTEX
  8
C00-00-00-BLACK
 10
2.45015
 20
276.012
 30
0.0
 40
0
 41
0
  0
VERTEX
  8
C00-00-00-BLACK
 10
3.01101
 20
276.389
 30
0.0
 40
0
 41
0
  0
VERTEX
  8
C00-00-00-BLACK
 10
3.3886
 20
276.95
 30
0.0
 40
0
 41
0
  0
VERTEX
  8
C00-00-00-BLACK
 10
3.52778
 20
277.465
 30
0.0
 40
0
 41
0
  0
VERTEX
  8
C00-00-00-BLACK
 10
3.52778
 20
277.636
 30
0.0
 40
0
 41
0
  0
SEQEND
 8
0
  0
POLYLINE
  8
C00-00-00-BLACK
 66
     1
 10
0
 20
0
 30
0.0
 70
     1
 40
0
 41
0
  0
VERTEX
  8
C00-00-00-BLACK
 10
215.9
 20
277.636
 30
0.0
 40
0
 41
0
  0
VERTEX
  8
C00-00-00-BLACK
 10
215.9
 20
277.808
 30
0.0
 40
0
 41
0
  0
VERTEX
  8
C00-00-00-BLACK
 10
215.761
 20
278.324
 30
0.0
 40
0
 41
0
  0
VERTEX
  8
C00-00-00-BLACK
 10
215.383
 20
278.885
 30
0.0
 40
0
 41
0
  0
VERTEX
  8
C00-00-00-BLACK
 10
214.822
 20
279.262
 30
0.0
 40
0
 41
0
  0
VERTEX
  8
C00-00-00-BLACK
 10
214.307
 20
279.4
 30
0.0
 40
0
 41
0
  0
VERTEX
  8
C00-00-00-BLACK
 10
214.136
 20
279.4
 30
0.0
 40
0
 41
0
  0
VERTEX
  8
C00-00-00-BLACK
 10
213.964
 20
279.4
 30
0.0
 40
0
 41
0
  0
VERTEX
  8
C00-00-00-BLACK
 10
213.449
 20
279.262
 30
0.0
 40
0
 41
0
  0
VERTEX
  8
C00-00-00-BLACK
 10
212.888
 20
278.885
 30
0.0
 40
0
 41
0
  0
VERTEX
  8
C00-00-00-BLACK
 10
212.51
 20
278.324
 30
0.0
 40
0
 41
0
  0
VERTEX
  8
C00-00-00-BLACK
 10
212.372
 20
277.808
 30
0.0
 40
0
 41
0
  0
VERTEX
  8
C00-00-00-BLACK
 10
212.372
 20
277.636
 30
0.0
 40
0
 41
0
  0
VERTEX
  8
C00-00-00-BLACK
 10
212.372
 20
277.465
 30
0.0
 40
0
 41
0
  0
VERTEX
  8
C00-00-00-BLACK
 10
212.51
 20
276.95
 30
0.0
 40
0
 41
0
  0
VERTEX
  8
C00-00-00-BLACK
 10
212.888
 20
276.389
 30
0.0
 40
0
 41
0
  0
VERTEX
  8
C00-00-00-BLACK
 10
213.449
 20
276.012
 30
0.0
 40
0
 41
0
  0
VERTEX
  8
C00-00-00-BLACK
 10
213.964
 20
275.872
 30
0.0
 40
0
 41
0
  0
VERTEX
  8
C00-00-00-BLACK
 10
214.136
 20
275.872
 30
0.0
 40
0
 41
0
  0
VERTEX
  8
C00-00-00-BLACK
 10
214.307
 20
275.872
 30
0.0
 40
0
 41
0
  0
VERTEX
  8
C00-00-00-BLACK
 10
214.822
 20
276.012
 30
0.0
 40
0
 41
0
  0
VERTEX
  8
C00-00-00-BLACK
 10
215.383
 20
276.389
 30
0.0
 40
0
 41
0
  0
VERTEX
  8
C00-00-00-BLACK
 10
215.761
 20
276.95
 30
0.0
 40
0
 41
0
  0
VERTEX
  8
C00-00-00-BLACK
 10
215.9
 20
277.465
 30
0.0
 40
0
 41
0
  0
VERTEX
  8
C00-00-00-BLACK
 10
215.9
 20
277.636
 30
0.0
 40
0
 41
0
  0
SEQEND
 8
0
  0
POLYLINE
  8
C00-00-00-BLACK
 66
     1
 10
0
 20
0
 30
0.0
 70
     1
 40
0
 41
0
  0
VERTEX
  8
C00-00-00-BLACK
 10
3.52778
 20
1.76389
 30
0.0
 40
0
 41
0
  0
VERTEX
  8
C00-00-00-BLACK
 10
3.52778
 20
1.93614
 30
0.0
 40
0
 41
0
  0
VERTEX
  8
C00-00-00-BLACK
 10
3.3886
 20
2.45153
 30
0.0
 40
0
 41
0
  0
VERTEX
  8
C00-00-00-BLACK
 10
3.01101
 20
3.01239
 30
0.0
 40
0
 41
0
  0
VERTEX
  8
C00-00-00-BLACK
 10
2.45015
 20
3.38998
 30
0.0
 40
0
 41
0
  0
VERTEX
  8
C00-00-00-BLACK
 10
1.93477
 20
3.52778
 30
0.0
 40
0
 41
0
  0
VERTEX
  8
C00-00-00-BLACK
 10
1.76389
 20
3.52778
 30
0.0
 40
0
 41
0
  0
VERTEX
  8
C00-00-00-BLACK
 10
1.59163
 20
3.52778
 30
0.0
 40
0
 41
0
  0
VERTEX
  8
C00-00-00-BLACK
 10
1.07625
 20
3.38998
 30
0.0
 40
0
 41
0
  0
VERTEX
  8
C00-00-00-BLACK
 10
0.515387
 20
3.01239
 30
0.0
 40
0
 41
0
  0
VERTEX
  8
C00-00-00-BLACK
 10
0.137804
 20
2.45153
 30
0.0
 40
0
 41
0
  0
VERTEX
  8
C00-00-00-BLACK
 10
0
 20
1.93614
 30
0.0
 40
0
 41
0
  0
VERTEX
  8
C00-00-00-BLACK
 10
0
 20
1.76389
 30
0.0
 40
0
 41
0
  0
VERTEX
  8
C00-00-00-BLACK
 10
0
 20
1.59301
 30
0.0
 40
0
 41
0
  0
VERTEX
  8
C00-00-00-BLACK
 10
0.137804
 20
1.07763
 30
0.0
 40
0
 41
0
  0
VERTEX
  8
C00-00-00-BLACK
 10
0.515387
 20
0.516763
 30
0.0
 40
0
 41
0
  0
VERTEX
  8
C00-00-00-BLACK
 10
1.07625
 20
0.139182
 30
0.0
 40
0
 41
0
  0
VERTEX
  8
C00-00-00-BLACK
 10
1.59163
 20
0
 30
0.0
 40
0
 41
0
  0
VERTEX
  8
C00-00-00-BLACK
 10
1.76389
 20
0
 30
0.0
 40
0
 41
0
  0
VERTEX
  8
C00-00-00-BLACK
 10
1.93477
 20
0
 30
0.0
 40
0
 41
0
  0
VERTEX
  8
C00-00-00-BLACK
 10
2.45015
 20
0.139182
 30
0.0
 40
0
 41
0
  0
VERTEX
  8
C00-00-00-BLACK
 10
3.01101
 20
0.516763
 30
0.0
 40
0
 41
0
  0
VERTEX
  8
C00-00-00-BLACK
 10
3.3886
 20
1.07763
 30
0.0
 40
0
 41
0
  0
VERTEX
  8
C00-00-00-BLACK
 10
3.52778
 20
1.59301
 30
0.0
 40
0
 41
0
  0
VERTEX
  8
C00-00-00-BLACK
 10
3.52778
 20
1.76389
 30
0.0
 40
0
 41
0
  0
SEQEND
 8
0
  0
POLYLINE
  8
C00-00-00-BLACK
 66
     1
 10
0
 20
0
 30
0.0
 70
     1
 40
0
 41
0
  0
VERTEX
  8
C00-00-00-BLACK
 10
215.9
 20
1.76389
 30
0.0
 40
0
 41
0
  0
VERTEX
  8
C00-00-00-BLACK
 10
215.9
 20
1.93614
 30
0.0
 40
0
 41
0
  0
VERTEX
  8
C00-00-00-BLACK
 10
215.761
 20
2.45153
 30
0.0
 40
0
 41
0
  0
VERTEX
  8
C00-00-00-BLACK
 10
215.383
 20
3.01239
 30
0.0
 40
0
 41
0
  0
VERTEX
  8
C00-00-00-BLACK
 10
214.822
 20
3.38998
 30
0.0
 40
0
 41
0
  0
VERTEX
  8
C00-00-00-BLACK
 10
214.307
 20
3.52778
 30
0.0
 40
0
 41
0
  0
VERTEX
  8
C00-00-00-BLACK
 10
214.136
 20
3.52778
 30
0.0
 40
0
 41
0
  0
VERTEX
  8
C00-00-00-BLACK
 10
213.964
 20
3.52778
 30
0.0
 40
0
 41
0
  0
VERTEX
  8
C00-00-00-BLACK
 10
213.449
 20
3.38998
 30
0.0
 40
0
 41
0
  0
VERTEX
  8
C00-00-00-BLACK
 10
212.888
 20
3.01239
 30
0.0
 40
0
 41
0
  0
VERTEX
  8
C00-00-00-BLACK
 10
212.51
 20
2.45153
 30
0.0
 40
0
 41
0
  0
VERTEX
  8
C00-00-00-BLACK
 10
212.372
 20
1.93614
 30
0.0
 40
0
 41
0
  0
VERTEX
  8
C00-00-00-BLACK
 10
212.372
 20
1.76389
 30
0.0
 40
0
 41
0
  0
VERTEX
  8
C00-00-00-BLACK
 10
212.372
 20
1.59301
 30
0.0
 40
0
 41
0
  0
VERTEX
  8
C00-00-00-BLACK
 10
212.51
 20
1.07763
 30
0.0
 40
0
 41
0
  0
VERTEX
  8
C00-00-00-BLACK
 10
212.888
 20
0.516763
 30
0.0
 40
0
 41
0
  0
VERTEX
  8
C00-00-00-BLACK
 10
213.449
 20
0.139182
 30
0.0
 40
0
 41
0
  0
VERTEX
  8
C00-00-00-BLACK
 10
213.964
 20
0
 30
0.0
 40
0
 41
0
  0
VERTEX
  8
C00-00-00-BLACK
 10
214.136
 20
0
 30
0.0
 40
0
 41
0
  0
VERTEX
  8
C00-00-00-BLACK
 10
214.307
 20
0
 30
0.0
 40
0
 41
0
  0
VERTEX
  8
C00-00-00-BLACK
 10
214.822
 20
0.139182
 30
0.0
 40
0
 41
0
  0
VERTEX
  8
C00-00-00-BLACK
 10
215.383
 20
0.516763
 30
0.0
 40
0
 41
0
  0
VERTEX
  8
C00-00-00-BLACK
 10
215.761
 20
1.07763
 30
0.0
 40
0
 41
0
  0
VERTEX
  8
C00-00-00-BLACK
 10
215.9
 20
1.59301
 30
0.0
 40
0
 41
0
  0
VERTEX
  8
C00-00-00-BLACK
 10
215.9
 20
1.76389
 30
0.0
 40
0
 41
0
  0
SEQEND
 8
0
  0
POLYLINE
  8
C00-00-00-BLACK
 66
     1
 10
0
 20
0
 30
0.0
 70
     1
 40
2
 41
2
  0
VERTEX
  8
C00-00-00-BLACK
 10
3.57738
 20
98.0722
 30
0.0
 40
0.705556
 41
0.705556
  0
VERTEX
  8
C00-00-00-BLACK
 10
41.6775
 20
98.0722
 30
0.0
 40
0.705556
 41
0.705556
  0
VERTEX
  8
C00-00-00-BLACK
 10
41.6775
 20
123.472
 30
0.0
 40
0.705556
 41
0.705556
  0
VERTEX
  8
C00-00-00-BLACK
 10
3.57738
 20
123.472
 30
0.0
 40
0.705556
 41
0.705556
  0
VERTEX
  8
C00-00-00-BLACK
 10
3.57738
 20
98.0722
 30
0.0
 40
0.705556
 41
0.705556
  0
SEQEND
 8
0
  0
POLYLINE
  8
C00-00-00-BLACK
 66
     1
 10
0
 20
0
 30
0.0
 70
     1
 40
2
 41
2
  0
VERTEX
  8
C00-00-00-BLACK
 10
46.2386
 20
98.0722
 30
0.0
 40
0.705556
 41
0.705556
  0
VERTEX
  8
C00-00-00-BLACK
 10
84.3386
 20
98.0722
 30
0.0
 40
0.705556
 41
0.705556
  0
VERTEX
  8
C00-00-00-BLACK
 10
84.3386
 20
123.472
 30
0.0
 40
0.705556
 41
0.705556
  0
VERTEX
  8
C00-00-00-BLACK
 10
46.2386
 20
123.472
 30
0.0
 40
0.705556
 41
0.705556
  0
VERTEX
  8
C00-00-00-BLACK
 10
46.2386
 20
98.0722
 30
0.0
 40
0.705556
 41
0.705556
  0
SEQEND
 8
0
  0
POLYLINE
  8
C00-00-00-BLACK
 66
     1
 10
0
 20
0
 30
0.0
 70
     1
 40
2
 41
2
  0
VERTEX
  8
C00-00-00-BLACK
 10
88.9
 20
98.0722
 30
0.0
 40
0.705556
 41
0.705556
  0
VERTEX
  8
C00-00-00-BLACK
 10
127
 20
98.0722
 30
0.0
 40
0.705556
 41
0.705556
  0
VERTEX
  8
C00-00-00-BLACK
 10
127
 20
123.472
 30
0.0
 40
0.705556
 41
0.705556
  0
VERTEX
  8
C00-00-00-BLACK
 10
88.9
 20
123.472
 30
0.0
 40
0.705556
 41
0.705556
  0
VERTEX
  8
C00-00-00-BLACK
 10
88.9
 20
98.0722
 30
0.0
 40
0.705556
 41
0.705556
  0
SEQEND
 8
0
  0
POLYLINE
  8
C00-00-00-BLACK
 66
     1
 10
0
 20
0
 30
0.0
 70
     1
 40
2
 41
2
  0
VERTEX
  8
C00-00-00-BLACK
 10
131.561
 20
98.0722
 30
0.0
 40
0.705556
 41
0.705556
  0
VERTEX
  8
C00-00-00-BLACK
 10
169.661
 20
98.0722
 30
0.0
 40
0.705556
 41
0.705556
  0
VERTEX
  8
C00-00-00-BLACK
 10
169.661
 20
123.472
 30
0.0
 40
0.705556
 41
0.705556
  0
VERTEX
  8
C00-00-00-BLACK
 10
131.561
 20
123.472
 30
0.0
 40
0.705556
 41
0.705556
  0
VERTEX
  8
C00-00-00-BLACK
 10
131.561
 20
98.0722
 30
0.0
 40
0.705556
 41
0.705556
  0
SEQEND
 8
0
  0
POLYLINE
  8
C00-00-00-BLACK
 66
     1
 10
0
 20
0
 30
0.0
 70
     1
 40
2
 41
2
  0
VERTEX
  8
C00-00-00-BLACK
 10
174.222
 20
98.0722
 30
0.0
 40
0.705556
 41
0.705556
  0
VERTEX
  8
C00-00-00-BLACK
 10
212.322
 20
98.0722
 30
0.0
 40
0.705556
 41
0.705556
  0
VERTEX
  8
C00-00-00-BLACK
 10
212.322
 20
123.472
 30
0.0
 40
0.705556
 41
0.705556
  0
VERTEX
  8
C00-00-00-BLACK
 10
174.222
 20
123.472
 30
0.0
 40
0.705556
 41
0.705556
  0
VERTEX
  8
C00-00-00-BLACK
 10
174.222
 20
98.0722
 30
0.0
 40
0.705556
 41
0.705556
  0
SEQEND
 8
0
  0
POLYLINE
  8
C00-00-00-BLACK
 66
     1
 10
0
 20
0
 30
0.0
 70
     1
 40
0
 41
0
  0
VERTEX
  8
C00-00-00-BLACK
 10
3.52778
 20
277.636
 30
0.0
 40
0
 41
0
  0
VERTEX
  8
C00-00-00-BLACK
 10
3.52778
 20
277.808
 30
0.0
 40
0
 41
0
  0
VERTEX
  8
C00-00-00-BLACK
 10
3.3886
 20
278.324
 30
0.0
 40
0
 41
0
  0
VERTEX
  8
C00-00-00-BLACK
 10
3.01101
 20
278.885
 30
0.0
 40
0
 41
0
  0
VERTEX
  8
C00-00-00-BLACK
 10
2.45015
 20
279.262
 30
0.0
 40
0
 41
0
  0
VERTEX
  8
C00-00-00-BLACK
 10
1.93477
 20
279.4
 30
0.0
 40
0
 41
0
  0
VERTEX
  8
C00-00-00-BLACK
 10
1.76389
 20
279.4
 30
0.0
 40
0
 41
0
  0
VERTEX
  8
C00-00-00-BLACK
 10
1.59163
 20
279.4
 30
0.0
 40
0
 41
0
  0
VERTEX
  8
C00-00-00-BLACK
 10
1.07625
 20
279.262
 30
0.0
 40
0
 41
0
  0
VERTEX
  8
C00-00-00-BLACK
 10
0.515387
 20
278.885
 30
0.0
 40
0
 41
0
  0
VERTEX
  8
C00-00-00-BLACK
 10
0.137804
 20
278.324
 30
0.0
 40
0
 41
0
  0
VERTEX
  8
C00-00-00-BLACK
 10
0
 20
277.808
 30
0.0
 40
0
 41
0
  0
VERTEX
  8
C00-00-00-BLACK
 10
0
 20
277.636
 30
0.0
 40
0
 41
0
  0
VERTEX
  8
C00-00-00-BLACK
 10
0
 20
277.465
 30
0.0
 40
0
 41
0
  0
VERTEX
  8
C00-00-00-BLACK
 10
0.137804
 20
276.95
 30
0.0
 40
0
 41
0
  0
VERTEX
  8
C00-00-00-BLACK
 10
0.515387
 20
276.389
 30
0.0
 40
0
 41
0
  0
VERTEX
  8
C00-00-00-BLACK
 10
1.07625
 20
276.012
 30
0.0
 40
0
 41
0
  0
VERTEX
  8
C00-00-00-BLACK
 10
1.59163
 20
275.872
 30
0.0
 40
0
 41
0
  0
VERTEX
  8
C00-00-00-BLACK
 10
1.76389
 20
275.872
 30
0.0
 40
0
 41
0
  0
VERTEX
  8
C00-00-00-BLACK
 10
1.93477
 20
275.872
 30
0.0
 40
0
 41
0
  0
VERTEX
  8
C00-00-00-BLACK
 10
2.45015
 20
276.012
 30
0.0
 40
0
 41
0
  0
VERTEX
  8
C00-00-00-BLACK
 10
3.01101
 20
276.389
 30
0.0
 40
0
 41
0
  0
VERTEX
  8
C00-00-00-BLACK
 10
3.3886
 20
276.95
 30
0.0
 40
0
 41
0
  0
VERTEX
  8
C00-00-00-BLACK
 10
3.52778
 20
277.465
 30
0.0
 40
0
 41
0
  0
VERTEX
  8
C00-00-00-BLACK
 10
3.52778
 20
277.636
 30
0.0
 40
0
 41
0
  0
SEQEND
 8
0
  0
POLYLINE
  8
C00-00-00-BLACK
 66
     1
 10
0
 20
0
 30
0.0
 70
     1
 40
0
 41
0
  0
VERTEX
  8
C00-00-00-BLACK
 10
215.9
 20
277.636
 30
0.0
 40
0
 41
0
  0
VERTEX
  8
C00-00-00-BLACK
 10
215.9
 20
277.808
 30
0.0
 40
0
 41
0
  0
VERTEX
  8
C00-00-00-BLACK
 10
215.761
 20
278.324
 30
0.0
 40
0
 41
0
  0
VERTEX
  8
C00-00-00-BLACK
 10
215.383
 20
278.885
 30
0.0
 40
0
 41
0
  0
VERTEX
  8
C00-00-00-BLACK
 10
214.822
 20
279.262
 30
0.0
 40
0
 41
0
  0
VERTEX
  8
C00-00-00-BLACK
 10
214.307
 20
279.4
 30
0.0
 40
0
 41
0
  0
VERTEX
  8
C00-00-00-BLACK
 10
214.136
 20
279.4
 30
0.0
 40
0
 41
0
  0
VERTEX
  8
C00-00-00-BLACK
 10
213.964
 20
279.4
 30
0.0
 40
0
 41
0
  0
VERTEX
  8
C00-00-00-BLACK
 10
213.449
 20
279.262
 30
0.0
 40
0
 41
0
  0
VERTEX
  8
C00-00-00-BLACK
 10
212.888
 20
278.885
 30
0.0
 40
0
 41
0
  0
VERTEX
  8
C00-00-00-BLACK
 10
212.51
 20
278.324
 30
0.0
 40
0
 41
0
  0
VERTEX
  8
C00-00-00-BLACK
 10
212.372
 20
277.808
 30
0.0
 40
0
 41
0
  0
VERTEX
  8
C00-00-00-BLACK
 10
212.372
 20
277.636
 30
0.0
 40
0
 41
0
  0
VERTEX
  8
C00-00-00-BLACK
 10
212.372
 20
277.465
 30
0.0
 40
0
 41
0
  0
VERTEX
  8
C00-00-00-BLACK
 10
212.51
 20
276.95
 30
0.0
 40
0
 41
0
  0
VERTEX
  8
C00-00-00-BLACK
 10
212.888
 20
276.389
 30
0.0
 40
0
 41
0
  0
VERTEX
  8
C00-00-00-BLACK
 10
213.449
 20
276.012
 30
0.0
 40
0
 41
0
  0
VERTEX
  8
C00-00-00-BLACK
 10
213.964
 20
275.872
 30
0.0
 40
0
 41
0
  0
VERTEX
  8
C00-00-00-BLACK
 10
214.136
 20
275.872
 30
0.0
 40
0
 41
0
  0
VERTEX
  8
C00-00-00-BLACK
 10
214.307
 20
275.872
 30
0.0
 40
0
 41
0
  0
VERTEX
  8
C00-00-00-BLACK
 10
214.822
 20
276.012
 30
0.0
 40
0
 41
0
  0
VERTEX
  8
C00-00-00-BLACK
 10
215.383
 20
276.389
 30
0.0
 40
0
 41
0
  0
VERTEX
  8
C00-00-00-BLACK
 10
215.761
 20
276.95
 30
0.0
 40
0
 41
0
  0
VERTEX
  8
C00-00-00-BLACK
 10
215.9
 20
277.465
 30
0.0
 40
0
 41
0
  0
VERTEX
  8
C00-00-00-BLACK
 10
215.9
 20
277.636
 30
0.0
 40
0
 41
0
  0
SEQEND
 8
0
  0
POLYLINE
  8
C00-00-00-BLACK
 66
     1
 10
0
 20
0
 30
0.0
 70
     1
 40
0
 41
0
  0
VERTEX
  8
C00-00-00-BLACK
 10
3.52778
 20
1.76389
 30
0.0
 40
0
 41
0
  0
VERTEX
  8
C00-00-00-BLACK
 10
3.52778
 20
1.93614
 30
0.0
 40
0
 41
0
  0
VERTEX
  8
C00-00-00-BLACK
 10
3.3886
 20
2.45153
 30
0.0
 40
0
 41
0
  0
VERTEX
  8
C00-00-00-BLACK
 10
3.01101
 20
3.01239
 30
0.0
 40
0
 41
0
  0
VERTEX
  8
C00-00-00-BLACK
 10
2.45015
 20
3.38998
 30
0.0
 40
0
 41
0
  0
VERTEX
  8
C00-00-00-BLACK
 10
1.93477
 20
3.52778
 30
0.0
 40
0
 41
0
  0
VERTEX
  8
C00-00-00-BLACK
 10
1.76389
 20
3.52778
 30
0.0
 40
0
 41
0
  0
VERTEX
  8
C00-00-00-BLACK
 10
1.59163
 20
3.52778
 30
0.0
 40
0
 41
0
  0
VERTEX
  8
C00-00-00-BLACK
 10
1.07625
 20
3.38998
 30
0.0
 40
0
 41
0
  0
VERTEX
  8
C00-00-00-BLACK
 10
0.515387
 20
3.01239
 30
0.0
 40
0
 41
0
  0
VERTEX
  8
C00-00-00-BLACK
 10
0.137804
 20
2.45153
 30
0.0
 40
0
 41
0
  0
VERTEX
  8
C00-00-00-BLACK
 10
0
 20
1.93614
 30
0.0
 40
0
 41
0
  0
VERTEX
  8
C00-00-00-BLACK
 10
0
 20
1.76389
 30
0.0
 40
0
 41
0
  0
VERTEX
  8
C00-00-00-BLACK
 10
0
 20
1.59301
 30
0.0
 40
0
 41
0
  0
VERTEX
  8
C00-00-00-BLACK
 10
0.137804
 20
1.07763
 30
0.0
 40
0
 41
0
  0
VERTEX
  8
C00-00-00-BLACK
 10
0.515387
 20
0.516763
 30
0.0
 40
0
 41
0
  0
VERTEX
  8
C00-00-00-BLACK
 10
1.07625
 20
0.139182
 30
0.0
 40
0
 41
0
  0
VERTEX
  8
C00-00-00-BLACK
 10
1.59163
 20
0
 30
0.0
 40
0
 41
0
  0
VERTEX
  8
C00-00-00-BLACK
 10
1.76389
 20
0
 30
0.0
 40
0
 41
0
  0
VERTEX
  8
C00-00-00-BLACK
 10
1.93477
 20
0
 30
0.0
 40
0
 41
0
  0
VERTEX
  8
C00-00-00-BLACK
 10
2.45015
 20
0.139182
 30
0.0
 40
0
 41
0
  0
VERTEX
  8
C00-00-00-BLACK
 10
3.01101
 20
0.516763
 30
0.0
 40
0
 41
0
  0
VERTEX
  8
C00-00-00-BLACK
 10
3.3886
 20
1.07763
 30
0.0
 40
0
 41
0
  0
VERTEX
  8
C00-00-00-BLACK
 10
3.52778
 20
1.59301
 30
0.0
 40
0
 41
0
  0
VERTEX
  8
C00-00-00-BLACK
 10
3.52778
 20
1.76389
 30
0.0
 40
0
 41
0
  0
SEQEND
 8
0
  0
POLYLINE
  8
C00-00-00-BLACK
 66
     1
 10
0
 20
0
 30
0.0
 70
     1
 40
0
 41
0
  0
VERTEX
  8
C00-00-00-BLACK
 10
215.9
 20
1.76389
 30
0.0
 40
0
 41
0
  0
VERTEX
  8
C00-00-00-BLACK
 10
215.9
 20
1.93614
 30
0.0
 40
0
 41
0
  0
VERTEX
  8
C00-00-00-BLACK
 10
215.761
 20
2.45153
 30
0.0
 40
0
 41
0
  0
VERTEX
  8
C00-00-00-BLACK
 10
215.383
 20
3.01239
 30
0.0
 40
0
 41
0
  0
VERTEX
  8
C00-00-00-BLACK
 10
214.822
 20
3.38998
 30
0.0
 40
0
 41
0
  0
VERTEX
  8
C00-00-00-BLACK
 10
214.307
 20
3.52778
 30
0.0
 40
0
 41
0
  0
VERTEX
  8
C00-00-00-BLACK
 10
214.136
 20
3.52778
 30
0.0
 40
0
 41
0
  0
VERTEX
  8
C00-00-00-BLACK
 10
213.964
 20
3.52778
 30
0.0
 40
0
 41
0
  0
VERTEX
  8
C00-00-00-BLACK
 10
213.449
 20
3.38998
 30
0.0
 40
0
 41
0
  0
VERTEX
  8
C00-00-00-BLACK
 10
212.888
 20
3.01239
 30
0.0
 40
0
 41
0
  0
VERTEX
  8
C00-00-00-BLACK
 10
212.51
 20
2.45153
 30
0.0
 40
0
 41
0
  0
VERTEX
  8
C00-00-00-BLACK
 10
212.372
 20
1.93614
 30
0.0
 40
0
 41
0
  0
VERTEX
  8
C00-00-00-BLACK
 10
212.372
 20
1.76389
 30
0.0
 40
0
 41
0
  0
VERTEX
  8
C00-00-00-BLACK
 10
212.372
 20
1.59301
 30
0.0
 40
0
 41
0
  0
VERTEX
  8
C00-00-00-BLACK
 10
212.51
 20
1.07763
 30
0.0
 40
0
 41
0
  0
VERTEX
  8
C00-00-00-BLACK
 10
212.888
 20
0.516763
 30
0.0
 40
0
 41
0
  0
VERTEX
  8
C00-00-00-BLACK
 10
213.449
 20
0.139182
 30
0.0
 40
0
 41
0
  0
VERTEX
  8
C00-00-00-BLACK
 10
213.964
 20
0
 30
0.0
 40
0
 41
0
  0
VERTEX
  8
C00-00-00-BLACK
 10
214.136
 20
0
 30
0.0
 40
0
 41
0
  0
VERTEX
  8
C00-00-00-BLACK
 10
214.307
 20
0
 30
0.0
 40
0
 41
0
  0
VERTEX
  8
C00-00-00-BLACK
 10
214.822
 20
0.139182
 30
0.0
 40
0
 41
0
  0
VERTEX
  8
C00-00-00-BLACK
 10
215.383
 20
0.516763
 30
0.0
 40
0
 41
0
  0
VERTEX
  8
C00-00-00-BLACK
 10
215.761
 20
1.07763
 30
0.0
 40
0
 41
0
  0
VERTEX
  8
C00-00-00-BLACK
 10
215.9
 20
1.59301
 30
0.0
 40
0
 41
0
  0
VERTEX
  8
C00-00-00-BLACK
 10
215.9
 20
1.76389
 30
0.0
 40
0
 41
0
  0
SEQEND
 8
0
  0
POLYLINE
  8
C00-00-00-BLACK
 66
     1
 10
0
 20
0
 30
0.0
 70
     1
 40
2
 41
2
  0
VERTEX
  8
C00-00-00-BLACK
 10
3.57738
 20
72.6722
 30
0.0
 40
0.705556
 41
0.705556
  0
VERTEX
  8
C00-00-00-BLACK
 10
41.6775
 20
72.6722
 30
0.0
 40
0.705556
 41
0.705556
  0
VERTEX
  8
C00-00-00-BLACK
 10
41.6775
 20
98.0722
 30
0.0
 40
0.705556
 41
0.705556
  0
VERTEX
  8
C00-00-00-BLACK
 10
3.57738
 20
98.0722
 30
0.0
 40
0.705556
 41
0.705556
  0
VERTEX
  8
C00-00-00-BLACK
 10
3.57738
 20
72.6722
 30
0.0
 40
0.705556
 41
0.705556
  0
SEQEND
 8
0
  0
POLYLINE
  8
C00-00-00-BLACK
 66
     1
 10
0
 20
0
 30
0.0
 70
     1
 40
2
 41
2
  0
VERTEX
  8
C00-00-00-BLACK
 10
46.2386
 20
72.6722
 30
0.0
 40
0.705556
 41
0.705556
  0
VERTEX
  8
C00-00-00-BLACK
 10
84.3386
 20
72.6722
 30
0.0
 40
0.705556
 41
0.705556
  0
VERTEX
  8
C00-00-00-BLACK
 10
84.3386
 20
98.0722
 30
0.0
 40
0.705556
 41
0.705556
  0
VERTEX
  8
C00-00-00-BLACK
 10
46.2386
 20
98.0722
 30
0.0
 40
0.705556
 41
0.705556
  0
VERTEX
  8
C00-00-00-BLACK
 10
46.2386
 20
72.6722
 30
0.0
 40
0.705556
 41
0.705556
  0
SEQEND
 8
0
  0
POLYLINE
  8
C00-00-00-BLACK
 66
     1
 10
0
 20
0
 30
0.0
 70
     1
 40
2
 41
2
  0
VERTEX
  8
C00-00-00-BLACK
 10
88.9
 20
72.6722
 30
0.0
 40
0.705556
 41
0.705556
  0
VERTEX
  8
C00-00-00-BLACK
 10
127
 20
72.6722
 30
0.0
 40
0.705556
 41
0.705556
  0
VERTEX
  8
C00-00-00-BLACK
 10
127
 20
98.0722
 30
0.0
 40
0.705556
 41
0.705556
  0
VERTEX
  8
C00-00-00-BLACK
 10
88.9
 20
98.0722
 30
0.0
 40
0.705556
 41
0.705556
  0
VERTEX
  8
C00-00-00-BLACK
 10
88.9
 20
72.6722
 30
0.0
 40
0.705556
 41
0.705556
  0
SEQEND
 8
0
  0
POLYLINE
  8
C00-00-00-BLACK
 66
     1
 10
0
 20
0
 30
0.0
 70
     1
 40
2
 41
2
  0
VERTEX
  8
C00-00-00-BLACK
 10
131.561
 20
72.6722
 30
0.0
 40
0.705556
 41
0.705556
  0
VERTEX
  8
C00-00-00-BLACK
 10
169.661
 20
72.6722
 30
0.0
 40
0.705556
 41
0.705556
  0
VERTEX
  8
C00-00-00-BLACK
 10
169.661
 20
98.0722
 30
0.0
 40
0.705556
 41
0.705556
  0
VERTEX
  8
C00-00-00-BLACK
 10
131.561
 20
98.0722
 30
0.0
 40
0.705556
 41
0.705556
  0
VERTEX
  8
C00-00-00-BLACK
 10
131.561
 20
72.6722
 30
0.0
 40
0.705556
 41
0.705556
  0
SEQEND
 8
0
  0
POLYLINE
  8
C00-00-00-BLACK
 66
     1
 10
0
 20
0
 30
0.0
 70
     1
 40
2
 41
2
  0
VERTEX
  8
C00-00-00-BLACK
 10
174.222
 20
72.6722
 30
0.0
 40
0.705556
 41
0.705556
  0
VERTEX
  8
C00-00-00-BLACK
 10
212.322
 20
72.6722
 30
0.0
 40
0.705556
 41
0.705556
  0
VERTEX
  8
C00-00-00-BLACK
 10
212.322
 20
98.0722
 30
0.0
 40
0.705556
 41
0.705556
  0
VERTEX
  8
C00-00-00-BLACK
 10
174.222
 20
98.0722
 30
0.0
 40
0.705556
 41
0.705556
  0
VERTEX
  8
C00-00-00-BLACK
 10
174.222
 20
72.6722
 30
0.0
 40
0.705556
 41
0.705556
  0
SEQEND
 8
0
  0
POLYLINE
  8
C00-00-00-BLACK
 66
     1
 10
0
 20
0
 30
0.0
 70
     1
 40
0
 41
0
  0
VERTEX
  8
C00-00-00-BLACK
 10
3.52778
 20
277.636
 30
0.0
 40
0
 41
0
  0
VERTEX
  8
C00-00-00-BLACK
 10
3.52778
 20
277.808
 30
0.0
 40
0
 41
0
  0
VERTEX
  8
C00-00-00-BLACK
 10
3.3886
 20
278.324
 30
0.0
 40
0
 41
0
  0
VERTEX
  8
C00-00-00-BLACK
 10
3.01101
 20
278.885
 30
0.0
 40
0
 41
0
  0
VERTEX
  8
C00-00-00-BLACK
 10
2.45015
 20
279.262
 30
0.0
 40
0
 41
0
  0
VERTEX
  8
C00-00-00-BLACK
 10
1.93477
 20
279.4
 30
0.0
 40
0
 41
0
  0
VERTEX
  8
C00-00-00-BLACK
 10
1.76389
 20
279.4
 30
0.0
 40
0
 41
0
  0
VERTEX
  8
C00-00-00-BLACK
 10
1.59163
 20
279.4
 30
0.0
 40
0
 41
0
  0
VERTEX
  8
C00-00-00-BLACK
 10
1.07625
 20
279.262
 30
0.0
 40
0
 41
0
  0
VERTEX
  8
C00-00-00-BLACK
 10
0.515387
 20
278.885
 30
0.0
 40
0
 41
0
  0
VERTEX
  8
C00-00-00-BLACK
 10
0.137804
 20
278.324
 30
0.0
 40
0
 41
0
  0
VERTEX
  8
C00-00-00-BLACK
 10
0
 20
277.808
 30
0.0
 40
0
 41
0
  0
VERTEX
  8
C00-00-00-BLACK
 10
0
 20
277.636
 30
0.0
 40
0
 41
0
  0
VERTEX
  8
C00-00-00-BLACK
 10
0
 20
277.465
 30
0.0
 40
0
 41
0
  0
VERTEX
  8
C00-00-00-BLACK
 10
0.137804
 20
276.95
 30
0.0
 40
0
 41
0
  0
VERTEX
  8
C00-00-00-BLACK
 10
0.515387
 20
276.389
 30
0.0
 40
0
 41
0
  0
VERTEX
  8
C00-00-00-BLACK
 10
1.07625
 20
276.012
 30
0.0
 40
0
 41
0
  0
VERTEX
  8
C00-00-00-BLACK
 10
1.59163
 20
275.872
 30
0.0
 40
0
 41
0
  0
VERTEX
  8
C00-00-00-BLACK
 10
1.76389
 20
275.872
 30
0.0
 40
0
 41
0
  0
VERTEX
  8
C00-00-00-BLACK
 10
1.93477
 20
275.872
 30
0.0
 40
0
 41
0
  0
VERTEX
  8
C00-00-00-BLACK
 10
2.45015
 20
276.012
 30
0.0
 40
0
 41
0
  0
VERTEX
  8
C00-00-00-BLACK
 10
3.01101
 20
276.389
 30
0.0
 40
0
 41
0
  0
VERTEX
  8
C00-00-00-BLACK
 10
3.3886
 20
276.95
 30
0.0
 40
0
 41
0
  0
VERTEX
  8
C00-00-00-BLACK
 10
3.52778
 20
277.465
 30
0.0
 40
0
 41
0
  0
VERTEX
  8
C00-00-00-BLACK
 10
3.52778
 20
277.636
 30
0.0
 40
0
 41
0
  0
SEQEND
 8
0
  0
POLYLINE
  8
C00-00-00-BLACK
 66
     1
 10
0
 20
0
 30
0.0
 70
     1
 40
0
 41
0
  0
VERTEX
  8
C00-00-00-BLACK
 10
215.9
 20
277.636
 30
0.0
 40
0
 41
0
  0
VERTEX
  8
C00-00-00-BLACK
 10
215.9
 20
277.808
 30
0.0
 40
0
 41
0
  0
VERTEX
  8
C00-00-00-BLACK
 10
215.761
 20
278.324
 30
0.0
 40
0
 41
0
  0
VERTEX
  8
C00-00-00-BLACK
 10
215.383
 20
278.885
 30
0.0
 40
0
 41
0
  0
VERTEX
  8
C00-00-00-BLACK
 10
214.822
 20
279.262
 30
0.0
 40
0
 41
0
  0
VERTEX
  8
C00-00-00-BLACK
 10
214.307
 20
279.4
 30
0.0
 40
0
 41
0
  0
VERTEX
  8
C00-00-00-BLACK
 10
214.136
 20
279.4
 30
0.0
 40
0
 41
0
  0
VERTEX
  8
C00-00-00-BLACK
 10
213.964
 20
279.4
 30
0.0
 40
0
 41
0
  0
VERTEX
  8
C00-00-00-BLACK
 10
213.449
 20
279.262
 30
0.0
 40
0
 41
0
  0
VERTEX
  8
C00-00-00-BLACK
 10
212.888
 20
278.885
 30
0.0
 40
0
 41
0
  0
VERTEX
  8
C00-00-00-BLACK
 10
212.51
 20
278.324
 30
0.0
 40
0
 41
0
  0
VERTEX
  8
C00-00-00-BLACK
 10
212.372
 20
277.808
 30
0.0
 40
0
 41
0
  0
VERTEX
  8
C00-00-00-BLACK
 10
212.372
 20
277.636
 30
0.0
 40
0
 41
0
  0
VERTEX
  8
C00-00-00-BLACK
 10
212.372
 20
277.465
 30
0.0
 40
0
 41
0
  0
VERTEX
  8
C00-00-00-BLACK
 10
212.51
 20
276.95
 30
0.0
 40
0
 41
0
  0
VERTEX
  8
C00-00-00-BLACK
 10
212.888
 20
276.389
 30
0.0
 40
0
 41
0
  0
VERTEX
  8
C00-00-00-BLACK
 10
213.449
 20
276.012
 30
0.0
 40
0
 41
0
  0
VERTEX
  8
C00-00-00-BLACK
 10
213.964
 20
275.872
 30
0.0
 40
0
 41
0
  0
VERTEX
  8
C00-00-00-BLACK
 10
214.136
 20
275.872
 30
0.0
 40
0
 41
0
  0
VERTEX
  8
C00-00-00-BLACK
 10
214.307
 20
275.872
 30
0.0
 40
0
 41
0
  0
VERTEX
  8
C00-00-00-BLACK
 10
214.822
 20
276.012
 30
0.0
 40
0
 41
0
  0
VERTEX
  8
C00-00-00-BLACK
 10
215.383
 20
276.389
 30
0.0
 40
0
 41
0
  0
VERTEX
  8
C00-00-00-BLACK
 10
215.761
 20
276.95
 30
0.0
 40
0
 41
0
  0
VERTEX
  8
C00-00-00-BLACK
 10
215.9
 20
277.465
 30
0.0
 40
0
 41
0
  0
VERTEX
  8
C00-00-00-BLACK
 10
215.9
 20
277.636
 30
0.0
 40
0
 41
0
  0
SEQEND
 8
0
  0
POLYLINE
  8
C00-00-00-BLACK
 66
     1
 10
0
 20
0
 30
0.0
 70
     1
 40
0
 41
0
  0
VERTEX
  8
C00-00-00-BLACK
 10
3.52778
 20
1.76389
 30
0.0
 40
0
 41
0
  0
VERTEX
  8
C00-00-00-BLACK
 10
3.52778
 20
1.93614
 30
0.0
 40
0
 41
0
  0
VERTEX
  8
C00-00-00-BLACK
 10
3.3886
 20
2.45153
 30
0.0
 40
0
 41
0
  0
VERTEX
  8
C00-00-00-BLACK
 10
3.01101
 20
3.01239
 30
0.0
 40
0
 41
0
  0
VERTEX
  8
C00-00-00-BLACK
 10
2.45015
 20
3.38998
 30
0.0
 40
0
 41
0
  0
VERTEX
  8
C00-00-00-BLACK
 10
1.93477
 20
3.52778
 30
0.0
 40
0
 41
0
  0
VERTEX
  8
C00-00-00-BLACK
 10
1.76389
 20
3.52778
 30
0.0
 40
0
 41
0
  0
VERTEX
  8
C00-00-00-BLACK
 10
1.59163
 20
3.52778
 30
0.0
 40
0
 41
0
  0
VERTEX
  8
C00-00-00-BLACK
 10
1.07625
 20
3.38998
 30
0.0
 40
0
 41
0
  0
VERTEX
  8
C00-00-00-BLACK
 10
0.515387
 20
3.01239
 30
0.0
 40
0
 41
0
  0
VERTEX
  8
C00-00-00-BLACK
 10
0.137804
 20
2.45153
 30
0.0
 40
0
 41
0
  0
VERTEX
  8
C00-00-00-BLACK
 10
0
 20
1.93614
 30
0.0
 40
0
 41
0
  0
VERTEX
  8
C00-00-00-BLACK
 10
0
 20
1.76389
 30
0.0
 40
0
 41
0
  0
VERTEX
  8
C00-00-00-BLACK
 10
0
 20
1.59301
 30
0.0
 40
0
 41
0
  0
VERTEX
  8
C00-00-00-BLACK
 10
0.137804
 20
1.07763
 30
0.0
 40
0
 41
0
  0
VERTEX
  8
C00-00-00-BLACK
 10
0.515387
 20
0.516763
 30
0.0
 40
0
 41
0
  0
VERTEX
  8
C00-00-00-BLACK
 10
1.07625
 20
0.139182
 30
0.0
 40
0
 41
0
  0
VERTEX
  8
C00-00-00-BLACK
 10
1.59163
 20
0
 30
0.0
 40
0
 41
0
  0
VERTEX
  8
C00-00-00-BLACK
 10
1.76389
 20
0
 30
0.0
 40
0
 41
0
  0
VERTEX
  8
C00-00-00-BLACK
 10
1.93477
 20
0
 30
0.0
 40
0
 41
0
  0
VERTEX
  8
C00-00-00-BLACK
 10
2.45015
 20
0.139182
 30
0.0
 40
0
 41
0
  0
VERTEX
  8
C00-00-00-BLACK
 10
3.01101
 20
0.516763
 30
0.0
 40
0
 41
0
  0
VERTEX
  8
C00-00-00-BLACK
 10
3.3886
 20
1.07763
 30
0.0
 40
0
 41
0
  0
VERTEX
  8
C00-00-00-BLACK
 10
3.52778
 20
1.59301
 30
0.0
 40
0
 41
0
  0
VERTEX
  8
C00-00-00-BLACK
 10
3.52778
 20
1.76389
 30
0.0
 40
0
 41
0
  0
SEQEND
 8
0
  0
POLYLINE
  8
C00-00-00-BLACK
 66
     1
 10
0
 20
0
 30
0.0
 70
     1
 40
0
 41
0
  0
VERTEX
  8
C00-00-00-BLACK
 10
215.9
 20
1.76389
 30
0.0
 40
0
 41
0
  0
VERTEX
  8
C00-00-00-BLACK
 10
215.9
 20
1.93614
 30
0.0
 40
0
 41
0
  0
VERTEX
  8
C00-00-00-BLACK
 10
215.761
 20
2.45153
 30
0.0
 40
0
 41
0
  0
VERTEX
  8
C00-00-00-BLACK
 10
215.383
 20
3.01239
 30
0.0
 40
0
 41
0
  0
VERTEX
  8
C00-00-00-BLACK
 10
214.822
 20
3.38998
 30
0.0
 40
0
 41
0
  0
VERTEX
  8
C00-00-00-BLACK
 10
214.307
 20
3.52778
 30
0.0
 40
0
 41
0
  0
VERTEX
  8
C00-00-00-BLACK
 10
214.136
 20
3.52778
 30
0.0
 40
0
 41
0
  0
VERTEX
  8
C00-00-00-BLACK
 10
213.964
 20
3.52778
 30
0.0
 40
0
 41
0
  0
VERTEX
  8
C00-00-00-BLACK
 10
213.449
 20
3.38998
 30
0.0
 40
0
 41
0
  0
VERTEX
  8
C00-00-00-BLACK
 10
212.888
 20
3.01239
 30
0.0
 40
0
 41
0
  0
VERTEX
  8
C00-00-00-BLACK
 10
212.51
 20
2.45153
 30
0.0
 40
0
 41
0
  0
VERTEX
  8
C00-00-00-BLACK
 10
212.372
 20
1.93614
 30
0.0
 40
0
 41
0
  0
VERTEX
  8
C00-00-00-BLACK
 10
212.372
 20
1.76389
 30
0.0
 40
0
 41
0
  0
VERTEX
  8
C00-00-00-BLACK
 10
212.372
 20
1.59301
 30
0.0
 40
0
 41
0
  0
VERTEX
  8
C00-00-00-BLACK
 10
212.51
 20
1.07763
 30
0.0
 40
0
 41
0
  0
VERTEX
  8
C00-00-00-BLACK
 10
212.888
 20
0.516763
 30
0.0
 40
0
 41
0
  0
VERTEX
  8
C00-00-00-BLACK
 10
213.449
 20
0.139182
 30
0.0
 40
0
 41
0
  0
VERTEX
  8
C00-00-00-BLACK
 10
213.964
 20
0
 30
0.0
 40
0
 41
0
  0
VERTEX
  8
C00-00-00-BLACK
 10
214.136
 20
0
 30
0.0
 40
0
 41
0
  0
VERTEX
  8
C00-00-00-BLACK
 10
214.307
 20
0
 30
0.0
 40
0
 41
0
  0
VERTEX
  8
C00-00-00-BLACK
 10
214.822
 20
0.139182
 30
0.0
 40
0
 41
0
  0
VERTEX
  8
C00-00-00-BLACK
 10
215.383
 20
0.516763
 30
0.0
 40
0
 41
0
  0
VERTEX
  8
C00-00-00-BLACK
 10
215.761
 20
1.07763
 30
0.0
 40
0
 41
0
  0
VERTEX
  8
C00-00-00-BLACK
 10
215.9
 20
1.59301
 30
0.0
 40
0
 41
0
  0
VERTEX
  8
C00-00-00-BLACK
 10
215.9
 20
1.76389
 30
0.0
 40
0
 41
0
  0
SEQEND
 8
0
  0
POLYLINE
  8
C00-00-00-BLACK
 66
     1
 10
0
 20
0
 30
0.0
 70
     1
 40
2
 41
2
  0
VERTEX
  8
C00-00-00-BLACK
 10
3.57738
 20
47.2722
 30
0.0
 40
0.705556
 41
0.705556
  0
VERTEX
  8
C00-00-00-BLACK
 10
41.6775
 20
47.2722
 30
0.0
 40
0.705556
 41
0.705556
  0
VERTEX
  8
C00-00-00-BLACK
 10
41.6775
 20
72.6722
 30
0.0
 40
0.705556
 41
0.705556
  0
VERTEX
  8
C00-00-00-BLACK
 10
3.57738
 20
72.6722
 30
0.0
 40
0.705556
 41
0.705556
  0
VERTEX
  8
C00-00-00-BLACK
 10
3.57738
 20
47.2722
 30
0.0
 40
0.705556
 41
0.705556
  0
SEQEND
 8
0
  0
POLYLINE
  8
C00-00-00-BLACK
 66
     1
 10
0
 20
0
 30
0.0
 70
     1
 40
2
 41
2
  0
VERTEX
  8
C00-00-00-BLACK
 10
46.2386
 20
47.2722
 30
0.0
 40
0.705556
 41
0.705556
  0
VERTEX
  8
C00-00-00-BLACK
 10
84.3386
 20
47.2722
 30
0.0
 40
0.705556
 41
0.705556
  0
VERTEX
  8
C00-00-00-BLACK
 10
84.3386
 20
72.6722
 30
0.0
 40
0.705556
 41
0.705556
  0
VERTEX
  8
C00-00-00-BLACK
 10
46.2386
 20
72.6722
 30
0.0
 40
0.705556
 41
0.705556
  0
VERTEX
  8
C00-00-00-BLACK
 10
46.2386
 20
47.2722
 30
0.0
 40
0.705556
 41
0.705556
  0
SEQEND
 8
0
  0
POLYLINE
  8
C00-00-00-BLACK
 66
     1
 10
0
 20
0
 30
0.0
 70
     1
 40
2
 41
2
  0
VERTEX
  8
C00-00-00-BLACK
 10
88.9
 20
47.2722
 30
0.0
 40
0.705556
 41
0.705556
  0
VERTEX
  8
C00-00-00-BLACK
 10
127
 20
47.2722
 30
0.0
 40
0.705556
 41
0.705556
  0
VERTEX
  8
C00-00-00-BLACK
 10
127
 20
72.6722
 30
0.0
 40
0.705556
 41
0.705556
  0
VERTEX
  8
C00-00-00-BLACK
 10
88.9
 20
72.6722
 30
0.0
 40
0.705556
 41
0.705556
  0
VERTEX
  8
C00-00-00-BLACK
 10
88.9
 20
47.2722
 30
0.0
 40
0.705556
 41
0.705556
  0
SEQEND
 8
0
  0
POLYLINE
  8
C00-00-00-BLACK
 66
     1
 10
0
 20
0
 30
0.0
 70
     1
 40
2
 41
2
  0
VERTEX
  8
C00-00-00-BLACK
 10
131.561
 20
47.2722
 30
0.0
 40
0.705556
 41
0.705556
  0
VERTEX
  8
C00-00-00-BLACK
 10
169.661
 20
47.2722
 30
0.0
 40
0.705556
 41
0.705556
  0
VERTEX
  8
C00-00-00-BLACK
 10
169.661
 20
72.6722
 30
0.0
 40
0.705556
 41
0.705556
  0
VERTEX
  8
C00-00-00-BLACK
 10
131.561
 20
72.6722
 30
0.0
 40
0.705556
 41
0.705556
  0
VERTEX
  8
C00-00-00-BLACK
 10
131.561
 20
47.2722
 30
0.0
 40
0.705556
 41
0.705556
  0
SEQEND
 8
0
  0
POLYLINE
  8
C00-00-00-BLACK
 66
     1
 10
0
 20
0
 30
0.0
 70
     1
 40
2
 41
2
  0
VERTEX
  8
C00-00-00-BLACK
 10
174.222
 20
47.2722
 30
0.0
 40
0.705556
 41
0.705556
  0
VERTEX
  8
C00-00-00-BLACK
 10
212.322
 20
47.2722
 30
0.0
 40
0.705556
 41
0.705556
  0
VERTEX
  8
C00-00-00-BLACK
 10
212.322
 20
72.6722
 30
0.0
 40
0.705556
 41
0.705556
  0
VERTEX
  8
C00-00-00-BLACK
 10
174.222
 20
72.6722
 30
0.0
 40
0.705556
 41
0.705556
  0
VERTEX
  8
C00-00-00-BLACK
 10
174.222
 20
47.2722
 30
0.0
 40
0.705556
 41
0.705556
  0
SEQEND
 8
0
  0
POLYLINE
  8
C00-00-00-BLACK
 66
     1
 10
0
 20
0
 30
0.0
 70
     1
 40
0
 41
0
  0
VERTEX
  8
C00-00-00-BLACK
 10
3.52778
 20
277.636
 30
0.0
 40
0
 41
0
  0
VERTEX
  8
C00-00-00-BLACK
 10
3.52778
 20
277.808
 30
0.0
 40
0
 41
0
  0
VERTEX
  8
C00-00-00-BLACK
 10
3.3886
 20
278.324
 30
0.0
 40
0
 41
0
  0
VERTEX
  8
C00-00-00-BLACK
 10
3.01101
 20
278.885
 30
0.0
 40
0
 41
0
  0
VERTEX
  8
C00-00-00-BLACK
 10
2.45015
 20
279.262
 30
0.0
 40
0
 41
0
  0
VERTEX
  8
C00-00-00-BLACK
 10
1.93477
 20
279.4
 30
0.0
 40
0
 41
0
  0
VERTEX
  8
C00-00-00-BLACK
 10
1.76389
 20
279.4
 30
0.0
 40
0
 41
0
  0
VERTEX
  8
C00-00-00-BLACK
 10
1.59163
 20
279.4
 30
0.0
 40
0
 41
0
  0
VERTEX
  8
C00-00-00-BLACK
 10
1.07625
 20
279.262
 30
0.0
 40
0
 41
0
  0
VERTEX
  8
C00-00-00-BLACK
 10
0.515387
 20
278.885
 30
0.0
 40
0
 41
0
  0
VERTEX
  8
C00-00-00-BLACK
 10
0.137804
 20
278.324
 30
0.0
 40
0
 41
0
  0
VERTEX
  8
C00-00-00-BLACK
 10
0
 20
277.808
 30
0.0
 40
0
 41
0
  0
VERTEX
  8
C00-00-00-BLACK
 10
0
 20
277.636
 30
0.0
 40
0
 41
0
  0
VERTEX
  8
C00-00-00-BLACK
 10
0
 20
277.465
 30
0.0
 40
0
 41
0
  0
VERTEX
  8
C00-00-00-BLACK
 10
0.137804
 20
276.95
 30
0.0
 40
0
 41
0
  0
VERTEX
  8
C00-00-00-BLACK
 10
0.515387
 20
276.389
 30
0.0
 40
0
 41
0
  0
VERTEX
  8
C00-00-00-BLACK
 10
1.07625
 20
276.012
 30
0.0
 40
0
 41
0
  0
VERTEX
  8
C00-00-00-BLACK
 10
1.59163
 20
275.872
 30
0.0
 40
0
 41
0
  0
VERTEX
  8
C00-00-00-BLACK
 10
1.76389
 20
275.872
 30
0.0
 40
0
 41
0
  0
VERTEX
  8
C00-00-00-BLACK
 10
1.93477
 20
275.872
 30
0.0
 40
0
 41
0
  0
VERTEX
  8
C00-00-00-BLACK
 10
2.45015
 20
276.012
 30
0.0
 40
0
 41
0
  0
VERTEX
  8
C00-00-00-BLACK
 10
3.01101
 20
276.389
 30
0.0
 40
0
 41
0
  0
VERTEX
  8
C00-00-00-BLACK
 10
3.3886
 20
276.95
 30
0.0
 40
0
 41
0
  0
VERTEX
  8
C00-00-00-BLACK
 10
3.52778
 20
277.465
 30
0.0
 40
0
 41
0
  0
VERTEX
  8
C00-00-00-BLACK
 10
3.52778
 20
277.636
 30
0.0
 40
0
 41
0
  0
SEQEND
 8
0
  0
POLYLINE
  8
C00-00-00-BLACK
 66
     1
 10
0
 20
0
 30
0.0
 70
     1
 40
0
 41
0
  0
VERTEX
  8
C00-00-00-BLACK
 10
215.9
 20
277.636
 30
0.0
 40
0
 41
0
  0
VERTEX
  8
C00-00-00-BLACK
 10
215.9
 20
277.808
 30
0.0
 40
0
 41
0
  0
VERTEX
  8
C00-00-00-BLACK
 10
215.761
 20
278.324
 30
0.0
 40
0
 41
0
  0
VERTEX
  8
C00-00-00-BLACK
 10
215.383
 20
278.885
 30
0.0
 40
0
 41
0
  0
VERTEX
  8
C00-00-00-BLACK
 10
214.822
 20
279.262
 30
0.0
 40
0
 41
0
  0
VERTEX
  8
C00-00-00-BLACK
 10
214.307
 20
279.4
 30
0.0
 40
0
 41
0
  0
VERTEX
  8
C00-00-00-BLACK
 10
214.136
 20
279.4
 30
0.0
 40
0
 41
0
  0
VERTEX
  8
C00-00-00-BLACK
 10
213.964
 20
279.4
 30
0.0
 40
0
 41
0
  0
VERTEX
  8
C00-00-00-BLACK
 10
213.449
 20
279.262
 30
0.0
 40
0
 41
0
  0
VERTEX
  8
C00-00-00-BLACK
 10
212.888
 20
278.885
 30
0.0
 40
0
 41
0
  0
VERTEX
  8
C00-00-00-BLACK
 10
212.51
 20
278.324
 30
0.0
 40
0
 41
0
  0
VERTEX
  8
C00-00-00-BLACK
 10
212.372
 20
277.808
 30
0.0
 40
0
 41
0
  0
VERTEX
  8
C00-00-00-BLACK
 10
212.372
 20
277.636
 30
0.0
 40
0
 41
0
  0
VERTEX
  8
C00-00-00-BLACK
 10
212.372
 20
277.465
 30
0.0
 40
0
 41
0
  0
VERTEX
  8
C00-00-00-BLACK
 10
212.51
 20
276.95
 30
0.0
 40
0
 41
0
  0
VERTEX
  8
C00-00-00-BLACK
 10
212.888
 20
276.389
 30
0.0
 40
0
 41
0
  0
VERTEX
  8
C00-00-00-BLACK
 10
213.449
 20
276.012
 30
0.0
 40
0
 41
0
  0
VERTEX
  8
C00-00-00-BLACK
 10
213.964
 20
275.872
 30
0.0
 40
0
 41
0
  0
VERTEX
  8
C00-00-00-BLACK
 10
214.136
 20
275.872
 30
0.0
 40
0
 41
0
  0
VERTEX
  8
C00-00-00-BLACK
 10
214.307
 20
275.872
 30
0.0
 40
0
 41
0
  0
VERTEX
  8
C00-00-00-BLACK
 10
214.822
 20
276.012
 30
0.0
 40
0
 41
0
  0
VERTEX
  8
C00-00-00-BLACK
 10
215.383
 20
276.389
 30
0.0
 40
0
 41
0
  0
VERTEX
  8
C00-00-00-BLACK
 10
215.761
 20
276.95
 30
0.0
 40
0
 41
0
  0
VERTEX
  8
C00-00-00-BLACK
 10
215.9
 20
277.465
 30
0.0
 40
0
 41
0
  0
VERTEX
  8
C00-00-00-BLACK
 10
215.9
 20
277.636
 30
0.0
 40
0
 41
0
  0
SEQEND
 8
0
  0
POLYLINE
  8
C00-00-00-BLACK
 66
     1
 10
0
 20
0
 30
0.0
 70
     1
 40
0
 41
0
  0
VERTEX
  8
C00-00-00-BLACK
 10
3.52778
 20
1.76389
 30
0.0
 40
0
 41
0
  0
VERTEX
  8
C00-00-00-BLACK
 10
3.52778
 20
1.93614
 30
0.0
 40
0
 41
0
  0
VERTEX
  8
C00-00-00-BLACK
 10
3.3886
 20
2.45153
 30
0.0
 40
0
 41
0
  0
VERTEX
  8
C00-00-00-BLACK
 10
3.01101
 20
3.01239
 30
0.0
 40
0
 41
0
  0
VERTEX
  8
C00-00-00-BLACK
 10
2.45015
 20
3.38998
 30
0.0
 40
0
 41
0
  0
VERTEX
  8
C00-00-00-BLACK
 10
1.93477
 20
3.52778
 30
0.0
 40
0
 41
0
  0
VERTEX
  8
C00-00-00-BLACK
 10
1.76389
 20
3.52778
 30
0.0
 40
0
 41
0
  0
VERTEX
  8
C00-00-00-BLACK
 10
1.59163
 20
3.52778
 30
0.0
 40
0
 41
0
  0
VERTEX
  8
C00-00-00-BLACK
 10
1.07625
 20
3.38998
 30
0.0
 40
0
 41
0
  0
VERTEX
  8
C00-00-00-BLACK
 10
0.515387
 20
3.01239
 30
0.0
 40
0
 41
0
  0
VERTEX
  8
C00-00-00-BLACK
 10
0.137804
 20
2.45153
 30
0.0
 40
0
 41
0
  0
VERTEX
  8
C00-00-00-BLACK
 10
0
 20
1.93614
 30
0.0
 40
0
 41
0
  0
VERTEX
  8
C00-00-00-BLACK
 10
0
 20
1.76389
 30
0.0
 40
0
 41
0
  0
VERTEX
  8
C00-00-00-BLACK
 10
0
 20
1.59301
 30
0.0
 40
0
 41
0
  0
VERTEX
  8
C00-00-00-BLACK
 10
0.137804
 20
1.07763
 30
0.0
 40
0
 41
0
  0
VERTEX
  8
C00-00-00-BLACK
 10
0.515387
 20
0.516763
 30
0.0
 40
0
 41
0
  0
VERTEX
  8
C00-00-00-BLACK
 10
1.07625
 20
0.139182
 30
0.0
 40
0
 41
0
  0
VERTEX
  8
C00-00-00-BLACK
 10
1.59163
 20
0
 30
0.0
 40
0
 41
0
  0
VERTEX
  8
C00-00-00-BLACK
 10
1.76389
 20
0
 30
0.0
 40
0
 41
0
  0
VERTEX
  8
C00-00-00-BLACK
 10
1.93477
 20
0
 30
0.0
 40
0
 41
0
  0
VERTEX
  8
C00-00-00-BLACK
 10
2.45015
 20
0.139182
 30
0.0
 40
0
 41
0
  0
VERTEX
  8
C00-00-00-BLACK
 10
3.01101
 20
0.516763
 30
0.0
 40
0
 41
0
  0
VERTEX
  8
C00-00-00-BLACK
 10
3.3886
 20
1.07763
 30
0.0
 40
0
 41
0
  0
VERTEX
  8
C00-00-00-BLACK
 10
3.52778
 20
1.59301
 30
0.0
 40
0
 41
0
  0
VERTEX
  8
C00-00-00-BLACK
 10
3.52778
 20
1.76389
 30
0.0
 40
0
 41
0
  0
SEQEND
 8
0
  0
POLYLINE
  8
C00-00-00-BLACK
 66
     1
 10
0
 20
0
 30
0.0
 70
     1
 40
0
 41
0
  0
VERTEX
  8
C00-00-00-BLACK
 10
215.9
 20
1.76389
 30
0.0
 40
0
 41
0
  0
VERTEX
  8
C00-00-00-BLACK
 10
215.9
 20
1.93614
 30
0.0
 40
0
 41
0
  0
VERTEX
  8
C00-00-00-BLACK
 10
215.761
 20
2.45153
 30
0.0
 40
0
 41
0
  0
VERTEX
  8
C00-00-00-BLACK
 10
215.383
 20
3.01239
 30
0.0
 40
0
 41
0
  0
VERTEX
  8
C00-00-00-BLACK
 10
214.822
 20
3.38998
 30
0.0
 40
0
 41
0
  0
VERTEX
  8
C00-00-00-BLACK
 10
214.307
 20
3.52778
 30
0.0
 40
0
 41
0
  0
VERTEX
  8
C00-00-00-BLACK
 10
214.136
 20
3.52778
 30
0.0
 40
0
 41
0
  0
VERTEX
  8
C00-00-00-BLACK
 10
213.964
 20
3.52778
 30
0.0
 40
0
 41
0
  0
VERTEX
  8
C00-00-00-BLACK
 10
213.449
 20
3.38998
 30
0.0
 40
0
 41
0
  0
VERTEX
  8
C00-00-00-BLACK
 10
212.888
 20
3.01239
 30
0.0
 40
0
 41
0
  0
VERTEX
  8
C00-00-00-BLACK
 10
212.51
 20
2.45153
 30
0.0
 40
0
 41
0
  0
VERTEX
  8
C00-00-00-BLACK
 10
212.372
 20
1.93614
 30
0.0
 40
0
 41
0
  0
VERTEX
  8
C00-00-00-BLACK
 10
212.372
 20
1.76389
 30
0.0
 40
0
 41
0
  0
VERTEX
  8
C00-00-00-BLACK
 10
212.372
 20
1.59301
 30
0.0
 40
0
 41
0
  0
VERTEX
  8
C00-00-00-BLACK
 10
212.51
 20
1.07763
 30
0.0
 40
0
 41
0
  0
VERTEX
  8
C00-00-00-BLACK
 10
212.888
 20
0.516763
 30
0.0
 40
0
 41
0
  0
VERTEX
  8
C00-00-00-BLACK
 10
213.449
 20
0.139182
 30
0.0
 40
0
 41
0
  0
VERTEX
  8
C00-00-00-BLACK
 10
213.964
 20
0
 30
0.0
 40
0
 41
0
  0
VERTEX
  8
C00-00-00-BLACK
 10
214.136
 20
0
 30
0.0
 40
0
 41
0
  0
VERTEX
  8
C00-00-00-BLACK
 10
214.307
 20
0
 30
0.0
 40
0
 41
0
  0
VERTEX
  8
C00-00-00-BLACK
 10
214.822
 20
0.139182
 30
0.0
 40
0
 41
0
  0
VERTEX
  8
C00-00-00-BLACK
 10
215.383
 20
0.516763
 30
0.0
 40
0
 41
0
  0
VERTEX
  8
C00-00-00-BLACK
 10
215.761
 20
1.07763
 30
0.0
 40
0
 41
0
  0
VERTEX
  8
C00-00-00-BLACK
 10
215.9
 20
1.59301
 30
0.0
 40
0
 41
0
  0
VERTEX
  8
C00-00-00-BLACK
 10
215.9
 20
1.76389
 30
0.0
 40
0
 41
0
  0
SEQEND
 8
0
  0
POLYLINE
  8
C00-00-00-BLACK
 66
     1
 10
0
 20
0
 30
0.0
 70
     1
 40
2
 41
2
  0
VERTEX
  8
C00-00-00-BLACK
 10
3.57738
 20
21.8722
 30
0.0
 40
0.705556
 41
0.705556
  0
VERTEX
  8
C00-00-00-BLACK
 10
41.6775
 20
21.8722
 30
0.0
 40
0.705556
 41
0.705556
  0
VERTEX
  8
C00-00-00-BLACK
 10
41.6775
 20
47.2722
 30
0.0
 40
0.705556
 41
0.705556
  0
VERTEX
  8
C00-00-00-BLACK
 10
3.57738
 20
47.2722
 30
0.0
 40
0.705556
 41
0.705556
  0
VERTEX
  8
C00-00-00-BLACK
 10
3.57738
 20
21.8722
 30
0.0
 40
0.705556
 41
0.705556
  0
SEQEND
 8
0
  0
POLYLINE
  8
C00-00-00-BLACK
 66
     1
 10
0
 20
0
 30
0.0
 70
     1
 40
2
 41
2
  0
VERTEX
  8
C00-00-00-BLACK
 10
46.2386
 20
21.8722
 30
0.0
 40
0.705556
 41
0.705556
  0
VERTEX
  8
C00-00-00-BLACK
 10
84.3386
 20
21.8722
 30
0.0
 40
0.705556
 41
0.705556
  0
VERTEX
  8
C00-00-00-BLACK
 10
84.3386
 20
47.2722
 30
0.0
 40
0.705556
 41
0.705556
  0
VERTEX
  8
C00-00-00-BLACK
 10
46.2386
 20
47.2722
 30
0.0
 40
0.705556
 41
0.705556
  0
VERTEX
  8
C00-00-00-BLACK
 10
46.2386
 20
21.8722
 30
0.0
 40
0.705556
 41
0.705556
  0
SEQEND
 8
0
  0
POLYLINE
  8
C00-00-00-BLACK
 66
     1
 10
0
 20
0
 30
0.0
 70
     1
 40
2
 41
2
  0
VERTEX
  8
C00-00-00-BLACK
 10
88.9
 20
21.8722
 30
0.0
 40
0.705556
 41
0.705556
  0
VERTEX
  8
C00-00-00-BLACK
 10
127
 20
21.8722
 30
0.0
 40
0.705556
 41
0.705556
  0
VERTEX
  8
C00-00-00-BLACK
 10
127
 20
47.2722
 30
0.0
 40
0.705556
 41
0.705556
  0
VERTEX
  8
C00-00-00-BLACK
 10
88.9
 20
47.2722
 30
0.0
 40
0.705556
 41
0.705556
  0
VERTEX
  8
C00-00-00-BLACK
 10
88.9
 20
21.8722
 30
0.0
 40
0.705556
 41
0.705556
  0
SEQEND
 8
0
  0
POLYLINE
  8
C00-00-00-BLACK
 66
     1
 10
0
 20
0
 30
0.0
 70
     1
 40
2
 41
2
  0
VERTEX
  8
C00-00-00-BLACK
 10
131.561
 20
21.8722
 30
0.0
 40
0.705556
 41
0.705556
  0
VERTEX
  8
C00-00-00-BLACK
 10
169.661
 20
21.8722
 30
0.0
 40
0.705556
 41
0.705556
  0
VERTEX
  8
C00-00-00-BLACK
 10
169.661
 20
47.2722
 30
0.0
 40
0.705556
 41
0.705556
  0
VERTEX
  8
C00-00-00-BLACK
 10
131.561
 20
47.2722
 30
0.0
 40
0.705556
 41
0.705556
  0
VERTEX
  8
C00-00-00-BLACK
 10
131.561
 20
21.8722
 30
0.0
 40
0.705556
 41
0.705556
  0
SEQEND
 8
0
  0
POLYLINE
  8
C00-00-00-BLACK
 66
     1
 10
0
 20
0
 30
0.0
 70
     1
 40
2
 41
2
  0
VERTEX
  8
C00-00-00-BLACK
 10
174.222
 20
21.8722
 30
0.0
 40
0.705556
 41
0.705556
  0
VERTEX
  8
C00-00-00-BLACK
 10
212.322
 20
21.8722
 30
0.0
 40
0.705556
 41
0.705556
  0
VERTEX
  8
C00-00-00-BLACK
 10
212.322
 20
47.2722
 30
0.0
 40
0.705556
 41
0.705556
  0
VERTEX
  8
C00-00-00-BLACK
 10
174.222
 20
47.2722
 30
0.0
 40
0.705556
 41
0.705556
  0
VERTEX
  8
C00-00-00-BLACK
 10
174.222
 20
21.8722
 30
0.0
 40
0.705556
 41
0.705556
  0
SEQEND
 8
0
  0
POLYLINE
  8
C00-00-00-BLACK
 66
     1
 10
0
 20
0
 30
0.0
 70
     1
 40
0
 41
0
  0
VERTEX
  8
C00-00-00-BLACK
 10
3.52778
 20
277.636
 30
0.0
 40
0
 41
0
  0
VERTEX
  8
C00-00-00-BLACK
 10
3.52778
 20
277.808
 30
0.0
 40
0
 41
0
  0
VERTEX
  8
C00-00-00-BLACK
 10
3.3886
 20
278.324
 30
0.0
 40
0
 41
0
  0
VERTEX
  8
C00-00-00-BLACK
 10
3.01101
 20
278.885
 30
0.0
 40
0
 41
0
  0
VERTEX
  8
C00-00-00-BLACK
 10
2.45015
 20
279.262
 30
0.0
 40
0
 41
0
  0
VERTEX
  8
C00-00-00-BLACK
 10
1.93477
 20
279.4
 30
0.0
 40
0
 41
0
  0
VERTEX
  8
C00-00-00-BLACK
 10
1.76389
 20
279.4
 30
0.0
 40
0
 41
0
  0
VERTEX
  8
C00-00-00-BLACK
 10
1.59163
 20
279.4
 30
0.0
 40
0
 41
0
  0
VERTEX
  8
C00-00-00-BLACK
 10
1.07625
 20
279.262
 30
0.0
 40
0
 41
0
  0
VERTEX
  8
C00-00-00-BLACK
 10
0.515387
 20
278.885
 30
0.0
 40
0
 41
0
  0
VERTEX
  8
C00-00-00-BLACK
 10
0.137804
 20
278.324
 30
0.0
 40
0
 41
0
  0
VERTEX
  8
C00-00-00-BLACK
 10
0
 20
277.808
 30
0.0
 40
0
 41
0
  0
VERTEX
  8
C00-00-00-BLACK
 10
0
 20
277.636
 30
0.0
 40
0
 41
0
  0
VERTEX
  8
C00-00-00-BLACK
 10
0
 20
277.465
 30
0.0
 40
0
 41
0
  0
VERTEX
  8
C00-00-00-BLACK
 10
0.137804
 20
276.95
 30
0.0
 40
0
 41
0
  0
VERTEX
  8
C00-00-00-BLACK
 10
0.515387
 20
276.389
 30
0.0
 40
0
 41
0
  0
VERTEX
  8
C00-00-00-BLACK
 10
1.07625
 20
276.012
 30
0.0
 40
0
 41
0
  0
VERTEX
  8
C00-00-00-BLACK
 10
1.59163
 20
275.872
 30
0.0
 40
0
 41
0
  0
VERTEX
  8
C00-00-00-BLACK
 10
1.76389
 20
275.872
 30
0.0
 40
0
 41
0
  0
VERTEX
  8
C00-00-00-BLACK
 10
1.93477
 20
275.872
 30
0.0
 40
0
 41
0
  0
VERTEX
  8
C00-00-00-BLACK
 10
2.45015
 20
276.012
 30
0.0
 40
0
 41
0
  0
VERTEX
  8
C00-00-00-BLACK
 10
3.01101
 20
276.389
 30
0.0
 40
0
 41
0
  0
VERTEX
  8
C00-00-00-BLACK
 10
3.3886
 20
276.95
 30
0.0
 40
0
 41
0
  0
VERTEX
  8
C00-00-00-BLACK
 10
3.52778
 20
277.465
 30
0.0
 40
0
 41
0
  0
VERTEX
  8
C00-00-00-BLACK
 10
3.52778
 20
277.636
 30
0.0
 40
0
 41
0
  0
SEQEND
 8
0
  0
POLYLINE
  8
C00-00-00-BLACK
 66
     1
 10
0
 20
0
 30
0.0
 70
     1
 40
0
 41
0
  0
VERTEX
  8
C00-00-00-BLACK
 10
215.9
 20
277.636
 30
0.0
 40
0
 41
0
  0
VERTEX
  8
C00-00-00-BLACK
 10
215.9
 20
277.808
 30
0.0
 40
0
 41
0
  0
VERTEX
  8
C00-00-00-BLACK
 10
215.761
 20
278.324
 30
0.0
 40
0
 41
0
  0
VERTEX
  8
C00-00-00-BLACK
 10
215.383
 20
278.885
 30
0.0
 40
0
 41
0
  0
VERTEX
  8
C00-00-00-BLACK
 10
214.822
 20
279.262
 30
0.0
 40
0
 41
0
  0
VERTEX
  8
C00-00-00-BLACK
 10
214.307
 20
279.4
 30
0.0
 40
0
 41
0
  0
VERTEX
  8
C00-00-00-BLACK
 10
214.136
 20
279.4
 30
0.0
 40
0
 41
0
  0
VERTEX
  8
C00-00-00-BLACK
 10
213.964
 20
279.4
 30
0.0
 40
0
 41
0
  0
VERTEX
  8
C00-00-00-BLACK
 10
213.449
 20
279.262
 30
0.0
 40
0
 41
0
  0
VERTEX
  8
C00-00-00-BLACK
 10
212.888
 20
278.885
 30
0.0
 40
0
 41
0
  0
VERTEX
  8
C00-00-00-BLACK
 10
212.51
 20
278.324
 30
0.0
 40
0
 41
0
  0
VERTEX
  8
C00-00-00-BLACK
 10
212.372
 20
277.808
 30
0.0
 40
0
 41
0
  0
VERTEX
  8
C00-00-00-BLACK
 10
212.372
 20
277.636
 30
0.0
 40
0
 41
0
  0
VERTEX
  8
C00-00-00-BLACK
 10
212.372
 20
277.465
 30
0.0
 40
0
 41
0
  0
VERTEX
  8
C00-00-00-BLACK
 10
212.51
 20
276.95
 30
0.0
 40
0
 41
0
  0
VERTEX
  8
C00-00-00-BLACK
 10
212.888
 20
276.389
 30
0.0
 40
0
 41
0
  0
VERTEX
  8
C00-00-00-BLACK
 10
213.449
 20
276.012
 30
0.0
 40
0
 41
0
  0
VERTEX
  8
C00-00-00-BLACK
 10
213.964
 20
275.872
 30
0.0
 40
0
 41
0
  0
VERTEX
  8
C00-00-00-BLACK
 10
214.136
 20
275.872
 30
0.0
 40
0
 41
0
  0
VERTEX
  8
C00-00-00-BLACK
 10
214.307
 20
275.872
 30
0.0
 40
0
 41
0
  0
VERTEX
  8
C00-00-00-BLACK
 10
214.822
 20
276.012
 30
0.0
 40
0
 41
0
  0
VERTEX
  8
C00-00-00-BLACK
 10
215.383
 20
276.389
 30
0.0
 40
0
 41
0
  0
VERTEX
  8
C00-00-00-BLACK
 10
215.761
 20
276.95
 30
0.0
 40
0
 41
0
  0
VERTEX
  8
C00-00-00-BLACK
 10
215.9
 20
277.465
 30
0.0
 40
0
 41
0
  0
VERTEX
  8
C00-00-00-BLACK
 10
215.9
 20
277.636
 30
0.0
 40
0
 41
0
  0
SEQEND
 8
0
  0
POLYLINE
  8
C00-00-00-BLACK
 66
     1
 10
0
 20
0
 30
0.0
 70
     1
 40
0
 41
0
  0
VERTEX
  8
C00-00-00-BLACK
 10
3.52778
 20
1.76389
 30
0.0
 40
0
 41
0
  0
VERTEX
  8
C00-00-00-BLACK
 10
3.52778
 20
1.93614
 30
0.0
 40
0
 41
0
  0
VERTEX
  8
C00-00-00-BLACK
 10
3.3886
 20
2.45153
 30
0.0
 40
0
 41
0
  0
VERTEX
  8
C00-00-00-BLACK
 10
3.01101
 20
3.01239
 30
0.0
 40
0
 41
0
  0
VERTEX
  8
C00-00-00-BLACK
 10
2.45015
 20
3.38998
 30
0.0
 40
0
 41
0
  0
VERTEX
  8
C00-00-00-BLACK
 10
1.93477
 20
3.52778
 30
0.0
 40
0
 41
0
  0
VERTEX
  8
C00-00-00-BLACK
 10
1.76389
 20
3.52778
 30
0.0
 40
0
 41
0
  0
VERTEX
  8
C00-00-00-BLACK
 10
1.59163
 20
3.52778
 30
0.0
 40
0
 41
0
  0
VERTEX
  8
C00-00-00-BLACK
 10
1.07625
 20
3.38998
 30
0.0
 40
0
 41
0
  0
VERTEX
  8
C00-00-00-BLACK
 10
0.515387
 20
3.01239
 30
0.0
 40
0
 41
0
  0
VERTEX
  8
C00-00-00-BLACK
 10
0.137804
 20
2.45153
 30
0.0
 40
0
 41
0
  0
VERTEX
  8
C00-00-00-BLACK
 10
0
 20
1.93614
 30
0.0
 40
0
 41
0
  0
VERTEX
  8
C00-00-00-BLACK
 10
0
 20
1.76389
 30
0.0
 40
0
 41
0
  0
VERTEX
  8
C00-00-00-BLACK
 10
0
 20
1.59301
 30
0.0
 40
0
 41
0
  0
VERTEX
  8
C00-00-00-BLACK
 10
0.137804
 20
1.07763
 30
0.0
 40
0
 41
0
  0
VERTEX
  8
C00-00-00-BLACK
 10
0.515387
 20
0.516763
 30
0.0
 40
0
 41
0
  0
VERTEX
  8
C00-00-00-BLACK
 10
1.07625
 20
0.139182
 30
0.0
 40
0
 41
0
  0
VERTEX
  8
C00-00-00-BLACK
 10
1.59163
 20
0
 30
0.0
 40
0
 41
0
  0
VERTEX
  8
C00-00-00-BLACK
 10
1.76389
 20
0
 30
0.0
 40
0
 41
0
  0
VERTEX
  8
C00-00-00-BLACK
 10
1.93477
 20
0
 30
0.0
 40
0
 41
0
  0
VERTEX
  8
C00-00-00-BLACK
 10
2.45015
 20
0.139182
 30
0.0
 40
0
 41
0
  0
VERTEX
  8
C00-00-00-BLACK
 10
3.01101
 20
0.516763
 30
0.0
 40
0
 41
0
  0
VERTEX
  8
C00-00-00-BLACK
 10
3.3886
 20
1.07763
 30
0.0
 40
0
 41
0
  0
VERTEX
  8
C00-00-00-BLACK
 10
3.52778
 20
1.59301
 30
0.0
 40
0
 41
0
  0
VERTEX
  8
C00-00-00-BLACK
 10
3.52778
 20
1.76389
 30
0.0
 40
0
 41
0
  0
SEQEND
 8
0
  0
POLYLINE
  8
C00-00-00-BLACK
 66
     1
 10
0
 20
0
 30
0.0
 70
     1
 40
0
 41
0
  0
VERTEX
  8
C00-00-00-BLACK
 10
215.9
 20
1.76389
 30
0.0
 40
0
 41
0
  0
VERTEX
  8
C00-00-00-BLACK
 10
215.9
 20
1.93614
 30
0.0
 40
0
 41
0
  0
VERTEX
  8
C00-00-00-BLACK
 10
215.761
 20
2.45153
 30
0.0
 40
0
 41
0
  0
VERTEX
  8
C00-00-00-BLACK
 10
215.383
 20
3.01239
 30
0.0
 40
0
 41
0
  0
VERTEX
  8
C00-00-00-BLACK
 10
214.822
 20
3.38998
 30
0.0
 40
0
 41
0
  0
VERTEX
  8
C00-00-00-BLACK
 10
214.307
 20
3.52778
 30
0.0
 40
0
 41
0
  0
VERTEX
  8
C00-00-00-BLACK
 10
214.136
 20
3.52778
 30
0.0
 40
0
 41
0
  0
VERTEX
  8
C00-00-00-BLACK
 10
213.964
 20
3.52778
 30
0.0
 40
0
 41
0
  0
VERTEX
  8
C00-00-00-BLACK
 10
213.449
 20
3.38998
 30
0.0
 40
0
 41
0
  0
VERTEX
  8
C00-00-00-BLACK
 10
212.888
 20
3.01239
 30
0.0
 40
0
 41
0
  0
VERTEX
  8
C00-00-00-BLACK
 10
212.51
 20
2.45153
 30
0.0
 40
0
 41
0
  0
VERTEX
  8
C00-00-00-BLACK
 10
212.372
 20
1.93614
 30
0.0
 40
0
 41
0
  0
VERTEX
  8
C00-00-00-BLACK
 10
212.372
 20
1.76389
 30
0.0
 40
0
 41
0
  0
VERTEX
  8
C00-00-00-BLACK
 10
212.372
 20
1.59301
 30
0.0
 40
0
 41
0
  0
VERTEX
  8
C00-00-00-BLACK
 10
212.51
 20
1.07763
 30
0.0
 40
0
 41
0
  0
VERTEX
  8
C00-00-00-BLACK
 10
212.888
 20
0.516763
 30
0.0
 40
0
 41
0
  0
VERTEX
  8
C00-00-00-BLACK
 10
213.449
 20
0.139182
 30
0.0
 40
0
 41
0
  0
VERTEX
  8
C00-00-00-BLACK
 10
213.964
 20
0
 30
0.0
 40
0
 41
0
  0
VERTEX
  8
C00-00-00-BLACK
 10
214.136
 20
0
 30
0.0
 40
0
 41
0
  0
VERTEX
  8
C00-00-00-BLACK
 10
214.307
 20
0
 30
0.0
 40
0
 41
0
  0
VERTEX
  8
C00-00-00-BLACK
 10
214.822
 20
0.139182
 30
0.0
 40
0
 41
0
  0
VERTEX
  8
C00-00-00-BLACK
 10
215.383
 20
0.516763
 30
0.0
 40
0
 41
0
  0
VERTEX
  8
C00-00-00-BLACK
 10
215.761
 20
1.07763
 30
0.0
 40
0
 41
0
  0
VERTEX
  8
C00-00-00-BLACK
 10
215.9
 20
1.59301
 30
0.0
 40
0
 41
0
  0
VERTEX
  8
C00-00-00-BLACK
 10
215.9
 20
1.76389
 30
0.0
 40
0
 41
0
  0
SEQEND
 8
0
  0
ENDSEC
  0
EOF
