  0
SECTION
  2
HEADER
  9
$ACADVER
  1
AC1009
  9
$FILLMODE
 70
 0
  9
$SPLFRAME
 70
 1
  9
$EXTMIN
 10
0
 20
0
 30
0.0
  9
$EXTMAX
 10
1058.33
 20
1058.33
 30
0.0
  0
ENDSEC
  0
SECTION
  2
TABLES
  0
TABLE
  2
LAYER
 70
5
  0
LAYER
  2
0
 70
     0
 62
     7
  6
CONTINUOUS
  0
LAYER
  2
C00-00-00-BLACK
 70
0
 62
7
  6
CONTINUOUS
  0
LAYER
  2
CFF-FF-FF-WHITE
 70
0
 62
7
  6
CONTINUOUS
  0
LAYER
  2
CCC-CC-CC
 70
0
 62
254
  6
CONTINUOUS
  0
ENDTAB
  0
ENDSEC
  0
SECTION
  2
ENTITIES
  0
POLYLINE
  8
CFF-FF-FF-WHITE
 66
     1
 10
0
 20
0
 30
0.0
 70
     1
 40
0
 41
0
  0
VERTEX
  8
CFF-FF-FF-WHITE
 10
3.43958
 20
293.599
 30
0.0
 40
0
 41
0
  0
VERTEX
  8
CFF-FF-FF-WHITE
 10
206.131
 20
293.599
 30
0.0
 40
0
 41
0
  0
VERTEX
  8
CFF-FF-FF-WHITE
 10
206.131
 20
3.69037
 30
0.0
 40
0
 41
0
  0
VERTEX
  8
CFF-FF-FF-WHITE
 10
3.43958
 20
3.69037
 30
0.0
 40
0
 41
0
  0
VERTEX
  8
CFF-FF-FF-WHITE
 10
3.43958
 20
293.599
 30
0.0
 40
0
 41
0
  0
SEQEND
 8
0
  0
POLYLINE
  8
CCC-CC-CC
 66
     1
 10
0
 20
0
 30
0.0
 70
     1
 40
0
 41
0
  0
VERTEX
  8
CCC-CC-CC
 10
36.9838
 20
293.599
 30
0.0
 40
0
 41
0
  0
VERTEX
  8
CCC-CC-CC
 10
53.2486
 20
293.599
 30
0.0
 40
0
 41
0
  0
VERTEX
  8
CCC-CC-CC
 10
53.2486
 20
293.395
 30
0.0
 40
0
 41
0
  0
VERTEX
  8
CCC-CC-CC
 10
36.9838
 20
293.395
 30
0.0
 40
0
 41
0
  0
VERTEX
  8
CCC-CC-CC
 10
36.9838
 20
293.599
 30
0.0
 40
0
 41
0
  0
SEQEND
 8
0
  0
POLYLINE
  8
CCC-CC-CC
 66
     1
 10
0
 20
0
 30
0.0
 70
     1
 40
0
 41
0
  0
VERTEX
  8
CCC-CC-CC
 10
36.9838
 20
263.307
 30
0.0
 40
0
 41
0
  0
VERTEX
  8
CCC-CC-CC
 10
53.2486
 20
263.307
 30
0.0
 40
0
 41
0
  0
VERTEX
  8
CCC-CC-CC
 10
53.2486
 20
263.105
 30
0.0
 40
0
 41
0
  0
VERTEX
  8
CCC-CC-CC
 10
36.9838
 20
263.105
 30
0.0
 40
0
 41
0
  0
VERTEX
  8
CCC-CC-CC
 10
36.9838
 20
263.307
 30
0.0
 40
0
 41
0
  0
SEQEND
 8
0
  0
POLYLINE
  8
CCC-CC-CC
 66
     1
 10
0
 20
0
 30
0.0
 70
     1
 40
0
 41
0
  0
VERTEX
  8
CCC-CC-CC
 10
36.9838
 20
293.599
 30
0.0
 40
0
 41
0
  0
VERTEX
  8
CCC-CC-CC
 10
37.1877
 20
293.599
 30
0.0
 40
0
 41
0
  0
VERTEX
  8
CCC-CC-CC
 10
37.1877
 20
263.105
 30
0.0
 40
0
 41
0
  0
VERTEX
  8
CCC-CC-CC
 10
36.9838
 20
263.105
 30
0.0
 40
0
 41
0
  0
VERTEX
  8
CCC-CC-CC
 10
36.9838
 20
293.599
 30
0.0
 40
0
 41
0
  0
SEQEND
 8
0
  0
POLYLINE
  8
CCC-CC-CC
 66
     1
 10
0
 20
0
 30
0.0
 70
     1
 40
0
 41
0
  0
VERTEX
  8
CCC-CC-CC
 10
53.0447
 20
293.599
 30
0.0
 40
0
 41
0
  0
VERTEX
  8
CCC-CC-CC
 10
53.2486
 20
293.599
 30
0.0
 40
0
 41
0
  0
VERTEX
  8
CCC-CC-CC
 10
53.2486
 20
263.105
 30
0.0
 40
0
 41
0
  0
VERTEX
  8
CCC-CC-CC
 10
53.0447
 20
263.105
 30
0.0
 40
0
 41
0
  0
VERTEX
  8
CCC-CC-CC
 10
53.0447
 20
293.599
 30
0.0
 40
0
 41
0
  0
SEQEND
 8
0
  0
POLYLINE
  8
CCC-CC-CC
 66
     1
 10
0
 20
0
 30
0.0
 70
     1
 40
0
 41
0
  0
VERTEX
  8
CCC-CC-CC
 10
53.2486
 20
293.599
 30
0.0
 40
0
 41
0
  0
VERTEX
  8
CCC-CC-CC
 10
69.5124
 20
293.599
 30
0.0
 40
0
 41
0
  0
VERTEX
  8
CCC-CC-CC
 10
69.5124
 20
293.395
 30
0.0
 40
0
 41
0
  0
VERTEX
  8
CCC-CC-CC
 10
53.2486
 20
293.395
 30
0.0
 40
0
 41
0
  0
VERTEX
  8
CCC-CC-CC
 10
53.2486
 20
293.599
 30
0.0
 40
0
 41
0
  0
SEQEND
 8
0
  0
POLYLINE
  8
CCC-CC-CC
 66
     1
 10
0
 20
0
 30
0.0
 70
     1
 40
0
 41
0
  0
VERTEX
  8
CCC-CC-CC
 10
53.2486
 20
263.307
 30
0.0
 40
0
 41
0
  0
VERTEX
  8
CCC-CC-CC
 10
69.5124
 20
263.307
 30
0.0
 40
0
 41
0
  0
VERTEX
  8
CCC-CC-CC
 10
69.5124
 20
263.105
 30
0.0
 40
0
 41
0
  0
VERTEX
  8
CCC-CC-CC
 10
53.2486
 20
263.105
 30
0.0
 40
0
 41
0
  0
VERTEX
  8
CCC-CC-CC
 10
53.2486
 20
263.307
 30
0.0
 40
0
 41
0
  0
SEQEND
 8
0
  0
POLYLINE
  8
CCC-CC-CC
 66
     1
 10
0
 20
0
 30
0.0
 70
     1
 40
0
 41
0
  0
VERTEX
  8
CCC-CC-CC
 10
53.2486
 20
293.599
 30
0.0
 40
0
 41
0
  0
VERTEX
  8
CCC-CC-CC
 10
53.4515
 20
293.599
 30
0.0
 40
0
 41
0
  0
VERTEX
  8
CCC-CC-CC
 10
53.4515
 20
263.105
 30
0.0
 40
0
 41
0
  0
VERTEX
  8
CCC-CC-CC
 10
53.2486
 20
263.105
 30
0.0
 40
0
 41
0
  0
VERTEX
  8
CCC-CC-CC
 10
53.2486
 20
293.599
 30
0.0
 40
0
 41
0
  0
SEQEND
 8
0
  0
POLYLINE
  8
CCC-CC-CC
 66
     1
 10
0
 20
0
 30
0.0
 70
     1
 40
0
 41
0
  0
VERTEX
  8
CCC-CC-CC
 10
69.3099
 20
293.599
 30
0.0
 40
0
 41
0
  0
VERTEX
  8
CCC-CC-CC
 10
69.5124
 20
293.599
 30
0.0
 40
0
 41
0
  0
VERTEX
  8
CCC-CC-CC
 10
69.5124
 20
263.105
 30
0.0
 40
0
 41
0
  0
VERTEX
  8
CCC-CC-CC
 10
69.3099
 20
263.105
 30
0.0
 40
0
 41
0
  0
VERTEX
  8
CCC-CC-CC
 10
69.3099
 20
293.599
 30
0.0
 40
0
 41
0
  0
SEQEND
 8
0
  0
POLYLINE
  8
CCC-CC-CC
 66
     1
 10
0
 20
0
 30
0.0
 70
     1
 40
0
 41
0
  0
VERTEX
  8
CCC-CC-CC
 10
69.5124
 20
293.599
 30
0.0
 40
0
 41
0
  0
VERTEX
  8
CCC-CC-CC
 10
85.7772
 20
293.599
 30
0.0
 40
0
 41
0
  0
VERTEX
  8
CCC-CC-CC
 10
85.7772
 20
293.395
 30
0.0
 40
0
 41
0
  0
VERTEX
  8
CCC-CC-CC
 10
69.5124
 20
293.395
 30
0.0
 40
0
 41
0
  0
VERTEX
  8
CCC-CC-CC
 10
69.5124
 20
293.599
 30
0.0
 40
0
 41
0
  0
SEQEND
 8
0
  0
POLYLINE
  8
CCC-CC-CC
 66
     1
 10
0
 20
0
 30
0.0
 70
     1
 40
0
 41
0
  0
VERTEX
  8
CCC-CC-CC
 10
69.5124
 20
263.307
 30
0.0
 40
0
 41
0
  0
VERTEX
  8
CCC-CC-CC
 10
85.7772
 20
263.307
 30
0.0
 40
0
 41
0
  0
VERTEX
  8
CCC-CC-CC
 10
85.7772
 20
263.105
 30
0.0
 40
0
 41
0
  0
VERTEX
  8
CCC-CC-CC
 10
69.5124
 20
263.105
 30
0.0
 40
0
 41
0
  0
VERTEX
  8
CCC-CC-CC
 10
69.5124
 20
263.307
 30
0.0
 40
0
 41
0
  0
SEQEND
 8
0
  0
POLYLINE
  8
CCC-CC-CC
 66
     1
 10
0
 20
0
 30
0.0
 70
     1
 40
0
 41
0
  0
VERTEX
  8
CCC-CC-CC
 10
69.5124
 20
293.599
 30
0.0
 40
0
 41
0
  0
VERTEX
  8
CCC-CC-CC
 10
69.7163
 20
293.599
 30
0.0
 40
0
 41
0
  0
VERTEX
  8
CCC-CC-CC
 10
69.7163
 20
263.105
 30
0.0
 40
0
 41
0
  0
VERTEX
  8
CCC-CC-CC
 10
69.5124
 20
263.105
 30
0.0
 40
0
 41
0
  0
VERTEX
  8
CCC-CC-CC
 10
69.5124
 20
293.599
 30
0.0
 40
0
 41
0
  0
SEQEND
 8
0
  0
POLYLINE
  8
CCC-CC-CC
 66
     1
 10
0
 20
0
 30
0.0
 70
     1
 40
0
 41
0
  0
VERTEX
  8
CCC-CC-CC
 10
85.5733
 20
293.599
 30
0.0
 40
0
 41
0
  0
VERTEX
  8
CCC-CC-CC
 10
85.7772
 20
293.599
 30
0.0
 40
0
 41
0
  0
VERTEX
  8
CCC-CC-CC
 10
85.7772
 20
263.105
 30
0.0
 40
0
 41
0
  0
VERTEX
  8
CCC-CC-CC
 10
85.5733
 20
263.105
 30
0.0
 40
0
 41
0
  0
VERTEX
  8
CCC-CC-CC
 10
85.5733
 20
293.599
 30
0.0
 40
0
 41
0
  0
SEQEND
 8
0
  0
POLYLINE
  8
CCC-CC-CC
 66
     1
 10
0
 20
0
 30
0.0
 70
     1
 40
0
 41
0
  0
VERTEX
  8
CCC-CC-CC
 10
85.7772
 20
293.599
 30
0.0
 40
0
 41
0
  0
VERTEX
  8
CCC-CC-CC
 10
102.041
 20
293.599
 30
0.0
 40
0
 41
0
  0
VERTEX
  8
CCC-CC-CC
 10
102.041
 20
293.395
 30
0.0
 40
0
 41
0
  0
VERTEX
  8
CCC-CC-CC
 10
85.7772
 20
293.395
 30
0.0
 40
0
 41
0
  0
VERTEX
  8
CCC-CC-CC
 10
85.7772
 20
293.599
 30
0.0
 40
0
 41
0
  0
SEQEND
 8
0
  0
POLYLINE
  8
CCC-CC-CC
 66
     1
 10
0
 20
0
 30
0.0
 70
     1
 40
0
 41
0
  0
VERTEX
  8
CCC-CC-CC
 10
85.7772
 20
263.307
 30
0.0
 40
0
 41
0
  0
VERTEX
  8
CCC-CC-CC
 10
102.041
 20
263.307
 30
0.0
 40
0
 41
0
  0
VERTEX
  8
CCC-CC-CC
 10
102.041
 20
263.105
 30
0.0
 40
0
 41
0
  0
VERTEX
  8
CCC-CC-CC
 10
85.7772
 20
263.105
 30
0.0
 40
0
 41
0
  0
VERTEX
  8
CCC-CC-CC
 10
85.7772
 20
263.307
 30
0.0
 40
0
 41
0
  0
SEQEND
 8
0
  0
POLYLINE
  8
CCC-CC-CC
 66
     1
 10
0
 20
0
 30
0.0
 70
     1
 40
0
 41
0
  0
VERTEX
  8
CCC-CC-CC
 10
85.7772
 20
293.599
 30
0.0
 40
0
 41
0
  0
VERTEX
  8
CCC-CC-CC
 10
85.9801
 20
293.599
 30
0.0
 40
0
 41
0
  0
VERTEX
  8
CCC-CC-CC
 10
85.9801
 20
263.105
 30
0.0
 40
0
 41
0
  0
VERTEX
  8
CCC-CC-CC
 10
85.7772
 20
263.105
 30
0.0
 40
0
 41
0
  0
VERTEX
  8
CCC-CC-CC
 10
85.7772
 20
293.599
 30
0.0
 40
0
 41
0
  0
SEQEND
 8
0
  0
POLYLINE
  8
CCC-CC-CC
 66
     1
 10
0
 20
0
 30
0.0
 70
     1
 40
0
 41
0
  0
VERTEX
  8
CCC-CC-CC
 10
101.838
 20
293.599
 30
0.0
 40
0
 41
0
  0
VERTEX
  8
CCC-CC-CC
 10
102.041
 20
293.599
 30
0.0
 40
0
 41
0
  0
VERTEX
  8
CCC-CC-CC
 10
102.041
 20
263.105
 30
0.0
 40
0
 41
0
  0
VERTEX
  8
CCC-CC-CC
 10
101.838
 20
263.105
 30
0.0
 40
0
 41
0
  0
VERTEX
  8
CCC-CC-CC
 10
101.838
 20
293.599
 30
0.0
 40
0
 41
0
  0
SEQEND
 8
0
  0
POLYLINE
  8
CCC-CC-CC
 66
     1
 10
0
 20
0
 30
0.0
 70
     1
 40
0
 41
0
  0
VERTEX
  8
CCC-CC-CC
 10
102.041
 20
293.599
 30
0.0
 40
0
 41
0
  0
VERTEX
  8
CCC-CC-CC
 10
118.305
 20
293.599
 30
0.0
 40
0
 41
0
  0
VERTEX
  8
CCC-CC-CC
 10
118.305
 20
293.395
 30
0.0
 40
0
 41
0
  0
VERTEX
  8
CCC-CC-CC
 10
102.041
 20
293.395
 30
0.0
 40
0
 41
0
  0
VERTEX
  8
CCC-CC-CC
 10
102.041
 20
293.599
 30
0.0
 40
0
 41
0
  0
SEQEND
 8
0
  0
POLYLINE
  8
CCC-CC-CC
 66
     1
 10
0
 20
0
 30
0.0
 70
     1
 40
0
 41
0
  0
VERTEX
  8
CCC-CC-CC
 10
102.041
 20
263.307
 30
0.0
 40
0
 41
0
  0
VERTEX
  8
CCC-CC-CC
 10
118.305
 20
263.307
 30
0.0
 40
0
 41
0
  0
VERTEX
  8
CCC-CC-CC
 10
118.305
 20
263.105
 30
0.0
 40
0
 41
0
  0
VERTEX
  8
CCC-CC-CC
 10
102.041
 20
263.105
 30
0.0
 40
0
 41
0
  0
VERTEX
  8
CCC-CC-CC
 10
102.041
 20
263.307
 30
0.0
 40
0
 41
0
  0
SEQEND
 8
0
  0
POLYLINE
  8
CCC-CC-CC
 66
     1
 10
0
 20
0
 30
0.0
 70
     1
 40
0
 41
0
  0
VERTEX
  8
CCC-CC-CC
 10
102.041
 20
293.599
 30
0.0
 40
0
 41
0
  0
VERTEX
  8
CCC-CC-CC
 10
102.245
 20
293.599
 30
0.0
 40
0
 41
0
  0
VERTEX
  8
CCC-CC-CC
 10
102.245
 20
263.105
 30
0.0
 40
0
 41
0
  0
VERTEX
  8
CCC-CC-CC
 10
102.041
 20
263.105
 30
0.0
 40
0
 41
0
  0
VERTEX
  8
CCC-CC-CC
 10
102.041
 20
293.599
 30
0.0
 40
0
 41
0
  0
SEQEND
 8
0
  0
POLYLINE
  8
CCC-CC-CC
 66
     1
 10
0
 20
0
 30
0.0
 70
     1
 40
0
 41
0
  0
VERTEX
  8
CCC-CC-CC
 10
118.102
 20
293.599
 30
0.0
 40
0
 41
0
  0
VERTEX
  8
CCC-CC-CC
 10
118.305
 20
293.599
 30
0.0
 40
0
 41
0
  0
VERTEX
  8
CCC-CC-CC
 10
118.305
 20
263.105
 30
0.0
 40
0
 41
0
  0
VERTEX
  8
CCC-CC-CC
 10
118.102
 20
263.105
 30
0.0
 40
0
 41
0
  0
VERTEX
  8
CCC-CC-CC
 10
118.102
 20
293.599
 30
0.0
 40
0
 41
0
  0
SEQEND
 8
0
  0
POLYLINE
  8
CCC-CC-CC
 66
     1
 10
0
 20
0
 30
0.0
 70
     1
 40
0
 41
0
  0
VERTEX
  8
CCC-CC-CC
 10
118.305
 20
293.599
 30
0.0
 40
0
 41
0
  0
VERTEX
  8
CCC-CC-CC
 10
134.57
 20
293.599
 30
0.0
 40
0
 41
0
  0
VERTEX
  8
CCC-CC-CC
 10
134.57
 20
293.395
 30
0.0
 40
0
 41
0
  0
VERTEX
  8
CCC-CC-CC
 10
118.305
 20
293.395
 30
0.0
 40
0
 41
0
  0
VERTEX
  8
CCC-CC-CC
 10
118.305
 20
293.599
 30
0.0
 40
0
 41
0
  0
SEQEND
 8
0
  0
POLYLINE
  8
CCC-CC-CC
 66
     1
 10
0
 20
0
 30
0.0
 70
     1
 40
0
 41
0
  0
VERTEX
  8
CCC-CC-CC
 10
118.305
 20
263.307
 30
0.0
 40
0
 41
0
  0
VERTEX
  8
CCC-CC-CC
 10
134.57
 20
263.307
 30
0.0
 40
0
 41
0
  0
VERTEX
  8
CCC-CC-CC
 10
134.57
 20
263.105
 30
0.0
 40
0
 41
0
  0
VERTEX
  8
CCC-CC-CC
 10
118.305
 20
263.105
 30
0.0
 40
0
 41
0
  0
VERTEX
  8
CCC-CC-CC
 10
118.305
 20
263.307
 30
0.0
 40
0
 41
0
  0
SEQEND
 8
0
  0
POLYLINE
  8
CCC-CC-CC
 66
     1
 10
0
 20
0
 30
0.0
 70
     1
 40
0
 41
0
  0
VERTEX
  8
CCC-CC-CC
 10
118.305
 20
293.599
 30
0.0
 40
0
 41
0
  0
VERTEX
  8
CCC-CC-CC
 10
118.509
 20
293.599
 30
0.0
 40
0
 41
0
  0
VERTEX
  8
CCC-CC-CC
 10
118.509
 20
263.105
 30
0.0
 40
0
 41
0
  0
VERTEX
  8
CCC-CC-CC
 10
118.305
 20
263.105
 30
0.0
 40
0
 41
0
  0
VERTEX
  8
CCC-CC-CC
 10
118.305
 20
293.599
 30
0.0
 40
0
 41
0
  0
SEQEND
 8
0
  0
POLYLINE
  8
CCC-CC-CC
 66
     1
 10
0
 20
0
 30
0.0
 70
     1
 40
0
 41
0
  0
VERTEX
  8
CCC-CC-CC
 10
134.366
 20
293.599
 30
0.0
 40
0
 41
0
  0
VERTEX
  8
CCC-CC-CC
 10
134.57
 20
293.599
 30
0.0
 40
0
 41
0
  0
VERTEX
  8
CCC-CC-CC
 10
134.57
 20
263.105
 30
0.0
 40
0
 41
0
  0
VERTEX
  8
CCC-CC-CC
 10
134.366
 20
263.105
 30
0.0
 40
0
 41
0
  0
VERTEX
  8
CCC-CC-CC
 10
134.366
 20
293.599
 30
0.0
 40
0
 41
0
  0
SEQEND
 8
0
  0
POLYLINE
  8
CCC-CC-CC
 66
     1
 10
0
 20
0
 30
0.0
 70
     1
 40
0
 41
0
  0
VERTEX
  8
CCC-CC-CC
 10
134.57
 20
293.599
 30
0.0
 40
0
 41
0
  0
VERTEX
  8
CCC-CC-CC
 10
150.833
 20
293.599
 30
0.0
 40
0
 41
0
  0
VERTEX
  8
CCC-CC-CC
 10
150.833
 20
293.395
 30
0.0
 40
0
 41
0
  0
VERTEX
  8
CCC-CC-CC
 10
134.57
 20
293.395
 30
0.0
 40
0
 41
0
  0
VERTEX
  8
CCC-CC-CC
 10
134.57
 20
293.599
 30
0.0
 40
0
 41
0
  0
SEQEND
 8
0
  0
POLYLINE
  8
CCC-CC-CC
 66
     1
 10
0
 20
0
 30
0.0
 70
     1
 40
0
 41
0
  0
VERTEX
  8
CCC-CC-CC
 10
134.57
 20
263.307
 30
0.0
 40
0
 41
0
  0
VERTEX
  8
CCC-CC-CC
 10
150.833
 20
263.307
 30
0.0
 40
0
 41
0
  0
VERTEX
  8
CCC-CC-CC
 10
150.833
 20
263.105
 30
0.0
 40
0
 41
0
  0
VERTEX
  8
CCC-CC-CC
 10
134.57
 20
263.105
 30
0.0
 40
0
 41
0
  0
VERTEX
  8
CCC-CC-CC
 10
134.57
 20
263.307
 30
0.0
 40
0
 41
0
  0
SEQEND
 8
0
  0
POLYLINE
  8
CCC-CC-CC
 66
     1
 10
0
 20
0
 30
0.0
 70
     1
 40
0
 41
0
  0
VERTEX
  8
CCC-CC-CC
 10
134.57
 20
293.599
 30
0.0
 40
0
 41
0
  0
VERTEX
  8
CCC-CC-CC
 10
134.772
 20
293.599
 30
0.0
 40
0
 41
0
  0
VERTEX
  8
CCC-CC-CC
 10
134.772
 20
263.105
 30
0.0
 40
0
 41
0
  0
VERTEX
  8
CCC-CC-CC
 10
134.57
 20
263.105
 30
0.0
 40
0
 41
0
  0
VERTEX
  8
CCC-CC-CC
 10
134.57
 20
293.599
 30
0.0
 40
0
 41
0
  0
SEQEND
 8
0
  0
POLYLINE
  8
CCC-CC-CC
 66
     1
 10
0
 20
0
 30
0.0
 70
     1
 40
0
 41
0
  0
VERTEX
  8
CCC-CC-CC
 10
150.63
 20
293.599
 30
0.0
 40
0
 41
0
  0
VERTEX
  8
CCC-CC-CC
 10
150.833
 20
293.599
 30
0.0
 40
0
 41
0
  0
VERTEX
  8
CCC-CC-CC
 10
150.833
 20
263.105
 30
0.0
 40
0
 41
0
  0
VERTEX
  8
CCC-CC-CC
 10
150.63
 20
263.105
 30
0.0
 40
0
 41
0
  0
VERTEX
  8
CCC-CC-CC
 10
150.63
 20
293.599
 30
0.0
 40
0
 41
0
  0
SEQEND
 8
0
  0
POLYLINE
  8
CCC-CC-CC
 66
     1
 10
0
 20
0
 30
0.0
 70
     1
 40
0
 41
0
  0
VERTEX
  8
CCC-CC-CC
 10
150.833
 20
293.599
 30
0.0
 40
0
 41
0
  0
VERTEX
  8
CCC-CC-CC
 10
167.098
 20
293.599
 30
0.0
 40
0
 41
0
  0
VERTEX
  8
CCC-CC-CC
 10
167.098
 20
293.395
 30
0.0
 40
0
 41
0
  0
VERTEX
  8
CCC-CC-CC
 10
150.833
 20
293.395
 30
0.0
 40
0
 41
0
  0
VERTEX
  8
CCC-CC-CC
 10
150.833
 20
293.599
 30
0.0
 40
0
 41
0
  0
SEQEND
 8
0
  0
POLYLINE
  8
CCC-CC-CC
 66
     1
 10
0
 20
0
 30
0.0
 70
     1
 40
0
 41
0
  0
VERTEX
  8
CCC-CC-CC
 10
150.833
 20
263.307
 30
0.0
 40
0
 41
0
  0
VERTEX
  8
CCC-CC-CC
 10
167.098
 20
263.307
 30
0.0
 40
0
 41
0
  0
VERTEX
  8
CCC-CC-CC
 10
167.098
 20
263.105
 30
0.0
 40
0
 41
0
  0
VERTEX
  8
CCC-CC-CC
 10
150.833
 20
263.105
 30
0.0
 40
0
 41
0
  0
VERTEX
  8
CCC-CC-CC
 10
150.833
 20
263.307
 30
0.0
 40
0
 41
0
  0
SEQEND
 8
0
  0
POLYLINE
  8
CCC-CC-CC
 66
     1
 10
0
 20
0
 30
0.0
 70
     1
 40
0
 41
0
  0
VERTEX
  8
CCC-CC-CC
 10
150.833
 20
293.599
 30
0.0
 40
0
 41
0
  0
VERTEX
  8
CCC-CC-CC
 10
151.037
 20
293.599
 30
0.0
 40
0
 41
0
  0
VERTEX
  8
CCC-CC-CC
 10
151.037
 20
263.105
 30
0.0
 40
0
 41
0
  0
VERTEX
  8
CCC-CC-CC
 10
150.833
 20
263.105
 30
0.0
 40
0
 41
0
  0
VERTEX
  8
CCC-CC-CC
 10
150.833
 20
293.599
 30
0.0
 40
0
 41
0
  0
SEQEND
 8
0
  0
POLYLINE
  8
CCC-CC-CC
 66
     1
 10
0
 20
0
 30
0.0
 70
     1
 40
0
 41
0
  0
VERTEX
  8
CCC-CC-CC
 10
166.894
 20
293.599
 30
0.0
 40
0
 41
0
  0
VERTEX
  8
CCC-CC-CC
 10
167.098
 20
293.599
 30
0.0
 40
0
 41
0
  0
VERTEX
  8
CCC-CC-CC
 10
167.098
 20
263.105
 30
0.0
 40
0
 41
0
  0
VERTEX
  8
CCC-CC-CC
 10
166.894
 20
263.105
 30
0.0
 40
0
 41
0
  0
VERTEX
  8
CCC-CC-CC
 10
166.894
 20
293.599
 30
0.0
 40
0
 41
0
  0
SEQEND
 8
0
  0
POLYLINE
  8
CCC-CC-CC
 66
     1
 10
0
 20
0
 30
0.0
 70
     1
 40
0
 41
0
  0
VERTEX
  8
CCC-CC-CC
 10
36.9838
 20
263.105
 30
0.0
 40
0
 41
0
  0
VERTEX
  8
CCC-CC-CC
 10
53.2486
 20
263.105
 30
0.0
 40
0
 41
0
  0
VERTEX
  8
CCC-CC-CC
 10
53.2486
 20
262.901
 30
0.0
 40
0
 41
0
  0
VERTEX
  8
CCC-CC-CC
 10
36.9838
 20
262.901
 30
0.0
 40
0
 41
0
  0
VERTEX
  8
CCC-CC-CC
 10
36.9838
 20
263.105
 30
0.0
 40
0
 41
0
  0
SEQEND
 8
0
  0
POLYLINE
  8
CCC-CC-CC
 66
     1
 10
0
 20
0
 30
0.0
 70
     1
 40
0
 41
0
  0
VERTEX
  8
CCC-CC-CC
 10
36.9838
 20
232.813
 30
0.0
 40
0
 41
0
  0
VERTEX
  8
CCC-CC-CC
 10
53.2486
 20
232.813
 30
0.0
 40
0
 41
0
  0
VERTEX
  8
CCC-CC-CC
 10
53.2486
 20
232.609
 30
0.0
 40
0
 41
0
  0
VERTEX
  8
CCC-CC-CC
 10
36.9838
 20
232.609
 30
0.0
 40
0
 41
0
  0
VERTEX
  8
CCC-CC-CC
 10
36.9838
 20
232.813
 30
0.0
 40
0
 41
0
  0
SEQEND
 8
0
  0
POLYLINE
  8
CCC-CC-CC
 66
     1
 10
0
 20
0
 30
0.0
 70
     1
 40
0
 41
0
  0
VERTEX
  8
CCC-CC-CC
 10
36.9838
 20
263.105
 30
0.0
 40
0
 41
0
  0
VERTEX
  8
CCC-CC-CC
 10
37.1877
 20
263.105
 30
0.0
 40
0
 41
0
  0
VERTEX
  8
CCC-CC-CC
 10
37.1877
 20
232.609
 30
0.0
 40
0
 41
0
  0
VERTEX
  8
CCC-CC-CC
 10
36.9838
 20
232.609
 30
0.0
 40
0
 41
0
  0
VERTEX
  8
CCC-CC-CC
 10
36.9838
 20
263.105
 30
0.0
 40
0
 41
0
  0
SEQEND
 8
0
  0
POLYLINE
  8
CCC-CC-CC
 66
     1
 10
0
 20
0
 30
0.0
 70
     1
 40
0
 41
0
  0
VERTEX
  8
CCC-CC-CC
 10
53.0447
 20
263.105
 30
0.0
 40
0
 41
0
  0
VERTEX
  8
CCC-CC-CC
 10
53.2486
 20
263.105
 30
0.0
 40
0
 41
0
  0
VERTEX
  8
CCC-CC-CC
 10
53.2486
 20
232.609
 30
0.0
 40
0
 41
0
  0
VERTEX
  8
CCC-CC-CC
 10
53.0447
 20
232.609
 30
0.0
 40
0
 41
0
  0
VERTEX
  8
CCC-CC-CC
 10
53.0447
 20
263.105
 30
0.0
 40
0
 41
0
  0
SEQEND
 8
0
  0
POLYLINE
  8
CCC-CC-CC
 66
     1
 10
0
 20
0
 30
0.0
 70
     1
 40
0
 41
0
  0
VERTEX
  8
CCC-CC-CC
 10
53.2486
 20
263.105
 30
0.0
 40
0
 41
0
  0
VERTEX
  8
CCC-CC-CC
 10
69.5124
 20
263.105
 30
0.0
 40
0
 41
0
  0
VERTEX
  8
CCC-CC-CC
 10
69.5124
 20
262.901
 30
0.0
 40
0
 41
0
  0
VERTEX
  8
CCC-CC-CC
 10
53.2486
 20
262.901
 30
0.0
 40
0
 41
0
  0
VERTEX
  8
CCC-CC-CC
 10
53.2486
 20
263.105
 30
0.0
 40
0
 41
0
  0
SEQEND
 8
0
  0
POLYLINE
  8
CCC-CC-CC
 66
     1
 10
0
 20
0
 30
0.0
 70
     1
 40
0
 41
0
  0
VERTEX
  8
CCC-CC-CC
 10
53.2486
 20
232.813
 30
0.0
 40
0
 41
0
  0
VERTEX
  8
CCC-CC-CC
 10
69.5124
 20
232.813
 30
0.0
 40
0
 41
0
  0
VERTEX
  8
CCC-CC-CC
 10
69.5124
 20
232.609
 30
0.0
 40
0
 41
0
  0
VERTEX
  8
CCC-CC-CC
 10
53.2486
 20
232.609
 30
0.0
 40
0
 41
0
  0
VERTEX
  8
CCC-CC-CC
 10
53.2486
 20
232.813
 30
0.0
 40
0
 41
0
  0
SEQEND
 8
0
  0
POLYLINE
  8
CCC-CC-CC
 66
     1
 10
0
 20
0
 30
0.0
 70
     1
 40
0
 41
0
  0
VERTEX
  8
CCC-CC-CC
 10
53.2486
 20
263.105
 30
0.0
 40
0
 41
0
  0
VERTEX
  8
CCC-CC-CC
 10
53.4515
 20
263.105
 30
0.0
 40
0
 41
0
  0
VERTEX
  8
CCC-CC-CC
 10
53.4515
 20
232.609
 30
0.0
 40
0
 41
0
  0
VERTEX
  8
CCC-CC-CC
 10
53.2486
 20
232.609
 30
0.0
 40
0
 41
0
  0
VERTEX
  8
CCC-CC-CC
 10
53.2486
 20
263.105
 30
0.0
 40
0
 41
0
  0
SEQEND
 8
0
  0
POLYLINE
  8
CCC-CC-CC
 66
     1
 10
0
 20
0
 30
0.0
 70
     1
 40
0
 41
0
  0
VERTEX
  8
CCC-CC-CC
 10
69.3099
 20
263.105
 30
0.0
 40
0
 41
0
  0
VERTEX
  8
CCC-CC-CC
 10
69.5124
 20
263.105
 30
0.0
 40
0
 41
0
  0
VERTEX
  8
CCC-CC-CC
 10
69.5124
 20
232.609
 30
0.0
 40
0
 41
0
  0
VERTEX
  8
CCC-CC-CC
 10
69.3099
 20
232.609
 30
0.0
 40
0
 41
0
  0
VERTEX
  8
CCC-CC-CC
 10
69.3099
 20
263.105
 30
0.0
 40
0
 41
0
  0
SEQEND
 8
0
  0
POLYLINE
  8
CCC-CC-CC
 66
     1
 10
0
 20
0
 30
0.0
 70
     1
 40
0
 41
0
  0
VERTEX
  8
CCC-CC-CC
 10
69.5124
 20
263.105
 30
0.0
 40
0
 41
0
  0
VERTEX
  8
CCC-CC-CC
 10
85.7772
 20
263.105
 30
0.0
 40
0
 41
0
  0
VERTEX
  8
CCC-CC-CC
 10
85.7772
 20
262.901
 30
0.0
 40
0
 41
0
  0
VERTEX
  8
CCC-CC-CC
 10
69.5124
 20
262.901
 30
0.0
 40
0
 41
0
  0
VERTEX
  8
CCC-CC-CC
 10
69.5124
 20
263.105
 30
0.0
 40
0
 41
0
  0
SEQEND
 8
0
  0
POLYLINE
  8
CCC-CC-CC
 66
     1
 10
0
 20
0
 30
0.0
 70
     1
 40
0
 41
0
  0
VERTEX
  8
CCC-CC-CC
 10
69.5124
 20
232.813
 30
0.0
 40
0
 41
0
  0
VERTEX
  8
CCC-CC-CC
 10
85.7772
 20
232.813
 30
0.0
 40
0
 41
0
  0
VERTEX
  8
CCC-CC-CC
 10
85.7772
 20
232.609
 30
0.0
 40
0
 41
0
  0
VERTEX
  8
CCC-CC-CC
 10
69.5124
 20
232.609
 30
0.0
 40
0
 41
0
  0
VERTEX
  8
CCC-CC-CC
 10
69.5124
 20
232.813
 30
0.0
 40
0
 41
0
  0
SEQEND
 8
0
  0
POLYLINE
  8
CCC-CC-CC
 66
     1
 10
0
 20
0
 30
0.0
 70
     1
 40
0
 41
0
  0
VERTEX
  8
CCC-CC-CC
 10
69.5124
 20
263.105
 30
0.0
 40
0
 41
0
  0
VERTEX
  8
CCC-CC-CC
 10
69.7163
 20
263.105
 30
0.0
 40
0
 41
0
  0
VERTEX
  8
CCC-CC-CC
 10
69.7163
 20
232.609
 30
0.0
 40
0
 41
0
  0
VERTEX
  8
CCC-CC-CC
 10
69.5124
 20
232.609
 30
0.0
 40
0
 41
0
  0
VERTEX
  8
CCC-CC-CC
 10
69.5124
 20
263.105
 30
0.0
 40
0
 41
0
  0
SEQEND
 8
0
  0
POLYLINE
  8
CCC-CC-CC
 66
     1
 10
0
 20
0
 30
0.0
 70
     1
 40
0
 41
0
  0
VERTEX
  8
CCC-CC-CC
 10
85.5733
 20
263.105
 30
0.0
 40
0
 41
0
  0
VERTEX
  8
CCC-CC-CC
 10
85.7772
 20
263.105
 30
0.0
 40
0
 41
0
  0
VERTEX
  8
CCC-CC-CC
 10
85.7772
 20
232.609
 30
0.0
 40
0
 41
0
  0
VERTEX
  8
CCC-CC-CC
 10
85.5733
 20
232.609
 30
0.0
 40
0
 41
0
  0
VERTEX
  8
CCC-CC-CC
 10
85.5733
 20
263.105
 30
0.0
 40
0
 41
0
  0
SEQEND
 8
0
  0
POLYLINE
  8
CCC-CC-CC
 66
     1
 10
0
 20
0
 30
0.0
 70
     1
 40
0
 41
0
  0
VERTEX
  8
CCC-CC-CC
 10
85.7772
 20
263.105
 30
0.0
 40
0
 41
0
  0
VERTEX
  8
CCC-CC-CC
 10
102.041
 20
263.105
 30
0.0
 40
0
 41
0
  0
VERTEX
  8
CCC-CC-CC
 10
102.041
 20
262.901
 30
0.0
 40
0
 41
0
  0
VERTEX
  8
CCC-CC-CC
 10
85.7772
 20
262.901
 30
0.0
 40
0
 41
0
  0
VERTEX
  8
CCC-CC-CC
 10
85.7772
 20
263.105
 30
0.0
 40
0
 41
0
  0
SEQEND
 8
0
  0
POLYLINE
  8
CCC-CC-CC
 66
     1
 10
0
 20
0
 30
0.0
 70
     1
 40
0
 41
0
  0
VERTEX
  8
CCC-CC-CC
 10
85.7772
 20
232.813
 30
0.0
 40
0
 41
0
  0
VERTEX
  8
CCC-CC-CC
 10
102.041
 20
232.813
 30
0.0
 40
0
 41
0
  0
VERTEX
  8
CCC-CC-CC
 10
102.041
 20
232.609
 30
0.0
 40
0
 41
0
  0
VERTEX
  8
CCC-CC-CC
 10
85.7772
 20
232.609
 30
0.0
 40
0
 41
0
  0
VERTEX
  8
CCC-CC-CC
 10
85.7772
 20
232.813
 30
0.0
 40
0
 41
0
  0
SEQEND
 8
0
  0
POLYLINE
  8
CCC-CC-CC
 66
     1
 10
0
 20
0
 30
0.0
 70
     1
 40
0
 41
0
  0
VERTEX
  8
CCC-CC-CC
 10
85.7772
 20
263.105
 30
0.0
 40
0
 41
0
  0
VERTEX
  8
CCC-CC-CC
 10
85.9801
 20
263.105
 30
0.0
 40
0
 41
0
  0
VERTEX
  8
CCC-CC-CC
 10
85.9801
 20
232.609
 30
0.0
 40
0
 41
0
  0
VERTEX
  8
CCC-CC-CC
 10
85.7772
 20
232.609
 30
0.0
 40
0
 41
0
  0
VERTEX
  8
CCC-CC-CC
 10
85.7772
 20
263.105
 30
0.0
 40
0
 41
0
  0
SEQEND
 8
0
  0
POLYLINE
  8
CCC-CC-CC
 66
     1
 10
0
 20
0
 30
0.0
 70
     1
 40
0
 41
0
  0
VERTEX
  8
CCC-CC-CC
 10
101.838
 20
263.105
 30
0.0
 40
0
 41
0
  0
VERTEX
  8
CCC-CC-CC
 10
102.041
 20
263.105
 30
0.0
 40
0
 41
0
  0
VERTEX
  8
CCC-CC-CC
 10
102.041
 20
232.609
 30
0.0
 40
0
 41
0
  0
VERTEX
  8
CCC-CC-CC
 10
101.838
 20
232.609
 30
0.0
 40
0
 41
0
  0
VERTEX
  8
CCC-CC-CC
 10
101.838
 20
263.105
 30
0.0
 40
0
 41
0
  0
SEQEND
 8
0
  0
POLYLINE
  8
CCC-CC-CC
 66
     1
 10
0
 20
0
 30
0.0
 70
     1
 40
0
 41
0
  0
VERTEX
  8
CCC-CC-CC
 10
102.041
 20
263.105
 30
0.0
 40
0
 41
0
  0
VERTEX
  8
CCC-CC-CC
 10
118.305
 20
263.105
 30
0.0
 40
0
 41
0
  0
VERTEX
  8
CCC-CC-CC
 10
118.305
 20
262.901
 30
0.0
 40
0
 41
0
  0
VERTEX
  8
CCC-CC-CC
 10
102.041
 20
262.901
 30
0.0
 40
0
 41
0
  0
VERTEX
  8
CCC-CC-CC
 10
102.041
 20
263.105
 30
0.0
 40
0
 41
0
  0
SEQEND
 8
0
  0
POLYLINE
  8
CCC-CC-CC
 66
     1
 10
0
 20
0
 30
0.0
 70
     1
 40
0
 41
0
  0
VERTEX
  8
CCC-CC-CC
 10
102.041
 20
232.813
 30
0.0
 40
0
 41
0
  0
VERTEX
  8
CCC-CC-CC
 10
118.305
 20
232.813
 30
0.0
 40
0
 41
0
  0
VERTEX
  8
CCC-CC-CC
 10
118.305
 20
232.609
 30
0.0
 40
0
 41
0
  0
VERTEX
  8
CCC-CC-CC
 10
102.041
 20
232.609
 30
0.0
 40
0
 41
0
  0
VERTEX
  8
CCC-CC-CC
 10
102.041
 20
232.813
 30
0.0
 40
0
 41
0
  0
SEQEND
 8
0
  0
POLYLINE
  8
CCC-CC-CC
 66
     1
 10
0
 20
0
 30
0.0
 70
     1
 40
0
 41
0
  0
VERTEX
  8
CCC-CC-CC
 10
102.041
 20
263.105
 30
0.0
 40
0
 41
0
  0
VERTEX
  8
CCC-CC-CC
 10
102.245
 20
263.105
 30
0.0
 40
0
 41
0
  0
VERTEX
  8
CCC-CC-CC
 10
102.245
 20
232.609
 30
0.0
 40
0
 41
0
  0
VERTEX
  8
CCC-CC-CC
 10
102.041
 20
232.609
 30
0.0
 40
0
 41
0
  0
VERTEX
  8
CCC-CC-CC
 10
102.041
 20
263.105
 30
0.0
 40
0
 41
0
  0
SEQEND
 8
0
  0
POLYLINE
  8
CCC-CC-CC
 66
     1
 10
0
 20
0
 30
0.0
 70
     1
 40
0
 41
0
  0
VERTEX
  8
CCC-CC-CC
 10
118.102
 20
263.105
 30
0.0
 40
0
 41
0
  0
VERTEX
  8
CCC-CC-CC
 10
118.305
 20
263.105
 30
0.0
 40
0
 41
0
  0
VERTEX
  8
CCC-CC-CC
 10
118.305
 20
232.609
 30
0.0
 40
0
 41
0
  0
VERTEX
  8
CCC-CC-CC
 10
118.102
 20
232.609
 30
0.0
 40
0
 41
0
  0
VERTEX
  8
CCC-CC-CC
 10
118.102
 20
263.105
 30
0.0
 40
0
 41
0
  0
SEQEND
 8
0
  0
POLYLINE
  8
CCC-CC-CC
 66
     1
 10
0
 20
0
 30
0.0
 70
     1
 40
0
 41
0
  0
VERTEX
  8
CCC-CC-CC
 10
118.305
 20
263.105
 30
0.0
 40
0
 41
0
  0
VERTEX
  8
CCC-CC-CC
 10
134.57
 20
263.105
 30
0.0
 40
0
 41
0
  0
VERTEX
  8
CCC-CC-CC
 10
134.57
 20
262.901
 30
0.0
 40
0
 41
0
  0
VERTEX
  8
CCC-CC-CC
 10
118.305
 20
262.901
 30
0.0
 40
0
 41
0
  0
VERTEX
  8
CCC-CC-CC
 10
118.305
 20
263.105
 30
0.0
 40
0
 41
0
  0
SEQEND
 8
0
  0
POLYLINE
  8
CCC-CC-CC
 66
     1
 10
0
 20
0
 30
0.0
 70
     1
 40
0
 41
0
  0
VERTEX
  8
CCC-CC-CC
 10
118.305
 20
232.813
 30
0.0
 40
0
 41
0
  0
VERTEX
  8
CCC-CC-CC
 10
134.57
 20
232.813
 30
0.0
 40
0
 41
0
  0
VERTEX
  8
CCC-CC-CC
 10
134.57
 20
232.609
 30
0.0
 40
0
 41
0
  0
VERTEX
  8
CCC-CC-CC
 10
118.305
 20
232.609
 30
0.0
 40
0
 41
0
  0
VERTEX
  8
CCC-CC-CC
 10
118.305
 20
232.813
 30
0.0
 40
0
 41
0
  0
SEQEND
 8
0
  0
POLYLINE
  8
CCC-CC-CC
 66
     1
 10
0
 20
0
 30
0.0
 70
     1
 40
0
 41
0
  0
VERTEX
  8
CCC-CC-CC
 10
118.305
 20
263.105
 30
0.0
 40
0
 41
0
  0
VERTEX
  8
CCC-CC-CC
 10
118.509
 20
263.105
 30
0.0
 40
0
 41
0
  0
VERTEX
  8
CCC-CC-CC
 10
118.509
 20
232.609
 30
0.0
 40
0
 41
0
  0
VERTEX
  8
CCC-CC-CC
 10
118.305
 20
232.609
 30
0.0
 40
0
 41
0
  0
VERTEX
  8
CCC-CC-CC
 10
118.305
 20
263.105
 30
0.0
 40
0
 41
0
  0
SEQEND
 8
0
  0
POLYLINE
  8
CCC-CC-CC
 66
     1
 10
0
 20
0
 30
0.0
 70
     1
 40
0
 41
0
  0
VERTEX
  8
CCC-CC-CC
 10
134.366
 20
263.105
 30
0.0
 40
0
 41
0
  0
VERTEX
  8
CCC-CC-CC
 10
134.57
 20
263.105
 30
0.0
 40
0
 41
0
  0
VERTEX
  8
CCC-CC-CC
 10
134.57
 20
232.609
 30
0.0
 40
0
 41
0
  0
VERTEX
  8
CCC-CC-CC
 10
134.366
 20
232.609
 30
0.0
 40
0
 41
0
  0
VERTEX
  8
CCC-CC-CC
 10
134.366
 20
263.105
 30
0.0
 40
0
 41
0
  0
SEQEND
 8
0
  0
POLYLINE
  8
CCC-CC-CC
 66
     1
 10
0
 20
0
 30
0.0
 70
     1
 40
0
 41
0
  0
VERTEX
  8
CCC-CC-CC
 10
149.818
 20
263.105
 30
0.0
 40
0
 41
0
  0
VERTEX
  8
CCC-CC-CC
 10
150.585
 20
263.105
 30
0.0
 40
0
 41
0
  0
VERTEX
  8
CCC-CC-CC
 10
152.889
 20
262.796
 30
0.0
 40
0
 41
0
  0
VERTEX
  8
CCC-CC-CC
 10
155.751
 20
261.907
 30
0.0
 40
0
 41
0
  0
VERTEX
  8
CCC-CC-CC
 10
158.341
 20
260.502
 30
0.0
 40
0
 41
0
  0
VERTEX
  8
CCC-CC-CC
 10
160.598
 20
258.64
 30
0.0
 40
0
 41
0
  0
VERTEX
  8
CCC-CC-CC
 10
162.46
 20
256.383
 30
0.0
 40
0
 41
0
  0
VERTEX
  8
CCC-CC-CC
 10
163.865
 20
253.792
 30
0.0
 40
0
 41
0
  0
VERTEX
  8
CCC-CC-CC
 10
164.754
 20
250.93
 30
0.0
 40
0
 41
0
  0
VERTEX
  8
CCC-CC-CC
 10
165.064
 20
248.626
 30
0.0
 40
0
 41
0
  0
VERTEX
  8
CCC-CC-CC
 10
165.064
 20
247.857
 30
0.0
 40
0
 41
0
  0
VERTEX
  8
CCC-CC-CC
 10
165.064
 20
247.089
 30
0.0
 40
0
 41
0
  0
VERTEX
  8
CCC-CC-CC
 10
164.754
 20
244.785
 30
0.0
 40
0
 41
0
  0
VERTEX
  8
CCC-CC-CC
 10
163.865
 20
241.923
 30
0.0
 40
0
 41
0
  0
VERTEX
  8
CCC-CC-CC
 10
162.46
 20
239.332
 30
0.0
 40
0
 41
0
  0
VERTEX
  8
CCC-CC-CC
 10
160.598
 20
237.075
 30
0.0
 40
0
 41
0
  0
VERTEX
  8
CCC-CC-CC
 10
158.341
 20
235.213
 30
0.0
 40
0
 41
0
  0
VERTEX
  8
CCC-CC-CC
 10
155.751
 20
233.808
 30
0.0
 40
0
 41
0
  0
VERTEX
  8
CCC-CC-CC
 10
152.889
 20
232.919
 30
0.0
 40
0
 41
0
  0
VERTEX
  8
CCC-CC-CC
 10
150.585
 20
232.609
 30
0.0
 40
0
 41
0
  0
VERTEX
  8
CCC-CC-CC
 10
149.818
 20
232.609
 30
0.0
 40
0
 41
0
  0
VERTEX
  8
CCC-CC-CC
 10
149.049
 20
232.609
 30
0.0
 40
0
 41
0
  0
VERTEX
  8
CCC-CC-CC
 10
146.745
 20
232.919
 30
0.0
 40
0
 41
0
  0
VERTEX
  8
CCC-CC-CC
 10
143.882
 20
233.808
 30
0.0
 40
0
 41
0
  0
VERTEX
  8
CCC-CC-CC
 10
141.292
 20
235.213
 30
0.0
 40
0
 41
0
  0
VERTEX
  8
CCC-CC-CC
 10
139.034
 20
237.075
 30
0.0
 40
0
 41
0
  0
VERTEX
  8
CCC-CC-CC
 10
137.173
 20
239.332
 30
0.0
 40
0
 41
0
  0
VERTEX
  8
CCC-CC-CC
 10
135.767
 20
241.923
 30
0.0
 40
0
 41
0
  0
VERTEX
  8
CCC-CC-CC
 10
134.878
 20
244.785
 30
0.0
 40
0
 41
0
  0
VERTEX
  8
CCC-CC-CC
 10
134.57
 20
247.089
 30
0.0
 40
0
 41
0
  0
VERTEX
  8
CCC-CC-CC
 10
134.57
 20
247.857
 30
0.0
 40
0
 41
0
  0
VERTEX
  8
CCC-CC-CC
 10
134.57
 20
248.626
 30
0.0
 40
0
 41
0
  0
VERTEX
  8
CCC-CC-CC
 10
134.878
 20
250.93
 30
0.0
 40
0
 41
0
  0
VERTEX
  8
CCC-CC-CC
 10
135.767
 20
253.792
 30
0.0
 40
0
 41
0
  0
VERTEX
  8
CCC-CC-CC
 10
137.173
 20
256.383
 30
0.0
 40
0
 41
0
  0
VERTEX
  8
CCC-CC-CC
 10
139.034
 20
258.64
 30
0.0
 40
0
 41
0
  0
VERTEX
  8
CCC-CC-CC
 10
141.292
 20
260.502
 30
0.0
 40
0
 41
0
  0
VERTEX
  8
CCC-CC-CC
 10
143.882
 20
261.907
 30
0.0
 40
0
 41
0
  0
VERTEX
  8
CCC-CC-CC
 10
146.745
 20
262.796
 30
0.0
 40
0
 41
0
  0
VERTEX
  8
CCC-CC-CC
 10
149.049
 20
263.105
 30
0.0
 40
0
 41
0
  0
VERTEX
  8
CCC-CC-CC
 10
149.818
 20
263.105
 30
0.0
 40
0
 41
0
  0
SEQEND
 8
0
  0
POLYLINE
  8
CCC-CC-CC
 66
     1
 10
0
 20
0
 30
0.0
 70
     1
 40
0
 41
0
  0
VERTEX
  8
CCC-CC-CC
 10
149.818
 20
262.901
 30
0.0
 40
0
 41
0
  0
VERTEX
  8
CCC-CC-CC
 10
150.575
 20
262.901
 30
0.0
 40
0
 41
0
  0
VERTEX
  8
CCC-CC-CC
 10
152.849
 20
262.596
 30
0.0
 40
0
 41
0
  0
VERTEX
  8
CCC-CC-CC
 10
155.673
 20
261.72
 30
0.0
 40
0
 41
0
  0
VERTEX
  8
CCC-CC-CC
 10
158.228
 20
260.332
 30
0.0
 40
0
 41
0
  0
VERTEX
  8
CCC-CC-CC
 10
160.455
 20
258.495
 30
0.0
 40
0
 41
0
  0
VERTEX
  8
CCC-CC-CC
 10
162.292
 20
256.268
 30
0.0
 40
0
 41
0
  0
VERTEX
  8
CCC-CC-CC
 10
163.679
 20
253.714
 30
0.0
 40
0
 41
0
  0
VERTEX
  8
CCC-CC-CC
 10
164.556
 20
250.89
 30
0.0
 40
0
 41
0
  0
VERTEX
  8
CCC-CC-CC
 10
164.862
 20
248.616
 30
0.0
 40
0
 41
0
  0
VERTEX
  8
CCC-CC-CC
 10
164.862
 20
247.857
 30
0.0
 40
0
 41
0
  0
VERTEX
  8
CCC-CC-CC
 10
164.862
 20
247.099
 30
0.0
 40
0
 41
0
  0
VERTEX
  8
CCC-CC-CC
 10
164.556
 20
244.825
 30
0.0
 40
0
 41
0
  0
VERTEX
  8
CCC-CC-CC
 10
163.679
 20
242.001
 30
0.0
 40
0
 41
0
  0
VERTEX
  8
CCC-CC-CC
 10
162.292
 20
239.445
 30
0.0
 40
0
 41
0
  0
VERTEX
  8
CCC-CC-CC
 10
160.455
 20
237.22
 30
0.0
 40
0
 41
0
  0
VERTEX
  8
CCC-CC-CC
 10
158.228
 20
235.383
 30
0.0
 40
0
 41
0
  0
VERTEX
  8
CCC-CC-CC
 10
155.673
 20
233.995
 30
0.0
 40
0
 41
0
  0
VERTEX
  8
CCC-CC-CC
 10
152.849
 20
233.119
 30
0.0
 40
0
 41
0
  0
VERTEX
  8
CCC-CC-CC
 10
150.575
 20
232.813
 30
0.0
 40
0
 41
0
  0
VERTEX
  8
CCC-CC-CC
 10
149.818
 20
232.813
 30
0.0
 40
0
 41
0
  0
VERTEX
  8
CCC-CC-CC
 10
149.058
 20
232.813
 30
0.0
 40
0
 41
0
  0
VERTEX
  8
CCC-CC-CC
 10
146.784
 20
233.119
 30
0.0
 40
0
 41
0
  0
VERTEX
  8
CCC-CC-CC
 10
143.961
 20
233.995
 30
0.0
 40
0
 41
0
  0
VERTEX
  8
CCC-CC-CC
 10
141.405
 20
235.383
 30
0.0
 40
0
 41
0
  0
VERTEX
  8
CCC-CC-CC
 10
139.178
 20
237.22
 30
0.0
 40
0
 41
0
  0
VERTEX
  8
CCC-CC-CC
 10
137.341
 20
239.445
 30
0.0
 40
0
 41
0
  0
VERTEX
  8
CCC-CC-CC
 10
135.953
 20
242.001
 30
0.0
 40
0
 41
0
  0
VERTEX
  8
CCC-CC-CC
 10
135.077
 20
244.825
 30
0.0
 40
0
 41
0
  0
VERTEX
  8
CCC-CC-CC
 10
134.772
 20
247.099
 30
0.0
 40
0
 41
0
  0
VERTEX
  8
CCC-CC-CC
 10
134.772
 20
247.857
 30
0.0
 40
0
 41
0
  0
VERTEX
  8
CCC-CC-CC
 10
134.772
 20
248.616
 30
0.0
 40
0
 41
0
  0
VERTEX
  8
CCC-CC-CC
 10
135.077
 20
250.89
 30
0.0
 40
0
 41
0
  0
VERTEX
  8
CCC-CC-CC
 10
135.953
 20
253.714
 30
0.0
 40
0
 41
0
  0
VERTEX
  8
CCC-CC-CC
 10
137.341
 20
256.268
 30
0.0
 40
0
 41
0
  0
VERTEX
  8
CCC-CC-CC
 10
139.178
 20
258.495
 30
0.0
 40
0
 41
0
  0
VERTEX
  8
CCC-CC-CC
 10
141.405
 20
260.332
 30
0.0
 40
0
 41
0
  0
VERTEX
  8
CCC-CC-CC
 10
143.961
 20
261.72
 30
0.0
 40
0
 41
0
  0
VERTEX
  8
CCC-CC-CC
 10
146.784
 20
262.596
 30
0.0
 40
0
 41
0
  0
VERTEX
  8
CCC-CC-CC
 10
149.058
 20
262.901
 30
0.0
 40
0
 41
0
  0
VERTEX
  8
CCC-CC-CC
 10
149.818
 20
262.901
 30
0.0
 40
0
 41
0
  0
SEQEND
 8
0
  0
POLYLINE
  8
CCC-CC-CC
 66
     1
 10
0
 20
0
 30
0.0
 70
     1
 40
0
 41
0
  0
VERTEX
  8
CCC-CC-CC
 10
52.2319
 20
232.609
 30
0.0
 40
0
 41
0
  0
VERTEX
  8
CCC-CC-CC
 10
52.9992
 20
232.609
 30
0.0
 40
0
 41
0
  0
VERTEX
  8
CCC-CC-CC
 10
55.3036
 20
232.3
 30
0.0
 40
0
 41
0
  0
VERTEX
  8
CCC-CC-CC
 10
58.1656
 20
231.411
 30
0.0
 40
0
 41
0
  0
VERTEX
  8
CCC-CC-CC
 10
60.7564
 20
230.005
 30
0.0
 40
0
 41
0
  0
VERTEX
  8
CCC-CC-CC
 10
63.0135
 20
228.144
 30
0.0
 40
0
 41
0
  0
VERTEX
  8
CCC-CC-CC
 10
64.8751
 20
225.887
 30
0.0
 40
0
 41
0
  0
VERTEX
  8
CCC-CC-CC
 10
66.2809
 20
223.296
 30
0.0
 40
0
 41
0
  0
VERTEX
  8
CCC-CC-CC
 10
67.1696
 20
220.434
 30
0.0
 40
0
 41
0
  0
VERTEX
  8
CCC-CC-CC
 10
67.4797
 20
218.13
 30
0.0
 40
0
 41
0
  0
VERTEX
  8
CCC-CC-CC
 10
67.4797
 20
217.361
 30
0.0
 40
0
 41
0
  0
VERTEX
  8
CCC-CC-CC
 10
67.4797
 20
216.593
 30
0.0
 40
0
 41
0
  0
VERTEX
  8
CCC-CC-CC
 10
67.1696
 20
214.289
 30
0.0
 40
0
 41
0
  0
VERTEX
  8
CCC-CC-CC
 10
66.2809
 20
211.427
 30
0.0
 40
0
 41
0
  0
VERTEX
  8
CCC-CC-CC
 10
64.8751
 20
208.836
 30
0.0
 40
0
 41
0
  0
VERTEX
  8
CCC-CC-CC
 10
63.0135
 20
206.58
 30
0.0
 40
0
 41
0
  0
VERTEX
  8
CCC-CC-CC
 10
60.7564
 20
204.719
 30
0.0
 40
0
 41
0
  0
VERTEX
  8
CCC-CC-CC
 10
58.1656
 20
203.313
 30
0.0
 40
0
 41
0
  0
VERTEX
  8
CCC-CC-CC
 10
55.3036
 20
202.424
 30
0.0
 40
0
 41
0
  0
VERTEX
  8
CCC-CC-CC
 10
52.9992
 20
202.114
 30
0.0
 40
0
 41
0
  0
VERTEX
  8
CCC-CC-CC
 10
52.2319
 20
202.114
 30
0.0
 40
0
 41
0
  0
VERTEX
  8
CCC-CC-CC
 10
51.4629
 20
202.114
 30
0.0
 40
0
 41
0
  0
VERTEX
  8
CCC-CC-CC
 10
49.1589
 20
202.424
 30
0.0
 40
0
 41
0
  0
VERTEX
  8
CCC-CC-CC
 10
46.2964
 20
203.313
 30
0.0
 40
0
 41
0
  0
VERTEX
  8
CCC-CC-CC
 10
43.706
 20
204.719
 30
0.0
 40
0
 41
0
  0
VERTEX
  8
CCC-CC-CC
 10
41.4486
 20
206.58
 30
0.0
 40
0
 41
0
  0
VERTEX
  8
CCC-CC-CC
 10
39.587
 20
208.836
 30
0.0
 40
0
 41
0
  0
VERTEX
  8
CCC-CC-CC
 10
38.1811
 20
211.427
 30
0.0
 40
0
 41
0
  0
VERTEX
  8
CCC-CC-CC
 10
37.2925
 20
214.289
 30
0.0
 40
0
 41
0
  0
VERTEX
  8
CCC-CC-CC
 10
36.9838
 20
216.593
 30
0.0
 40
0
 41
0
  0
VERTEX
  8
CCC-CC-CC
 10
36.9838
 20
217.361
 30
0.0
 40
0
 41
0
  0
VERTEX
  8
CCC-CC-CC
 10
36.9838
 20
218.13
 30
0.0
 40
0
 41
0
  0
VERTEX
  8
CCC-CC-CC
 10
37.2925
 20
220.434
 30
0.0
 40
0
 41
0
  0
VERTEX
  8
CCC-CC-CC
 10
38.1811
 20
223.296
 30
0.0
 40
0
 41
0
  0
VERTEX
  8
CCC-CC-CC
 10
39.587
 20
225.887
 30
0.0
 40
0
 41
0
  0
VERTEX
  8
CCC-CC-CC
 10
41.4486
 20
228.144
 30
0.0
 40
0
 41
0
  0
VERTEX
  8
CCC-CC-CC
 10
43.706
 20
230.005
 30
0.0
 40
0
 41
0
  0
VERTEX
  8
CCC-CC-CC
 10
46.2964
 20
231.411
 30
0.0
 40
0
 41
0
  0
VERTEX
  8
CCC-CC-CC
 10
49.1589
 20
232.3
 30
0.0
 40
0
 41
0
  0
VERTEX
  8
CCC-CC-CC
 10
51.4629
 20
232.609
 30
0.0
 40
0
 41
0
  0
VERTEX
  8
CCC-CC-CC
 10
52.2319
 20
232.609
 30
0.0
 40
0
 41
0
  0
SEQEND
 8
0
  0
POLYLINE
  8
CCC-CC-CC
 66
     1
 10
0
 20
0
 30
0.0
 70
     1
 40
0
 41
0
  0
VERTEX
  8
CCC-CC-CC
 10
52.2319
 20
232.405
 30
0.0
 40
0
 41
0
  0
VERTEX
  8
CCC-CC-CC
 10
52.9897
 20
232.405
 30
0.0
 40
0
 41
0
  0
VERTEX
  8
CCC-CC-CC
 10
55.2633
 20
232.1
 30
0.0
 40
0
 41
0
  0
VERTEX
  8
CCC-CC-CC
 10
58.087
 20
231.224
 30
0.0
 40
0
 41
0
  0
VERTEX
  8
CCC-CC-CC
 10
60.6432
 20
229.836
 30
0.0
 40
0
 41
0
  0
VERTEX
  8
CCC-CC-CC
 10
62.8689
 20
227.999
 30
0.0
 40
0
 41
0
  0
VERTEX
  8
CCC-CC-CC
 10
64.7058
 20
225.774
 30
0.0
 40
0
 41
0
  0
VERTEX
  8
CCC-CC-CC
 10
66.0936
 20
223.217
 30
0.0
 40
0
 41
0
  0
VERTEX
  8
CCC-CC-CC
 10
66.9699
 20
220.394
 30
0.0
 40
0
 41
0
  0
VERTEX
  8
CCC-CC-CC
 10
67.2758
 20
218.12
 30
0.0
 40
0
 41
0
  0
VERTEX
  8
CCC-CC-CC
 10
67.2758
 20
217.361
 30
0.0
 40
0
 41
0
  0
VERTEX
  8
CCC-CC-CC
 10
67.2758
 20
216.603
 30
0.0
 40
0
 41
0
  0
VERTEX
  8
CCC-CC-CC
 10
66.9699
 20
214.329
 30
0.0
 40
0
 41
0
  0
VERTEX
  8
CCC-CC-CC
 10
66.0936
 20
211.505
 30
0.0
 40
0
 41
0
  0
VERTEX
  8
CCC-CC-CC
 10
64.7058
 20
208.951
 30
0.0
 40
0
 41
0
  0
VERTEX
  8
CCC-CC-CC
 10
62.8689
 20
206.724
 30
0.0
 40
0
 41
0
  0
VERTEX
  8
CCC-CC-CC
 10
60.6432
 20
204.887
 30
0.0
 40
0
 41
0
  0
VERTEX
  8
CCC-CC-CC
 10
58.087
 20
203.499
 30
0.0
 40
0
 41
0
  0
VERTEX
  8
CCC-CC-CC
 10
55.2633
 20
202.622
 30
0.0
 40
0
 41
0
  0
VERTEX
  8
CCC-CC-CC
 10
52.9897
 20
202.317
 30
0.0
 40
0
 41
0
  0
VERTEX
  8
CCC-CC-CC
 10
52.2319
 20
202.317
 30
0.0
 40
0
 41
0
  0
VERTEX
  8
CCC-CC-CC
 10
51.4724
 20
202.317
 30
0.0
 40
0
 41
0
  0
VERTEX
  8
CCC-CC-CC
 10
49.1987
 20
202.622
 30
0.0
 40
0
 41
0
  0
VERTEX
  8
CCC-CC-CC
 10
46.3751
 20
203.499
 30
0.0
 40
0
 41
0
  0
VERTEX
  8
CCC-CC-CC
 10
43.8203
 20
204.887
 30
0.0
 40
0
 41
0
  0
VERTEX
  8
CCC-CC-CC
 10
41.5932
 20
206.724
 30
0.0
 40
0
 41
0
  0
VERTEX
  8
CCC-CC-CC
 10
39.7563
 20
208.951
 30
0.0
 40
0
 41
0
  0
VERTEX
  8
CCC-CC-CC
 10
38.3688
 20
211.505
 30
0.0
 40
0
 41
0
  0
VERTEX
  8
CCC-CC-CC
 10
37.4922
 20
214.329
 30
0.0
 40
0
 41
0
  0
VERTEX
  8
CCC-CC-CC
 10
37.1877
 20
216.603
 30
0.0
 40
0
 41
0
  0
VERTEX
  8
CCC-CC-CC
 10
37.1877
 20
217.361
 30
0.0
 40
0
 41
0
  0
VERTEX
  8
CCC-CC-CC
 10
37.1877
 20
218.12
 30
0.0
 40
0
 41
0
  0
VERTEX
  8
CCC-CC-CC
 10
37.4922
 20
220.394
 30
0.0
 40
0
 41
0
  0
VERTEX
  8
CCC-CC-CC
 10
38.3688
 20
223.217
 30
0.0
 40
0
 41
0
  0
VERTEX
  8
CCC-CC-CC
 10
39.7563
 20
225.774
 30
0.0
 40
0
 41
0
  0
VERTEX
  8
CCC-CC-CC
 10
41.5932
 20
227.999
 30
0.0
 40
0
 41
0
  0
VERTEX
  8
CCC-CC-CC
 10
43.8203
 20
229.836
 30
0.0
 40
0
 41
0
  0
VERTEX
  8
CCC-CC-CC
 10
46.3751
 20
231.224
 30
0.0
 40
0
 41
0
  0
VERTEX
  8
CCC-CC-CC
 10
49.1987
 20
232.1
 30
0.0
 40
0
 41
0
  0
VERTEX
  8
CCC-CC-CC
 10
51.4724
 20
232.405
 30
0.0
 40
0
 41
0
  0
VERTEX
  8
CCC-CC-CC
 10
52.2319
 20
232.405
 30
0.0
 40
0
 41
0
  0
SEQEND
 8
0
  0
POLYLINE
  8
CCC-CC-CC
 66
     1
 10
0
 20
0
 30
0.0
 70
     1
 40
0
 41
0
  0
VERTEX
  8
CCC-CC-CC
 10
82.7278
 20
232.609
 30
0.0
 40
0
 41
0
  0
VERTEX
  8
CCC-CC-CC
 10
83.4954
 20
232.609
 30
0.0
 40
0
 41
0
  0
VERTEX
  8
CCC-CC-CC
 10
85.7994
 20
232.3
 30
0.0
 40
0
 41
0
  0
VERTEX
  8
CCC-CC-CC
 10
88.6615
 20
231.411
 30
0.0
 40
0
 41
0
  0
VERTEX
  8
CCC-CC-CC
 10
91.2523
 20
230.005
 30
0.0
 40
0
 41
0
  0
VERTEX
  8
CCC-CC-CC
 10
93.5083
 20
228.144
 30
0.0
 40
0
 41
0
  0
VERTEX
  8
CCC-CC-CC
 10
95.3699
 20
225.887
 30
0.0
 40
0
 41
0
  0
VERTEX
  8
CCC-CC-CC
 10
96.7754
 20
223.296
 30
0.0
 40
0
 41
0
  0
VERTEX
  8
CCC-CC-CC
 10
97.6644
 20
220.434
 30
0.0
 40
0
 41
0
  0
VERTEX
  8
CCC-CC-CC
 10
97.9745
 20
218.13
 30
0.0
 40
0
 41
0
  0
VERTEX
  8
CCC-CC-CC
 10
97.9745
 20
217.361
 30
0.0
 40
0
 41
0
  0
VERTEX
  8
CCC-CC-CC
 10
97.9745
 20
216.593
 30
0.0
 40
0
 41
0
  0
VERTEX
  8
CCC-CC-CC
 10
97.6644
 20
214.289
 30
0.0
 40
0
 41
0
  0
VERTEX
  8
CCC-CC-CC
 10
96.7754
 20
211.427
 30
0.0
 40
0
 41
0
  0
VERTEX
  8
CCC-CC-CC
 10
95.3699
 20
208.836
 30
0.0
 40
0
 41
0
  0
VERTEX
  8
CCC-CC-CC
 10
93.5083
 20
206.58
 30
0.0
 40
0
 41
0
  0
VERTEX
  8
CCC-CC-CC
 10
91.2523
 20
204.719
 30
0.0
 40
0
 41
0
  0
VERTEX
  8
CCC-CC-CC
 10
88.6615
 20
203.313
 30
0.0
 40
0
 41
0
  0
VERTEX
  8
CCC-CC-CC
 10
85.7994
 20
202.424
 30
0.0
 40
0
 41
0
  0
VERTEX
  8
CCC-CC-CC
 10
83.4954
 20
202.114
 30
0.0
 40
0
 41
0
  0
VERTEX
  8
CCC-CC-CC
 10
82.7278
 20
202.114
 30
0.0
 40
0
 41
0
  0
VERTEX
  8
CCC-CC-CC
 10
81.9587
 20
202.114
 30
0.0
 40
0
 41
0
  0
VERTEX
  8
CCC-CC-CC
 10
79.6548
 20
202.424
 30
0.0
 40
0
 41
0
  0
VERTEX
  8
CCC-CC-CC
 10
76.7927
 20
203.313
 30
0.0
 40
0
 41
0
  0
VERTEX
  8
CCC-CC-CC
 10
74.2019
 20
204.719
 30
0.0
 40
0
 41
0
  0
VERTEX
  8
CCC-CC-CC
 10
71.9448
 20
206.58
 30
0.0
 40
0
 41
0
  0
VERTEX
  8
CCC-CC-CC
 10
70.0828
 20
208.836
 30
0.0
 40
0
 41
0
  0
VERTEX
  8
CCC-CC-CC
 10
68.6774
 20
211.427
 30
0.0
 40
0
 41
0
  0
VERTEX
  8
CCC-CC-CC
 10
67.7884
 20
214.289
 30
0.0
 40
0
 41
0
  0
VERTEX
  8
CCC-CC-CC
 10
67.4797
 20
216.593
 30
0.0
 40
0
 41
0
  0
VERTEX
  8
CCC-CC-CC
 10
67.4797
 20
217.361
 30
0.0
 40
0
 41
0
  0
VERTEX
  8
CCC-CC-CC
 10
67.4797
 20
218.13
 30
0.0
 40
0
 41
0
  0
VERTEX
  8
CCC-CC-CC
 10
67.7884
 20
220.434
 30
0.0
 40
0
 41
0
  0
VERTEX
  8
CCC-CC-CC
 10
68.6774
 20
223.296
 30
0.0
 40
0
 41
0
  0
VERTEX
  8
CCC-CC-CC
 10
70.0828
 20
225.887
 30
0.0
 40
0
 41
0
  0
VERTEX
  8
CCC-CC-CC
 10
71.9448
 20
228.144
 30
0.0
 40
0
 41
0
  0
VERTEX
  8
CCC-CC-CC
 10
74.2019
 20
230.005
 30
0.0
 40
0
 41
0
  0
VERTEX
  8
CCC-CC-CC
 10
76.7927
 20
231.411
 30
0.0
 40
0
 41
0
  0
VERTEX
  8
CCC-CC-CC
 10
79.6548
 20
232.3
 30
0.0
 40
0
 41
0
  0
VERTEX
  8
CCC-CC-CC
 10
81.9587
 20
232.609
 30
0.0
 40
0
 41
0
  0
VERTEX
  8
CCC-CC-CC
 10
82.7278
 20
232.609
 30
0.0
 40
0
 41
0
  0
SEQEND
 8
0
  0
POLYLINE
  8
CCC-CC-CC
 66
     1
 10
0
 20
0
 30
0.0
 70
     1
 40
0
 41
0
  0
VERTEX
  8
CCC-CC-CC
 10
82.7278
 20
232.405
 30
0.0
 40
0
 41
0
  0
VERTEX
  8
CCC-CC-CC
 10
83.4856
 20
232.405
 30
0.0
 40
0
 41
0
  0
VERTEX
  8
CCC-CC-CC
 10
85.7596
 20
232.1
 30
0.0
 40
0
 41
0
  0
VERTEX
  8
CCC-CC-CC
 10
88.5832
 20
231.224
 30
0.0
 40
0
 41
0
  0
VERTEX
  8
CCC-CC-CC
 10
91.138
 20
229.836
 30
0.0
 40
0
 41
0
  0
VERTEX
  8
CCC-CC-CC
 10
93.3648
 20
227.999
 30
0.0
 40
0
 41
0
  0
VERTEX
  8
CCC-CC-CC
 10
95.2017
 20
225.774
 30
0.0
 40
0
 41
0
  0
VERTEX
  8
CCC-CC-CC
 10
96.5895
 20
223.217
 30
0.0
 40
0
 41
0
  0
VERTEX
  8
CCC-CC-CC
 10
97.4658
 20
220.394
 30
0.0
 40
0
 41
0
  0
VERTEX
  8
CCC-CC-CC
 10
97.7717
 20
218.12
 30
0.0
 40
0
 41
0
  0
VERTEX
  8
CCC-CC-CC
 10
97.7717
 20
217.361
 30
0.0
 40
0
 41
0
  0
VERTEX
  8
CCC-CC-CC
 10
97.7717
 20
216.603
 30
0.0
 40
0
 41
0
  0
VERTEX
  8
CCC-CC-CC
 10
97.4658
 20
214.329
 30
0.0
 40
0
 41
0
  0
VERTEX
  8
CCC-CC-CC
 10
96.5895
 20
211.505
 30
0.0
 40
0
 41
0
  0
VERTEX
  8
CCC-CC-CC
 10
95.2017
 20
208.951
 30
0.0
 40
0
 41
0
  0
VERTEX
  8
CCC-CC-CC
 10
93.3648
 20
206.724
 30
0.0
 40
0
 41
0
  0
VERTEX
  8
CCC-CC-CC
 10
91.138
 20
204.887
 30
0.0
 40
0
 41
0
  0
VERTEX
  8
CCC-CC-CC
 10
88.5832
 20
203.499
 30
0.0
 40
0
 41
0
  0
VERTEX
  8
CCC-CC-CC
 10
85.7596
 20
202.622
 30
0.0
 40
0
 41
0
  0
VERTEX
  8
CCC-CC-CC
 10
83.4856
 20
202.317
 30
0.0
 40
0
 41
0
  0
VERTEX
  8
CCC-CC-CC
 10
82.7278
 20
202.317
 30
0.0
 40
0
 41
0
  0
VERTEX
  8
CCC-CC-CC
 10
81.9686
 20
202.317
 30
0.0
 40
0
 41
0
  0
VERTEX
  8
CCC-CC-CC
 10
79.6946
 20
202.622
 30
0.0
 40
0
 41
0
  0
VERTEX
  8
CCC-CC-CC
 10
76.871
 20
203.499
 30
0.0
 40
0
 41
0
  0
VERTEX
  8
CCC-CC-CC
 10
74.3148
 20
204.887
 30
0.0
 40
0
 41
0
  0
VERTEX
  8
CCC-CC-CC
 10
72.088
 20
206.724
 30
0.0
 40
0
 41
0
  0
VERTEX
  8
CCC-CC-CC
 10
70.2511
 20
208.951
 30
0.0
 40
0
 41
0
  0
VERTEX
  8
CCC-CC-CC
 10
68.8633
 20
211.505
 30
0.0
 40
0
 41
0
  0
VERTEX
  8
CCC-CC-CC
 10
67.987
 20
214.329
 30
0.0
 40
0
 41
0
  0
VERTEX
  8
CCC-CC-CC
 10
67.6822
 20
216.603
 30
0.0
 40
0
 41
0
  0
VERTEX
  8
CCC-CC-CC
 10
67.6822
 20
217.361
 30
0.0
 40
0
 41
0
  0
VERTEX
  8
CCC-CC-CC
 10
67.6822
 20
218.12
 30
0.0
 40
0
 41
0
  0
VERTEX
  8
CCC-CC-CC
 10
67.987
 20
220.394
 30
0.0
 40
0
 41
0
  0
VERTEX
  8
CCC-CC-CC
 10
68.8633
 20
223.217
 30
0.0
 40
0
 41
0
  0
VERTEX
  8
CCC-CC-CC
 10
70.2511
 20
225.774
 30
0.0
 40
0
 41
0
  0
VERTEX
  8
CCC-CC-CC
 10
72.088
 20
227.999
 30
0.0
 40
0
 41
0
  0
VERTEX
  8
CCC-CC-CC
 10
74.3148
 20
229.836
 30
0.0
 40
0
 41
0
  0
VERTEX
  8
CCC-CC-CC
 10
76.871
 20
231.224
 30
0.0
 40
0
 41
0
  0
VERTEX
  8
CCC-CC-CC
 10
79.6946
 20
232.1
 30
0.0
 40
0
 41
0
  0
VERTEX
  8
CCC-CC-CC
 10
81.9686
 20
232.405
 30
0.0
 40
0
 41
0
  0
VERTEX
  8
CCC-CC-CC
 10
82.7278
 20
232.405
 30
0.0
 40
0
 41
0
  0
SEQEND
 8
0
  0
POLYLINE
  8
CCC-CC-CC
 66
     1
 10
0
 20
0
 30
0.0
 70
     1
 40
0
 41
0
  0
VERTEX
  8
CCC-CC-CC
 10
113.222
 20
232.609
 30
0.0
 40
0
 41
0
  0
VERTEX
  8
CCC-CC-CC
 10
113.99
 20
232.609
 30
0.0
 40
0
 41
0
  0
VERTEX
  8
CCC-CC-CC
 10
116.294
 20
232.3
 30
0.0
 40
0
 41
0
  0
VERTEX
  8
CCC-CC-CC
 10
119.156
 20
231.411
 30
0.0
 40
0
 41
0
  0
VERTEX
  8
CCC-CC-CC
 10
121.747
 20
230.005
 30
0.0
 40
0
 41
0
  0
VERTEX
  8
CCC-CC-CC
 10
124.004
 20
228.144
 30
0.0
 40
0
 41
0
  0
VERTEX
  8
CCC-CC-CC
 10
125.866
 20
225.887
 30
0.0
 40
0
 41
0
  0
VERTEX
  8
CCC-CC-CC
 10
127.272
 20
223.296
 30
0.0
 40
0
 41
0
  0
VERTEX
  8
CCC-CC-CC
 10
128.16
 20
220.434
 30
0.0
 40
0
 41
0
  0
VERTEX
  8
CCC-CC-CC
 10
128.47
 20
218.13
 30
0.0
 40
0
 41
0
  0
VERTEX
  8
CCC-CC-CC
 10
128.47
 20
217.361
 30
0.0
 40
0
 41
0
  0
VERTEX
  8
CCC-CC-CC
 10
128.47
 20
216.593
 30
0.0
 40
0
 41
0
  0
VERTEX
  8
CCC-CC-CC
 10
128.16
 20
214.289
 30
0.0
 40
0
 41
0
  0
VERTEX
  8
CCC-CC-CC
 10
127.272
 20
211.427
 30
0.0
 40
0
 41
0
  0
VERTEX
  8
CCC-CC-CC
 10
125.866
 20
208.836
 30
0.0
 40
0
 41
0
  0
VERTEX
  8
CCC-CC-CC
 10
124.004
 20
206.58
 30
0.0
 40
0
 41
0
  0
VERTEX
  8
CCC-CC-CC
 10
121.747
 20
204.719
 30
0.0
 40
0
 41
0
  0
VERTEX
  8
CCC-CC-CC
 10
119.156
 20
203.313
 30
0.0
 40
0
 41
0
  0
VERTEX
  8
CCC-CC-CC
 10
116.294
 20
202.424
 30
0.0
 40
0
 41
0
  0
VERTEX
  8
CCC-CC-CC
 10
113.99
 20
202.114
 30
0.0
 40
0
 41
0
  0
VERTEX
  8
CCC-CC-CC
 10
113.222
 20
202.114
 30
0.0
 40
0
 41
0
  0
VERTEX
  8
CCC-CC-CC
 10
112.454
 20
202.114
 30
0.0
 40
0
 41
0
  0
VERTEX
  8
CCC-CC-CC
 10
110.149
 20
202.424
 30
0.0
 40
0
 41
0
  0
VERTEX
  8
CCC-CC-CC
 10
107.287
 20
203.313
 30
0.0
 40
0
 41
0
  0
VERTEX
  8
CCC-CC-CC
 10
104.696
 20
204.719
 30
0.0
 40
0
 41
0
  0
VERTEX
  8
CCC-CC-CC
 10
102.439
 20
206.58
 30
0.0
 40
0
 41
0
  0
VERTEX
  8
CCC-CC-CC
 10
100.578
 20
208.836
 30
0.0
 40
0
 41
0
  0
VERTEX
  8
CCC-CC-CC
 10
99.1718
 20
211.427
 30
0.0
 40
0
 41
0
  0
VERTEX
  8
CCC-CC-CC
 10
98.2832
 20
214.289
 30
0.0
 40
0
 41
0
  0
VERTEX
  8
CCC-CC-CC
 10
97.9745
 20
216.593
 30
0.0
 40
0
 41
0
  0
VERTEX
  8
CCC-CC-CC
 10
97.9745
 20
217.361
 30
0.0
 40
0
 41
0
  0
VERTEX
  8
CCC-CC-CC
 10
97.9745
 20
218.13
 30
0.0
 40
0
 41
0
  0
VERTEX
  8
CCC-CC-CC
 10
98.2832
 20
220.434
 30
0.0
 40
0
 41
0
  0
VERTEX
  8
CCC-CC-CC
 10
99.1718
 20
223.296
 30
0.0
 40
0
 41
0
  0
VERTEX
  8
CCC-CC-CC
 10
100.578
 20
225.887
 30
0.0
 40
0
 41
0
  0
VERTEX
  8
CCC-CC-CC
 10
102.439
 20
228.144
 30
0.0
 40
0
 41
0
  0
VERTEX
  8
CCC-CC-CC
 10
104.696
 20
230.005
 30
0.0
 40
0
 41
0
  0
VERTEX
  8
CCC-CC-CC
 10
107.287
 20
231.411
 30
0.0
 40
0
 41
0
  0
VERTEX
  8
CCC-CC-CC
 10
110.149
 20
232.3
 30
0.0
 40
0
 41
0
  0
VERTEX
  8
CCC-CC-CC
 10
112.454
 20
232.609
 30
0.0
 40
0
 41
0
  0
VERTEX
  8
CCC-CC-CC
 10
113.222
 20
232.609
 30
0.0
 40
0
 41
0
  0
SEQEND
 8
0
  0
POLYLINE
  8
CCC-CC-CC
 66
     1
 10
0
 20
0
 30
0.0
 70
     1
 40
0
 41
0
  0
VERTEX
  8
CCC-CC-CC
 10
113.222
 20
232.405
 30
0.0
 40
0
 41
0
  0
VERTEX
  8
CCC-CC-CC
 10
113.98
 20
232.405
 30
0.0
 40
0
 41
0
  0
VERTEX
  8
CCC-CC-CC
 10
116.254
 20
232.1
 30
0.0
 40
0
 41
0
  0
VERTEX
  8
CCC-CC-CC
 10
119.078
 20
231.224
 30
0.0
 40
0
 41
0
  0
VERTEX
  8
CCC-CC-CC
 10
121.634
 20
229.836
 30
0.0
 40
0
 41
0
  0
VERTEX
  8
CCC-CC-CC
 10
123.86
 20
227.999
 30
0.0
 40
0
 41
0
  0
VERTEX
  8
CCC-CC-CC
 10
125.696
 20
225.774
 30
0.0
 40
0
 41
0
  0
VERTEX
  8
CCC-CC-CC
 10
127.084
 20
223.217
 30
0.0
 40
0
 41
0
  0
VERTEX
  8
CCC-CC-CC
 10
127.961
 20
220.394
 30
0.0
 40
0
 41
0
  0
VERTEX
  8
CCC-CC-CC
 10
128.266
 20
218.12
 30
0.0
 40
0
 41
0
  0
VERTEX
  8
CCC-CC-CC
 10
128.266
 20
217.361
 30
0.0
 40
0
 41
0
  0
VERTEX
  8
CCC-CC-CC
 10
128.266
 20
216.603
 30
0.0
 40
0
 41
0
  0
VERTEX
  8
CCC-CC-CC
 10
127.961
 20
214.329
 30
0.0
 40
0
 41
0
  0
VERTEX
  8
CCC-CC-CC
 10
127.084
 20
211.505
 30
0.0
 40
0
 41
0
  0
VERTEX
  8
CCC-CC-CC
 10
125.696
 20
208.951
 30
0.0
 40
0
 41
0
  0
VERTEX
  8
CCC-CC-CC
 10
123.86
 20
206.724
 30
0.0
 40
0
 41
0
  0
VERTEX
  8
CCC-CC-CC
 10
121.634
 20
204.887
 30
0.0
 40
0
 41
0
  0
VERTEX
  8
CCC-CC-CC
 10
119.078
 20
203.499
 30
0.0
 40
0
 41
0
  0
VERTEX
  8
CCC-CC-CC
 10
116.254
 20
202.622
 30
0.0
 40
0
 41
0
  0
VERTEX
  8
CCC-CC-CC
 10
113.98
 20
202.317
 30
0.0
 40
0
 41
0
  0
VERTEX
  8
CCC-CC-CC
 10
113.222
 20
202.317
 30
0.0
 40
0
 41
0
  0
VERTEX
  8
CCC-CC-CC
 10
112.463
 20
202.317
 30
0.0
 40
0
 41
0
  0
VERTEX
  8
CCC-CC-CC
 10
110.189
 20
202.622
 30
0.0
 40
0
 41
0
  0
VERTEX
  8
CCC-CC-CC
 10
107.366
 20
203.499
 30
0.0
 40
0
 41
0
  0
VERTEX
  8
CCC-CC-CC
 10
104.811
 20
204.887
 30
0.0
 40
0
 41
0
  0
VERTEX
  8
CCC-CC-CC
 10
102.584
 20
206.724
 30
0.0
 40
0
 41
0
  0
VERTEX
  8
CCC-CC-CC
 10
100.747
 20
208.951
 30
0.0
 40
0
 41
0
  0
VERTEX
  8
CCC-CC-CC
 10
99.3592
 20
211.505
 30
0.0
 40
0
 41
0
  0
VERTEX
  8
CCC-CC-CC
 10
98.4829
 20
214.329
 30
0.0
 40
0
 41
0
  0
VERTEX
  8
CCC-CC-CC
 10
98.1784
 20
216.603
 30
0.0
 40
0
 41
0
  0
VERTEX
  8
CCC-CC-CC
 10
98.1784
 20
217.361
 30
0.0
 40
0
 41
0
  0
VERTEX
  8
CCC-CC-CC
 10
98.1784
 20
218.12
 30
0.0
 40
0
 41
0
  0
VERTEX
  8
CCC-CC-CC
 10
98.4829
 20
220.394
 30
0.0
 40
0
 41
0
  0
VERTEX
  8
CCC-CC-CC
 10
99.3592
 20
223.217
 30
0.0
 40
0
 41
0
  0
VERTEX
  8
CCC-CC-CC
 10
100.747
 20
225.774
 30
0.0
 40
0
 41
0
  0
VERTEX
  8
CCC-CC-CC
 10
102.584
 20
227.999
 30
0.0
 40
0
 41
0
  0
VERTEX
  8
CCC-CC-CC
 10
104.811
 20
229.836
 30
0.0
 40
0
 41
0
  0
VERTEX
  8
CCC-CC-CC
 10
107.366
 20
231.224
 30
0.0
 40
0
 41
0
  0
VERTEX
  8
CCC-CC-CC
 10
110.189
 20
232.1
 30
0.0
 40
0
 41
0
  0
VERTEX
  8
CCC-CC-CC
 10
112.463
 20
232.405
 30
0.0
 40
0
 41
0
  0
VERTEX
  8
CCC-CC-CC
 10
113.222
 20
232.405
 30
0.0
 40
0
 41
0
  0
SEQEND
 8
0
  0
POLYLINE
  8
CCC-CC-CC
 66
     1
 10
0
 20
0
 30
0.0
 70
     1
 40
0
 41
0
  0
VERTEX
  8
CCC-CC-CC
 10
143.718
 20
232.609
 30
0.0
 40
0
 41
0
  0
VERTEX
  8
CCC-CC-CC
 10
144.486
 20
232.609
 30
0.0
 40
0
 41
0
  0
VERTEX
  8
CCC-CC-CC
 10
146.79
 20
232.3
 30
0.0
 40
0
 41
0
  0
VERTEX
  8
CCC-CC-CC
 10
149.652
 20
231.411
 30
0.0
 40
0
 41
0
  0
VERTEX
  8
CCC-CC-CC
 10
152.243
 20
230.005
 30
0.0
 40
0
 41
0
  0
VERTEX
  8
CCC-CC-CC
 10
154.499
 20
228.144
 30
0.0
 40
0
 41
0
  0
VERTEX
  8
CCC-CC-CC
 10
156.361
 20
225.887
 30
0.0
 40
0
 41
0
  0
VERTEX
  8
CCC-CC-CC
 10
157.766
 20
223.296
 30
0.0
 40
0
 41
0
  0
VERTEX
  8
CCC-CC-CC
 10
158.655
 20
220.434
 30
0.0
 40
0
 41
0
  0
VERTEX
  8
CCC-CC-CC
 10
158.965
 20
218.13
 30
0.0
 40
0
 41
0
  0
VERTEX
  8
CCC-CC-CC
 10
158.965
 20
217.361
 30
0.0
 40
0
 41
0
  0
VERTEX
  8
CCC-CC-CC
 10
158.965
 20
216.593
 30
0.0
 40
0
 41
0
  0
VERTEX
  8
CCC-CC-CC
 10
158.655
 20
214.289
 30
0.0
 40
0
 41
0
  0
VERTEX
  8
CCC-CC-CC
 10
157.766
 20
211.427
 30
0.0
 40
0
 41
0
  0
VERTEX
  8
CCC-CC-CC
 10
156.361
 20
208.836
 30
0.0
 40
0
 41
0
  0
VERTEX
  8
CCC-CC-CC
 10
154.499
 20
206.58
 30
0.0
 40
0
 41
0
  0
VERTEX
  8
CCC-CC-CC
 10
152.243
 20
204.719
 30
0.0
 40
0
 41
0
  0
VERTEX
  8
CCC-CC-CC
 10
149.652
 20
203.313
 30
0.0
 40
0
 41
0
  0
VERTEX
  8
CCC-CC-CC
 10
146.79
 20
202.424
 30
0.0
 40
0
 41
0
  0
VERTEX
  8
CCC-CC-CC
 10
144.486
 20
202.114
 30
0.0
 40
0
 41
0
  0
VERTEX
  8
CCC-CC-CC
 10
143.718
 20
202.114
 30
0.0
 40
0
 41
0
  0
VERTEX
  8
CCC-CC-CC
 10
142.949
 20
202.114
 30
0.0
 40
0
 41
0
  0
VERTEX
  8
CCC-CC-CC
 10
140.645
 20
202.424
 30
0.0
 40
0
 41
0
  0
VERTEX
  8
CCC-CC-CC
 10
137.783
 20
203.313
 30
0.0
 40
0
 41
0
  0
VERTEX
  8
CCC-CC-CC
 10
135.193
 20
204.719
 30
0.0
 40
0
 41
0
  0
VERTEX
  8
CCC-CC-CC
 10
132.935
 20
206.58
 30
0.0
 40
0
 41
0
  0
VERTEX
  8
CCC-CC-CC
 10
131.074
 20
208.836
 30
0.0
 40
0
 41
0
  0
VERTEX
  8
CCC-CC-CC
 10
129.668
 20
211.427
 30
0.0
 40
0
 41
0
  0
VERTEX
  8
CCC-CC-CC
 10
128.779
 20
214.289
 30
0.0
 40
0
 41
0
  0
VERTEX
  8
CCC-CC-CC
 10
128.47
 20
216.593
 30
0.0
 40
0
 41
0
  0
VERTEX
  8
CCC-CC-CC
 10
128.47
 20
217.361
 30
0.0
 40
0
 41
0
  0
VERTEX
  8
CCC-CC-CC
 10
128.47
 20
218.13
 30
0.0
 40
0
 41
0
  0
VERTEX
  8
CCC-CC-CC
 10
128.779
 20
220.434
 30
0.0
 40
0
 41
0
  0
VERTEX
  8
CCC-CC-CC
 10
129.668
 20
223.296
 30
0.0
 40
0
 41
0
  0
VERTEX
  8
CCC-CC-CC
 10
131.074
 20
225.887
 30
0.0
 40
0
 41
0
  0
VERTEX
  8
CCC-CC-CC
 10
132.935
 20
228.144
 30
0.0
 40
0
 41
0
  0
VERTEX
  8
CCC-CC-CC
 10
135.193
 20
230.005
 30
0.0
 40
0
 41
0
  0
VERTEX
  8
CCC-CC-CC
 10
137.783
 20
231.411
 30
0.0
 40
0
 41
0
  0
VERTEX
  8
CCC-CC-CC
 10
140.645
 20
232.3
 30
0.0
 40
0
 41
0
  0
VERTEX
  8
CCC-CC-CC
 10
142.949
 20
232.609
 30
0.0
 40
0
 41
0
  0
VERTEX
  8
CCC-CC-CC
 10
143.718
 20
232.609
 30
0.0
 40
0
 41
0
  0
SEQEND
 8
0
  0
POLYLINE
  8
CCC-CC-CC
 66
     1
 10
0
 20
0
 30
0.0
 70
     1
 40
0
 41
0
  0
VERTEX
  8
CCC-CC-CC
 10
143.718
 20
232.405
 30
0.0
 40
0
 41
0
  0
VERTEX
  8
CCC-CC-CC
 10
144.476
 20
232.405
 30
0.0
 40
0
 41
0
  0
VERTEX
  8
CCC-CC-CC
 10
146.75
 20
232.1
 30
0.0
 40
0
 41
0
  0
VERTEX
  8
CCC-CC-CC
 10
149.574
 20
231.224
 30
0.0
 40
0
 41
0
  0
VERTEX
  8
CCC-CC-CC
 10
152.128
 20
229.836
 30
0.0
 40
0
 41
0
  0
VERTEX
  8
CCC-CC-CC
 10
154.355
 20
227.999
 30
0.0
 40
0
 41
0
  0
VERTEX
  8
CCC-CC-CC
 10
156.192
 20
225.774
 30
0.0
 40
0
 41
0
  0
VERTEX
  8
CCC-CC-CC
 10
157.58
 20
223.217
 30
0.0
 40
0
 41
0
  0
VERTEX
  8
CCC-CC-CC
 10
158.456
 20
220.394
 30
0.0
 40
0
 41
0
  0
VERTEX
  8
CCC-CC-CC
 10
158.762
 20
218.12
 30
0.0
 40
0
 41
0
  0
VERTEX
  8
CCC-CC-CC
 10
158.762
 20
217.361
 30
0.0
 40
0
 41
0
  0
VERTEX
  8
CCC-CC-CC
 10
158.762
 20
216.603
 30
0.0
 40
0
 41
0
  0
VERTEX
  8
CCC-CC-CC
 10
158.456
 20
214.329
 30
0.0
 40
0
 41
0
  0
VERTEX
  8
CCC-CC-CC
 10
157.58
 20
211.505
 30
0.0
 40
0
 41
0
  0
VERTEX
  8
CCC-CC-CC
 10
156.192
 20
208.951
 30
0.0
 40
0
 41
0
  0
VERTEX
  8
CCC-CC-CC
 10
154.355
 20
206.724
 30
0.0
 40
0
 41
0
  0
VERTEX
  8
CCC-CC-CC
 10
152.128
 20
204.887
 30
0.0
 40
0
 41
0
  0
VERTEX
  8
CCC-CC-CC
 10
149.574
 20
203.499
 30
0.0
 40
0
 41
0
  0
VERTEX
  8
CCC-CC-CC
 10
146.75
 20
202.622
 30
0.0
 40
0
 41
0
  0
VERTEX
  8
CCC-CC-CC
 10
144.476
 20
202.317
 30
0.0
 40
0
 41
0
  0
VERTEX
  8
CCC-CC-CC
 10
143.718
 20
202.317
 30
0.0
 40
0
 41
0
  0
VERTEX
  8
CCC-CC-CC
 10
142.959
 20
202.317
 30
0.0
 40
0
 41
0
  0
VERTEX
  8
CCC-CC-CC
 10
140.685
 20
202.622
 30
0.0
 40
0
 41
0
  0
VERTEX
  8
CCC-CC-CC
 10
137.862
 20
203.499
 30
0.0
 40
0
 41
0
  0
VERTEX
  8
CCC-CC-CC
 10
135.305
 20
204.887
 30
0.0
 40
0
 41
0
  0
VERTEX
  8
CCC-CC-CC
 10
133.078
 20
206.724
 30
0.0
 40
0
 41
0
  0
VERTEX
  8
CCC-CC-CC
 10
131.241
 20
208.951
 30
0.0
 40
0
 41
0
  0
VERTEX
  8
CCC-CC-CC
 10
129.854
 20
211.505
 30
0.0
 40
0
 41
0
  0
VERTEX
  8
CCC-CC-CC
 10
128.977
 20
214.329
 30
0.0
 40
0
 41
0
  0
VERTEX
  8
CCC-CC-CC
 10
128.673
 20
216.603
 30
0.0
 40
0
 41
0
  0
VERTEX
  8
CCC-CC-CC
 10
128.673
 20
217.361
 30
0.0
 40
0
 41
0
  0
VERTEX
  8
CCC-CC-CC
 10
128.673
 20
218.12
 30
0.0
 40
0
 41
0
  0
VERTEX
  8
CCC-CC-CC
 10
128.977
 20
220.394
 30
0.0
 40
0
 41
0
  0
VERTEX
  8
CCC-CC-CC
 10
129.854
 20
223.217
 30
0.0
 40
0
 41
0
  0
VERTEX
  8
CCC-CC-CC
 10
131.241
 20
225.774
 30
0.0
 40
0
 41
0
  0
VERTEX
  8
CCC-CC-CC
 10
133.078
 20
227.999
 30
0.0
 40
0
 41
0
  0
VERTEX
  8
CCC-CC-CC
 10
135.305
 20
229.836
 30
0.0
 40
0
 41
0
  0
VERTEX
  8
CCC-CC-CC
 10
137.862
 20
231.224
 30
0.0
 40
0
 41
0
  0
VERTEX
  8
CCC-CC-CC
 10
140.685
 20
232.1
 30
0.0
 40
0
 41
0
  0
VERTEX
  8
CCC-CC-CC
 10
142.959
 20
232.405
 30
0.0
 40
0
 41
0
  0
VERTEX
  8
CCC-CC-CC
 10
143.718
 20
232.405
 30
0.0
 40
0
 41
0
  0
SEQEND
 8
0
  0
POLYLINE
  8
CCC-CC-CC
 66
     1
 10
0
 20
0
 30
0.0
 70
     1
 40
0
 41
0
  0
VERTEX
  8
CCC-CC-CC
 10
52.2319
 20
202.114
 30
0.0
 40
0
 41
0
  0
VERTEX
  8
CCC-CC-CC
 10
52.9992
 20
202.114
 30
0.0
 40
0
 41
0
  0
VERTEX
  8
CCC-CC-CC
 10
55.3036
 20
201.805
 30
0.0
 40
0
 41
0
  0
VERTEX
  8
CCC-CC-CC
 10
58.1656
 20
200.916
 30
0.0
 40
0
 41
0
  0
VERTEX
  8
CCC-CC-CC
 10
60.7564
 20
199.511
 30
0.0
 40
0
 41
0
  0
VERTEX
  8
CCC-CC-CC
 10
63.0135
 20
197.649
 30
0.0
 40
0
 41
0
  0
VERTEX
  8
CCC-CC-CC
 10
64.8751
 20
195.392
 30
0.0
 40
0
 41
0
  0
VERTEX
  8
CCC-CC-CC
 10
66.2809
 20
192.801
 30
0.0
 40
0
 41
0
  0
VERTEX
  8
CCC-CC-CC
 10
67.1696
 20
189.939
 30
0.0
 40
0
 41
0
  0
VERTEX
  8
CCC-CC-CC
 10
67.4797
 20
187.635
 30
0.0
 40
0
 41
0
  0
VERTEX
  8
CCC-CC-CC
 10
67.4797
 20
186.866
 30
0.0
 40
0
 41
0
  0
VERTEX
  8
CCC-CC-CC
 10
67.4797
 20
186.098
 30
0.0
 40
0
 41
0
  0
VERTEX
  8
CCC-CC-CC
 10
67.1696
 20
183.794
 30
0.0
 40
0
 41
0
  0
VERTEX
  8
CCC-CC-CC
 10
66.2809
 20
180.932
 30
0.0
 40
0
 41
0
  0
VERTEX
  8
CCC-CC-CC
 10
64.8751
 20
178.342
 30
0.0
 40
0
 41
0
  0
VERTEX
  8
CCC-CC-CC
 10
63.0135
 20
176.084
 30
0.0
 40
0
 41
0
  0
VERTEX
  8
CCC-CC-CC
 10
60.7564
 20
174.222
 30
0.0
 40
0
 41
0
  0
VERTEX
  8
CCC-CC-CC
 10
58.1656
 20
172.817
 30
0.0
 40
0
 41
0
  0
VERTEX
  8
CCC-CC-CC
 10
55.3036
 20
171.928
 30
0.0
 40
0
 41
0
  0
VERTEX
  8
CCC-CC-CC
 10
52.9992
 20
171.618
 30
0.0
 40
0
 41
0
  0
VERTEX
  8
CCC-CC-CC
 10
52.2319
 20
171.618
 30
0.0
 40
0
 41
0
  0
VERTEX
  8
CCC-CC-CC
 10
51.4629
 20
171.618
 30
0.0
 40
0
 41
0
  0
VERTEX
  8
CCC-CC-CC
 10
49.1589
 20
171.928
 30
0.0
 40
0
 41
0
  0
VERTEX
  8
CCC-CC-CC
 10
46.2964
 20
172.817
 30
0.0
 40
0
 41
0
  0
VERTEX
  8
CCC-CC-CC
 10
43.706
 20
174.222
 30
0.0
 40
0
 41
0
  0
VERTEX
  8
CCC-CC-CC
 10
41.4486
 20
176.084
 30
0.0
 40
0
 41
0
  0
VERTEX
  8
CCC-CC-CC
 10
39.587
 20
178.342
 30
0.0
 40
0
 41
0
  0
VERTEX
  8
CCC-CC-CC
 10
38.1811
 20
180.932
 30
0.0
 40
0
 41
0
  0
VERTEX
  8
CCC-CC-CC
 10
37.2925
 20
183.794
 30
0.0
 40
0
 41
0
  0
VERTEX
  8
CCC-CC-CC
 10
36.9838
 20
186.098
 30
0.0
 40
0
 41
0
  0
VERTEX
  8
CCC-CC-CC
 10
36.9838
 20
186.866
 30
0.0
 40
0
 41
0
  0
VERTEX
  8
CCC-CC-CC
 10
36.9838
 20
187.635
 30
0.0
 40
0
 41
0
  0
VERTEX
  8
CCC-CC-CC
 10
37.2925
 20
189.939
 30
0.0
 40
0
 41
0
  0
VERTEX
  8
CCC-CC-CC
 10
38.1811
 20
192.801
 30
0.0
 40
0
 41
0
  0
VERTEX
  8
CCC-CC-CC
 10
39.587
 20
195.392
 30
0.0
 40
0
 41
0
  0
VERTEX
  8
CCC-CC-CC
 10
41.4486
 20
197.649
 30
0.0
 40
0
 41
0
  0
VERTEX
  8
CCC-CC-CC
 10
43.706
 20
199.511
 30
0.0
 40
0
 41
0
  0
VERTEX
  8
CCC-CC-CC
 10
46.2964
 20
200.916
 30
0.0
 40
0
 41
0
  0
VERTEX
  8
CCC-CC-CC
 10
49.1589
 20
201.805
 30
0.0
 40
0
 41
0
  0
VERTEX
  8
CCC-CC-CC
 10
51.4629
 20
202.114
 30
0.0
 40
0
 41
0
  0
VERTEX
  8
CCC-CC-CC
 10
52.2319
 20
202.114
 30
0.0
 40
0
 41
0
  0
SEQEND
 8
0
  0
POLYLINE
  8
CCC-CC-CC
 66
     1
 10
0
 20
0
 30
0.0
 70
     1
 40
0
 41
0
  0
VERTEX
  8
CCC-CC-CC
 10
52.2319
 20
201.91
 30
0.0
 40
0
 41
0
  0
VERTEX
  8
CCC-CC-CC
 10
52.9897
 20
201.91
 30
0.0
 40
0
 41
0
  0
VERTEX
  8
CCC-CC-CC
 10
55.2633
 20
201.605
 30
0.0
 40
0
 41
0
  0
VERTEX
  8
CCC-CC-CC
 10
58.087
 20
200.729
 30
0.0
 40
0
 41
0
  0
VERTEX
  8
CCC-CC-CC
 10
60.6432
 20
199.342
 30
0.0
 40
0
 41
0
  0
VERTEX
  8
CCC-CC-CC
 10
62.8689
 20
197.504
 30
0.0
 40
0
 41
0
  0
VERTEX
  8
CCC-CC-CC
 10
64.7058
 20
195.278
 30
0.0
 40
0
 41
0
  0
VERTEX
  8
CCC-CC-CC
 10
66.0936
 20
192.723
 30
0.0
 40
0
 41
0
  0
VERTEX
  8
CCC-CC-CC
 10
66.9699
 20
189.899
 30
0.0
 40
0
 41
0
  0
VERTEX
  8
CCC-CC-CC
 10
67.2758
 20
187.626
 30
0.0
 40
0
 41
0
  0
VERTEX
  8
CCC-CC-CC
 10
67.2758
 20
186.866
 30
0.0
 40
0
 41
0
  0
VERTEX
  8
CCC-CC-CC
 10
67.2758
 20
186.108
 30
0.0
 40
0
 41
0
  0
VERTEX
  8
CCC-CC-CC
 10
66.9699
 20
183.834
 30
0.0
 40
0
 41
0
  0
VERTEX
  8
CCC-CC-CC
 10
66.0936
 20
181.011
 30
0.0
 40
0
 41
0
  0
VERTEX
  8
CCC-CC-CC
 10
64.7058
 20
178.454
 30
0.0
 40
0
 41
0
  0
VERTEX
  8
CCC-CC-CC
 10
62.8689
 20
176.229
 30
0.0
 40
0
 41
0
  0
VERTEX
  8
CCC-CC-CC
 10
60.6432
 20
174.392
 30
0.0
 40
0
 41
0
  0
VERTEX
  8
CCC-CC-CC
 10
58.087
 20
173.004
 30
0.0
 40
0
 41
0
  0
VERTEX
  8
CCC-CC-CC
 10
55.2633
 20
172.128
 30
0.0
 40
0
 41
0
  0
VERTEX
  8
CCC-CC-CC
 10
52.9897
 20
171.822
 30
0.0
 40
0
 41
0
  0
VERTEX
  8
CCC-CC-CC
 10
52.2319
 20
171.822
 30
0.0
 40
0
 41
0
  0
VERTEX
  8
CCC-CC-CC
 10
51.4724
 20
171.822
 30
0.0
 40
0
 41
0
  0
VERTEX
  8
CCC-CC-CC
 10
49.1987
 20
172.128
 30
0.0
 40
0
 41
0
  0
VERTEX
  8
CCC-CC-CC
 10
46.3751
 20
173.004
 30
0.0
 40
0
 41
0
  0
VERTEX
  8
CCC-CC-CC
 10
43.8203
 20
174.392
 30
0.0
 40
0
 41
0
  0
VERTEX
  8
CCC-CC-CC
 10
41.5932
 20
176.229
 30
0.0
 40
0
 41
0
  0
VERTEX
  8
CCC-CC-CC
 10
39.7563
 20
178.454
 30
0.0
 40
0
 41
0
  0
VERTEX
  8
CCC-CC-CC
 10
38.3688
 20
181.011
 30
0.0
 40
0
 41
0
  0
VERTEX
  8
CCC-CC-CC
 10
37.4922
 20
183.834
 30
0.0
 40
0
 41
0
  0
VERTEX
  8
CCC-CC-CC
 10
37.1877
 20
186.108
 30
0.0
 40
0
 41
0
  0
VERTEX
  8
CCC-CC-CC
 10
37.1877
 20
186.866
 30
0.0
 40
0
 41
0
  0
VERTEX
  8
CCC-CC-CC
 10
37.1877
 20
187.626
 30
0.0
 40
0
 41
0
  0
VERTEX
  8
CCC-CC-CC
 10
37.4922
 20
189.899
 30
0.0
 40
0
 41
0
  0
VERTEX
  8
CCC-CC-CC
 10
38.3688
 20
192.723
 30
0.0
 40
0
 41
0
  0
VERTEX
  8
CCC-CC-CC
 10
39.7563
 20
195.278
 30
0.0
 40
0
 41
0
  0
VERTEX
  8
CCC-CC-CC
 10
41.5932
 20
197.504
 30
0.0
 40
0
 41
0
  0
VERTEX
  8
CCC-CC-CC
 10
43.8203
 20
199.342
 30
0.0
 40
0
 41
0
  0
VERTEX
  8
CCC-CC-CC
 10
46.3751
 20
200.729
 30
0.0
 40
0
 41
0
  0
VERTEX
  8
CCC-CC-CC
 10
49.1987
 20
201.605
 30
0.0
 40
0
 41
0
  0
VERTEX
  8
CCC-CC-CC
 10
51.4724
 20
201.91
 30
0.0
 40
0
 41
0
  0
VERTEX
  8
CCC-CC-CC
 10
52.2319
 20
201.91
 30
0.0
 40
0
 41
0
  0
SEQEND
 8
0
  0
POLYLINE
  8
CCC-CC-CC
 66
     1
 10
0
 20
0
 30
0.0
 70
     1
 40
0
 41
0
  0
VERTEX
  8
CCC-CC-CC
 10
82.7278
 20
202.114
 30
0.0
 40
0
 41
0
  0
VERTEX
  8
CCC-CC-CC
 10
83.4954
 20
202.114
 30
0.0
 40
0
 41
0
  0
VERTEX
  8
CCC-CC-CC
 10
85.7994
 20
201.805
 30
0.0
 40
0
 41
0
  0
VERTEX
  8
CCC-CC-CC
 10
88.6615
 20
200.916
 30
0.0
 40
0
 41
0
  0
VERTEX
  8
CCC-CC-CC
 10
91.2523
 20
199.511
 30
0.0
 40
0
 41
0
  0
VERTEX
  8
CCC-CC-CC
 10
93.5083
 20
197.649
 30
0.0
 40
0
 41
0
  0
VERTEX
  8
CCC-CC-CC
 10
95.3699
 20
195.392
 30
0.0
 40
0
 41
0
  0
VERTEX
  8
CCC-CC-CC
 10
96.7754
 20
192.801
 30
0.0
 40
0
 41
0
  0
VERTEX
  8
CCC-CC-CC
 10
97.6644
 20
189.939
 30
0.0
 40
0
 41
0
  0
VERTEX
  8
CCC-CC-CC
 10
97.9745
 20
187.635
 30
0.0
 40
0
 41
0
  0
VERTEX
  8
CCC-CC-CC
 10
97.9745
 20
186.866
 30
0.0
 40
0
 41
0
  0
VERTEX
  8
CCC-CC-CC
 10
97.9745
 20
186.098
 30
0.0
 40
0
 41
0
  0
VERTEX
  8
CCC-CC-CC
 10
97.6644
 20
183.794
 30
0.0
 40
0
 41
0
  0
VERTEX
  8
CCC-CC-CC
 10
96.7754
 20
180.932
 30
0.0
 40
0
 41
0
  0
VERTEX
  8
CCC-CC-CC
 10
95.3699
 20
178.342
 30
0.0
 40
0
 41
0
  0
VERTEX
  8
CCC-CC-CC
 10
93.5083
 20
176.084
 30
0.0
 40
0
 41
0
  0
VERTEX
  8
CCC-CC-CC
 10
91.2523
 20
174.222
 30
0.0
 40
0
 41
0
  0
VERTEX
  8
CCC-CC-CC
 10
88.6615
 20
172.817
 30
0.0
 40
0
 41
0
  0
VERTEX
  8
CCC-CC-CC
 10
85.7994
 20
171.928
 30
0.0
 40
0
 41
0
  0
VERTEX
  8
CCC-CC-CC
 10
83.4954
 20
171.618
 30
0.0
 40
0
 41
0
  0
VERTEX
  8
CCC-CC-CC
 10
82.7278
 20
171.618
 30
0.0
 40
0
 41
0
  0
VERTEX
  8
CCC-CC-CC
 10
81.9587
 20
171.618
 30
0.0
 40
0
 41
0
  0
VERTEX
  8
CCC-CC-CC
 10
79.6548
 20
171.928
 30
0.0
 40
0
 41
0
  0
VERTEX
  8
CCC-CC-CC
 10
76.7927
 20
172.817
 30
0.0
 40
0
 41
0
  0
VERTEX
  8
CCC-CC-CC
 10
74.2019
 20
174.222
 30
0.0
 40
0
 41
0
  0
VERTEX
  8
CCC-CC-CC
 10
71.9448
 20
176.084
 30
0.0
 40
0
 41
0
  0
VERTEX
  8
CCC-CC-CC
 10
70.0828
 20
178.342
 30
0.0
 40
0
 41
0
  0
VERTEX
  8
CCC-CC-CC
 10
68.6774
 20
180.932
 30
0.0
 40
0
 41
0
  0
VERTEX
  8
CCC-CC-CC
 10
67.7884
 20
183.794
 30
0.0
 40
0
 41
0
  0
VERTEX
  8
CCC-CC-CC
 10
67.4797
 20
186.098
 30
0.0
 40
0
 41
0
  0
VERTEX
  8
CCC-CC-CC
 10
67.4797
 20
186.866
 30
0.0
 40
0
 41
0
  0
VERTEX
  8
CCC-CC-CC
 10
67.4797
 20
187.635
 30
0.0
 40
0
 41
0
  0
VERTEX
  8
CCC-CC-CC
 10
67.7884
 20
189.939
 30
0.0
 40
0
 41
0
  0
VERTEX
  8
CCC-CC-CC
 10
68.6774
 20
192.801
 30
0.0
 40
0
 41
0
  0
VERTEX
  8
CCC-CC-CC
 10
70.0828
 20
195.392
 30
0.0
 40
0
 41
0
  0
VERTEX
  8
CCC-CC-CC
 10
71.9448
 20
197.649
 30
0.0
 40
0
 41
0
  0
VERTEX
  8
CCC-CC-CC
 10
74.2019
 20
199.511
 30
0.0
 40
0
 41
0
  0
VERTEX
  8
CCC-CC-CC
 10
76.7927
 20
200.916
 30
0.0
 40
0
 41
0
  0
VERTEX
  8
CCC-CC-CC
 10
79.6548
 20
201.805
 30
0.0
 40
0
 41
0
  0
VERTEX
  8
CCC-CC-CC
 10
81.9587
 20
202.114
 30
0.0
 40
0
 41
0
  0
VERTEX
  8
CCC-CC-CC
 10
82.7278
 20
202.114
 30
0.0
 40
0
 41
0
  0
SEQEND
 8
0
  0
POLYLINE
  8
CCC-CC-CC
 66
     1
 10
0
 20
0
 30
0.0
 70
     1
 40
0
 41
0
  0
VERTEX
  8
CCC-CC-CC
 10
82.7278
 20
201.91
 30
0.0
 40
0
 41
0
  0
VERTEX
  8
CCC-CC-CC
 10
83.4856
 20
201.91
 30
0.0
 40
0
 41
0
  0
VERTEX
  8
CCC-CC-CC
 10
85.7596
 20
201.605
 30
0.0
 40
0
 41
0
  0
VERTEX
  8
CCC-CC-CC
 10
88.5832
 20
200.729
 30
0.0
 40
0
 41
0
  0
VERTEX
  8
CCC-CC-CC
 10
91.138
 20
199.342
 30
0.0
 40
0
 41
0
  0
VERTEX
  8
CCC-CC-CC
 10
93.3648
 20
197.504
 30
0.0
 40
0
 41
0
  0
VERTEX
  8
CCC-CC-CC
 10
95.2017
 20
195.278
 30
0.0
 40
0
 41
0
  0
VERTEX
  8
CCC-CC-CC
 10
96.5895
 20
192.723
 30
0.0
 40
0
 41
0
  0
VERTEX
  8
CCC-CC-CC
 10
97.4658
 20
189.899
 30
0.0
 40
0
 41
0
  0
VERTEX
  8
CCC-CC-CC
 10
97.7717
 20
187.626
 30
0.0
 40
0
 41
0
  0
VERTEX
  8
CCC-CC-CC
 10
97.7717
 20
186.866
 30
0.0
 40
0
 41
0
  0
VERTEX
  8
CCC-CC-CC
 10
97.7717
 20
186.108
 30
0.0
 40
0
 41
0
  0
VERTEX
  8
CCC-CC-CC
 10
97.4658
 20
183.834
 30
0.0
 40
0
 41
0
  0
VERTEX
  8
CCC-CC-CC
 10
96.5895
 20
181.011
 30
0.0
 40
0
 41
0
  0
VERTEX
  8
CCC-CC-CC
 10
95.2017
 20
178.454
 30
0.0
 40
0
 41
0
  0
VERTEX
  8
CCC-CC-CC
 10
93.3648
 20
176.229
 30
0.0
 40
0
 41
0
  0
VERTEX
  8
CCC-CC-CC
 10
91.138
 20
174.392
 30
0.0
 40
0
 41
0
  0
VERTEX
  8
CCC-CC-CC
 10
88.5832
 20
173.004
 30
0.0
 40
0
 41
0
  0
VERTEX
  8
CCC-CC-CC
 10
85.7596
 20
172.128
 30
0.0
 40
0
 41
0
  0
VERTEX
  8
CCC-CC-CC
 10
83.4856
 20
171.822
 30
0.0
 40
0
 41
0
  0
VERTEX
  8
CCC-CC-CC
 10
82.7278
 20
171.822
 30
0.0
 40
0
 41
0
  0
VERTEX
  8
CCC-CC-CC
 10
81.9686
 20
171.822
 30
0.0
 40
0
 41
0
  0
VERTEX
  8
CCC-CC-CC
 10
79.6946
 20
172.128
 30
0.0
 40
0
 41
0
  0
VERTEX
  8
CCC-CC-CC
 10
76.871
 20
173.004
 30
0.0
 40
0
 41
0
  0
VERTEX
  8
CCC-CC-CC
 10
74.3148
 20
174.392
 30
0.0
 40
0
 41
0
  0
VERTEX
  8
CCC-CC-CC
 10
72.088
 20
176.229
 30
0.0
 40
0
 41
0
  0
VERTEX
  8
CCC-CC-CC
 10
70.2511
 20
178.454
 30
0.0
 40
0
 41
0
  0
VERTEX
  8
CCC-CC-CC
 10
68.8633
 20
181.011
 30
0.0
 40
0
 41
0
  0
VERTEX
  8
CCC-CC-CC
 10
67.987
 20
183.834
 30
0.0
 40
0
 41
0
  0
VERTEX
  8
CCC-CC-CC
 10
67.6822
 20
186.108
 30
0.0
 40
0
 41
0
  0
VERTEX
  8
CCC-CC-CC
 10
67.6822
 20
186.866
 30
0.0
 40
0
 41
0
  0
VERTEX
  8
CCC-CC-CC
 10
67.6822
 20
187.626
 30
0.0
 40
0
 41
0
  0
VERTEX
  8
CCC-CC-CC
 10
67.987
 20
189.899
 30
0.0
 40
0
 41
0
  0
VERTEX
  8
CCC-CC-CC
 10
68.8633
 20
192.723
 30
0.0
 40
0
 41
0
  0
VERTEX
  8
CCC-CC-CC
 10
70.2511
 20
195.278
 30
0.0
 40
0
 41
0
  0
VERTEX
  8
CCC-CC-CC
 10
72.088
 20
197.504
 30
0.0
 40
0
 41
0
  0
VERTEX
  8
CCC-CC-CC
 10
74.3148
 20
199.342
 30
0.0
 40
0
 41
0
  0
VERTEX
  8
CCC-CC-CC
 10
76.871
 20
200.729
 30
0.0
 40
0
 41
0
  0
VERTEX
  8
CCC-CC-CC
 10
79.6946
 20
201.605
 30
0.0
 40
0
 41
0
  0
VERTEX
  8
CCC-CC-CC
 10
81.9686
 20
201.91
 30
0.0
 40
0
 41
0
  0
VERTEX
  8
CCC-CC-CC
 10
82.7278
 20
201.91
 30
0.0
 40
0
 41
0
  0
SEQEND
 8
0
  0
POLYLINE
  8
CCC-CC-CC
 66
     1
 10
0
 20
0
 30
0.0
 70
     1
 40
0
 41
0
  0
VERTEX
  8
CCC-CC-CC
 10
113.222
 20
202.114
 30
0.0
 40
0
 41
0
  0
VERTEX
  8
CCC-CC-CC
 10
113.99
 20
202.114
 30
0.0
 40
0
 41
0
  0
VERTEX
  8
CCC-CC-CC
 10
116.294
 20
201.805
 30
0.0
 40
0
 41
0
  0
VERTEX
  8
CCC-CC-CC
 10
119.156
 20
200.916
 30
0.0
 40
0
 41
0
  0
VERTEX
  8
CCC-CC-CC
 10
121.747
 20
199.511
 30
0.0
 40
0
 41
0
  0
VERTEX
  8
CCC-CC-CC
 10
124.004
 20
197.649
 30
0.0
 40
0
 41
0
  0
VERTEX
  8
CCC-CC-CC
 10
125.866
 20
195.392
 30
0.0
 40
0
 41
0
  0
VERTEX
  8
CCC-CC-CC
 10
127.272
 20
192.801
 30
0.0
 40
0
 41
0
  0
VERTEX
  8
CCC-CC-CC
 10
128.16
 20
189.939
 30
0.0
 40
0
 41
0
  0
VERTEX
  8
CCC-CC-CC
 10
128.47
 20
187.635
 30
0.0
 40
0
 41
0
  0
VERTEX
  8
CCC-CC-CC
 10
128.47
 20
186.866
 30
0.0
 40
0
 41
0
  0
VERTEX
  8
CCC-CC-CC
 10
128.47
 20
186.098
 30
0.0
 40
0
 41
0
  0
VERTEX
  8
CCC-CC-CC
 10
128.16
 20
183.794
 30
0.0
 40
0
 41
0
  0
VERTEX
  8
CCC-CC-CC
 10
127.272
 20
180.932
 30
0.0
 40
0
 41
0
  0
VERTEX
  8
CCC-CC-CC
 10
125.866
 20
178.342
 30
0.0
 40
0
 41
0
  0
VERTEX
  8
CCC-CC-CC
 10
124.004
 20
176.084
 30
0.0
 40
0
 41
0
  0
VERTEX
  8
CCC-CC-CC
 10
121.747
 20
174.222
 30
0.0
 40
0
 41
0
  0
VERTEX
  8
CCC-CC-CC
 10
119.156
 20
172.817
 30
0.0
 40
0
 41
0
  0
VERTEX
  8
CCC-CC-CC
 10
116.294
 20
171.928
 30
0.0
 40
0
 41
0
  0
VERTEX
  8
CCC-CC-CC
 10
113.99
 20
171.618
 30
0.0
 40
0
 41
0
  0
VERTEX
  8
CCC-CC-CC
 10
113.222
 20
171.618
 30
0.0
 40
0
 41
0
  0
VERTEX
  8
CCC-CC-CC
 10
112.454
 20
171.618
 30
0.0
 40
0
 41
0
  0
VERTEX
  8
CCC-CC-CC
 10
110.149
 20
171.928
 30
0.0
 40
0
 41
0
  0
VERTEX
  8
CCC-CC-CC
 10
107.287
 20
172.817
 30
0.0
 40
0
 41
0
  0
VERTEX
  8
CCC-CC-CC
 10
104.696
 20
174.222
 30
0.0
 40
0
 41
0
  0
VERTEX
  8
CCC-CC-CC
 10
102.439
 20
176.084
 30
0.0
 40
0
 41
0
  0
VERTEX
  8
CCC-CC-CC
 10
100.578
 20
178.342
 30
0.0
 40
0
 41
0
  0
VERTEX
  8
CCC-CC-CC
 10
99.1718
 20
180.932
 30
0.0
 40
0
 41
0
  0
VERTEX
  8
CCC-CC-CC
 10
98.2832
 20
183.794
 30
0.0
 40
0
 41
0
  0
VERTEX
  8
CCC-CC-CC
 10
97.9745
 20
186.098
 30
0.0
 40
0
 41
0
  0
VERTEX
  8
CCC-CC-CC
 10
97.9745
 20
186.866
 30
0.0
 40
0
 41
0
  0
VERTEX
  8
CCC-CC-CC
 10
97.9745
 20
187.635
 30
0.0
 40
0
 41
0
  0
VERTEX
  8
CCC-CC-CC
 10
98.2832
 20
189.939
 30
0.0
 40
0
 41
0
  0
VERTEX
  8
CCC-CC-CC
 10
99.1718
 20
192.801
 30
0.0
 40
0
 41
0
  0
VERTEX
  8
CCC-CC-CC
 10
100.578
 20
195.392
 30
0.0
 40
0
 41
0
  0
VERTEX
  8
CCC-CC-CC
 10
102.439
 20
197.649
 30
0.0
 40
0
 41
0
  0
VERTEX
  8
CCC-CC-CC
 10
104.696
 20
199.511
 30
0.0
 40
0
 41
0
  0
VERTEX
  8
CCC-CC-CC
 10
107.287
 20
200.916
 30
0.0
 40
0
 41
0
  0
VERTEX
  8
CCC-CC-CC
 10
110.149
 20
201.805
 30
0.0
 40
0
 41
0
  0
VERTEX
  8
CCC-CC-CC
 10
112.454
 20
202.114
 30
0.0
 40
0
 41
0
  0
VERTEX
  8
CCC-CC-CC
 10
113.222
 20
202.114
 30
0.0
 40
0
 41
0
  0
SEQEND
 8
0
  0
POLYLINE
  8
CCC-CC-CC
 66
     1
 10
0
 20
0
 30
0.0
 70
     1
 40
0
 41
0
  0
VERTEX
  8
CCC-CC-CC
 10
113.222
 20
201.91
 30
0.0
 40
0
 41
0
  0
VERTEX
  8
CCC-CC-CC
 10
113.98
 20
201.91
 30
0.0
 40
0
 41
0
  0
VERTEX
  8
CCC-CC-CC
 10
116.254
 20
201.605
 30
0.0
 40
0
 41
0
  0
VERTEX
  8
CCC-CC-CC
 10
119.078
 20
200.729
 30
0.0
 40
0
 41
0
  0
VERTEX
  8
CCC-CC-CC
 10
121.634
 20
199.342
 30
0.0
 40
0
 41
0
  0
VERTEX
  8
CCC-CC-CC
 10
123.86
 20
197.504
 30
0.0
 40
0
 41
0
  0
VERTEX
  8
CCC-CC-CC
 10
125.696
 20
195.278
 30
0.0
 40
0
 41
0
  0
VERTEX
  8
CCC-CC-CC
 10
127.084
 20
192.723
 30
0.0
 40
0
 41
0
  0
VERTEX
  8
CCC-CC-CC
 10
127.961
 20
189.899
 30
0.0
 40
0
 41
0
  0
VERTEX
  8
CCC-CC-CC
 10
128.266
 20
187.626
 30
0.0
 40
0
 41
0
  0
VERTEX
  8
CCC-CC-CC
 10
128.266
 20
186.866
 30
0.0
 40
0
 41
0
  0
VERTEX
  8
CCC-CC-CC
 10
128.266
 20
186.108
 30
0.0
 40
0
 41
0
  0
VERTEX
  8
CCC-CC-CC
 10
127.961
 20
183.834
 30
0.0
 40
0
 41
0
  0
VERTEX
  8
CCC-CC-CC
 10
127.084
 20
181.011
 30
0.0
 40
0
 41
0
  0
VERTEX
  8
CCC-CC-CC
 10
125.696
 20
178.454
 30
0.0
 40
0
 41
0
  0
VERTEX
  8
CCC-CC-CC
 10
123.86
 20
176.229
 30
0.0
 40
0
 41
0
  0
VERTEX
  8
CCC-CC-CC
 10
121.634
 20
174.392
 30
0.0
 40
0
 41
0
  0
VERTEX
  8
CCC-CC-CC
 10
119.078
 20
173.004
 30
0.0
 40
0
 41
0
  0
VERTEX
  8
CCC-CC-CC
 10
116.254
 20
172.128
 30
0.0
 40
0
 41
0
  0
VERTEX
  8
CCC-CC-CC
 10
113.98
 20
171.822
 30
0.0
 40
0
 41
0
  0
VERTEX
  8
CCC-CC-CC
 10
113.222
 20
171.822
 30
0.0
 40
0
 41
0
  0
VERTEX
  8
CCC-CC-CC
 10
112.463
 20
171.822
 30
0.0
 40
0
 41
0
  0
VERTEX
  8
CCC-CC-CC
 10
110.189
 20
172.128
 30
0.0
 40
0
 41
0
  0
VERTEX
  8
CCC-CC-CC
 10
107.366
 20
173.004
 30
0.0
 40
0
 41
0
  0
VERTEX
  8
CCC-CC-CC
 10
104.811
 20
174.392
 30
0.0
 40
0
 41
0
  0
VERTEX
  8
CCC-CC-CC
 10
102.584
 20
176.229
 30
0.0
 40
0
 41
0
  0
VERTEX
  8
CCC-CC-CC
 10
100.747
 20
178.454
 30
0.0
 40
0
 41
0
  0
VERTEX
  8
CCC-CC-CC
 10
99.3592
 20
181.011
 30
0.0
 40
0
 41
0
  0
VERTEX
  8
CCC-CC-CC
 10
98.4829
 20
183.834
 30
0.0
 40
0
 41
0
  0
VERTEX
  8
CCC-CC-CC
 10
98.1784
 20
186.108
 30
0.0
 40
0
 41
0
  0
VERTEX
  8
CCC-CC-CC
 10
98.1784
 20
186.866
 30
0.0
 40
0
 41
0
  0
VERTEX
  8
CCC-CC-CC
 10
98.1784
 20
187.626
 30
0.0
 40
0
 41
0
  0
VERTEX
  8
CCC-CC-CC
 10
98.4829
 20
189.899
 30
0.0
 40
0
 41
0
  0
VERTEX
  8
CCC-CC-CC
 10
99.3592
 20
192.723
 30
0.0
 40
0
 41
0
  0
VERTEX
  8
CCC-CC-CC
 10
100.747
 20
195.278
 30
0.0
 40
0
 41
0
  0
VERTEX
  8
CCC-CC-CC
 10
102.584
 20
197.504
 30
0.0
 40
0
 41
0
  0
VERTEX
  8
CCC-CC-CC
 10
104.811
 20
199.342
 30
0.0
 40
0
 41
0
  0
VERTEX
  8
CCC-CC-CC
 10
107.366
 20
200.729
 30
0.0
 40
0
 41
0
  0
VERTEX
  8
CCC-CC-CC
 10
110.189
 20
201.605
 30
0.0
 40
0
 41
0
  0
VERTEX
  8
CCC-CC-CC
 10
112.463
 20
201.91
 30
0.0
 40
0
 41
0
  0
VERTEX
  8
CCC-CC-CC
 10
113.222
 20
201.91
 30
0.0
 40
0
 41
0
  0
SEQEND
 8
0
  0
POLYLINE
  8
CCC-CC-CC
 66
     1
 10
0
 20
0
 30
0.0
 70
     1
 40
0
 41
0
  0
VERTEX
  8
CCC-CC-CC
 10
143.718
 20
202.114
 30
0.0
 40
0
 41
0
  0
VERTEX
  8
CCC-CC-CC
 10
144.486
 20
202.114
 30
0.0
 40
0
 41
0
  0
VERTEX
  8
CCC-CC-CC
 10
146.79
 20
201.805
 30
0.0
 40
0
 41
0
  0
VERTEX
  8
CCC-CC-CC
 10
149.652
 20
200.916
 30
0.0
 40
0
 41
0
  0
VERTEX
  8
CCC-CC-CC
 10
152.243
 20
199.511
 30
0.0
 40
0
 41
0
  0
VERTEX
  8
CCC-CC-CC
 10
154.499
 20
197.649
 30
0.0
 40
0
 41
0
  0
VERTEX
  8
CCC-CC-CC
 10
156.361
 20
195.392
 30
0.0
 40
0
 41
0
  0
VERTEX
  8
CCC-CC-CC
 10
157.766
 20
192.801
 30
0.0
 40
0
 41
0
  0
VERTEX
  8
CCC-CC-CC
 10
158.655
 20
189.939
 30
0.0
 40
0
 41
0
  0
VERTEX
  8
CCC-CC-CC
 10
158.965
 20
187.635
 30
0.0
 40
0
 41
0
  0
VERTEX
  8
CCC-CC-CC
 10
158.965
 20
186.866
 30
0.0
 40
0
 41
0
  0
VERTEX
  8
CCC-CC-CC
 10
158.965
 20
186.098
 30
0.0
 40
0
 41
0
  0
VERTEX
  8
CCC-CC-CC
 10
158.655
 20
183.794
 30
0.0
 40
0
 41
0
  0
VERTEX
  8
CCC-CC-CC
 10
157.766
 20
180.932
 30
0.0
 40
0
 41
0
  0
VERTEX
  8
CCC-CC-CC
 10
156.361
 20
178.342
 30
0.0
 40
0
 41
0
  0
VERTEX
  8
CCC-CC-CC
 10
154.499
 20
176.084
 30
0.0
 40
0
 41
0
  0
VERTEX
  8
CCC-CC-CC
 10
152.243
 20
174.222
 30
0.0
 40
0
 41
0
  0
VERTEX
  8
CCC-CC-CC
 10
149.652
 20
172.817
 30
0.0
 40
0
 41
0
  0
VERTEX
  8
CCC-CC-CC
 10
146.79
 20
171.928
 30
0.0
 40
0
 41
0
  0
VERTEX
  8
CCC-CC-CC
 10
144.486
 20
171.618
 30
0.0
 40
0
 41
0
  0
VERTEX
  8
CCC-CC-CC
 10
143.718
 20
171.618
 30
0.0
 40
0
 41
0
  0
VERTEX
  8
CCC-CC-CC
 10
142.949
 20
171.618
 30
0.0
 40
0
 41
0
  0
VERTEX
  8
CCC-CC-CC
 10
140.645
 20
171.928
 30
0.0
 40
0
 41
0
  0
VERTEX
  8
CCC-CC-CC
 10
137.783
 20
172.817
 30
0.0
 40
0
 41
0
  0
VERTEX
  8
CCC-CC-CC
 10
135.193
 20
174.222
 30
0.0
 40
0
 41
0
  0
VERTEX
  8
CCC-CC-CC
 10
132.935
 20
176.084
 30
0.0
 40
0
 41
0
  0
VERTEX
  8
CCC-CC-CC
 10
131.074
 20
178.342
 30
0.0
 40
0
 41
0
  0
VERTEX
  8
CCC-CC-CC
 10
129.668
 20
180.932
 30
0.0
 40
0
 41
0
  0
VERTEX
  8
CCC-CC-CC
 10
128.779
 20
183.794
 30
0.0
 40
0
 41
0
  0
VERTEX
  8
CCC-CC-CC
 10
128.47
 20
186.098
 30
0.0
 40
0
 41
0
  0
VERTEX
  8
CCC-CC-CC
 10
128.47
 20
186.866
 30
0.0
 40
0
 41
0
  0
VERTEX
  8
CCC-CC-CC
 10
128.47
 20
187.635
 30
0.0
 40
0
 41
0
  0
VERTEX
  8
CCC-CC-CC
 10
128.779
 20
189.939
 30
0.0
 40
0
 41
0
  0
VERTEX
  8
CCC-CC-CC
 10
129.668
 20
192.801
 30
0.0
 40
0
 41
0
  0
VERTEX
  8
CCC-CC-CC
 10
131.074
 20
195.392
 30
0.0
 40
0
 41
0
  0
VERTEX
  8
CCC-CC-CC
 10
132.935
 20
197.649
 30
0.0
 40
0
 41
0
  0
VERTEX
  8
CCC-CC-CC
 10
135.193
 20
199.511
 30
0.0
 40
0
 41
0
  0
VERTEX
  8
CCC-CC-CC
 10
137.783
 20
200.916
 30
0.0
 40
0
 41
0
  0
VERTEX
  8
CCC-CC-CC
 10
140.645
 20
201.805
 30
0.0
 40
0
 41
0
  0
VERTEX
  8
CCC-CC-CC
 10
142.949
 20
202.114
 30
0.0
 40
0
 41
0
  0
VERTEX
  8
CCC-CC-CC
 10
143.718
 20
202.114
 30
0.0
 40
0
 41
0
  0
SEQEND
 8
0
  0
POLYLINE
  8
CCC-CC-CC
 66
     1
 10
0
 20
0
 30
0.0
 70
     1
 40
0
 41
0
  0
VERTEX
  8
CCC-CC-CC
 10
143.718
 20
201.91
 30
0.0
 40
0
 41
0
  0
VERTEX
  8
CCC-CC-CC
 10
144.476
 20
201.91
 30
0.0
 40
0
 41
0
  0
VERTEX
  8
CCC-CC-CC
 10
146.75
 20
201.605
 30
0.0
 40
0
 41
0
  0
VERTEX
  8
CCC-CC-CC
 10
149.574
 20
200.729
 30
0.0
 40
0
 41
0
  0
VERTEX
  8
CCC-CC-CC
 10
152.128
 20
199.342
 30
0.0
 40
0
 41
0
  0
VERTEX
  8
CCC-CC-CC
 10
154.355
 20
197.504
 30
0.0
 40
0
 41
0
  0
VERTEX
  8
CCC-CC-CC
 10
156.192
 20
195.278
 30
0.0
 40
0
 41
0
  0
VERTEX
  8
CCC-CC-CC
 10
157.58
 20
192.723
 30
0.0
 40
0
 41
0
  0
VERTEX
  8
CCC-CC-CC
 10
158.456
 20
189.899
 30
0.0
 40
0
 41
0
  0
VERTEX
  8
CCC-CC-CC
 10
158.762
 20
187.626
 30
0.0
 40
0
 41
0
  0
VERTEX
  8
CCC-CC-CC
 10
158.762
 20
186.866
 30
0.0
 40
0
 41
0
  0
VERTEX
  8
CCC-CC-CC
 10
158.762
 20
186.108
 30
0.0
 40
0
 41
0
  0
VERTEX
  8
CCC-CC-CC
 10
158.456
 20
183.834
 30
0.0
 40
0
 41
0
  0
VERTEX
  8
CCC-CC-CC
 10
157.58
 20
181.011
 30
0.0
 40
0
 41
0
  0
VERTEX
  8
CCC-CC-CC
 10
156.192
 20
178.454
 30
0.0
 40
0
 41
0
  0
VERTEX
  8
CCC-CC-CC
 10
154.355
 20
176.229
 30
0.0
 40
0
 41
0
  0
VERTEX
  8
CCC-CC-CC
 10
152.128
 20
174.392
 30
0.0
 40
0
 41
0
  0
VERTEX
  8
CCC-CC-CC
 10
149.574
 20
173.004
 30
0.0
 40
0
 41
0
  0
VERTEX
  8
CCC-CC-CC
 10
146.75
 20
172.128
 30
0.0
 40
0
 41
0
  0
VERTEX
  8
CCC-CC-CC
 10
144.476
 20
171.822
 30
0.0
 40
0
 41
0
  0
VERTEX
  8
CCC-CC-CC
 10
143.718
 20
171.822
 30
0.0
 40
0
 41
0
  0
VERTEX
  8
CCC-CC-CC
 10
142.959
 20
171.822
 30
0.0
 40
0
 41
0
  0
VERTEX
  8
CCC-CC-CC
 10
140.685
 20
172.128
 30
0.0
 40
0
 41
0
  0
VERTEX
  8
CCC-CC-CC
 10
137.862
 20
173.004
 30
0.0
 40
0
 41
0
  0
VERTEX
  8
CCC-CC-CC
 10
135.305
 20
174.392
 30
0.0
 40
0
 41
0
  0
VERTEX
  8
CCC-CC-CC
 10
133.078
 20
176.229
 30
0.0
 40
0
 41
0
  0
VERTEX
  8
CCC-CC-CC
 10
131.241
 20
178.454
 30
0.0
 40
0
 41
0
  0
VERTEX
  8
CCC-CC-CC
 10
129.854
 20
181.011
 30
0.0
 40
0
 41
0
  0
VERTEX
  8
CCC-CC-CC
 10
128.977
 20
183.834
 30
0.0
 40
0
 41
0
  0
VERTEX
  8
CCC-CC-CC
 10
128.673
 20
186.108
 30
0.0
 40
0
 41
0
  0
VERTEX
  8
CCC-CC-CC
 10
128.673
 20
186.866
 30
0.0
 40
0
 41
0
  0
VERTEX
  8
CCC-CC-CC
 10
128.673
 20
187.626
 30
0.0
 40
0
 41
0
  0
VERTEX
  8
CCC-CC-CC
 10
128.977
 20
189.899
 30
0.0
 40
0
 41
0
  0
VERTEX
  8
CCC-CC-CC
 10
129.854
 20
192.723
 30
0.0
 40
0
 41
0
  0
VERTEX
  8
CCC-CC-CC
 10
131.241
 20
195.278
 30
0.0
 40
0
 41
0
  0
VERTEX
  8
CCC-CC-CC
 10
133.078
 20
197.504
 30
0.0
 40
0
 41
0
  0
VERTEX
  8
CCC-CC-CC
 10
135.305
 20
199.342
 30
0.0
 40
0
 41
0
  0
VERTEX
  8
CCC-CC-CC
 10
137.862
 20
200.729
 30
0.0
 40
0
 41
0
  0
VERTEX
  8
CCC-CC-CC
 10
140.685
 20
201.605
 30
0.0
 40
0
 41
0
  0
VERTEX
  8
CCC-CC-CC
 10
142.959
 20
201.91
 30
0.0
 40
0
 41
0
  0
VERTEX
  8
CCC-CC-CC
 10
143.718
 20
201.91
 30
0.0
 40
0
 41
0
  0
SEQEND
 8
0
  0
POLYLINE
  8
CCC-CC-CC
 66
     1
 10
0
 20
0
 30
0.0
 70
     1
 40
0
 41
0
  0
VERTEX
  8
CCC-CC-CC
 10
52.2319
 20
171.618
 30
0.0
 40
0
 41
0
  0
VERTEX
  8
CCC-CC-CC
 10
52.9992
 20
171.618
 30
0.0
 40
0
 41
0
  0
VERTEX
  8
CCC-CC-CC
 10
55.3036
 20
171.31
 30
0.0
 40
0
 41
0
  0
VERTEX
  8
CCC-CC-CC
 10
58.1656
 20
170.421
 30
0.0
 40
0
 41
0
  0
VERTEX
  8
CCC-CC-CC
 10
60.7564
 20
169.015
 30
0.0
 40
0
 41
0
  0
VERTEX
  8
CCC-CC-CC
 10
63.0135
 20
167.153
 30
0.0
 40
0
 41
0
  0
VERTEX
  8
CCC-CC-CC
 10
64.8751
 20
164.896
 30
0.0
 40
0
 41
0
  0
VERTEX
  8
CCC-CC-CC
 10
66.2809
 20
162.305
 30
0.0
 40
0
 41
0
  0
VERTEX
  8
CCC-CC-CC
 10
67.1696
 20
159.443
 30
0.0
 40
0
 41
0
  0
VERTEX
  8
CCC-CC-CC
 10
67.4797
 20
157.139
 30
0.0
 40
0
 41
0
  0
VERTEX
  8
CCC-CC-CC
 10
67.4797
 20
156.37
 30
0.0
 40
0
 41
0
  0
VERTEX
  8
CCC-CC-CC
 10
67.4797
 20
155.603
 30
0.0
 40
0
 41
0
  0
VERTEX
  8
CCC-CC-CC
 10
67.1696
 20
153.299
 30
0.0
 40
0
 41
0
  0
VERTEX
  8
CCC-CC-CC
 10
66.2809
 20
150.436
 30
0.0
 40
0
 41
0
  0
VERTEX
  8
CCC-CC-CC
 10
64.8751
 20
147.846
 30
0.0
 40
0
 41
0
  0
VERTEX
  8
CCC-CC-CC
 10
63.0135
 20
145.59
 30
0.0
 40
0
 41
0
  0
VERTEX
  8
CCC-CC-CC
 10
60.7564
 20
143.728
 30
0.0
 40
0
 41
0
  0
VERTEX
  8
CCC-CC-CC
 10
58.1656
 20
142.323
 30
0.0
 40
0
 41
0
  0
VERTEX
  8
CCC-CC-CC
 10
55.3036
 20
141.434
 30
0.0
 40
0
 41
0
  0
VERTEX
  8
CCC-CC-CC
 10
52.9992
 20
141.123
 30
0.0
 40
0
 41
0
  0
VERTEX
  8
CCC-CC-CC
 10
52.2319
 20
141.123
 30
0.0
 40
0
 41
0
  0
VERTEX
  8
CCC-CC-CC
 10
51.4629
 20
141.123
 30
0.0
 40
0
 41
0
  0
VERTEX
  8
CCC-CC-CC
 10
49.1589
 20
141.434
 30
0.0
 40
0
 41
0
  0
VERTEX
  8
CCC-CC-CC
 10
46.2964
 20
142.323
 30
0.0
 40
0
 41
0
  0
VERTEX
  8
CCC-CC-CC
 10
43.706
 20
143.728
 30
0.0
 40
0
 41
0
  0
VERTEX
  8
CCC-CC-CC
 10
41.4486
 20
145.59
 30
0.0
 40
0
 41
0
  0
VERTEX
  8
CCC-CC-CC
 10
39.587
 20
147.846
 30
0.0
 40
0
 41
0
  0
VERTEX
  8
CCC-CC-CC
 10
38.1811
 20
150.436
 30
0.0
 40
0
 41
0
  0
VERTEX
  8
CCC-CC-CC
 10
37.2925
 20
153.299
 30
0.0
 40
0
 41
0
  0
VERTEX
  8
CCC-CC-CC
 10
36.9838
 20
155.603
 30
0.0
 40
0
 41
0
  0
VERTEX
  8
CCC-CC-CC
 10
36.9838
 20
156.37
 30
0.0
 40
0
 41
0
  0
VERTEX
  8
CCC-CC-CC
 10
36.9838
 20
157.139
 30
0.0
 40
0
 41
0
  0
VERTEX
  8
CCC-CC-CC
 10
37.2925
 20
159.443
 30
0.0
 40
0
 41
0
  0
VERTEX
  8
CCC-CC-CC
 10
38.1811
 20
162.305
 30
0.0
 40
0
 41
0
  0
VERTEX
  8
CCC-CC-CC
 10
39.587
 20
164.896
 30
0.0
 40
0
 41
0
  0
VERTEX
  8
CCC-CC-CC
 10
41.4486
 20
167.153
 30
0.0
 40
0
 41
0
  0
VERTEX
  8
CCC-CC-CC
 10
43.706
 20
169.015
 30
0.0
 40
0
 41
0
  0
VERTEX
  8
CCC-CC-CC
 10
46.2964
 20
170.421
 30
0.0
 40
0
 41
0
  0
VERTEX
  8
CCC-CC-CC
 10
49.1589
 20
171.31
 30
0.0
 40
0
 41
0
  0
VERTEX
  8
CCC-CC-CC
 10
51.4629
 20
171.618
 30
0.0
 40
0
 41
0
  0
VERTEX
  8
CCC-CC-CC
 10
52.2319
 20
171.618
 30
0.0
 40
0
 41
0
  0
SEQEND
 8
0
  0
POLYLINE
  8
CCC-CC-CC
 66
     1
 10
0
 20
0
 30
0.0
 70
     1
 40
0
 41
0
  0
VERTEX
  8
CCC-CC-CC
 10
52.2319
 20
171.414
 30
0.0
 40
0
 41
0
  0
VERTEX
  8
CCC-CC-CC
 10
52.9897
 20
171.414
 30
0.0
 40
0
 41
0
  0
VERTEX
  8
CCC-CC-CC
 10
55.2633
 20
171.11
 30
0.0
 40
0
 41
0
  0
VERTEX
  8
CCC-CC-CC
 10
58.087
 20
170.233
 30
0.0
 40
0
 41
0
  0
VERTEX
  8
CCC-CC-CC
 10
60.6432
 20
168.845
 30
0.0
 40
0
 41
0
  0
VERTEX
  8
CCC-CC-CC
 10
62.8689
 20
167.009
 30
0.0
 40
0
 41
0
  0
VERTEX
  8
CCC-CC-CC
 10
64.7058
 20
164.783
 30
0.0
 40
0
 41
0
  0
VERTEX
  8
CCC-CC-CC
 10
66.0936
 20
162.227
 30
0.0
 40
0
 41
0
  0
VERTEX
  8
CCC-CC-CC
 10
66.9699
 20
159.403
 30
0.0
 40
0
 41
0
  0
VERTEX
  8
CCC-CC-CC
 10
67.2758
 20
157.129
 30
0.0
 40
0
 41
0
  0
VERTEX
  8
CCC-CC-CC
 10
67.2758
 20
156.37
 30
0.0
 40
0
 41
0
  0
VERTEX
  8
CCC-CC-CC
 10
67.2758
 20
155.612
 30
0.0
 40
0
 41
0
  0
VERTEX
  8
CCC-CC-CC
 10
66.9699
 20
153.338
 30
0.0
 40
0
 41
0
  0
VERTEX
  8
CCC-CC-CC
 10
66.0936
 20
150.515
 30
0.0
 40
0
 41
0
  0
VERTEX
  8
CCC-CC-CC
 10
64.7058
 20
147.96
 30
0.0
 40
0
 41
0
  0
VERTEX
  8
CCC-CC-CC
 10
62.8689
 20
145.733
 30
0.0
 40
0
 41
0
  0
VERTEX
  8
CCC-CC-CC
 10
60.6432
 20
143.896
 30
0.0
 40
0
 41
0
  0
VERTEX
  8
CCC-CC-CC
 10
58.087
 20
142.508
 30
0.0
 40
0
 41
0
  0
VERTEX
  8
CCC-CC-CC
 10
55.2633
 20
141.632
 30
0.0
 40
0
 41
0
  0
VERTEX
  8
CCC-CC-CC
 10
52.9897
 20
141.326
 30
0.0
 40
0
 41
0
  0
VERTEX
  8
CCC-CC-CC
 10
52.2319
 20
141.326
 30
0.0
 40
0
 41
0
  0
VERTEX
  8
CCC-CC-CC
 10
51.4724
 20
141.326
 30
0.0
 40
0
 41
0
  0
VERTEX
  8
CCC-CC-CC
 10
49.1987
 20
141.632
 30
0.0
 40
0
 41
0
  0
VERTEX
  8
CCC-CC-CC
 10
46.3751
 20
142.508
 30
0.0
 40
0
 41
0
  0
VERTEX
  8
CCC-CC-CC
 10
43.8203
 20
143.896
 30
0.0
 40
0
 41
0
  0
VERTEX
  8
CCC-CC-CC
 10
41.5932
 20
145.733
 30
0.0
 40
0
 41
0
  0
VERTEX
  8
CCC-CC-CC
 10
39.7563
 20
147.96
 30
0.0
 40
0
 41
0
  0
VERTEX
  8
CCC-CC-CC
 10
38.3688
 20
150.515
 30
0.0
 40
0
 41
0
  0
VERTEX
  8
CCC-CC-CC
 10
37.4922
 20
153.338
 30
0.0
 40
0
 41
0
  0
VERTEX
  8
CCC-CC-CC
 10
37.1877
 20
155.612
 30
0.0
 40
0
 41
0
  0
VERTEX
  8
CCC-CC-CC
 10
37.1877
 20
156.37
 30
0.0
 40
0
 41
0
  0
VERTEX
  8
CCC-CC-CC
 10
37.1877
 20
157.129
 30
0.0
 40
0
 41
0
  0
VERTEX
  8
CCC-CC-CC
 10
37.4922
 20
159.403
 30
0.0
 40
0
 41
0
  0
VERTEX
  8
CCC-CC-CC
 10
38.3688
 20
162.227
 30
0.0
 40
0
 41
0
  0
VERTEX
  8
CCC-CC-CC
 10
39.7563
 20
164.783
 30
0.0
 40
0
 41
0
  0
VERTEX
  8
CCC-CC-CC
 10
41.5932
 20
167.009
 30
0.0
 40
0
 41
0
  0
VERTEX
  8
CCC-CC-CC
 10
43.8203
 20
168.845
 30
0.0
 40
0
 41
0
  0
VERTEX
  8
CCC-CC-CC
 10
46.3751
 20
170.233
 30
0.0
 40
0
 41
0
  0
VERTEX
  8
CCC-CC-CC
 10
49.1987
 20
171.11
 30
0.0
 40
0
 41
0
  0
VERTEX
  8
CCC-CC-CC
 10
51.4724
 20
171.414
 30
0.0
 40
0
 41
0
  0
VERTEX
  8
CCC-CC-CC
 10
52.2319
 20
171.414
 30
0.0
 40
0
 41
0
  0
SEQEND
 8
0
  0
POLYLINE
  8
CCC-CC-CC
 66
     1
 10
0
 20
0
 30
0.0
 70
     1
 40
0
 41
0
  0
VERTEX
  8
CCC-CC-CC
 10
82.7278
 20
171.618
 30
0.0
 40
0
 41
0
  0
VERTEX
  8
CCC-CC-CC
 10
83.4954
 20
171.618
 30
0.0
 40
0
 41
0
  0
VERTEX
  8
CCC-CC-CC
 10
85.7994
 20
171.31
 30
0.0
 40
0
 41
0
  0
VERTEX
  8
CCC-CC-CC
 10
88.6615
 20
170.421
 30
0.0
 40
0
 41
0
  0
VERTEX
  8
CCC-CC-CC
 10
91.2523
 20
169.015
 30
0.0
 40
0
 41
0
  0
VERTEX
  8
CCC-CC-CC
 10
93.5083
 20
167.153
 30
0.0
 40
0
 41
0
  0
VERTEX
  8
CCC-CC-CC
 10
95.3699
 20
164.896
 30
0.0
 40
0
 41
0
  0
VERTEX
  8
CCC-CC-CC
 10
96.7754
 20
162.305
 30
0.0
 40
0
 41
0
  0
VERTEX
  8
CCC-CC-CC
 10
97.6644
 20
159.443
 30
0.0
 40
0
 41
0
  0
VERTEX
  8
CCC-CC-CC
 10
97.9745
 20
157.139
 30
0.0
 40
0
 41
0
  0
VERTEX
  8
CCC-CC-CC
 10
97.9745
 20
156.37
 30
0.0
 40
0
 41
0
  0
VERTEX
  8
CCC-CC-CC
 10
97.9745
 20
155.603
 30
0.0
 40
0
 41
0
  0
VERTEX
  8
CCC-CC-CC
 10
97.6644
 20
153.299
 30
0.0
 40
0
 41
0
  0
VERTEX
  8
CCC-CC-CC
 10
96.7754
 20
150.436
 30
0.0
 40
0
 41
0
  0
VERTEX
  8
CCC-CC-CC
 10
95.3699
 20
147.846
 30
0.0
 40
0
 41
0
  0
VERTEX
  8
CCC-CC-CC
 10
93.5083
 20
145.59
 30
0.0
 40
0
 41
0
  0
VERTEX
  8
CCC-CC-CC
 10
91.2523
 20
143.728
 30
0.0
 40
0
 41
0
  0
VERTEX
  8
CCC-CC-CC
 10
88.6615
 20
142.323
 30
0.0
 40
0
 41
0
  0
VERTEX
  8
CCC-CC-CC
 10
85.7994
 20
141.434
 30
0.0
 40
0
 41
0
  0
VERTEX
  8
CCC-CC-CC
 10
83.4954
 20
141.123
 30
0.0
 40
0
 41
0
  0
VERTEX
  8
CCC-CC-CC
 10
82.7278
 20
141.123
 30
0.0
 40
0
 41
0
  0
VERTEX
  8
CCC-CC-CC
 10
81.9587
 20
141.123
 30
0.0
 40
0
 41
0
  0
VERTEX
  8
CCC-CC-CC
 10
79.6548
 20
141.434
 30
0.0
 40
0
 41
0
  0
VERTEX
  8
CCC-CC-CC
 10
76.7927
 20
142.323
 30
0.0
 40
0
 41
0
  0
VERTEX
  8
CCC-CC-CC
 10
74.2019
 20
143.728
 30
0.0
 40
0
 41
0
  0
VERTEX
  8
CCC-CC-CC
 10
71.9448
 20
145.59
 30
0.0
 40
0
 41
0
  0
VERTEX
  8
CCC-CC-CC
 10
70.0828
 20
147.846
 30
0.0
 40
0
 41
0
  0
VERTEX
  8
CCC-CC-CC
 10
68.6774
 20
150.436
 30
0.0
 40
0
 41
0
  0
VERTEX
  8
CCC-CC-CC
 10
67.7884
 20
153.299
 30
0.0
 40
0
 41
0
  0
VERTEX
  8
CCC-CC-CC
 10
67.4797
 20
155.603
 30
0.0
 40
0
 41
0
  0
VERTEX
  8
CCC-CC-CC
 10
67.4797
 20
156.37
 30
0.0
 40
0
 41
0
  0
VERTEX
  8
CCC-CC-CC
 10
67.4797
 20
157.139
 30
0.0
 40
0
 41
0
  0
VERTEX
  8
CCC-CC-CC
 10
67.7884
 20
159.443
 30
0.0
 40
0
 41
0
  0
VERTEX
  8
CCC-CC-CC
 10
68.6774
 20
162.305
 30
0.0
 40
0
 41
0
  0
VERTEX
  8
CCC-CC-CC
 10
70.0828
 20
164.896
 30
0.0
 40
0
 41
0
  0
VERTEX
  8
CCC-CC-CC
 10
71.9448
 20
167.153
 30
0.0
 40
0
 41
0
  0
VERTEX
  8
CCC-CC-CC
 10
74.2019
 20
169.015
 30
0.0
 40
0
 41
0
  0
VERTEX
  8
CCC-CC-CC
 10
76.7927
 20
170.421
 30
0.0
 40
0
 41
0
  0
VERTEX
  8
CCC-CC-CC
 10
79.6548
 20
171.31
 30
0.0
 40
0
 41
0
  0
VERTEX
  8
CCC-CC-CC
 10
81.9587
 20
171.618
 30
0.0
 40
0
 41
0
  0
VERTEX
  8
CCC-CC-CC
 10
82.7278
 20
171.618
 30
0.0
 40
0
 41
0
  0
SEQEND
 8
0
  0
POLYLINE
  8
CCC-CC-CC
 66
     1
 10
0
 20
0
 30
0.0
 70
     1
 40
0
 41
0
  0
VERTEX
  8
CCC-CC-CC
 10
82.7278
 20
171.414
 30
0.0
 40
0
 41
0
  0
VERTEX
  8
CCC-CC-CC
 10
83.4856
 20
171.414
 30
0.0
 40
0
 41
0
  0
VERTEX
  8
CCC-CC-CC
 10
85.7596
 20
171.11
 30
0.0
 40
0
 41
0
  0
VERTEX
  8
CCC-CC-CC
 10
88.5832
 20
170.233
 30
0.0
 40
0
 41
0
  0
VERTEX
  8
CCC-CC-CC
 10
91.138
 20
168.845
 30
0.0
 40
0
 41
0
  0
VERTEX
  8
CCC-CC-CC
 10
93.3648
 20
167.009
 30
0.0
 40
0
 41
0
  0
VERTEX
  8
CCC-CC-CC
 10
95.2017
 20
164.783
 30
0.0
 40
0
 41
0
  0
VERTEX
  8
CCC-CC-CC
 10
96.5895
 20
162.227
 30
0.0
 40
0
 41
0
  0
VERTEX
  8
CCC-CC-CC
 10
97.4658
 20
159.403
 30
0.0
 40
0
 41
0
  0
VERTEX
  8
CCC-CC-CC
 10
97.7717
 20
157.129
 30
0.0
 40
0
 41
0
  0
VERTEX
  8
CCC-CC-CC
 10
97.7717
 20
156.37
 30
0.0
 40
0
 41
0
  0
VERTEX
  8
CCC-CC-CC
 10
97.7717
 20
155.612
 30
0.0
 40
0
 41
0
  0
VERTEX
  8
CCC-CC-CC
 10
97.4658
 20
153.338
 30
0.0
 40
0
 41
0
  0
VERTEX
  8
CCC-CC-CC
 10
96.5895
 20
150.515
 30
0.0
 40
0
 41
0
  0
VERTEX
  8
CCC-CC-CC
 10
95.2017
 20
147.96
 30
0.0
 40
0
 41
0
  0
VERTEX
  8
CCC-CC-CC
 10
93.3648
 20
145.733
 30
0.0
 40
0
 41
0
  0
VERTEX
  8
CCC-CC-CC
 10
91.138
 20
143.896
 30
0.0
 40
0
 41
0
  0
VERTEX
  8
CCC-CC-CC
 10
88.5832
 20
142.508
 30
0.0
 40
0
 41
0
  0
VERTEX
  8
CCC-CC-CC
 10
85.7596
 20
141.632
 30
0.0
 40
0
 41
0
  0
VERTEX
  8
CCC-CC-CC
 10
83.4856
 20
141.326
 30
0.0
 40
0
 41
0
  0
VERTEX
  8
CCC-CC-CC
 10
82.7278
 20
141.326
 30
0.0
 40
0
 41
0
  0
VERTEX
  8
CCC-CC-CC
 10
81.9686
 20
141.326
 30
0.0
 40
0
 41
0
  0
VERTEX
  8
CCC-CC-CC
 10
79.6946
 20
141.632
 30
0.0
 40
0
 41
0
  0
VERTEX
  8
CCC-CC-CC
 10
76.871
 20
142.508
 30
0.0
 40
0
 41
0
  0
VERTEX
  8
CCC-CC-CC
 10
74.3148
 20
143.896
 30
0.0
 40
0
 41
0
  0
VERTEX
  8
CCC-CC-CC
 10
72.088
 20
145.733
 30
0.0
 40
0
 41
0
  0
VERTEX
  8
CCC-CC-CC
 10
70.2511
 20
147.96
 30
0.0
 40
0
 41
0
  0
VERTEX
  8
CCC-CC-CC
 10
68.8633
 20
150.515
 30
0.0
 40
0
 41
0
  0
VERTEX
  8
CCC-CC-CC
 10
67.987
 20
153.338
 30
0.0
 40
0
 41
0
  0
VERTEX
  8
CCC-CC-CC
 10
67.6822
 20
155.612
 30
0.0
 40
0
 41
0
  0
VERTEX
  8
CCC-CC-CC
 10
67.6822
 20
156.37
 30
0.0
 40
0
 41
0
  0
VERTEX
  8
CCC-CC-CC
 10
67.6822
 20
157.129
 30
0.0
 40
0
 41
0
  0
VERTEX
  8
CCC-CC-CC
 10
67.987
 20
159.403
 30
0.0
 40
0
 41
0
  0
VERTEX
  8
CCC-CC-CC
 10
68.8633
 20
162.227
 30
0.0
 40
0
 41
0
  0
VERTEX
  8
CCC-CC-CC
 10
70.2511
 20
164.783
 30
0.0
 40
0
 41
0
  0
VERTEX
  8
CCC-CC-CC
 10
72.088
 20
167.009
 30
0.0
 40
0
 41
0
  0
VERTEX
  8
CCC-CC-CC
 10
74.3148
 20
168.845
 30
0.0
 40
0
 41
0
  0
VERTEX
  8
CCC-CC-CC
 10
76.871
 20
170.233
 30
0.0
 40
0
 41
0
  0
VERTEX
  8
CCC-CC-CC
 10
79.6946
 20
171.11
 30
0.0
 40
0
 41
0
  0
VERTEX
  8
CCC-CC-CC
 10
81.9686
 20
171.414
 30
0.0
 40
0
 41
0
  0
VERTEX
  8
CCC-CC-CC
 10
82.7278
 20
171.414
 30
0.0
 40
0
 41
0
  0
SEQEND
 8
0
  0
POLYLINE
  8
CCC-CC-CC
 66
     1
 10
0
 20
0
 30
0.0
 70
     1
 40
0
 41
0
  0
VERTEX
  8
CCC-CC-CC
 10
113.222
 20
171.618
 30
0.0
 40
0
 41
0
  0
VERTEX
  8
CCC-CC-CC
 10
113.99
 20
171.618
 30
0.0
 40
0
 41
0
  0
VERTEX
  8
CCC-CC-CC
 10
116.294
 20
171.31
 30
0.0
 40
0
 41
0
  0
VERTEX
  8
CCC-CC-CC
 10
119.156
 20
170.421
 30
0.0
 40
0
 41
0
  0
VERTEX
  8
CCC-CC-CC
 10
121.747
 20
169.015
 30
0.0
 40
0
 41
0
  0
VERTEX
  8
CCC-CC-CC
 10
124.004
 20
167.153
 30
0.0
 40
0
 41
0
  0
VERTEX
  8
CCC-CC-CC
 10
125.866
 20
164.896
 30
0.0
 40
0
 41
0
  0
VERTEX
  8
CCC-CC-CC
 10
127.272
 20
162.305
 30
0.0
 40
0
 41
0
  0
VERTEX
  8
CCC-CC-CC
 10
128.16
 20
159.443
 30
0.0
 40
0
 41
0
  0
VERTEX
  8
CCC-CC-CC
 10
128.47
 20
157.139
 30
0.0
 40
0
 41
0
  0
VERTEX
  8
CCC-CC-CC
 10
128.47
 20
156.37
 30
0.0
 40
0
 41
0
  0
VERTEX
  8
CCC-CC-CC
 10
128.47
 20
155.603
 30
0.0
 40
0
 41
0
  0
VERTEX
  8
CCC-CC-CC
 10
128.16
 20
153.299
 30
0.0
 40
0
 41
0
  0
VERTEX
  8
CCC-CC-CC
 10
127.272
 20
150.436
 30
0.0
 40
0
 41
0
  0
VERTEX
  8
CCC-CC-CC
 10
125.866
 20
147.846
 30
0.0
 40
0
 41
0
  0
VERTEX
  8
CCC-CC-CC
 10
124.004
 20
145.59
 30
0.0
 40
0
 41
0
  0
VERTEX
  8
CCC-CC-CC
 10
121.747
 20
143.728
 30
0.0
 40
0
 41
0
  0
VERTEX
  8
CCC-CC-CC
 10
119.156
 20
142.323
 30
0.0
 40
0
 41
0
  0
VERTEX
  8
CCC-CC-CC
 10
116.294
 20
141.434
 30
0.0
 40
0
 41
0
  0
VERTEX
  8
CCC-CC-CC
 10
113.99
 20
141.123
 30
0.0
 40
0
 41
0
  0
VERTEX
  8
CCC-CC-CC
 10
113.222
 20
141.123
 30
0.0
 40
0
 41
0
  0
VERTEX
  8
CCC-CC-CC
 10
112.454
 20
141.123
 30
0.0
 40
0
 41
0
  0
VERTEX
  8
CCC-CC-CC
 10
110.149
 20
141.434
 30
0.0
 40
0
 41
0
  0
VERTEX
  8
CCC-CC-CC
 10
107.287
 20
142.323
 30
0.0
 40
0
 41
0
  0
VERTEX
  8
CCC-CC-CC
 10
104.696
 20
143.728
 30
0.0
 40
0
 41
0
  0
VERTEX
  8
CCC-CC-CC
 10
102.439
 20
145.59
 30
0.0
 40
0
 41
0
  0
VERTEX
  8
CCC-CC-CC
 10
100.578
 20
147.846
 30
0.0
 40
0
 41
0
  0
VERTEX
  8
CCC-CC-CC
 10
99.1718
 20
150.436
 30
0.0
 40
0
 41
0
  0
VERTEX
  8
CCC-CC-CC
 10
98.2832
 20
153.299
 30
0.0
 40
0
 41
0
  0
VERTEX
  8
CCC-CC-CC
 10
97.9745
 20
155.603
 30
0.0
 40
0
 41
0
  0
VERTEX
  8
CCC-CC-CC
 10
97.9745
 20
156.37
 30
0.0
 40
0
 41
0
  0
VERTEX
  8
CCC-CC-CC
 10
97.9745
 20
157.139
 30
0.0
 40
0
 41
0
  0
VERTEX
  8
CCC-CC-CC
 10
98.2832
 20
159.443
 30
0.0
 40
0
 41
0
  0
VERTEX
  8
CCC-CC-CC
 10
99.1718
 20
162.305
 30
0.0
 40
0
 41
0
  0
VERTEX
  8
CCC-CC-CC
 10
100.578
 20
164.896
 30
0.0
 40
0
 41
0
  0
VERTEX
  8
CCC-CC-CC
 10
102.439
 20
167.153
 30
0.0
 40
0
 41
0
  0
VERTEX
  8
CCC-CC-CC
 10
104.696
 20
169.015
 30
0.0
 40
0
 41
0
  0
VERTEX
  8
CCC-CC-CC
 10
107.287
 20
170.421
 30
0.0
 40
0
 41
0
  0
VERTEX
  8
CCC-CC-CC
 10
110.149
 20
171.31
 30
0.0
 40
0
 41
0
  0
VERTEX
  8
CCC-CC-CC
 10
112.454
 20
171.618
 30
0.0
 40
0
 41
0
  0
VERTEX
  8
CCC-CC-CC
 10
113.222
 20
171.618
 30
0.0
 40
0
 41
0
  0
SEQEND
 8
0
  0
POLYLINE
  8
CCC-CC-CC
 66
     1
 10
0
 20
0
 30
0.0
 70
     1
 40
0
 41
0
  0
VERTEX
  8
CCC-CC-CC
 10
113.222
 20
171.414
 30
0.0
 40
0
 41
0
  0
VERTEX
  8
CCC-CC-CC
 10
113.98
 20
171.414
 30
0.0
 40
0
 41
0
  0
VERTEX
  8
CCC-CC-CC
 10
116.254
 20
171.11
 30
0.0
 40
0
 41
0
  0
VERTEX
  8
CCC-CC-CC
 10
119.078
 20
170.233
 30
0.0
 40
0
 41
0
  0
VERTEX
  8
CCC-CC-CC
 10
121.634
 20
168.845
 30
0.0
 40
0
 41
0
  0
VERTEX
  8
CCC-CC-CC
 10
123.86
 20
167.009
 30
0.0
 40
0
 41
0
  0
VERTEX
  8
CCC-CC-CC
 10
125.696
 20
164.783
 30
0.0
 40
0
 41
0
  0
VERTEX
  8
CCC-CC-CC
 10
127.084
 20
162.227
 30
0.0
 40
0
 41
0
  0
VERTEX
  8
CCC-CC-CC
 10
127.961
 20
159.403
 30
0.0
 40
0
 41
0
  0
VERTEX
  8
CCC-CC-CC
 10
128.266
 20
157.129
 30
0.0
 40
0
 41
0
  0
VERTEX
  8
CCC-CC-CC
 10
128.266
 20
156.37
 30
0.0
 40
0
 41
0
  0
VERTEX
  8
CCC-CC-CC
 10
128.266
 20
155.612
 30
0.0
 40
0
 41
0
  0
VERTEX
  8
CCC-CC-CC
 10
127.961
 20
153.338
 30
0.0
 40
0
 41
0
  0
VERTEX
  8
CCC-CC-CC
 10
127.084
 20
150.515
 30
0.0
 40
0
 41
0
  0
VERTEX
  8
CCC-CC-CC
 10
125.696
 20
147.96
 30
0.0
 40
0
 41
0
  0
VERTEX
  8
CCC-CC-CC
 10
123.86
 20
145.733
 30
0.0
 40
0
 41
0
  0
VERTEX
  8
CCC-CC-CC
 10
121.634
 20
143.896
 30
0.0
 40
0
 41
0
  0
VERTEX
  8
CCC-CC-CC
 10
119.078
 20
142.508
 30
0.0
 40
0
 41
0
  0
VERTEX
  8
CCC-CC-CC
 10
116.254
 20
141.632
 30
0.0
 40
0
 41
0
  0
VERTEX
  8
CCC-CC-CC
 10
113.98
 20
141.326
 30
0.0
 40
0
 41
0
  0
VERTEX
  8
CCC-CC-CC
 10
113.222
 20
141.326
 30
0.0
 40
0
 41
0
  0
VERTEX
  8
CCC-CC-CC
 10
112.463
 20
141.326
 30
0.0
 40
0
 41
0
  0
VERTEX
  8
CCC-CC-CC
 10
110.189
 20
141.632
 30
0.0
 40
0
 41
0
  0
VERTEX
  8
CCC-CC-CC
 10
107.366
 20
142.508
 30
0.0
 40
0
 41
0
  0
VERTEX
  8
CCC-CC-CC
 10
104.811
 20
143.896
 30
0.0
 40
0
 41
0
  0
VERTEX
  8
CCC-CC-CC
 10
102.584
 20
145.733
 30
0.0
 40
0
 41
0
  0
VERTEX
  8
CCC-CC-CC
 10
100.747
 20
147.96
 30
0.0
 40
0
 41
0
  0
VERTEX
  8
CCC-CC-CC
 10
99.3592
 20
150.515
 30
0.0
 40
0
 41
0
  0
VERTEX
  8
CCC-CC-CC
 10
98.4829
 20
153.338
 30
0.0
 40
0
 41
0
  0
VERTEX
  8
CCC-CC-CC
 10
98.1784
 20
155.612
 30
0.0
 40
0
 41
0
  0
VERTEX
  8
CCC-CC-CC
 10
98.1784
 20
156.37
 30
0.0
 40
0
 41
0
  0
VERTEX
  8
CCC-CC-CC
 10
98.1784
 20
157.129
 30
0.0
 40
0
 41
0
  0
VERTEX
  8
CCC-CC-CC
 10
98.4829
 20
159.403
 30
0.0
 40
0
 41
0
  0
VERTEX
  8
CCC-CC-CC
 10
99.3592
 20
162.227
 30
0.0
 40
0
 41
0
  0
VERTEX
  8
CCC-CC-CC
 10
100.747
 20
164.783
 30
0.0
 40
0
 41
0
  0
VERTEX
  8
CCC-CC-CC
 10
102.584
 20
167.009
 30
0.0
 40
0
 41
0
  0
VERTEX
  8
CCC-CC-CC
 10
104.811
 20
168.845
 30
0.0
 40
0
 41
0
  0
VERTEX
  8
CCC-CC-CC
 10
107.366
 20
170.233
 30
0.0
 40
0
 41
0
  0
VERTEX
  8
CCC-CC-CC
 10
110.189
 20
171.11
 30
0.0
 40
0
 41
0
  0
VERTEX
  8
CCC-CC-CC
 10
112.463
 20
171.414
 30
0.0
 40
0
 41
0
  0
VERTEX
  8
CCC-CC-CC
 10
113.222
 20
171.414
 30
0.0
 40
0
 41
0
  0
SEQEND
 8
0
  0
POLYLINE
  8
CCC-CC-CC
 66
     1
 10
0
 20
0
 30
0.0
 70
     1
 40
0
 41
0
  0
VERTEX
  8
CCC-CC-CC
 10
143.718
 20
171.618
 30
0.0
 40
0
 41
0
  0
VERTEX
  8
CCC-CC-CC
 10
144.486
 20
171.618
 30
0.0
 40
0
 41
0
  0
VERTEX
  8
CCC-CC-CC
 10
146.79
 20
171.31
 30
0.0
 40
0
 41
0
  0
VERTEX
  8
CCC-CC-CC
 10
149.652
 20
170.421
 30
0.0
 40
0
 41
0
  0
VERTEX
  8
CCC-CC-CC
 10
152.243
 20
169.015
 30
0.0
 40
0
 41
0
  0
VERTEX
  8
CCC-CC-CC
 10
154.499
 20
167.153
 30
0.0
 40
0
 41
0
  0
VERTEX
  8
CCC-CC-CC
 10
156.361
 20
164.896
 30
0.0
 40
0
 41
0
  0
VERTEX
  8
CCC-CC-CC
 10
157.766
 20
162.305
 30
0.0
 40
0
 41
0
  0
VERTEX
  8
CCC-CC-CC
 10
158.655
 20
159.443
 30
0.0
 40
0
 41
0
  0
VERTEX
  8
CCC-CC-CC
 10
158.965
 20
157.139
 30
0.0
 40
0
 41
0
  0
VERTEX
  8
CCC-CC-CC
 10
158.965
 20
156.37
 30
0.0
 40
0
 41
0
  0
VERTEX
  8
CCC-CC-CC
 10
158.965
 20
155.603
 30
0.0
 40
0
 41
0
  0
VERTEX
  8
CCC-CC-CC
 10
158.655
 20
153.299
 30
0.0
 40
0
 41
0
  0
VERTEX
  8
CCC-CC-CC
 10
157.766
 20
150.436
 30
0.0
 40
0
 41
0
  0
VERTEX
  8
CCC-CC-CC
 10
156.361
 20
147.846
 30
0.0
 40
0
 41
0
  0
VERTEX
  8
CCC-CC-CC
 10
154.499
 20
145.59
 30
0.0
 40
0
 41
0
  0
VERTEX
  8
CCC-CC-CC
 10
152.243
 20
143.728
 30
0.0
 40
0
 41
0
  0
VERTEX
  8
CCC-CC-CC
 10
149.652
 20
142.323
 30
0.0
 40
0
 41
0
  0
VERTEX
  8
CCC-CC-CC
 10
146.79
 20
141.434
 30
0.0
 40
0
 41
0
  0
VERTEX
  8
CCC-CC-CC
 10
144.486
 20
141.123
 30
0.0
 40
0
 41
0
  0
VERTEX
  8
CCC-CC-CC
 10
143.718
 20
141.123
 30
0.0
 40
0
 41
0
  0
VERTEX
  8
CCC-CC-CC
 10
142.949
 20
141.123
 30
0.0
 40
0
 41
0
  0
VERTEX
  8
CCC-CC-CC
 10
140.645
 20
141.434
 30
0.0
 40
0
 41
0
  0
VERTEX
  8
CCC-CC-CC
 10
137.783
 20
142.323
 30
0.0
 40
0
 41
0
  0
VERTEX
  8
CCC-CC-CC
 10
135.193
 20
143.728
 30
0.0
 40
0
 41
0
  0
VERTEX
  8
CCC-CC-CC
 10
132.935
 20
145.59
 30
0.0
 40
0
 41
0
  0
VERTEX
  8
CCC-CC-CC
 10
131.074
 20
147.846
 30
0.0
 40
0
 41
0
  0
VERTEX
  8
CCC-CC-CC
 10
129.668
 20
150.436
 30
0.0
 40
0
 41
0
  0
VERTEX
  8
CCC-CC-CC
 10
128.779
 20
153.299
 30
0.0
 40
0
 41
0
  0
VERTEX
  8
CCC-CC-CC
 10
128.47
 20
155.603
 30
0.0
 40
0
 41
0
  0
VERTEX
  8
CCC-CC-CC
 10
128.47
 20
156.37
 30
0.0
 40
0
 41
0
  0
VERTEX
  8
CCC-CC-CC
 10
128.47
 20
157.139
 30
0.0
 40
0
 41
0
  0
VERTEX
  8
CCC-CC-CC
 10
128.779
 20
159.443
 30
0.0
 40
0
 41
0
  0
VERTEX
  8
CCC-CC-CC
 10
129.668
 20
162.305
 30
0.0
 40
0
 41
0
  0
VERTEX
  8
CCC-CC-CC
 10
131.074
 20
164.896
 30
0.0
 40
0
 41
0
  0
VERTEX
  8
CCC-CC-CC
 10
132.935
 20
167.153
 30
0.0
 40
0
 41
0
  0
VERTEX
  8
CCC-CC-CC
 10
135.193
 20
169.015
 30
0.0
 40
0
 41
0
  0
VERTEX
  8
CCC-CC-CC
 10
137.783
 20
170.421
 30
0.0
 40
0
 41
0
  0
VERTEX
  8
CCC-CC-CC
 10
140.645
 20
171.31
 30
0.0
 40
0
 41
0
  0
VERTEX
  8
CCC-CC-CC
 10
142.949
 20
171.618
 30
0.0
 40
0
 41
0
  0
VERTEX
  8
CCC-CC-CC
 10
143.718
 20
171.618
 30
0.0
 40
0
 41
0
  0
SEQEND
 8
0
  0
POLYLINE
  8
CCC-CC-CC
 66
     1
 10
0
 20
0
 30
0.0
 70
     1
 40
0
 41
0
  0
VERTEX
  8
CCC-CC-CC
 10
143.718
 20
171.414
 30
0.0
 40
0
 41
0
  0
VERTEX
  8
CCC-CC-CC
 10
144.476
 20
171.414
 30
0.0
 40
0
 41
0
  0
VERTEX
  8
CCC-CC-CC
 10
146.75
 20
171.11
 30
0.0
 40
0
 41
0
  0
VERTEX
  8
CCC-CC-CC
 10
149.574
 20
170.233
 30
0.0
 40
0
 41
0
  0
VERTEX
  8
CCC-CC-CC
 10
152.128
 20
168.845
 30
0.0
 40
0
 41
0
  0
VERTEX
  8
CCC-CC-CC
 10
154.355
 20
167.009
 30
0.0
 40
0
 41
0
  0
VERTEX
  8
CCC-CC-CC
 10
156.192
 20
164.783
 30
0.0
 40
0
 41
0
  0
VERTEX
  8
CCC-CC-CC
 10
157.58
 20
162.227
 30
0.0
 40
0
 41
0
  0
VERTEX
  8
CCC-CC-CC
 10
158.456
 20
159.403
 30
0.0
 40
0
 41
0
  0
VERTEX
  8
CCC-CC-CC
 10
158.762
 20
157.129
 30
0.0
 40
0
 41
0
  0
VERTEX
  8
CCC-CC-CC
 10
158.762
 20
156.37
 30
0.0
 40
0
 41
0
  0
VERTEX
  8
CCC-CC-CC
 10
158.762
 20
155.612
 30
0.0
 40
0
 41
0
  0
VERTEX
  8
CCC-CC-CC
 10
158.456
 20
153.338
 30
0.0
 40
0
 41
0
  0
VERTEX
  8
CCC-CC-CC
 10
157.58
 20
150.515
 30
0.0
 40
0
 41
0
  0
VERTEX
  8
CCC-CC-CC
 10
156.192
 20
147.96
 30
0.0
 40
0
 41
0
  0
VERTEX
  8
CCC-CC-CC
 10
154.355
 20
145.733
 30
0.0
 40
0
 41
0
  0
VERTEX
  8
CCC-CC-CC
 10
152.128
 20
143.896
 30
0.0
 40
0
 41
0
  0
VERTEX
  8
CCC-CC-CC
 10
149.574
 20
142.508
 30
0.0
 40
0
 41
0
  0
VERTEX
  8
CCC-CC-CC
 10
146.75
 20
141.632
 30
0.0
 40
0
 41
0
  0
VERTEX
  8
CCC-CC-CC
 10
144.476
 20
141.326
 30
0.0
 40
0
 41
0
  0
VERTEX
  8
CCC-CC-CC
 10
143.718
 20
141.326
 30
0.0
 40
0
 41
0
  0
VERTEX
  8
CCC-CC-CC
 10
142.959
 20
141.326
 30
0.0
 40
0
 41
0
  0
VERTEX
  8
CCC-CC-CC
 10
140.685
 20
141.632
 30
0.0
 40
0
 41
0
  0
VERTEX
  8
CCC-CC-CC
 10
137.862
 20
142.508
 30
0.0
 40
0
 41
0
  0
VERTEX
  8
CCC-CC-CC
 10
135.305
 20
143.896
 30
0.0
 40
0
 41
0
  0
VERTEX
  8
CCC-CC-CC
 10
133.078
 20
145.733
 30
0.0
 40
0
 41
0
  0
VERTEX
  8
CCC-CC-CC
 10
131.241
 20
147.96
 30
0.0
 40
0
 41
0
  0
VERTEX
  8
CCC-CC-CC
 10
129.854
 20
150.515
 30
0.0
 40
0
 41
0
  0
VERTEX
  8
CCC-CC-CC
 10
128.977
 20
153.338
 30
0.0
 40
0
 41
0
  0
VERTEX
  8
CCC-CC-CC
 10
128.673
 20
155.612
 30
0.0
 40
0
 41
0
  0
VERTEX
  8
CCC-CC-CC
 10
128.673
 20
156.37
 30
0.0
 40
0
 41
0
  0
VERTEX
  8
CCC-CC-CC
 10
128.673
 20
157.129
 30
0.0
 40
0
 41
0
  0
VERTEX
  8
CCC-CC-CC
 10
128.977
 20
159.403
 30
0.0
 40
0
 41
0
  0
VERTEX
  8
CCC-CC-CC
 10
129.854
 20
162.227
 30
0.0
 40
0
 41
0
  0
VERTEX
  8
CCC-CC-CC
 10
131.241
 20
164.783
 30
0.0
 40
0
 41
0
  0
VERTEX
  8
CCC-CC-CC
 10
133.078
 20
167.009
 30
0.0
 40
0
 41
0
  0
VERTEX
  8
CCC-CC-CC
 10
135.305
 20
168.845
 30
0.0
 40
0
 41
0
  0
VERTEX
  8
CCC-CC-CC
 10
137.862
 20
170.233
 30
0.0
 40
0
 41
0
  0
VERTEX
  8
CCC-CC-CC
 10
140.685
 20
171.11
 30
0.0
 40
0
 41
0
  0
VERTEX
  8
CCC-CC-CC
 10
142.959
 20
171.414
 30
0.0
 40
0
 41
0
  0
VERTEX
  8
CCC-CC-CC
 10
143.718
 20
171.414
 30
0.0
 40
0
 41
0
  0
SEQEND
 8
0
  0
POLYLINE
  8
CCC-CC-CC
 66
     1
 10
0
 20
0
 30
0.0
 70
     1
 40
0
 41
0
  0
VERTEX
  8
CCC-CC-CC
 10
52.2319
 20
141.123
 30
0.0
 40
0
 41
0
  0
VERTEX
  8
CCC-CC-CC
 10
52.9992
 20
141.123
 30
0.0
 40
0
 41
0
  0
VERTEX
  8
CCC-CC-CC
 10
55.3036
 20
140.815
 30
0.0
 40
0
 41
0
  0
VERTEX
  8
CCC-CC-CC
 10
58.1656
 20
139.926
 30
0.0
 40
0
 41
0
  0
VERTEX
  8
CCC-CC-CC
 10
60.7564
 20
138.52
 30
0.0
 40
0
 41
0
  0
VERTEX
  8
CCC-CC-CC
 10
63.0135
 20
136.659
 30
0.0
 40
0
 41
0
  0
VERTEX
  8
CCC-CC-CC
 10
64.8751
 20
134.401
 30
0.0
 40
0
 41
0
  0
VERTEX
  8
CCC-CC-CC
 10
66.2809
 20
131.811
 30
0.0
 40
0
 41
0
  0
VERTEX
  8
CCC-CC-CC
 10
67.1696
 20
128.948
 30
0.0
 40
0
 41
0
  0
VERTEX
  8
CCC-CC-CC
 10
67.4797
 20
126.644
 30
0.0
 40
0
 41
0
  0
VERTEX
  8
CCC-CC-CC
 10
67.4797
 20
125.876
 30
0.0
 40
0
 41
0
  0
VERTEX
  8
CCC-CC-CC
 10
67.4797
 20
125.108
 30
0.0
 40
0
 41
0
  0
VERTEX
  8
CCC-CC-CC
 10
67.1696
 20
122.804
 30
0.0
 40
0
 41
0
  0
VERTEX
  8
CCC-CC-CC
 10
66.2809
 20
119.942
 30
0.0
 40
0
 41
0
  0
VERTEX
  8
CCC-CC-CC
 10
64.8751
 20
117.351
 30
0.0
 40
0
 41
0
  0
VERTEX
  8
CCC-CC-CC
 10
63.0135
 20
115.094
 30
0.0
 40
0
 41
0
  0
VERTEX
  8
CCC-CC-CC
 10
60.7564
 20
113.232
 30
0.0
 40
0
 41
0
  0
VERTEX
  8
CCC-CC-CC
 10
58.1656
 20
111.826
 30
0.0
 40
0
 41
0
  0
VERTEX
  8
CCC-CC-CC
 10
55.3036
 20
110.938
 30
0.0
 40
0
 41
0
  0
VERTEX
  8
CCC-CC-CC
 10
52.9992
 20
110.628
 30
0.0
 40
0
 41
0
  0
VERTEX
  8
CCC-CC-CC
 10
52.2319
 20
110.628
 30
0.0
 40
0
 41
0
  0
VERTEX
  8
CCC-CC-CC
 10
51.4629
 20
110.628
 30
0.0
 40
0
 41
0
  0
VERTEX
  8
CCC-CC-CC
 10
49.1589
 20
110.938
 30
0.0
 40
0
 41
0
  0
VERTEX
  8
CCC-CC-CC
 10
46.2964
 20
111.826
 30
0.0
 40
0
 41
0
  0
VERTEX
  8
CCC-CC-CC
 10
43.706
 20
113.232
 30
0.0
 40
0
 41
0
  0
VERTEX
  8
CCC-CC-CC
 10
41.4486
 20
115.094
 30
0.0
 40
0
 41
0
  0
VERTEX
  8
CCC-CC-CC
 10
39.587
 20
117.351
 30
0.0
 40
0
 41
0
  0
VERTEX
  8
CCC-CC-CC
 10
38.1811
 20
119.942
 30
0.0
 40
0
 41
0
  0
VERTEX
  8
CCC-CC-CC
 10
37.2925
 20
122.804
 30
0.0
 40
0
 41
0
  0
VERTEX
  8
CCC-CC-CC
 10
36.9838
 20
125.108
 30
0.0
 40
0
 41
0
  0
VERTEX
  8
CCC-CC-CC
 10
36.9838
 20
125.876
 30
0.0
 40
0
 41
0
  0
VERTEX
  8
CCC-CC-CC
 10
36.9838
 20
126.644
 30
0.0
 40
0
 41
0
  0
VERTEX
  8
CCC-CC-CC
 10
37.2925
 20
128.948
 30
0.0
 40
0
 41
0
  0
VERTEX
  8
CCC-CC-CC
 10
38.1811
 20
131.811
 30
0.0
 40
0
 41
0
  0
VERTEX
  8
CCC-CC-CC
 10
39.587
 20
134.401
 30
0.0
 40
0
 41
0
  0
VERTEX
  8
CCC-CC-CC
 10
41.4486
 20
136.659
 30
0.0
 40
0
 41
0
  0
VERTEX
  8
CCC-CC-CC
 10
43.706
 20
138.52
 30
0.0
 40
0
 41
0
  0
VERTEX
  8
CCC-CC-CC
 10
46.2964
 20
139.926
 30
0.0
 40
0
 41
0
  0
VERTEX
  8
CCC-CC-CC
 10
49.1589
 20
140.815
 30
0.0
 40
0
 41
0
  0
VERTEX
  8
CCC-CC-CC
 10
51.4629
 20
141.123
 30
0.0
 40
0
 41
0
  0
VERTEX
  8
CCC-CC-CC
 10
52.2319
 20
141.123
 30
0.0
 40
0
 41
0
  0
SEQEND
 8
0
  0
POLYLINE
  8
CCC-CC-CC
 66
     1
 10
0
 20
0
 30
0.0
 70
     1
 40
0
 41
0
  0
VERTEX
  8
CCC-CC-CC
 10
52.2319
 20
140.92
 30
0.0
 40
0
 41
0
  0
VERTEX
  8
CCC-CC-CC
 10
52.9897
 20
140.92
 30
0.0
 40
0
 41
0
  0
VERTEX
  8
CCC-CC-CC
 10
55.2633
 20
140.615
 30
0.0
 40
0
 41
0
  0
VERTEX
  8
CCC-CC-CC
 10
58.087
 20
139.738
 30
0.0
 40
0
 41
0
  0
VERTEX
  8
CCC-CC-CC
 10
60.6432
 20
138.351
 30
0.0
 40
0
 41
0
  0
VERTEX
  8
CCC-CC-CC
 10
62.8689
 20
136.514
 30
0.0
 40
0
 41
0
  0
VERTEX
  8
CCC-CC-CC
 10
64.7058
 20
134.287
 30
0.0
 40
0
 41
0
  0
VERTEX
  8
CCC-CC-CC
 10
66.0936
 20
131.732
 30
0.0
 40
0
 41
0
  0
VERTEX
  8
CCC-CC-CC
 10
66.9699
 20
128.909
 30
0.0
 40
0
 41
0
  0
VERTEX
  8
CCC-CC-CC
 10
67.2758
 20
126.635
 30
0.0
 40
0
 41
0
  0
VERTEX
  8
CCC-CC-CC
 10
67.2758
 20
125.876
 30
0.0
 40
0
 41
0
  0
VERTEX
  8
CCC-CC-CC
 10
67.2758
 20
125.118
 30
0.0
 40
0
 41
0
  0
VERTEX
  8
CCC-CC-CC
 10
66.9699
 20
122.844
 30
0.0
 40
0
 41
0
  0
VERTEX
  8
CCC-CC-CC
 10
66.0936
 20
120.02
 30
0.0
 40
0
 41
0
  0
VERTEX
  8
CCC-CC-CC
 10
64.7058
 20
117.464
 30
0.0
 40
0
 41
0
  0
VERTEX
  8
CCC-CC-CC
 10
62.8689
 20
115.238
 30
0.0
 40
0
 41
0
  0
VERTEX
  8
CCC-CC-CC
 10
60.6432
 20
113.401
 30
0.0
 40
0
 41
0
  0
VERTEX
  8
CCC-CC-CC
 10
58.087
 20
112.014
 30
0.0
 40
0
 41
0
  0
VERTEX
  8
CCC-CC-CC
 10
55.2633
 20
111.137
 30
0.0
 40
0
 41
0
  0
VERTEX
  8
CCC-CC-CC
 10
52.9897
 20
110.831
 30
0.0
 40
0
 41
0
  0
VERTEX
  8
CCC-CC-CC
 10
52.2319
 20
110.831
 30
0.0
 40
0
 41
0
  0
VERTEX
  8
CCC-CC-CC
 10
51.4724
 20
110.831
 30
0.0
 40
0
 41
0
  0
VERTEX
  8
CCC-CC-CC
 10
49.1987
 20
111.137
 30
0.0
 40
0
 41
0
  0
VERTEX
  8
CCC-CC-CC
 10
46.3751
 20
112.014
 30
0.0
 40
0
 41
0
  0
VERTEX
  8
CCC-CC-CC
 10
43.8203
 20
113.401
 30
0.0
 40
0
 41
0
  0
VERTEX
  8
CCC-CC-CC
 10
41.5932
 20
115.238
 30
0.0
 40
0
 41
0
  0
VERTEX
  8
CCC-CC-CC
 10
39.7563
 20
117.464
 30
0.0
 40
0
 41
0
  0
VERTEX
  8
CCC-CC-CC
 10
38.3688
 20
120.02
 30
0.0
 40
0
 41
0
  0
VERTEX
  8
CCC-CC-CC
 10
37.4922
 20
122.844
 30
0.0
 40
0
 41
0
  0
VERTEX
  8
CCC-CC-CC
 10
37.1877
 20
125.118
 30
0.0
 40
0
 41
0
  0
VERTEX
  8
CCC-CC-CC
 10
37.1877
 20
125.876
 30
0.0
 40
0
 41
0
  0
VERTEX
  8
CCC-CC-CC
 10
37.1877
 20
126.635
 30
0.0
 40
0
 41
0
  0
VERTEX
  8
CCC-CC-CC
 10
37.4922
 20
128.909
 30
0.0
 40
0
 41
0
  0
VERTEX
  8
CCC-CC-CC
 10
38.3688
 20
131.732
 30
0.0
 40
0
 41
0
  0
VERTEX
  8
CCC-CC-CC
 10
39.7563
 20
134.287
 30
0.0
 40
0
 41
0
  0
VERTEX
  8
CCC-CC-CC
 10
41.5932
 20
136.514
 30
0.0
 40
0
 41
0
  0
VERTEX
  8
CCC-CC-CC
 10
43.8203
 20
138.351
 30
0.0
 40
0
 41
0
  0
VERTEX
  8
CCC-CC-CC
 10
46.3751
 20
139.738
 30
0.0
 40
0
 41
0
  0
VERTEX
  8
CCC-CC-CC
 10
49.1987
 20
140.615
 30
0.0
 40
0
 41
0
  0
VERTEX
  8
CCC-CC-CC
 10
51.4724
 20
140.92
 30
0.0
 40
0
 41
0
  0
VERTEX
  8
CCC-CC-CC
 10
52.2319
 20
140.92
 30
0.0
 40
0
 41
0
  0
SEQEND
 8
0
  0
POLYLINE
  8
CCC-CC-CC
 66
     1
 10
0
 20
0
 30
0.0
 70
     1
 40
0
 41
0
  0
VERTEX
  8
CCC-CC-CC
 10
82.7278
 20
141.123
 30
0.0
 40
0
 41
0
  0
VERTEX
  8
CCC-CC-CC
 10
83.4954
 20
141.123
 30
0.0
 40
0
 41
0
  0
VERTEX
  8
CCC-CC-CC
 10
85.7994
 20
140.815
 30
0.0
 40
0
 41
0
  0
VERTEX
  8
CCC-CC-CC
 10
88.6615
 20
139.926
 30
0.0
 40
0
 41
0
  0
VERTEX
  8
CCC-CC-CC
 10
91.2523
 20
138.52
 30
0.0
 40
0
 41
0
  0
VERTEX
  8
CCC-CC-CC
 10
93.5083
 20
136.659
 30
0.0
 40
0
 41
0
  0
VERTEX
  8
CCC-CC-CC
 10
95.3699
 20
134.401
 30
0.0
 40
0
 41
0
  0
VERTEX
  8
CCC-CC-CC
 10
96.7754
 20
131.811
 30
0.0
 40
0
 41
0
  0
VERTEX
  8
CCC-CC-CC
 10
97.6644
 20
128.948
 30
0.0
 40
0
 41
0
  0
VERTEX
  8
CCC-CC-CC
 10
97.9745
 20
126.644
 30
0.0
 40
0
 41
0
  0
VERTEX
  8
CCC-CC-CC
 10
97.9745
 20
125.876
 30
0.0
 40
0
 41
0
  0
VERTEX
  8
CCC-CC-CC
 10
97.9745
 20
125.108
 30
0.0
 40
0
 41
0
  0
VERTEX
  8
CCC-CC-CC
 10
97.6644
 20
122.804
 30
0.0
 40
0
 41
0
  0
VERTEX
  8
CCC-CC-CC
 10
96.7754
 20
119.942
 30
0.0
 40
0
 41
0
  0
VERTEX
  8
CCC-CC-CC
 10
95.3699
 20
117.351
 30
0.0
 40
0
 41
0
  0
VERTEX
  8
CCC-CC-CC
 10
93.5083
 20
115.094
 30
0.0
 40
0
 41
0
  0
VERTEX
  8
CCC-CC-CC
 10
91.2523
 20
113.232
 30
0.0
 40
0
 41
0
  0
VERTEX
  8
CCC-CC-CC
 10
88.6615
 20
111.826
 30
0.0
 40
0
 41
0
  0
VERTEX
  8
CCC-CC-CC
 10
85.7994
 20
110.938
 30
0.0
 40
0
 41
0
  0
VERTEX
  8
CCC-CC-CC
 10
83.4954
 20
110.628
 30
0.0
 40
0
 41
0
  0
VERTEX
  8
CCC-CC-CC
 10
82.7278
 20
110.628
 30
0.0
 40
0
 41
0
  0
VERTEX
  8
CCC-CC-CC
 10
81.9587
 20
110.628
 30
0.0
 40
0
 41
0
  0
VERTEX
  8
CCC-CC-CC
 10
79.6548
 20
110.938
 30
0.0
 40
0
 41
0
  0
VERTEX
  8
CCC-CC-CC
 10
76.7927
 20
111.826
 30
0.0
 40
0
 41
0
  0
VERTEX
  8
CCC-CC-CC
 10
74.2019
 20
113.232
 30
0.0
 40
0
 41
0
  0
VERTEX
  8
CCC-CC-CC
 10
71.9448
 20
115.094
 30
0.0
 40
0
 41
0
  0
VERTEX
  8
CCC-CC-CC
 10
70.0828
 20
117.351
 30
0.0
 40
0
 41
0
  0
VERTEX
  8
CCC-CC-CC
 10
68.6774
 20
119.942
 30
0.0
 40
0
 41
0
  0
VERTEX
  8
CCC-CC-CC
 10
67.7884
 20
122.804
 30
0.0
 40
0
 41
0
  0
VERTEX
  8
CCC-CC-CC
 10
67.4797
 20
125.108
 30
0.0
 40
0
 41
0
  0
VERTEX
  8
CCC-CC-CC
 10
67.4797
 20
125.876
 30
0.0
 40
0
 41
0
  0
VERTEX
  8
CCC-CC-CC
 10
67.4797
 20
126.644
 30
0.0
 40
0
 41
0
  0
VERTEX
  8
CCC-CC-CC
 10
67.7884
 20
128.948
 30
0.0
 40
0
 41
0
  0
VERTEX
  8
CCC-CC-CC
 10
68.6774
 20
131.811
 30
0.0
 40
0
 41
0
  0
VERTEX
  8
CCC-CC-CC
 10
70.0828
 20
134.401
 30
0.0
 40
0
 41
0
  0
VERTEX
  8
CCC-CC-CC
 10
71.9448
 20
136.659
 30
0.0
 40
0
 41
0
  0
VERTEX
  8
CCC-CC-CC
 10
74.2019
 20
138.52
 30
0.0
 40
0
 41
0
  0
VERTEX
  8
CCC-CC-CC
 10
76.7927
 20
139.926
 30
0.0
 40
0
 41
0
  0
VERTEX
  8
CCC-CC-CC
 10
79.6548
 20
140.815
 30
0.0
 40
0
 41
0
  0
VERTEX
  8
CCC-CC-CC
 10
81.9587
 20
141.123
 30
0.0
 40
0
 41
0
  0
VERTEX
  8
CCC-CC-CC
 10
82.7278
 20
141.123
 30
0.0
 40
0
 41
0
  0
SEQEND
 8
0
  0
POLYLINE
  8
CCC-CC-CC
 66
     1
 10
0
 20
0
 30
0.0
 70
     1
 40
0
 41
0
  0
VERTEX
  8
CCC-CC-CC
 10
82.7278
 20
140.92
 30
0.0
 40
0
 41
0
  0
VERTEX
  8
CCC-CC-CC
 10
83.4856
 20
140.92
 30
0.0
 40
0
 41
0
  0
VERTEX
  8
CCC-CC-CC
 10
85.7596
 20
140.615
 30
0.0
 40
0
 41
0
  0
VERTEX
  8
CCC-CC-CC
 10
88.5832
 20
139.738
 30
0.0
 40
0
 41
0
  0
VERTEX
  8
CCC-CC-CC
 10
91.138
 20
138.351
 30
0.0
 40
0
 41
0
  0
VERTEX
  8
CCC-CC-CC
 10
93.3648
 20
136.514
 30
0.0
 40
0
 41
0
  0
VERTEX
  8
CCC-CC-CC
 10
95.2017
 20
134.287
 30
0.0
 40
0
 41
0
  0
VERTEX
  8
CCC-CC-CC
 10
96.5895
 20
131.732
 30
0.0
 40
0
 41
0
  0
VERTEX
  8
CCC-CC-CC
 10
97.4658
 20
128.909
 30
0.0
 40
0
 41
0
  0
VERTEX
  8
CCC-CC-CC
 10
97.7717
 20
126.635
 30
0.0
 40
0
 41
0
  0
VERTEX
  8
CCC-CC-CC
 10
97.7717
 20
125.876
 30
0.0
 40
0
 41
0
  0
VERTEX
  8
CCC-CC-CC
 10
97.7717
 20
125.118
 30
0.0
 40
0
 41
0
  0
VERTEX
  8
CCC-CC-CC
 10
97.4658
 20
122.844
 30
0.0
 40
0
 41
0
  0
VERTEX
  8
CCC-CC-CC
 10
96.5895
 20
120.02
 30
0.0
 40
0
 41
0
  0
VERTEX
  8
CCC-CC-CC
 10
95.2017
 20
117.464
 30
0.0
 40
0
 41
0
  0
VERTEX
  8
CCC-CC-CC
 10
93.3648
 20
115.238
 30
0.0
 40
0
 41
0
  0
VERTEX
  8
CCC-CC-CC
 10
91.138
 20
113.401
 30
0.0
 40
0
 41
0
  0
VERTEX
  8
CCC-CC-CC
 10
88.5832
 20
112.014
 30
0.0
 40
0
 41
0
  0
VERTEX
  8
CCC-CC-CC
 10
85.7596
 20
111.137
 30
0.0
 40
0
 41
0
  0
VERTEX
  8
CCC-CC-CC
 10
83.4856
 20
110.831
 30
0.0
 40
0
 41
0
  0
VERTEX
  8
CCC-CC-CC
 10
82.7278
 20
110.831
 30
0.0
 40
0
 41
0
  0
VERTEX
  8
CCC-CC-CC
 10
81.9686
 20
110.831
 30
0.0
 40
0
 41
0
  0
VERTEX
  8
CCC-CC-CC
 10
79.6946
 20
111.137
 30
0.0
 40
0
 41
0
  0
VERTEX
  8
CCC-CC-CC
 10
76.871
 20
112.014
 30
0.0
 40
0
 41
0
  0
VERTEX
  8
CCC-CC-CC
 10
74.3148
 20
113.401
 30
0.0
 40
0
 41
0
  0
VERTEX
  8
CCC-CC-CC
 10
72.088
 20
115.238
 30
0.0
 40
0
 41
0
  0
VERTEX
  8
CCC-CC-CC
 10
70.2511
 20
117.464
 30
0.0
 40
0
 41
0
  0
VERTEX
  8
CCC-CC-CC
 10
68.8633
 20
120.02
 30
0.0
 40
0
 41
0
  0
VERTEX
  8
CCC-CC-CC
 10
67.987
 20
122.844
 30
0.0
 40
0
 41
0
  0
VERTEX
  8
CCC-CC-CC
 10
67.6822
 20
125.118
 30
0.0
 40
0
 41
0
  0
VERTEX
  8
CCC-CC-CC
 10
67.6822
 20
125.876
 30
0.0
 40
0
 41
0
  0
VERTEX
  8
CCC-CC-CC
 10
67.6822
 20
126.635
 30
0.0
 40
0
 41
0
  0
VERTEX
  8
CCC-CC-CC
 10
67.987
 20
128.909
 30
0.0
 40
0
 41
0
  0
VERTEX
  8
CCC-CC-CC
 10
68.8633
 20
131.732
 30
0.0
 40
0
 41
0
  0
VERTEX
  8
CCC-CC-CC
 10
70.2511
 20
134.287
 30
0.0
 40
0
 41
0
  0
VERTEX
  8
CCC-CC-CC
 10
72.088
 20
136.514
 30
0.0
 40
0
 41
0
  0
VERTEX
  8
CCC-CC-CC
 10
74.3148
 20
138.351
 30
0.0
 40
0
 41
0
  0
VERTEX
  8
CCC-CC-CC
 10
76.871
 20
139.738
 30
0.0
 40
0
 41
0
  0
VERTEX
  8
CCC-CC-CC
 10
79.6946
 20
140.615
 30
0.0
 40
0
 41
0
  0
VERTEX
  8
CCC-CC-CC
 10
81.9686
 20
140.92
 30
0.0
 40
0
 41
0
  0
VERTEX
  8
CCC-CC-CC
 10
82.7278
 20
140.92
 30
0.0
 40
0
 41
0
  0
SEQEND
 8
0
  0
POLYLINE
  8
CCC-CC-CC
 66
     1
 10
0
 20
0
 30
0.0
 70
     1
 40
0
 41
0
  0
VERTEX
  8
CCC-CC-CC
 10
113.222
 20
141.123
 30
0.0
 40
0
 41
0
  0
VERTEX
  8
CCC-CC-CC
 10
113.99
 20
141.123
 30
0.0
 40
0
 41
0
  0
VERTEX
  8
CCC-CC-CC
 10
116.294
 20
140.815
 30
0.0
 40
0
 41
0
  0
VERTEX
  8
CCC-CC-CC
 10
119.156
 20
139.926
 30
0.0
 40
0
 41
0
  0
VERTEX
  8
CCC-CC-CC
 10
121.747
 20
138.52
 30
0.0
 40
0
 41
0
  0
VERTEX
  8
CCC-CC-CC
 10
124.004
 20
136.659
 30
0.0
 40
0
 41
0
  0
VERTEX
  8
CCC-CC-CC
 10
125.866
 20
134.401
 30
0.0
 40
0
 41
0
  0
VERTEX
  8
CCC-CC-CC
 10
127.272
 20
131.811
 30
0.0
 40
0
 41
0
  0
VERTEX
  8
CCC-CC-CC
 10
128.16
 20
128.948
 30
0.0
 40
0
 41
0
  0
VERTEX
  8
CCC-CC-CC
 10
128.47
 20
126.644
 30
0.0
 40
0
 41
0
  0
VERTEX
  8
CCC-CC-CC
 10
128.47
 20
125.876
 30
0.0
 40
0
 41
0
  0
VERTEX
  8
CCC-CC-CC
 10
128.47
 20
125.108
 30
0.0
 40
0
 41
0
  0
VERTEX
  8
CCC-CC-CC
 10
128.16
 20
122.804
 30
0.0
 40
0
 41
0
  0
VERTEX
  8
CCC-CC-CC
 10
127.272
 20
119.942
 30
0.0
 40
0
 41
0
  0
VERTEX
  8
CCC-CC-CC
 10
125.866
 20
117.351
 30
0.0
 40
0
 41
0
  0
VERTEX
  8
CCC-CC-CC
 10
124.004
 20
115.094
 30
0.0
 40
0
 41
0
  0
VERTEX
  8
CCC-CC-CC
 10
121.747
 20
113.232
 30
0.0
 40
0
 41
0
  0
VERTEX
  8
CCC-CC-CC
 10
119.156
 20
111.826
 30
0.0
 40
0
 41
0
  0
VERTEX
  8
CCC-CC-CC
 10
116.294
 20
110.938
 30
0.0
 40
0
 41
0
  0
VERTEX
  8
CCC-CC-CC
 10
113.99
 20
110.628
 30
0.0
 40
0
 41
0
  0
VERTEX
  8
CCC-CC-CC
 10
113.222
 20
110.628
 30
0.0
 40
0
 41
0
  0
VERTEX
  8
CCC-CC-CC
 10
112.454
 20
110.628
 30
0.0
 40
0
 41
0
  0
VERTEX
  8
CCC-CC-CC
 10
110.149
 20
110.938
 30
0.0
 40
0
 41
0
  0
VERTEX
  8
CCC-CC-CC
 10
107.287
 20
111.826
 30
0.0
 40
0
 41
0
  0
VERTEX
  8
CCC-CC-CC
 10
104.696
 20
113.232
 30
0.0
 40
0
 41
0
  0
VERTEX
  8
CCC-CC-CC
 10
102.439
 20
115.094
 30
0.0
 40
0
 41
0
  0
VERTEX
  8
CCC-CC-CC
 10
100.578
 20
117.351
 30
0.0
 40
0
 41
0
  0
VERTEX
  8
CCC-CC-CC
 10
99.1718
 20
119.942
 30
0.0
 40
0
 41
0
  0
VERTEX
  8
CCC-CC-CC
 10
98.2832
 20
122.804
 30
0.0
 40
0
 41
0
  0
VERTEX
  8
CCC-CC-CC
 10
97.9745
 20
125.108
 30
0.0
 40
0
 41
0
  0
VERTEX
  8
CCC-CC-CC
 10
97.9745
 20
125.876
 30
0.0
 40
0
 41
0
  0
VERTEX
  8
CCC-CC-CC
 10
97.9745
 20
126.644
 30
0.0
 40
0
 41
0
  0
VERTEX
  8
CCC-CC-CC
 10
98.2832
 20
128.948
 30
0.0
 40
0
 41
0
  0
VERTEX
  8
CCC-CC-CC
 10
99.1718
 20
131.811
 30
0.0
 40
0
 41
0
  0
VERTEX
  8
CCC-CC-CC
 10
100.578
 20
134.401
 30
0.0
 40
0
 41
0
  0
VERTEX
  8
CCC-CC-CC
 10
102.439
 20
136.659
 30
0.0
 40
0
 41
0
  0
VERTEX
  8
CCC-CC-CC
 10
104.696
 20
138.52
 30
0.0
 40
0
 41
0
  0
VERTEX
  8
CCC-CC-CC
 10
107.287
 20
139.926
 30
0.0
 40
0
 41
0
  0
VERTEX
  8
CCC-CC-CC
 10
110.149
 20
140.815
 30
0.0
 40
0
 41
0
  0
VERTEX
  8
CCC-CC-CC
 10
112.454
 20
141.123
 30
0.0
 40
0
 41
0
  0
VERTEX
  8
CCC-CC-CC
 10
113.222
 20
141.123
 30
0.0
 40
0
 41
0
  0
SEQEND
 8
0
  0
POLYLINE
  8
CCC-CC-CC
 66
     1
 10
0
 20
0
 30
0.0
 70
     1
 40
0
 41
0
  0
VERTEX
  8
CCC-CC-CC
 10
113.222
 20
140.92
 30
0.0
 40
0
 41
0
  0
VERTEX
  8
CCC-CC-CC
 10
113.98
 20
140.92
 30
0.0
 40
0
 41
0
  0
VERTEX
  8
CCC-CC-CC
 10
116.254
 20
140.615
 30
0.0
 40
0
 41
0
  0
VERTEX
  8
CCC-CC-CC
 10
119.078
 20
139.738
 30
0.0
 40
0
 41
0
  0
VERTEX
  8
CCC-CC-CC
 10
121.634
 20
138.351
 30
0.0
 40
0
 41
0
  0
VERTEX
  8
CCC-CC-CC
 10
123.86
 20
136.514
 30
0.0
 40
0
 41
0
  0
VERTEX
  8
CCC-CC-CC
 10
125.696
 20
134.287
 30
0.0
 40
0
 41
0
  0
VERTEX
  8
CCC-CC-CC
 10
127.084
 20
131.732
 30
0.0
 40
0
 41
0
  0
VERTEX
  8
CCC-CC-CC
 10
127.961
 20
128.909
 30
0.0
 40
0
 41
0
  0
VERTEX
  8
CCC-CC-CC
 10
128.266
 20
126.635
 30
0.0
 40
0
 41
0
  0
VERTEX
  8
CCC-CC-CC
 10
128.266
 20
125.876
 30
0.0
 40
0
 41
0
  0
VERTEX
  8
CCC-CC-CC
 10
128.266
 20
125.118
 30
0.0
 40
0
 41
0
  0
VERTEX
  8
CCC-CC-CC
 10
127.961
 20
122.844
 30
0.0
 40
0
 41
0
  0
VERTEX
  8
CCC-CC-CC
 10
127.084
 20
120.02
 30
0.0
 40
0
 41
0
  0
VERTEX
  8
CCC-CC-CC
 10
125.696
 20
117.464
 30
0.0
 40
0
 41
0
  0
VERTEX
  8
CCC-CC-CC
 10
123.86
 20
115.238
 30
0.0
 40
0
 41
0
  0
VERTEX
  8
CCC-CC-CC
 10
121.634
 20
113.401
 30
0.0
 40
0
 41
0
  0
VERTEX
  8
CCC-CC-CC
 10
119.078
 20
112.014
 30
0.0
 40
0
 41
0
  0
VERTEX
  8
CCC-CC-CC
 10
116.254
 20
111.137
 30
0.0
 40
0
 41
0
  0
VERTEX
  8
CCC-CC-CC
 10
113.98
 20
110.831
 30
0.0
 40
0
 41
0
  0
VERTEX
  8
CCC-CC-CC
 10
113.222
 20
110.831
 30
0.0
 40
0
 41
0
  0
VERTEX
  8
CCC-CC-CC
 10
112.463
 20
110.831
 30
0.0
 40
0
 41
0
  0
VERTEX
  8
CCC-CC-CC
 10
110.189
 20
111.137
 30
0.0
 40
0
 41
0
  0
VERTEX
  8
CCC-CC-CC
 10
107.366
 20
112.014
 30
0.0
 40
0
 41
0
  0
VERTEX
  8
CCC-CC-CC
 10
104.811
 20
113.401
 30
0.0
 40
0
 41
0
  0
VERTEX
  8
CCC-CC-CC
 10
102.584
 20
115.238
 30
0.0
 40
0
 41
0
  0
VERTEX
  8
CCC-CC-CC
 10
100.747
 20
117.464
 30
0.0
 40
0
 41
0
  0
VERTEX
  8
CCC-CC-CC
 10
99.3592
 20
120.02
 30
0.0
 40
0
 41
0
  0
VERTEX
  8
CCC-CC-CC
 10
98.4829
 20
122.844
 30
0.0
 40
0
 41
0
  0
VERTEX
  8
CCC-CC-CC
 10
98.1784
 20
125.118
 30
0.0
 40
0
 41
0
  0
VERTEX
  8
CCC-CC-CC
 10
98.1784
 20
125.876
 30
0.0
 40
0
 41
0
  0
VERTEX
  8
CCC-CC-CC
 10
98.1784
 20
126.635
 30
0.0
 40
0
 41
0
  0
VERTEX
  8
CCC-CC-CC
 10
98.4829
 20
128.909
 30
0.0
 40
0
 41
0
  0
VERTEX
  8
CCC-CC-CC
 10
99.3592
 20
131.732
 30
0.0
 40
0
 41
0
  0
VERTEX
  8
CCC-CC-CC
 10
100.747
 20
134.287
 30
0.0
 40
0
 41
0
  0
VERTEX
  8
CCC-CC-CC
 10
102.584
 20
136.514
 30
0.0
 40
0
 41
0
  0
VERTEX
  8
CCC-CC-CC
 10
104.811
 20
138.351
 30
0.0
 40
0
 41
0
  0
VERTEX
  8
CCC-CC-CC
 10
107.366
 20
139.738
 30
0.0
 40
0
 41
0
  0
VERTEX
  8
CCC-CC-CC
 10
110.189
 20
140.615
 30
0.0
 40
0
 41
0
  0
VERTEX
  8
CCC-CC-CC
 10
112.463
 20
140.92
 30
0.0
 40
0
 41
0
  0
VERTEX
  8
CCC-CC-CC
 10
113.222
 20
140.92
 30
0.0
 40
0
 41
0
  0
SEQEND
 8
0
  0
POLYLINE
  8
CCC-CC-CC
 66
     1
 10
0
 20
0
 30
0.0
 70
     1
 40
0
 41
0
  0
VERTEX
  8
CCC-CC-CC
 10
143.718
 20
141.123
 30
0.0
 40
0
 41
0
  0
VERTEX
  8
CCC-CC-CC
 10
144.486
 20
141.123
 30
0.0
 40
0
 41
0
  0
VERTEX
  8
CCC-CC-CC
 10
146.79
 20
140.815
 30
0.0
 40
0
 41
0
  0
VERTEX
  8
CCC-CC-CC
 10
149.652
 20
139.926
 30
0.0
 40
0
 41
0
  0
VERTEX
  8
CCC-CC-CC
 10
152.243
 20
138.52
 30
0.0
 40
0
 41
0
  0
VERTEX
  8
CCC-CC-CC
 10
154.499
 20
136.659
 30
0.0
 40
0
 41
0
  0
VERTEX
  8
CCC-CC-CC
 10
156.361
 20
134.401
 30
0.0
 40
0
 41
0
  0
VERTEX
  8
CCC-CC-CC
 10
157.766
 20
131.811
 30
0.0
 40
0
 41
0
  0
VERTEX
  8
CCC-CC-CC
 10
158.655
 20
128.948
 30
0.0
 40
0
 41
0
  0
VERTEX
  8
CCC-CC-CC
 10
158.965
 20
126.644
 30
0.0
 40
0
 41
0
  0
VERTEX
  8
CCC-CC-CC
 10
158.965
 20
125.876
 30
0.0
 40
0
 41
0
  0
VERTEX
  8
CCC-CC-CC
 10
158.965
 20
125.108
 30
0.0
 40
0
 41
0
  0
VERTEX
  8
CCC-CC-CC
 10
158.655
 20
122.804
 30
0.0
 40
0
 41
0
  0
VERTEX
  8
CCC-CC-CC
 10
157.766
 20
119.942
 30
0.0
 40
0
 41
0
  0
VERTEX
  8
CCC-CC-CC
 10
156.361
 20
117.351
 30
0.0
 40
0
 41
0
  0
VERTEX
  8
CCC-CC-CC
 10
154.499
 20
115.094
 30
0.0
 40
0
 41
0
  0
VERTEX
  8
CCC-CC-CC
 10
152.243
 20
113.232
 30
0.0
 40
0
 41
0
  0
VERTEX
  8
CCC-CC-CC
 10
149.652
 20
111.826
 30
0.0
 40
0
 41
0
  0
VERTEX
  8
CCC-CC-CC
 10
146.79
 20
110.938
 30
0.0
 40
0
 41
0
  0
VERTEX
  8
CCC-CC-CC
 10
144.486
 20
110.628
 30
0.0
 40
0
 41
0
  0
VERTEX
  8
CCC-CC-CC
 10
143.718
 20
110.628
 30
0.0
 40
0
 41
0
  0
VERTEX
  8
CCC-CC-CC
 10
142.949
 20
110.628
 30
0.0
 40
0
 41
0
  0
VERTEX
  8
CCC-CC-CC
 10
140.645
 20
110.938
 30
0.0
 40
0
 41
0
  0
VERTEX
  8
CCC-CC-CC
 10
137.783
 20
111.826
 30
0.0
 40
0
 41
0
  0
VERTEX
  8
CCC-CC-CC
 10
135.193
 20
113.232
 30
0.0
 40
0
 41
0
  0
VERTEX
  8
CCC-CC-CC
 10
132.935
 20
115.094
 30
0.0
 40
0
 41
0
  0
VERTEX
  8
CCC-CC-CC
 10
131.074
 20
117.351
 30
0.0
 40
0
 41
0
  0
VERTEX
  8
CCC-CC-CC
 10
129.668
 20
119.942
 30
0.0
 40
0
 41
0
  0
VERTEX
  8
CCC-CC-CC
 10
128.779
 20
122.804
 30
0.0
 40
0
 41
0
  0
VERTEX
  8
CCC-CC-CC
 10
128.47
 20
125.108
 30
0.0
 40
0
 41
0
  0
VERTEX
  8
CCC-CC-CC
 10
128.47
 20
125.876
 30
0.0
 40
0
 41
0
  0
VERTEX
  8
CCC-CC-CC
 10
128.47
 20
126.644
 30
0.0
 40
0
 41
0
  0
VERTEX
  8
CCC-CC-CC
 10
128.779
 20
128.948
 30
0.0
 40
0
 41
0
  0
VERTEX
  8
CCC-CC-CC
 10
129.668
 20
131.811
 30
0.0
 40
0
 41
0
  0
VERTEX
  8
CCC-CC-CC
 10
131.074
 20
134.401
 30
0.0
 40
0
 41
0
  0
VERTEX
  8
CCC-CC-CC
 10
132.935
 20
136.659
 30
0.0
 40
0
 41
0
  0
VERTEX
  8
CCC-CC-CC
 10
135.193
 20
138.52
 30
0.0
 40
0
 41
0
  0
VERTEX
  8
CCC-CC-CC
 10
137.783
 20
139.926
 30
0.0
 40
0
 41
0
  0
VERTEX
  8
CCC-CC-CC
 10
140.645
 20
140.815
 30
0.0
 40
0
 41
0
  0
VERTEX
  8
CCC-CC-CC
 10
142.949
 20
141.123
 30
0.0
 40
0
 41
0
  0
VERTEX
  8
CCC-CC-CC
 10
143.718
 20
141.123
 30
0.0
 40
0
 41
0
  0
SEQEND
 8
0
  0
POLYLINE
  8
CCC-CC-CC
 66
     1
 10
0
 20
0
 30
0.0
 70
     1
 40
0
 41
0
  0
VERTEX
  8
CCC-CC-CC
 10
143.718
 20
140.92
 30
0.0
 40
0
 41
0
  0
VERTEX
  8
CCC-CC-CC
 10
144.476
 20
140.92
 30
0.0
 40
0
 41
0
  0
VERTEX
  8
CCC-CC-CC
 10
146.75
 20
140.615
 30
0.0
 40
0
 41
0
  0
VERTEX
  8
CCC-CC-CC
 10
149.574
 20
139.738
 30
0.0
 40
0
 41
0
  0
VERTEX
  8
CCC-CC-CC
 10
152.128
 20
138.351
 30
0.0
 40
0
 41
0
  0
VERTEX
  8
CCC-CC-CC
 10
154.355
 20
136.514
 30
0.0
 40
0
 41
0
  0
VERTEX
  8
CCC-CC-CC
 10
156.192
 20
134.287
 30
0.0
 40
0
 41
0
  0
VERTEX
  8
CCC-CC-CC
 10
157.58
 20
131.732
 30
0.0
 40
0
 41
0
  0
VERTEX
  8
CCC-CC-CC
 10
158.456
 20
128.909
 30
0.0
 40
0
 41
0
  0
VERTEX
  8
CCC-CC-CC
 10
158.762
 20
126.635
 30
0.0
 40
0
 41
0
  0
VERTEX
  8
CCC-CC-CC
 10
158.762
 20
125.876
 30
0.0
 40
0
 41
0
  0
VERTEX
  8
CCC-CC-CC
 10
158.762
 20
125.118
 30
0.0
 40
0
 41
0
  0
VERTEX
  8
CCC-CC-CC
 10
158.456
 20
122.844
 30
0.0
 40
0
 41
0
  0
VERTEX
  8
CCC-CC-CC
 10
157.58
 20
120.02
 30
0.0
 40
0
 41
0
  0
VERTEX
  8
CCC-CC-CC
 10
156.192
 20
117.464
 30
0.0
 40
0
 41
0
  0
VERTEX
  8
CCC-CC-CC
 10
154.355
 20
115.238
 30
0.0
 40
0
 41
0
  0
VERTEX
  8
CCC-CC-CC
 10
152.128
 20
113.401
 30
0.0
 40
0
 41
0
  0
VERTEX
  8
CCC-CC-CC
 10
149.574
 20
112.014
 30
0.0
 40
0
 41
0
  0
VERTEX
  8
CCC-CC-CC
 10
146.75
 20
111.137
 30
0.0
 40
0
 41
0
  0
VERTEX
  8
CCC-CC-CC
 10
144.476
 20
110.831
 30
0.0
 40
0
 41
0
  0
VERTEX
  8
CCC-CC-CC
 10
143.718
 20
110.831
 30
0.0
 40
0
 41
0
  0
VERTEX
  8
CCC-CC-CC
 10
142.959
 20
110.831
 30
0.0
 40
0
 41
0
  0
VERTEX
  8
CCC-CC-CC
 10
140.685
 20
111.137
 30
0.0
 40
0
 41
0
  0
VERTEX
  8
CCC-CC-CC
 10
137.862
 20
112.014
 30
0.0
 40
0
 41
0
  0
VERTEX
  8
CCC-CC-CC
 10
135.305
 20
113.401
 30
0.0
 40
0
 41
0
  0
VERTEX
  8
CCC-CC-CC
 10
133.078
 20
115.238
 30
0.0
 40
0
 41
0
  0
VERTEX
  8
CCC-CC-CC
 10
131.241
 20
117.464
 30
0.0
 40
0
 41
0
  0
VERTEX
  8
CCC-CC-CC
 10
129.854
 20
120.02
 30
0.0
 40
0
 41
0
  0
VERTEX
  8
CCC-CC-CC
 10
128.977
 20
122.844
 30
0.0
 40
0
 41
0
  0
VERTEX
  8
CCC-CC-CC
 10
128.673
 20
125.118
 30
0.0
 40
0
 41
0
  0
VERTEX
  8
CCC-CC-CC
 10
128.673
 20
125.876
 30
0.0
 40
0
 41
0
  0
VERTEX
  8
CCC-CC-CC
 10
128.673
 20
126.635
 30
0.0
 40
0
 41
0
  0
VERTEX
  8
CCC-CC-CC
 10
128.977
 20
128.909
 30
0.0
 40
0
 41
0
  0
VERTEX
  8
CCC-CC-CC
 10
129.854
 20
131.732
 30
0.0
 40
0
 41
0
  0
VERTEX
  8
CCC-CC-CC
 10
131.241
 20
134.287
 30
0.0
 40
0
 41
0
  0
VERTEX
  8
CCC-CC-CC
 10
133.078
 20
136.514
 30
0.0
 40
0
 41
0
  0
VERTEX
  8
CCC-CC-CC
 10
135.305
 20
138.351
 30
0.0
 40
0
 41
0
  0
VERTEX
  8
CCC-CC-CC
 10
137.862
 20
139.738
 30
0.0
 40
0
 41
0
  0
VERTEX
  8
CCC-CC-CC
 10
140.685
 20
140.615
 30
0.0
 40
0
 41
0
  0
VERTEX
  8
CCC-CC-CC
 10
142.959
 20
140.92
 30
0.0
 40
0
 41
0
  0
VERTEX
  8
CCC-CC-CC
 10
143.718
 20
140.92
 30
0.0
 40
0
 41
0
  0
SEQEND
 8
0
  0
POLYLINE
  8
CCC-CC-CC
 66
     1
 10
0
 20
0
 30
0.0
 70
     1
 40
0
 41
0
  0
VERTEX
  8
CCC-CC-CC
 10
52.2319
 20
110.628
 30
0.0
 40
0
 41
0
  0
VERTEX
  8
CCC-CC-CC
 10
52.9992
 20
110.628
 30
0.0
 40
0
 41
0
  0
VERTEX
  8
CCC-CC-CC
 10
55.3036
 20
110.319
 30
0.0
 40
0
 41
0
  0
VERTEX
  8
CCC-CC-CC
 10
58.1656
 20
109.43
 30
0.0
 40
0
 41
0
  0
VERTEX
  8
CCC-CC-CC
 10
60.7564
 20
108.024
 30
0.0
 40
0
 41
0
  0
VERTEX
  8
CCC-CC-CC
 10
63.0135
 20
106.163
 30
0.0
 40
0
 41
0
  0
VERTEX
  8
CCC-CC-CC
 10
64.8751
 20
103.905
 30
0.0
 40
0
 41
0
  0
VERTEX
  8
CCC-CC-CC
 10
66.2809
 20
101.315
 30
0.0
 40
0
 41
0
  0
VERTEX
  8
CCC-CC-CC
 10
67.1696
 20
98.4525
 30
0.0
 40
0
 41
0
  0
VERTEX
  8
CCC-CC-CC
 10
67.4797
 20
96.1485
 30
0.0
 40
0
 41
0
  0
VERTEX
  8
CCC-CC-CC
 10
67.4797
 20
95.3795
 30
0.0
 40
0
 41
0
  0
VERTEX
  8
CCC-CC-CC
 10
67.4797
 20
94.6118
 30
0.0
 40
0
 41
0
  0
VERTEX
  8
CCC-CC-CC
 10
67.1696
 20
92.3078
 30
0.0
 40
0
 41
0
  0
VERTEX
  8
CCC-CC-CC
 10
66.2809
 20
89.4457
 30
0.0
 40
0
 41
0
  0
VERTEX
  8
CCC-CC-CC
 10
64.8751
 20
86.8549
 30
0.0
 40
0
 41
0
  0
VERTEX
  8
CCC-CC-CC
 10
63.0135
 20
84.5993
 30
0.0
 40
0
 41
0
  0
VERTEX
  8
CCC-CC-CC
 10
60.7564
 20
82.7373
 30
0.0
 40
0
 41
0
  0
VERTEX
  8
CCC-CC-CC
 10
58.1656
 20
81.3319
 30
0.0
 40
0
 41
0
  0
VERTEX
  8
CCC-CC-CC
 10
55.3036
 20
80.4429
 30
0.0
 40
0
 41
0
  0
VERTEX
  8
CCC-CC-CC
 10
52.9992
 20
80.1328
 30
0.0
 40
0
 41
0
  0
VERTEX
  8
CCC-CC-CC
 10
52.2319
 20
80.1328
 30
0.0
 40
0
 41
0
  0
VERTEX
  8
CCC-CC-CC
 10
51.4629
 20
80.1328
 30
0.0
 40
0
 41
0
  0
VERTEX
  8
CCC-CC-CC
 10
49.1589
 20
80.4429
 30
0.0
 40
0
 41
0
  0
VERTEX
  8
CCC-CC-CC
 10
46.2964
 20
81.3319
 30
0.0
 40
0
 41
0
  0
VERTEX
  8
CCC-CC-CC
 10
43.706
 20
82.7373
 30
0.0
 40
0
 41
0
  0
VERTEX
  8
CCC-CC-CC
 10
41.4486
 20
84.5993
 30
0.0
 40
0
 41
0
  0
VERTEX
  8
CCC-CC-CC
 10
39.587
 20
86.8549
 30
0.0
 40
0
 41
0
  0
VERTEX
  8
CCC-CC-CC
 10
38.1811
 20
89.4457
 30
0.0
 40
0
 41
0
  0
VERTEX
  8
CCC-CC-CC
 10
37.2925
 20
92.3078
 30
0.0
 40
0
 41
0
  0
VERTEX
  8
CCC-CC-CC
 10
36.9838
 20
94.6118
 30
0.0
 40
0
 41
0
  0
VERTEX
  8
CCC-CC-CC
 10
36.9838
 20
95.3795
 30
0.0
 40
0
 41
0
  0
VERTEX
  8
CCC-CC-CC
 10
36.9838
 20
96.1485
 30
0.0
 40
0
 41
0
  0
VERTEX
  8
CCC-CC-CC
 10
37.2925
 20
98.4525
 30
0.0
 40
0
 41
0
  0
VERTEX
  8
CCC-CC-CC
 10
38.1811
 20
101.315
 30
0.0
 40
0
 41
0
  0
VERTEX
  8
CCC-CC-CC
 10
39.587
 20
103.905
 30
0.0
 40
0
 41
0
  0
VERTEX
  8
CCC-CC-CC
 10
41.4486
 20
106.163
 30
0.0
 40
0
 41
0
  0
VERTEX
  8
CCC-CC-CC
 10
43.706
 20
108.024
 30
0.0
 40
0
 41
0
  0
VERTEX
  8
CCC-CC-CC
 10
46.2964
 20
109.43
 30
0.0
 40
0
 41
0
  0
VERTEX
  8
CCC-CC-CC
 10
49.1589
 20
110.319
 30
0.0
 40
0
 41
0
  0
VERTEX
  8
CCC-CC-CC
 10
51.4629
 20
110.628
 30
0.0
 40
0
 41
0
  0
VERTEX
  8
CCC-CC-CC
 10
52.2319
 20
110.628
 30
0.0
 40
0
 41
0
  0
SEQEND
 8
0
  0
POLYLINE
  8
CCC-CC-CC
 66
     1
 10
0
 20
0
 30
0.0
 70
     1
 40
0
 41
0
  0
VERTEX
  8
CCC-CC-CC
 10
52.2319
 20
110.425
 30
0.0
 40
0
 41
0
  0
VERTEX
  8
CCC-CC-CC
 10
52.9897
 20
110.425
 30
0.0
 40
0
 41
0
  0
VERTEX
  8
CCC-CC-CC
 10
55.2633
 20
110.12
 30
0.0
 40
0
 41
0
  0
VERTEX
  8
CCC-CC-CC
 10
58.087
 20
109.244
 30
0.0
 40
0
 41
0
  0
VERTEX
  8
CCC-CC-CC
 10
60.6432
 20
107.856
 30
0.0
 40
0
 41
0
  0
VERTEX
  8
CCC-CC-CC
 10
62.8689
 20
106.019
 30
0.0
 40
0
 41
0
  0
VERTEX
  8
CCC-CC-CC
 10
64.7058
 20
103.793
 30
0.0
 40
0
 41
0
  0
VERTEX
  8
CCC-CC-CC
 10
66.0936
 20
101.236
 30
0.0
 40
0
 41
0
  0
VERTEX
  8
CCC-CC-CC
 10
66.9699
 20
98.4127
 30
0.0
 40
0
 41
0
  0
VERTEX
  8
CCC-CC-CC
 10
67.2758
 20
96.139
 30
0.0
 40
0
 41
0
  0
VERTEX
  8
CCC-CC-CC
 10
67.2758
 20
95.3795
 30
0.0
 40
0
 41
0
  0
VERTEX
  8
CCC-CC-CC
 10
67.2758
 20
94.6217
 30
0.0
 40
0
 41
0
  0
VERTEX
  8
CCC-CC-CC
 10
66.9699
 20
92.3477
 30
0.0
 40
0
 41
0
  0
VERTEX
  8
CCC-CC-CC
 10
66.0936
 20
89.5244
 30
0.0
 40
0
 41
0
  0
VERTEX
  8
CCC-CC-CC
 10
64.7058
 20
86.9692
 30
0.0
 40
0
 41
0
  0
VERTEX
  8
CCC-CC-CC
 10
62.8689
 20
84.7425
 30
0.0
 40
0
 41
0
  0
VERTEX
  8
CCC-CC-CC
 10
60.6432
 20
82.9056
 30
0.0
 40
0
 41
0
  0
VERTEX
  8
CCC-CC-CC
 10
58.087
 20
81.5178
 30
0.0
 40
0
 41
0
  0
VERTEX
  8
CCC-CC-CC
 10
55.2633
 20
80.6415
 30
0.0
 40
0
 41
0
  0
VERTEX
  8
CCC-CC-CC
 10
52.9897
 20
80.3356
 30
0.0
 40
0
 41
0
  0
VERTEX
  8
CCC-CC-CC
 10
52.2319
 20
80.3356
 30
0.0
 40
0
 41
0
  0
VERTEX
  8
CCC-CC-CC
 10
51.4724
 20
80.3356
 30
0.0
 40
0
 41
0
  0
VERTEX
  8
CCC-CC-CC
 10
49.1987
 20
80.6415
 30
0.0
 40
0
 41
0
  0
VERTEX
  8
CCC-CC-CC
 10
46.3751
 20
81.5178
 30
0.0
 40
0
 41
0
  0
VERTEX
  8
CCC-CC-CC
 10
43.8203
 20
82.9056
 30
0.0
 40
0
 41
0
  0
VERTEX
  8
CCC-CC-CC
 10
41.5932
 20
84.7425
 30
0.0
 40
0
 41
0
  0
VERTEX
  8
CCC-CC-CC
 10
39.7563
 20
86.9692
 30
0.0
 40
0
 41
0
  0
VERTEX
  8
CCC-CC-CC
 10
38.3688
 20
89.5244
 30
0.0
 40
0
 41
0
  0
VERTEX
  8
CCC-CC-CC
 10
37.4922
 20
92.3477
 30
0.0
 40
0
 41
0
  0
VERTEX
  8
CCC-CC-CC
 10
37.1877
 20
94.6217
 30
0.0
 40
0
 41
0
  0
VERTEX
  8
CCC-CC-CC
 10
37.1877
 20
95.3795
 30
0.0
 40
0
 41
0
  0
VERTEX
  8
CCC-CC-CC
 10
37.1877
 20
96.139
 30
0.0
 40
0
 41
0
  0
VERTEX
  8
CCC-CC-CC
 10
37.4922
 20
98.4127
 30
0.0
 40
0
 41
0
  0
VERTEX
  8
CCC-CC-CC
 10
38.3688
 20
101.236
 30
0.0
 40
0
 41
0
  0
VERTEX
  8
CCC-CC-CC
 10
39.7563
 20
103.793
 30
0.0
 40
0
 41
0
  0
VERTEX
  8
CCC-CC-CC
 10
41.5932
 20
106.019
 30
0.0
 40
0
 41
0
  0
VERTEX
  8
CCC-CC-CC
 10
43.8203
 20
107.856
 30
0.0
 40
0
 41
0
  0
VERTEX
  8
CCC-CC-CC
 10
46.3751
 20
109.244
 30
0.0
 40
0
 41
0
  0
VERTEX
  8
CCC-CC-CC
 10
49.1987
 20
110.12
 30
0.0
 40
0
 41
0
  0
VERTEX
  8
CCC-CC-CC
 10
51.4724
 20
110.425
 30
0.0
 40
0
 41
0
  0
VERTEX
  8
CCC-CC-CC
 10
52.2319
 20
110.425
 30
0.0
 40
0
 41
0
  0
SEQEND
 8
0
  0
POLYLINE
  8
CCC-CC-CC
 66
     1
 10
0
 20
0
 30
0.0
 70
     1
 40
0
 41
0
  0
VERTEX
  8
CCC-CC-CC
 10
82.7278
 20
110.628
 30
0.0
 40
0
 41
0
  0
VERTEX
  8
CCC-CC-CC
 10
83.4954
 20
110.628
 30
0.0
 40
0
 41
0
  0
VERTEX
  8
CCC-CC-CC
 10
85.7994
 20
110.319
 30
0.0
 40
0
 41
0
  0
VERTEX
  8
CCC-CC-CC
 10
88.6615
 20
109.43
 30
0.0
 40
0
 41
0
  0
VERTEX
  8
CCC-CC-CC
 10
91.2523
 20
108.024
 30
0.0
 40
0
 41
0
  0
VERTEX
  8
CCC-CC-CC
 10
93.5083
 20
106.163
 30
0.0
 40
0
 41
0
  0
VERTEX
  8
CCC-CC-CC
 10
95.3699
 20
103.905
 30
0.0
 40
0
 41
0
  0
VERTEX
  8
CCC-CC-CC
 10
96.7754
 20
101.315
 30
0.0
 40
0
 41
0
  0
VERTEX
  8
CCC-CC-CC
 10
97.6644
 20
98.4525
 30
0.0
 40
0
 41
0
  0
VERTEX
  8
CCC-CC-CC
 10
97.9745
 20
96.1485
 30
0.0
 40
0
 41
0
  0
VERTEX
  8
CCC-CC-CC
 10
97.9745
 20
95.3795
 30
0.0
 40
0
 41
0
  0
VERTEX
  8
CCC-CC-CC
 10
97.9745
 20
94.6118
 30
0.0
 40
0
 41
0
  0
VERTEX
  8
CCC-CC-CC
 10
97.6644
 20
92.3078
 30
0.0
 40
0
 41
0
  0
VERTEX
  8
CCC-CC-CC
 10
96.7754
 20
89.4457
 30
0.0
 40
0
 41
0
  0
VERTEX
  8
CCC-CC-CC
 10
95.3699
 20
86.8549
 30
0.0
 40
0
 41
0
  0
VERTEX
  8
CCC-CC-CC
 10
93.5083
 20
84.5993
 30
0.0
 40
0
 41
0
  0
VERTEX
  8
CCC-CC-CC
 10
91.2523
 20
82.7373
 30
0.0
 40
0
 41
0
  0
VERTEX
  8
CCC-CC-CC
 10
88.6615
 20
81.3319
 30
0.0
 40
0
 41
0
  0
VERTEX
  8
CCC-CC-CC
 10
85.7994
 20
80.4429
 30
0.0
 40
0
 41
0
  0
VERTEX
  8
CCC-CC-CC
 10
83.4954
 20
80.1328
 30
0.0
 40
0
 41
0
  0
VERTEX
  8
CCC-CC-CC
 10
82.7278
 20
80.1328
 30
0.0
 40
0
 41
0
  0
VERTEX
  8
CCC-CC-CC
 10
81.9587
 20
80.1328
 30
0.0
 40
0
 41
0
  0
VERTEX
  8
CCC-CC-CC
 10
79.6548
 20
80.4429
 30
0.0
 40
0
 41
0
  0
VERTEX
  8
CCC-CC-CC
 10
76.7927
 20
81.3319
 30
0.0
 40
0
 41
0
  0
VERTEX
  8
CCC-CC-CC
 10
74.2019
 20
82.7373
 30
0.0
 40
0
 41
0
  0
VERTEX
  8
CCC-CC-CC
 10
71.9448
 20
84.5993
 30
0.0
 40
0
 41
0
  0
VERTEX
  8
CCC-CC-CC
 10
70.0828
 20
86.8549
 30
0.0
 40
0
 41
0
  0
VERTEX
  8
CCC-CC-CC
 10
68.6774
 20
89.4457
 30
0.0
 40
0
 41
0
  0
VERTEX
  8
CCC-CC-CC
 10
67.7884
 20
92.3078
 30
0.0
 40
0
 41
0
  0
VERTEX
  8
CCC-CC-CC
 10
67.4797
 20
94.6118
 30
0.0
 40
0
 41
0
  0
VERTEX
  8
CCC-CC-CC
 10
67.4797
 20
95.3795
 30
0.0
 40
0
 41
0
  0
VERTEX
  8
CCC-CC-CC
 10
67.4797
 20
96.1485
 30
0.0
 40
0
 41
0
  0
VERTEX
  8
CCC-CC-CC
 10
67.7884
 20
98.4525
 30
0.0
 40
0
 41
0
  0
VERTEX
  8
CCC-CC-CC
 10
68.6774
 20
101.315
 30
0.0
 40
0
 41
0
  0
VERTEX
  8
CCC-CC-CC
 10
70.0828
 20
103.905
 30
0.0
 40
0
 41
0
  0
VERTEX
  8
CCC-CC-CC
 10
71.9448
 20
106.163
 30
0.0
 40
0
 41
0
  0
VERTEX
  8
CCC-CC-CC
 10
74.2019
 20
108.024
 30
0.0
 40
0
 41
0
  0
VERTEX
  8
CCC-CC-CC
 10
76.7927
 20
109.43
 30
0.0
 40
0
 41
0
  0
VERTEX
  8
CCC-CC-CC
 10
79.6548
 20
110.319
 30
0.0
 40
0
 41
0
  0
VERTEX
  8
CCC-CC-CC
 10
81.9587
 20
110.628
 30
0.0
 40
0
 41
0
  0
VERTEX
  8
CCC-CC-CC
 10
82.7278
 20
110.628
 30
0.0
 40
0
 41
0
  0
SEQEND
 8
0
  0
POLYLINE
  8
CCC-CC-CC
 66
     1
 10
0
 20
0
 30
0.0
 70
     1
 40
0
 41
0
  0
VERTEX
  8
CCC-CC-CC
 10
82.7278
 20
110.425
 30
0.0
 40
0
 41
0
  0
VERTEX
  8
CCC-CC-CC
 10
83.4856
 20
110.425
 30
0.0
 40
0
 41
0
  0
VERTEX
  8
CCC-CC-CC
 10
85.7596
 20
110.12
 30
0.0
 40
0
 41
0
  0
VERTEX
  8
CCC-CC-CC
 10
88.5832
 20
109.244
 30
0.0
 40
0
 41
0
  0
VERTEX
  8
CCC-CC-CC
 10
91.138
 20
107.856
 30
0.0
 40
0
 41
0
  0
VERTEX
  8
CCC-CC-CC
 10
93.3648
 20
106.019
 30
0.0
 40
0
 41
0
  0
VERTEX
  8
CCC-CC-CC
 10
95.2017
 20
103.793
 30
0.0
 40
0
 41
0
  0
VERTEX
  8
CCC-CC-CC
 10
96.5895
 20
101.236
 30
0.0
 40
0
 41
0
  0
VERTEX
  8
CCC-CC-CC
 10
97.4658
 20
98.4127
 30
0.0
 40
0
 41
0
  0
VERTEX
  8
CCC-CC-CC
 10
97.7717
 20
96.139
 30
0.0
 40
0
 41
0
  0
VERTEX
  8
CCC-CC-CC
 10
97.7717
 20
95.3795
 30
0.0
 40
0
 41
0
  0
VERTEX
  8
CCC-CC-CC
 10
97.7717
 20
94.6217
 30
0.0
 40
0
 41
0
  0
VERTEX
  8
CCC-CC-CC
 10
97.4658
 20
92.3477
 30
0.0
 40
0
 41
0
  0
VERTEX
  8
CCC-CC-CC
 10
96.5895
 20
89.5244
 30
0.0
 40
0
 41
0
  0
VERTEX
  8
CCC-CC-CC
 10
95.2017
 20
86.9692
 30
0.0
 40
0
 41
0
  0
VERTEX
  8
CCC-CC-CC
 10
93.3648
 20
84.7425
 30
0.0
 40
0
 41
0
  0
VERTEX
  8
CCC-CC-CC
 10
91.138
 20
82.9056
 30
0.0
 40
0
 41
0
  0
VERTEX
  8
CCC-CC-CC
 10
88.5832
 20
81.5178
 30
0.0
 40
0
 41
0
  0
VERTEX
  8
CCC-CC-CC
 10
85.7596
 20
80.6415
 30
0.0
 40
0
 41
0
  0
VERTEX
  8
CCC-CC-CC
 10
83.4856
 20
80.3356
 30
0.0
 40
0
 41
0
  0
VERTEX
  8
CCC-CC-CC
 10
82.7278
 20
80.3356
 30
0.0
 40
0
 41
0
  0
VERTEX
  8
CCC-CC-CC
 10
81.9686
 20
80.3356
 30
0.0
 40
0
 41
0
  0
VERTEX
  8
CCC-CC-CC
 10
79.6946
 20
80.6415
 30
0.0
 40
0
 41
0
  0
VERTEX
  8
CCC-CC-CC
 10
76.871
 20
81.5178
 30
0.0
 40
0
 41
0
  0
VERTEX
  8
CCC-CC-CC
 10
74.3148
 20
82.9056
 30
0.0
 40
0
 41
0
  0
VERTEX
  8
CCC-CC-CC
 10
72.088
 20
84.7425
 30
0.0
 40
0
 41
0
  0
VERTEX
  8
CCC-CC-CC
 10
70.2511
 20
86.9692
 30
0.0
 40
0
 41
0
  0
VERTEX
  8
CCC-CC-CC
 10
68.8633
 20
89.5244
 30
0.0
 40
0
 41
0
  0
VERTEX
  8
CCC-CC-CC
 10
67.987
 20
92.3477
 30
0.0
 40
0
 41
0
  0
VERTEX
  8
CCC-CC-CC
 10
67.6822
 20
94.6217
 30
0.0
 40
0
 41
0
  0
VERTEX
  8
CCC-CC-CC
 10
67.6822
 20
95.3795
 30
0.0
 40
0
 41
0
  0
VERTEX
  8
CCC-CC-CC
 10
67.6822
 20
96.139
 30
0.0
 40
0
 41
0
  0
VERTEX
  8
CCC-CC-CC
 10
67.987
 20
98.4127
 30
0.0
 40
0
 41
0
  0
VERTEX
  8
CCC-CC-CC
 10
68.8633
 20
101.236
 30
0.0
 40
0
 41
0
  0
VERTEX
  8
CCC-CC-CC
 10
70.2511
 20
103.793
 30
0.0
 40
0
 41
0
  0
VERTEX
  8
CCC-CC-CC
 10
72.088
 20
106.019
 30
0.0
 40
0
 41
0
  0
VERTEX
  8
CCC-CC-CC
 10
74.3148
 20
107.856
 30
0.0
 40
0
 41
0
  0
VERTEX
  8
CCC-CC-CC
 10
76.871
 20
109.244
 30
0.0
 40
0
 41
0
  0
VERTEX
  8
CCC-CC-CC
 10
79.6946
 20
110.12
 30
0.0
 40
0
 41
0
  0
VERTEX
  8
CCC-CC-CC
 10
81.9686
 20
110.425
 30
0.0
 40
0
 41
0
  0
VERTEX
  8
CCC-CC-CC
 10
82.7278
 20
110.425
 30
0.0
 40
0
 41
0
  0
SEQEND
 8
0
  0
POLYLINE
  8
CCC-CC-CC
 66
     1
 10
0
 20
0
 30
0.0
 70
     1
 40
0
 41
0
  0
VERTEX
  8
CCC-CC-CC
 10
113.222
 20
110.628
 30
0.0
 40
0
 41
0
  0
VERTEX
  8
CCC-CC-CC
 10
113.99
 20
110.628
 30
0.0
 40
0
 41
0
  0
VERTEX
  8
CCC-CC-CC
 10
116.294
 20
110.319
 30
0.0
 40
0
 41
0
  0
VERTEX
  8
CCC-CC-CC
 10
119.156
 20
109.43
 30
0.0
 40
0
 41
0
  0
VERTEX
  8
CCC-CC-CC
 10
121.747
 20
108.024
 30
0.0
 40
0
 41
0
  0
VERTEX
  8
CCC-CC-CC
 10
124.004
 20
106.163
 30
0.0
 40
0
 41
0
  0
VERTEX
  8
CCC-CC-CC
 10
125.866
 20
103.905
 30
0.0
 40
0
 41
0
  0
VERTEX
  8
CCC-CC-CC
 10
127.272
 20
101.315
 30
0.0
 40
0
 41
0
  0
VERTEX
  8
CCC-CC-CC
 10
128.16
 20
98.4525
 30
0.0
 40
0
 41
0
  0
VERTEX
  8
CCC-CC-CC
 10
128.47
 20
96.1485
 30
0.0
 40
0
 41
0
  0
VERTEX
  8
CCC-CC-CC
 10
128.47
 20
95.3795
 30
0.0
 40
0
 41
0
  0
VERTEX
  8
CCC-CC-CC
 10
128.47
 20
94.6118
 30
0.0
 40
0
 41
0
  0
VERTEX
  8
CCC-CC-CC
 10
128.16
 20
92.3078
 30
0.0
 40
0
 41
0
  0
VERTEX
  8
CCC-CC-CC
 10
127.272
 20
89.4457
 30
0.0
 40
0
 41
0
  0
VERTEX
  8
CCC-CC-CC
 10
125.866
 20
86.8549
 30
0.0
 40
0
 41
0
  0
VERTEX
  8
CCC-CC-CC
 10
124.004
 20
84.5993
 30
0.0
 40
0
 41
0
  0
VERTEX
  8
CCC-CC-CC
 10
121.747
 20
82.7373
 30
0.0
 40
0
 41
0
  0
VERTEX
  8
CCC-CC-CC
 10
119.156
 20
81.3319
 30
0.0
 40
0
 41
0
  0
VERTEX
  8
CCC-CC-CC
 10
116.294
 20
80.4429
 30
0.0
 40
0
 41
0
  0
VERTEX
  8
CCC-CC-CC
 10
113.99
 20
80.1328
 30
0.0
 40
0
 41
0
  0
VERTEX
  8
CCC-CC-CC
 10
113.222
 20
80.1328
 30
0.0
 40
0
 41
0
  0
VERTEX
  8
CCC-CC-CC
 10
112.454
 20
80.1328
 30
0.0
 40
0
 41
0
  0
VERTEX
  8
CCC-CC-CC
 10
110.149
 20
80.4429
 30
0.0
 40
0
 41
0
  0
VERTEX
  8
CCC-CC-CC
 10
107.287
 20
81.3319
 30
0.0
 40
0
 41
0
  0
VERTEX
  8
CCC-CC-CC
 10
104.696
 20
82.7373
 30
0.0
 40
0
 41
0
  0
VERTEX
  8
CCC-CC-CC
 10
102.439
 20
84.5993
 30
0.0
 40
0
 41
0
  0
VERTEX
  8
CCC-CC-CC
 10
100.578
 20
86.8549
 30
0.0
 40
0
 41
0
  0
VERTEX
  8
CCC-CC-CC
 10
99.1718
 20
89.4457
 30
0.0
 40
0
 41
0
  0
VERTEX
  8
CCC-CC-CC
 10
98.2832
 20
92.3078
 30
0.0
 40
0
 41
0
  0
VERTEX
  8
CCC-CC-CC
 10
97.9745
 20
94.6118
 30
0.0
 40
0
 41
0
  0
VERTEX
  8
CCC-CC-CC
 10
97.9745
 20
95.3795
 30
0.0
 40
0
 41
0
  0
VERTEX
  8
CCC-CC-CC
 10
97.9745
 20
96.1485
 30
0.0
 40
0
 41
0
  0
VERTEX
  8
CCC-CC-CC
 10
98.2832
 20
98.4525
 30
0.0
 40
0
 41
0
  0
VERTEX
  8
CCC-CC-CC
 10
99.1718
 20
101.315
 30
0.0
 40
0
 41
0
  0
VERTEX
  8
CCC-CC-CC
 10
100.578
 20
103.905
 30
0.0
 40
0
 41
0
  0
VERTEX
  8
CCC-CC-CC
 10
102.439
 20
106.163
 30
0.0
 40
0
 41
0
  0
VERTEX
  8
CCC-CC-CC
 10
104.696
 20
108.024
 30
0.0
 40
0
 41
0
  0
VERTEX
  8
CCC-CC-CC
 10
107.287
 20
109.43
 30
0.0
 40
0
 41
0
  0
VERTEX
  8
CCC-CC-CC
 10
110.149
 20
110.319
 30
0.0
 40
0
 41
0
  0
VERTEX
  8
CCC-CC-CC
 10
112.454
 20
110.628
 30
0.0
 40
0
 41
0
  0
VERTEX
  8
CCC-CC-CC
 10
113.222
 20
110.628
 30
0.0
 40
0
 41
0
  0
SEQEND
 8
0
  0
POLYLINE
  8
CCC-CC-CC
 66
     1
 10
0
 20
0
 30
0.0
 70
     1
 40
0
 41
0
  0
VERTEX
  8
CCC-CC-CC
 10
113.222
 20
110.425
 30
0.0
 40
0
 41
0
  0
VERTEX
  8
CCC-CC-CC
 10
113.98
 20
110.425
 30
0.0
 40
0
 41
0
  0
VERTEX
  8
CCC-CC-CC
 10
116.254
 20
110.12
 30
0.0
 40
0
 41
0
  0
VERTEX
  8
CCC-CC-CC
 10
119.078
 20
109.244
 30
0.0
 40
0
 41
0
  0
VERTEX
  8
CCC-CC-CC
 10
121.634
 20
107.856
 30
0.0
 40
0
 41
0
  0
VERTEX
  8
CCC-CC-CC
 10
123.86
 20
106.019
 30
0.0
 40
0
 41
0
  0
VERTEX
  8
CCC-CC-CC
 10
125.696
 20
103.793
 30
0.0
 40
0
 41
0
  0
VERTEX
  8
CCC-CC-CC
 10
127.084
 20
101.236
 30
0.0
 40
0
 41
0
  0
VERTEX
  8
CCC-CC-CC
 10
127.961
 20
98.4127
 30
0.0
 40
0
 41
0
  0
VERTEX
  8
CCC-CC-CC
 10
128.266
 20
96.139
 30
0.0
 40
0
 41
0
  0
VERTEX
  8
CCC-CC-CC
 10
128.266
 20
95.3795
 30
0.0
 40
0
 41
0
  0
VERTEX
  8
CCC-CC-CC
 10
128.266
 20
94.6217
 30
0.0
 40
0
 41
0
  0
VERTEX
  8
CCC-CC-CC
 10
127.961
 20
92.3477
 30
0.0
 40
0
 41
0
  0
VERTEX
  8
CCC-CC-CC
 10
127.084
 20
89.5244
 30
0.0
 40
0
 41
0
  0
VERTEX
  8
CCC-CC-CC
 10
125.696
 20
86.9692
 30
0.0
 40
0
 41
0
  0
VERTEX
  8
CCC-CC-CC
 10
123.86
 20
84.7425
 30
0.0
 40
0
 41
0
  0
VERTEX
  8
CCC-CC-CC
 10
121.634
 20
82.9056
 30
0.0
 40
0
 41
0
  0
VERTEX
  8
CCC-CC-CC
 10
119.078
 20
81.5178
 30
0.0
 40
0
 41
0
  0
VERTEX
  8
CCC-CC-CC
 10
116.254
 20
80.6415
 30
0.0
 40
0
 41
0
  0
VERTEX
  8
CCC-CC-CC
 10
113.98
 20
80.3356
 30
0.0
 40
0
 41
0
  0
VERTEX
  8
CCC-CC-CC
 10
113.222
 20
80.3356
 30
0.0
 40
0
 41
0
  0
VERTEX
  8
CCC-CC-CC
 10
112.463
 20
80.3356
 30
0.0
 40
0
 41
0
  0
VERTEX
  8
CCC-CC-CC
 10
110.189
 20
80.6415
 30
0.0
 40
0
 41
0
  0
VERTEX
  8
CCC-CC-CC
 10
107.366
 20
81.5178
 30
0.0
 40
0
 41
0
  0
VERTEX
  8
CCC-CC-CC
 10
104.811
 20
82.9056
 30
0.0
 40
0
 41
0
  0
VERTEX
  8
CCC-CC-CC
 10
102.584
 20
84.7425
 30
0.0
 40
0
 41
0
  0
VERTEX
  8
CCC-CC-CC
 10
100.747
 20
86.9692
 30
0.0
 40
0
 41
0
  0
VERTEX
  8
CCC-CC-CC
 10
99.3592
 20
89.5244
 30
0.0
 40
0
 41
0
  0
VERTEX
  8
CCC-CC-CC
 10
98.4829
 20
92.3477
 30
0.0
 40
0
 41
0
  0
VERTEX
  8
CCC-CC-CC
 10
98.1784
 20
94.6217
 30
0.0
 40
0
 41
0
  0
VERTEX
  8
CCC-CC-CC
 10
98.1784
 20
95.3795
 30
0.0
 40
0
 41
0
  0
VERTEX
  8
CCC-CC-CC
 10
98.1784
 20
96.139
 30
0.0
 40
0
 41
0
  0
VERTEX
  8
CCC-CC-CC
 10
98.4829
 20
98.4127
 30
0.0
 40
0
 41
0
  0
VERTEX
  8
CCC-CC-CC
 10
99.3592
 20
101.236
 30
0.0
 40
0
 41
0
  0
VERTEX
  8
CCC-CC-CC
 10
100.747
 20
103.793
 30
0.0
 40
0
 41
0
  0
VERTEX
  8
CCC-CC-CC
 10
102.584
 20
106.019
 30
0.0
 40
0
 41
0
  0
VERTEX
  8
CCC-CC-CC
 10
104.811
 20
107.856
 30
0.0
 40
0
 41
0
  0
VERTEX
  8
CCC-CC-CC
 10
107.366
 20
109.244
 30
0.0
 40
0
 41
0
  0
VERTEX
  8
CCC-CC-CC
 10
110.189
 20
110.12
 30
0.0
 40
0
 41
0
  0
VERTEX
  8
CCC-CC-CC
 10
112.463
 20
110.425
 30
0.0
 40
0
 41
0
  0
VERTEX
  8
CCC-CC-CC
 10
113.222
 20
110.425
 30
0.0
 40
0
 41
0
  0
SEQEND
 8
0
  0
POLYLINE
  8
CCC-CC-CC
 66
     1
 10
0
 20
0
 30
0.0
 70
     1
 40
0
 41
0
  0
VERTEX
  8
CCC-CC-CC
 10
143.718
 20
110.628
 30
0.0
 40
0
 41
0
  0
VERTEX
  8
CCC-CC-CC
 10
144.486
 20
110.628
 30
0.0
 40
0
 41
0
  0
VERTEX
  8
CCC-CC-CC
 10
146.79
 20
110.319
 30
0.0
 40
0
 41
0
  0
VERTEX
  8
CCC-CC-CC
 10
149.652
 20
109.43
 30
0.0
 40
0
 41
0
  0
VERTEX
  8
CCC-CC-CC
 10
152.243
 20
108.024
 30
0.0
 40
0
 41
0
  0
VERTEX
  8
CCC-CC-CC
 10
154.499
 20
106.163
 30
0.0
 40
0
 41
0
  0
VERTEX
  8
CCC-CC-CC
 10
156.361
 20
103.905
 30
0.0
 40
0
 41
0
  0
VERTEX
  8
CCC-CC-CC
 10
157.766
 20
101.315
 30
0.0
 40
0
 41
0
  0
VERTEX
  8
CCC-CC-CC
 10
158.655
 20
98.4525
 30
0.0
 40
0
 41
0
  0
VERTEX
  8
CCC-CC-CC
 10
158.965
 20
96.1485
 30
0.0
 40
0
 41
0
  0
VERTEX
  8
CCC-CC-CC
 10
158.965
 20
95.3795
 30
0.0
 40
0
 41
0
  0
VERTEX
  8
CCC-CC-CC
 10
158.965
 20
94.6118
 30
0.0
 40
0
 41
0
  0
VERTEX
  8
CCC-CC-CC
 10
158.655
 20
92.3078
 30
0.0
 40
0
 41
0
  0
VERTEX
  8
CCC-CC-CC
 10
157.766
 20
89.4457
 30
0.0
 40
0
 41
0
  0
VERTEX
  8
CCC-CC-CC
 10
156.361
 20
86.8549
 30
0.0
 40
0
 41
0
  0
VERTEX
  8
CCC-CC-CC
 10
154.499
 20
84.5993
 30
0.0
 40
0
 41
0
  0
VERTEX
  8
CCC-CC-CC
 10
152.243
 20
82.7373
 30
0.0
 40
0
 41
0
  0
VERTEX
  8
CCC-CC-CC
 10
149.652
 20
81.3319
 30
0.0
 40
0
 41
0
  0
VERTEX
  8
CCC-CC-CC
 10
146.79
 20
80.4429
 30
0.0
 40
0
 41
0
  0
VERTEX
  8
CCC-CC-CC
 10
144.486
 20
80.1328
 30
0.0
 40
0
 41
0
  0
VERTEX
  8
CCC-CC-CC
 10
143.718
 20
80.1328
 30
0.0
 40
0
 41
0
  0
VERTEX
  8
CCC-CC-CC
 10
142.949
 20
80.1328
 30
0.0
 40
0
 41
0
  0
VERTEX
  8
CCC-CC-CC
 10
140.645
 20
80.4429
 30
0.0
 40
0
 41
0
  0
VERTEX
  8
CCC-CC-CC
 10
137.783
 20
81.3319
 30
0.0
 40
0
 41
0
  0
VERTEX
  8
CCC-CC-CC
 10
135.193
 20
82.7373
 30
0.0
 40
0
 41
0
  0
VERTEX
  8
CCC-CC-CC
 10
132.935
 20
84.5993
 30
0.0
 40
0
 41
0
  0
VERTEX
  8
CCC-CC-CC
 10
131.074
 20
86.8549
 30
0.0
 40
0
 41
0
  0
VERTEX
  8
CCC-CC-CC
 10
129.668
 20
89.4457
 30
0.0
 40
0
 41
0
  0
VERTEX
  8
CCC-CC-CC
 10
128.779
 20
92.3078
 30
0.0
 40
0
 41
0
  0
VERTEX
  8
CCC-CC-CC
 10
128.47
 20
94.6118
 30
0.0
 40
0
 41
0
  0
VERTEX
  8
CCC-CC-CC
 10
128.47
 20
95.3795
 30
0.0
 40
0
 41
0
  0
VERTEX
  8
CCC-CC-CC
 10
128.47
 20
96.1485
 30
0.0
 40
0
 41
0
  0
VERTEX
  8
CCC-CC-CC
 10
128.779
 20
98.4525
 30
0.0
 40
0
 41
0
  0
VERTEX
  8
CCC-CC-CC
 10
129.668
 20
101.315
 30
0.0
 40
0
 41
0
  0
VERTEX
  8
CCC-CC-CC
 10
131.074
 20
103.905
 30
0.0
 40
0
 41
0
  0
VERTEX
  8
CCC-CC-CC
 10
132.935
 20
106.163
 30
0.0
 40
0
 41
0
  0
VERTEX
  8
CCC-CC-CC
 10
135.193
 20
108.024
 30
0.0
 40
0
 41
0
  0
VERTEX
  8
CCC-CC-CC
 10
137.783
 20
109.43
 30
0.0
 40
0
 41
0
  0
VERTEX
  8
CCC-CC-CC
 10
140.645
 20
110.319
 30
0.0
 40
0
 41
0
  0
VERTEX
  8
CCC-CC-CC
 10
142.949
 20
110.628
 30
0.0
 40
0
 41
0
  0
VERTEX
  8
CCC-CC-CC
 10
143.718
 20
110.628
 30
0.0
 40
0
 41
0
  0
SEQEND
 8
0
  0
POLYLINE
  8
CCC-CC-CC
 66
     1
 10
0
 20
0
 30
0.0
 70
     1
 40
0
 41
0
  0
VERTEX
  8
CCC-CC-CC
 10
143.718
 20
110.425
 30
0.0
 40
0
 41
0
  0
VERTEX
  8
CCC-CC-CC
 10
144.476
 20
110.425
 30
0.0
 40
0
 41
0
  0
VERTEX
  8
CCC-CC-CC
 10
146.75
 20
110.12
 30
0.0
 40
0
 41
0
  0
VERTEX
  8
CCC-CC-CC
 10
149.574
 20
109.244
 30
0.0
 40
0
 41
0
  0
VERTEX
  8
CCC-CC-CC
 10
152.128
 20
107.856
 30
0.0
 40
0
 41
0
  0
VERTEX
  8
CCC-CC-CC
 10
154.355
 20
106.019
 30
0.0
 40
0
 41
0
  0
VERTEX
  8
CCC-CC-CC
 10
156.192
 20
103.793
 30
0.0
 40
0
 41
0
  0
VERTEX
  8
CCC-CC-CC
 10
157.58
 20
101.236
 30
0.0
 40
0
 41
0
  0
VERTEX
  8
CCC-CC-CC
 10
158.456
 20
98.4127
 30
0.0
 40
0
 41
0
  0
VERTEX
  8
CCC-CC-CC
 10
158.762
 20
96.139
 30
0.0
 40
0
 41
0
  0
VERTEX
  8
CCC-CC-CC
 10
158.762
 20
95.3795
 30
0.0
 40
0
 41
0
  0
VERTEX
  8
CCC-CC-CC
 10
158.762
 20
94.6217
 30
0.0
 40
0
 41
0
  0
VERTEX
  8
CCC-CC-CC
 10
158.456
 20
92.3477
 30
0.0
 40
0
 41
0
  0
VERTEX
  8
CCC-CC-CC
 10
157.58
 20
89.5244
 30
0.0
 40
0
 41
0
  0
VERTEX
  8
CCC-CC-CC
 10
156.192
 20
86.9692
 30
0.0
 40
0
 41
0
  0
VERTEX
  8
CCC-CC-CC
 10
154.355
 20
84.7425
 30
0.0
 40
0
 41
0
  0
VERTEX
  8
CCC-CC-CC
 10
152.128
 20
82.9056
 30
0.0
 40
0
 41
0
  0
VERTEX
  8
CCC-CC-CC
 10
149.574
 20
81.5178
 30
0.0
 40
0
 41
0
  0
VERTEX
  8
CCC-CC-CC
 10
146.75
 20
80.6415
 30
0.0
 40
0
 41
0
  0
VERTEX
  8
CCC-CC-CC
 10
144.476
 20
80.3356
 30
0.0
 40
0
 41
0
  0
VERTEX
  8
CCC-CC-CC
 10
143.718
 20
80.3356
 30
0.0
 40
0
 41
0
  0
VERTEX
  8
CCC-CC-CC
 10
142.959
 20
80.3356
 30
0.0
 40
0
 41
0
  0
VERTEX
  8
CCC-CC-CC
 10
140.685
 20
80.6415
 30
0.0
 40
0
 41
0
  0
VERTEX
  8
CCC-CC-CC
 10
137.862
 20
81.5178
 30
0.0
 40
0
 41
0
  0
VERTEX
  8
CCC-CC-CC
 10
135.305
 20
82.9056
 30
0.0
 40
0
 41
0
  0
VERTEX
  8
CCC-CC-CC
 10
133.078
 20
84.7425
 30
0.0
 40
0
 41
0
  0
VERTEX
  8
CCC-CC-CC
 10
131.241
 20
86.9692
 30
0.0
 40
0
 41
0
  0
VERTEX
  8
CCC-CC-CC
 10
129.854
 20
89.5244
 30
0.0
 40
0
 41
0
  0
VERTEX
  8
CCC-CC-CC
 10
128.977
 20
92.3477
 30
0.0
 40
0
 41
0
  0
VERTEX
  8
CCC-CC-CC
 10
128.673
 20
94.6217
 30
0.0
 40
0
 41
0
  0
VERTEX
  8
CCC-CC-CC
 10
128.673
 20
95.3795
 30
0.0
 40
0
 41
0
  0
VERTEX
  8
CCC-CC-CC
 10
128.673
 20
96.139
 30
0.0
 40
0
 41
0
  0
VERTEX
  8
CCC-CC-CC
 10
128.977
 20
98.4127
 30
0.0
 40
0
 41
0
  0
VERTEX
  8
CCC-CC-CC
 10
129.854
 20
101.236
 30
0.0
 40
0
 41
0
  0
VERTEX
  8
CCC-CC-CC
 10
131.241
 20
103.793
 30
0.0
 40
0
 41
0
  0
VERTEX
  8
CCC-CC-CC
 10
133.078
 20
106.019
 30
0.0
 40
0
 41
0
  0
VERTEX
  8
CCC-CC-CC
 10
135.305
 20
107.856
 30
0.0
 40
0
 41
0
  0
VERTEX
  8
CCC-CC-CC
 10
137.862
 20
109.244
 30
0.0
 40
0
 41
0
  0
VERTEX
  8
CCC-CC-CC
 10
140.685
 20
110.12
 30
0.0
 40
0
 41
0
  0
VERTEX
  8
CCC-CC-CC
 10
142.959
 20
110.425
 30
0.0
 40
0
 41
0
  0
VERTEX
  8
CCC-CC-CC
 10
143.718
 20
110.425
 30
0.0
 40
0
 41
0
  0
SEQEND
 8
0
  0
POLYLINE
  8
CCC-CC-CC
 66
     1
 10
0
 20
0
 30
0.0
 70
     1
 40
0
 41
0
  0
VERTEX
  8
CCC-CC-CC
 10
52.2319
 20
80.1328
 30
0.0
 40
0
 41
0
  0
VERTEX
  8
CCC-CC-CC
 10
52.9992
 20
80.1328
 30
0.0
 40
0
 41
0
  0
VERTEX
  8
CCC-CC-CC
 10
55.3036
 20
79.8241
 30
0.0
 40
0
 41
0
  0
VERTEX
  8
CCC-CC-CC
 10
58.1656
 20
78.9354
 30
0.0
 40
0
 41
0
  0
VERTEX
  8
CCC-CC-CC
 10
60.7564
 20
77.53
 30
0.0
 40
0
 41
0
  0
VERTEX
  8
CCC-CC-CC
 10
63.0135
 20
75.668
 30
0.0
 40
0
 41
0
  0
VERTEX
  8
CCC-CC-CC
 10
64.8751
 20
73.4109
 30
0.0
 40
0
 41
0
  0
VERTEX
  8
CCC-CC-CC
 10
66.2809
 20
70.8201
 30
0.0
 40
0
 41
0
  0
VERTEX
  8
CCC-CC-CC
 10
67.1696
 20
67.9581
 30
0.0
 40
0
 41
0
  0
VERTEX
  8
CCC-CC-CC
 10
67.4797
 20
65.6537
 30
0.0
 40
0
 41
0
  0
VERTEX
  8
CCC-CC-CC
 10
67.4797
 20
64.885
 30
0.0
 40
0
 41
0
  0
VERTEX
  8
CCC-CC-CC
 10
67.4797
 20
64.1174
 30
0.0
 40
0
 41
0
  0
VERTEX
  8
CCC-CC-CC
 10
67.1696
 20
61.8134
 30
0.0
 40
0
 41
0
  0
VERTEX
  8
CCC-CC-CC
 10
66.2809
 20
58.9509
 30
0.0
 40
0
 41
0
  0
VERTEX
  8
CCC-CC-CC
 10
64.8751
 20
56.3605
 30
0.0
 40
0
 41
0
  0
VERTEX
  8
CCC-CC-CC
 10
63.0135
 20
54.1031
 30
0.0
 40
0
 41
0
  0
VERTEX
  8
CCC-CC-CC
 10
60.7564
 20
52.2414
 30
0.0
 40
0
 41
0
  0
VERTEX
  8
CCC-CC-CC
 10
58.1656
 20
50.836
 30
0.0
 40
0
 41
0
  0
VERTEX
  8
CCC-CC-CC
 10
55.3036
 20
49.947
 30
0.0
 40
0
 41
0
  0
VERTEX
  8
CCC-CC-CC
 10
52.9992
 20
49.6369
 30
0.0
 40
0
 41
0
  0
VERTEX
  8
CCC-CC-CC
 10
52.2319
 20
49.6369
 30
0.0
 40
0
 41
0
  0
VERTEX
  8
CCC-CC-CC
 10
51.4629
 20
49.6369
 30
0.0
 40
0
 41
0
  0
VERTEX
  8
CCC-CC-CC
 10
49.1589
 20
49.947
 30
0.0
 40
0
 41
0
  0
VERTEX
  8
CCC-CC-CC
 10
46.2964
 20
50.836
 30
0.0
 40
0
 41
0
  0
VERTEX
  8
CCC-CC-CC
 10
43.706
 20
52.2414
 30
0.0
 40
0
 41
0
  0
VERTEX
  8
CCC-CC-CC
 10
41.4486
 20
54.1031
 30
0.0
 40
0
 41
0
  0
VERTEX
  8
CCC-CC-CC
 10
39.587
 20
56.3605
 30
0.0
 40
0
 41
0
  0
VERTEX
  8
CCC-CC-CC
 10
38.1811
 20
58.9509
 30
0.0
 40
0
 41
0
  0
VERTEX
  8
CCC-CC-CC
 10
37.2925
 20
61.8134
 30
0.0
 40
0
 41
0
  0
VERTEX
  8
CCC-CC-CC
 10
36.9838
 20
64.1174
 30
0.0
 40
0
 41
0
  0
VERTEX
  8
CCC-CC-CC
 10
36.9838
 20
64.885
 30
0.0
 40
0
 41
0
  0
VERTEX
  8
CCC-CC-CC
 10
36.9838
 20
65.6537
 30
0.0
 40
0
 41
0
  0
VERTEX
  8
CCC-CC-CC
 10
37.2925
 20
67.9581
 30
0.0
 40
0
 41
0
  0
VERTEX
  8
CCC-CC-CC
 10
38.1811
 20
70.8201
 30
0.0
 40
0
 41
0
  0
VERTEX
  8
CCC-CC-CC
 10
39.587
 20
73.4109
 30
0.0
 40
0
 41
0
  0
VERTEX
  8
CCC-CC-CC
 10
41.4486
 20
75.668
 30
0.0
 40
0
 41
0
  0
VERTEX
  8
CCC-CC-CC
 10
43.706
 20
77.53
 30
0.0
 40
0
 41
0
  0
VERTEX
  8
CCC-CC-CC
 10
46.2964
 20
78.9354
 30
0.0
 40
0
 41
0
  0
VERTEX
  8
CCC-CC-CC
 10
49.1589
 20
79.8241
 30
0.0
 40
0
 41
0
  0
VERTEX
  8
CCC-CC-CC
 10
51.4629
 20
80.1328
 30
0.0
 40
0
 41
0
  0
VERTEX
  8
CCC-CC-CC
 10
52.2319
 20
80.1328
 30
0.0
 40
0
 41
0
  0
SEQEND
 8
0
  0
POLYLINE
  8
CCC-CC-CC
 66
     1
 10
0
 20
0
 30
0.0
 70
     1
 40
0
 41
0
  0
VERTEX
  8
CCC-CC-CC
 10
52.2319
 20
79.9289
 30
0.0
 40
0
 41
0
  0
VERTEX
  8
CCC-CC-CC
 10
52.9897
 20
79.9289
 30
0.0
 40
0
 41
0
  0
VERTEX
  8
CCC-CC-CC
 10
55.2633
 20
79.6244
 30
0.0
 40
0
 41
0
  0
VERTEX
  8
CCC-CC-CC
 10
58.087
 20
78.7481
 30
0.0
 40
0
 41
0
  0
VERTEX
  8
CCC-CC-CC
 10
60.6432
 20
77.3603
 30
0.0
 40
0
 41
0
  0
VERTEX
  8
CCC-CC-CC
 10
62.8689
 20
75.5234
 30
0.0
 40
0
 41
0
  0
VERTEX
  8
CCC-CC-CC
 10
64.7058
 20
73.2966
 30
0.0
 40
0
 41
0
  0
VERTEX
  8
CCC-CC-CC
 10
66.0936
 20
70.7415
 30
0.0
 40
0
 41
0
  0
VERTEX
  8
CCC-CC-CC
 10
66.9699
 20
67.9178
 30
0.0
 40
0
 41
0
  0
VERTEX
  8
CCC-CC-CC
 10
67.2758
 20
65.6442
 30
0.0
 40
0
 41
0
  0
VERTEX
  8
CCC-CC-CC
 10
67.2758
 20
64.885
 30
0.0
 40
0
 41
0
  0
VERTEX
  8
CCC-CC-CC
 10
67.2758
 20
64.1269
 30
0.0
 40
0
 41
0
  0
VERTEX
  8
CCC-CC-CC
 10
66.9699
 20
61.8532
 30
0.0
 40
0
 41
0
  0
VERTEX
  8
CCC-CC-CC
 10
66.0936
 20
59.0296
 30
0.0
 40
0
 41
0
  0
VERTEX
  8
CCC-CC-CC
 10
64.7058
 20
56.4734
 30
0.0
 40
0
 41
0
  0
VERTEX
  8
CCC-CC-CC
 10
62.8689
 20
54.2477
 30
0.0
 40
0
 41
0
  0
VERTEX
  8
CCC-CC-CC
 10
60.6432
 20
52.4108
 30
0.0
 40
0
 41
0
  0
VERTEX
  8
CCC-CC-CC
 10
58.087
 20
51.0233
 30
0.0
 40
0
 41
0
  0
VERTEX
  8
CCC-CC-CC
 10
55.2633
 20
50.1467
 30
0.0
 40
0
 41
0
  0
VERTEX
  8
CCC-CC-CC
 10
52.9897
 20
49.8408
 30
0.0
 40
0
 41
0
  0
VERTEX
  8
CCC-CC-CC
 10
52.2319
 20
49.8408
 30
0.0
 40
0
 41
0
  0
VERTEX
  8
CCC-CC-CC
 10
51.4724
 20
49.8408
 30
0.0
 40
0
 41
0
  0
VERTEX
  8
CCC-CC-CC
 10
49.1987
 20
50.1467
 30
0.0
 40
0
 41
0
  0
VERTEX
  8
CCC-CC-CC
 10
46.3751
 20
51.0233
 30
0.0
 40
0
 41
0
  0
VERTEX
  8
CCC-CC-CC
 10
43.8203
 20
52.4108
 30
0.0
 40
0
 41
0
  0
VERTEX
  8
CCC-CC-CC
 10
41.5932
 20
54.2477
 30
0.0
 40
0
 41
0
  0
VERTEX
  8
CCC-CC-CC
 10
39.7563
 20
56.4734
 30
0.0
 40
0
 41
0
  0
VERTEX
  8
CCC-CC-CC
 10
38.3688
 20
59.0296
 30
0.0
 40
0
 41
0
  0
VERTEX
  8
CCC-CC-CC
 10
37.4922
 20
61.8532
 30
0.0
 40
0
 41
0
  0
VERTEX
  8
CCC-CC-CC
 10
37.1877
 20
64.1269
 30
0.0
 40
0
 41
0
  0
VERTEX
  8
CCC-CC-CC
 10
37.1877
 20
64.885
 30
0.0
 40
0
 41
0
  0
VERTEX
  8
CCC-CC-CC
 10
37.1877
 20
65.6442
 30
0.0
 40
0
 41
0
  0
VERTEX
  8
CCC-CC-CC
 10
37.4922
 20
67.9178
 30
0.0
 40
0
 41
0
  0
VERTEX
  8
CCC-CC-CC
 10
38.3688
 20
70.7415
 30
0.0
 40
0
 41
0
  0
VERTEX
  8
CCC-CC-CC
 10
39.7563
 20
73.2966
 30
0.0
 40
0
 41
0
  0
VERTEX
  8
CCC-CC-CC
 10
41.5932
 20
75.5234
 30
0.0
 40
0
 41
0
  0
VERTEX
  8
CCC-CC-CC
 10
43.8203
 20
77.3603
 30
0.0
 40
0
 41
0
  0
VERTEX
  8
CCC-CC-CC
 10
46.3751
 20
78.7481
 30
0.0
 40
0
 41
0
  0
VERTEX
  8
CCC-CC-CC
 10
49.1987
 20
79.6244
 30
0.0
 40
0
 41
0
  0
VERTEX
  8
CCC-CC-CC
 10
51.4724
 20
79.9289
 30
0.0
 40
0
 41
0
  0
VERTEX
  8
CCC-CC-CC
 10
52.2319
 20
79.9289
 30
0.0
 40
0
 41
0
  0
SEQEND
 8
0
  0
POLYLINE
  8
CCC-CC-CC
 66
     1
 10
0
 20
0
 30
0.0
 70
     1
 40
0
 41
0
  0
VERTEX
  8
CCC-CC-CC
 10
82.7278
 20
80.1328
 30
0.0
 40
0
 41
0
  0
VERTEX
  8
CCC-CC-CC
 10
83.4954
 20
80.1328
 30
0.0
 40
0
 41
0
  0
VERTEX
  8
CCC-CC-CC
 10
85.7994
 20
79.8241
 30
0.0
 40
0
 41
0
  0
VERTEX
  8
CCC-CC-CC
 10
88.6615
 20
78.9354
 30
0.0
 40
0
 41
0
  0
VERTEX
  8
CCC-CC-CC
 10
91.2523
 20
77.53
 30
0.0
 40
0
 41
0
  0
VERTEX
  8
CCC-CC-CC
 10
93.5083
 20
75.668
 30
0.0
 40
0
 41
0
  0
VERTEX
  8
CCC-CC-CC
 10
95.3699
 20
73.4109
 30
0.0
 40
0
 41
0
  0
VERTEX
  8
CCC-CC-CC
 10
96.7754
 20
70.8201
 30
0.0
 40
0
 41
0
  0
VERTEX
  8
CCC-CC-CC
 10
97.6644
 20
67.9581
 30
0.0
 40
0
 41
0
  0
VERTEX
  8
CCC-CC-CC
 10
97.9745
 20
65.6537
 30
0.0
 40
0
 41
0
  0
VERTEX
  8
CCC-CC-CC
 10
97.9745
 20
64.885
 30
0.0
 40
0
 41
0
  0
VERTEX
  8
CCC-CC-CC
 10
97.9745
 20
64.1174
 30
0.0
 40
0
 41
0
  0
VERTEX
  8
CCC-CC-CC
 10
97.6644
 20
61.8134
 30
0.0
 40
0
 41
0
  0
VERTEX
  8
CCC-CC-CC
 10
96.7754
 20
58.9509
 30
0.0
 40
0
 41
0
  0
VERTEX
  8
CCC-CC-CC
 10
95.3699
 20
56.3605
 30
0.0
 40
0
 41
0
  0
VERTEX
  8
CCC-CC-CC
 10
93.5083
 20
54.1031
 30
0.0
 40
0
 41
0
  0
VERTEX
  8
CCC-CC-CC
 10
91.2523
 20
52.2414
 30
0.0
 40
0
 41
0
  0
VERTEX
  8
CCC-CC-CC
 10
88.6615
 20
50.836
 30
0.0
 40
0
 41
0
  0
VERTEX
  8
CCC-CC-CC
 10
85.7994
 20
49.947
 30
0.0
 40
0
 41
0
  0
VERTEX
  8
CCC-CC-CC
 10
83.4954
 20
49.6369
 30
0.0
 40
0
 41
0
  0
VERTEX
  8
CCC-CC-CC
 10
82.7278
 20
49.6369
 30
0.0
 40
0
 41
0
  0
VERTEX
  8
CCC-CC-CC
 10
81.9587
 20
49.6369
 30
0.0
 40
0
 41
0
  0
VERTEX
  8
CCC-CC-CC
 10
79.6548
 20
49.947
 30
0.0
 40
0
 41
0
  0
VERTEX
  8
CCC-CC-CC
 10
76.7927
 20
50.836
 30
0.0
 40
0
 41
0
  0
VERTEX
  8
CCC-CC-CC
 10
74.2019
 20
52.2414
 30
0.0
 40
0
 41
0
  0
VERTEX
  8
CCC-CC-CC
 10
71.9448
 20
54.1031
 30
0.0
 40
0
 41
0
  0
VERTEX
  8
CCC-CC-CC
 10
70.0828
 20
56.3605
 30
0.0
 40
0
 41
0
  0
VERTEX
  8
CCC-CC-CC
 10
68.6774
 20
58.9509
 30
0.0
 40
0
 41
0
  0
VERTEX
  8
CCC-CC-CC
 10
67.7884
 20
61.8134
 30
0.0
 40
0
 41
0
  0
VERTEX
  8
CCC-CC-CC
 10
67.4797
 20
64.1174
 30
0.0
 40
0
 41
0
  0
VERTEX
  8
CCC-CC-CC
 10
67.4797
 20
64.885
 30
0.0
 40
0
 41
0
  0
VERTEX
  8
CCC-CC-CC
 10
67.4797
 20
65.6537
 30
0.0
 40
0
 41
0
  0
VERTEX
  8
CCC-CC-CC
 10
67.7884
 20
67.9581
 30
0.0
 40
0
 41
0
  0
VERTEX
  8
CCC-CC-CC
 10
68.6774
 20
70.8201
 30
0.0
 40
0
 41
0
  0
VERTEX
  8
CCC-CC-CC
 10
70.0828
 20
73.4109
 30
0.0
 40
0
 41
0
  0
VERTEX
  8
CCC-CC-CC
 10
71.9448
 20
75.668
 30
0.0
 40
0
 41
0
  0
VERTEX
  8
CCC-CC-CC
 10
74.2019
 20
77.53
 30
0.0
 40
0
 41
0
  0
VERTEX
  8
CCC-CC-CC
 10
76.7927
 20
78.9354
 30
0.0
 40
0
 41
0
  0
VERTEX
  8
CCC-CC-CC
 10
79.6548
 20
79.8241
 30
0.0
 40
0
 41
0
  0
VERTEX
  8
CCC-CC-CC
 10
81.9587
 20
80.1328
 30
0.0
 40
0
 41
0
  0
VERTEX
  8
CCC-CC-CC
 10
82.7278
 20
80.1328
 30
0.0
 40
0
 41
0
  0
SEQEND
 8
0
  0
POLYLINE
  8
CCC-CC-CC
 66
     1
 10
0
 20
0
 30
0.0
 70
     1
 40
0
 41
0
  0
VERTEX
  8
CCC-CC-CC
 10
82.7278
 20
79.9289
 30
0.0
 40
0
 41
0
  0
VERTEX
  8
CCC-CC-CC
 10
83.4856
 20
79.9289
 30
0.0
 40
0
 41
0
  0
VERTEX
  8
CCC-CC-CC
 10
85.7596
 20
79.6244
 30
0.0
 40
0
 41
0
  0
VERTEX
  8
CCC-CC-CC
 10
88.5832
 20
78.7481
 30
0.0
 40
0
 41
0
  0
VERTEX
  8
CCC-CC-CC
 10
91.138
 20
77.3603
 30
0.0
 40
0
 41
0
  0
VERTEX
  8
CCC-CC-CC
 10
93.3648
 20
75.5234
 30
0.0
 40
0
 41
0
  0
VERTEX
  8
CCC-CC-CC
 10
95.2017
 20
73.2966
 30
0.0
 40
0
 41
0
  0
VERTEX
  8
CCC-CC-CC
 10
96.5895
 20
70.7415
 30
0.0
 40
0
 41
0
  0
VERTEX
  8
CCC-CC-CC
 10
97.4658
 20
67.9178
 30
0.0
 40
0
 41
0
  0
VERTEX
  8
CCC-CC-CC
 10
97.7717
 20
65.6442
 30
0.0
 40
0
 41
0
  0
VERTEX
  8
CCC-CC-CC
 10
97.7717
 20
64.885
 30
0.0
 40
0
 41
0
  0
VERTEX
  8
CCC-CC-CC
 10
97.7717
 20
64.1269
 30
0.0
 40
0
 41
0
  0
VERTEX
  8
CCC-CC-CC
 10
97.4658
 20
61.8532
 30
0.0
 40
0
 41
0
  0
VERTEX
  8
CCC-CC-CC
 10
96.5895
 20
59.0296
 30
0.0
 40
0
 41
0
  0
VERTEX
  8
CCC-CC-CC
 10
95.2017
 20
56.4734
 30
0.0
 40
0
 41
0
  0
VERTEX
  8
CCC-CC-CC
 10
93.3648
 20
54.2477
 30
0.0
 40
0
 41
0
  0
VERTEX
  8
CCC-CC-CC
 10
91.138
 20
52.4108
 30
0.0
 40
0
 41
0
  0
VERTEX
  8
CCC-CC-CC
 10
88.5832
 20
51.0233
 30
0.0
 40
0
 41
0
  0
VERTEX
  8
CCC-CC-CC
 10
85.7596
 20
50.1467
 30
0.0
 40
0
 41
0
  0
VERTEX
  8
CCC-CC-CC
 10
83.4856
 20
49.8408
 30
0.0
 40
0
 41
0
  0
VERTEX
  8
CCC-CC-CC
 10
82.7278
 20
49.8408
 30
0.0
 40
0
 41
0
  0
VERTEX
  8
CCC-CC-CC
 10
81.9686
 20
49.8408
 30
0.0
 40
0
 41
0
  0
VERTEX
  8
CCC-CC-CC
 10
79.6946
 20
50.1467
 30
0.0
 40
0
 41
0
  0
VERTEX
  8
CCC-CC-CC
 10
76.871
 20
51.0233
 30
0.0
 40
0
 41
0
  0
VERTEX
  8
CCC-CC-CC
 10
74.3148
 20
52.4108
 30
0.0
 40
0
 41
0
  0
VERTEX
  8
CCC-CC-CC
 10
72.088
 20
54.2477
 30
0.0
 40
0
 41
0
  0
VERTEX
  8
CCC-CC-CC
 10
70.2511
 20
56.4734
 30
0.0
 40
0
 41
0
  0
VERTEX
  8
CCC-CC-CC
 10
68.8633
 20
59.0296
 30
0.0
 40
0
 41
0
  0
VERTEX
  8
CCC-CC-CC
 10
67.987
 20
61.8532
 30
0.0
 40
0
 41
0
  0
VERTEX
  8
CCC-CC-CC
 10
67.6822
 20
64.1269
 30
0.0
 40
0
 41
0
  0
VERTEX
  8
CCC-CC-CC
 10
67.6822
 20
64.885
 30
0.0
 40
0
 41
0
  0
VERTEX
  8
CCC-CC-CC
 10
67.6822
 20
65.6442
 30
0.0
 40
0
 41
0
  0
VERTEX
  8
CCC-CC-CC
 10
67.987
 20
67.9178
 30
0.0
 40
0
 41
0
  0
VERTEX
  8
CCC-CC-CC
 10
68.8633
 20
70.7415
 30
0.0
 40
0
 41
0
  0
VERTEX
  8
CCC-CC-CC
 10
70.2511
 20
73.2966
 30
0.0
 40
0
 41
0
  0
VERTEX
  8
CCC-CC-CC
 10
72.088
 20
75.5234
 30
0.0
 40
0
 41
0
  0
VERTEX
  8
CCC-CC-CC
 10
74.3148
 20
77.3603
 30
0.0
 40
0
 41
0
  0
VERTEX
  8
CCC-CC-CC
 10
76.871
 20
78.7481
 30
0.0
 40
0
 41
0
  0
VERTEX
  8
CCC-CC-CC
 10
79.6946
 20
79.6244
 30
0.0
 40
0
 41
0
  0
VERTEX
  8
CCC-CC-CC
 10
81.9686
 20
79.9289
 30
0.0
 40
0
 41
0
  0
VERTEX
  8
CCC-CC-CC
 10
82.7278
 20
79.9289
 30
0.0
 40
0
 41
0
  0
SEQEND
 8
0
  0
POLYLINE
  8
CCC-CC-CC
 66
     1
 10
0
 20
0
 30
0.0
 70
     1
 40
0
 41
0
  0
VERTEX
  8
CCC-CC-CC
 10
113.222
 20
80.1328
 30
0.0
 40
0
 41
0
  0
VERTEX
  8
CCC-CC-CC
 10
113.99
 20
80.1328
 30
0.0
 40
0
 41
0
  0
VERTEX
  8
CCC-CC-CC
 10
116.294
 20
79.8241
 30
0.0
 40
0
 41
0
  0
VERTEX
  8
CCC-CC-CC
 10
119.156
 20
78.9354
 30
0.0
 40
0
 41
0
  0
VERTEX
  8
CCC-CC-CC
 10
121.747
 20
77.53
 30
0.0
 40
0
 41
0
  0
VERTEX
  8
CCC-CC-CC
 10
124.004
 20
75.668
 30
0.0
 40
0
 41
0
  0
VERTEX
  8
CCC-CC-CC
 10
125.866
 20
73.4109
 30
0.0
 40
0
 41
0
  0
VERTEX
  8
CCC-CC-CC
 10
127.272
 20
70.8201
 30
0.0
 40
0
 41
0
  0
VERTEX
  8
CCC-CC-CC
 10
128.16
 20
67.9581
 30
0.0
 40
0
 41
0
  0
VERTEX
  8
CCC-CC-CC
 10
128.47
 20
65.6537
 30
0.0
 40
0
 41
0
  0
VERTEX
  8
CCC-CC-CC
 10
128.47
 20
64.885
 30
0.0
 40
0
 41
0
  0
VERTEX
  8
CCC-CC-CC
 10
128.47
 20
64.1174
 30
0.0
 40
0
 41
0
  0
VERTEX
  8
CCC-CC-CC
 10
128.16
 20
61.8134
 30
0.0
 40
0
 41
0
  0
VERTEX
  8
CCC-CC-CC
 10
127.272
 20
58.9509
 30
0.0
 40
0
 41
0
  0
VERTEX
  8
CCC-CC-CC
 10
125.866
 20
56.3605
 30
0.0
 40
0
 41
0
  0
VERTEX
  8
CCC-CC-CC
 10
124.004
 20
54.1031
 30
0.0
 40
0
 41
0
  0
VERTEX
  8
CCC-CC-CC
 10
121.747
 20
52.2414
 30
0.0
 40
0
 41
0
  0
VERTEX
  8
CCC-CC-CC
 10
119.156
 20
50.836
 30
0.0
 40
0
 41
0
  0
VERTEX
  8
CCC-CC-CC
 10
116.294
 20
49.947
 30
0.0
 40
0
 41
0
  0
VERTEX
  8
CCC-CC-CC
 10
113.99
 20
49.6369
 30
0.0
 40
0
 41
0
  0
VERTEX
  8
CCC-CC-CC
 10
113.222
 20
49.6369
 30
0.0
 40
0
 41
0
  0
VERTEX
  8
CCC-CC-CC
 10
112.454
 20
49.6369
 30
0.0
 40
0
 41
0
  0
VERTEX
  8
CCC-CC-CC
 10
110.149
 20
49.947
 30
0.0
 40
0
 41
0
  0
VERTEX
  8
CCC-CC-CC
 10
107.287
 20
50.836
 30
0.0
 40
0
 41
0
  0
VERTEX
  8
CCC-CC-CC
 10
104.696
 20
52.2414
 30
0.0
 40
0
 41
0
  0
VERTEX
  8
CCC-CC-CC
 10
102.439
 20
54.1031
 30
0.0
 40
0
 41
0
  0
VERTEX
  8
CCC-CC-CC
 10
100.578
 20
56.3605
 30
0.0
 40
0
 41
0
  0
VERTEX
  8
CCC-CC-CC
 10
99.1718
 20
58.9509
 30
0.0
 40
0
 41
0
  0
VERTEX
  8
CCC-CC-CC
 10
98.2832
 20
61.8134
 30
0.0
 40
0
 41
0
  0
VERTEX
  8
CCC-CC-CC
 10
97.9745
 20
64.1174
 30
0.0
 40
0
 41
0
  0
VERTEX
  8
CCC-CC-CC
 10
97.9745
 20
64.885
 30
0.0
 40
0
 41
0
  0
VERTEX
  8
CCC-CC-CC
 10
97.9745
 20
65.6537
 30
0.0
 40
0
 41
0
  0
VERTEX
  8
CCC-CC-CC
 10
98.2832
 20
67.9581
 30
0.0
 40
0
 41
0
  0
VERTEX
  8
CCC-CC-CC
 10
99.1718
 20
70.8201
 30
0.0
 40
0
 41
0
  0
VERTEX
  8
CCC-CC-CC
 10
100.578
 20
73.4109
 30
0.0
 40
0
 41
0
  0
VERTEX
  8
CCC-CC-CC
 10
102.439
 20
75.668
 30
0.0
 40
0
 41
0
  0
VERTEX
  8
CCC-CC-CC
 10
104.696
 20
77.53
 30
0.0
 40
0
 41
0
  0
VERTEX
  8
CCC-CC-CC
 10
107.287
 20
78.9354
 30
0.0
 40
0
 41
0
  0
VERTEX
  8
CCC-CC-CC
 10
110.149
 20
79.8241
 30
0.0
 40
0
 41
0
  0
VERTEX
  8
CCC-CC-CC
 10
112.454
 20
80.1328
 30
0.0
 40
0
 41
0
  0
VERTEX
  8
CCC-CC-CC
 10
113.222
 20
80.1328
 30
0.0
 40
0
 41
0
  0
SEQEND
 8
0
  0
POLYLINE
  8
CCC-CC-CC
 66
     1
 10
0
 20
0
 30
0.0
 70
     1
 40
0
 41
0
  0
VERTEX
  8
CCC-CC-CC
 10
113.222
 20
79.9289
 30
0.0
 40
0
 41
0
  0
VERTEX
  8
CCC-CC-CC
 10
113.98
 20
79.9289
 30
0.0
 40
0
 41
0
  0
VERTEX
  8
CCC-CC-CC
 10
116.254
 20
79.6244
 30
0.0
 40
0
 41
0
  0
VERTEX
  8
CCC-CC-CC
 10
119.078
 20
78.7481
 30
0.0
 40
0
 41
0
  0
VERTEX
  8
CCC-CC-CC
 10
121.634
 20
77.3603
 30
0.0
 40
0
 41
0
  0
VERTEX
  8
CCC-CC-CC
 10
123.86
 20
75.5234
 30
0.0
 40
0
 41
0
  0
VERTEX
  8
CCC-CC-CC
 10
125.696
 20
73.2966
 30
0.0
 40
0
 41
0
  0
VERTEX
  8
CCC-CC-CC
 10
127.084
 20
70.7415
 30
0.0
 40
0
 41
0
  0
VERTEX
  8
CCC-CC-CC
 10
127.961
 20
67.9178
 30
0.0
 40
0
 41
0
  0
VERTEX
  8
CCC-CC-CC
 10
128.266
 20
65.6442
 30
0.0
 40
0
 41
0
  0
VERTEX
  8
CCC-CC-CC
 10
128.266
 20
64.885
 30
0.0
 40
0
 41
0
  0
VERTEX
  8
CCC-CC-CC
 10
128.266
 20
64.1269
 30
0.0
 40
0
 41
0
  0
VERTEX
  8
CCC-CC-CC
 10
127.961
 20
61.8532
 30
0.0
 40
0
 41
0
  0
VERTEX
  8
CCC-CC-CC
 10
127.084
 20
59.0296
 30
0.0
 40
0
 41
0
  0
VERTEX
  8
CCC-CC-CC
 10
125.696
 20
56.4734
 30
0.0
 40
0
 41
0
  0
VERTEX
  8
CCC-CC-CC
 10
123.86
 20
54.2477
 30
0.0
 40
0
 41
0
  0
VERTEX
  8
CCC-CC-CC
 10
121.634
 20
52.4108
 30
0.0
 40
0
 41
0
  0
VERTEX
  8
CCC-CC-CC
 10
119.078
 20
51.0233
 30
0.0
 40
0
 41
0
  0
VERTEX
  8
CCC-CC-CC
 10
116.254
 20
50.1467
 30
0.0
 40
0
 41
0
  0
VERTEX
  8
CCC-CC-CC
 10
113.98
 20
49.8408
 30
0.0
 40
0
 41
0
  0
VERTEX
  8
CCC-CC-CC
 10
113.222
 20
49.8408
 30
0.0
 40
0
 41
0
  0
VERTEX
  8
CCC-CC-CC
 10
112.463
 20
49.8408
 30
0.0
 40
0
 41
0
  0
VERTEX
  8
CCC-CC-CC
 10
110.189
 20
50.1467
 30
0.0
 40
0
 41
0
  0
VERTEX
  8
CCC-CC-CC
 10
107.366
 20
51.0233
 30
0.0
 40
0
 41
0
  0
VERTEX
  8
CCC-CC-CC
 10
104.811
 20
52.4108
 30
0.0
 40
0
 41
0
  0
VERTEX
  8
CCC-CC-CC
 10
102.584
 20
54.2477
 30
0.0
 40
0
 41
0
  0
VERTEX
  8
CCC-CC-CC
 10
100.747
 20
56.4734
 30
0.0
 40
0
 41
0
  0
VERTEX
  8
CCC-CC-CC
 10
99.3592
 20
59.0296
 30
0.0
 40
0
 41
0
  0
VERTEX
  8
CCC-CC-CC
 10
98.4829
 20
61.8532
 30
0.0
 40
0
 41
0
  0
VERTEX
  8
CCC-CC-CC
 10
98.1784
 20
64.1269
 30
0.0
 40
0
 41
0
  0
VERTEX
  8
CCC-CC-CC
 10
98.1784
 20
64.885
 30
0.0
 40
0
 41
0
  0
VERTEX
  8
CCC-CC-CC
 10
98.1784
 20
65.6442
 30
0.0
 40
0
 41
0
  0
VERTEX
  8
CCC-CC-CC
 10
98.4829
 20
67.9178
 30
0.0
 40
0
 41
0
  0
VERTEX
  8
CCC-CC-CC
 10
99.3592
 20
70.7415
 30
0.0
 40
0
 41
0
  0
VERTEX
  8
CCC-CC-CC
 10
100.747
 20
73.2966
 30
0.0
 40
0
 41
0
  0
VERTEX
  8
CCC-CC-CC
 10
102.584
 20
75.5234
 30
0.0
 40
0
 41
0
  0
VERTEX
  8
CCC-CC-CC
 10
104.811
 20
77.3603
 30
0.0
 40
0
 41
0
  0
VERTEX
  8
CCC-CC-CC
 10
107.366
 20
78.7481
 30
0.0
 40
0
 41
0
  0
VERTEX
  8
CCC-CC-CC
 10
110.189
 20
79.6244
 30
0.0
 40
0
 41
0
  0
VERTEX
  8
CCC-CC-CC
 10
112.463
 20
79.9289
 30
0.0
 40
0
 41
0
  0
VERTEX
  8
CCC-CC-CC
 10
113.222
 20
79.9289
 30
0.0
 40
0
 41
0
  0
SEQEND
 8
0
  0
POLYLINE
  8
CCC-CC-CC
 66
     1
 10
0
 20
0
 30
0.0
 70
     1
 40
0
 41
0
  0
VERTEX
  8
CCC-CC-CC
 10
143.718
 20
80.1328
 30
0.0
 40
0
 41
0
  0
VERTEX
  8
CCC-CC-CC
 10
144.486
 20
80.1328
 30
0.0
 40
0
 41
0
  0
VERTEX
  8
CCC-CC-CC
 10
146.79
 20
79.8241
 30
0.0
 40
0
 41
0
  0
VERTEX
  8
CCC-CC-CC
 10
149.652
 20
78.9354
 30
0.0
 40
0
 41
0
  0
VERTEX
  8
CCC-CC-CC
 10
152.243
 20
77.53
 30
0.0
 40
0
 41
0
  0
VERTEX
  8
CCC-CC-CC
 10
154.499
 20
75.668
 30
0.0
 40
0
 41
0
  0
VERTEX
  8
CCC-CC-CC
 10
156.361
 20
73.4109
 30
0.0
 40
0
 41
0
  0
VERTEX
  8
CCC-CC-CC
 10
157.766
 20
70.8201
 30
0.0
 40
0
 41
0
  0
VERTEX
  8
CCC-CC-CC
 10
158.655
 20
67.9581
 30
0.0
 40
0
 41
0
  0
VERTEX
  8
CCC-CC-CC
 10
158.965
 20
65.6537
 30
0.0
 40
0
 41
0
  0
VERTEX
  8
CCC-CC-CC
 10
158.965
 20
64.885
 30
0.0
 40
0
 41
0
  0
VERTEX
  8
CCC-CC-CC
 10
158.965
 20
64.1174
 30
0.0
 40
0
 41
0
  0
VERTEX
  8
CCC-CC-CC
 10
158.655
 20
61.8134
 30
0.0
 40
0
 41
0
  0
VERTEX
  8
CCC-CC-CC
 10
157.766
 20
58.9509
 30
0.0
 40
0
 41
0
  0
VERTEX
  8
CCC-CC-CC
 10
156.361
 20
56.3605
 30
0.0
 40
0
 41
0
  0
VERTEX
  8
CCC-CC-CC
 10
154.499
 20
54.1031
 30
0.0
 40
0
 41
0
  0
VERTEX
  8
CCC-CC-CC
 10
152.243
 20
52.2414
 30
0.0
 40
0
 41
0
  0
VERTEX
  8
CCC-CC-CC
 10
149.652
 20
50.836
 30
0.0
 40
0
 41
0
  0
VERTEX
  8
CCC-CC-CC
 10
146.79
 20
49.947
 30
0.0
 40
0
 41
0
  0
VERTEX
  8
CCC-CC-CC
 10
144.486
 20
49.6369
 30
0.0
 40
0
 41
0
  0
VERTEX
  8
CCC-CC-CC
 10
143.718
 20
49.6369
 30
0.0
 40
0
 41
0
  0
VERTEX
  8
CCC-CC-CC
 10
142.949
 20
49.6369
 30
0.0
 40
0
 41
0
  0
VERTEX
  8
CCC-CC-CC
 10
140.645
 20
49.947
 30
0.0
 40
0
 41
0
  0
VERTEX
  8
CCC-CC-CC
 10
137.783
 20
50.836
 30
0.0
 40
0
 41
0
  0
VERTEX
  8
CCC-CC-CC
 10
135.193
 20
52.2414
 30
0.0
 40
0
 41
0
  0
VERTEX
  8
CCC-CC-CC
 10
132.935
 20
54.1031
 30
0.0
 40
0
 41
0
  0
VERTEX
  8
CCC-CC-CC
 10
131.074
 20
56.3605
 30
0.0
 40
0
 41
0
  0
VERTEX
  8
CCC-CC-CC
 10
129.668
 20
58.9509
 30
0.0
 40
0
 41
0
  0
VERTEX
  8
CCC-CC-CC
 10
128.779
 20
61.8134
 30
0.0
 40
0
 41
0
  0
VERTEX
  8
CCC-CC-CC
 10
128.47
 20
64.1174
 30
0.0
 40
0
 41
0
  0
VERTEX
  8
CCC-CC-CC
 10
128.47
 20
64.885
 30
0.0
 40
0
 41
0
  0
VERTEX
  8
CCC-CC-CC
 10
128.47
 20
65.6537
 30
0.0
 40
0
 41
0
  0
VERTEX
  8
CCC-CC-CC
 10
128.779
 20
67.9581
 30
0.0
 40
0
 41
0
  0
VERTEX
  8
CCC-CC-CC
 10
129.668
 20
70.8201
 30
0.0
 40
0
 41
0
  0
VERTEX
  8
CCC-CC-CC
 10
131.074
 20
73.4109
 30
0.0
 40
0
 41
0
  0
VERTEX
  8
CCC-CC-CC
 10
132.935
 20
75.668
 30
0.0
 40
0
 41
0
  0
VERTEX
  8
CCC-CC-CC
 10
135.193
 20
77.53
 30
0.0
 40
0
 41
0
  0
VERTEX
  8
CCC-CC-CC
 10
137.783
 20
78.9354
 30
0.0
 40
0
 41
0
  0
VERTEX
  8
CCC-CC-CC
 10
140.645
 20
79.8241
 30
0.0
 40
0
 41
0
  0
VERTEX
  8
CCC-CC-CC
 10
142.949
 20
80.1328
 30
0.0
 40
0
 41
0
  0
VERTEX
  8
CCC-CC-CC
 10
143.718
 20
80.1328
 30
0.0
 40
0
 41
0
  0
SEQEND
 8
0
  0
POLYLINE
  8
CCC-CC-CC
 66
     1
 10
0
 20
0
 30
0.0
 70
     1
 40
0
 41
0
  0
VERTEX
  8
CCC-CC-CC
 10
143.718
 20
79.9289
 30
0.0
 40
0
 41
0
  0
VERTEX
  8
CCC-CC-CC
 10
144.476
 20
79.9289
 30
0.0
 40
0
 41
0
  0
VERTEX
  8
CCC-CC-CC
 10
146.75
 20
79.6244
 30
0.0
 40
0
 41
0
  0
VERTEX
  8
CCC-CC-CC
 10
149.574
 20
78.7481
 30
0.0
 40
0
 41
0
  0
VERTEX
  8
CCC-CC-CC
 10
152.128
 20
77.3603
 30
0.0
 40
0
 41
0
  0
VERTEX
  8
CCC-CC-CC
 10
154.355
 20
75.5234
 30
0.0
 40
0
 41
0
  0
VERTEX
  8
CCC-CC-CC
 10
156.192
 20
73.2966
 30
0.0
 40
0
 41
0
  0
VERTEX
  8
CCC-CC-CC
 10
157.58
 20
70.7415
 30
0.0
 40
0
 41
0
  0
VERTEX
  8
CCC-CC-CC
 10
158.456
 20
67.9178
 30
0.0
 40
0
 41
0
  0
VERTEX
  8
CCC-CC-CC
 10
158.762
 20
65.6442
 30
0.0
 40
0
 41
0
  0
VERTEX
  8
CCC-CC-CC
 10
158.762
 20
64.885
 30
0.0
 40
0
 41
0
  0
VERTEX
  8
CCC-CC-CC
 10
158.762
 20
64.1269
 30
0.0
 40
0
 41
0
  0
VERTEX
  8
CCC-CC-CC
 10
158.456
 20
61.8532
 30
0.0
 40
0
 41
0
  0
VERTEX
  8
CCC-CC-CC
 10
157.58
 20
59.0296
 30
0.0
 40
0
 41
0
  0
VERTEX
  8
CCC-CC-CC
 10
156.192
 20
56.4734
 30
0.0
 40
0
 41
0
  0
VERTEX
  8
CCC-CC-CC
 10
154.355
 20
54.2477
 30
0.0
 40
0
 41
0
  0
VERTEX
  8
CCC-CC-CC
 10
152.128
 20
52.4108
 30
0.0
 40
0
 41
0
  0
VERTEX
  8
CCC-CC-CC
 10
149.574
 20
51.0233
 30
0.0
 40
0
 41
0
  0
VERTEX
  8
CCC-CC-CC
 10
146.75
 20
50.1467
 30
0.0
 40
0
 41
0
  0
VERTEX
  8
CCC-CC-CC
 10
144.476
 20
49.8408
 30
0.0
 40
0
 41
0
  0
VERTEX
  8
CCC-CC-CC
 10
143.718
 20
49.8408
 30
0.0
 40
0
 41
0
  0
VERTEX
  8
CCC-CC-CC
 10
142.959
 20
49.8408
 30
0.0
 40
0
 41
0
  0
VERTEX
  8
CCC-CC-CC
 10
140.685
 20
50.1467
 30
0.0
 40
0
 41
0
  0
VERTEX
  8
CCC-CC-CC
 10
137.862
 20
51.0233
 30
0.0
 40
0
 41
0
  0
VERTEX
  8
CCC-CC-CC
 10
135.305
 20
52.4108
 30
0.0
 40
0
 41
0
  0
VERTEX
  8
CCC-CC-CC
 10
133.078
 20
54.2477
 30
0.0
 40
0
 41
0
  0
VERTEX
  8
CCC-CC-CC
 10
131.241
 20
56.4734
 30
0.0
 40
0
 41
0
  0
VERTEX
  8
CCC-CC-CC
 10
129.854
 20
59.0296
 30
0.0
 40
0
 41
0
  0
VERTEX
  8
CCC-CC-CC
 10
128.977
 20
61.8532
 30
0.0
 40
0
 41
0
  0
VERTEX
  8
CCC-CC-CC
 10
128.673
 20
64.1269
 30
0.0
 40
0
 41
0
  0
VERTEX
  8
CCC-CC-CC
 10
128.673
 20
64.885
 30
0.0
 40
0
 41
0
  0
VERTEX
  8
CCC-CC-CC
 10
128.673
 20
65.6442
 30
0.0
 40
0
 41
0
  0
VERTEX
  8
CCC-CC-CC
 10
128.977
 20
67.9178
 30
0.0
 40
0
 41
0
  0
VERTEX
  8
CCC-CC-CC
 10
129.854
 20
70.7415
 30
0.0
 40
0
 41
0
  0
VERTEX
  8
CCC-CC-CC
 10
131.241
 20
73.2966
 30
0.0
 40
0
 41
0
  0
VERTEX
  8
CCC-CC-CC
 10
133.078
 20
75.5234
 30
0.0
 40
0
 41
0
  0
VERTEX
  8
CCC-CC-CC
 10
135.305
 20
77.3603
 30
0.0
 40
0
 41
0
  0
VERTEX
  8
CCC-CC-CC
 10
137.862
 20
78.7481
 30
0.0
 40
0
 41
0
  0
VERTEX
  8
CCC-CC-CC
 10
140.685
 20
79.6244
 30
0.0
 40
0
 41
0
  0
VERTEX
  8
CCC-CC-CC
 10
142.959
 20
79.9289
 30
0.0
 40
0
 41
0
  0
VERTEX
  8
CCC-CC-CC
 10
143.718
 20
79.9289
 30
0.0
 40
0
 41
0
  0
SEQEND
 8
0
  0
POLYLINE
  8
CCC-CC-CC
 66
     1
 10
0
 20
0
 30
0.0
 70
     1
 40
0
 41
0
  0
VERTEX
  8
CCC-CC-CC
 10
52.2319
 20
49.6369
 30
0.0
 40
0
 41
0
  0
VERTEX
  8
CCC-CC-CC
 10
52.9992
 20
49.6369
 30
0.0
 40
0
 41
0
  0
VERTEX
  8
CCC-CC-CC
 10
55.3036
 20
49.3282
 30
0.0
 40
0
 41
0
  0
VERTEX
  8
CCC-CC-CC
 10
58.1656
 20
48.4396
 30
0.0
 40
0
 41
0
  0
VERTEX
  8
CCC-CC-CC
 10
60.7564
 20
47.0337
 30
0.0
 40
0
 41
0
  0
VERTEX
  8
CCC-CC-CC
 10
63.0135
 20
45.1721
 30
0.0
 40
0
 41
0
  0
VERTEX
  8
CCC-CC-CC
 10
64.8751
 20
42.9147
 30
0.0
 40
0
 41
0
  0
VERTEX
  8
CCC-CC-CC
 10
66.2809
 20
40.3243
 30
0.0
 40
0
 41
0
  0
VERTEX
  8
CCC-CC-CC
 10
67.1696
 20
37.4618
 30
0.0
 40
0
 41
0
  0
VERTEX
  8
CCC-CC-CC
 10
67.4797
 20
35.1579
 30
0.0
 40
0
 41
0
  0
VERTEX
  8
CCC-CC-CC
 10
67.4797
 20
34.389
 30
0.0
 40
0
 41
0
  0
VERTEX
  8
CCC-CC-CC
 10
67.4797
 20
33.6214
 30
0.0
 40
0
 41
0
  0
VERTEX
  8
CCC-CC-CC
 10
67.1696
 20
31.3173
 30
0.0
 40
0
 41
0
  0
VERTEX
  8
CCC-CC-CC
 10
66.2809
 20
28.4551
 30
0.0
 40
0
 41
0
  0
VERTEX
  8
CCC-CC-CC
 10
64.8751
 20
25.8644
 30
0.0
 40
0
 41
0
  0
VERTEX
  8
CCC-CC-CC
 10
63.0135
 20
23.6086
 30
0.0
 40
0
 41
0
  0
VERTEX
  8
CCC-CC-CC
 10
60.7564
 20
21.7468
 30
0.0
 40
0
 41
0
  0
VERTEX
  8
CCC-CC-CC
 10
58.1656
 20
20.3412
 30
0.0
 40
0
 41
0
  0
VERTEX
  8
CCC-CC-CC
 10
55.3036
 20
19.4524
 30
0.0
 40
0
 41
0
  0
VERTEX
  8
CCC-CC-CC
 10
52.9992
 20
19.1423
 30
0.0
 40
0
 41
0
  0
VERTEX
  8
CCC-CC-CC
 10
52.2319
 20
19.1423
 30
0.0
 40
0
 41
0
  0
VERTEX
  8
CCC-CC-CC
 10
51.4629
 20
19.1423
 30
0.0
 40
0
 41
0
  0
VERTEX
  8
CCC-CC-CC
 10
49.1589
 20
19.4524
 30
0.0
 40
0
 41
0
  0
VERTEX
  8
CCC-CC-CC
 10
46.2964
 20
20.3412
 30
0.0
 40
0
 41
0
  0
VERTEX
  8
CCC-CC-CC
 10
43.706
 20
21.7468
 30
0.0
 40
0
 41
0
  0
VERTEX
  8
CCC-CC-CC
 10
41.4486
 20
23.6086
 30
0.0
 40
0
 41
0
  0
VERTEX
  8
CCC-CC-CC
 10
39.587
 20
25.8644
 30
0.0
 40
0
 41
0
  0
VERTEX
  8
CCC-CC-CC
 10
38.1811
 20
28.4551
 30
0.0
 40
0
 41
0
  0
VERTEX
  8
CCC-CC-CC
 10
37.2925
 20
31.3173
 30
0.0
 40
0
 41
0
  0
VERTEX
  8
CCC-CC-CC
 10
36.9838
 20
33.6214
 30
0.0
 40
0
 41
0
  0
VERTEX
  8
CCC-CC-CC
 10
36.9838
 20
34.389
 30
0.0
 40
0
 41
0
  0
VERTEX
  8
CCC-CC-CC
 10
36.9838
 20
35.1579
 30
0.0
 40
0
 41
0
  0
VERTEX
  8
CCC-CC-CC
 10
37.2925
 20
37.4618
 30
0.0
 40
0
 41
0
  0
VERTEX
  8
CCC-CC-CC
 10
38.1811
 20
40.3243
 30
0.0
 40
0
 41
0
  0
VERTEX
  8
CCC-CC-CC
 10
39.587
 20
42.9147
 30
0.0
 40
0
 41
0
  0
VERTEX
  8
CCC-CC-CC
 10
41.4486
 20
45.1721
 30
0.0
 40
0
 41
0
  0
VERTEX
  8
CCC-CC-CC
 10
43.706
 20
47.0337
 30
0.0
 40
0
 41
0
  0
VERTEX
  8
CCC-CC-CC
 10
46.2964
 20
48.4396
 30
0.0
 40
0
 41
0
  0
VERTEX
  8
CCC-CC-CC
 10
49.1589
 20
49.3282
 30
0.0
 40
0
 41
0
  0
VERTEX
  8
CCC-CC-CC
 10
51.4629
 20
49.6369
 30
0.0
 40
0
 41
0
  0
VERTEX
  8
CCC-CC-CC
 10
52.2319
 20
49.6369
 30
0.0
 40
0
 41
0
  0
SEQEND
 8
0
  0
POLYLINE
  8
CCC-CC-CC
 66
     1
 10
0
 20
0
 30
0.0
 70
     1
 40
0
 41
0
  0
VERTEX
  8
CCC-CC-CC
 10
52.2319
 20
49.4344
 30
0.0
 40
0
 41
0
  0
VERTEX
  8
CCC-CC-CC
 10
52.9897
 20
49.4344
 30
0.0
 40
0
 41
0
  0
VERTEX
  8
CCC-CC-CC
 10
55.2633
 20
49.13
 30
0.0
 40
0
 41
0
  0
VERTEX
  8
CCC-CC-CC
 10
58.087
 20
48.2533
 30
0.0
 40
0
 41
0
  0
VERTEX
  8
CCC-CC-CC
 10
60.6432
 20
46.8658
 30
0.0
 40
0
 41
0
  0
VERTEX
  8
CCC-CC-CC
 10
62.8689
 20
45.0289
 30
0.0
 40
0
 41
0
  0
VERTEX
  8
CCC-CC-CC
 10
64.7058
 20
42.8018
 30
0.0
 40
0
 41
0
  0
VERTEX
  8
CCC-CC-CC
 10
66.0936
 20
40.2456
 30
0.0
 40
0
 41
0
  0
VERTEX
  8
CCC-CC-CC
 10
66.9699
 20
37.422
 30
0.0
 40
0
 41
0
  0
VERTEX
  8
CCC-CC-CC
 10
67.2758
 20
35.1482
 30
0.0
 40
0
 41
0
  0
VERTEX
  8
CCC-CC-CC
 10
67.2758
 20
34.389
 30
0.0
 40
0
 41
0
  0
VERTEX
  8
CCC-CC-CC
 10
67.2758
 20
33.631
 30
0.0
 40
0
 41
0
  0
VERTEX
  8
CCC-CC-CC
 10
66.9699
 20
31.3573
 30
0.0
 40
0
 41
0
  0
VERTEX
  8
CCC-CC-CC
 10
66.0936
 20
28.5337
 30
0.0
 40
0
 41
0
  0
VERTEX
  8
CCC-CC-CC
 10
64.7058
 20
25.9788
 30
0.0
 40
0
 41
0
  0
VERTEX
  8
CCC-CC-CC
 10
62.8689
 20
23.7519
 30
0.0
 40
0
 41
0
  0
VERTEX
  8
CCC-CC-CC
 10
60.6432
 20
21.9149
 30
0.0
 40
0
 41
0
  0
VERTEX
  8
CCC-CC-CC
 10
58.087
 20
20.5273
 30
0.0
 40
0
 41
0
  0
VERTEX
  8
CCC-CC-CC
 10
55.2633
 20
19.6508
 30
0.0
 40
0
 41
0
  0
VERTEX
  8
CCC-CC-CC
 10
52.9897
 20
19.3449
 30
0.0
 40
0
 41
0
  0
VERTEX
  8
CCC-CC-CC
 10
52.2319
 20
19.3449
 30
0.0
 40
0
 41
0
  0
VERTEX
  8
CCC-CC-CC
 10
51.4724
 20
19.3449
 30
0.0
 40
0
 41
0
  0
VERTEX
  8
CCC-CC-CC
 10
49.1987
 20
19.6508
 30
0.0
 40
0
 41
0
  0
VERTEX
  8
CCC-CC-CC
 10
46.3751
 20
20.5273
 30
0.0
 40
0
 41
0
  0
VERTEX
  8
CCC-CC-CC
 10
43.8203
 20
21.9149
 30
0.0
 40
0
 41
0
  0
VERTEX
  8
CCC-CC-CC
 10
41.5932
 20
23.7519
 30
0.0
 40
0
 41
0
  0
VERTEX
  8
CCC-CC-CC
 10
39.7563
 20
25.9788
 30
0.0
 40
0
 41
0
  0
VERTEX
  8
CCC-CC-CC
 10
38.3688
 20
28.5337
 30
0.0
 40
0
 41
0
  0
VERTEX
  8
CCC-CC-CC
 10
37.4922
 20
31.3573
 30
0.0
 40
0
 41
0
  0
VERTEX
  8
CCC-CC-CC
 10
37.1877
 20
33.631
 30
0.0
 40
0
 41
0
  0
VERTEX
  8
CCC-CC-CC
 10
37.1877
 20
34.389
 30
0.0
 40
0
 41
0
  0
VERTEX
  8
CCC-CC-CC
 10
37.1877
 20
35.1482
 30
0.0
 40
0
 41
0
  0
VERTEX
  8
CCC-CC-CC
 10
37.4922
 20
37.422
 30
0.0
 40
0
 41
0
  0
VERTEX
  8
CCC-CC-CC
 10
38.3688
 20
40.2456
 30
0.0
 40
0
 41
0
  0
VERTEX
  8
CCC-CC-CC
 10
39.7563
 20
42.8018
 30
0.0
 40
0
 41
0
  0
VERTEX
  8
CCC-CC-CC
 10
41.5932
 20
45.0289
 30
0.0
 40
0
 41
0
  0
VERTEX
  8
CCC-CC-CC
 10
43.8203
 20
46.8658
 30
0.0
 40
0
 41
0
  0
VERTEX
  8
CCC-CC-CC
 10
46.3751
 20
48.2533
 30
0.0
 40
0
 41
0
  0
VERTEX
  8
CCC-CC-CC
 10
49.1987
 20
49.13
 30
0.0
 40
0
 41
0
  0
VERTEX
  8
CCC-CC-CC
 10
51.4724
 20
49.4344
 30
0.0
 40
0
 41
0
  0
VERTEX
  8
CCC-CC-CC
 10
52.2319
 20
49.4344
 30
0.0
 40
0
 41
0
  0
SEQEND
 8
0
  0
POLYLINE
  8
CCC-CC-CC
 66
     1
 10
0
 20
0
 30
0.0
 70
     1
 40
0
 41
0
  0
VERTEX
  8
CCC-CC-CC
 10
82.7278
 20
49.6369
 30
0.0
 40
0
 41
0
  0
VERTEX
  8
CCC-CC-CC
 10
83.4954
 20
49.6369
 30
0.0
 40
0
 41
0
  0
VERTEX
  8
CCC-CC-CC
 10
85.7994
 20
49.3282
 30
0.0
 40
0
 41
0
  0
VERTEX
  8
CCC-CC-CC
 10
88.6615
 20
48.4396
 30
0.0
 40
0
 41
0
  0
VERTEX
  8
CCC-CC-CC
 10
91.2523
 20
47.0337
 30
0.0
 40
0
 41
0
  0
VERTEX
  8
CCC-CC-CC
 10
93.5083
 20
45.1721
 30
0.0
 40
0
 41
0
  0
VERTEX
  8
CCC-CC-CC
 10
95.3699
 20
42.9147
 30
0.0
 40
0
 41
0
  0
VERTEX
  8
CCC-CC-CC
 10
96.7754
 20
40.3243
 30
0.0
 40
0
 41
0
  0
VERTEX
  8
CCC-CC-CC
 10
97.6644
 20
37.4618
 30
0.0
 40
0
 41
0
  0
VERTEX
  8
CCC-CC-CC
 10
97.9745
 20
35.1579
 30
0.0
 40
0
 41
0
  0
VERTEX
  8
CCC-CC-CC
 10
97.9745
 20
34.389
 30
0.0
 40
0
 41
0
  0
VERTEX
  8
CCC-CC-CC
 10
97.9745
 20
33.6214
 30
0.0
 40
0
 41
0
  0
VERTEX
  8
CCC-CC-CC
 10
97.6644
 20
31.3173
 30
0.0
 40
0
 41
0
  0
VERTEX
  8
CCC-CC-CC
 10
96.7754
 20
28.4551
 30
0.0
 40
0
 41
0
  0
VERTEX
  8
CCC-CC-CC
 10
95.3699
 20
25.8644
 30
0.0
 40
0
 41
0
  0
VERTEX
  8
CCC-CC-CC
 10
93.5083
 20
23.6086
 30
0.0
 40
0
 41
0
  0
VERTEX
  8
CCC-CC-CC
 10
91.2523
 20
21.7468
 30
0.0
 40
0
 41
0
  0
VERTEX
  8
CCC-CC-CC
 10
88.6615
 20
20.3412
 30
0.0
 40
0
 41
0
  0
VERTEX
  8
CCC-CC-CC
 10
85.7994
 20
19.4524
 30
0.0
 40
0
 41
0
  0
VERTEX
  8
CCC-CC-CC
 10
83.4954
 20
19.1423
 30
0.0
 40
0
 41
0
  0
VERTEX
  8
CCC-CC-CC
 10
82.7278
 20
19.1423
 30
0.0
 40
0
 41
0
  0
VERTEX
  8
CCC-CC-CC
 10
81.9587
 20
19.1423
 30
0.0
 40
0
 41
0
  0
VERTEX
  8
CCC-CC-CC
 10
79.6548
 20
19.4524
 30
0.0
 40
0
 41
0
  0
VERTEX
  8
CCC-CC-CC
 10
76.7927
 20
20.3412
 30
0.0
 40
0
 41
0
  0
VERTEX
  8
CCC-CC-CC
 10
74.2019
 20
21.7468
 30
0.0
 40
0
 41
0
  0
VERTEX
  8
CCC-CC-CC
 10
71.9448
 20
23.6086
 30
0.0
 40
0
 41
0
  0
VERTEX
  8
CCC-CC-CC
 10
70.0828
 20
25.8644
 30
0.0
 40
0
 41
0
  0
VERTEX
  8
CCC-CC-CC
 10
68.6774
 20
28.4551
 30
0.0
 40
0
 41
0
  0
VERTEX
  8
CCC-CC-CC
 10
67.7884
 20
31.3173
 30
0.0
 40
0
 41
0
  0
VERTEX
  8
CCC-CC-CC
 10
67.4797
 20
33.6214
 30
0.0
 40
0
 41
0
  0
VERTEX
  8
CCC-CC-CC
 10
67.4797
 20
34.389
 30
0.0
 40
0
 41
0
  0
VERTEX
  8
CCC-CC-CC
 10
67.4797
 20
35.1579
 30
0.0
 40
0
 41
0
  0
VERTEX
  8
CCC-CC-CC
 10
67.7884
 20
37.4618
 30
0.0
 40
0
 41
0
  0
VERTEX
  8
CCC-CC-CC
 10
68.6774
 20
40.3243
 30
0.0
 40
0
 41
0
  0
VERTEX
  8
CCC-CC-CC
 10
70.0828
 20
42.9147
 30
0.0
 40
0
 41
0
  0
VERTEX
  8
CCC-CC-CC
 10
71.9448
 20
45.1721
 30
0.0
 40
0
 41
0
  0
VERTEX
  8
CCC-CC-CC
 10
74.2019
 20
47.0337
 30
0.0
 40
0
 41
0
  0
VERTEX
  8
CCC-CC-CC
 10
76.7927
 20
48.4396
 30
0.0
 40
0
 41
0
  0
VERTEX
  8
CCC-CC-CC
 10
79.6548
 20
49.3282
 30
0.0
 40
0
 41
0
  0
VERTEX
  8
CCC-CC-CC
 10
81.9587
 20
49.6369
 30
0.0
 40
0
 41
0
  0
VERTEX
  8
CCC-CC-CC
 10
82.7278
 20
49.6369
 30
0.0
 40
0
 41
0
  0
SEQEND
 8
0
  0
POLYLINE
  8
CCC-CC-CC
 66
     1
 10
0
 20
0
 30
0.0
 70
     1
 40
0
 41
0
  0
VERTEX
  8
CCC-CC-CC
 10
82.7278
 20
49.4344
 30
0.0
 40
0
 41
0
  0
VERTEX
  8
CCC-CC-CC
 10
83.4856
 20
49.4344
 30
0.0
 40
0
 41
0
  0
VERTEX
  8
CCC-CC-CC
 10
85.7596
 20
49.13
 30
0.0
 40
0
 41
0
  0
VERTEX
  8
CCC-CC-CC
 10
88.5832
 20
48.2533
 30
0.0
 40
0
 41
0
  0
VERTEX
  8
CCC-CC-CC
 10
91.138
 20
46.8658
 30
0.0
 40
0
 41
0
  0
VERTEX
  8
CCC-CC-CC
 10
93.3648
 20
45.0289
 30
0.0
 40
0
 41
0
  0
VERTEX
  8
CCC-CC-CC
 10
95.2017
 20
42.8018
 30
0.0
 40
0
 41
0
  0
VERTEX
  8
CCC-CC-CC
 10
96.5895
 20
40.2456
 30
0.0
 40
0
 41
0
  0
VERTEX
  8
CCC-CC-CC
 10
97.4658
 20
37.422
 30
0.0
 40
0
 41
0
  0
VERTEX
  8
CCC-CC-CC
 10
97.7717
 20
35.1482
 30
0.0
 40
0
 41
0
  0
VERTEX
  8
CCC-CC-CC
 10
97.7717
 20
34.389
 30
0.0
 40
0
 41
0
  0
VERTEX
  8
CCC-CC-CC
 10
97.7717
 20
33.631
 30
0.0
 40
0
 41
0
  0
VERTEX
  8
CCC-CC-CC
 10
97.4658
 20
31.3573
 30
0.0
 40
0
 41
0
  0
VERTEX
  8
CCC-CC-CC
 10
96.5895
 20
28.5337
 30
0.0
 40
0
 41
0
  0
VERTEX
  8
CCC-CC-CC
 10
95.2017
 20
25.9788
 30
0.0
 40
0
 41
0
  0
VERTEX
  8
CCC-CC-CC
 10
93.3648
 20
23.7519
 30
0.0
 40
0
 41
0
  0
VERTEX
  8
CCC-CC-CC
 10
91.138
 20
21.9149
 30
0.0
 40
0
 41
0
  0
VERTEX
  8
CCC-CC-CC
 10
88.5832
 20
20.5273
 30
0.0
 40
0
 41
0
  0
VERTEX
  8
CCC-CC-CC
 10
85.7596
 20
19.6508
 30
0.0
 40
0
 41
0
  0
VERTEX
  8
CCC-CC-CC
 10
83.4856
 20
19.3449
 30
0.0
 40
0
 41
0
  0
VERTEX
  8
CCC-CC-CC
 10
82.7278
 20
19.3449
 30
0.0
 40
0
 41
0
  0
VERTEX
  8
CCC-CC-CC
 10
81.9686
 20
19.3449
 30
0.0
 40
0
 41
0
  0
VERTEX
  8
CCC-CC-CC
 10
79.6946
 20
19.6508
 30
0.0
 40
0
 41
0
  0
VERTEX
  8
CCC-CC-CC
 10
76.871
 20
20.5273
 30
0.0
 40
0
 41
0
  0
VERTEX
  8
CCC-CC-CC
 10
74.3148
 20
21.9149
 30
0.0
 40
0
 41
0
  0
VERTEX
  8
CCC-CC-CC
 10
72.088
 20
23.7519
 30
0.0
 40
0
 41
0
  0
VERTEX
  8
CCC-CC-CC
 10
70.2511
 20
25.9788
 30
0.0
 40
0
 41
0
  0
VERTEX
  8
CCC-CC-CC
 10
68.8633
 20
28.5337
 30
0.0
 40
0
 41
0
  0
VERTEX
  8
CCC-CC-CC
 10
67.987
 20
31.3573
 30
0.0
 40
0
 41
0
  0
VERTEX
  8
CCC-CC-CC
 10
67.6822
 20
33.631
 30
0.0
 40
0
 41
0
  0
VERTEX
  8
CCC-CC-CC
 10
67.6822
 20
34.389
 30
0.0
 40
0
 41
0
  0
VERTEX
  8
CCC-CC-CC
 10
67.6822
 20
35.1482
 30
0.0
 40
0
 41
0
  0
VERTEX
  8
CCC-CC-CC
 10
67.987
 20
37.422
 30
0.0
 40
0
 41
0
  0
VERTEX
  8
CCC-CC-CC
 10
68.8633
 20
40.2456
 30
0.0
 40
0
 41
0
  0
VERTEX
  8
CCC-CC-CC
 10
70.2511
 20
42.8018
 30
0.0
 40
0
 41
0
  0
VERTEX
  8
CCC-CC-CC
 10
72.088
 20
45.0289
 30
0.0
 40
0
 41
0
  0
VERTEX
  8
CCC-CC-CC
 10
74.3148
 20
46.8658
 30
0.0
 40
0
 41
0
  0
VERTEX
  8
CCC-CC-CC
 10
76.871
 20
48.2533
 30
0.0
 40
0
 41
0
  0
VERTEX
  8
CCC-CC-CC
 10
79.6946
 20
49.13
 30
0.0
 40
0
 41
0
  0
VERTEX
  8
CCC-CC-CC
 10
81.9686
 20
49.4344
 30
0.0
 40
0
 41
0
  0
VERTEX
  8
CCC-CC-CC
 10
82.7278
 20
49.4344
 30
0.0
 40
0
 41
0
  0
SEQEND
 8
0
  0
POLYLINE
  8
CCC-CC-CC
 66
     1
 10
0
 20
0
 30
0.0
 70
     1
 40
0
 41
0
  0
VERTEX
  8
CCC-CC-CC
 10
113.222
 20
49.6369
 30
0.0
 40
0
 41
0
  0
VERTEX
  8
CCC-CC-CC
 10
113.99
 20
49.6369
 30
0.0
 40
0
 41
0
  0
VERTEX
  8
CCC-CC-CC
 10
116.294
 20
49.3282
 30
0.0
 40
0
 41
0
  0
VERTEX
  8
CCC-CC-CC
 10
119.156
 20
48.4396
 30
0.0
 40
0
 41
0
  0
VERTEX
  8
CCC-CC-CC
 10
121.747
 20
47.0337
 30
0.0
 40
0
 41
0
  0
VERTEX
  8
CCC-CC-CC
 10
124.004
 20
45.1721
 30
0.0
 40
0
 41
0
  0
VERTEX
  8
CCC-CC-CC
 10
125.866
 20
42.9147
 30
0.0
 40
0
 41
0
  0
VERTEX
  8
CCC-CC-CC
 10
127.272
 20
40.3243
 30
0.0
 40
0
 41
0
  0
VERTEX
  8
CCC-CC-CC
 10
128.16
 20
37.4618
 30
0.0
 40
0
 41
0
  0
VERTEX
  8
CCC-CC-CC
 10
128.47
 20
35.1579
 30
0.0
 40
0
 41
0
  0
VERTEX
  8
CCC-CC-CC
 10
128.47
 20
34.389
 30
0.0
 40
0
 41
0
  0
VERTEX
  8
CCC-CC-CC
 10
128.47
 20
33.6214
 30
0.0
 40
0
 41
0
  0
VERTEX
  8
CCC-CC-CC
 10
128.16
 20
31.3173
 30
0.0
 40
0
 41
0
  0
VERTEX
  8
CCC-CC-CC
 10
127.272
 20
28.4551
 30
0.0
 40
0
 41
0
  0
VERTEX
  8
CCC-CC-CC
 10
125.866
 20
25.8644
 30
0.0
 40
0
 41
0
  0
VERTEX
  8
CCC-CC-CC
 10
124.004
 20
23.6086
 30
0.0
 40
0
 41
0
  0
VERTEX
  8
CCC-CC-CC
 10
121.747
 20
21.7468
 30
0.0
 40
0
 41
0
  0
VERTEX
  8
CCC-CC-CC
 10
119.156
 20
20.3412
 30
0.0
 40
0
 41
0
  0
VERTEX
  8
CCC-CC-CC
 10
116.294
 20
19.4524
 30
0.0
 40
0
 41
0
  0
VERTEX
  8
CCC-CC-CC
 10
113.99
 20
19.1423
 30
0.0
 40
0
 41
0
  0
VERTEX
  8
CCC-CC-CC
 10
113.222
 20
19.1423
 30
0.0
 40
0
 41
0
  0
VERTEX
  8
CCC-CC-CC
 10
112.454
 20
19.1423
 30
0.0
 40
0
 41
0
  0
VERTEX
  8
CCC-CC-CC
 10
110.149
 20
19.4524
 30
0.0
 40
0
 41
0
  0
VERTEX
  8
CCC-CC-CC
 10
107.287
 20
20.3412
 30
0.0
 40
0
 41
0
  0
VERTEX
  8
CCC-CC-CC
 10
104.696
 20
21.7468
 30
0.0
 40
0
 41
0
  0
VERTEX
  8
CCC-CC-CC
 10
102.439
 20
23.6086
 30
0.0
 40
0
 41
0
  0
VERTEX
  8
CCC-CC-CC
 10
100.578
 20
25.8644
 30
0.0
 40
0
 41
0
  0
VERTEX
  8
CCC-CC-CC
 10
99.1718
 20
28.4551
 30
0.0
 40
0
 41
0
  0
VERTEX
  8
CCC-CC-CC
 10
98.2832
 20
31.3173
 30
0.0
 40
0
 41
0
  0
VERTEX
  8
CCC-CC-CC
 10
97.9745
 20
33.6214
 30
0.0
 40
0
 41
0
  0
VERTEX
  8
CCC-CC-CC
 10
97.9745
 20
34.389
 30
0.0
 40
0
 41
0
  0
VERTEX
  8
CCC-CC-CC
 10
97.9745
 20
35.1579
 30
0.0
 40
0
 41
0
  0
VERTEX
  8
CCC-CC-CC
 10
98.2832
 20
37.4618
 30
0.0
 40
0
 41
0
  0
VERTEX
  8
CCC-CC-CC
 10
99.1718
 20
40.3243
 30
0.0
 40
0
 41
0
  0
VERTEX
  8
CCC-CC-CC
 10
100.578
 20
42.9147
 30
0.0
 40
0
 41
0
  0
VERTEX
  8
CCC-CC-CC
 10
102.439
 20
45.1721
 30
0.0
 40
0
 41
0
  0
VERTEX
  8
CCC-CC-CC
 10
104.696
 20
47.0337
 30
0.0
 40
0
 41
0
  0
VERTEX
  8
CCC-CC-CC
 10
107.287
 20
48.4396
 30
0.0
 40
0
 41
0
  0
VERTEX
  8
CCC-CC-CC
 10
110.149
 20
49.3282
 30
0.0
 40
0
 41
0
  0
VERTEX
  8
CCC-CC-CC
 10
112.454
 20
49.6369
 30
0.0
 40
0
 41
0
  0
VERTEX
  8
CCC-CC-CC
 10
113.222
 20
49.6369
 30
0.0
 40
0
 41
0
  0
SEQEND
 8
0
  0
POLYLINE
  8
CCC-CC-CC
 66
     1
 10
0
 20
0
 30
0.0
 70
     1
 40
0
 41
0
  0
VERTEX
  8
CCC-CC-CC
 10
113.222
 20
49.4344
 30
0.0
 40
0
 41
0
  0
VERTEX
  8
CCC-CC-CC
 10
113.98
 20
49.4344
 30
0.0
 40
0
 41
0
  0
VERTEX
  8
CCC-CC-CC
 10
116.254
 20
49.13
 30
0.0
 40
0
 41
0
  0
VERTEX
  8
CCC-CC-CC
 10
119.078
 20
48.2533
 30
0.0
 40
0
 41
0
  0
VERTEX
  8
CCC-CC-CC
 10
121.634
 20
46.8658
 30
0.0
 40
0
 41
0
  0
VERTEX
  8
CCC-CC-CC
 10
123.86
 20
45.0289
 30
0.0
 40
0
 41
0
  0
VERTEX
  8
CCC-CC-CC
 10
125.696
 20
42.8018
 30
0.0
 40
0
 41
0
  0
VERTEX
  8
CCC-CC-CC
 10
127.084
 20
40.2456
 30
0.0
 40
0
 41
0
  0
VERTEX
  8
CCC-CC-CC
 10
127.961
 20
37.422
 30
0.0
 40
0
 41
0
  0
VERTEX
  8
CCC-CC-CC
 10
128.266
 20
35.1482
 30
0.0
 40
0
 41
0
  0
VERTEX
  8
CCC-CC-CC
 10
128.266
 20
34.389
 30
0.0
 40
0
 41
0
  0
VERTEX
  8
CCC-CC-CC
 10
128.266
 20
33.631
 30
0.0
 40
0
 41
0
  0
VERTEX
  8
CCC-CC-CC
 10
127.961
 20
31.3573
 30
0.0
 40
0
 41
0
  0
VERTEX
  8
CCC-CC-CC
 10
127.084
 20
28.5337
 30
0.0
 40
0
 41
0
  0
VERTEX
  8
CCC-CC-CC
 10
125.696
 20
25.9788
 30
0.0
 40
0
 41
0
  0
VERTEX
  8
CCC-CC-CC
 10
123.86
 20
23.7519
 30
0.0
 40
0
 41
0
  0
VERTEX
  8
CCC-CC-CC
 10
121.634
 20
21.9149
 30
0.0
 40
0
 41
0
  0
VERTEX
  8
CCC-CC-CC
 10
119.078
 20
20.5273
 30
0.0
 40
0
 41
0
  0
VERTEX
  8
CCC-CC-CC
 10
116.254
 20
19.6508
 30
0.0
 40
0
 41
0
  0
VERTEX
  8
CCC-CC-CC
 10
113.98
 20
19.3449
 30
0.0
 40
0
 41
0
  0
VERTEX
  8
CCC-CC-CC
 10
113.222
 20
19.3449
 30
0.0
 40
0
 41
0
  0
VERTEX
  8
CCC-CC-CC
 10
112.463
 20
19.3449
 30
0.0
 40
0
 41
0
  0
VERTEX
  8
CCC-CC-CC
 10
110.189
 20
19.6508
 30
0.0
 40
0
 41
0
  0
VERTEX
  8
CCC-CC-CC
 10
107.366
 20
20.5273
 30
0.0
 40
0
 41
0
  0
VERTEX
  8
CCC-CC-CC
 10
104.811
 20
21.9149
 30
0.0
 40
0
 41
0
  0
VERTEX
  8
CCC-CC-CC
 10
102.584
 20
23.7519
 30
0.0
 40
0
 41
0
  0
VERTEX
  8
CCC-CC-CC
 10
100.747
 20
25.9788
 30
0.0
 40
0
 41
0
  0
VERTEX
  8
CCC-CC-CC
 10
99.3592
 20
28.5337
 30
0.0
 40
0
 41
0
  0
VERTEX
  8
CCC-CC-CC
 10
98.4829
 20
31.3573
 30
0.0
 40
0
 41
0
  0
VERTEX
  8
CCC-CC-CC
 10
98.1784
 20
33.631
 30
0.0
 40
0
 41
0
  0
VERTEX
  8
CCC-CC-CC
 10
98.1784
 20
34.389
 30
0.0
 40
0
 41
0
  0
VERTEX
  8
CCC-CC-CC
 10
98.1784
 20
35.1482
 30
0.0
 40
0
 41
0
  0
VERTEX
  8
CCC-CC-CC
 10
98.4829
 20
37.422
 30
0.0
 40
0
 41
0
  0
VERTEX
  8
CCC-CC-CC
 10
99.3592
 20
40.2456
 30
0.0
 40
0
 41
0
  0
VERTEX
  8
CCC-CC-CC
 10
100.747
 20
42.8018
 30
0.0
 40
0
 41
0
  0
VERTEX
  8
CCC-CC-CC
 10
102.584
 20
45.0289
 30
0.0
 40
0
 41
0
  0
VERTEX
  8
CCC-CC-CC
 10
104.811
 20
46.8658
 30
0.0
 40
0
 41
0
  0
VERTEX
  8
CCC-CC-CC
 10
107.366
 20
48.2533
 30
0.0
 40
0
 41
0
  0
VERTEX
  8
CCC-CC-CC
 10
110.189
 20
49.13
 30
0.0
 40
0
 41
0
  0
VERTEX
  8
CCC-CC-CC
 10
112.463
 20
49.4344
 30
0.0
 40
0
 41
0
  0
VERTEX
  8
CCC-CC-CC
 10
113.222
 20
49.4344
 30
0.0
 40
0
 41
0
  0
SEQEND
 8
0
  0
POLYLINE
  8
CCC-CC-CC
 66
     1
 10
0
 20
0
 30
0.0
 70
     1
 40
0
 41
0
  0
VERTEX
  8
CCC-CC-CC
 10
143.718
 20
49.6369
 30
0.0
 40
0
 41
0
  0
VERTEX
  8
CCC-CC-CC
 10
144.486
 20
49.6369
 30
0.0
 40
0
 41
0
  0
VERTEX
  8
CCC-CC-CC
 10
146.79
 20
49.3282
 30
0.0
 40
0
 41
0
  0
VERTEX
  8
CCC-CC-CC
 10
149.652
 20
48.4396
 30
0.0
 40
0
 41
0
  0
VERTEX
  8
CCC-CC-CC
 10
152.243
 20
47.0337
 30
0.0
 40
0
 41
0
  0
VERTEX
  8
CCC-CC-CC
 10
154.499
 20
45.1721
 30
0.0
 40
0
 41
0
  0
VERTEX
  8
CCC-CC-CC
 10
156.361
 20
42.9147
 30
0.0
 40
0
 41
0
  0
VERTEX
  8
CCC-CC-CC
 10
157.766
 20
40.3243
 30
0.0
 40
0
 41
0
  0
VERTEX
  8
CCC-CC-CC
 10
158.655
 20
37.4618
 30
0.0
 40
0
 41
0
  0
VERTEX
  8
CCC-CC-CC
 10
158.965
 20
35.1579
 30
0.0
 40
0
 41
0
  0
VERTEX
  8
CCC-CC-CC
 10
158.965
 20
34.389
 30
0.0
 40
0
 41
0
  0
VERTEX
  8
CCC-CC-CC
 10
158.965
 20
33.6214
 30
0.0
 40
0
 41
0
  0
VERTEX
  8
CCC-CC-CC
 10
158.655
 20
31.3173
 30
0.0
 40
0
 41
0
  0
VERTEX
  8
CCC-CC-CC
 10
157.766
 20
28.4551
 30
0.0
 40
0
 41
0
  0
VERTEX
  8
CCC-CC-CC
 10
156.361
 20
25.8644
 30
0.0
 40
0
 41
0
  0
VERTEX
  8
CCC-CC-CC
 10
154.499
 20
23.6086
 30
0.0
 40
0
 41
0
  0
VERTEX
  8
CCC-CC-CC
 10
152.243
 20
21.7468
 30
0.0
 40
0
 41
0
  0
VERTEX
  8
CCC-CC-CC
 10
149.652
 20
20.3412
 30
0.0
 40
0
 41
0
  0
VERTEX
  8
CCC-CC-CC
 10
146.79
 20
19.4524
 30
0.0
 40
0
 41
0
  0
VERTEX
  8
CCC-CC-CC
 10
144.486
 20
19.1423
 30
0.0
 40
0
 41
0
  0
VERTEX
  8
CCC-CC-CC
 10
143.718
 20
19.1423
 30
0.0
 40
0
 41
0
  0
VERTEX
  8
CCC-CC-CC
 10
142.949
 20
19.1423
 30
0.0
 40
0
 41
0
  0
VERTEX
  8
CCC-CC-CC
 10
140.645
 20
19.4524
 30
0.0
 40
0
 41
0
  0
VERTEX
  8
CCC-CC-CC
 10
137.783
 20
20.3412
 30
0.0
 40
0
 41
0
  0
VERTEX
  8
CCC-CC-CC
 10
135.193
 20
21.7468
 30
0.0
 40
0
 41
0
  0
VERTEX
  8
CCC-CC-CC
 10
132.935
 20
23.6086
 30
0.0
 40
0
 41
0
  0
VERTEX
  8
CCC-CC-CC
 10
131.074
 20
25.8644
 30
0.0
 40
0
 41
0
  0
VERTEX
  8
CCC-CC-CC
 10
129.668
 20
28.4551
 30
0.0
 40
0
 41
0
  0
VERTEX
  8
CCC-CC-CC
 10
128.779
 20
31.3173
 30
0.0
 40
0
 41
0
  0
VERTEX
  8
CCC-CC-CC
 10
128.47
 20
33.6214
 30
0.0
 40
0
 41
0
  0
VERTEX
  8
CCC-CC-CC
 10
128.47
 20
34.389
 30
0.0
 40
0
 41
0
  0
VERTEX
  8
CCC-CC-CC
 10
128.47
 20
35.1579
 30
0.0
 40
0
 41
0
  0
VERTEX
  8
CCC-CC-CC
 10
128.779
 20
37.4618
 30
0.0
 40
0
 41
0
  0
VERTEX
  8
CCC-CC-CC
 10
129.668
 20
40.3243
 30
0.0
 40
0
 41
0
  0
VERTEX
  8
CCC-CC-CC
 10
131.074
 20
42.9147
 30
0.0
 40
0
 41
0
  0
VERTEX
  8
CCC-CC-CC
 10
132.935
 20
45.1721
 30
0.0
 40
0
 41
0
  0
VERTEX
  8
CCC-CC-CC
 10
135.193
 20
47.0337
 30
0.0
 40
0
 41
0
  0
VERTEX
  8
CCC-CC-CC
 10
137.783
 20
48.4396
 30
0.0
 40
0
 41
0
  0
VERTEX
  8
CCC-CC-CC
 10
140.645
 20
49.3282
 30
0.0
 40
0
 41
0
  0
VERTEX
  8
CCC-CC-CC
 10
142.949
 20
49.6369
 30
0.0
 40
0
 41
0
  0
VERTEX
  8
CCC-CC-CC
 10
143.718
 20
49.6369
 30
0.0
 40
0
 41
0
  0
SEQEND
 8
0
  0
POLYLINE
  8
CCC-CC-CC
 66
     1
 10
0
 20
0
 30
0.0
 70
     1
 40
0
 41
0
  0
VERTEX
  8
CCC-CC-CC
 10
143.718
 20
49.4344
 30
0.0
 40
0
 41
0
  0
VERTEX
  8
CCC-CC-CC
 10
144.476
 20
49.4344
 30
0.0
 40
0
 41
0
  0
VERTEX
  8
CCC-CC-CC
 10
146.75
 20
49.13
 30
0.0
 40
0
 41
0
  0
VERTEX
  8
CCC-CC-CC
 10
149.574
 20
48.2533
 30
0.0
 40
0
 41
0
  0
VERTEX
  8
CCC-CC-CC
 10
152.128
 20
46.8658
 30
0.0
 40
0
 41
0
  0
VERTEX
  8
CCC-CC-CC
 10
154.355
 20
45.0289
 30
0.0
 40
0
 41
0
  0
VERTEX
  8
CCC-CC-CC
 10
156.192
 20
42.8018
 30
0.0
 40
0
 41
0
  0
VERTEX
  8
CCC-CC-CC
 10
157.58
 20
40.2456
 30
0.0
 40
0
 41
0
  0
VERTEX
  8
CCC-CC-CC
 10
158.456
 20
37.422
 30
0.0
 40
0
 41
0
  0
VERTEX
  8
CCC-CC-CC
 10
158.762
 20
35.1482
 30
0.0
 40
0
 41
0
  0
VERTEX
  8
CCC-CC-CC
 10
158.762
 20
34.389
 30
0.0
 40
0
 41
0
  0
VERTEX
  8
CCC-CC-CC
 10
158.762
 20
33.631
 30
0.0
 40
0
 41
0
  0
VERTEX
  8
CCC-CC-CC
 10
158.456
 20
31.3573
 30
0.0
 40
0
 41
0
  0
VERTEX
  8
CCC-CC-CC
 10
157.58
 20
28.5337
 30
0.0
 40
0
 41
0
  0
VERTEX
  8
CCC-CC-CC
 10
156.192
 20
25.9788
 30
0.0
 40
0
 41
0
  0
VERTEX
  8
CCC-CC-CC
 10
154.355
 20
23.7519
 30
0.0
 40
0
 41
0
  0
VERTEX
  8
CCC-CC-CC
 10
152.128
 20
21.9149
 30
0.0
 40
0
 41
0
  0
VERTEX
  8
CCC-CC-CC
 10
149.574
 20
20.5273
 30
0.0
 40
0
 41
0
  0
VERTEX
  8
CCC-CC-CC
 10
146.75
 20
19.6508
 30
0.0
 40
0
 41
0
  0
VERTEX
  8
CCC-CC-CC
 10
144.476
 20
19.3449
 30
0.0
 40
0
 41
0
  0
VERTEX
  8
CCC-CC-CC
 10
143.718
 20
19.3449
 30
0.0
 40
0
 41
0
  0
VERTEX
  8
CCC-CC-CC
 10
142.959
 20
19.3449
 30
0.0
 40
0
 41
0
  0
VERTEX
  8
CCC-CC-CC
 10
140.685
 20
19.6508
 30
0.0
 40
0
 41
0
  0
VERTEX
  8
CCC-CC-CC
 10
137.862
 20
20.5273
 30
0.0
 40
0
 41
0
  0
VERTEX
  8
CCC-CC-CC
 10
135.305
 20
21.9149
 30
0.0
 40
0
 41
0
  0
VERTEX
  8
CCC-CC-CC
 10
133.078
 20
23.7519
 30
0.0
 40
0
 41
0
  0
VERTEX
  8
CCC-CC-CC
 10
131.241
 20
25.9788
 30
0.0
 40
0
 41
0
  0
VERTEX
  8
CCC-CC-CC
 10
129.854
 20
28.5337
 30
0.0
 40
0
 41
0
  0
VERTEX
  8
CCC-CC-CC
 10
128.977
 20
31.3573
 30
0.0
 40
0
 41
0
  0
VERTEX
  8
CCC-CC-CC
 10
128.673
 20
33.631
 30
0.0
 40
0
 41
0
  0
VERTEX
  8
CCC-CC-CC
 10
128.673
 20
34.389
 30
0.0
 40
0
 41
0
  0
VERTEX
  8
CCC-CC-CC
 10
128.673
 20
35.1482
 30
0.0
 40
0
 41
0
  0
VERTEX
  8
CCC-CC-CC
 10
128.977
 20
37.422
 30
0.0
 40
0
 41
0
  0
VERTEX
  8
CCC-CC-CC
 10
129.854
 20
40.2456
 30
0.0
 40
0
 41
0
  0
VERTEX
  8
CCC-CC-CC
 10
131.241
 20
42.8018
 30
0.0
 40
0
 41
0
  0
VERTEX
  8
CCC-CC-CC
 10
133.078
 20
45.0289
 30
0.0
 40
0
 41
0
  0
VERTEX
  8
CCC-CC-CC
 10
135.305
 20
46.8658
 30
0.0
 40
0
 41
0
  0
VERTEX
  8
CCC-CC-CC
 10
137.862
 20
48.2533
 30
0.0
 40
0
 41
0
  0
VERTEX
  8
CCC-CC-CC
 10
140.685
 20
49.13
 30
0.0
 40
0
 41
0
  0
VERTEX
  8
CCC-CC-CC
 10
142.959
 20
49.4344
 30
0.0
 40
0
 41
0
  0
VERTEX
  8
CCC-CC-CC
 10
143.718
 20
49.4344
 30
0.0
 40
0
 41
0
  0
SEQEND
 8
0
  0
ENDSEC
  0
EOF
