  0
SECTION
  2
HEADER
  9
$ACADVER
  1
AC1009
  9
$FILLMODE
 70
 0
  9
$SPLFRAME
 70
 1
  9
$EXTMIN
 10
0
 20
0
 30
0.0
  9
$EXTMAX
 10
1058.33
 20
1058.33
 30
0.0
  0
ENDSEC
  0
SECTION
  2
TABLES
  0
TABLE
  2
LAYER
 70
5
  0
LAYER
  2
0
 70
     0
 62
     7
  6
CONTINUOUS
  0
LAYER
  2
C00-00-00-BLACK
 70
0
 62
7
  6
CONTINUOUS
  0
LAYER
  2
CFF-FF-FF-WHITE
 70
0
 62
7
  6
CONTINUOUS
  0
LAYER
  2
CCC-CC-CC
 70
0
 62
254
  6
CONTINUOUS
  0
ENDTAB
  0
ENDSEC
  0
SECTION
  2
ENTITIES
  0
POLYLINE
  8
CFF-FF-FF-WHITE
 66
     1
 10
0
 20
0
 30
0.0
 70
     1
 40
0
 41
0
  0
VERTEX
  8
CFF-FF-FF-WHITE
 10
3.43958
 20
293.599
 30
0.0
 40
0
 41
0
  0
VERTEX
  8
CFF-FF-FF-WHITE
 10
206.131
 20
293.599
 30
0.0
 40
0
 41
0
  0
VERTEX
  8
CFF-FF-FF-WHITE
 10
206.131
 20
152.101
 30
0.0
 40
0
 41
0
  0
VERTEX
  8
CFF-FF-FF-WHITE
 10
3.43958
 20
152.101
 30
0.0
 40
0
 41
0
  0
VERTEX
  8
CFF-FF-FF-WHITE
 10
3.43958
 20
293.599
 30
0.0
 40
0
 41
0
  0
SEQEND
 8
0
  0
POLYLINE
  8
CCC-CC-CC
 66
     1
 10
0
 20
0
 30
0.0
 70
     1
 40
0
 41
0
  0
VERTEX
  8
CCC-CC-CC
 10
52.2319
 20
293.599
 30
0.0
 40
0
 41
0
  0
VERTEX
  8
CCC-CC-CC
 10
52.9992
 20
293.599
 30
0.0
 40
0
 41
0
  0
VERTEX
  8
CCC-CC-CC
 10
55.3036
 20
293.291
 30
0.0
 40
0
 41
0
  0
VERTEX
  8
CCC-CC-CC
 10
58.1656
 20
292.402
 30
0.0
 40
0
 41
0
  0
VERTEX
  8
CCC-CC-CC
 10
60.7564
 20
290.996
 30
0.0
 40
0
 41
0
  0
VERTEX
  8
CCC-CC-CC
 10
63.0135
 20
289.135
 30
0.0
 40
0
 41
0
  0
VERTEX
  8
CCC-CC-CC
 10
64.8751
 20
286.877
 30
0.0
 40
0
 41
0
  0
VERTEX
  8
CCC-CC-CC
 10
66.2809
 20
284.287
 30
0.0
 40
0
 41
0
  0
VERTEX
  8
CCC-CC-CC
 10
67.1696
 20
281.424
 30
0.0
 40
0
 41
0
  0
VERTEX
  8
CCC-CC-CC
 10
67.4797
 20
279.12
 30
0.0
 40
0
 41
0
  0
VERTEX
  8
CCC-CC-CC
 10
67.4797
 20
278.351
 30
0.0
 40
0
 41
0
  0
VERTEX
  8
CCC-CC-CC
 10
67.4797
 20
277.584
 30
0.0
 40
0
 41
0
  0
VERTEX
  8
CCC-CC-CC
 10
67.1696
 20
275.28
 30
0.0
 40
0
 41
0
  0
VERTEX
  8
CCC-CC-CC
 10
66.2809
 20
272.417
 30
0.0
 40
0
 41
0
  0
VERTEX
  8
CCC-CC-CC
 10
64.8751
 20
269.827
 30
0.0
 40
0
 41
0
  0
VERTEX
  8
CCC-CC-CC
 10
63.0135
 20
267.571
 30
0.0
 40
0
 41
0
  0
VERTEX
  8
CCC-CC-CC
 10
60.7564
 20
265.709
 30
0.0
 40
0
 41
0
  0
VERTEX
  8
CCC-CC-CC
 10
58.1656
 20
264.304
 30
0.0
 40
0
 41
0
  0
VERTEX
  8
CCC-CC-CC
 10
55.3036
 20
263.415
 30
0.0
 40
0
 41
0
  0
VERTEX
  8
CCC-CC-CC
 10
52.9992
 20
263.105
 30
0.0
 40
0
 41
0
  0
VERTEX
  8
CCC-CC-CC
 10
52.2319
 20
263.105
 30
0.0
 40
0
 41
0
  0
VERTEX
  8
CCC-CC-CC
 10
51.4629
 20
263.105
 30
0.0
 40
0
 41
0
  0
VERTEX
  8
CCC-CC-CC
 10
49.1589
 20
263.415
 30
0.0
 40
0
 41
0
  0
VERTEX
  8
CCC-CC-CC
 10
46.2964
 20
264.304
 30
0.0
 40
0
 41
0
  0
VERTEX
  8
CCC-CC-CC
 10
43.706
 20
265.709
 30
0.0
 40
0
 41
0
  0
VERTEX
  8
CCC-CC-CC
 10
41.4486
 20
267.571
 30
0.0
 40
0
 41
0
  0
VERTEX
  8
CCC-CC-CC
 10
39.587
 20
269.827
 30
0.0
 40
0
 41
0
  0
VERTEX
  8
CCC-CC-CC
 10
38.1811
 20
272.417
 30
0.0
 40
0
 41
0
  0
VERTEX
  8
CCC-CC-CC
 10
37.2925
 20
275.28
 30
0.0
 40
0
 41
0
  0
VERTEX
  8
CCC-CC-CC
 10
36.9838
 20
277.584
 30
0.0
 40
0
 41
0
  0
VERTEX
  8
CCC-CC-CC
 10
36.9838
 20
278.351
 30
0.0
 40
0
 41
0
  0
VERTEX
  8
CCC-CC-CC
 10
36.9838
 20
279.12
 30
0.0
 40
0
 41
0
  0
VERTEX
  8
CCC-CC-CC
 10
37.2925
 20
281.424
 30
0.0
 40
0
 41
0
  0
VERTEX
  8
CCC-CC-CC
 10
38.1811
 20
284.287
 30
0.0
 40
0
 41
0
  0
VERTEX
  8
CCC-CC-CC
 10
39.587
 20
286.877
 30
0.0
 40
0
 41
0
  0
VERTEX
  8
CCC-CC-CC
 10
41.4486
 20
289.135
 30
0.0
 40
0
 41
0
  0
VERTEX
  8
CCC-CC-CC
 10
43.706
 20
290.996
 30
0.0
 40
0
 41
0
  0
VERTEX
  8
CCC-CC-CC
 10
46.2964
 20
292.402
 30
0.0
 40
0
 41
0
  0
VERTEX
  8
CCC-CC-CC
 10
49.1589
 20
293.291
 30
0.0
 40
0
 41
0
  0
VERTEX
  8
CCC-CC-CC
 10
51.4629
 20
293.599
 30
0.0
 40
0
 41
0
  0
VERTEX
  8
CCC-CC-CC
 10
52.2319
 20
293.599
 30
0.0
 40
0
 41
0
  0
SEQEND
 8
0
  0
POLYLINE
  8
CCC-CC-CC
 66
     1
 10
0
 20
0
 30
0.0
 70
     1
 40
0
 41
0
  0
VERTEX
  8
CCC-CC-CC
 10
52.2319
 20
293.395
 30
0.0
 40
0
 41
0
  0
VERTEX
  8
CCC-CC-CC
 10
52.9897
 20
293.395
 30
0.0
 40
0
 41
0
  0
VERTEX
  8
CCC-CC-CC
 10
55.2633
 20
293.091
 30
0.0
 40
0
 41
0
  0
VERTEX
  8
CCC-CC-CC
 10
58.087
 20
292.214
 30
0.0
 40
0
 41
0
  0
VERTEX
  8
CCC-CC-CC
 10
60.6432
 20
290.827
 30
0.0
 40
0
 41
0
  0
VERTEX
  8
CCC-CC-CC
 10
62.8689
 20
288.99
 30
0.0
 40
0
 41
0
  0
VERTEX
  8
CCC-CC-CC
 10
64.7058
 20
286.764
 30
0.0
 40
0
 41
0
  0
VERTEX
  8
CCC-CC-CC
 10
66.0936
 20
284.208
 30
0.0
 40
0
 41
0
  0
VERTEX
  8
CCC-CC-CC
 10
66.9699
 20
281.384
 30
0.0
 40
0
 41
0
  0
VERTEX
  8
CCC-CC-CC
 10
67.2758
 20
279.111
 30
0.0
 40
0
 41
0
  0
VERTEX
  8
CCC-CC-CC
 10
67.2758
 20
278.351
 30
0.0
 40
0
 41
0
  0
VERTEX
  8
CCC-CC-CC
 10
67.2758
 20
277.593
 30
0.0
 40
0
 41
0
  0
VERTEX
  8
CCC-CC-CC
 10
66.9699
 20
275.32
 30
0.0
 40
0
 41
0
  0
VERTEX
  8
CCC-CC-CC
 10
66.0936
 20
272.496
 30
0.0
 40
0
 41
0
  0
VERTEX
  8
CCC-CC-CC
 10
64.7058
 20
269.941
 30
0.0
 40
0
 41
0
  0
VERTEX
  8
CCC-CC-CC
 10
62.8689
 20
267.714
 30
0.0
 40
0
 41
0
  0
VERTEX
  8
CCC-CC-CC
 10
60.6432
 20
265.877
 30
0.0
 40
0
 41
0
  0
VERTEX
  8
CCC-CC-CC
 10
58.087
 20
264.489
 30
0.0
 40
0
 41
0
  0
VERTEX
  8
CCC-CC-CC
 10
55.2633
 20
263.613
 30
0.0
 40
0
 41
0
  0
VERTEX
  8
CCC-CC-CC
 10
52.9897
 20
263.307
 30
0.0
 40
0
 41
0
  0
VERTEX
  8
CCC-CC-CC
 10
52.2319
 20
263.307
 30
0.0
 40
0
 41
0
  0
VERTEX
  8
CCC-CC-CC
 10
51.4724
 20
263.307
 30
0.0
 40
0
 41
0
  0
VERTEX
  8
CCC-CC-CC
 10
49.1987
 20
263.613
 30
0.0
 40
0
 41
0
  0
VERTEX
  8
CCC-CC-CC
 10
46.3751
 20
264.489
 30
0.0
 40
0
 41
0
  0
VERTEX
  8
CCC-CC-CC
 10
43.8203
 20
265.877
 30
0.0
 40
0
 41
0
  0
VERTEX
  8
CCC-CC-CC
 10
41.5932
 20
267.714
 30
0.0
 40
0
 41
0
  0
VERTEX
  8
CCC-CC-CC
 10
39.7563
 20
269.941
 30
0.0
 40
0
 41
0
  0
VERTEX
  8
CCC-CC-CC
 10
38.3688
 20
272.496
 30
0.0
 40
0
 41
0
  0
VERTEX
  8
CCC-CC-CC
 10
37.4922
 20
275.32
 30
0.0
 40
0
 41
0
  0
VERTEX
  8
CCC-CC-CC
 10
37.1877
 20
277.593
 30
0.0
 40
0
 41
0
  0
VERTEX
  8
CCC-CC-CC
 10
37.1877
 20
278.351
 30
0.0
 40
0
 41
0
  0
VERTEX
  8
CCC-CC-CC
 10
37.1877
 20
279.111
 30
0.0
 40
0
 41
0
  0
VERTEX
  8
CCC-CC-CC
 10
37.4922
 20
281.384
 30
0.0
 40
0
 41
0
  0
VERTEX
  8
CCC-CC-CC
 10
38.3688
 20
284.208
 30
0.0
 40
0
 41
0
  0
VERTEX
  8
CCC-CC-CC
 10
39.7563
 20
286.764
 30
0.0
 40
0
 41
0
  0
VERTEX
  8
CCC-CC-CC
 10
41.5932
 20
288.99
 30
0.0
 40
0
 41
0
  0
VERTEX
  8
CCC-CC-CC
 10
43.8203
 20
290.827
 30
0.0
 40
0
 41
0
  0
VERTEX
  8
CCC-CC-CC
 10
46.3751
 20
292.214
 30
0.0
 40
0
 41
0
  0
VERTEX
  8
CCC-CC-CC
 10
49.1987
 20
293.091
 30
0.0
 40
0
 41
0
  0
VERTEX
  8
CCC-CC-CC
 10
51.4724
 20
293.395
 30
0.0
 40
0
 41
0
  0
VERTEX
  8
CCC-CC-CC
 10
52.2319
 20
293.395
 30
0.0
 40
0
 41
0
  0
SEQEND
 8
0
  0
POLYLINE
  8
CCC-CC-CC
 66
     1
 10
0
 20
0
 30
0.0
 70
     1
 40
0
 41
0
  0
VERTEX
  8
CCC-CC-CC
 10
82.7278
 20
293.599
 30
0.0
 40
0
 41
0
  0
VERTEX
  8
CCC-CC-CC
 10
83.4954
 20
293.599
 30
0.0
 40
0
 41
0
  0
VERTEX
  8
CCC-CC-CC
 10
85.7994
 20
293.291
 30
0.0
 40
0
 41
0
  0
VERTEX
  8
CCC-CC-CC
 10
88.6615
 20
292.402
 30
0.0
 40
0
 41
0
  0
VERTEX
  8
CCC-CC-CC
 10
91.2523
 20
290.996
 30
0.0
 40
0
 41
0
  0
VERTEX
  8
CCC-CC-CC
 10
93.5083
 20
289.135
 30
0.0
 40
0
 41
0
  0
VERTEX
  8
CCC-CC-CC
 10
95.3699
 20
286.877
 30
0.0
 40
0
 41
0
  0
VERTEX
  8
CCC-CC-CC
 10
96.7754
 20
284.287
 30
0.0
 40
0
 41
0
  0
VERTEX
  8
CCC-CC-CC
 10
97.6644
 20
281.424
 30
0.0
 40
0
 41
0
  0
VERTEX
  8
CCC-CC-CC
 10
97.9745
 20
279.12
 30
0.0
 40
0
 41
0
  0
VERTEX
  8
CCC-CC-CC
 10
97.9745
 20
278.351
 30
0.0
 40
0
 41
0
  0
VERTEX
  8
CCC-CC-CC
 10
97.9745
 20
277.584
 30
0.0
 40
0
 41
0
  0
VERTEX
  8
CCC-CC-CC
 10
97.6644
 20
275.28
 30
0.0
 40
0
 41
0
  0
VERTEX
  8
CCC-CC-CC
 10
96.7754
 20
272.417
 30
0.0
 40
0
 41
0
  0
VERTEX
  8
CCC-CC-CC
 10
95.3699
 20
269.827
 30
0.0
 40
0
 41
0
  0
VERTEX
  8
CCC-CC-CC
 10
93.5083
 20
267.571
 30
0.0
 40
0
 41
0
  0
VERTEX
  8
CCC-CC-CC
 10
91.2523
 20
265.709
 30
0.0
 40
0
 41
0
  0
VERTEX
  8
CCC-CC-CC
 10
88.6615
 20
264.304
 30
0.0
 40
0
 41
0
  0
VERTEX
  8
CCC-CC-CC
 10
85.7994
 20
263.415
 30
0.0
 40
0
 41
0
  0
VERTEX
  8
CCC-CC-CC
 10
83.4954
 20
263.105
 30
0.0
 40
0
 41
0
  0
VERTEX
  8
CCC-CC-CC
 10
82.7278
 20
263.105
 30
0.0
 40
0
 41
0
  0
VERTEX
  8
CCC-CC-CC
 10
81.9587
 20
263.105
 30
0.0
 40
0
 41
0
  0
VERTEX
  8
CCC-CC-CC
 10
79.6548
 20
263.415
 30
0.0
 40
0
 41
0
  0
VERTEX
  8
CCC-CC-CC
 10
76.7927
 20
264.304
 30
0.0
 40
0
 41
0
  0
VERTEX
  8
CCC-CC-CC
 10
74.2019
 20
265.709
 30
0.0
 40
0
 41
0
  0
VERTEX
  8
CCC-CC-CC
 10
71.9448
 20
267.571
 30
0.0
 40
0
 41
0
  0
VERTEX
  8
CCC-CC-CC
 10
70.0828
 20
269.827
 30
0.0
 40
0
 41
0
  0
VERTEX
  8
CCC-CC-CC
 10
68.6774
 20
272.417
 30
0.0
 40
0
 41
0
  0
VERTEX
  8
CCC-CC-CC
 10
67.7884
 20
275.28
 30
0.0
 40
0
 41
0
  0
VERTEX
  8
CCC-CC-CC
 10
67.4797
 20
277.584
 30
0.0
 40
0
 41
0
  0
VERTEX
  8
CCC-CC-CC
 10
67.4797
 20
278.351
 30
0.0
 40
0
 41
0
  0
VERTEX
  8
CCC-CC-CC
 10
67.4797
 20
279.12
 30
0.0
 40
0
 41
0
  0
VERTEX
  8
CCC-CC-CC
 10
67.7884
 20
281.424
 30
0.0
 40
0
 41
0
  0
VERTEX
  8
CCC-CC-CC
 10
68.6774
 20
284.287
 30
0.0
 40
0
 41
0
  0
VERTEX
  8
CCC-CC-CC
 10
70.0828
 20
286.877
 30
0.0
 40
0
 41
0
  0
VERTEX
  8
CCC-CC-CC
 10
71.9448
 20
289.135
 30
0.0
 40
0
 41
0
  0
VERTEX
  8
CCC-CC-CC
 10
74.2019
 20
290.996
 30
0.0
 40
0
 41
0
  0
VERTEX
  8
CCC-CC-CC
 10
76.7927
 20
292.402
 30
0.0
 40
0
 41
0
  0
VERTEX
  8
CCC-CC-CC
 10
79.6548
 20
293.291
 30
0.0
 40
0
 41
0
  0
VERTEX
  8
CCC-CC-CC
 10
81.9587
 20
293.599
 30
0.0
 40
0
 41
0
  0
VERTEX
  8
CCC-CC-CC
 10
82.7278
 20
293.599
 30
0.0
 40
0
 41
0
  0
SEQEND
 8
0
  0
POLYLINE
  8
CCC-CC-CC
 66
     1
 10
0
 20
0
 30
0.0
 70
     1
 40
0
 41
0
  0
VERTEX
  8
CCC-CC-CC
 10
82.7278
 20
293.395
 30
0.0
 40
0
 41
0
  0
VERTEX
  8
CCC-CC-CC
 10
83.4856
 20
293.395
 30
0.0
 40
0
 41
0
  0
VERTEX
  8
CCC-CC-CC
 10
85.7596
 20
293.091
 30
0.0
 40
0
 41
0
  0
VERTEX
  8
CCC-CC-CC
 10
88.5832
 20
292.214
 30
0.0
 40
0
 41
0
  0
VERTEX
  8
CCC-CC-CC
 10
91.138
 20
290.827
 30
0.0
 40
0
 41
0
  0
VERTEX
  8
CCC-CC-CC
 10
93.3648
 20
288.99
 30
0.0
 40
0
 41
0
  0
VERTEX
  8
CCC-CC-CC
 10
95.2017
 20
286.764
 30
0.0
 40
0
 41
0
  0
VERTEX
  8
CCC-CC-CC
 10
96.5895
 20
284.208
 30
0.0
 40
0
 41
0
  0
VERTEX
  8
CCC-CC-CC
 10
97.4658
 20
281.384
 30
0.0
 40
0
 41
0
  0
VERTEX
  8
CCC-CC-CC
 10
97.7717
 20
279.111
 30
0.0
 40
0
 41
0
  0
VERTEX
  8
CCC-CC-CC
 10
97.7717
 20
278.351
 30
0.0
 40
0
 41
0
  0
VERTEX
  8
CCC-CC-CC
 10
97.7717
 20
277.593
 30
0.0
 40
0
 41
0
  0
VERTEX
  8
CCC-CC-CC
 10
97.4658
 20
275.32
 30
0.0
 40
0
 41
0
  0
VERTEX
  8
CCC-CC-CC
 10
96.5895
 20
272.496
 30
0.0
 40
0
 41
0
  0
VERTEX
  8
CCC-CC-CC
 10
95.2017
 20
269.941
 30
0.0
 40
0
 41
0
  0
VERTEX
  8
CCC-CC-CC
 10
93.3648
 20
267.714
 30
0.0
 40
0
 41
0
  0
VERTEX
  8
CCC-CC-CC
 10
91.138
 20
265.877
 30
0.0
 40
0
 41
0
  0
VERTEX
  8
CCC-CC-CC
 10
88.5832
 20
264.489
 30
0.0
 40
0
 41
0
  0
VERTEX
  8
CCC-CC-CC
 10
85.7596
 20
263.613
 30
0.0
 40
0
 41
0
  0
VERTEX
  8
CCC-CC-CC
 10
83.4856
 20
263.307
 30
0.0
 40
0
 41
0
  0
VERTEX
  8
CCC-CC-CC
 10
82.7278
 20
263.307
 30
0.0
 40
0
 41
0
  0
VERTEX
  8
CCC-CC-CC
 10
81.9686
 20
263.307
 30
0.0
 40
0
 41
0
  0
VERTEX
  8
CCC-CC-CC
 10
79.6946
 20
263.613
 30
0.0
 40
0
 41
0
  0
VERTEX
  8
CCC-CC-CC
 10
76.871
 20
264.489
 30
0.0
 40
0
 41
0
  0
VERTEX
  8
CCC-CC-CC
 10
74.3148
 20
265.877
 30
0.0
 40
0
 41
0
  0
VERTEX
  8
CCC-CC-CC
 10
72.088
 20
267.714
 30
0.0
 40
0
 41
0
  0
VERTEX
  8
CCC-CC-CC
 10
70.2511
 20
269.941
 30
0.0
 40
0
 41
0
  0
VERTEX
  8
CCC-CC-CC
 10
68.8633
 20
272.496
 30
0.0
 40
0
 41
0
  0
VERTEX
  8
CCC-CC-CC
 10
67.987
 20
275.32
 30
0.0
 40
0
 41
0
  0
VERTEX
  8
CCC-CC-CC
 10
67.6822
 20
277.593
 30
0.0
 40
0
 41
0
  0
VERTEX
  8
CCC-CC-CC
 10
67.6822
 20
278.351
 30
0.0
 40
0
 41
0
  0
VERTEX
  8
CCC-CC-CC
 10
67.6822
 20
279.111
 30
0.0
 40
0
 41
0
  0
VERTEX
  8
CCC-CC-CC
 10
67.987
 20
281.384
 30
0.0
 40
0
 41
0
  0
VERTEX
  8
CCC-CC-CC
 10
68.8633
 20
284.208
 30
0.0
 40
0
 41
0
  0
VERTEX
  8
CCC-CC-CC
 10
70.2511
 20
286.764
 30
0.0
 40
0
 41
0
  0
VERTEX
  8
CCC-CC-CC
 10
72.088
 20
288.99
 30
0.0
 40
0
 41
0
  0
VERTEX
  8
CCC-CC-CC
 10
74.3148
 20
290.827
 30
0.0
 40
0
 41
0
  0
VERTEX
  8
CCC-CC-CC
 10
76.871
 20
292.214
 30
0.0
 40
0
 41
0
  0
VERTEX
  8
CCC-CC-CC
 10
79.6946
 20
293.091
 30
0.0
 40
0
 41
0
  0
VERTEX
  8
CCC-CC-CC
 10
81.9686
 20
293.395
 30
0.0
 40
0
 41
0
  0
VERTEX
  8
CCC-CC-CC
 10
82.7278
 20
293.395
 30
0.0
 40
0
 41
0
  0
SEQEND
 8
0
  0
POLYLINE
  8
CCC-CC-CC
 66
     1
 10
0
 20
0
 30
0.0
 70
     1
 40
0
 41
0
  0
VERTEX
  8
CCC-CC-CC
 10
113.222
 20
293.599
 30
0.0
 40
0
 41
0
  0
VERTEX
  8
CCC-CC-CC
 10
113.99
 20
293.599
 30
0.0
 40
0
 41
0
  0
VERTEX
  8
CCC-CC-CC
 10
116.294
 20
293.291
 30
0.0
 40
0
 41
0
  0
VERTEX
  8
CCC-CC-CC
 10
119.156
 20
292.402
 30
0.0
 40
0
 41
0
  0
VERTEX
  8
CCC-CC-CC
 10
121.747
 20
290.996
 30
0.0
 40
0
 41
0
  0
VERTEX
  8
CCC-CC-CC
 10
124.004
 20
289.135
 30
0.0
 40
0
 41
0
  0
VERTEX
  8
CCC-CC-CC
 10
125.866
 20
286.877
 30
0.0
 40
0
 41
0
  0
VERTEX
  8
CCC-CC-CC
 10
127.272
 20
284.287
 30
0.0
 40
0
 41
0
  0
VERTEX
  8
CCC-CC-CC
 10
128.16
 20
281.424
 30
0.0
 40
0
 41
0
  0
VERTEX
  8
CCC-CC-CC
 10
128.47
 20
279.12
 30
0.0
 40
0
 41
0
  0
VERTEX
  8
CCC-CC-CC
 10
128.47
 20
278.351
 30
0.0
 40
0
 41
0
  0
VERTEX
  8
CCC-CC-CC
 10
128.47
 20
277.584
 30
0.0
 40
0
 41
0
  0
VERTEX
  8
CCC-CC-CC
 10
128.16
 20
275.28
 30
0.0
 40
0
 41
0
  0
VERTEX
  8
CCC-CC-CC
 10
127.272
 20
272.417
 30
0.0
 40
0
 41
0
  0
VERTEX
  8
CCC-CC-CC
 10
125.866
 20
269.827
 30
0.0
 40
0
 41
0
  0
VERTEX
  8
CCC-CC-CC
 10
124.004
 20
267.571
 30
0.0
 40
0
 41
0
  0
VERTEX
  8
CCC-CC-CC
 10
121.747
 20
265.709
 30
0.0
 40
0
 41
0
  0
VERTEX
  8
CCC-CC-CC
 10
119.156
 20
264.304
 30
0.0
 40
0
 41
0
  0
VERTEX
  8
CCC-CC-CC
 10
116.294
 20
263.415
 30
0.0
 40
0
 41
0
  0
VERTEX
  8
CCC-CC-CC
 10
113.99
 20
263.105
 30
0.0
 40
0
 41
0
  0
VERTEX
  8
CCC-CC-CC
 10
113.222
 20
263.105
 30
0.0
 40
0
 41
0
  0
VERTEX
  8
CCC-CC-CC
 10
112.454
 20
263.105
 30
0.0
 40
0
 41
0
  0
VERTEX
  8
CCC-CC-CC
 10
110.149
 20
263.415
 30
0.0
 40
0
 41
0
  0
VERTEX
  8
CCC-CC-CC
 10
107.287
 20
264.304
 30
0.0
 40
0
 41
0
  0
VERTEX
  8
CCC-CC-CC
 10
104.696
 20
265.709
 30
0.0
 40
0
 41
0
  0
VERTEX
  8
CCC-CC-CC
 10
102.439
 20
267.571
 30
0.0
 40
0
 41
0
  0
VERTEX
  8
CCC-CC-CC
 10
100.578
 20
269.827
 30
0.0
 40
0
 41
0
  0
VERTEX
  8
CCC-CC-CC
 10
99.1718
 20
272.417
 30
0.0
 40
0
 41
0
  0
VERTEX
  8
CCC-CC-CC
 10
98.2832
 20
275.28
 30
0.0
 40
0
 41
0
  0
VERTEX
  8
CCC-CC-CC
 10
97.9745
 20
277.584
 30
0.0
 40
0
 41
0
  0
VERTEX
  8
CCC-CC-CC
 10
97.9745
 20
278.351
 30
0.0
 40
0
 41
0
  0
VERTEX
  8
CCC-CC-CC
 10
97.9745
 20
279.12
 30
0.0
 40
0
 41
0
  0
VERTEX
  8
CCC-CC-CC
 10
98.2832
 20
281.424
 30
0.0
 40
0
 41
0
  0
VERTEX
  8
CCC-CC-CC
 10
99.1718
 20
284.287
 30
0.0
 40
0
 41
0
  0
VERTEX
  8
CCC-CC-CC
 10
100.578
 20
286.877
 30
0.0
 40
0
 41
0
  0
VERTEX
  8
CCC-CC-CC
 10
102.439
 20
289.135
 30
0.0
 40
0
 41
0
  0
VERTEX
  8
CCC-CC-CC
 10
104.696
 20
290.996
 30
0.0
 40
0
 41
0
  0
VERTEX
  8
CCC-CC-CC
 10
107.287
 20
292.402
 30
0.0
 40
0
 41
0
  0
VERTEX
  8
CCC-CC-CC
 10
110.149
 20
293.291
 30
0.0
 40
0
 41
0
  0
VERTEX
  8
CCC-CC-CC
 10
112.454
 20
293.599
 30
0.0
 40
0
 41
0
  0
VERTEX
  8
CCC-CC-CC
 10
113.222
 20
293.599
 30
0.0
 40
0
 41
0
  0
SEQEND
 8
0
  0
POLYLINE
  8
CCC-CC-CC
 66
     1
 10
0
 20
0
 30
0.0
 70
     1
 40
0
 41
0
  0
VERTEX
  8
CCC-CC-CC
 10
113.222
 20
293.395
 30
0.0
 40
0
 41
0
  0
VERTEX
  8
CCC-CC-CC
 10
113.98
 20
293.395
 30
0.0
 40
0
 41
0
  0
VERTEX
  8
CCC-CC-CC
 10
116.254
 20
293.091
 30
0.0
 40
0
 41
0
  0
VERTEX
  8
CCC-CC-CC
 10
119.078
 20
292.214
 30
0.0
 40
0
 41
0
  0
VERTEX
  8
CCC-CC-CC
 10
121.634
 20
290.827
 30
0.0
 40
0
 41
0
  0
VERTEX
  8
CCC-CC-CC
 10
123.86
 20
288.99
 30
0.0
 40
0
 41
0
  0
VERTEX
  8
CCC-CC-CC
 10
125.696
 20
286.764
 30
0.0
 40
0
 41
0
  0
VERTEX
  8
CCC-CC-CC
 10
127.084
 20
284.208
 30
0.0
 40
0
 41
0
  0
VERTEX
  8
CCC-CC-CC
 10
127.961
 20
281.384
 30
0.0
 40
0
 41
0
  0
VERTEX
  8
CCC-CC-CC
 10
128.266
 20
279.111
 30
0.0
 40
0
 41
0
  0
VERTEX
  8
CCC-CC-CC
 10
128.266
 20
278.351
 30
0.0
 40
0
 41
0
  0
VERTEX
  8
CCC-CC-CC
 10
128.266
 20
277.593
 30
0.0
 40
0
 41
0
  0
VERTEX
  8
CCC-CC-CC
 10
127.961
 20
275.32
 30
0.0
 40
0
 41
0
  0
VERTEX
  8
CCC-CC-CC
 10
127.084
 20
272.496
 30
0.0
 40
0
 41
0
  0
VERTEX
  8
CCC-CC-CC
 10
125.696
 20
269.941
 30
0.0
 40
0
 41
0
  0
VERTEX
  8
CCC-CC-CC
 10
123.86
 20
267.714
 30
0.0
 40
0
 41
0
  0
VERTEX
  8
CCC-CC-CC
 10
121.634
 20
265.877
 30
0.0
 40
0
 41
0
  0
VERTEX
  8
CCC-CC-CC
 10
119.078
 20
264.489
 30
0.0
 40
0
 41
0
  0
VERTEX
  8
CCC-CC-CC
 10
116.254
 20
263.613
 30
0.0
 40
0
 41
0
  0
VERTEX
  8
CCC-CC-CC
 10
113.98
 20
263.307
 30
0.0
 40
0
 41
0
  0
VERTEX
  8
CCC-CC-CC
 10
113.222
 20
263.307
 30
0.0
 40
0
 41
0
  0
VERTEX
  8
CCC-CC-CC
 10
112.463
 20
263.307
 30
0.0
 40
0
 41
0
  0
VERTEX
  8
CCC-CC-CC
 10
110.189
 20
263.613
 30
0.0
 40
0
 41
0
  0
VERTEX
  8
CCC-CC-CC
 10
107.366
 20
264.489
 30
0.0
 40
0
 41
0
  0
VERTEX
  8
CCC-CC-CC
 10
104.811
 20
265.877
 30
0.0
 40
0
 41
0
  0
VERTEX
  8
CCC-CC-CC
 10
102.584
 20
267.714
 30
0.0
 40
0
 41
0
  0
VERTEX
  8
CCC-CC-CC
 10
100.747
 20
269.941
 30
0.0
 40
0
 41
0
  0
VERTEX
  8
CCC-CC-CC
 10
99.3592
 20
272.496
 30
0.0
 40
0
 41
0
  0
VERTEX
  8
CCC-CC-CC
 10
98.4829
 20
275.32
 30
0.0
 40
0
 41
0
  0
VERTEX
  8
CCC-CC-CC
 10
98.1784
 20
277.593
 30
0.0
 40
0
 41
0
  0
VERTEX
  8
CCC-CC-CC
 10
98.1784
 20
278.351
 30
0.0
 40
0
 41
0
  0
VERTEX
  8
CCC-CC-CC
 10
98.1784
 20
279.111
 30
0.0
 40
0
 41
0
  0
VERTEX
  8
CCC-CC-CC
 10
98.4829
 20
281.384
 30
0.0
 40
0
 41
0
  0
VERTEX
  8
CCC-CC-CC
 10
99.3592
 20
284.208
 30
0.0
 40
0
 41
0
  0
VERTEX
  8
CCC-CC-CC
 10
100.747
 20
286.764
 30
0.0
 40
0
 41
0
  0
VERTEX
  8
CCC-CC-CC
 10
102.584
 20
288.99
 30
0.0
 40
0
 41
0
  0
VERTEX
  8
CCC-CC-CC
 10
104.811
 20
290.827
 30
0.0
 40
0
 41
0
  0
VERTEX
  8
CCC-CC-CC
 10
107.366
 20
292.214
 30
0.0
 40
0
 41
0
  0
VERTEX
  8
CCC-CC-CC
 10
110.189
 20
293.091
 30
0.0
 40
0
 41
0
  0
VERTEX
  8
CCC-CC-CC
 10
112.463
 20
293.395
 30
0.0
 40
0
 41
0
  0
VERTEX
  8
CCC-CC-CC
 10
113.222
 20
293.395
 30
0.0
 40
0
 41
0
  0
SEQEND
 8
0
  0
POLYLINE
  8
CCC-CC-CC
 66
     1
 10
0
 20
0
 30
0.0
 70
     1
 40
0
 41
0
  0
VERTEX
  8
CCC-CC-CC
 10
143.718
 20
293.599
 30
0.0
 40
0
 41
0
  0
VERTEX
  8
CCC-CC-CC
 10
144.486
 20
293.599
 30
0.0
 40
0
 41
0
  0
VERTEX
  8
CCC-CC-CC
 10
146.79
 20
293.291
 30
0.0
 40
0
 41
0
  0
VERTEX
  8
CCC-CC-CC
 10
149.652
 20
292.402
 30
0.0
 40
0
 41
0
  0
VERTEX
  8
CCC-CC-CC
 10
152.243
 20
290.996
 30
0.0
 40
0
 41
0
  0
VERTEX
  8
CCC-CC-CC
 10
154.499
 20
289.135
 30
0.0
 40
0
 41
0
  0
VERTEX
  8
CCC-CC-CC
 10
156.361
 20
286.877
 30
0.0
 40
0
 41
0
  0
VERTEX
  8
CCC-CC-CC
 10
157.766
 20
284.287
 30
0.0
 40
0
 41
0
  0
VERTEX
  8
CCC-CC-CC
 10
158.655
 20
281.424
 30
0.0
 40
0
 41
0
  0
VERTEX
  8
CCC-CC-CC
 10
158.965
 20
279.12
 30
0.0
 40
0
 41
0
  0
VERTEX
  8
CCC-CC-CC
 10
158.965
 20
278.351
 30
0.0
 40
0
 41
0
  0
VERTEX
  8
CCC-CC-CC
 10
158.965
 20
277.584
 30
0.0
 40
0
 41
0
  0
VERTEX
  8
CCC-CC-CC
 10
158.655
 20
275.28
 30
0.0
 40
0
 41
0
  0
VERTEX
  8
CCC-CC-CC
 10
157.766
 20
272.417
 30
0.0
 40
0
 41
0
  0
VERTEX
  8
CCC-CC-CC
 10
156.361
 20
269.827
 30
0.0
 40
0
 41
0
  0
VERTEX
  8
CCC-CC-CC
 10
154.499
 20
267.571
 30
0.0
 40
0
 41
0
  0
VERTEX
  8
CCC-CC-CC
 10
152.243
 20
265.709
 30
0.0
 40
0
 41
0
  0
VERTEX
  8
CCC-CC-CC
 10
149.652
 20
264.304
 30
0.0
 40
0
 41
0
  0
VERTEX
  8
CCC-CC-CC
 10
146.79
 20
263.415
 30
0.0
 40
0
 41
0
  0
VERTEX
  8
CCC-CC-CC
 10
144.486
 20
263.105
 30
0.0
 40
0
 41
0
  0
VERTEX
  8
CCC-CC-CC
 10
143.718
 20
263.105
 30
0.0
 40
0
 41
0
  0
VERTEX
  8
CCC-CC-CC
 10
142.949
 20
263.105
 30
0.0
 40
0
 41
0
  0
VERTEX
  8
CCC-CC-CC
 10
140.645
 20
263.415
 30
0.0
 40
0
 41
0
  0
VERTEX
  8
CCC-CC-CC
 10
137.783
 20
264.304
 30
0.0
 40
0
 41
0
  0
VERTEX
  8
CCC-CC-CC
 10
135.193
 20
265.709
 30
0.0
 40
0
 41
0
  0
VERTEX
  8
CCC-CC-CC
 10
132.935
 20
267.571
 30
0.0
 40
0
 41
0
  0
VERTEX
  8
CCC-CC-CC
 10
131.074
 20
269.827
 30
0.0
 40
0
 41
0
  0
VERTEX
  8
CCC-CC-CC
 10
129.668
 20
272.417
 30
0.0
 40
0
 41
0
  0
VERTEX
  8
CCC-CC-CC
 10
128.779
 20
275.28
 30
0.0
 40
0
 41
0
  0
VERTEX
  8
CCC-CC-CC
 10
128.47
 20
277.584
 30
0.0
 40
0
 41
0
  0
VERTEX
  8
CCC-CC-CC
 10
128.47
 20
278.351
 30
0.0
 40
0
 41
0
  0
VERTEX
  8
CCC-CC-CC
 10
128.47
 20
279.12
 30
0.0
 40
0
 41
0
  0
VERTEX
  8
CCC-CC-CC
 10
128.779
 20
281.424
 30
0.0
 40
0
 41
0
  0
VERTEX
  8
CCC-CC-CC
 10
129.668
 20
284.287
 30
0.0
 40
0
 41
0
  0
VERTEX
  8
CCC-CC-CC
 10
131.074
 20
286.877
 30
0.0
 40
0
 41
0
  0
VERTEX
  8
CCC-CC-CC
 10
132.935
 20
289.135
 30
0.0
 40
0
 41
0
  0
VERTEX
  8
CCC-CC-CC
 10
135.193
 20
290.996
 30
0.0
 40
0
 41
0
  0
VERTEX
  8
CCC-CC-CC
 10
137.783
 20
292.402
 30
0.0
 40
0
 41
0
  0
VERTEX
  8
CCC-CC-CC
 10
140.645
 20
293.291
 30
0.0
 40
0
 41
0
  0
VERTEX
  8
CCC-CC-CC
 10
142.949
 20
293.599
 30
0.0
 40
0
 41
0
  0
VERTEX
  8
CCC-CC-CC
 10
143.718
 20
293.599
 30
0.0
 40
0
 41
0
  0
SEQEND
 8
0
  0
POLYLINE
  8
CCC-CC-CC
 66
     1
 10
0
 20
0
 30
0.0
 70
     1
 40
0
 41
0
  0
VERTEX
  8
CCC-CC-CC
 10
143.718
 20
293.395
 30
0.0
 40
0
 41
0
  0
VERTEX
  8
CCC-CC-CC
 10
144.476
 20
293.395
 30
0.0
 40
0
 41
0
  0
VERTEX
  8
CCC-CC-CC
 10
146.75
 20
293.091
 30
0.0
 40
0
 41
0
  0
VERTEX
  8
CCC-CC-CC
 10
149.574
 20
292.214
 30
0.0
 40
0
 41
0
  0
VERTEX
  8
CCC-CC-CC
 10
152.128
 20
290.827
 30
0.0
 40
0
 41
0
  0
VERTEX
  8
CCC-CC-CC
 10
154.355
 20
288.99
 30
0.0
 40
0
 41
0
  0
VERTEX
  8
CCC-CC-CC
 10
156.192
 20
286.764
 30
0.0
 40
0
 41
0
  0
VERTEX
  8
CCC-CC-CC
 10
157.58
 20
284.208
 30
0.0
 40
0
 41
0
  0
VERTEX
  8
CCC-CC-CC
 10
158.456
 20
281.384
 30
0.0
 40
0
 41
0
  0
VERTEX
  8
CCC-CC-CC
 10
158.762
 20
279.111
 30
0.0
 40
0
 41
0
  0
VERTEX
  8
CCC-CC-CC
 10
158.762
 20
278.351
 30
0.0
 40
0
 41
0
  0
VERTEX
  8
CCC-CC-CC
 10
158.762
 20
277.593
 30
0.0
 40
0
 41
0
  0
VERTEX
  8
CCC-CC-CC
 10
158.456
 20
275.32
 30
0.0
 40
0
 41
0
  0
VERTEX
  8
CCC-CC-CC
 10
157.58
 20
272.496
 30
0.0
 40
0
 41
0
  0
VERTEX
  8
CCC-CC-CC
 10
156.192
 20
269.941
 30
0.0
 40
0
 41
0
  0
VERTEX
  8
CCC-CC-CC
 10
154.355
 20
267.714
 30
0.0
 40
0
 41
0
  0
VERTEX
  8
CCC-CC-CC
 10
152.128
 20
265.877
 30
0.0
 40
0
 41
0
  0
VERTEX
  8
CCC-CC-CC
 10
149.574
 20
264.489
 30
0.0
 40
0
 41
0
  0
VERTEX
  8
CCC-CC-CC
 10
146.75
 20
263.613
 30
0.0
 40
0
 41
0
  0
VERTEX
  8
CCC-CC-CC
 10
144.476
 20
263.307
 30
0.0
 40
0
 41
0
  0
VERTEX
  8
CCC-CC-CC
 10
143.718
 20
263.307
 30
0.0
 40
0
 41
0
  0
VERTEX
  8
CCC-CC-CC
 10
142.959
 20
263.307
 30
0.0
 40
0
 41
0
  0
VERTEX
  8
CCC-CC-CC
 10
140.685
 20
263.613
 30
0.0
 40
0
 41
0
  0
VERTEX
  8
CCC-CC-CC
 10
137.862
 20
264.489
 30
0.0
 40
0
 41
0
  0
VERTEX
  8
CCC-CC-CC
 10
135.305
 20
265.877
 30
0.0
 40
0
 41
0
  0
VERTEX
  8
CCC-CC-CC
 10
133.078
 20
267.714
 30
0.0
 40
0
 41
0
  0
VERTEX
  8
CCC-CC-CC
 10
131.241
 20
269.941
 30
0.0
 40
0
 41
0
  0
VERTEX
  8
CCC-CC-CC
 10
129.854
 20
272.496
 30
0.0
 40
0
 41
0
  0
VERTEX
  8
CCC-CC-CC
 10
128.977
 20
275.32
 30
0.0
 40
0
 41
0
  0
VERTEX
  8
CCC-CC-CC
 10
128.673
 20
277.593
 30
0.0
 40
0
 41
0
  0
VERTEX
  8
CCC-CC-CC
 10
128.673
 20
278.351
 30
0.0
 40
0
 41
0
  0
VERTEX
  8
CCC-CC-CC
 10
128.673
 20
279.111
 30
0.0
 40
0
 41
0
  0
VERTEX
  8
CCC-CC-CC
 10
128.977
 20
281.384
 30
0.0
 40
0
 41
0
  0
VERTEX
  8
CCC-CC-CC
 10
129.854
 20
284.208
 30
0.0
 40
0
 41
0
  0
VERTEX
  8
CCC-CC-CC
 10
131.241
 20
286.764
 30
0.0
 40
0
 41
0
  0
VERTEX
  8
CCC-CC-CC
 10
133.078
 20
288.99
 30
0.0
 40
0
 41
0
  0
VERTEX
  8
CCC-CC-CC
 10
135.305
 20
290.827
 30
0.0
 40
0
 41
0
  0
VERTEX
  8
CCC-CC-CC
 10
137.862
 20
292.214
 30
0.0
 40
0
 41
0
  0
VERTEX
  8
CCC-CC-CC
 10
140.685
 20
293.091
 30
0.0
 40
0
 41
0
  0
VERTEX
  8
CCC-CC-CC
 10
142.959
 20
293.395
 30
0.0
 40
0
 41
0
  0
VERTEX
  8
CCC-CC-CC
 10
143.718
 20
293.395
 30
0.0
 40
0
 41
0
  0
SEQEND
 8
0
  0
POLYLINE
  8
CCC-CC-CC
 66
     1
 10
0
 20
0
 30
0.0
 70
     1
 40
0
 41
0
  0
VERTEX
  8
CCC-CC-CC
 10
52.2319
 20
263.105
 30
0.0
 40
0
 41
0
  0
VERTEX
  8
CCC-CC-CC
 10
52.9992
 20
263.105
 30
0.0
 40
0
 41
0
  0
VERTEX
  8
CCC-CC-CC
 10
55.3036
 20
262.796
 30
0.0
 40
0
 41
0
  0
VERTEX
  8
CCC-CC-CC
 10
58.1656
 20
261.907
 30
0.0
 40
0
 41
0
  0
VERTEX
  8
CCC-CC-CC
 10
60.7564
 20
260.502
 30
0.0
 40
0
 41
0
  0
VERTEX
  8
CCC-CC-CC
 10
63.0135
 20
258.64
 30
0.0
 40
0
 41
0
  0
VERTEX
  8
CCC-CC-CC
 10
64.8751
 20
256.383
 30
0.0
 40
0
 41
0
  0
VERTEX
  8
CCC-CC-CC
 10
66.2809
 20
253.792
 30
0.0
 40
0
 41
0
  0
VERTEX
  8
CCC-CC-CC
 10
67.1696
 20
250.93
 30
0.0
 40
0
 41
0
  0
VERTEX
  8
CCC-CC-CC
 10
67.4797
 20
248.626
 30
0.0
 40
0
 41
0
  0
VERTEX
  8
CCC-CC-CC
 10
67.4797
 20
247.857
 30
0.0
 40
0
 41
0
  0
VERTEX
  8
CCC-CC-CC
 10
67.4797
 20
247.089
 30
0.0
 40
0
 41
0
  0
VERTEX
  8
CCC-CC-CC
 10
67.1696
 20
244.785
 30
0.0
 40
0
 41
0
  0
VERTEX
  8
CCC-CC-CC
 10
66.2809
 20
241.923
 30
0.0
 40
0
 41
0
  0
VERTEX
  8
CCC-CC-CC
 10
64.8751
 20
239.332
 30
0.0
 40
0
 41
0
  0
VERTEX
  8
CCC-CC-CC
 10
63.0135
 20
237.075
 30
0.0
 40
0
 41
0
  0
VERTEX
  8
CCC-CC-CC
 10
60.7564
 20
235.213
 30
0.0
 40
0
 41
0
  0
VERTEX
  8
CCC-CC-CC
 10
58.1656
 20
233.808
 30
0.0
 40
0
 41
0
  0
VERTEX
  8
CCC-CC-CC
 10
55.3036
 20
232.919
 30
0.0
 40
0
 41
0
  0
VERTEX
  8
CCC-CC-CC
 10
52.9992
 20
232.609
 30
0.0
 40
0
 41
0
  0
VERTEX
  8
CCC-CC-CC
 10
52.2319
 20
232.609
 30
0.0
 40
0
 41
0
  0
VERTEX
  8
CCC-CC-CC
 10
51.4629
 20
232.609
 30
0.0
 40
0
 41
0
  0
VERTEX
  8
CCC-CC-CC
 10
49.1589
 20
232.919
 30
0.0
 40
0
 41
0
  0
VERTEX
  8
CCC-CC-CC
 10
46.2964
 20
233.808
 30
0.0
 40
0
 41
0
  0
VERTEX
  8
CCC-CC-CC
 10
43.706
 20
235.213
 30
0.0
 40
0
 41
0
  0
VERTEX
  8
CCC-CC-CC
 10
41.4486
 20
237.075
 30
0.0
 40
0
 41
0
  0
VERTEX
  8
CCC-CC-CC
 10
39.587
 20
239.332
 30
0.0
 40
0
 41
0
  0
VERTEX
  8
CCC-CC-CC
 10
38.1811
 20
241.923
 30
0.0
 40
0
 41
0
  0
VERTEX
  8
CCC-CC-CC
 10
37.2925
 20
244.785
 30
0.0
 40
0
 41
0
  0
VERTEX
  8
CCC-CC-CC
 10
36.9838
 20
247.089
 30
0.0
 40
0
 41
0
  0
VERTEX
  8
CCC-CC-CC
 10
36.9838
 20
247.857
 30
0.0
 40
0
 41
0
  0
VERTEX
  8
CCC-CC-CC
 10
36.9838
 20
248.626
 30
0.0
 40
0
 41
0
  0
VERTEX
  8
CCC-CC-CC
 10
37.2925
 20
250.93
 30
0.0
 40
0
 41
0
  0
VERTEX
  8
CCC-CC-CC
 10
38.1811
 20
253.792
 30
0.0
 40
0
 41
0
  0
VERTEX
  8
CCC-CC-CC
 10
39.587
 20
256.383
 30
0.0
 40
0
 41
0
  0
VERTEX
  8
CCC-CC-CC
 10
41.4486
 20
258.64
 30
0.0
 40
0
 41
0
  0
VERTEX
  8
CCC-CC-CC
 10
43.706
 20
260.502
 30
0.0
 40
0
 41
0
  0
VERTEX
  8
CCC-CC-CC
 10
46.2964
 20
261.907
 30
0.0
 40
0
 41
0
  0
VERTEX
  8
CCC-CC-CC
 10
49.1589
 20
262.796
 30
0.0
 40
0
 41
0
  0
VERTEX
  8
CCC-CC-CC
 10
51.4629
 20
263.105
 30
0.0
 40
0
 41
0
  0
VERTEX
  8
CCC-CC-CC
 10
52.2319
 20
263.105
 30
0.0
 40
0
 41
0
  0
SEQEND
 8
0
  0
POLYLINE
  8
CCC-CC-CC
 66
     1
 10
0
 20
0
 30
0.0
 70
     1
 40
0
 41
0
  0
VERTEX
  8
CCC-CC-CC
 10
52.2319
 20
262.901
 30
0.0
 40
0
 41
0
  0
VERTEX
  8
CCC-CC-CC
 10
52.9897
 20
262.901
 30
0.0
 40
0
 41
0
  0
VERTEX
  8
CCC-CC-CC
 10
55.2633
 20
262.596
 30
0.0
 40
0
 41
0
  0
VERTEX
  8
CCC-CC-CC
 10
58.087
 20
261.72
 30
0.0
 40
0
 41
0
  0
VERTEX
  8
CCC-CC-CC
 10
60.6432
 20
260.332
 30
0.0
 40
0
 41
0
  0
VERTEX
  8
CCC-CC-CC
 10
62.8689
 20
258.495
 30
0.0
 40
0
 41
0
  0
VERTEX
  8
CCC-CC-CC
 10
64.7058
 20
256.268
 30
0.0
 40
0
 41
0
  0
VERTEX
  8
CCC-CC-CC
 10
66.0936
 20
253.714
 30
0.0
 40
0
 41
0
  0
VERTEX
  8
CCC-CC-CC
 10
66.9699
 20
250.89
 30
0.0
 40
0
 41
0
  0
VERTEX
  8
CCC-CC-CC
 10
67.2758
 20
248.616
 30
0.0
 40
0
 41
0
  0
VERTEX
  8
CCC-CC-CC
 10
67.2758
 20
247.857
 30
0.0
 40
0
 41
0
  0
VERTEX
  8
CCC-CC-CC
 10
67.2758
 20
247.099
 30
0.0
 40
0
 41
0
  0
VERTEX
  8
CCC-CC-CC
 10
66.9699
 20
244.825
 30
0.0
 40
0
 41
0
  0
VERTEX
  8
CCC-CC-CC
 10
66.0936
 20
242.001
 30
0.0
 40
0
 41
0
  0
VERTEX
  8
CCC-CC-CC
 10
64.7058
 20
239.445
 30
0.0
 40
0
 41
0
  0
VERTEX
  8
CCC-CC-CC
 10
62.8689
 20
237.22
 30
0.0
 40
0
 41
0
  0
VERTEX
  8
CCC-CC-CC
 10
60.6432
 20
235.383
 30
0.0
 40
0
 41
0
  0
VERTEX
  8
CCC-CC-CC
 10
58.087
 20
233.995
 30
0.0
 40
0
 41
0
  0
VERTEX
  8
CCC-CC-CC
 10
55.2633
 20
233.119
 30
0.0
 40
0
 41
0
  0
VERTEX
  8
CCC-CC-CC
 10
52.9897
 20
232.813
 30
0.0
 40
0
 41
0
  0
VERTEX
  8
CCC-CC-CC
 10
52.2319
 20
232.813
 30
0.0
 40
0
 41
0
  0
VERTEX
  8
CCC-CC-CC
 10
51.4724
 20
232.813
 30
0.0
 40
0
 41
0
  0
VERTEX
  8
CCC-CC-CC
 10
49.1987
 20
233.119
 30
0.0
 40
0
 41
0
  0
VERTEX
  8
CCC-CC-CC
 10
46.3751
 20
233.995
 30
0.0
 40
0
 41
0
  0
VERTEX
  8
CCC-CC-CC
 10
43.8203
 20
235.383
 30
0.0
 40
0
 41
0
  0
VERTEX
  8
CCC-CC-CC
 10
41.5932
 20
237.22
 30
0.0
 40
0
 41
0
  0
VERTEX
  8
CCC-CC-CC
 10
39.7563
 20
239.445
 30
0.0
 40
0
 41
0
  0
VERTEX
  8
CCC-CC-CC
 10
38.3688
 20
242.001
 30
0.0
 40
0
 41
0
  0
VERTEX
  8
CCC-CC-CC
 10
37.4922
 20
244.825
 30
0.0
 40
0
 41
0
  0
VERTEX
  8
CCC-CC-CC
 10
37.1877
 20
247.099
 30
0.0
 40
0
 41
0
  0
VERTEX
  8
CCC-CC-CC
 10
37.1877
 20
247.857
 30
0.0
 40
0
 41
0
  0
VERTEX
  8
CCC-CC-CC
 10
37.1877
 20
248.616
 30
0.0
 40
0
 41
0
  0
VERTEX
  8
CCC-CC-CC
 10
37.4922
 20
250.89
 30
0.0
 40
0
 41
0
  0
VERTEX
  8
CCC-CC-CC
 10
38.3688
 20
253.714
 30
0.0
 40
0
 41
0
  0
VERTEX
  8
CCC-CC-CC
 10
39.7563
 20
256.268
 30
0.0
 40
0
 41
0
  0
VERTEX
  8
CCC-CC-CC
 10
41.5932
 20
258.495
 30
0.0
 40
0
 41
0
  0
VERTEX
  8
CCC-CC-CC
 10
43.8203
 20
260.332
 30
0.0
 40
0
 41
0
  0
VERTEX
  8
CCC-CC-CC
 10
46.3751
 20
261.72
 30
0.0
 40
0
 41
0
  0
VERTEX
  8
CCC-CC-CC
 10
49.1987
 20
262.596
 30
0.0
 40
0
 41
0
  0
VERTEX
  8
CCC-CC-CC
 10
51.4724
 20
262.901
 30
0.0
 40
0
 41
0
  0
VERTEX
  8
CCC-CC-CC
 10
52.2319
 20
262.901
 30
0.0
 40
0
 41
0
  0
SEQEND
 8
0
  0
POLYLINE
  8
CCC-CC-CC
 66
     1
 10
0
 20
0
 30
0.0
 70
     1
 40
0
 41
0
  0
VERTEX
  8
CCC-CC-CC
 10
82.7278
 20
263.105
 30
0.0
 40
0
 41
0
  0
VERTEX
  8
CCC-CC-CC
 10
83.4954
 20
263.105
 30
0.0
 40
0
 41
0
  0
VERTEX
  8
CCC-CC-CC
 10
85.7994
 20
262.796
 30
0.0
 40
0
 41
0
  0
VERTEX
  8
CCC-CC-CC
 10
88.6615
 20
261.907
 30
0.0
 40
0
 41
0
  0
VERTEX
  8
CCC-CC-CC
 10
91.2523
 20
260.502
 30
0.0
 40
0
 41
0
  0
VERTEX
  8
CCC-CC-CC
 10
93.5083
 20
258.64
 30
0.0
 40
0
 41
0
  0
VERTEX
  8
CCC-CC-CC
 10
95.3699
 20
256.383
 30
0.0
 40
0
 41
0
  0
VERTEX
  8
CCC-CC-CC
 10
96.7754
 20
253.792
 30
0.0
 40
0
 41
0
  0
VERTEX
  8
CCC-CC-CC
 10
97.6644
 20
250.93
 30
0.0
 40
0
 41
0
  0
VERTEX
  8
CCC-CC-CC
 10
97.9745
 20
248.626
 30
0.0
 40
0
 41
0
  0
VERTEX
  8
CCC-CC-CC
 10
97.9745
 20
247.857
 30
0.0
 40
0
 41
0
  0
VERTEX
  8
CCC-CC-CC
 10
97.9745
 20
247.089
 30
0.0
 40
0
 41
0
  0
VERTEX
  8
CCC-CC-CC
 10
97.6644
 20
244.785
 30
0.0
 40
0
 41
0
  0
VERTEX
  8
CCC-CC-CC
 10
96.7754
 20
241.923
 30
0.0
 40
0
 41
0
  0
VERTEX
  8
CCC-CC-CC
 10
95.3699
 20
239.332
 30
0.0
 40
0
 41
0
  0
VERTEX
  8
CCC-CC-CC
 10
93.5083
 20
237.075
 30
0.0
 40
0
 41
0
  0
VERTEX
  8
CCC-CC-CC
 10
91.2523
 20
235.213
 30
0.0
 40
0
 41
0
  0
VERTEX
  8
CCC-CC-CC
 10
88.6615
 20
233.808
 30
0.0
 40
0
 41
0
  0
VERTEX
  8
CCC-CC-CC
 10
85.7994
 20
232.919
 30
0.0
 40
0
 41
0
  0
VERTEX
  8
CCC-CC-CC
 10
83.4954
 20
232.609
 30
0.0
 40
0
 41
0
  0
VERTEX
  8
CCC-CC-CC
 10
82.7278
 20
232.609
 30
0.0
 40
0
 41
0
  0
VERTEX
  8
CCC-CC-CC
 10
81.9587
 20
232.609
 30
0.0
 40
0
 41
0
  0
VERTEX
  8
CCC-CC-CC
 10
79.6548
 20
232.919
 30
0.0
 40
0
 41
0
  0
VERTEX
  8
CCC-CC-CC
 10
76.7927
 20
233.808
 30
0.0
 40
0
 41
0
  0
VERTEX
  8
CCC-CC-CC
 10
74.2019
 20
235.213
 30
0.0
 40
0
 41
0
  0
VERTEX
  8
CCC-CC-CC
 10
71.9448
 20
237.075
 30
0.0
 40
0
 41
0
  0
VERTEX
  8
CCC-CC-CC
 10
70.0828
 20
239.332
 30
0.0
 40
0
 41
0
  0
VERTEX
  8
CCC-CC-CC
 10
68.6774
 20
241.923
 30
0.0
 40
0
 41
0
  0
VERTEX
  8
CCC-CC-CC
 10
67.7884
 20
244.785
 30
0.0
 40
0
 41
0
  0
VERTEX
  8
CCC-CC-CC
 10
67.4797
 20
247.089
 30
0.0
 40
0
 41
0
  0
VERTEX
  8
CCC-CC-CC
 10
67.4797
 20
247.857
 30
0.0
 40
0
 41
0
  0
VERTEX
  8
CCC-CC-CC
 10
67.4797
 20
248.626
 30
0.0
 40
0
 41
0
  0
VERTEX
  8
CCC-CC-CC
 10
67.7884
 20
250.93
 30
0.0
 40
0
 41
0
  0
VERTEX
  8
CCC-CC-CC
 10
68.6774
 20
253.792
 30
0.0
 40
0
 41
0
  0
VERTEX
  8
CCC-CC-CC
 10
70.0828
 20
256.383
 30
0.0
 40
0
 41
0
  0
VERTEX
  8
CCC-CC-CC
 10
71.9448
 20
258.64
 30
0.0
 40
0
 41
0
  0
VERTEX
  8
CCC-CC-CC
 10
74.2019
 20
260.502
 30
0.0
 40
0
 41
0
  0
VERTEX
  8
CCC-CC-CC
 10
76.7927
 20
261.907
 30
0.0
 40
0
 41
0
  0
VERTEX
  8
CCC-CC-CC
 10
79.6548
 20
262.796
 30
0.0
 40
0
 41
0
  0
VERTEX
  8
CCC-CC-CC
 10
81.9587
 20
263.105
 30
0.0
 40
0
 41
0
  0
VERTEX
  8
CCC-CC-CC
 10
82.7278
 20
263.105
 30
0.0
 40
0
 41
0
  0
SEQEND
 8
0
  0
POLYLINE
  8
CCC-CC-CC
 66
     1
 10
0
 20
0
 30
0.0
 70
     1
 40
0
 41
0
  0
VERTEX
  8
CCC-CC-CC
 10
82.7278
 20
262.901
 30
0.0
 40
0
 41
0
  0
VERTEX
  8
CCC-CC-CC
 10
83.4856
 20
262.901
 30
0.0
 40
0
 41
0
  0
VERTEX
  8
CCC-CC-CC
 10
85.7596
 20
262.596
 30
0.0
 40
0
 41
0
  0
VERTEX
  8
CCC-CC-CC
 10
88.5832
 20
261.72
 30
0.0
 40
0
 41
0
  0
VERTEX
  8
CCC-CC-CC
 10
91.138
 20
260.332
 30
0.0
 40
0
 41
0
  0
VERTEX
  8
CCC-CC-CC
 10
93.3648
 20
258.495
 30
0.0
 40
0
 41
0
  0
VERTEX
  8
CCC-CC-CC
 10
95.2017
 20
256.268
 30
0.0
 40
0
 41
0
  0
VERTEX
  8
CCC-CC-CC
 10
96.5895
 20
253.714
 30
0.0
 40
0
 41
0
  0
VERTEX
  8
CCC-CC-CC
 10
97.4658
 20
250.89
 30
0.0
 40
0
 41
0
  0
VERTEX
  8
CCC-CC-CC
 10
97.7717
 20
248.616
 30
0.0
 40
0
 41
0
  0
VERTEX
  8
CCC-CC-CC
 10
97.7717
 20
247.857
 30
0.0
 40
0
 41
0
  0
VERTEX
  8
CCC-CC-CC
 10
97.7717
 20
247.099
 30
0.0
 40
0
 41
0
  0
VERTEX
  8
CCC-CC-CC
 10
97.4658
 20
244.825
 30
0.0
 40
0
 41
0
  0
VERTEX
  8
CCC-CC-CC
 10
96.5895
 20
242.001
 30
0.0
 40
0
 41
0
  0
VERTEX
  8
CCC-CC-CC
 10
95.2017
 20
239.445
 30
0.0
 40
0
 41
0
  0
VERTEX
  8
CCC-CC-CC
 10
93.3648
 20
237.22
 30
0.0
 40
0
 41
0
  0
VERTEX
  8
CCC-CC-CC
 10
91.138
 20
235.383
 30
0.0
 40
0
 41
0
  0
VERTEX
  8
CCC-CC-CC
 10
88.5832
 20
233.995
 30
0.0
 40
0
 41
0
  0
VERTEX
  8
CCC-CC-CC
 10
85.7596
 20
233.119
 30
0.0
 40
0
 41
0
  0
VERTEX
  8
CCC-CC-CC
 10
83.4856
 20
232.813
 30
0.0
 40
0
 41
0
  0
VERTEX
  8
CCC-CC-CC
 10
82.7278
 20
232.813
 30
0.0
 40
0
 41
0
  0
VERTEX
  8
CCC-CC-CC
 10
81.9686
 20
232.813
 30
0.0
 40
0
 41
0
  0
VERTEX
  8
CCC-CC-CC
 10
79.6946
 20
233.119
 30
0.0
 40
0
 41
0
  0
VERTEX
  8
CCC-CC-CC
 10
76.871
 20
233.995
 30
0.0
 40
0
 41
0
  0
VERTEX
  8
CCC-CC-CC
 10
74.3148
 20
235.383
 30
0.0
 40
0
 41
0
  0
VERTEX
  8
CCC-CC-CC
 10
72.088
 20
237.22
 30
0.0
 40
0
 41
0
  0
VERTEX
  8
CCC-CC-CC
 10
70.2511
 20
239.445
 30
0.0
 40
0
 41
0
  0
VERTEX
  8
CCC-CC-CC
 10
68.8633
 20
242.001
 30
0.0
 40
0
 41
0
  0
VERTEX
  8
CCC-CC-CC
 10
67.987
 20
244.825
 30
0.0
 40
0
 41
0
  0
VERTEX
  8
CCC-CC-CC
 10
67.6822
 20
247.099
 30
0.0
 40
0
 41
0
  0
VERTEX
  8
CCC-CC-CC
 10
67.6822
 20
247.857
 30
0.0
 40
0
 41
0
  0
VERTEX
  8
CCC-CC-CC
 10
67.6822
 20
248.616
 30
0.0
 40
0
 41
0
  0
VERTEX
  8
CCC-CC-CC
 10
67.987
 20
250.89
 30
0.0
 40
0
 41
0
  0
VERTEX
  8
CCC-CC-CC
 10
68.8633
 20
253.714
 30
0.0
 40
0
 41
0
  0
VERTEX
  8
CCC-CC-CC
 10
70.2511
 20
256.268
 30
0.0
 40
0
 41
0
  0
VERTEX
  8
CCC-CC-CC
 10
72.088
 20
258.495
 30
0.0
 40
0
 41
0
  0
VERTEX
  8
CCC-CC-CC
 10
74.3148
 20
260.332
 30
0.0
 40
0
 41
0
  0
VERTEX
  8
CCC-CC-CC
 10
76.871
 20
261.72
 30
0.0
 40
0
 41
0
  0
VERTEX
  8
CCC-CC-CC
 10
79.6946
 20
262.596
 30
0.0
 40
0
 41
0
  0
VERTEX
  8
CCC-CC-CC
 10
81.9686
 20
262.901
 30
0.0
 40
0
 41
0
  0
VERTEX
  8
CCC-CC-CC
 10
82.7278
 20
262.901
 30
0.0
 40
0
 41
0
  0
SEQEND
 8
0
  0
POLYLINE
  8
CCC-CC-CC
 66
     1
 10
0
 20
0
 30
0.0
 70
     1
 40
0
 41
0
  0
VERTEX
  8
CCC-CC-CC
 10
113.222
 20
263.105
 30
0.0
 40
0
 41
0
  0
VERTEX
  8
CCC-CC-CC
 10
113.99
 20
263.105
 30
0.0
 40
0
 41
0
  0
VERTEX
  8
CCC-CC-CC
 10
116.294
 20
262.796
 30
0.0
 40
0
 41
0
  0
VERTEX
  8
CCC-CC-CC
 10
119.156
 20
261.907
 30
0.0
 40
0
 41
0
  0
VERTEX
  8
CCC-CC-CC
 10
121.747
 20
260.502
 30
0.0
 40
0
 41
0
  0
VERTEX
  8
CCC-CC-CC
 10
124.004
 20
258.64
 30
0.0
 40
0
 41
0
  0
VERTEX
  8
CCC-CC-CC
 10
125.866
 20
256.383
 30
0.0
 40
0
 41
0
  0
VERTEX
  8
CCC-CC-CC
 10
127.272
 20
253.792
 30
0.0
 40
0
 41
0
  0
VERTEX
  8
CCC-CC-CC
 10
128.16
 20
250.93
 30
0.0
 40
0
 41
0
  0
VERTEX
  8
CCC-CC-CC
 10
128.47
 20
248.626
 30
0.0
 40
0
 41
0
  0
VERTEX
  8
CCC-CC-CC
 10
128.47
 20
247.857
 30
0.0
 40
0
 41
0
  0
VERTEX
  8
CCC-CC-CC
 10
128.47
 20
247.089
 30
0.0
 40
0
 41
0
  0
VERTEX
  8
CCC-CC-CC
 10
128.16
 20
244.785
 30
0.0
 40
0
 41
0
  0
VERTEX
  8
CCC-CC-CC
 10
127.272
 20
241.923
 30
0.0
 40
0
 41
0
  0
VERTEX
  8
CCC-CC-CC
 10
125.866
 20
239.332
 30
0.0
 40
0
 41
0
  0
VERTEX
  8
CCC-CC-CC
 10
124.004
 20
237.075
 30
0.0
 40
0
 41
0
  0
VERTEX
  8
CCC-CC-CC
 10
121.747
 20
235.213
 30
0.0
 40
0
 41
0
  0
VERTEX
  8
CCC-CC-CC
 10
119.156
 20
233.808
 30
0.0
 40
0
 41
0
  0
VERTEX
  8
CCC-CC-CC
 10
116.294
 20
232.919
 30
0.0
 40
0
 41
0
  0
VERTEX
  8
CCC-CC-CC
 10
113.99
 20
232.609
 30
0.0
 40
0
 41
0
  0
VERTEX
  8
CCC-CC-CC
 10
113.222
 20
232.609
 30
0.0
 40
0
 41
0
  0
VERTEX
  8
CCC-CC-CC
 10
112.454
 20
232.609
 30
0.0
 40
0
 41
0
  0
VERTEX
  8
CCC-CC-CC
 10
110.149
 20
232.919
 30
0.0
 40
0
 41
0
  0
VERTEX
  8
CCC-CC-CC
 10
107.287
 20
233.808
 30
0.0
 40
0
 41
0
  0
VERTEX
  8
CCC-CC-CC
 10
104.696
 20
235.213
 30
0.0
 40
0
 41
0
  0
VERTEX
  8
CCC-CC-CC
 10
102.439
 20
237.075
 30
0.0
 40
0
 41
0
  0
VERTEX
  8
CCC-CC-CC
 10
100.578
 20
239.332
 30
0.0
 40
0
 41
0
  0
VERTEX
  8
CCC-CC-CC
 10
99.1718
 20
241.923
 30
0.0
 40
0
 41
0
  0
VERTEX
  8
CCC-CC-CC
 10
98.2832
 20
244.785
 30
0.0
 40
0
 41
0
  0
VERTEX
  8
CCC-CC-CC
 10
97.9745
 20
247.089
 30
0.0
 40
0
 41
0
  0
VERTEX
  8
CCC-CC-CC
 10
97.9745
 20
247.857
 30
0.0
 40
0
 41
0
  0
VERTEX
  8
CCC-CC-CC
 10
97.9745
 20
248.626
 30
0.0
 40
0
 41
0
  0
VERTEX
  8
CCC-CC-CC
 10
98.2832
 20
250.93
 30
0.0
 40
0
 41
0
  0
VERTEX
  8
CCC-CC-CC
 10
99.1718
 20
253.792
 30
0.0
 40
0
 41
0
  0
VERTEX
  8
CCC-CC-CC
 10
100.578
 20
256.383
 30
0.0
 40
0
 41
0
  0
VERTEX
  8
CCC-CC-CC
 10
102.439
 20
258.64
 30
0.0
 40
0
 41
0
  0
VERTEX
  8
CCC-CC-CC
 10
104.696
 20
260.502
 30
0.0
 40
0
 41
0
  0
VERTEX
  8
CCC-CC-CC
 10
107.287
 20
261.907
 30
0.0
 40
0
 41
0
  0
VERTEX
  8
CCC-CC-CC
 10
110.149
 20
262.796
 30
0.0
 40
0
 41
0
  0
VERTEX
  8
CCC-CC-CC
 10
112.454
 20
263.105
 30
0.0
 40
0
 41
0
  0
VERTEX
  8
CCC-CC-CC
 10
113.222
 20
263.105
 30
0.0
 40
0
 41
0
  0
SEQEND
 8
0
  0
POLYLINE
  8
CCC-CC-CC
 66
     1
 10
0
 20
0
 30
0.0
 70
     1
 40
0
 41
0
  0
VERTEX
  8
CCC-CC-CC
 10
113.222
 20
262.901
 30
0.0
 40
0
 41
0
  0
VERTEX
  8
CCC-CC-CC
 10
113.98
 20
262.901
 30
0.0
 40
0
 41
0
  0
VERTEX
  8
CCC-CC-CC
 10
116.254
 20
262.596
 30
0.0
 40
0
 41
0
  0
VERTEX
  8
CCC-CC-CC
 10
119.078
 20
261.72
 30
0.0
 40
0
 41
0
  0
VERTEX
  8
CCC-CC-CC
 10
121.634
 20
260.332
 30
0.0
 40
0
 41
0
  0
VERTEX
  8
CCC-CC-CC
 10
123.86
 20
258.495
 30
0.0
 40
0
 41
0
  0
VERTEX
  8
CCC-CC-CC
 10
125.696
 20
256.268
 30
0.0
 40
0
 41
0
  0
VERTEX
  8
CCC-CC-CC
 10
127.084
 20
253.714
 30
0.0
 40
0
 41
0
  0
VERTEX
  8
CCC-CC-CC
 10
127.961
 20
250.89
 30
0.0
 40
0
 41
0
  0
VERTEX
  8
CCC-CC-CC
 10
128.266
 20
248.616
 30
0.0
 40
0
 41
0
  0
VERTEX
  8
CCC-CC-CC
 10
128.266
 20
247.857
 30
0.0
 40
0
 41
0
  0
VERTEX
  8
CCC-CC-CC
 10
128.266
 20
247.099
 30
0.0
 40
0
 41
0
  0
VERTEX
  8
CCC-CC-CC
 10
127.961
 20
244.825
 30
0.0
 40
0
 41
0
  0
VERTEX
  8
CCC-CC-CC
 10
127.084
 20
242.001
 30
0.0
 40
0
 41
0
  0
VERTEX
  8
CCC-CC-CC
 10
125.696
 20
239.445
 30
0.0
 40
0
 41
0
  0
VERTEX
  8
CCC-CC-CC
 10
123.86
 20
237.22
 30
0.0
 40
0
 41
0
  0
VERTEX
  8
CCC-CC-CC
 10
121.634
 20
235.383
 30
0.0
 40
0
 41
0
  0
VERTEX
  8
CCC-CC-CC
 10
119.078
 20
233.995
 30
0.0
 40
0
 41
0
  0
VERTEX
  8
CCC-CC-CC
 10
116.254
 20
233.119
 30
0.0
 40
0
 41
0
  0
VERTEX
  8
CCC-CC-CC
 10
113.98
 20
232.813
 30
0.0
 40
0
 41
0
  0
VERTEX
  8
CCC-CC-CC
 10
113.222
 20
232.813
 30
0.0
 40
0
 41
0
  0
VERTEX
  8
CCC-CC-CC
 10
112.463
 20
232.813
 30
0.0
 40
0
 41
0
  0
VERTEX
  8
CCC-CC-CC
 10
110.189
 20
233.119
 30
0.0
 40
0
 41
0
  0
VERTEX
  8
CCC-CC-CC
 10
107.366
 20
233.995
 30
0.0
 40
0
 41
0
  0
VERTEX
  8
CCC-CC-CC
 10
104.811
 20
235.383
 30
0.0
 40
0
 41
0
  0
VERTEX
  8
CCC-CC-CC
 10
102.584
 20
237.22
 30
0.0
 40
0
 41
0
  0
VERTEX
  8
CCC-CC-CC
 10
100.747
 20
239.445
 30
0.0
 40
0
 41
0
  0
VERTEX
  8
CCC-CC-CC
 10
99.3592
 20
242.001
 30
0.0
 40
0
 41
0
  0
VERTEX
  8
CCC-CC-CC
 10
98.4829
 20
244.825
 30
0.0
 40
0
 41
0
  0
VERTEX
  8
CCC-CC-CC
 10
98.1784
 20
247.099
 30
0.0
 40
0
 41
0
  0
VERTEX
  8
CCC-CC-CC
 10
98.1784
 20
247.857
 30
0.0
 40
0
 41
0
  0
VERTEX
  8
CCC-CC-CC
 10
98.1784
 20
248.616
 30
0.0
 40
0
 41
0
  0
VERTEX
  8
CCC-CC-CC
 10
98.4829
 20
250.89
 30
0.0
 40
0
 41
0
  0
VERTEX
  8
CCC-CC-CC
 10
99.3592
 20
253.714
 30
0.0
 40
0
 41
0
  0
VERTEX
  8
CCC-CC-CC
 10
100.747
 20
256.268
 30
0.0
 40
0
 41
0
  0
VERTEX
  8
CCC-CC-CC
 10
102.584
 20
258.495
 30
0.0
 40
0
 41
0
  0
VERTEX
  8
CCC-CC-CC
 10
104.811
 20
260.332
 30
0.0
 40
0
 41
0
  0
VERTEX
  8
CCC-CC-CC
 10
107.366
 20
261.72
 30
0.0
 40
0
 41
0
  0
VERTEX
  8
CCC-CC-CC
 10
110.189
 20
262.596
 30
0.0
 40
0
 41
0
  0
VERTEX
  8
CCC-CC-CC
 10
112.463
 20
262.901
 30
0.0
 40
0
 41
0
  0
VERTEX
  8
CCC-CC-CC
 10
113.222
 20
262.901
 30
0.0
 40
0
 41
0
  0
SEQEND
 8
0
  0
POLYLINE
  8
CCC-CC-CC
 66
     1
 10
0
 20
0
 30
0.0
 70
     1
 40
0
 41
0
  0
VERTEX
  8
CCC-CC-CC
 10
143.718
 20
263.105
 30
0.0
 40
0
 41
0
  0
VERTEX
  8
CCC-CC-CC
 10
144.486
 20
263.105
 30
0.0
 40
0
 41
0
  0
VERTEX
  8
CCC-CC-CC
 10
146.79
 20
262.796
 30
0.0
 40
0
 41
0
  0
VERTEX
  8
CCC-CC-CC
 10
149.652
 20
261.907
 30
0.0
 40
0
 41
0
  0
VERTEX
  8
CCC-CC-CC
 10
152.243
 20
260.502
 30
0.0
 40
0
 41
0
  0
VERTEX
  8
CCC-CC-CC
 10
154.499
 20
258.64
 30
0.0
 40
0
 41
0
  0
VERTEX
  8
CCC-CC-CC
 10
156.361
 20
256.383
 30
0.0
 40
0
 41
0
  0
VERTEX
  8
CCC-CC-CC
 10
157.766
 20
253.792
 30
0.0
 40
0
 41
0
  0
VERTEX
  8
CCC-CC-CC
 10
158.655
 20
250.93
 30
0.0
 40
0
 41
0
  0
VERTEX
  8
CCC-CC-CC
 10
158.965
 20
248.626
 30
0.0
 40
0
 41
0
  0
VERTEX
  8
CCC-CC-CC
 10
158.965
 20
247.857
 30
0.0
 40
0
 41
0
  0
VERTEX
  8
CCC-CC-CC
 10
158.965
 20
247.089
 30
0.0
 40
0
 41
0
  0
VERTEX
  8
CCC-CC-CC
 10
158.655
 20
244.785
 30
0.0
 40
0
 41
0
  0
VERTEX
  8
CCC-CC-CC
 10
157.766
 20
241.923
 30
0.0
 40
0
 41
0
  0
VERTEX
  8
CCC-CC-CC
 10
156.361
 20
239.332
 30
0.0
 40
0
 41
0
  0
VERTEX
  8
CCC-CC-CC
 10
154.499
 20
237.075
 30
0.0
 40
0
 41
0
  0
VERTEX
  8
CCC-CC-CC
 10
152.243
 20
235.213
 30
0.0
 40
0
 41
0
  0
VERTEX
  8
CCC-CC-CC
 10
149.652
 20
233.808
 30
0.0
 40
0
 41
0
  0
VERTEX
  8
CCC-CC-CC
 10
146.79
 20
232.919
 30
0.0
 40
0
 41
0
  0
VERTEX
  8
CCC-CC-CC
 10
144.486
 20
232.609
 30
0.0
 40
0
 41
0
  0
VERTEX
  8
CCC-CC-CC
 10
143.718
 20
232.609
 30
0.0
 40
0
 41
0
  0
VERTEX
  8
CCC-CC-CC
 10
142.949
 20
232.609
 30
0.0
 40
0
 41
0
  0
VERTEX
  8
CCC-CC-CC
 10
140.645
 20
232.919
 30
0.0
 40
0
 41
0
  0
VERTEX
  8
CCC-CC-CC
 10
137.783
 20
233.808
 30
0.0
 40
0
 41
0
  0
VERTEX
  8
CCC-CC-CC
 10
135.193
 20
235.213
 30
0.0
 40
0
 41
0
  0
VERTEX
  8
CCC-CC-CC
 10
132.935
 20
237.075
 30
0.0
 40
0
 41
0
  0
VERTEX
  8
CCC-CC-CC
 10
131.074
 20
239.332
 30
0.0
 40
0
 41
0
  0
VERTEX
  8
CCC-CC-CC
 10
129.668
 20
241.923
 30
0.0
 40
0
 41
0
  0
VERTEX
  8
CCC-CC-CC
 10
128.779
 20
244.785
 30
0.0
 40
0
 41
0
  0
VERTEX
  8
CCC-CC-CC
 10
128.47
 20
247.089
 30
0.0
 40
0
 41
0
  0
VERTEX
  8
CCC-CC-CC
 10
128.47
 20
247.857
 30
0.0
 40
0
 41
0
  0
VERTEX
  8
CCC-CC-CC
 10
128.47
 20
248.626
 30
0.0
 40
0
 41
0
  0
VERTEX
  8
CCC-CC-CC
 10
128.779
 20
250.93
 30
0.0
 40
0
 41
0
  0
VERTEX
  8
CCC-CC-CC
 10
129.668
 20
253.792
 30
0.0
 40
0
 41
0
  0
VERTEX
  8
CCC-CC-CC
 10
131.074
 20
256.383
 30
0.0
 40
0
 41
0
  0
VERTEX
  8
CCC-CC-CC
 10
132.935
 20
258.64
 30
0.0
 40
0
 41
0
  0
VERTEX
  8
CCC-CC-CC
 10
135.193
 20
260.502
 30
0.0
 40
0
 41
0
  0
VERTEX
  8
CCC-CC-CC
 10
137.783
 20
261.907
 30
0.0
 40
0
 41
0
  0
VERTEX
  8
CCC-CC-CC
 10
140.645
 20
262.796
 30
0.0
 40
0
 41
0
  0
VERTEX
  8
CCC-CC-CC
 10
142.949
 20
263.105
 30
0.0
 40
0
 41
0
  0
VERTEX
  8
CCC-CC-CC
 10
143.718
 20
263.105
 30
0.0
 40
0
 41
0
  0
SEQEND
 8
0
  0
POLYLINE
  8
CCC-CC-CC
 66
     1
 10
0
 20
0
 30
0.0
 70
     1
 40
0
 41
0
  0
VERTEX
  8
CCC-CC-CC
 10
143.718
 20
262.901
 30
0.0
 40
0
 41
0
  0
VERTEX
  8
CCC-CC-CC
 10
144.476
 20
262.901
 30
0.0
 40
0
 41
0
  0
VERTEX
  8
CCC-CC-CC
 10
146.75
 20
262.596
 30
0.0
 40
0
 41
0
  0
VERTEX
  8
CCC-CC-CC
 10
149.574
 20
261.72
 30
0.0
 40
0
 41
0
  0
VERTEX
  8
CCC-CC-CC
 10
152.128
 20
260.332
 30
0.0
 40
0
 41
0
  0
VERTEX
  8
CCC-CC-CC
 10
154.355
 20
258.495
 30
0.0
 40
0
 41
0
  0
VERTEX
  8
CCC-CC-CC
 10
156.192
 20
256.268
 30
0.0
 40
0
 41
0
  0
VERTEX
  8
CCC-CC-CC
 10
157.58
 20
253.714
 30
0.0
 40
0
 41
0
  0
VERTEX
  8
CCC-CC-CC
 10
158.456
 20
250.89
 30
0.0
 40
0
 41
0
  0
VERTEX
  8
CCC-CC-CC
 10
158.762
 20
248.616
 30
0.0
 40
0
 41
0
  0
VERTEX
  8
CCC-CC-CC
 10
158.762
 20
247.857
 30
0.0
 40
0
 41
0
  0
VERTEX
  8
CCC-CC-CC
 10
158.762
 20
247.099
 30
0.0
 40
0
 41
0
  0
VERTEX
  8
CCC-CC-CC
 10
158.456
 20
244.825
 30
0.0
 40
0
 41
0
  0
VERTEX
  8
CCC-CC-CC
 10
157.58
 20
242.001
 30
0.0
 40
0
 41
0
  0
VERTEX
  8
CCC-CC-CC
 10
156.192
 20
239.445
 30
0.0
 40
0
 41
0
  0
VERTEX
  8
CCC-CC-CC
 10
154.355
 20
237.22
 30
0.0
 40
0
 41
0
  0
VERTEX
  8
CCC-CC-CC
 10
152.128
 20
235.383
 30
0.0
 40
0
 41
0
  0
VERTEX
  8
CCC-CC-CC
 10
149.574
 20
233.995
 30
0.0
 40
0
 41
0
  0
VERTEX
  8
CCC-CC-CC
 10
146.75
 20
233.119
 30
0.0
 40
0
 41
0
  0
VERTEX
  8
CCC-CC-CC
 10
144.476
 20
232.813
 30
0.0
 40
0
 41
0
  0
VERTEX
  8
CCC-CC-CC
 10
143.718
 20
232.813
 30
0.0
 40
0
 41
0
  0
VERTEX
  8
CCC-CC-CC
 10
142.959
 20
232.813
 30
0.0
 40
0
 41
0
  0
VERTEX
  8
CCC-CC-CC
 10
140.685
 20
233.119
 30
0.0
 40
0
 41
0
  0
VERTEX
  8
CCC-CC-CC
 10
137.862
 20
233.995
 30
0.0
 40
0
 41
0
  0
VERTEX
  8
CCC-CC-CC
 10
135.305
 20
235.383
 30
0.0
 40
0
 41
0
  0
VERTEX
  8
CCC-CC-CC
 10
133.078
 20
237.22
 30
0.0
 40
0
 41
0
  0
VERTEX
  8
CCC-CC-CC
 10
131.241
 20
239.445
 30
0.0
 40
0
 41
0
  0
VERTEX
  8
CCC-CC-CC
 10
129.854
 20
242.001
 30
0.0
 40
0
 41
0
  0
VERTEX
  8
CCC-CC-CC
 10
128.977
 20
244.825
 30
0.0
 40
0
 41
0
  0
VERTEX
  8
CCC-CC-CC
 10
128.673
 20
247.099
 30
0.0
 40
0
 41
0
  0
VERTEX
  8
CCC-CC-CC
 10
128.673
 20
247.857
 30
0.0
 40
0
 41
0
  0
VERTEX
  8
CCC-CC-CC
 10
128.673
 20
248.616
 30
0.0
 40
0
 41
0
  0
VERTEX
  8
CCC-CC-CC
 10
128.977
 20
250.89
 30
0.0
 40
0
 41
0
  0
VERTEX
  8
CCC-CC-CC
 10
129.854
 20
253.714
 30
0.0
 40
0
 41
0
  0
VERTEX
  8
CCC-CC-CC
 10
131.241
 20
256.268
 30
0.0
 40
0
 41
0
  0
VERTEX
  8
CCC-CC-CC
 10
133.078
 20
258.495
 30
0.0
 40
0
 41
0
  0
VERTEX
  8
CCC-CC-CC
 10
135.305
 20
260.332
 30
0.0
 40
0
 41
0
  0
VERTEX
  8
CCC-CC-CC
 10
137.862
 20
261.72
 30
0.0
 40
0
 41
0
  0
VERTEX
  8
CCC-CC-CC
 10
140.685
 20
262.596
 30
0.0
 40
0
 41
0
  0
VERTEX
  8
CCC-CC-CC
 10
142.959
 20
262.901
 30
0.0
 40
0
 41
0
  0
VERTEX
  8
CCC-CC-CC
 10
143.718
 20
262.901
 30
0.0
 40
0
 41
0
  0
SEQEND
 8
0
  0
POLYLINE
  8
CCC-CC-CC
 66
     1
 10
0
 20
0
 30
0.0
 70
     1
 40
0
 41
0
  0
VERTEX
  8
CCC-CC-CC
 10
52.2319
 20
232.609
 30
0.0
 40
0
 41
0
  0
VERTEX
  8
CCC-CC-CC
 10
52.9992
 20
232.609
 30
0.0
 40
0
 41
0
  0
VERTEX
  8
CCC-CC-CC
 10
55.3036
 20
232.3
 30
0.0
 40
0
 41
0
  0
VERTEX
  8
CCC-CC-CC
 10
58.1656
 20
231.411
 30
0.0
 40
0
 41
0
  0
VERTEX
  8
CCC-CC-CC
 10
60.7564
 20
230.005
 30
0.0
 40
0
 41
0
  0
VERTEX
  8
CCC-CC-CC
 10
63.0135
 20
228.144
 30
0.0
 40
0
 41
0
  0
VERTEX
  8
CCC-CC-CC
 10
64.8751
 20
225.887
 30
0.0
 40
0
 41
0
  0
VERTEX
  8
CCC-CC-CC
 10
66.2809
 20
223.296
 30
0.0
 40
0
 41
0
  0
VERTEX
  8
CCC-CC-CC
 10
67.1696
 20
220.434
 30
0.0
 40
0
 41
0
  0
VERTEX
  8
CCC-CC-CC
 10
67.4797
 20
218.13
 30
0.0
 40
0
 41
0
  0
VERTEX
  8
CCC-CC-CC
 10
67.4797
 20
217.361
 30
0.0
 40
0
 41
0
  0
VERTEX
  8
CCC-CC-CC
 10
67.4797
 20
216.593
 30
0.0
 40
0
 41
0
  0
VERTEX
  8
CCC-CC-CC
 10
67.1696
 20
214.289
 30
0.0
 40
0
 41
0
  0
VERTEX
  8
CCC-CC-CC
 10
66.2809
 20
211.427
 30
0.0
 40
0
 41
0
  0
VERTEX
  8
CCC-CC-CC
 10
64.8751
 20
208.836
 30
0.0
 40
0
 41
0
  0
VERTEX
  8
CCC-CC-CC
 10
63.0135
 20
206.58
 30
0.0
 40
0
 41
0
  0
VERTEX
  8
CCC-CC-CC
 10
60.7564
 20
204.719
 30
0.0
 40
0
 41
0
  0
VERTEX
  8
CCC-CC-CC
 10
58.1656
 20
203.313
 30
0.0
 40
0
 41
0
  0
VERTEX
  8
CCC-CC-CC
 10
55.3036
 20
202.424
 30
0.0
 40
0
 41
0
  0
VERTEX
  8
CCC-CC-CC
 10
52.9992
 20
202.114
 30
0.0
 40
0
 41
0
  0
VERTEX
  8
CCC-CC-CC
 10
52.2319
 20
202.114
 30
0.0
 40
0
 41
0
  0
VERTEX
  8
CCC-CC-CC
 10
51.4629
 20
202.114
 30
0.0
 40
0
 41
0
  0
VERTEX
  8
CCC-CC-CC
 10
49.1589
 20
202.424
 30
0.0
 40
0
 41
0
  0
VERTEX
  8
CCC-CC-CC
 10
46.2964
 20
203.313
 30
0.0
 40
0
 41
0
  0
VERTEX
  8
CCC-CC-CC
 10
43.706
 20
204.719
 30
0.0
 40
0
 41
0
  0
VERTEX
  8
CCC-CC-CC
 10
41.4486
 20
206.58
 30
0.0
 40
0
 41
0
  0
VERTEX
  8
CCC-CC-CC
 10
39.587
 20
208.836
 30
0.0
 40
0
 41
0
  0
VERTEX
  8
CCC-CC-CC
 10
38.1811
 20
211.427
 30
0.0
 40
0
 41
0
  0
VERTEX
  8
CCC-CC-CC
 10
37.2925
 20
214.289
 30
0.0
 40
0
 41
0
  0
VERTEX
  8
CCC-CC-CC
 10
36.9838
 20
216.593
 30
0.0
 40
0
 41
0
  0
VERTEX
  8
CCC-CC-CC
 10
36.9838
 20
217.361
 30
0.0
 40
0
 41
0
  0
VERTEX
  8
CCC-CC-CC
 10
36.9838
 20
218.13
 30
0.0
 40
0
 41
0
  0
VERTEX
  8
CCC-CC-CC
 10
37.2925
 20
220.434
 30
0.0
 40
0
 41
0
  0
VERTEX
  8
CCC-CC-CC
 10
38.1811
 20
223.296
 30
0.0
 40
0
 41
0
  0
VERTEX
  8
CCC-CC-CC
 10
39.587
 20
225.887
 30
0.0
 40
0
 41
0
  0
VERTEX
  8
CCC-CC-CC
 10
41.4486
 20
228.144
 30
0.0
 40
0
 41
0
  0
VERTEX
  8
CCC-CC-CC
 10
43.706
 20
230.005
 30
0.0
 40
0
 41
0
  0
VERTEX
  8
CCC-CC-CC
 10
46.2964
 20
231.411
 30
0.0
 40
0
 41
0
  0
VERTEX
  8
CCC-CC-CC
 10
49.1589
 20
232.3
 30
0.0
 40
0
 41
0
  0
VERTEX
  8
CCC-CC-CC
 10
51.4629
 20
232.609
 30
0.0
 40
0
 41
0
  0
VERTEX
  8
CCC-CC-CC
 10
52.2319
 20
232.609
 30
0.0
 40
0
 41
0
  0
SEQEND
 8
0
  0
POLYLINE
  8
CCC-CC-CC
 66
     1
 10
0
 20
0
 30
0.0
 70
     1
 40
0
 41
0
  0
VERTEX
  8
CCC-CC-CC
 10
52.2319
 20
232.405
 30
0.0
 40
0
 41
0
  0
VERTEX
  8
CCC-CC-CC
 10
52.9897
 20
232.405
 30
0.0
 40
0
 41
0
  0
VERTEX
  8
CCC-CC-CC
 10
55.2633
 20
232.1
 30
0.0
 40
0
 41
0
  0
VERTEX
  8
CCC-CC-CC
 10
58.087
 20
231.224
 30
0.0
 40
0
 41
0
  0
VERTEX
  8
CCC-CC-CC
 10
60.6432
 20
229.836
 30
0.0
 40
0
 41
0
  0
VERTEX
  8
CCC-CC-CC
 10
62.8689
 20
227.999
 30
0.0
 40
0
 41
0
  0
VERTEX
  8
CCC-CC-CC
 10
64.7058
 20
225.774
 30
0.0
 40
0
 41
0
  0
VERTEX
  8
CCC-CC-CC
 10
66.0936
 20
223.217
 30
0.0
 40
0
 41
0
  0
VERTEX
  8
CCC-CC-CC
 10
66.9699
 20
220.394
 30
0.0
 40
0
 41
0
  0
VERTEX
  8
CCC-CC-CC
 10
67.2758
 20
218.12
 30
0.0
 40
0
 41
0
  0
VERTEX
  8
CCC-CC-CC
 10
67.2758
 20
217.361
 30
0.0
 40
0
 41
0
  0
VERTEX
  8
CCC-CC-CC
 10
67.2758
 20
216.603
 30
0.0
 40
0
 41
0
  0
VERTEX
  8
CCC-CC-CC
 10
66.9699
 20
214.329
 30
0.0
 40
0
 41
0
  0
VERTEX
  8
CCC-CC-CC
 10
66.0936
 20
211.505
 30
0.0
 40
0
 41
0
  0
VERTEX
  8
CCC-CC-CC
 10
64.7058
 20
208.951
 30
0.0
 40
0
 41
0
  0
VERTEX
  8
CCC-CC-CC
 10
62.8689
 20
206.724
 30
0.0
 40
0
 41
0
  0
VERTEX
  8
CCC-CC-CC
 10
60.6432
 20
204.887
 30
0.0
 40
0
 41
0
  0
VERTEX
  8
CCC-CC-CC
 10
58.087
 20
203.499
 30
0.0
 40
0
 41
0
  0
VERTEX
  8
CCC-CC-CC
 10
55.2633
 20
202.622
 30
0.0
 40
0
 41
0
  0
VERTEX
  8
CCC-CC-CC
 10
52.9897
 20
202.317
 30
0.0
 40
0
 41
0
  0
VERTEX
  8
CCC-CC-CC
 10
52.2319
 20
202.317
 30
0.0
 40
0
 41
0
  0
VERTEX
  8
CCC-CC-CC
 10
51.4724
 20
202.317
 30
0.0
 40
0
 41
0
  0
VERTEX
  8
CCC-CC-CC
 10
49.1987
 20
202.622
 30
0.0
 40
0
 41
0
  0
VERTEX
  8
CCC-CC-CC
 10
46.3751
 20
203.499
 30
0.0
 40
0
 41
0
  0
VERTEX
  8
CCC-CC-CC
 10
43.8203
 20
204.887
 30
0.0
 40
0
 41
0
  0
VERTEX
  8
CCC-CC-CC
 10
41.5932
 20
206.724
 30
0.0
 40
0
 41
0
  0
VERTEX
  8
CCC-CC-CC
 10
39.7563
 20
208.951
 30
0.0
 40
0
 41
0
  0
VERTEX
  8
CCC-CC-CC
 10
38.3688
 20
211.505
 30
0.0
 40
0
 41
0
  0
VERTEX
  8
CCC-CC-CC
 10
37.4922
 20
214.329
 30
0.0
 40
0
 41
0
  0
VERTEX
  8
CCC-CC-CC
 10
37.1877
 20
216.603
 30
0.0
 40
0
 41
0
  0
VERTEX
  8
CCC-CC-CC
 10
37.1877
 20
217.361
 30
0.0
 40
0
 41
0
  0
VERTEX
  8
CCC-CC-CC
 10
37.1877
 20
218.12
 30
0.0
 40
0
 41
0
  0
VERTEX
  8
CCC-CC-CC
 10
37.4922
 20
220.394
 30
0.0
 40
0
 41
0
  0
VERTEX
  8
CCC-CC-CC
 10
38.3688
 20
223.217
 30
0.0
 40
0
 41
0
  0
VERTEX
  8
CCC-CC-CC
 10
39.7563
 20
225.774
 30
0.0
 40
0
 41
0
  0
VERTEX
  8
CCC-CC-CC
 10
41.5932
 20
227.999
 30
0.0
 40
0
 41
0
  0
VERTEX
  8
CCC-CC-CC
 10
43.8203
 20
229.836
 30
0.0
 40
0
 41
0
  0
VERTEX
  8
CCC-CC-CC
 10
46.3751
 20
231.224
 30
0.0
 40
0
 41
0
  0
VERTEX
  8
CCC-CC-CC
 10
49.1987
 20
232.1
 30
0.0
 40
0
 41
0
  0
VERTEX
  8
CCC-CC-CC
 10
51.4724
 20
232.405
 30
0.0
 40
0
 41
0
  0
VERTEX
  8
CCC-CC-CC
 10
52.2319
 20
232.405
 30
0.0
 40
0
 41
0
  0
SEQEND
 8
0
  0
POLYLINE
  8
CCC-CC-CC
 66
     1
 10
0
 20
0
 30
0.0
 70
     1
 40
0
 41
0
  0
VERTEX
  8
CCC-CC-CC
 10
82.7278
 20
232.609
 30
0.0
 40
0
 41
0
  0
VERTEX
  8
CCC-CC-CC
 10
83.4954
 20
232.609
 30
0.0
 40
0
 41
0
  0
VERTEX
  8
CCC-CC-CC
 10
85.7994
 20
232.3
 30
0.0
 40
0
 41
0
  0
VERTEX
  8
CCC-CC-CC
 10
88.6615
 20
231.411
 30
0.0
 40
0
 41
0
  0
VERTEX
  8
CCC-CC-CC
 10
91.2523
 20
230.005
 30
0.0
 40
0
 41
0
  0
VERTEX
  8
CCC-CC-CC
 10
93.5083
 20
228.144
 30
0.0
 40
0
 41
0
  0
VERTEX
  8
CCC-CC-CC
 10
95.3699
 20
225.887
 30
0.0
 40
0
 41
0
  0
VERTEX
  8
CCC-CC-CC
 10
96.7754
 20
223.296
 30
0.0
 40
0
 41
0
  0
VERTEX
  8
CCC-CC-CC
 10
97.6644
 20
220.434
 30
0.0
 40
0
 41
0
  0
VERTEX
  8
CCC-CC-CC
 10
97.9745
 20
218.13
 30
0.0
 40
0
 41
0
  0
VERTEX
  8
CCC-CC-CC
 10
97.9745
 20
217.361
 30
0.0
 40
0
 41
0
  0
VERTEX
  8
CCC-CC-CC
 10
97.9745
 20
216.593
 30
0.0
 40
0
 41
0
  0
VERTEX
  8
CCC-CC-CC
 10
97.6644
 20
214.289
 30
0.0
 40
0
 41
0
  0
VERTEX
  8
CCC-CC-CC
 10
96.7754
 20
211.427
 30
0.0
 40
0
 41
0
  0
VERTEX
  8
CCC-CC-CC
 10
95.3699
 20
208.836
 30
0.0
 40
0
 41
0
  0
VERTEX
  8
CCC-CC-CC
 10
93.5083
 20
206.58
 30
0.0
 40
0
 41
0
  0
VERTEX
  8
CCC-CC-CC
 10
91.2523
 20
204.719
 30
0.0
 40
0
 41
0
  0
VERTEX
  8
CCC-CC-CC
 10
88.6615
 20
203.313
 30
0.0
 40
0
 41
0
  0
VERTEX
  8
CCC-CC-CC
 10
85.7994
 20
202.424
 30
0.0
 40
0
 41
0
  0
VERTEX
  8
CCC-CC-CC
 10
83.4954
 20
202.114
 30
0.0
 40
0
 41
0
  0
VERTEX
  8
CCC-CC-CC
 10
82.7278
 20
202.114
 30
0.0
 40
0
 41
0
  0
VERTEX
  8
CCC-CC-CC
 10
81.9587
 20
202.114
 30
0.0
 40
0
 41
0
  0
VERTEX
  8
CCC-CC-CC
 10
79.6548
 20
202.424
 30
0.0
 40
0
 41
0
  0
VERTEX
  8
CCC-CC-CC
 10
76.7927
 20
203.313
 30
0.0
 40
0
 41
0
  0
VERTEX
  8
CCC-CC-CC
 10
74.2019
 20
204.719
 30
0.0
 40
0
 41
0
  0
VERTEX
  8
CCC-CC-CC
 10
71.9448
 20
206.58
 30
0.0
 40
0
 41
0
  0
VERTEX
  8
CCC-CC-CC
 10
70.0828
 20
208.836
 30
0.0
 40
0
 41
0
  0
VERTEX
  8
CCC-CC-CC
 10
68.6774
 20
211.427
 30
0.0
 40
0
 41
0
  0
VERTEX
  8
CCC-CC-CC
 10
67.7884
 20
214.289
 30
0.0
 40
0
 41
0
  0
VERTEX
  8
CCC-CC-CC
 10
67.4797
 20
216.593
 30
0.0
 40
0
 41
0
  0
VERTEX
  8
CCC-CC-CC
 10
67.4797
 20
217.361
 30
0.0
 40
0
 41
0
  0
VERTEX
  8
CCC-CC-CC
 10
67.4797
 20
218.13
 30
0.0
 40
0
 41
0
  0
VERTEX
  8
CCC-CC-CC
 10
67.7884
 20
220.434
 30
0.0
 40
0
 41
0
  0
VERTEX
  8
CCC-CC-CC
 10
68.6774
 20
223.296
 30
0.0
 40
0
 41
0
  0
VERTEX
  8
CCC-CC-CC
 10
70.0828
 20
225.887
 30
0.0
 40
0
 41
0
  0
VERTEX
  8
CCC-CC-CC
 10
71.9448
 20
228.144
 30
0.0
 40
0
 41
0
  0
VERTEX
  8
CCC-CC-CC
 10
74.2019
 20
230.005
 30
0.0
 40
0
 41
0
  0
VERTEX
  8
CCC-CC-CC
 10
76.7927
 20
231.411
 30
0.0
 40
0
 41
0
  0
VERTEX
  8
CCC-CC-CC
 10
79.6548
 20
232.3
 30
0.0
 40
0
 41
0
  0
VERTEX
  8
CCC-CC-CC
 10
81.9587
 20
232.609
 30
0.0
 40
0
 41
0
  0
VERTEX
  8
CCC-CC-CC
 10
82.7278
 20
232.609
 30
0.0
 40
0
 41
0
  0
SEQEND
 8
0
  0
POLYLINE
  8
CCC-CC-CC
 66
     1
 10
0
 20
0
 30
0.0
 70
     1
 40
0
 41
0
  0
VERTEX
  8
CCC-CC-CC
 10
82.7278
 20
232.405
 30
0.0
 40
0
 41
0
  0
VERTEX
  8
CCC-CC-CC
 10
83.4856
 20
232.405
 30
0.0
 40
0
 41
0
  0
VERTEX
  8
CCC-CC-CC
 10
85.7596
 20
232.1
 30
0.0
 40
0
 41
0
  0
VERTEX
  8
CCC-CC-CC
 10
88.5832
 20
231.224
 30
0.0
 40
0
 41
0
  0
VERTEX
  8
CCC-CC-CC
 10
91.138
 20
229.836
 30
0.0
 40
0
 41
0
  0
VERTEX
  8
CCC-CC-CC
 10
93.3648
 20
227.999
 30
0.0
 40
0
 41
0
  0
VERTEX
  8
CCC-CC-CC
 10
95.2017
 20
225.774
 30
0.0
 40
0
 41
0
  0
VERTEX
  8
CCC-CC-CC
 10
96.5895
 20
223.217
 30
0.0
 40
0
 41
0
  0
VERTEX
  8
CCC-CC-CC
 10
97.4658
 20
220.394
 30
0.0
 40
0
 41
0
  0
VERTEX
  8
CCC-CC-CC
 10
97.7717
 20
218.12
 30
0.0
 40
0
 41
0
  0
VERTEX
  8
CCC-CC-CC
 10
97.7717
 20
217.361
 30
0.0
 40
0
 41
0
  0
VERTEX
  8
CCC-CC-CC
 10
97.7717
 20
216.603
 30
0.0
 40
0
 41
0
  0
VERTEX
  8
CCC-CC-CC
 10
97.4658
 20
214.329
 30
0.0
 40
0
 41
0
  0
VERTEX
  8
CCC-CC-CC
 10
96.5895
 20
211.505
 30
0.0
 40
0
 41
0
  0
VERTEX
  8
CCC-CC-CC
 10
95.2017
 20
208.951
 30
0.0
 40
0
 41
0
  0
VERTEX
  8
CCC-CC-CC
 10
93.3648
 20
206.724
 30
0.0
 40
0
 41
0
  0
VERTEX
  8
CCC-CC-CC
 10
91.138
 20
204.887
 30
0.0
 40
0
 41
0
  0
VERTEX
  8
CCC-CC-CC
 10
88.5832
 20
203.499
 30
0.0
 40
0
 41
0
  0
VERTEX
  8
CCC-CC-CC
 10
85.7596
 20
202.622
 30
0.0
 40
0
 41
0
  0
VERTEX
  8
CCC-CC-CC
 10
83.4856
 20
202.317
 30
0.0
 40
0
 41
0
  0
VERTEX
  8
CCC-CC-CC
 10
82.7278
 20
202.317
 30
0.0
 40
0
 41
0
  0
VERTEX
  8
CCC-CC-CC
 10
81.9686
 20
202.317
 30
0.0
 40
0
 41
0
  0
VERTEX
  8
CCC-CC-CC
 10
79.6946
 20
202.622
 30
0.0
 40
0
 41
0
  0
VERTEX
  8
CCC-CC-CC
 10
76.871
 20
203.499
 30
0.0
 40
0
 41
0
  0
VERTEX
  8
CCC-CC-CC
 10
74.3148
 20
204.887
 30
0.0
 40
0
 41
0
  0
VERTEX
  8
CCC-CC-CC
 10
72.088
 20
206.724
 30
0.0
 40
0
 41
0
  0
VERTEX
  8
CCC-CC-CC
 10
70.2511
 20
208.951
 30
0.0
 40
0
 41
0
  0
VERTEX
  8
CCC-CC-CC
 10
68.8633
 20
211.505
 30
0.0
 40
0
 41
0
  0
VERTEX
  8
CCC-CC-CC
 10
67.987
 20
214.329
 30
0.0
 40
0
 41
0
  0
VERTEX
  8
CCC-CC-CC
 10
67.6822
 20
216.603
 30
0.0
 40
0
 41
0
  0
VERTEX
  8
CCC-CC-CC
 10
67.6822
 20
217.361
 30
0.0
 40
0
 41
0
  0
VERTEX
  8
CCC-CC-CC
 10
67.6822
 20
218.12
 30
0.0
 40
0
 41
0
  0
VERTEX
  8
CCC-CC-CC
 10
67.987
 20
220.394
 30
0.0
 40
0
 41
0
  0
VERTEX
  8
CCC-CC-CC
 10
68.8633
 20
223.217
 30
0.0
 40
0
 41
0
  0
VERTEX
  8
CCC-CC-CC
 10
70.2511
 20
225.774
 30
0.0
 40
0
 41
0
  0
VERTEX
  8
CCC-CC-CC
 10
72.088
 20
227.999
 30
0.0
 40
0
 41
0
  0
VERTEX
  8
CCC-CC-CC
 10
74.3148
 20
229.836
 30
0.0
 40
0
 41
0
  0
VERTEX
  8
CCC-CC-CC
 10
76.871
 20
231.224
 30
0.0
 40
0
 41
0
  0
VERTEX
  8
CCC-CC-CC
 10
79.6946
 20
232.1
 30
0.0
 40
0
 41
0
  0
VERTEX
  8
CCC-CC-CC
 10
81.9686
 20
232.405
 30
0.0
 40
0
 41
0
  0
VERTEX
  8
CCC-CC-CC
 10
82.7278
 20
232.405
 30
0.0
 40
0
 41
0
  0
SEQEND
 8
0
  0
POLYLINE
  8
CCC-CC-CC
 66
     1
 10
0
 20
0
 30
0.0
 70
     1
 40
0
 41
0
  0
VERTEX
  8
CCC-CC-CC
 10
113.222
 20
232.609
 30
0.0
 40
0
 41
0
  0
VERTEX
  8
CCC-CC-CC
 10
113.99
 20
232.609
 30
0.0
 40
0
 41
0
  0
VERTEX
  8
CCC-CC-CC
 10
116.294
 20
232.3
 30
0.0
 40
0
 41
0
  0
VERTEX
  8
CCC-CC-CC
 10
119.156
 20
231.411
 30
0.0
 40
0
 41
0
  0
VERTEX
  8
CCC-CC-CC
 10
121.747
 20
230.005
 30
0.0
 40
0
 41
0
  0
VERTEX
  8
CCC-CC-CC
 10
124.004
 20
228.144
 30
0.0
 40
0
 41
0
  0
VERTEX
  8
CCC-CC-CC
 10
125.866
 20
225.887
 30
0.0
 40
0
 41
0
  0
VERTEX
  8
CCC-CC-CC
 10
127.272
 20
223.296
 30
0.0
 40
0
 41
0
  0
VERTEX
  8
CCC-CC-CC
 10
128.16
 20
220.434
 30
0.0
 40
0
 41
0
  0
VERTEX
  8
CCC-CC-CC
 10
128.47
 20
218.13
 30
0.0
 40
0
 41
0
  0
VERTEX
  8
CCC-CC-CC
 10
128.47
 20
217.361
 30
0.0
 40
0
 41
0
  0
VERTEX
  8
CCC-CC-CC
 10
128.47
 20
216.593
 30
0.0
 40
0
 41
0
  0
VERTEX
  8
CCC-CC-CC
 10
128.16
 20
214.289
 30
0.0
 40
0
 41
0
  0
VERTEX
  8
CCC-CC-CC
 10
127.272
 20
211.427
 30
0.0
 40
0
 41
0
  0
VERTEX
  8
CCC-CC-CC
 10
125.866
 20
208.836
 30
0.0
 40
0
 41
0
  0
VERTEX
  8
CCC-CC-CC
 10
124.004
 20
206.58
 30
0.0
 40
0
 41
0
  0
VERTEX
  8
CCC-CC-CC
 10
121.747
 20
204.719
 30
0.0
 40
0
 41
0
  0
VERTEX
  8
CCC-CC-CC
 10
119.156
 20
203.313
 30
0.0
 40
0
 41
0
  0
VERTEX
  8
CCC-CC-CC
 10
116.294
 20
202.424
 30
0.0
 40
0
 41
0
  0
VERTEX
  8
CCC-CC-CC
 10
113.99
 20
202.114
 30
0.0
 40
0
 41
0
  0
VERTEX
  8
CCC-CC-CC
 10
113.222
 20
202.114
 30
0.0
 40
0
 41
0
  0
VERTEX
  8
CCC-CC-CC
 10
112.454
 20
202.114
 30
0.0
 40
0
 41
0
  0
VERTEX
  8
CCC-CC-CC
 10
110.149
 20
202.424
 30
0.0
 40
0
 41
0
  0
VERTEX
  8
CCC-CC-CC
 10
107.287
 20
203.313
 30
0.0
 40
0
 41
0
  0
VERTEX
  8
CCC-CC-CC
 10
104.696
 20
204.719
 30
0.0
 40
0
 41
0
  0
VERTEX
  8
CCC-CC-CC
 10
102.439
 20
206.58
 30
0.0
 40
0
 41
0
  0
VERTEX
  8
CCC-CC-CC
 10
100.578
 20
208.836
 30
0.0
 40
0
 41
0
  0
VERTEX
  8
CCC-CC-CC
 10
99.1718
 20
211.427
 30
0.0
 40
0
 41
0
  0
VERTEX
  8
CCC-CC-CC
 10
98.2832
 20
214.289
 30
0.0
 40
0
 41
0
  0
VERTEX
  8
CCC-CC-CC
 10
97.9745
 20
216.593
 30
0.0
 40
0
 41
0
  0
VERTEX
  8
CCC-CC-CC
 10
97.9745
 20
217.361
 30
0.0
 40
0
 41
0
  0
VERTEX
  8
CCC-CC-CC
 10
97.9745
 20
218.13
 30
0.0
 40
0
 41
0
  0
VERTEX
  8
CCC-CC-CC
 10
98.2832
 20
220.434
 30
0.0
 40
0
 41
0
  0
VERTEX
  8
CCC-CC-CC
 10
99.1718
 20
223.296
 30
0.0
 40
0
 41
0
  0
VERTEX
  8
CCC-CC-CC
 10
100.578
 20
225.887
 30
0.0
 40
0
 41
0
  0
VERTEX
  8
CCC-CC-CC
 10
102.439
 20
228.144
 30
0.0
 40
0
 41
0
  0
VERTEX
  8
CCC-CC-CC
 10
104.696
 20
230.005
 30
0.0
 40
0
 41
0
  0
VERTEX
  8
CCC-CC-CC
 10
107.287
 20
231.411
 30
0.0
 40
0
 41
0
  0
VERTEX
  8
CCC-CC-CC
 10
110.149
 20
232.3
 30
0.0
 40
0
 41
0
  0
VERTEX
  8
CCC-CC-CC
 10
112.454
 20
232.609
 30
0.0
 40
0
 41
0
  0
VERTEX
  8
CCC-CC-CC
 10
113.222
 20
232.609
 30
0.0
 40
0
 41
0
  0
SEQEND
 8
0
  0
POLYLINE
  8
CCC-CC-CC
 66
     1
 10
0
 20
0
 30
0.0
 70
     1
 40
0
 41
0
  0
VERTEX
  8
CCC-CC-CC
 10
113.222
 20
232.405
 30
0.0
 40
0
 41
0
  0
VERTEX
  8
CCC-CC-CC
 10
113.98
 20
232.405
 30
0.0
 40
0
 41
0
  0
VERTEX
  8
CCC-CC-CC
 10
116.254
 20
232.1
 30
0.0
 40
0
 41
0
  0
VERTEX
  8
CCC-CC-CC
 10
119.078
 20
231.224
 30
0.0
 40
0
 41
0
  0
VERTEX
  8
CCC-CC-CC
 10
121.634
 20
229.836
 30
0.0
 40
0
 41
0
  0
VERTEX
  8
CCC-CC-CC
 10
123.86
 20
227.999
 30
0.0
 40
0
 41
0
  0
VERTEX
  8
CCC-CC-CC
 10
125.696
 20
225.774
 30
0.0
 40
0
 41
0
  0
VERTEX
  8
CCC-CC-CC
 10
127.084
 20
223.217
 30
0.0
 40
0
 41
0
  0
VERTEX
  8
CCC-CC-CC
 10
127.961
 20
220.394
 30
0.0
 40
0
 41
0
  0
VERTEX
  8
CCC-CC-CC
 10
128.266
 20
218.12
 30
0.0
 40
0
 41
0
  0
VERTEX
  8
CCC-CC-CC
 10
128.266
 20
217.361
 30
0.0
 40
0
 41
0
  0
VERTEX
  8
CCC-CC-CC
 10
128.266
 20
216.603
 30
0.0
 40
0
 41
0
  0
VERTEX
  8
CCC-CC-CC
 10
127.961
 20
214.329
 30
0.0
 40
0
 41
0
  0
VERTEX
  8
CCC-CC-CC
 10
127.084
 20
211.505
 30
0.0
 40
0
 41
0
  0
VERTEX
  8
CCC-CC-CC
 10
125.696
 20
208.951
 30
0.0
 40
0
 41
0
  0
VERTEX
  8
CCC-CC-CC
 10
123.86
 20
206.724
 30
0.0
 40
0
 41
0
  0
VERTEX
  8
CCC-CC-CC
 10
121.634
 20
204.887
 30
0.0
 40
0
 41
0
  0
VERTEX
  8
CCC-CC-CC
 10
119.078
 20
203.499
 30
0.0
 40
0
 41
0
  0
VERTEX
  8
CCC-CC-CC
 10
116.254
 20
202.622
 30
0.0
 40
0
 41
0
  0
VERTEX
  8
CCC-CC-CC
 10
113.98
 20
202.317
 30
0.0
 40
0
 41
0
  0
VERTEX
  8
CCC-CC-CC
 10
113.222
 20
202.317
 30
0.0
 40
0
 41
0
  0
VERTEX
  8
CCC-CC-CC
 10
112.463
 20
202.317
 30
0.0
 40
0
 41
0
  0
VERTEX
  8
CCC-CC-CC
 10
110.189
 20
202.622
 30
0.0
 40
0
 41
0
  0
VERTEX
  8
CCC-CC-CC
 10
107.366
 20
203.499
 30
0.0
 40
0
 41
0
  0
VERTEX
  8
CCC-CC-CC
 10
104.811
 20
204.887
 30
0.0
 40
0
 41
0
  0
VERTEX
  8
CCC-CC-CC
 10
102.584
 20
206.724
 30
0.0
 40
0
 41
0
  0
VERTEX
  8
CCC-CC-CC
 10
100.747
 20
208.951
 30
0.0
 40
0
 41
0
  0
VERTEX
  8
CCC-CC-CC
 10
99.3592
 20
211.505
 30
0.0
 40
0
 41
0
  0
VERTEX
  8
CCC-CC-CC
 10
98.4829
 20
214.329
 30
0.0
 40
0
 41
0
  0
VERTEX
  8
CCC-CC-CC
 10
98.1784
 20
216.603
 30
0.0
 40
0
 41
0
  0
VERTEX
  8
CCC-CC-CC
 10
98.1784
 20
217.361
 30
0.0
 40
0
 41
0
  0
VERTEX
  8
CCC-CC-CC
 10
98.1784
 20
218.12
 30
0.0
 40
0
 41
0
  0
VERTEX
  8
CCC-CC-CC
 10
98.4829
 20
220.394
 30
0.0
 40
0
 41
0
  0
VERTEX
  8
CCC-CC-CC
 10
99.3592
 20
223.217
 30
0.0
 40
0
 41
0
  0
VERTEX
  8
CCC-CC-CC
 10
100.747
 20
225.774
 30
0.0
 40
0
 41
0
  0
VERTEX
  8
CCC-CC-CC
 10
102.584
 20
227.999
 30
0.0
 40
0
 41
0
  0
VERTEX
  8
CCC-CC-CC
 10
104.811
 20
229.836
 30
0.0
 40
0
 41
0
  0
VERTEX
  8
CCC-CC-CC
 10
107.366
 20
231.224
 30
0.0
 40
0
 41
0
  0
VERTEX
  8
CCC-CC-CC
 10
110.189
 20
232.1
 30
0.0
 40
0
 41
0
  0
VERTEX
  8
CCC-CC-CC
 10
112.463
 20
232.405
 30
0.0
 40
0
 41
0
  0
VERTEX
  8
CCC-CC-CC
 10
113.222
 20
232.405
 30
0.0
 40
0
 41
0
  0
SEQEND
 8
0
  0
POLYLINE
  8
CCC-CC-CC
 66
     1
 10
0
 20
0
 30
0.0
 70
     1
 40
0
 41
0
  0
VERTEX
  8
CCC-CC-CC
 10
143.718
 20
232.609
 30
0.0
 40
0
 41
0
  0
VERTEX
  8
CCC-CC-CC
 10
144.486
 20
232.609
 30
0.0
 40
0
 41
0
  0
VERTEX
  8
CCC-CC-CC
 10
146.79
 20
232.3
 30
0.0
 40
0
 41
0
  0
VERTEX
  8
CCC-CC-CC
 10
149.652
 20
231.411
 30
0.0
 40
0
 41
0
  0
VERTEX
  8
CCC-CC-CC
 10
152.243
 20
230.005
 30
0.0
 40
0
 41
0
  0
VERTEX
  8
CCC-CC-CC
 10
154.499
 20
228.144
 30
0.0
 40
0
 41
0
  0
VERTEX
  8
CCC-CC-CC
 10
156.361
 20
225.887
 30
0.0
 40
0
 41
0
  0
VERTEX
  8
CCC-CC-CC
 10
157.766
 20
223.296
 30
0.0
 40
0
 41
0
  0
VERTEX
  8
CCC-CC-CC
 10
158.655
 20
220.434
 30
0.0
 40
0
 41
0
  0
VERTEX
  8
CCC-CC-CC
 10
158.965
 20
218.13
 30
0.0
 40
0
 41
0
  0
VERTEX
  8
CCC-CC-CC
 10
158.965
 20
217.361
 30
0.0
 40
0
 41
0
  0
VERTEX
  8
CCC-CC-CC
 10
158.965
 20
216.593
 30
0.0
 40
0
 41
0
  0
VERTEX
  8
CCC-CC-CC
 10
158.655
 20
214.289
 30
0.0
 40
0
 41
0
  0
VERTEX
  8
CCC-CC-CC
 10
157.766
 20
211.427
 30
0.0
 40
0
 41
0
  0
VERTEX
  8
CCC-CC-CC
 10
156.361
 20
208.836
 30
0.0
 40
0
 41
0
  0
VERTEX
  8
CCC-CC-CC
 10
154.499
 20
206.58
 30
0.0
 40
0
 41
0
  0
VERTEX
  8
CCC-CC-CC
 10
152.243
 20
204.719
 30
0.0
 40
0
 41
0
  0
VERTEX
  8
CCC-CC-CC
 10
149.652
 20
203.313
 30
0.0
 40
0
 41
0
  0
VERTEX
  8
CCC-CC-CC
 10
146.79
 20
202.424
 30
0.0
 40
0
 41
0
  0
VERTEX
  8
CCC-CC-CC
 10
144.486
 20
202.114
 30
0.0
 40
0
 41
0
  0
VERTEX
  8
CCC-CC-CC
 10
143.718
 20
202.114
 30
0.0
 40
0
 41
0
  0
VERTEX
  8
CCC-CC-CC
 10
142.949
 20
202.114
 30
0.0
 40
0
 41
0
  0
VERTEX
  8
CCC-CC-CC
 10
140.645
 20
202.424
 30
0.0
 40
0
 41
0
  0
VERTEX
  8
CCC-CC-CC
 10
137.783
 20
203.313
 30
0.0
 40
0
 41
0
  0
VERTEX
  8
CCC-CC-CC
 10
135.193
 20
204.719
 30
0.0
 40
0
 41
0
  0
VERTEX
  8
CCC-CC-CC
 10
132.935
 20
206.58
 30
0.0
 40
0
 41
0
  0
VERTEX
  8
CCC-CC-CC
 10
131.074
 20
208.836
 30
0.0
 40
0
 41
0
  0
VERTEX
  8
CCC-CC-CC
 10
129.668
 20
211.427
 30
0.0
 40
0
 41
0
  0
VERTEX
  8
CCC-CC-CC
 10
128.779
 20
214.289
 30
0.0
 40
0
 41
0
  0
VERTEX
  8
CCC-CC-CC
 10
128.47
 20
216.593
 30
0.0
 40
0
 41
0
  0
VERTEX
  8
CCC-CC-CC
 10
128.47
 20
217.361
 30
0.0
 40
0
 41
0
  0
VERTEX
  8
CCC-CC-CC
 10
128.47
 20
218.13
 30
0.0
 40
0
 41
0
  0
VERTEX
  8
CCC-CC-CC
 10
128.779
 20
220.434
 30
0.0
 40
0
 41
0
  0
VERTEX
  8
CCC-CC-CC
 10
129.668
 20
223.296
 30
0.0
 40
0
 41
0
  0
VERTEX
  8
CCC-CC-CC
 10
131.074
 20
225.887
 30
0.0
 40
0
 41
0
  0
VERTEX
  8
CCC-CC-CC
 10
132.935
 20
228.144
 30
0.0
 40
0
 41
0
  0
VERTEX
  8
CCC-CC-CC
 10
135.193
 20
230.005
 30
0.0
 40
0
 41
0
  0
VERTEX
  8
CCC-CC-CC
 10
137.783
 20
231.411
 30
0.0
 40
0
 41
0
  0
VERTEX
  8
CCC-CC-CC
 10
140.645
 20
232.3
 30
0.0
 40
0
 41
0
  0
VERTEX
  8
CCC-CC-CC
 10
142.949
 20
232.609
 30
0.0
 40
0
 41
0
  0
VERTEX
  8
CCC-CC-CC
 10
143.718
 20
232.609
 30
0.0
 40
0
 41
0
  0
SEQEND
 8
0
  0
POLYLINE
  8
CCC-CC-CC
 66
     1
 10
0
 20
0
 30
0.0
 70
     1
 40
0
 41
0
  0
VERTEX
  8
CCC-CC-CC
 10
143.718
 20
232.405
 30
0.0
 40
0
 41
0
  0
VERTEX
  8
CCC-CC-CC
 10
144.476
 20
232.405
 30
0.0
 40
0
 41
0
  0
VERTEX
  8
CCC-CC-CC
 10
146.75
 20
232.1
 30
0.0
 40
0
 41
0
  0
VERTEX
  8
CCC-CC-CC
 10
149.574
 20
231.224
 30
0.0
 40
0
 41
0
  0
VERTEX
  8
CCC-CC-CC
 10
152.128
 20
229.836
 30
0.0
 40
0
 41
0
  0
VERTEX
  8
CCC-CC-CC
 10
154.355
 20
227.999
 30
0.0
 40
0
 41
0
  0
VERTEX
  8
CCC-CC-CC
 10
156.192
 20
225.774
 30
0.0
 40
0
 41
0
  0
VERTEX
  8
CCC-CC-CC
 10
157.58
 20
223.217
 30
0.0
 40
0
 41
0
  0
VERTEX
  8
CCC-CC-CC
 10
158.456
 20
220.394
 30
0.0
 40
0
 41
0
  0
VERTEX
  8
CCC-CC-CC
 10
158.762
 20
218.12
 30
0.0
 40
0
 41
0
  0
VERTEX
  8
CCC-CC-CC
 10
158.762
 20
217.361
 30
0.0
 40
0
 41
0
  0
VERTEX
  8
CCC-CC-CC
 10
158.762
 20
216.603
 30
0.0
 40
0
 41
0
  0
VERTEX
  8
CCC-CC-CC
 10
158.456
 20
214.329
 30
0.0
 40
0
 41
0
  0
VERTEX
  8
CCC-CC-CC
 10
157.58
 20
211.505
 30
0.0
 40
0
 41
0
  0
VERTEX
  8
CCC-CC-CC
 10
156.192
 20
208.951
 30
0.0
 40
0
 41
0
  0
VERTEX
  8
CCC-CC-CC
 10
154.355
 20
206.724
 30
0.0
 40
0
 41
0
  0
VERTEX
  8
CCC-CC-CC
 10
152.128
 20
204.887
 30
0.0
 40
0
 41
0
  0
VERTEX
  8
CCC-CC-CC
 10
149.574
 20
203.499
 30
0.0
 40
0
 41
0
  0
VERTEX
  8
CCC-CC-CC
 10
146.75
 20
202.622
 30
0.0
 40
0
 41
0
  0
VERTEX
  8
CCC-CC-CC
 10
144.476
 20
202.317
 30
0.0
 40
0
 41
0
  0
VERTEX
  8
CCC-CC-CC
 10
143.718
 20
202.317
 30
0.0
 40
0
 41
0
  0
VERTEX
  8
CCC-CC-CC
 10
142.959
 20
202.317
 30
0.0
 40
0
 41
0
  0
VERTEX
  8
CCC-CC-CC
 10
140.685
 20
202.622
 30
0.0
 40
0
 41
0
  0
VERTEX
  8
CCC-CC-CC
 10
137.862
 20
203.499
 30
0.0
 40
0
 41
0
  0
VERTEX
  8
CCC-CC-CC
 10
135.305
 20
204.887
 30
0.0
 40
0
 41
0
  0
VERTEX
  8
CCC-CC-CC
 10
133.078
 20
206.724
 30
0.0
 40
0
 41
0
  0
VERTEX
  8
CCC-CC-CC
 10
131.241
 20
208.951
 30
0.0
 40
0
 41
0
  0
VERTEX
  8
CCC-CC-CC
 10
129.854
 20
211.505
 30
0.0
 40
0
 41
0
  0
VERTEX
  8
CCC-CC-CC
 10
128.977
 20
214.329
 30
0.0
 40
0
 41
0
  0
VERTEX
  8
CCC-CC-CC
 10
128.673
 20
216.603
 30
0.0
 40
0
 41
0
  0
VERTEX
  8
CCC-CC-CC
 10
128.673
 20
217.361
 30
0.0
 40
0
 41
0
  0
VERTEX
  8
CCC-CC-CC
 10
128.673
 20
218.12
 30
0.0
 40
0
 41
0
  0
VERTEX
  8
CCC-CC-CC
 10
128.977
 20
220.394
 30
0.0
 40
0
 41
0
  0
VERTEX
  8
CCC-CC-CC
 10
129.854
 20
223.217
 30
0.0
 40
0
 41
0
  0
VERTEX
  8
CCC-CC-CC
 10
131.241
 20
225.774
 30
0.0
 40
0
 41
0
  0
VERTEX
  8
CCC-CC-CC
 10
133.078
 20
227.999
 30
0.0
 40
0
 41
0
  0
VERTEX
  8
CCC-CC-CC
 10
135.305
 20
229.836
 30
0.0
 40
0
 41
0
  0
VERTEX
  8
CCC-CC-CC
 10
137.862
 20
231.224
 30
0.0
 40
0
 41
0
  0
VERTEX
  8
CCC-CC-CC
 10
140.685
 20
232.1
 30
0.0
 40
0
 41
0
  0
VERTEX
  8
CCC-CC-CC
 10
142.959
 20
232.405
 30
0.0
 40
0
 41
0
  0
VERTEX
  8
CCC-CC-CC
 10
143.718
 20
232.405
 30
0.0
 40
0
 41
0
  0
SEQEND
 8
0
  0
POLYLINE
  8
CCC-CC-CC
 66
     1
 10
0
 20
0
 30
0.0
 70
     1
 40
0
 41
0
  0
VERTEX
  8
CCC-CC-CC
 10
52.2319
 20
202.114
 30
0.0
 40
0
 41
0
  0
VERTEX
  8
CCC-CC-CC
 10
52.9992
 20
202.114
 30
0.0
 40
0
 41
0
  0
VERTEX
  8
CCC-CC-CC
 10
55.3036
 20
201.805
 30
0.0
 40
0
 41
0
  0
VERTEX
  8
CCC-CC-CC
 10
58.1656
 20
200.916
 30
0.0
 40
0
 41
0
  0
VERTEX
  8
CCC-CC-CC
 10
60.7564
 20
199.511
 30
0.0
 40
0
 41
0
  0
VERTEX
  8
CCC-CC-CC
 10
63.0135
 20
197.649
 30
0.0
 40
0
 41
0
  0
VERTEX
  8
CCC-CC-CC
 10
64.8751
 20
195.392
 30
0.0
 40
0
 41
0
  0
VERTEX
  8
CCC-CC-CC
 10
66.2809
 20
192.801
 30
0.0
 40
0
 41
0
  0
VERTEX
  8
CCC-CC-CC
 10
67.1696
 20
189.939
 30
0.0
 40
0
 41
0
  0
VERTEX
  8
CCC-CC-CC
 10
67.4797
 20
187.635
 30
0.0
 40
0
 41
0
  0
VERTEX
  8
CCC-CC-CC
 10
67.4797
 20
186.866
 30
0.0
 40
0
 41
0
  0
VERTEX
  8
CCC-CC-CC
 10
67.4797
 20
186.098
 30
0.0
 40
0
 41
0
  0
VERTEX
  8
CCC-CC-CC
 10
67.1696
 20
183.794
 30
0.0
 40
0
 41
0
  0
VERTEX
  8
CCC-CC-CC
 10
66.2809
 20
180.932
 30
0.0
 40
0
 41
0
  0
VERTEX
  8
CCC-CC-CC
 10
64.8751
 20
178.342
 30
0.0
 40
0
 41
0
  0
VERTEX
  8
CCC-CC-CC
 10
63.0135
 20
176.084
 30
0.0
 40
0
 41
0
  0
VERTEX
  8
CCC-CC-CC
 10
60.7564
 20
174.222
 30
0.0
 40
0
 41
0
  0
VERTEX
  8
CCC-CC-CC
 10
58.1656
 20
172.817
 30
0.0
 40
0
 41
0
  0
VERTEX
  8
CCC-CC-CC
 10
55.3036
 20
171.928
 30
0.0
 40
0
 41
0
  0
VERTEX
  8
CCC-CC-CC
 10
52.9992
 20
171.618
 30
0.0
 40
0
 41
0
  0
VERTEX
  8
CCC-CC-CC
 10
52.2319
 20
171.618
 30
0.0
 40
0
 41
0
  0
VERTEX
  8
CCC-CC-CC
 10
51.4629
 20
171.618
 30
0.0
 40
0
 41
0
  0
VERTEX
  8
CCC-CC-CC
 10
49.1589
 20
171.928
 30
0.0
 40
0
 41
0
  0
VERTEX
  8
CCC-CC-CC
 10
46.2964
 20
172.817
 30
0.0
 40
0
 41
0
  0
VERTEX
  8
CCC-CC-CC
 10
43.706
 20
174.222
 30
0.0
 40
0
 41
0
  0
VERTEX
  8
CCC-CC-CC
 10
41.4486
 20
176.084
 30
0.0
 40
0
 41
0
  0
VERTEX
  8
CCC-CC-CC
 10
39.587
 20
178.342
 30
0.0
 40
0
 41
0
  0
VERTEX
  8
CCC-CC-CC
 10
38.1811
 20
180.932
 30
0.0
 40
0
 41
0
  0
VERTEX
  8
CCC-CC-CC
 10
37.2925
 20
183.794
 30
0.0
 40
0
 41
0
  0
VERTEX
  8
CCC-CC-CC
 10
36.9838
 20
186.098
 30
0.0
 40
0
 41
0
  0
VERTEX
  8
CCC-CC-CC
 10
36.9838
 20
186.866
 30
0.0
 40
0
 41
0
  0
VERTEX
  8
CCC-CC-CC
 10
36.9838
 20
187.635
 30
0.0
 40
0
 41
0
  0
VERTEX
  8
CCC-CC-CC
 10
37.2925
 20
189.939
 30
0.0
 40
0
 41
0
  0
VERTEX
  8
CCC-CC-CC
 10
38.1811
 20
192.801
 30
0.0
 40
0
 41
0
  0
VERTEX
  8
CCC-CC-CC
 10
39.587
 20
195.392
 30
0.0
 40
0
 41
0
  0
VERTEX
  8
CCC-CC-CC
 10
41.4486
 20
197.649
 30
0.0
 40
0
 41
0
  0
VERTEX
  8
CCC-CC-CC
 10
43.706
 20
199.511
 30
0.0
 40
0
 41
0
  0
VERTEX
  8
CCC-CC-CC
 10
46.2964
 20
200.916
 30
0.0
 40
0
 41
0
  0
VERTEX
  8
CCC-CC-CC
 10
49.1589
 20
201.805
 30
0.0
 40
0
 41
0
  0
VERTEX
  8
CCC-CC-CC
 10
51.4629
 20
202.114
 30
0.0
 40
0
 41
0
  0
VERTEX
  8
CCC-CC-CC
 10
52.2319
 20
202.114
 30
0.0
 40
0
 41
0
  0
SEQEND
 8
0
  0
POLYLINE
  8
CCC-CC-CC
 66
     1
 10
0
 20
0
 30
0.0
 70
     1
 40
0
 41
0
  0
VERTEX
  8
CCC-CC-CC
 10
52.2319
 20
201.91
 30
0.0
 40
0
 41
0
  0
VERTEX
  8
CCC-CC-CC
 10
52.9897
 20
201.91
 30
0.0
 40
0
 41
0
  0
VERTEX
  8
CCC-CC-CC
 10
55.2633
 20
201.605
 30
0.0
 40
0
 41
0
  0
VERTEX
  8
CCC-CC-CC
 10
58.087
 20
200.729
 30
0.0
 40
0
 41
0
  0
VERTEX
  8
CCC-CC-CC
 10
60.6432
 20
199.342
 30
0.0
 40
0
 41
0
  0
VERTEX
  8
CCC-CC-CC
 10
62.8689
 20
197.504
 30
0.0
 40
0
 41
0
  0
VERTEX
  8
CCC-CC-CC
 10
64.7058
 20
195.278
 30
0.0
 40
0
 41
0
  0
VERTEX
  8
CCC-CC-CC
 10
66.0936
 20
192.723
 30
0.0
 40
0
 41
0
  0
VERTEX
  8
CCC-CC-CC
 10
66.9699
 20
189.899
 30
0.0
 40
0
 41
0
  0
VERTEX
  8
CCC-CC-CC
 10
67.2758
 20
187.626
 30
0.0
 40
0
 41
0
  0
VERTEX
  8
CCC-CC-CC
 10
67.2758
 20
186.866
 30
0.0
 40
0
 41
0
  0
VERTEX
  8
CCC-CC-CC
 10
67.2758
 20
186.108
 30
0.0
 40
0
 41
0
  0
VERTEX
  8
CCC-CC-CC
 10
66.9699
 20
183.834
 30
0.0
 40
0
 41
0
  0
VERTEX
  8
CCC-CC-CC
 10
66.0936
 20
181.011
 30
0.0
 40
0
 41
0
  0
VERTEX
  8
CCC-CC-CC
 10
64.7058
 20
178.454
 30
0.0
 40
0
 41
0
  0
VERTEX
  8
CCC-CC-CC
 10
62.8689
 20
176.229
 30
0.0
 40
0
 41
0
  0
VERTEX
  8
CCC-CC-CC
 10
60.6432
 20
174.392
 30
0.0
 40
0
 41
0
  0
VERTEX
  8
CCC-CC-CC
 10
58.087
 20
173.004
 30
0.0
 40
0
 41
0
  0
VERTEX
  8
CCC-CC-CC
 10
55.2633
 20
172.128
 30
0.0
 40
0
 41
0
  0
VERTEX
  8
CCC-CC-CC
 10
52.9897
 20
171.822
 30
0.0
 40
0
 41
0
  0
VERTEX
  8
CCC-CC-CC
 10
52.2319
 20
171.822
 30
0.0
 40
0
 41
0
  0
VERTEX
  8
CCC-CC-CC
 10
51.4724
 20
171.822
 30
0.0
 40
0
 41
0
  0
VERTEX
  8
CCC-CC-CC
 10
49.1987
 20
172.128
 30
0.0
 40
0
 41
0
  0
VERTEX
  8
CCC-CC-CC
 10
46.3751
 20
173.004
 30
0.0
 40
0
 41
0
  0
VERTEX
  8
CCC-CC-CC
 10
43.8203
 20
174.392
 30
0.0
 40
0
 41
0
  0
VERTEX
  8
CCC-CC-CC
 10
41.5932
 20
176.229
 30
0.0
 40
0
 41
0
  0
VERTEX
  8
CCC-CC-CC
 10
39.7563
 20
178.454
 30
0.0
 40
0
 41
0
  0
VERTEX
  8
CCC-CC-CC
 10
38.3688
 20
181.011
 30
0.0
 40
0
 41
0
  0
VERTEX
  8
CCC-CC-CC
 10
37.4922
 20
183.834
 30
0.0
 40
0
 41
0
  0
VERTEX
  8
CCC-CC-CC
 10
37.1877
 20
186.108
 30
0.0
 40
0
 41
0
  0
VERTEX
  8
CCC-CC-CC
 10
37.1877
 20
186.866
 30
0.0
 40
0
 41
0
  0
VERTEX
  8
CCC-CC-CC
 10
37.1877
 20
187.626
 30
0.0
 40
0
 41
0
  0
VERTEX
  8
CCC-CC-CC
 10
37.4922
 20
189.899
 30
0.0
 40
0
 41
0
  0
VERTEX
  8
CCC-CC-CC
 10
38.3688
 20
192.723
 30
0.0
 40
0
 41
0
  0
VERTEX
  8
CCC-CC-CC
 10
39.7563
 20
195.278
 30
0.0
 40
0
 41
0
  0
VERTEX
  8
CCC-CC-CC
 10
41.5932
 20
197.504
 30
0.0
 40
0
 41
0
  0
VERTEX
  8
CCC-CC-CC
 10
43.8203
 20
199.342
 30
0.0
 40
0
 41
0
  0
VERTEX
  8
CCC-CC-CC
 10
46.3751
 20
200.729
 30
0.0
 40
0
 41
0
  0
VERTEX
  8
CCC-CC-CC
 10
49.1987
 20
201.605
 30
0.0
 40
0
 41
0
  0
VERTEX
  8
CCC-CC-CC
 10
51.4724
 20
201.91
 30
0.0
 40
0
 41
0
  0
VERTEX
  8
CCC-CC-CC
 10
52.2319
 20
201.91
 30
0.0
 40
0
 41
0
  0
SEQEND
 8
0
  0
POLYLINE
  8
C00-00-00-BLACK
 66
     1
 10
0
 20
0
 30
0.0
 70
     1
 40
0
 41
0
  0
VERTEX
  8
C00-00-00-BLACK
 10
32.275
 20
161.575
 30
0.0
 40
0
 41
0
  0
VERTEX
  8
C00-00-00-BLACK
 10
32.2695
 20
161.615
 30
0.0
 40
0
 41
0
  0
VERTEX
  8
C00-00-00-BLACK
 10
32.2998
 20
161.897
 30
0.0
 40
0
 41
0
  0
VERTEX
  8
C00-00-00-BLACK
 10
32.3853
 20
162.21
 30
0.0
 40
0
 41
0
  0
VERTEX
  8
C00-00-00-BLACK
 10
32.4073
 20
162.264
 30
0.0
 40
0
 41
0
  0
VERTEX
  8
C00-00-00-BLACK
 10
32.4115
 20
162.299
 30
0.0
 40
0
 41
0
  0
VERTEX
  8
C00-00-00-BLACK
 10
32.5382
 20
162.538
 30
0.0
 40
0
 41
0
  0
VERTEX
  8
C00-00-00-BLACK
 10
32.7436
 20
162.796
 30
0.0
 40
0
 41
0
  0
VERTEX
  8
C00-00-00-BLACK
 10
32.7877
 20
162.837
 30
0.0
 40
0
 41
0
  0
VERTEX
  8
C00-00-00-BLACK
 10
32.8125
 20
162.872
 30
0.0
 40
0
 41
0
  0
VERTEX
  8
C00-00-00-BLACK
 10
33.0371
 20
163.048
 30
0.0
 40
0
 41
0
  0
VERTEX
  8
C00-00-00-BLACK
 10
33.3223
 20
163.201
 30
0.0
 40
0
 41
0
  0
VERTEX
  8
C00-00-00-BLACK
 10
33.3775
 20
163.223
 30
0.0
 40
0
 41
0
  0
VERTEX
  8
C00-00-00-BLACK
 10
33.4216
 20
163.233
 30
0.0
 40
0
 41
0
  0
VERTEX
  8
C00-00-00-BLACK
 10
33.9011
 20
163.35
 30
0.0
 40
0
 41
0
  0
VERTEX
  8
C00-00-00-BLACK
 10
34.061
 20
163.35
 30
0.0
 40
0
 41
0
  0
VERTEX
  8
C00-00-00-BLACK
 10
34.1133
 20
163.328
 30
0.0
 40
0
 41
0
  0
VERTEX
  8
C00-00-00-BLACK
 10
34.6949
 20
163.24
 30
0.0
 40
0
 41
0
  0
VERTEX
  8
C00-00-00-BLACK
 10
34.75
 20
163.218
 30
0.0
 40
0
 41
0
  0
VERTEX
  8
C00-00-00-BLACK
 10
34.7982
 20
163.184
 30
0.0
 40
0
 41
0
  0
VERTEX
  8
C00-00-00-BLACK
 10
35.2764
 20
162.879
 30
0.0
 40
0
 41
0
  0
VERTEX
  8
C00-00-00-BLACK
 10
35.3176
 20
162.837
 30
0.0
 40
0
 41
0
  0
VERTEX
  8
C00-00-00-BLACK
 10
35.337
 20
162.785
 30
0.0
 40
0
 41
0
  0
VERTEX
  8
C00-00-00-BLACK
 10
35.6912
 20
162.311
 30
0.0
 40
0
 41
0
  0
VERTEX
  8
C00-00-00-BLACK
 10
35.7145
 20
162.258
 30
0.0
 40
0
 41
0
  0
VERTEX
  8
C00-00-00-BLACK
 10
35.7078
 20
162.187
 30
0.0
 40
0
 41
0
  0
VERTEX
  8
C00-00-00-BLACK
 10
35.7657
 20
161.899
 30
0.0
 40
0
 41
0
  0
VERTEX
  8
C00-00-00-BLACK
 10
35.8401
 20
161.636
 30
0.0
 40
0
 41
0
  0
VERTEX
  8
C00-00-00-BLACK
 10
35.8415
 20
161.575
 30
0.0
 40
0
 41
0
  0
VERTEX
  8
C00-00-00-BLACK
 10
35.833
 20
161.492
 30
0.0
 40
0
 41
0
  0
VERTEX
  8
C00-00-00-BLACK
 10
35.796
 20
161.186
 30
0.0
 40
0
 41
0
  0
VERTEX
  8
C00-00-00-BLACK
 10
35.7311
 20
160.94
 30
0.0
 40
0
 41
0
  0
VERTEX
  8
C00-00-00-BLACK
 10
35.7092
 20
160.886
 30
0.0
 40
0
 41
0
  0
VERTEX
  8
C00-00-00-BLACK
 10
35.6595
 20
160.81
 30
0.0
 40
0
 41
0
  0
VERTEX
  8
C00-00-00-BLACK
 10
35.5025
 20
160.546
 30
0.0
 40
0
 41
0
  0
VERTEX
  8
C00-00-00-BLACK
 10
35.3589
 20
160.35
 30
0.0
 40
0
 41
0
  0
VERTEX
  8
C00-00-00-BLACK
 10
35.3176
 20
160.307
 30
0.0
 40
0
 41
0
  0
VERTEX
  8
C00-00-00-BLACK
 10
35.2516
 20
160.262
 30
0.0
 40
0
 41
0
  0
VERTEX
  8
C00-00-00-BLACK
 10
34.7968
 20
159.939
 30
0.0
 40
0
 41
0
  0
VERTEX
  8
C00-00-00-BLACK
 10
34.7445
 20
159.916
 30
0.0
 40
0
 41
0
  0
VERTEX
  8
C00-00-00-BLACK
 10
34.6838
 20
159.894
 30
0.0
 40
0
 41
0
  0
VERTEX
  8
C00-00-00-BLACK
 10
34.2084
 20
159.784
 30
0.0
 40
0
 41
0
  0
VERTEX
  8
C00-00-00-BLACK
 10
34.0499
 20
159.784
 30
0.0
 40
0
 41
0
  0
VERTEX
  8
C00-00-00-BLACK
 10
33.9824
 20
159.766
 30
0.0
 40
0
 41
0
  0
VERTEX
  8
C00-00-00-BLACK
 10
33.6848
 20
159.789
 30
0.0
 40
0
 41
0
  0
VERTEX
  8
C00-00-00-BLACK
 10
33.4188
 20
159.894
 30
0.0
 40
0
 41
0
  0
VERTEX
  8
C00-00-00-BLACK
 10
33.3664
 20
159.916
 30
0.0
 40
0
 41
0
  0
VERTEX
  8
C00-00-00-BLACK
 10
33.3044
 20
159.939
 30
0.0
 40
0
 41
0
  0
VERTEX
  8
C00-00-00-BLACK
 10
32.829
 20
160.266
 30
0.0
 40
0
 41
0
  0
VERTEX
  8
C00-00-00-BLACK
 10
32.7877
 20
160.307
 30
0.0
 40
0
 41
0
  0
VERTEX
  8
C00-00-00-BLACK
 10
32.7284
 20
160.346
 30
0.0
 40
0
 41
0
  0
VERTEX
  8
C00-00-00-BLACK
 10
32.4294
 20
160.832
 30
0.0
 40
0
 41
0
  0
VERTEX
  8
C00-00-00-BLACK
 10
32.4073
 20
160.886
 30
0.0
 40
0
 41
0
  0
VERTEX
  8
C00-00-00-BLACK
 10
32.3687
 20
160.918
 30
0.0
 40
0
 41
0
  0
VERTEX
  8
C00-00-00-BLACK
 10
32.2833
 20
161.185
 30
0.0
 40
0
 41
0
  0
VERTEX
  8
C00-00-00-BLACK
 10
32.275
 20
161.478
 30
0.0
 40
0
 41
0
  0
VERTEX
  8
C00-00-00-BLACK
 10
32.275
 20
161.575
 30
0.0
 40
0
 41
0
  0
SEQEND
 8
0
  0
POLYLINE
  8
C00-00-00-BLACK
 66
     1
 10
0
 20
0
 30
0.0
 70
     1
 40
0
 41
0
  0
VERTEX
  8
C00-00-00-BLACK
 10
173.732
 20
161.575
 30
0.0
 40
0
 41
0
  0
VERTEX
  8
C00-00-00-BLACK
 10
173.726
 20
161.615
 30
0.0
 40
0
 41
0
  0
VERTEX
  8
C00-00-00-BLACK
 10
173.757
 20
161.897
 30
0.0
 40
0
 41
0
  0
VERTEX
  8
C00-00-00-BLACK
 10
173.842
 20
162.21
 30
0.0
 40
0
 41
0
  0
VERTEX
  8
C00-00-00-BLACK
 10
173.864
 20
162.264
 30
0.0
 40
0
 41
0
  0
VERTEX
  8
C00-00-00-BLACK
 10
173.868
 20
162.299
 30
0.0
 40
0
 41
0
  0
VERTEX
  8
C00-00-00-BLACK
 10
173.995
 20
162.538
 30
0.0
 40
0
 41
0
  0
VERTEX
  8
C00-00-00-BLACK
 10
174.201
 20
162.796
 30
0.0
 40
0
 41
0
  0
VERTEX
  8
C00-00-00-BLACK
 10
174.245
 20
162.837
 30
0.0
 40
0
 41
0
  0
VERTEX
  8
C00-00-00-BLACK
 10
174.269
 20
162.872
 30
0.0
 40
0
 41
0
  0
VERTEX
  8
C00-00-00-BLACK
 10
174.494
 20
163.048
 30
0.0
 40
0
 41
0
  0
VERTEX
  8
C00-00-00-BLACK
 10
174.78
 20
163.201
 30
0.0
 40
0
 41
0
  0
VERTEX
  8
C00-00-00-BLACK
 10
174.835
 20
163.223
 30
0.0
 40
0
 41
0
  0
VERTEX
  8
C00-00-00-BLACK
 10
174.879
 20
163.233
 30
0.0
 40
0
 41
0
  0
VERTEX
  8
C00-00-00-BLACK
 10
175.358
 20
163.35
 30
0.0
 40
0
 41
0
  0
VERTEX
  8
C00-00-00-BLACK
 10
175.518
 20
163.35
 30
0.0
 40
0
 41
0
  0
VERTEX
  8
C00-00-00-BLACK
 10
175.57
 20
163.328
 30
0.0
 40
0
 41
0
  0
VERTEX
  8
C00-00-00-BLACK
 10
176.152
 20
163.24
 30
0.0
 40
0
 41
0
  0
VERTEX
  8
C00-00-00-BLACK
 10
176.207
 20
163.218
 30
0.0
 40
0
 41
0
  0
VERTEX
  8
C00-00-00-BLACK
 10
176.255
 20
163.184
 30
0.0
 40
0
 41
0
  0
VERTEX
  8
C00-00-00-BLACK
 10
176.734
 20
162.879
 30
0.0
 40
0
 41
0
  0
VERTEX
  8
C00-00-00-BLACK
 10
176.775
 20
162.837
 30
0.0
 40
0
 41
0
  0
VERTEX
  8
C00-00-00-BLACK
 10
176.794
 20
162.785
 30
0.0
 40
0
 41
0
  0
VERTEX
  8
C00-00-00-BLACK
 10
177.148
 20
162.311
 30
0.0
 40
0
 41
0
  0
VERTEX
  8
C00-00-00-BLACK
 10
177.172
 20
162.258
 30
0.0
 40
0
 41
0
  0
VERTEX
  8
C00-00-00-BLACK
 10
177.165
 20
162.187
 30
0.0
 40
0
 41
0
  0
VERTEX
  8
C00-00-00-BLACK
 10
177.223
 20
161.899
 30
0.0
 40
0
 41
0
  0
VERTEX
  8
C00-00-00-BLACK
 10
177.297
 20
161.636
 30
0.0
 40
0
 41
0
  0
VERTEX
  8
C00-00-00-BLACK
 10
177.298
 20
161.575
 30
0.0
 40
0
 41
0
  0
VERTEX
  8
C00-00-00-BLACK
 10
177.29
 20
161.492
 30
0.0
 40
0
 41
0
  0
VERTEX
  8
C00-00-00-BLACK
 10
177.253
 20
161.186
 30
0.0
 40
0
 41
0
  0
VERTEX
  8
C00-00-00-BLACK
 10
177.188
 20
160.94
 30
0.0
 40
0
 41
0
  0
VERTEX
  8
C00-00-00-BLACK
 10
177.166
 20
160.886
 30
0.0
 40
0
 41
0
  0
VERTEX
  8
C00-00-00-BLACK
 10
177.117
 20
160.81
 30
0.0
 40
0
 41
0
  0
VERTEX
  8
C00-00-00-BLACK
 10
176.959
 20
160.546
 30
0.0
 40
0
 41
0
  0
VERTEX
  8
C00-00-00-BLACK
 10
176.816
 20
160.35
 30
0.0
 40
0
 41
0
  0
VERTEX
  8
C00-00-00-BLACK
 10
176.775
 20
160.307
 30
0.0
 40
0
 41
0
  0
VERTEX
  8
C00-00-00-BLACK
 10
176.709
 20
160.262
 30
0.0
 40
0
 41
0
  0
VERTEX
  8
C00-00-00-BLACK
 10
176.254
 20
159.939
 30
0.0
 40
0
 41
0
  0
VERTEX
  8
C00-00-00-BLACK
 10
176.202
 20
159.916
 30
0.0
 40
0
 41
0
  0
VERTEX
  8
C00-00-00-BLACK
 10
176.141
 20
159.894
 30
0.0
 40
0
 41
0
  0
VERTEX
  8
C00-00-00-BLACK
 10
175.665
 20
159.784
 30
0.0
 40
0
 41
0
  0
VERTEX
  8
C00-00-00-BLACK
 10
175.507
 20
159.784
 30
0.0
 40
0
 41
0
  0
VERTEX
  8
C00-00-00-BLACK
 10
175.44
 20
159.766
 30
0.0
 40
0
 41
0
  0
VERTEX
  8
C00-00-00-BLACK
 10
175.142
 20
159.789
 30
0.0
 40
0
 41
0
  0
VERTEX
  8
C00-00-00-BLACK
 10
174.876
 20
159.894
 30
0.0
 40
0
 41
0
  0
VERTEX
  8
C00-00-00-BLACK
 10
174.824
 20
159.916
 30
0.0
 40
0
 41
0
  0
VERTEX
  8
C00-00-00-BLACK
 10
174.762
 20
159.939
 30
0.0
 40
0
 41
0
  0
VERTEX
  8
C00-00-00-BLACK
 10
174.286
 20
160.266
 30
0.0
 40
0
 41
0
  0
VERTEX
  8
C00-00-00-BLACK
 10
174.245
 20
160.307
 30
0.0
 40
0
 41
0
  0
VERTEX
  8
C00-00-00-BLACK
 10
174.185
 20
160.346
 30
0.0
 40
0
 41
0
  0
VERTEX
  8
C00-00-00-BLACK
 10
173.886
 20
160.832
 30
0.0
 40
0
 41
0
  0
VERTEX
  8
C00-00-00-BLACK
 10
173.864
 20
160.886
 30
0.0
 40
0
 41
0
  0
VERTEX
  8
C00-00-00-BLACK
 10
173.826
 20
160.918
 30
0.0
 40
0
 41
0
  0
VERTEX
  8
C00-00-00-BLACK
 10
173.74
 20
161.185
 30
0.0
 40
0
 41
0
  0
VERTEX
  8
C00-00-00-BLACK
 10
173.732
 20
161.478
 30
0.0
 40
0
 41
0
  0
VERTEX
  8
C00-00-00-BLACK
 10
173.732
 20
161.575
 30
0.0
 40
0
 41
0
  0
SEQEND
 8
0
  0
ENDSEC
  0
EOF
