  0
SECTION
  2
HEADER
  9
$ACADVER
  1
AC1009
  9
$FILLMODE
 70
 0
  9
$SPLFRAME
 70
 1
  9
$EXTMIN
 10
0
 20
0
 30
0.0
  9
$EXTMAX
 10
1058.33
 20
1058.33
 30
0.0
  0
ENDSEC
  0
SECTION
  2
TABLES
  0
TABLE
  2
LAYER
 70
4
  0
LAYER
  2
0
 70
     0
 62
     7
  6
CONTINUOUS
  0
LAYER
  2
C00-00-00-BLACK
 70
0
 62
7
  6
CONTINUOUS
  0
LAYER
  2
CFF-FF-FF-WHITE
 70
0
 62
7
  6
CONTINUOUS
  0
ENDTAB
  0
ENDSEC
  0
SECTION
  2
ENTITIES
  0
POLYLINE
  8
C00-00-00-BLACK
 66
     1
 10
0
 20
0
 30
0.0
 70
     1
 40
2
 41
2
  0
VERTEX
  8
C00-00-00-BLACK
 10
53.315
 20
250.472
 30
0.0
 40
0.705556
 41
0.705556
  0
VERTEX
  8
C00-00-00-BLACK
 10
53.315
 20
251.752
 30
0.0
 40
0.705556
 41
0.705556
  0
VERTEX
  8
C00-00-00-BLACK
 10
52.7981
 20
255.593
 30
0.0
 40
0.705556
 41
0.705556
  0
VERTEX
  8
C00-00-00-BLACK
 10
51.3182
 20
260.361
 30
0.0
 40
0.705556
 41
0.705556
  0
VERTEX
  8
C00-00-00-BLACK
 10
48.9768
 20
264.676
 30
0.0
 40
0.705556
 41
0.705556
  0
VERTEX
  8
C00-00-00-BLACK
 10
45.8749
 20
268.434
 30
0.0
 40
0.705556
 41
0.705556
  0
VERTEX
  8
C00-00-00-BLACK
 10
42.1171
 20
271.536
 30
0.0
 40
0.705556
 41
0.705556
  0
VERTEX
  8
C00-00-00-BLACK
 10
37.8023
 20
273.877
 30
0.0
 40
0.705556
 41
0.705556
  0
VERTEX
  8
C00-00-00-BLACK
 10
33.0343
 20
275.357
 30
0.0
 40
0.705556
 41
0.705556
  0
VERTEX
  8
C00-00-00-BLACK
 10
29.1937
 20
275.872
 30
0.0
 40
0.705556
 41
0.705556
  0
VERTEX
  8
C00-00-00-BLACK
 10
27.9149
 20
275.872
 30
0.0
 40
0.705556
 41
0.705556
  0
VERTEX
  8
C00-00-00-BLACK
 10
26.6347
 20
275.872
 30
0.0
 40
0.705556
 41
0.705556
  0
VERTEX
  8
C00-00-00-BLACK
 10
22.7941
 20
275.357
 30
0.0
 40
0.705556
 41
0.705556
  0
VERTEX
  8
C00-00-00-BLACK
 10
18.0261
 20
273.877
 30
0.0
 40
0.705556
 41
0.705556
  0
VERTEX
  8
C00-00-00-BLACK
 10
13.7115
 20
271.536
 30
0.0
 40
0.705556
 41
0.705556
  0
VERTEX
  8
C00-00-00-BLACK
 10
9.95355
 20
268.434
 30
0.0
 40
0.705556
 41
0.705556
  0
VERTEX
  8
C00-00-00-BLACK
 10
6.85161
 20
264.676
 30
0.0
 40
0.705556
 41
0.705556
  0
VERTEX
  8
C00-00-00-BLACK
 10
4.51033
 20
260.361
 30
0.0
 40
0.705556
 41
0.705556
  0
VERTEX
  8
C00-00-00-BLACK
 10
3.0303
 20
255.593
 30
0.0
 40
0.705556
 41
0.705556
  0
VERTEX
  8
C00-00-00-BLACK
 10
2.51492
 20
251.752
 30
0.0
 40
0.705556
 41
0.705556
  0
VERTEX
  8
C00-00-00-BLACK
 10
2.51492
 20
250.472
 30
0.0
 40
0.705556
 41
0.705556
  0
VERTEX
  8
C00-00-00-BLACK
 10
2.51492
 20
249.193
 30
0.0
 40
0.705556
 41
0.705556
  0
VERTEX
  8
C00-00-00-BLACK
 10
3.0303
 20
245.353
 30
0.0
 40
0.705556
 41
0.705556
  0
VERTEX
  8
C00-00-00-BLACK
 10
4.51033
 20
240.585
 30
0.0
 40
0.705556
 41
0.705556
  0
VERTEX
  8
C00-00-00-BLACK
 10
6.85161
 20
236.27
 30
0.0
 40
0.705556
 41
0.705556
  0
VERTEX
  8
C00-00-00-BLACK
 10
9.95355
 20
232.512
 30
0.0
 40
0.705556
 41
0.705556
  0
VERTEX
  8
C00-00-00-BLACK
 10
13.7115
 20
229.41
 30
0.0
 40
0.705556
 41
0.705556
  0
VERTEX
  8
C00-00-00-BLACK
 10
18.0261
 20
227.069
 30
0.0
 40
0.705556
 41
0.705556
  0
VERTEX
  8
C00-00-00-BLACK
 10
22.7941
 20
225.589
 30
0.0
 40
0.705556
 41
0.705556
  0
VERTEX
  8
C00-00-00-BLACK
 10
26.6347
 20
225.072
 30
0.0
 40
0.705556
 41
0.705556
  0
VERTEX
  8
C00-00-00-BLACK
 10
27.9149
 20
225.072
 30
0.0
 40
0.705556
 41
0.705556
  0
VERTEX
  8
C00-00-00-BLACK
 10
29.1937
 20
225.072
 30
0.0
 40
0.705556
 41
0.705556
  0
VERTEX
  8
C00-00-00-BLACK
 10
33.0343
 20
225.589
 30
0.0
 40
0.705556
 41
0.705556
  0
VERTEX
  8
C00-00-00-BLACK
 10
37.8023
 20
227.069
 30
0.0
 40
0.705556
 41
0.705556
  0
VERTEX
  8
C00-00-00-BLACK
 10
42.1171
 20
229.41
 30
0.0
 40
0.705556
 41
0.705556
  0
VERTEX
  8
C00-00-00-BLACK
 10
45.8749
 20
232.512
 30
0.0
 40
0.705556
 41
0.705556
  0
VERTEX
  8
C00-00-00-BLACK
 10
48.9768
 20
236.27
 30
0.0
 40
0.705556
 41
0.705556
  0
VERTEX
  8
C00-00-00-BLACK
 10
51.3182
 20
240.585
 30
0.0
 40
0.705556
 41
0.705556
  0
VERTEX
  8
C00-00-00-BLACK
 10
52.7981
 20
245.353
 30
0.0
 40
0.705556
 41
0.705556
  0
VERTEX
  8
C00-00-00-BLACK
 10
53.315
 20
249.193
 30
0.0
 40
0.705556
 41
0.705556
  0
VERTEX
  8
C00-00-00-BLACK
 10
53.315
 20
250.472
 30
0.0
 40
0.705556
 41
0.705556
  0
SEQEND
 8
0
  0
POLYLINE
  8
C00-00-00-BLACK
 66
     1
 10
0
 20
0
 30
0.0
 70
     1
 40
2
 41
2
  0
VERTEX
  8
C00-00-00-BLACK
 10
106.673
 20
250.472
 30
0.0
 40
0.705556
 41
0.705556
  0
VERTEX
  8
C00-00-00-BLACK
 10
106.673
 20
251.752
 30
0.0
 40
0.705556
 41
0.705556
  0
VERTEX
  8
C00-00-00-BLACK
 10
106.156
 20
255.593
 30
0.0
 40
0.705556
 41
0.705556
  0
VERTEX
  8
C00-00-00-BLACK
 10
104.676
 20
260.361
 30
0.0
 40
0.705556
 41
0.705556
  0
VERTEX
  8
C00-00-00-BLACK
 10
102.334
 20
264.676
 30
0.0
 40
0.705556
 41
0.705556
  0
VERTEX
  8
C00-00-00-BLACK
 10
99.2325
 20
268.434
 30
0.0
 40
0.705556
 41
0.705556
  0
VERTEX
  8
C00-00-00-BLACK
 10
95.4747
 20
271.536
 30
0.0
 40
0.705556
 41
0.705556
  0
VERTEX
  8
C00-00-00-BLACK
 10
91.1599
 20
273.877
 30
0.0
 40
0.705556
 41
0.705556
  0
VERTEX
  8
C00-00-00-BLACK
 10
86.3921
 20
275.357
 30
0.0
 40
0.705556
 41
0.705556
  0
VERTEX
  8
C00-00-00-BLACK
 10
82.5514
 20
275.872
 30
0.0
 40
0.705556
 41
0.705556
  0
VERTEX
  8
C00-00-00-BLACK
 10
81.2726
 20
275.872
 30
0.0
 40
0.705556
 41
0.705556
  0
VERTEX
  8
C00-00-00-BLACK
 10
79.9924
 20
275.872
 30
0.0
 40
0.705556
 41
0.705556
  0
VERTEX
  8
C00-00-00-BLACK
 10
76.1517
 20
275.357
 30
0.0
 40
0.705556
 41
0.705556
  0
VERTEX
  8
C00-00-00-BLACK
 10
71.3839
 20
273.877
 30
0.0
 40
0.705556
 41
0.705556
  0
VERTEX
  8
C00-00-00-BLACK
 10
67.0691
 20
271.536
 30
0.0
 40
0.705556
 41
0.705556
  0
VERTEX
  8
C00-00-00-BLACK
 10
63.3113
 20
268.434
 30
0.0
 40
0.705556
 41
0.705556
  0
VERTEX
  8
C00-00-00-BLACK
 10
60.2093
 20
264.676
 30
0.0
 40
0.705556
 41
0.705556
  0
VERTEX
  8
C00-00-00-BLACK
 10
57.8679
 20
260.361
 30
0.0
 40
0.705556
 41
0.705556
  0
VERTEX
  8
C00-00-00-BLACK
 10
56.388
 20
255.593
 30
0.0
 40
0.705556
 41
0.705556
  0
VERTEX
  8
C00-00-00-BLACK
 10
55.8726
 20
251.752
 30
0.0
 40
0.705556
 41
0.705556
  0
VERTEX
  8
C00-00-00-BLACK
 10
55.8726
 20
250.472
 30
0.0
 40
0.705556
 41
0.705556
  0
VERTEX
  8
C00-00-00-BLACK
 10
55.8726
 20
249.193
 30
0.0
 40
0.705556
 41
0.705556
  0
VERTEX
  8
C00-00-00-BLACK
 10
56.388
 20
245.353
 30
0.0
 40
0.705556
 41
0.705556
  0
VERTEX
  8
C00-00-00-BLACK
 10
57.8679
 20
240.585
 30
0.0
 40
0.705556
 41
0.705556
  0
VERTEX
  8
C00-00-00-BLACK
 10
60.2093
 20
236.27
 30
0.0
 40
0.705556
 41
0.705556
  0
VERTEX
  8
C00-00-00-BLACK
 10
63.3113
 20
232.512
 30
0.0
 40
0.705556
 41
0.705556
  0
VERTEX
  8
C00-00-00-BLACK
 10
67.0691
 20
229.41
 30
0.0
 40
0.705556
 41
0.705556
  0
VERTEX
  8
C00-00-00-BLACK
 10
71.3839
 20
227.069
 30
0.0
 40
0.705556
 41
0.705556
  0
VERTEX
  8
C00-00-00-BLACK
 10
76.1517
 20
225.589
 30
0.0
 40
0.705556
 41
0.705556
  0
VERTEX
  8
C00-00-00-BLACK
 10
79.9924
 20
225.072
 30
0.0
 40
0.705556
 41
0.705556
  0
VERTEX
  8
C00-00-00-BLACK
 10
81.2726
 20
225.072
 30
0.0
 40
0.705556
 41
0.705556
  0
VERTEX
  8
C00-00-00-BLACK
 10
82.5514
 20
225.072
 30
0.0
 40
0.705556
 41
0.705556
  0
VERTEX
  8
C00-00-00-BLACK
 10
86.3921
 20
225.589
 30
0.0
 40
0.705556
 41
0.705556
  0
VERTEX
  8
C00-00-00-BLACK
 10
91.1599
 20
227.069
 30
0.0
 40
0.705556
 41
0.705556
  0
VERTEX
  8
C00-00-00-BLACK
 10
95.4747
 20
229.41
 30
0.0
 40
0.705556
 41
0.705556
  0
VERTEX
  8
C00-00-00-BLACK
 10
99.2325
 20
232.512
 30
0.0
 40
0.705556
 41
0.705556
  0
VERTEX
  8
C00-00-00-BLACK
 10
102.334
 20
236.27
 30
0.0
 40
0.705556
 41
0.705556
  0
VERTEX
  8
C00-00-00-BLACK
 10
104.676
 20
240.585
 30
0.0
 40
0.705556
 41
0.705556
  0
VERTEX
  8
C00-00-00-BLACK
 10
106.156
 20
245.353
 30
0.0
 40
0.705556
 41
0.705556
  0
VERTEX
  8
C00-00-00-BLACK
 10
106.673
 20
249.193
 30
0.0
 40
0.705556
 41
0.705556
  0
VERTEX
  8
C00-00-00-BLACK
 10
106.673
 20
250.472
 30
0.0
 40
0.705556
 41
0.705556
  0
SEQEND
 8
0
  0
POLYLINE
  8
C00-00-00-BLACK
 66
     1
 10
0
 20
0
 30
0.0
 70
     1
 40
2
 41
2
  0
VERTEX
  8
C00-00-00-BLACK
 10
160.027
 20
250.472
 30
0.0
 40
0.705556
 41
0.705556
  0
VERTEX
  8
C00-00-00-BLACK
 10
160.027
 20
251.752
 30
0.0
 40
0.705556
 41
0.705556
  0
VERTEX
  8
C00-00-00-BLACK
 10
159.511
 20
255.593
 30
0.0
 40
0.705556
 41
0.705556
  0
VERTEX
  8
C00-00-00-BLACK
 10
158.031
 20
260.361
 30
0.0
 40
0.705556
 41
0.705556
  0
VERTEX
  8
C00-00-00-BLACK
 10
155.689
 20
264.676
 30
0.0
 40
0.705556
 41
0.705556
  0
VERTEX
  8
C00-00-00-BLACK
 10
152.587
 20
268.434
 30
0.0
 40
0.705556
 41
0.705556
  0
VERTEX
  8
C00-00-00-BLACK
 10
148.83
 20
271.536
 30
0.0
 40
0.705556
 41
0.705556
  0
VERTEX
  8
C00-00-00-BLACK
 10
144.515
 20
273.877
 30
0.0
 40
0.705556
 41
0.705556
  0
VERTEX
  8
C00-00-00-BLACK
 10
139.747
 20
275.357
 30
0.0
 40
0.705556
 41
0.705556
  0
VERTEX
  8
C00-00-00-BLACK
 10
135.906
 20
275.872
 30
0.0
 40
0.705556
 41
0.705556
  0
VERTEX
  8
C00-00-00-BLACK
 10
134.627
 20
275.872
 30
0.0
 40
0.705556
 41
0.705556
  0
VERTEX
  8
C00-00-00-BLACK
 10
133.347
 20
275.872
 30
0.0
 40
0.705556
 41
0.705556
  0
VERTEX
  8
C00-00-00-BLACK
 10
129.506
 20
275.357
 30
0.0
 40
0.705556
 41
0.705556
  0
VERTEX
  8
C00-00-00-BLACK
 10
124.739
 20
273.877
 30
0.0
 40
0.705556
 41
0.705556
  0
VERTEX
  8
C00-00-00-BLACK
 10
120.424
 20
271.536
 30
0.0
 40
0.705556
 41
0.705556
  0
VERTEX
  8
C00-00-00-BLACK
 10
116.666
 20
268.434
 30
0.0
 40
0.705556
 41
0.705556
  0
VERTEX
  8
C00-00-00-BLACK
 10
113.564
 20
264.676
 30
0.0
 40
0.705556
 41
0.705556
  0
VERTEX
  8
C00-00-00-BLACK
 10
111.223
 20
260.361
 30
0.0
 40
0.705556
 41
0.705556
  0
VERTEX
  8
C00-00-00-BLACK
 10
109.743
 20
255.593
 30
0.0
 40
0.705556
 41
0.705556
  0
VERTEX
  8
C00-00-00-BLACK
 10
109.227
 20
251.752
 30
0.0
 40
0.705556
 41
0.705556
  0
VERTEX
  8
C00-00-00-BLACK
 10
109.227
 20
250.472
 30
0.0
 40
0.705556
 41
0.705556
  0
VERTEX
  8
C00-00-00-BLACK
 10
109.227
 20
249.193
 30
0.0
 40
0.705556
 41
0.705556
  0
VERTEX
  8
C00-00-00-BLACK
 10
109.743
 20
245.353
 30
0.0
 40
0.705556
 41
0.705556
  0
VERTEX
  8
C00-00-00-BLACK
 10
111.223
 20
240.585
 30
0.0
 40
0.705556
 41
0.705556
  0
VERTEX
  8
C00-00-00-BLACK
 10
113.564
 20
236.27
 30
0.0
 40
0.705556
 41
0.705556
  0
VERTEX
  8
C00-00-00-BLACK
 10
116.666
 20
232.512
 30
0.0
 40
0.705556
 41
0.705556
  0
VERTEX
  8
C00-00-00-BLACK
 10
120.424
 20
229.41
 30
0.0
 40
0.705556
 41
0.705556
  0
VERTEX
  8
C00-00-00-BLACK
 10
124.739
 20
227.069
 30
0.0
 40
0.705556
 41
0.705556
  0
VERTEX
  8
C00-00-00-BLACK
 10
129.506
 20
225.589
 30
0.0
 40
0.705556
 41
0.705556
  0
VERTEX
  8
C00-00-00-BLACK
 10
133.347
 20
225.072
 30
0.0
 40
0.705556
 41
0.705556
  0
VERTEX
  8
C00-00-00-BLACK
 10
134.627
 20
225.072
 30
0.0
 40
0.705556
 41
0.705556
  0
VERTEX
  8
C00-00-00-BLACK
 10
135.906
 20
225.072
 30
0.0
 40
0.705556
 41
0.705556
  0
VERTEX
  8
C00-00-00-BLACK
 10
139.747
 20
225.589
 30
0.0
 40
0.705556
 41
0.705556
  0
VERTEX
  8
C00-00-00-BLACK
 10
144.515
 20
227.069
 30
0.0
 40
0.705556
 41
0.705556
  0
VERTEX
  8
C00-00-00-BLACK
 10
148.83
 20
229.41
 30
0.0
 40
0.705556
 41
0.705556
  0
VERTEX
  8
C00-00-00-BLACK
 10
152.587
 20
232.512
 30
0.0
 40
0.705556
 41
0.705556
  0
VERTEX
  8
C00-00-00-BLACK
 10
155.689
 20
236.27
 30
0.0
 40
0.705556
 41
0.705556
  0
VERTEX
  8
C00-00-00-BLACK
 10
158.031
 20
240.585
 30
0.0
 40
0.705556
 41
0.705556
  0
VERTEX
  8
C00-00-00-BLACK
 10
159.511
 20
245.353
 30
0.0
 40
0.705556
 41
0.705556
  0
VERTEX
  8
C00-00-00-BLACK
 10
160.027
 20
249.193
 30
0.0
 40
0.705556
 41
0.705556
  0
VERTEX
  8
C00-00-00-BLACK
 10
160.027
 20
250.472
 30
0.0
 40
0.705556
 41
0.705556
  0
SEQEND
 8
0
  0
POLYLINE
  8
C00-00-00-BLACK
 66
     1
 10
0
 20
0
 30
0.0
 70
     1
 40
2
 41
2
  0
VERTEX
  8
C00-00-00-BLACK
 10
213.385
 20
250.472
 30
0.0
 40
0.705556
 41
0.705556
  0
VERTEX
  8
C00-00-00-BLACK
 10
213.385
 20
251.752
 30
0.0
 40
0.705556
 41
0.705556
  0
VERTEX
  8
C00-00-00-BLACK
 10
212.868
 20
255.593
 30
0.0
 40
0.705556
 41
0.705556
  0
VERTEX
  8
C00-00-00-BLACK
 10
211.388
 20
260.361
 30
0.0
 40
0.705556
 41
0.705556
  0
VERTEX
  8
C00-00-00-BLACK
 10
209.047
 20
264.676
 30
0.0
 40
0.705556
 41
0.705556
  0
VERTEX
  8
C00-00-00-BLACK
 10
205.945
 20
268.434
 30
0.0
 40
0.705556
 41
0.705556
  0
VERTEX
  8
C00-00-00-BLACK
 10
202.187
 20
271.536
 30
0.0
 40
0.705556
 41
0.705556
  0
VERTEX
  8
C00-00-00-BLACK
 10
197.872
 20
273.877
 30
0.0
 40
0.705556
 41
0.705556
  0
VERTEX
  8
C00-00-00-BLACK
 10
193.105
 20
275.357
 30
0.0
 40
0.705556
 41
0.705556
  0
VERTEX
  8
C00-00-00-BLACK
 10
189.264
 20
275.872
 30
0.0
 40
0.705556
 41
0.705556
  0
VERTEX
  8
C00-00-00-BLACK
 10
187.985
 20
275.872
 30
0.0
 40
0.705556
 41
0.705556
  0
VERTEX
  8
C00-00-00-BLACK
 10
186.705
 20
275.872
 30
0.0
 40
0.705556
 41
0.705556
  0
VERTEX
  8
C00-00-00-BLACK
 10
182.864
 20
275.357
 30
0.0
 40
0.705556
 41
0.705556
  0
VERTEX
  8
C00-00-00-BLACK
 10
178.096
 20
273.877
 30
0.0
 40
0.705556
 41
0.705556
  0
VERTEX
  8
C00-00-00-BLACK
 10
173.782
 20
271.536
 30
0.0
 40
0.705556
 41
0.705556
  0
VERTEX
  8
C00-00-00-BLACK
 10
170.024
 20
268.434
 30
0.0
 40
0.705556
 41
0.705556
  0
VERTEX
  8
C00-00-00-BLACK
 10
166.922
 20
264.676
 30
0.0
 40
0.705556
 41
0.705556
  0
VERTEX
  8
C00-00-00-BLACK
 10
164.58
 20
260.361
 30
0.0
 40
0.705556
 41
0.705556
  0
VERTEX
  8
C00-00-00-BLACK
 10
163.1
 20
255.593
 30
0.0
 40
0.705556
 41
0.705556
  0
VERTEX
  8
C00-00-00-BLACK
 10
162.585
 20
251.752
 30
0.0
 40
0.705556
 41
0.705556
  0
VERTEX
  8
C00-00-00-BLACK
 10
162.585
 20
250.472
 30
0.0
 40
0.705556
 41
0.705556
  0
VERTEX
  8
C00-00-00-BLACK
 10
162.585
 20
249.193
 30
0.0
 40
0.705556
 41
0.705556
  0
VERTEX
  8
C00-00-00-BLACK
 10
163.1
 20
245.353
 30
0.0
 40
0.705556
 41
0.705556
  0
VERTEX
  8
C00-00-00-BLACK
 10
164.58
 20
240.585
 30
0.0
 40
0.705556
 41
0.705556
  0
VERTEX
  8
C00-00-00-BLACK
 10
166.922
 20
236.27
 30
0.0
 40
0.705556
 41
0.705556
  0
VERTEX
  8
C00-00-00-BLACK
 10
170.024
 20
232.512
 30
0.0
 40
0.705556
 41
0.705556
  0
VERTEX
  8
C00-00-00-BLACK
 10
173.782
 20
229.41
 30
0.0
 40
0.705556
 41
0.705556
  0
VERTEX
  8
C00-00-00-BLACK
 10
178.096
 20
227.069
 30
0.0
 40
0.705556
 41
0.705556
  0
VERTEX
  8
C00-00-00-BLACK
 10
182.864
 20
225.589
 30
0.0
 40
0.705556
 41
0.705556
  0
VERTEX
  8
C00-00-00-BLACK
 10
186.705
 20
225.072
 30
0.0
 40
0.705556
 41
0.705556
  0
VERTEX
  8
C00-00-00-BLACK
 10
187.985
 20
225.072
 30
0.0
 40
0.705556
 41
0.705556
  0
VERTEX
  8
C00-00-00-BLACK
 10
189.264
 20
225.072
 30
0.0
 40
0.705556
 41
0.705556
  0
VERTEX
  8
C00-00-00-BLACK
 10
193.105
 20
225.589
 30
0.0
 40
0.705556
 41
0.705556
  0
VERTEX
  8
C00-00-00-BLACK
 10
197.872
 20
227.069
 30
0.0
 40
0.705556
 41
0.705556
  0
VERTEX
  8
C00-00-00-BLACK
 10
202.187
 20
229.41
 30
0.0
 40
0.705556
 41
0.705556
  0
VERTEX
  8
C00-00-00-BLACK
 10
205.945
 20
232.512
 30
0.0
 40
0.705556
 41
0.705556
  0
VERTEX
  8
C00-00-00-BLACK
 10
209.047
 20
236.27
 30
0.0
 40
0.705556
 41
0.705556
  0
VERTEX
  8
C00-00-00-BLACK
 10
211.388
 20
240.585
 30
0.0
 40
0.705556
 41
0.705556
  0
VERTEX
  8
C00-00-00-BLACK
 10
212.868
 20
245.353
 30
0.0
 40
0.705556
 41
0.705556
  0
VERTEX
  8
C00-00-00-BLACK
 10
213.385
 20
249.193
 30
0.0
 40
0.705556
 41
0.705556
  0
VERTEX
  8
C00-00-00-BLACK
 10
213.385
 20
250.472
 30
0.0
 40
0.705556
 41
0.705556
  0
SEQEND
 8
0
  0
POLYLINE
  8
C00-00-00-BLACK
 66
     1
 10
0
 20
0
 30
0.0
 70
     1
 40
0
 41
0
  0
VERTEX
  8
C00-00-00-BLACK
 10
3.52778
 20
277.636
 30
0.0
 40
0
 41
0
  0
VERTEX
  8
C00-00-00-BLACK
 10
3.52778
 20
277.808
 30
0.0
 40
0
 41
0
  0
VERTEX
  8
C00-00-00-BLACK
 10
3.3886
 20
278.324
 30
0.0
 40
0
 41
0
  0
VERTEX
  8
C00-00-00-BLACK
 10
3.01101
 20
278.885
 30
0.0
 40
0
 41
0
  0
VERTEX
  8
C00-00-00-BLACK
 10
2.45015
 20
279.262
 30
0.0
 40
0
 41
0
  0
VERTEX
  8
C00-00-00-BLACK
 10
1.93477
 20
279.4
 30
0.0
 40
0
 41
0
  0
VERTEX
  8
C00-00-00-BLACK
 10
1.76389
 20
279.4
 30
0.0
 40
0
 41
0
  0
VERTEX
  8
C00-00-00-BLACK
 10
1.59163
 20
279.4
 30
0.0
 40
0
 41
0
  0
VERTEX
  8
C00-00-00-BLACK
 10
1.07625
 20
279.262
 30
0.0
 40
0
 41
0
  0
VERTEX
  8
C00-00-00-BLACK
 10
0.515387
 20
278.885
 30
0.0
 40
0
 41
0
  0
VERTEX
  8
C00-00-00-BLACK
 10
0.137804
 20
278.324
 30
0.0
 40
0
 41
0
  0
VERTEX
  8
C00-00-00-BLACK
 10
0
 20
277.808
 30
0.0
 40
0
 41
0
  0
VERTEX
  8
C00-00-00-BLACK
 10
0
 20
277.636
 30
0.0
 40
0
 41
0
  0
VERTEX
  8
C00-00-00-BLACK
 10
0
 20
277.465
 30
0.0
 40
0
 41
0
  0
VERTEX
  8
C00-00-00-BLACK
 10
0.137804
 20
276.95
 30
0.0
 40
0
 41
0
  0
VERTEX
  8
C00-00-00-BLACK
 10
0.515387
 20
276.389
 30
0.0
 40
0
 41
0
  0
VERTEX
  8
C00-00-00-BLACK
 10
1.07625
 20
276.012
 30
0.0
 40
0
 41
0
  0
VERTEX
  8
C00-00-00-BLACK
 10
1.59163
 20
275.872
 30
0.0
 40
0
 41
0
  0
VERTEX
  8
C00-00-00-BLACK
 10
1.76389
 20
275.872
 30
0.0
 40
0
 41
0
  0
VERTEX
  8
C00-00-00-BLACK
 10
1.93477
 20
275.872
 30
0.0
 40
0
 41
0
  0
VERTEX
  8
C00-00-00-BLACK
 10
2.45015
 20
276.012
 30
0.0
 40
0
 41
0
  0
VERTEX
  8
C00-00-00-BLACK
 10
3.01101
 20
276.389
 30
0.0
 40
0
 41
0
  0
VERTEX
  8
C00-00-00-BLACK
 10
3.3886
 20
276.95
 30
0.0
 40
0
 41
0
  0
VERTEX
  8
C00-00-00-BLACK
 10
3.52778
 20
277.465
 30
0.0
 40
0
 41
0
  0
VERTEX
  8
C00-00-00-BLACK
 10
3.52778
 20
277.636
 30
0.0
 40
0
 41
0
  0
SEQEND
 8
0
  0
POLYLINE
  8
C00-00-00-BLACK
 66
     1
 10
0
 20
0
 30
0.0
 70
     1
 40
0
 41
0
  0
VERTEX
  8
C00-00-00-BLACK
 10
215.9
 20
277.636
 30
0.0
 40
0
 41
0
  0
VERTEX
  8
C00-00-00-BLACK
 10
215.9
 20
277.808
 30
0.0
 40
0
 41
0
  0
VERTEX
  8
C00-00-00-BLACK
 10
215.761
 20
278.324
 30
0.0
 40
0
 41
0
  0
VERTEX
  8
C00-00-00-BLACK
 10
215.383
 20
278.885
 30
0.0
 40
0
 41
0
  0
VERTEX
  8
C00-00-00-BLACK
 10
214.822
 20
279.262
 30
0.0
 40
0
 41
0
  0
VERTEX
  8
C00-00-00-BLACK
 10
214.307
 20
279.4
 30
0.0
 40
0
 41
0
  0
VERTEX
  8
C00-00-00-BLACK
 10
214.136
 20
279.4
 30
0.0
 40
0
 41
0
  0
VERTEX
  8
C00-00-00-BLACK
 10
213.964
 20
279.4
 30
0.0
 40
0
 41
0
  0
VERTEX
  8
C00-00-00-BLACK
 10
213.449
 20
279.262
 30
0.0
 40
0
 41
0
  0
VERTEX
  8
C00-00-00-BLACK
 10
212.888
 20
278.885
 30
0.0
 40
0
 41
0
  0
VERTEX
  8
C00-00-00-BLACK
 10
212.51
 20
278.324
 30
0.0
 40
0
 41
0
  0
VERTEX
  8
C00-00-00-BLACK
 10
212.372
 20
277.808
 30
0.0
 40
0
 41
0
  0
VERTEX
  8
C00-00-00-BLACK
 10
212.372
 20
277.636
 30
0.0
 40
0
 41
0
  0
VERTEX
  8
C00-00-00-BLACK
 10
212.372
 20
277.465
 30
0.0
 40
0
 41
0
  0
VERTEX
  8
C00-00-00-BLACK
 10
212.51
 20
276.95
 30
0.0
 40
0
 41
0
  0
VERTEX
  8
C00-00-00-BLACK
 10
212.888
 20
276.389
 30
0.0
 40
0
 41
0
  0
VERTEX
  8
C00-00-00-BLACK
 10
213.449
 20
276.012
 30
0.0
 40
0
 41
0
  0
VERTEX
  8
C00-00-00-BLACK
 10
213.964
 20
275.872
 30
0.0
 40
0
 41
0
  0
VERTEX
  8
C00-00-00-BLACK
 10
214.136
 20
275.872
 30
0.0
 40
0
 41
0
  0
VERTEX
  8
C00-00-00-BLACK
 10
214.307
 20
275.872
 30
0.0
 40
0
 41
0
  0
VERTEX
  8
C00-00-00-BLACK
 10
214.822
 20
276.012
 30
0.0
 40
0
 41
0
  0
VERTEX
  8
C00-00-00-BLACK
 10
215.383
 20
276.389
 30
0.0
 40
0
 41
0
  0
VERTEX
  8
C00-00-00-BLACK
 10
215.761
 20
276.95
 30
0.0
 40
0
 41
0
  0
VERTEX
  8
C00-00-00-BLACK
 10
215.9
 20
277.465
 30
0.0
 40
0
 41
0
  0
VERTEX
  8
C00-00-00-BLACK
 10
215.9
 20
277.636
 30
0.0
 40
0
 41
0
  0
SEQEND
 8
0
  0
POLYLINE
  8
C00-00-00-BLACK
 66
     1
 10
0
 20
0
 30
0.0
 70
     1
 40
0
 41
0
  0
VERTEX
  8
C00-00-00-BLACK
 10
3.52778
 20
1.76389
 30
0.0
 40
0
 41
0
  0
VERTEX
  8
C00-00-00-BLACK
 10
3.52778
 20
1.93614
 30
0.0
 40
0
 41
0
  0
VERTEX
  8
C00-00-00-BLACK
 10
3.3886
 20
2.45153
 30
0.0
 40
0
 41
0
  0
VERTEX
  8
C00-00-00-BLACK
 10
3.01101
 20
3.01239
 30
0.0
 40
0
 41
0
  0
VERTEX
  8
C00-00-00-BLACK
 10
2.45015
 20
3.38998
 30
0.0
 40
0
 41
0
  0
VERTEX
  8
C00-00-00-BLACK
 10
1.93477
 20
3.52778
 30
0.0
 40
0
 41
0
  0
VERTEX
  8
C00-00-00-BLACK
 10
1.76389
 20
3.52778
 30
0.0
 40
0
 41
0
  0
VERTEX
  8
C00-00-00-BLACK
 10
1.59163
 20
3.52778
 30
0.0
 40
0
 41
0
  0
VERTEX
  8
C00-00-00-BLACK
 10
1.07625
 20
3.38998
 30
0.0
 40
0
 41
0
  0
VERTEX
  8
C00-00-00-BLACK
 10
0.515387
 20
3.01239
 30
0.0
 40
0
 41
0
  0
VERTEX
  8
C00-00-00-BLACK
 10
0.137804
 20
2.45153
 30
0.0
 40
0
 41
0
  0
VERTEX
  8
C00-00-00-BLACK
 10
0
 20
1.93614
 30
0.0
 40
0
 41
0
  0
VERTEX
  8
C00-00-00-BLACK
 10
0
 20
1.76389
 30
0.0
 40
0
 41
0
  0
VERTEX
  8
C00-00-00-BLACK
 10
0
 20
1.59301
 30
0.0
 40
0
 41
0
  0
VERTEX
  8
C00-00-00-BLACK
 10
0.137804
 20
1.07763
 30
0.0
 40
0
 41
0
  0
VERTEX
  8
C00-00-00-BLACK
 10
0.515387
 20
0.516763
 30
0.0
 40
0
 41
0
  0
VERTEX
  8
C00-00-00-BLACK
 10
1.07625
 20
0.139182
 30
0.0
 40
0
 41
0
  0
VERTEX
  8
C00-00-00-BLACK
 10
1.59163
 20
0
 30
0.0
 40
0
 41
0
  0
VERTEX
  8
C00-00-00-BLACK
 10
1.76389
 20
0
 30
0.0
 40
0
 41
0
  0
VERTEX
  8
C00-00-00-BLACK
 10
1.93477
 20
0
 30
0.0
 40
0
 41
0
  0
VERTEX
  8
C00-00-00-BLACK
 10
2.45015
 20
0.139182
 30
0.0
 40
0
 41
0
  0
VERTEX
  8
C00-00-00-BLACK
 10
3.01101
 20
0.516763
 30
0.0
 40
0
 41
0
  0
VERTEX
  8
C00-00-00-BLACK
 10
3.3886
 20
1.07763
 30
0.0
 40
0
 41
0
  0
VERTEX
  8
C00-00-00-BLACK
 10
3.52778
 20
1.59301
 30
0.0
 40
0
 41
0
  0
VERTEX
  8
C00-00-00-BLACK
 10
3.52778
 20
1.76389
 30
0.0
 40
0
 41
0
  0
SEQEND
 8
0
  0
POLYLINE
  8
C00-00-00-BLACK
 66
     1
 10
0
 20
0
 30
0.0
 70
     1
 40
0
 41
0
  0
VERTEX
  8
C00-00-00-BLACK
 10
215.9
 20
1.76389
 30
0.0
 40
0
 41
0
  0
VERTEX
  8
C00-00-00-BLACK
 10
215.9
 20
1.93614
 30
0.0
 40
0
 41
0
  0
VERTEX
  8
C00-00-00-BLACK
 10
215.761
 20
2.45153
 30
0.0
 40
0
 41
0
  0
VERTEX
  8
C00-00-00-BLACK
 10
215.383
 20
3.01239
 30
0.0
 40
0
 41
0
  0
VERTEX
  8
C00-00-00-BLACK
 10
214.822
 20
3.38998
 30
0.0
 40
0
 41
0
  0
VERTEX
  8
C00-00-00-BLACK
 10
214.307
 20
3.52778
 30
0.0
 40
0
 41
0
  0
VERTEX
  8
C00-00-00-BLACK
 10
214.136
 20
3.52778
 30
0.0
 40
0
 41
0
  0
VERTEX
  8
C00-00-00-BLACK
 10
213.964
 20
3.52778
 30
0.0
 40
0
 41
0
  0
VERTEX
  8
C00-00-00-BLACK
 10
213.449
 20
3.38998
 30
0.0
 40
0
 41
0
  0
VERTEX
  8
C00-00-00-BLACK
 10
212.888
 20
3.01239
 30
0.0
 40
0
 41
0
  0
VERTEX
  8
C00-00-00-BLACK
 10
212.51
 20
2.45153
 30
0.0
 40
0
 41
0
  0
VERTEX
  8
C00-00-00-BLACK
 10
212.372
 20
1.93614
 30
0.0
 40
0
 41
0
  0
VERTEX
  8
C00-00-00-BLACK
 10
212.372
 20
1.76389
 30
0.0
 40
0
 41
0
  0
VERTEX
  8
C00-00-00-BLACK
 10
212.372
 20
1.59301
 30
0.0
 40
0
 41
0
  0
VERTEX
  8
C00-00-00-BLACK
 10
212.51
 20
1.07763
 30
0.0
 40
0
 41
0
  0
VERTEX
  8
C00-00-00-BLACK
 10
212.888
 20
0.516763
 30
0.0
 40
0
 41
0
  0
VERTEX
  8
C00-00-00-BLACK
 10
213.449
 20
0.139182
 30
0.0
 40
0
 41
0
  0
VERTEX
  8
C00-00-00-BLACK
 10
213.964
 20
0
 30
0.0
 40
0
 41
0
  0
VERTEX
  8
C00-00-00-BLACK
 10
214.136
 20
0
 30
0.0
 40
0
 41
0
  0
VERTEX
  8
C00-00-00-BLACK
 10
214.307
 20
0
 30
0.0
 40
0
 41
0
  0
VERTEX
  8
C00-00-00-BLACK
 10
214.822
 20
0.139182
 30
0.0
 40
0
 41
0
  0
VERTEX
  8
C00-00-00-BLACK
 10
215.383
 20
0.516763
 30
0.0
 40
0
 41
0
  0
VERTEX
  8
C00-00-00-BLACK
 10
215.761
 20
1.07763
 30
0.0
 40
0
 41
0
  0
VERTEX
  8
C00-00-00-BLACK
 10
215.9
 20
1.59301
 30
0.0
 40
0
 41
0
  0
VERTEX
  8
C00-00-00-BLACK
 10
215.9
 20
1.76389
 30
0.0
 40
0
 41
0
  0
SEQEND
 8
0
  0
POLYLINE
  8
C00-00-00-BLACK
 66
     1
 10
0
 20
0
 30
0.0
 70
     1
 40
2
 41
2
  0
VERTEX
  8
C00-00-00-BLACK
 10
53.315
 20
199.672
 30
0.0
 40
0.705556
 41
0.705556
  0
VERTEX
  8
C00-00-00-BLACK
 10
53.315
 20
200.952
 30
0.0
 40
0.705556
 41
0.705556
  0
VERTEX
  8
C00-00-00-BLACK
 10
52.7981
 20
204.793
 30
0.0
 40
0.705556
 41
0.705556
  0
VERTEX
  8
C00-00-00-BLACK
 10
51.3182
 20
209.561
 30
0.0
 40
0.705556
 41
0.705556
  0
VERTEX
  8
C00-00-00-BLACK
 10
48.9768
 20
213.876
 30
0.0
 40
0.705556
 41
0.705556
  0
VERTEX
  8
C00-00-00-BLACK
 10
45.8749
 20
217.634
 30
0.0
 40
0.705556
 41
0.705556
  0
VERTEX
  8
C00-00-00-BLACK
 10
42.1171
 20
220.736
 30
0.0
 40
0.705556
 41
0.705556
  0
VERTEX
  8
C00-00-00-BLACK
 10
37.8023
 20
223.077
 30
0.0
 40
0.705556
 41
0.705556
  0
VERTEX
  8
C00-00-00-BLACK
 10
33.0343
 20
224.557
 30
0.0
 40
0.705556
 41
0.705556
  0
VERTEX
  8
C00-00-00-BLACK
 10
29.1937
 20
225.072
 30
0.0
 40
0.705556
 41
0.705556
  0
VERTEX
  8
C00-00-00-BLACK
 10
27.9149
 20
225.072
 30
0.0
 40
0.705556
 41
0.705556
  0
VERTEX
  8
C00-00-00-BLACK
 10
26.6347
 20
225.072
 30
0.0
 40
0.705556
 41
0.705556
  0
VERTEX
  8
C00-00-00-BLACK
 10
22.7941
 20
224.557
 30
0.0
 40
0.705556
 41
0.705556
  0
VERTEX
  8
C00-00-00-BLACK
 10
18.0261
 20
223.077
 30
0.0
 40
0.705556
 41
0.705556
  0
VERTEX
  8
C00-00-00-BLACK
 10
13.7115
 20
220.736
 30
0.0
 40
0.705556
 41
0.705556
  0
VERTEX
  8
C00-00-00-BLACK
 10
9.95355
 20
217.634
 30
0.0
 40
0.705556
 41
0.705556
  0
VERTEX
  8
C00-00-00-BLACK
 10
6.85161
 20
213.876
 30
0.0
 40
0.705556
 41
0.705556
  0
VERTEX
  8
C00-00-00-BLACK
 10
4.51033
 20
209.561
 30
0.0
 40
0.705556
 41
0.705556
  0
VERTEX
  8
C00-00-00-BLACK
 10
3.0303
 20
204.793
 30
0.0
 40
0.705556
 41
0.705556
  0
VERTEX
  8
C00-00-00-BLACK
 10
2.51492
 20
200.952
 30
0.0
 40
0.705556
 41
0.705556
  0
VERTEX
  8
C00-00-00-BLACK
 10
2.51492
 20
199.672
 30
0.0
 40
0.705556
 41
0.705556
  0
VERTEX
  8
C00-00-00-BLACK
 10
2.51492
 20
198.393
 30
0.0
 40
0.705556
 41
0.705556
  0
VERTEX
  8
C00-00-00-BLACK
 10
3.0303
 20
194.553
 30
0.0
 40
0.705556
 41
0.705556
  0
VERTEX
  8
C00-00-00-BLACK
 10
4.51033
 20
189.785
 30
0.0
 40
0.705556
 41
0.705556
  0
VERTEX
  8
C00-00-00-BLACK
 10
6.85161
 20
185.47
 30
0.0
 40
0.705556
 41
0.705556
  0
VERTEX
  8
C00-00-00-BLACK
 10
9.95355
 20
181.712
 30
0.0
 40
0.705556
 41
0.705556
  0
VERTEX
  8
C00-00-00-BLACK
 10
13.7115
 20
178.61
 30
0.0
 40
0.705556
 41
0.705556
  0
VERTEX
  8
C00-00-00-BLACK
 10
18.0261
 20
176.269
 30
0.0
 40
0.705556
 41
0.705556
  0
VERTEX
  8
C00-00-00-BLACK
 10
22.7941
 20
174.789
 30
0.0
 40
0.705556
 41
0.705556
  0
VERTEX
  8
C00-00-00-BLACK
 10
26.6347
 20
174.272
 30
0.0
 40
0.705556
 41
0.705556
  0
VERTEX
  8
C00-00-00-BLACK
 10
27.9149
 20
174.272
 30
0.0
 40
0.705556
 41
0.705556
  0
VERTEX
  8
C00-00-00-BLACK
 10
29.1937
 20
174.272
 30
0.0
 40
0.705556
 41
0.705556
  0
VERTEX
  8
C00-00-00-BLACK
 10
33.0343
 20
174.789
 30
0.0
 40
0.705556
 41
0.705556
  0
VERTEX
  8
C00-00-00-BLACK
 10
37.8023
 20
176.269
 30
0.0
 40
0.705556
 41
0.705556
  0
VERTEX
  8
C00-00-00-BLACK
 10
42.1171
 20
178.61
 30
0.0
 40
0.705556
 41
0.705556
  0
VERTEX
  8
C00-00-00-BLACK
 10
45.8749
 20
181.712
 30
0.0
 40
0.705556
 41
0.705556
  0
VERTEX
  8
C00-00-00-BLACK
 10
48.9768
 20
185.47
 30
0.0
 40
0.705556
 41
0.705556
  0
VERTEX
  8
C00-00-00-BLACK
 10
51.3182
 20
189.785
 30
0.0
 40
0.705556
 41
0.705556
  0
VERTEX
  8
C00-00-00-BLACK
 10
52.7981
 20
194.553
 30
0.0
 40
0.705556
 41
0.705556
  0
VERTEX
  8
C00-00-00-BLACK
 10
53.315
 20
198.393
 30
0.0
 40
0.705556
 41
0.705556
  0
VERTEX
  8
C00-00-00-BLACK
 10
53.315
 20
199.672
 30
0.0
 40
0.705556
 41
0.705556
  0
SEQEND
 8
0
  0
POLYLINE
  8
C00-00-00-BLACK
 66
     1
 10
0
 20
0
 30
0.0
 70
     1
 40
2
 41
2
  0
VERTEX
  8
C00-00-00-BLACK
 10
106.673
 20
199.672
 30
0.0
 40
0.705556
 41
0.705556
  0
VERTEX
  8
C00-00-00-BLACK
 10
106.673
 20
200.952
 30
0.0
 40
0.705556
 41
0.705556
  0
VERTEX
  8
C00-00-00-BLACK
 10
106.156
 20
204.793
 30
0.0
 40
0.705556
 41
0.705556
  0
VERTEX
  8
C00-00-00-BLACK
 10
104.676
 20
209.561
 30
0.0
 40
0.705556
 41
0.705556
  0
VERTEX
  8
C00-00-00-BLACK
 10
102.334
 20
213.876
 30
0.0
 40
0.705556
 41
0.705556
  0
VERTEX
  8
C00-00-00-BLACK
 10
99.2325
 20
217.634
 30
0.0
 40
0.705556
 41
0.705556
  0
VERTEX
  8
C00-00-00-BLACK
 10
95.4747
 20
220.736
 30
0.0
 40
0.705556
 41
0.705556
  0
VERTEX
  8
C00-00-00-BLACK
 10
91.1599
 20
223.077
 30
0.0
 40
0.705556
 41
0.705556
  0
VERTEX
  8
C00-00-00-BLACK
 10
86.3921
 20
224.557
 30
0.0
 40
0.705556
 41
0.705556
  0
VERTEX
  8
C00-00-00-BLACK
 10
82.5514
 20
225.072
 30
0.0
 40
0.705556
 41
0.705556
  0
VERTEX
  8
C00-00-00-BLACK
 10
81.2726
 20
225.072
 30
0.0
 40
0.705556
 41
0.705556
  0
VERTEX
  8
C00-00-00-BLACK
 10
79.9924
 20
225.072
 30
0.0
 40
0.705556
 41
0.705556
  0
VERTEX
  8
C00-00-00-BLACK
 10
76.1517
 20
224.557
 30
0.0
 40
0.705556
 41
0.705556
  0
VERTEX
  8
C00-00-00-BLACK
 10
71.3839
 20
223.077
 30
0.0
 40
0.705556
 41
0.705556
  0
VERTEX
  8
C00-00-00-BLACK
 10
67.0691
 20
220.736
 30
0.0
 40
0.705556
 41
0.705556
  0
VERTEX
  8
C00-00-00-BLACK
 10
63.3113
 20
217.634
 30
0.0
 40
0.705556
 41
0.705556
  0
VERTEX
  8
C00-00-00-BLACK
 10
60.2093
 20
213.876
 30
0.0
 40
0.705556
 41
0.705556
  0
VERTEX
  8
C00-00-00-BLACK
 10
57.8679
 20
209.561
 30
0.0
 40
0.705556
 41
0.705556
  0
VERTEX
  8
C00-00-00-BLACK
 10
56.388
 20
204.793
 30
0.0
 40
0.705556
 41
0.705556
  0
VERTEX
  8
C00-00-00-BLACK
 10
55.8726
 20
200.952
 30
0.0
 40
0.705556
 41
0.705556
  0
VERTEX
  8
C00-00-00-BLACK
 10
55.8726
 20
199.672
 30
0.0
 40
0.705556
 41
0.705556
  0
VERTEX
  8
C00-00-00-BLACK
 10
55.8726
 20
198.393
 30
0.0
 40
0.705556
 41
0.705556
  0
VERTEX
  8
C00-00-00-BLACK
 10
56.388
 20
194.553
 30
0.0
 40
0.705556
 41
0.705556
  0
VERTEX
  8
C00-00-00-BLACK
 10
57.8679
 20
189.785
 30
0.0
 40
0.705556
 41
0.705556
  0
VERTEX
  8
C00-00-00-BLACK
 10
60.2093
 20
185.47
 30
0.0
 40
0.705556
 41
0.705556
  0
VERTEX
  8
C00-00-00-BLACK
 10
63.3113
 20
181.712
 30
0.0
 40
0.705556
 41
0.705556
  0
VERTEX
  8
C00-00-00-BLACK
 10
67.0691
 20
178.61
 30
0.0
 40
0.705556
 41
0.705556
  0
VERTEX
  8
C00-00-00-BLACK
 10
71.3839
 20
176.269
 30
0.0
 40
0.705556
 41
0.705556
  0
VERTEX
  8
C00-00-00-BLACK
 10
76.1517
 20
174.789
 30
0.0
 40
0.705556
 41
0.705556
  0
VERTEX
  8
C00-00-00-BLACK
 10
79.9924
 20
174.272
 30
0.0
 40
0.705556
 41
0.705556
  0
VERTEX
  8
C00-00-00-BLACK
 10
81.2726
 20
174.272
 30
0.0
 40
0.705556
 41
0.705556
  0
VERTEX
  8
C00-00-00-BLACK
 10
82.5514
 20
174.272
 30
0.0
 40
0.705556
 41
0.705556
  0
VERTEX
  8
C00-00-00-BLACK
 10
86.3921
 20
174.789
 30
0.0
 40
0.705556
 41
0.705556
  0
VERTEX
  8
C00-00-00-BLACK
 10
91.1599
 20
176.269
 30
0.0
 40
0.705556
 41
0.705556
  0
VERTEX
  8
C00-00-00-BLACK
 10
95.4747
 20
178.61
 30
0.0
 40
0.705556
 41
0.705556
  0
VERTEX
  8
C00-00-00-BLACK
 10
99.2325
 20
181.712
 30
0.0
 40
0.705556
 41
0.705556
  0
VERTEX
  8
C00-00-00-BLACK
 10
102.334
 20
185.47
 30
0.0
 40
0.705556
 41
0.705556
  0
VERTEX
  8
C00-00-00-BLACK
 10
104.676
 20
189.785
 30
0.0
 40
0.705556
 41
0.705556
  0
VERTEX
  8
C00-00-00-BLACK
 10
106.156
 20
194.553
 30
0.0
 40
0.705556
 41
0.705556
  0
VERTEX
  8
C00-00-00-BLACK
 10
106.673
 20
198.393
 30
0.0
 40
0.705556
 41
0.705556
  0
VERTEX
  8
C00-00-00-BLACK
 10
106.673
 20
199.672
 30
0.0
 40
0.705556
 41
0.705556
  0
SEQEND
 8
0
  0
POLYLINE
  8
C00-00-00-BLACK
 66
     1
 10
0
 20
0
 30
0.0
 70
     1
 40
2
 41
2
  0
VERTEX
  8
C00-00-00-BLACK
 10
160.027
 20
199.672
 30
0.0
 40
0.705556
 41
0.705556
  0
VERTEX
  8
C00-00-00-BLACK
 10
160.027
 20
200.952
 30
0.0
 40
0.705556
 41
0.705556
  0
VERTEX
  8
C00-00-00-BLACK
 10
159.511
 20
204.793
 30
0.0
 40
0.705556
 41
0.705556
  0
VERTEX
  8
C00-00-00-BLACK
 10
158.031
 20
209.561
 30
0.0
 40
0.705556
 41
0.705556
  0
VERTEX
  8
C00-00-00-BLACK
 10
155.689
 20
213.876
 30
0.0
 40
0.705556
 41
0.705556
  0
VERTEX
  8
C00-00-00-BLACK
 10
152.587
 20
217.634
 30
0.0
 40
0.705556
 41
0.705556
  0
VERTEX
  8
C00-00-00-BLACK
 10
148.83
 20
220.736
 30
0.0
 40
0.705556
 41
0.705556
  0
VERTEX
  8
C00-00-00-BLACK
 10
144.515
 20
223.077
 30
0.0
 40
0.705556
 41
0.705556
  0
VERTEX
  8
C00-00-00-BLACK
 10
139.747
 20
224.557
 30
0.0
 40
0.705556
 41
0.705556
  0
VERTEX
  8
C00-00-00-BLACK
 10
135.906
 20
225.072
 30
0.0
 40
0.705556
 41
0.705556
  0
VERTEX
  8
C00-00-00-BLACK
 10
134.627
 20
225.072
 30
0.0
 40
0.705556
 41
0.705556
  0
VERTEX
  8
C00-00-00-BLACK
 10
133.347
 20
225.072
 30
0.0
 40
0.705556
 41
0.705556
  0
VERTEX
  8
C00-00-00-BLACK
 10
129.506
 20
224.557
 30
0.0
 40
0.705556
 41
0.705556
  0
VERTEX
  8
C00-00-00-BLACK
 10
124.739
 20
223.077
 30
0.0
 40
0.705556
 41
0.705556
  0
VERTEX
  8
C00-00-00-BLACK
 10
120.424
 20
220.736
 30
0.0
 40
0.705556
 41
0.705556
  0
VERTEX
  8
C00-00-00-BLACK
 10
116.666
 20
217.634
 30
0.0
 40
0.705556
 41
0.705556
  0
VERTEX
  8
C00-00-00-BLACK
 10
113.564
 20
213.876
 30
0.0
 40
0.705556
 41
0.705556
  0
VERTEX
  8
C00-00-00-BLACK
 10
111.223
 20
209.561
 30
0.0
 40
0.705556
 41
0.705556
  0
VERTEX
  8
C00-00-00-BLACK
 10
109.743
 20
204.793
 30
0.0
 40
0.705556
 41
0.705556
  0
VERTEX
  8
C00-00-00-BLACK
 10
109.227
 20
200.952
 30
0.0
 40
0.705556
 41
0.705556
  0
VERTEX
  8
C00-00-00-BLACK
 10
109.227
 20
199.672
 30
0.0
 40
0.705556
 41
0.705556
  0
VERTEX
  8
C00-00-00-BLACK
 10
109.227
 20
198.393
 30
0.0
 40
0.705556
 41
0.705556
  0
VERTEX
  8
C00-00-00-BLACK
 10
109.743
 20
194.553
 30
0.0
 40
0.705556
 41
0.705556
  0
VERTEX
  8
C00-00-00-BLACK
 10
111.223
 20
189.785
 30
0.0
 40
0.705556
 41
0.705556
  0
VERTEX
  8
C00-00-00-BLACK
 10
113.564
 20
185.47
 30
0.0
 40
0.705556
 41
0.705556
  0
VERTEX
  8
C00-00-00-BLACK
 10
116.666
 20
181.712
 30
0.0
 40
0.705556
 41
0.705556
  0
VERTEX
  8
C00-00-00-BLACK
 10
120.424
 20
178.61
 30
0.0
 40
0.705556
 41
0.705556
  0
VERTEX
  8
C00-00-00-BLACK
 10
124.739
 20
176.269
 30
0.0
 40
0.705556
 41
0.705556
  0
VERTEX
  8
C00-00-00-BLACK
 10
129.506
 20
174.789
 30
0.0
 40
0.705556
 41
0.705556
  0
VERTEX
  8
C00-00-00-BLACK
 10
133.347
 20
174.272
 30
0.0
 40
0.705556
 41
0.705556
  0
VERTEX
  8
C00-00-00-BLACK
 10
134.627
 20
174.272
 30
0.0
 40
0.705556
 41
0.705556
  0
VERTEX
  8
C00-00-00-BLACK
 10
135.906
 20
174.272
 30
0.0
 40
0.705556
 41
0.705556
  0
VERTEX
  8
C00-00-00-BLACK
 10
139.747
 20
174.789
 30
0.0
 40
0.705556
 41
0.705556
  0
VERTEX
  8
C00-00-00-BLACK
 10
144.515
 20
176.269
 30
0.0
 40
0.705556
 41
0.705556
  0
VERTEX
  8
C00-00-00-BLACK
 10
148.83
 20
178.61
 30
0.0
 40
0.705556
 41
0.705556
  0
VERTEX
  8
C00-00-00-BLACK
 10
152.587
 20
181.712
 30
0.0
 40
0.705556
 41
0.705556
  0
VERTEX
  8
C00-00-00-BLACK
 10
155.689
 20
185.47
 30
0.0
 40
0.705556
 41
0.705556
  0
VERTEX
  8
C00-00-00-BLACK
 10
158.031
 20
189.785
 30
0.0
 40
0.705556
 41
0.705556
  0
VERTEX
  8
C00-00-00-BLACK
 10
159.511
 20
194.553
 30
0.0
 40
0.705556
 41
0.705556
  0
VERTEX
  8
C00-00-00-BLACK
 10
160.027
 20
198.393
 30
0.0
 40
0.705556
 41
0.705556
  0
VERTEX
  8
C00-00-00-BLACK
 10
160.027
 20
199.672
 30
0.0
 40
0.705556
 41
0.705556
  0
SEQEND
 8
0
  0
POLYLINE
  8
C00-00-00-BLACK
 66
     1
 10
0
 20
0
 30
0.0
 70
     1
 40
2
 41
2
  0
VERTEX
  8
C00-00-00-BLACK
 10
213.385
 20
199.672
 30
0.0
 40
0.705556
 41
0.705556
  0
VERTEX
  8
C00-00-00-BLACK
 10
213.385
 20
200.952
 30
0.0
 40
0.705556
 41
0.705556
  0
VERTEX
  8
C00-00-00-BLACK
 10
212.868
 20
204.793
 30
0.0
 40
0.705556
 41
0.705556
  0
VERTEX
  8
C00-00-00-BLACK
 10
211.388
 20
209.561
 30
0.0
 40
0.705556
 41
0.705556
  0
VERTEX
  8
C00-00-00-BLACK
 10
209.047
 20
213.876
 30
0.0
 40
0.705556
 41
0.705556
  0
VERTEX
  8
C00-00-00-BLACK
 10
205.945
 20
217.634
 30
0.0
 40
0.705556
 41
0.705556
  0
VERTEX
  8
C00-00-00-BLACK
 10
202.187
 20
220.736
 30
0.0
 40
0.705556
 41
0.705556
  0
VERTEX
  8
C00-00-00-BLACK
 10
197.872
 20
223.077
 30
0.0
 40
0.705556
 41
0.705556
  0
VERTEX
  8
C00-00-00-BLACK
 10
193.105
 20
224.557
 30
0.0
 40
0.705556
 41
0.705556
  0
VERTEX
  8
C00-00-00-BLACK
 10
189.264
 20
225.072
 30
0.0
 40
0.705556
 41
0.705556
  0
VERTEX
  8
C00-00-00-BLACK
 10
187.985
 20
225.072
 30
0.0
 40
0.705556
 41
0.705556
  0
VERTEX
  8
C00-00-00-BLACK
 10
186.705
 20
225.072
 30
0.0
 40
0.705556
 41
0.705556
  0
VERTEX
  8
C00-00-00-BLACK
 10
182.864
 20
224.557
 30
0.0
 40
0.705556
 41
0.705556
  0
VERTEX
  8
C00-00-00-BLACK
 10
178.096
 20
223.077
 30
0.0
 40
0.705556
 41
0.705556
  0
VERTEX
  8
C00-00-00-BLACK
 10
173.782
 20
220.736
 30
0.0
 40
0.705556
 41
0.705556
  0
VERTEX
  8
C00-00-00-BLACK
 10
170.024
 20
217.634
 30
0.0
 40
0.705556
 41
0.705556
  0
VERTEX
  8
C00-00-00-BLACK
 10
166.922
 20
213.876
 30
0.0
 40
0.705556
 41
0.705556
  0
VERTEX
  8
C00-00-00-BLACK
 10
164.58
 20
209.561
 30
0.0
 40
0.705556
 41
0.705556
  0
VERTEX
  8
C00-00-00-BLACK
 10
163.1
 20
204.793
 30
0.0
 40
0.705556
 41
0.705556
  0
VERTEX
  8
C00-00-00-BLACK
 10
162.585
 20
200.952
 30
0.0
 40
0.705556
 41
0.705556
  0
VERTEX
  8
C00-00-00-BLACK
 10
162.585
 20
199.672
 30
0.0
 40
0.705556
 41
0.705556
  0
VERTEX
  8
C00-00-00-BLACK
 10
162.585
 20
198.393
 30
0.0
 40
0.705556
 41
0.705556
  0
VERTEX
  8
C00-00-00-BLACK
 10
163.1
 20
194.553
 30
0.0
 40
0.705556
 41
0.705556
  0
VERTEX
  8
C00-00-00-BLACK
 10
164.58
 20
189.785
 30
0.0
 40
0.705556
 41
0.705556
  0
VERTEX
  8
C00-00-00-BLACK
 10
166.922
 20
185.47
 30
0.0
 40
0.705556
 41
0.705556
  0
VERTEX
  8
C00-00-00-BLACK
 10
170.024
 20
181.712
 30
0.0
 40
0.705556
 41
0.705556
  0
VERTEX
  8
C00-00-00-BLACK
 10
173.782
 20
178.61
 30
0.0
 40
0.705556
 41
0.705556
  0
VERTEX
  8
C00-00-00-BLACK
 10
178.096
 20
176.269
 30
0.0
 40
0.705556
 41
0.705556
  0
VERTEX
  8
C00-00-00-BLACK
 10
182.864
 20
174.789
 30
0.0
 40
0.705556
 41
0.705556
  0
VERTEX
  8
C00-00-00-BLACK
 10
186.705
 20
174.272
 30
0.0
 40
0.705556
 41
0.705556
  0
VERTEX
  8
C00-00-00-BLACK
 10
187.985
 20
174.272
 30
0.0
 40
0.705556
 41
0.705556
  0
VERTEX
  8
C00-00-00-BLACK
 10
189.264
 20
174.272
 30
0.0
 40
0.705556
 41
0.705556
  0
VERTEX
  8
C00-00-00-BLACK
 10
193.105
 20
174.789
 30
0.0
 40
0.705556
 41
0.705556
  0
VERTEX
  8
C00-00-00-BLACK
 10
197.872
 20
176.269
 30
0.0
 40
0.705556
 41
0.705556
  0
VERTEX
  8
C00-00-00-BLACK
 10
202.187
 20
178.61
 30
0.0
 40
0.705556
 41
0.705556
  0
VERTEX
  8
C00-00-00-BLACK
 10
205.945
 20
181.712
 30
0.0
 40
0.705556
 41
0.705556
  0
VERTEX
  8
C00-00-00-BLACK
 10
209.047
 20
185.47
 30
0.0
 40
0.705556
 41
0.705556
  0
VERTEX
  8
C00-00-00-BLACK
 10
211.388
 20
189.785
 30
0.0
 40
0.705556
 41
0.705556
  0
VERTEX
  8
C00-00-00-BLACK
 10
212.868
 20
194.553
 30
0.0
 40
0.705556
 41
0.705556
  0
VERTEX
  8
C00-00-00-BLACK
 10
213.385
 20
198.393
 30
0.0
 40
0.705556
 41
0.705556
  0
VERTEX
  8
C00-00-00-BLACK
 10
213.385
 20
199.672
 30
0.0
 40
0.705556
 41
0.705556
  0
SEQEND
 8
0
  0
POLYLINE
  8
C00-00-00-BLACK
 66
     1
 10
0
 20
0
 30
0.0
 70
     1
 40
0
 41
0
  0
VERTEX
  8
C00-00-00-BLACK
 10
3.52778
 20
277.636
 30
0.0
 40
0
 41
0
  0
VERTEX
  8
C00-00-00-BLACK
 10
3.52778
 20
277.808
 30
0.0
 40
0
 41
0
  0
VERTEX
  8
C00-00-00-BLACK
 10
3.3886
 20
278.324
 30
0.0
 40
0
 41
0
  0
VERTEX
  8
C00-00-00-BLACK
 10
3.01101
 20
278.885
 30
0.0
 40
0
 41
0
  0
VERTEX
  8
C00-00-00-BLACK
 10
2.45015
 20
279.262
 30
0.0
 40
0
 41
0
  0
VERTEX
  8
C00-00-00-BLACK
 10
1.93477
 20
279.4
 30
0.0
 40
0
 41
0
  0
VERTEX
  8
C00-00-00-BLACK
 10
1.76389
 20
279.4
 30
0.0
 40
0
 41
0
  0
VERTEX
  8
C00-00-00-BLACK
 10
1.59163
 20
279.4
 30
0.0
 40
0
 41
0
  0
VERTEX
  8
C00-00-00-BLACK
 10
1.07625
 20
279.262
 30
0.0
 40
0
 41
0
  0
VERTEX
  8
C00-00-00-BLACK
 10
0.515387
 20
278.885
 30
0.0
 40
0
 41
0
  0
VERTEX
  8
C00-00-00-BLACK
 10
0.137804
 20
278.324
 30
0.0
 40
0
 41
0
  0
VERTEX
  8
C00-00-00-BLACK
 10
0
 20
277.808
 30
0.0
 40
0
 41
0
  0
VERTEX
  8
C00-00-00-BLACK
 10
0
 20
277.636
 30
0.0
 40
0
 41
0
  0
VERTEX
  8
C00-00-00-BLACK
 10
0
 20
277.465
 30
0.0
 40
0
 41
0
  0
VERTEX
  8
C00-00-00-BLACK
 10
0.137804
 20
276.95
 30
0.0
 40
0
 41
0
  0
VERTEX
  8
C00-00-00-BLACK
 10
0.515387
 20
276.389
 30
0.0
 40
0
 41
0
  0
VERTEX
  8
C00-00-00-BLACK
 10
1.07625
 20
276.012
 30
0.0
 40
0
 41
0
  0
VERTEX
  8
C00-00-00-BLACK
 10
1.59163
 20
275.872
 30
0.0
 40
0
 41
0
  0
VERTEX
  8
C00-00-00-BLACK
 10
1.76389
 20
275.872
 30
0.0
 40
0
 41
0
  0
VERTEX
  8
C00-00-00-BLACK
 10
1.93477
 20
275.872
 30
0.0
 40
0
 41
0
  0
VERTEX
  8
C00-00-00-BLACK
 10
2.45015
 20
276.012
 30
0.0
 40
0
 41
0
  0
VERTEX
  8
C00-00-00-BLACK
 10
3.01101
 20
276.389
 30
0.0
 40
0
 41
0
  0
VERTEX
  8
C00-00-00-BLACK
 10
3.3886
 20
276.95
 30
0.0
 40
0
 41
0
  0
VERTEX
  8
C00-00-00-BLACK
 10
3.52778
 20
277.465
 30
0.0
 40
0
 41
0
  0
VERTEX
  8
C00-00-00-BLACK
 10
3.52778
 20
277.636
 30
0.0
 40
0
 41
0
  0
SEQEND
 8
0
  0
POLYLINE
  8
C00-00-00-BLACK
 66
     1
 10
0
 20
0
 30
0.0
 70
     1
 40
0
 41
0
  0
VERTEX
  8
C00-00-00-BLACK
 10
215.9
 20
277.636
 30
0.0
 40
0
 41
0
  0
VERTEX
  8
C00-00-00-BLACK
 10
215.9
 20
277.808
 30
0.0
 40
0
 41
0
  0
VERTEX
  8
C00-00-00-BLACK
 10
215.761
 20
278.324
 30
0.0
 40
0
 41
0
  0
VERTEX
  8
C00-00-00-BLACK
 10
215.383
 20
278.885
 30
0.0
 40
0
 41
0
  0
VERTEX
  8
C00-00-00-BLACK
 10
214.822
 20
279.262
 30
0.0
 40
0
 41
0
  0
VERTEX
  8
C00-00-00-BLACK
 10
214.307
 20
279.4
 30
0.0
 40
0
 41
0
  0
VERTEX
  8
C00-00-00-BLACK
 10
214.136
 20
279.4
 30
0.0
 40
0
 41
0
  0
VERTEX
  8
C00-00-00-BLACK
 10
213.964
 20
279.4
 30
0.0
 40
0
 41
0
  0
VERTEX
  8
C00-00-00-BLACK
 10
213.449
 20
279.262
 30
0.0
 40
0
 41
0
  0
VERTEX
  8
C00-00-00-BLACK
 10
212.888
 20
278.885
 30
0.0
 40
0
 41
0
  0
VERTEX
  8
C00-00-00-BLACK
 10
212.51
 20
278.324
 30
0.0
 40
0
 41
0
  0
VERTEX
  8
C00-00-00-BLACK
 10
212.372
 20
277.808
 30
0.0
 40
0
 41
0
  0
VERTEX
  8
C00-00-00-BLACK
 10
212.372
 20
277.636
 30
0.0
 40
0
 41
0
  0
VERTEX
  8
C00-00-00-BLACK
 10
212.372
 20
277.465
 30
0.0
 40
0
 41
0
  0
VERTEX
  8
C00-00-00-BLACK
 10
212.51
 20
276.95
 30
0.0
 40
0
 41
0
  0
VERTEX
  8
C00-00-00-BLACK
 10
212.888
 20
276.389
 30
0.0
 40
0
 41
0
  0
VERTEX
  8
C00-00-00-BLACK
 10
213.449
 20
276.012
 30
0.0
 40
0
 41
0
  0
VERTEX
  8
C00-00-00-BLACK
 10
213.964
 20
275.872
 30
0.0
 40
0
 41
0
  0
VERTEX
  8
C00-00-00-BLACK
 10
214.136
 20
275.872
 30
0.0
 40
0
 41
0
  0
VERTEX
  8
C00-00-00-BLACK
 10
214.307
 20
275.872
 30
0.0
 40
0
 41
0
  0
VERTEX
  8
C00-00-00-BLACK
 10
214.822
 20
276.012
 30
0.0
 40
0
 41
0
  0
VERTEX
  8
C00-00-00-BLACK
 10
215.383
 20
276.389
 30
0.0
 40
0
 41
0
  0
VERTEX
  8
C00-00-00-BLACK
 10
215.761
 20
276.95
 30
0.0
 40
0
 41
0
  0
VERTEX
  8
C00-00-00-BLACK
 10
215.9
 20
277.465
 30
0.0
 40
0
 41
0
  0
VERTEX
  8
C00-00-00-BLACK
 10
215.9
 20
277.636
 30
0.0
 40
0
 41
0
  0
SEQEND
 8
0
  0
POLYLINE
  8
C00-00-00-BLACK
 66
     1
 10
0
 20
0
 30
0.0
 70
     1
 40
0
 41
0
  0
VERTEX
  8
C00-00-00-BLACK
 10
3.52778
 20
1.76389
 30
0.0
 40
0
 41
0
  0
VERTEX
  8
C00-00-00-BLACK
 10
3.52778
 20
1.93614
 30
0.0
 40
0
 41
0
  0
VERTEX
  8
C00-00-00-BLACK
 10
3.3886
 20
2.45153
 30
0.0
 40
0
 41
0
  0
VERTEX
  8
C00-00-00-BLACK
 10
3.01101
 20
3.01239
 30
0.0
 40
0
 41
0
  0
VERTEX
  8
C00-00-00-BLACK
 10
2.45015
 20
3.38998
 30
0.0
 40
0
 41
0
  0
VERTEX
  8
C00-00-00-BLACK
 10
1.93477
 20
3.52778
 30
0.0
 40
0
 41
0
  0
VERTEX
  8
C00-00-00-BLACK
 10
1.76389
 20
3.52778
 30
0.0
 40
0
 41
0
  0
VERTEX
  8
C00-00-00-BLACK
 10
1.59163
 20
3.52778
 30
0.0
 40
0
 41
0
  0
VERTEX
  8
C00-00-00-BLACK
 10
1.07625
 20
3.38998
 30
0.0
 40
0
 41
0
  0
VERTEX
  8
C00-00-00-BLACK
 10
0.515387
 20
3.01239
 30
0.0
 40
0
 41
0
  0
VERTEX
  8
C00-00-00-BLACK
 10
0.137804
 20
2.45153
 30
0.0
 40
0
 41
0
  0
VERTEX
  8
C00-00-00-BLACK
 10
0
 20
1.93614
 30
0.0
 40
0
 41
0
  0
VERTEX
  8
C00-00-00-BLACK
 10
0
 20
1.76389
 30
0.0
 40
0
 41
0
  0
VERTEX
  8
C00-00-00-BLACK
 10
0
 20
1.59301
 30
0.0
 40
0
 41
0
  0
VERTEX
  8
C00-00-00-BLACK
 10
0.137804
 20
1.07763
 30
0.0
 40
0
 41
0
  0
VERTEX
  8
C00-00-00-BLACK
 10
0.515387
 20
0.516763
 30
0.0
 40
0
 41
0
  0
VERTEX
  8
C00-00-00-BLACK
 10
1.07625
 20
0.139182
 30
0.0
 40
0
 41
0
  0
VERTEX
  8
C00-00-00-BLACK
 10
1.59163
 20
0
 30
0.0
 40
0
 41
0
  0
VERTEX
  8
C00-00-00-BLACK
 10
1.76389
 20
0
 30
0.0
 40
0
 41
0
  0
VERTEX
  8
C00-00-00-BLACK
 10
1.93477
 20
0
 30
0.0
 40
0
 41
0
  0
VERTEX
  8
C00-00-00-BLACK
 10
2.45015
 20
0.139182
 30
0.0
 40
0
 41
0
  0
VERTEX
  8
C00-00-00-BLACK
 10
3.01101
 20
0.516763
 30
0.0
 40
0
 41
0
  0
VERTEX
  8
C00-00-00-BLACK
 10
3.3886
 20
1.07763
 30
0.0
 40
0
 41
0
  0
VERTEX
  8
C00-00-00-BLACK
 10
3.52778
 20
1.59301
 30
0.0
 40
0
 41
0
  0
VERTEX
  8
C00-00-00-BLACK
 10
3.52778
 20
1.76389
 30
0.0
 40
0
 41
0
  0
SEQEND
 8
0
  0
POLYLINE
  8
C00-00-00-BLACK
 66
     1
 10
0
 20
0
 30
0.0
 70
     1
 40
0
 41
0
  0
VERTEX
  8
C00-00-00-BLACK
 10
215.9
 20
1.76389
 30
0.0
 40
0
 41
0
  0
VERTEX
  8
C00-00-00-BLACK
 10
215.9
 20
1.93614
 30
0.0
 40
0
 41
0
  0
VERTEX
  8
C00-00-00-BLACK
 10
215.761
 20
2.45153
 30
0.0
 40
0
 41
0
  0
VERTEX
  8
C00-00-00-BLACK
 10
215.383
 20
3.01239
 30
0.0
 40
0
 41
0
  0
VERTEX
  8
C00-00-00-BLACK
 10
214.822
 20
3.38998
 30
0.0
 40
0
 41
0
  0
VERTEX
  8
C00-00-00-BLACK
 10
214.307
 20
3.52778
 30
0.0
 40
0
 41
0
  0
VERTEX
  8
C00-00-00-BLACK
 10
214.136
 20
3.52778
 30
0.0
 40
0
 41
0
  0
VERTEX
  8
C00-00-00-BLACK
 10
213.964
 20
3.52778
 30
0.0
 40
0
 41
0
  0
VERTEX
  8
C00-00-00-BLACK
 10
213.449
 20
3.38998
 30
0.0
 40
0
 41
0
  0
VERTEX
  8
C00-00-00-BLACK
 10
212.888
 20
3.01239
 30
0.0
 40
0
 41
0
  0
VERTEX
  8
C00-00-00-BLACK
 10
212.51
 20
2.45153
 30
0.0
 40
0
 41
0
  0
VERTEX
  8
C00-00-00-BLACK
 10
212.372
 20
1.93614
 30
0.0
 40
0
 41
0
  0
VERTEX
  8
C00-00-00-BLACK
 10
212.372
 20
1.76389
 30
0.0
 40
0
 41
0
  0
VERTEX
  8
C00-00-00-BLACK
 10
212.372
 20
1.59301
 30
0.0
 40
0
 41
0
  0
VERTEX
  8
C00-00-00-BLACK
 10
212.51
 20
1.07763
 30
0.0
 40
0
 41
0
  0
VERTEX
  8
C00-00-00-BLACK
 10
212.888
 20
0.516763
 30
0.0
 40
0
 41
0
  0
VERTEX
  8
C00-00-00-BLACK
 10
213.449
 20
0.139182
 30
0.0
 40
0
 41
0
  0
VERTEX
  8
C00-00-00-BLACK
 10
213.964
 20
0
 30
0.0
 40
0
 41
0
  0
VERTEX
  8
C00-00-00-BLACK
 10
214.136
 20
0
 30
0.0
 40
0
 41
0
  0
VERTEX
  8
C00-00-00-BLACK
 10
214.307
 20
0
 30
0.0
 40
0
 41
0
  0
VERTEX
  8
C00-00-00-BLACK
 10
214.822
 20
0.139182
 30
0.0
 40
0
 41
0
  0
VERTEX
  8
C00-00-00-BLACK
 10
215.383
 20
0.516763
 30
0.0
 40
0
 41
0
  0
VERTEX
  8
C00-00-00-BLACK
 10
215.761
 20
1.07763
 30
0.0
 40
0
 41
0
  0
VERTEX
  8
C00-00-00-BLACK
 10
215.9
 20
1.59301
 30
0.0
 40
0
 41
0
  0
VERTEX
  8
C00-00-00-BLACK
 10
215.9
 20
1.76389
 30
0.0
 40
0
 41
0
  0
SEQEND
 8
0
  0
POLYLINE
  8
C00-00-00-BLACK
 66
     1
 10
0
 20
0
 30
0.0
 70
     1
 40
2
 41
2
  0
VERTEX
  8
C00-00-00-BLACK
 10
53.315
 20
148.872
 30
0.0
 40
0.705556
 41
0.705556
  0
VERTEX
  8
C00-00-00-BLACK
 10
53.315
 20
150.152
 30
0.0
 40
0.705556
 41
0.705556
  0
VERTEX
  8
C00-00-00-BLACK
 10
52.7981
 20
153.993
 30
0.0
 40
0.705556
 41
0.705556
  0
VERTEX
  8
C00-00-00-BLACK
 10
51.3182
 20
158.761
 30
0.0
 40
0.705556
 41
0.705556
  0
VERTEX
  8
C00-00-00-BLACK
 10
48.9768
 20
163.076
 30
0.0
 40
0.705556
 41
0.705556
  0
VERTEX
  8
C00-00-00-BLACK
 10
45.8749
 20
166.834
 30
0.0
 40
0.705556
 41
0.705556
  0
VERTEX
  8
C00-00-00-BLACK
 10
42.1171
 20
169.936
 30
0.0
 40
0.705556
 41
0.705556
  0
VERTEX
  8
C00-00-00-BLACK
 10
37.8023
 20
172.277
 30
0.0
 40
0.705556
 41
0.705556
  0
VERTEX
  8
C00-00-00-BLACK
 10
33.0343
 20
173.757
 30
0.0
 40
0.705556
 41
0.705556
  0
VERTEX
  8
C00-00-00-BLACK
 10
29.1937
 20
174.272
 30
0.0
 40
0.705556
 41
0.705556
  0
VERTEX
  8
C00-00-00-BLACK
 10
27.9149
 20
174.272
 30
0.0
 40
0.705556
 41
0.705556
  0
VERTEX
  8
C00-00-00-BLACK
 10
26.6347
 20
174.272
 30
0.0
 40
0.705556
 41
0.705556
  0
VERTEX
  8
C00-00-00-BLACK
 10
22.7941
 20
173.757
 30
0.0
 40
0.705556
 41
0.705556
  0
VERTEX
  8
C00-00-00-BLACK
 10
18.0261
 20
172.277
 30
0.0
 40
0.705556
 41
0.705556
  0
VERTEX
  8
C00-00-00-BLACK
 10
13.7115
 20
169.936
 30
0.0
 40
0.705556
 41
0.705556
  0
VERTEX
  8
C00-00-00-BLACK
 10
9.95355
 20
166.834
 30
0.0
 40
0.705556
 41
0.705556
  0
VERTEX
  8
C00-00-00-BLACK
 10
6.85161
 20
163.076
 30
0.0
 40
0.705556
 41
0.705556
  0
VERTEX
  8
C00-00-00-BLACK
 10
4.51033
 20
158.761
 30
0.0
 40
0.705556
 41
0.705556
  0
VERTEX
  8
C00-00-00-BLACK
 10
3.0303
 20
153.993
 30
0.0
 40
0.705556
 41
0.705556
  0
VERTEX
  8
C00-00-00-BLACK
 10
2.51492
 20
150.152
 30
0.0
 40
0.705556
 41
0.705556
  0
VERTEX
  8
C00-00-00-BLACK
 10
2.51492
 20
148.872
 30
0.0
 40
0.705556
 41
0.705556
  0
VERTEX
  8
C00-00-00-BLACK
 10
2.51492
 20
147.593
 30
0.0
 40
0.705556
 41
0.705556
  0
VERTEX
  8
C00-00-00-BLACK
 10
3.0303
 20
143.753
 30
0.0
 40
0.705556
 41
0.705556
  0
VERTEX
  8
C00-00-00-BLACK
 10
4.51033
 20
138.985
 30
0.0
 40
0.705556
 41
0.705556
  0
VERTEX
  8
C00-00-00-BLACK
 10
6.85161
 20
134.67
 30
0.0
 40
0.705556
 41
0.705556
  0
VERTEX
  8
C00-00-00-BLACK
 10
9.95355
 20
130.912
 30
0.0
 40
0.705556
 41
0.705556
  0
VERTEX
  8
C00-00-00-BLACK
 10
13.7115
 20
127.81
 30
0.0
 40
0.705556
 41
0.705556
  0
VERTEX
  8
C00-00-00-BLACK
 10
18.0261
 20
125.469
 30
0.0
 40
0.705556
 41
0.705556
  0
VERTEX
  8
C00-00-00-BLACK
 10
22.7941
 20
123.989
 30
0.0
 40
0.705556
 41
0.705556
  0
VERTEX
  8
C00-00-00-BLACK
 10
26.6347
 20
123.472
 30
0.0
 40
0.705556
 41
0.705556
  0
VERTEX
  8
C00-00-00-BLACK
 10
27.9149
 20
123.472
 30
0.0
 40
0.705556
 41
0.705556
  0
VERTEX
  8
C00-00-00-BLACK
 10
29.1937
 20
123.472
 30
0.0
 40
0.705556
 41
0.705556
  0
VERTEX
  8
C00-00-00-BLACK
 10
33.0343
 20
123.989
 30
0.0
 40
0.705556
 41
0.705556
  0
VERTEX
  8
C00-00-00-BLACK
 10
37.8023
 20
125.469
 30
0.0
 40
0.705556
 41
0.705556
  0
VERTEX
  8
C00-00-00-BLACK
 10
42.1171
 20
127.81
 30
0.0
 40
0.705556
 41
0.705556
  0
VERTEX
  8
C00-00-00-BLACK
 10
45.8749
 20
130.912
 30
0.0
 40
0.705556
 41
0.705556
  0
VERTEX
  8
C00-00-00-BLACK
 10
48.9768
 20
134.67
 30
0.0
 40
0.705556
 41
0.705556
  0
VERTEX
  8
C00-00-00-BLACK
 10
51.3182
 20
138.985
 30
0.0
 40
0.705556
 41
0.705556
  0
VERTEX
  8
C00-00-00-BLACK
 10
52.7981
 20
143.753
 30
0.0
 40
0.705556
 41
0.705556
  0
VERTEX
  8
C00-00-00-BLACK
 10
53.315
 20
147.593
 30
0.0
 40
0.705556
 41
0.705556
  0
VERTEX
  8
C00-00-00-BLACK
 10
53.315
 20
148.872
 30
0.0
 40
0.705556
 41
0.705556
  0
SEQEND
 8
0
  0
POLYLINE
  8
C00-00-00-BLACK
 66
     1
 10
0
 20
0
 30
0.0
 70
     1
 40
2
 41
2
  0
VERTEX
  8
C00-00-00-BLACK
 10
106.673
 20
148.872
 30
0.0
 40
0.705556
 41
0.705556
  0
VERTEX
  8
C00-00-00-BLACK
 10
106.673
 20
150.152
 30
0.0
 40
0.705556
 41
0.705556
  0
VERTEX
  8
C00-00-00-BLACK
 10
106.156
 20
153.993
 30
0.0
 40
0.705556
 41
0.705556
  0
VERTEX
  8
C00-00-00-BLACK
 10
104.676
 20
158.761
 30
0.0
 40
0.705556
 41
0.705556
  0
VERTEX
  8
C00-00-00-BLACK
 10
102.334
 20
163.076
 30
0.0
 40
0.705556
 41
0.705556
  0
VERTEX
  8
C00-00-00-BLACK
 10
99.2325
 20
166.834
 30
0.0
 40
0.705556
 41
0.705556
  0
VERTEX
  8
C00-00-00-BLACK
 10
95.4747
 20
169.936
 30
0.0
 40
0.705556
 41
0.705556
  0
VERTEX
  8
C00-00-00-BLACK
 10
91.1599
 20
172.277
 30
0.0
 40
0.705556
 41
0.705556
  0
VERTEX
  8
C00-00-00-BLACK
 10
86.3921
 20
173.757
 30
0.0
 40
0.705556
 41
0.705556
  0
VERTEX
  8
C00-00-00-BLACK
 10
82.5514
 20
174.272
 30
0.0
 40
0.705556
 41
0.705556
  0
VERTEX
  8
C00-00-00-BLACK
 10
81.2726
 20
174.272
 30
0.0
 40
0.705556
 41
0.705556
  0
VERTEX
  8
C00-00-00-BLACK
 10
79.9924
 20
174.272
 30
0.0
 40
0.705556
 41
0.705556
  0
VERTEX
  8
C00-00-00-BLACK
 10
76.1517
 20
173.757
 30
0.0
 40
0.705556
 41
0.705556
  0
VERTEX
  8
C00-00-00-BLACK
 10
71.3839
 20
172.277
 30
0.0
 40
0.705556
 41
0.705556
  0
VERTEX
  8
C00-00-00-BLACK
 10
67.0691
 20
169.936
 30
0.0
 40
0.705556
 41
0.705556
  0
VERTEX
  8
C00-00-00-BLACK
 10
63.3113
 20
166.834
 30
0.0
 40
0.705556
 41
0.705556
  0
VERTEX
  8
C00-00-00-BLACK
 10
60.2093
 20
163.076
 30
0.0
 40
0.705556
 41
0.705556
  0
VERTEX
  8
C00-00-00-BLACK
 10
57.8679
 20
158.761
 30
0.0
 40
0.705556
 41
0.705556
  0
VERTEX
  8
C00-00-00-BLACK
 10
56.388
 20
153.993
 30
0.0
 40
0.705556
 41
0.705556
  0
VERTEX
  8
C00-00-00-BLACK
 10
55.8726
 20
150.152
 30
0.0
 40
0.705556
 41
0.705556
  0
VERTEX
  8
C00-00-00-BLACK
 10
55.8726
 20
148.872
 30
0.0
 40
0.705556
 41
0.705556
  0
VERTEX
  8
C00-00-00-BLACK
 10
55.8726
 20
147.593
 30
0.0
 40
0.705556
 41
0.705556
  0
VERTEX
  8
C00-00-00-BLACK
 10
56.388
 20
143.753
 30
0.0
 40
0.705556
 41
0.705556
  0
VERTEX
  8
C00-00-00-BLACK
 10
57.8679
 20
138.985
 30
0.0
 40
0.705556
 41
0.705556
  0
VERTEX
  8
C00-00-00-BLACK
 10
60.2093
 20
134.67
 30
0.0
 40
0.705556
 41
0.705556
  0
VERTEX
  8
C00-00-00-BLACK
 10
63.3113
 20
130.912
 30
0.0
 40
0.705556
 41
0.705556
  0
VERTEX
  8
C00-00-00-BLACK
 10
67.0691
 20
127.81
 30
0.0
 40
0.705556
 41
0.705556
  0
VERTEX
  8
C00-00-00-BLACK
 10
71.3839
 20
125.469
 30
0.0
 40
0.705556
 41
0.705556
  0
VERTEX
  8
C00-00-00-BLACK
 10
76.1517
 20
123.989
 30
0.0
 40
0.705556
 41
0.705556
  0
VERTEX
  8
C00-00-00-BLACK
 10
79.9924
 20
123.472
 30
0.0
 40
0.705556
 41
0.705556
  0
VERTEX
  8
C00-00-00-BLACK
 10
81.2726
 20
123.472
 30
0.0
 40
0.705556
 41
0.705556
  0
VERTEX
  8
C00-00-00-BLACK
 10
82.5514
 20
123.472
 30
0.0
 40
0.705556
 41
0.705556
  0
VERTEX
  8
C00-00-00-BLACK
 10
86.3921
 20
123.989
 30
0.0
 40
0.705556
 41
0.705556
  0
VERTEX
  8
C00-00-00-BLACK
 10
91.1599
 20
125.469
 30
0.0
 40
0.705556
 41
0.705556
  0
VERTEX
  8
C00-00-00-BLACK
 10
95.4747
 20
127.81
 30
0.0
 40
0.705556
 41
0.705556
  0
VERTEX
  8
C00-00-00-BLACK
 10
99.2325
 20
130.912
 30
0.0
 40
0.705556
 41
0.705556
  0
VERTEX
  8
C00-00-00-BLACK
 10
102.334
 20
134.67
 30
0.0
 40
0.705556
 41
0.705556
  0
VERTEX
  8
C00-00-00-BLACK
 10
104.676
 20
138.985
 30
0.0
 40
0.705556
 41
0.705556
  0
VERTEX
  8
C00-00-00-BLACK
 10
106.156
 20
143.753
 30
0.0
 40
0.705556
 41
0.705556
  0
VERTEX
  8
C00-00-00-BLACK
 10
106.673
 20
147.593
 30
0.0
 40
0.705556
 41
0.705556
  0
VERTEX
  8
C00-00-00-BLACK
 10
106.673
 20
148.872
 30
0.0
 40
0.705556
 41
0.705556
  0
SEQEND
 8
0
  0
POLYLINE
  8
C00-00-00-BLACK
 66
     1
 10
0
 20
0
 30
0.0
 70
     1
 40
2
 41
2
  0
VERTEX
  8
C00-00-00-BLACK
 10
160.027
 20
148.872
 30
0.0
 40
0.705556
 41
0.705556
  0
VERTEX
  8
C00-00-00-BLACK
 10
160.027
 20
150.152
 30
0.0
 40
0.705556
 41
0.705556
  0
VERTEX
  8
C00-00-00-BLACK
 10
159.511
 20
153.993
 30
0.0
 40
0.705556
 41
0.705556
  0
VERTEX
  8
C00-00-00-BLACK
 10
158.031
 20
158.761
 30
0.0
 40
0.705556
 41
0.705556
  0
VERTEX
  8
C00-00-00-BLACK
 10
155.689
 20
163.076
 30
0.0
 40
0.705556
 41
0.705556
  0
VERTEX
  8
C00-00-00-BLACK
 10
152.587
 20
166.834
 30
0.0
 40
0.705556
 41
0.705556
  0
VERTEX
  8
C00-00-00-BLACK
 10
148.83
 20
169.936
 30
0.0
 40
0.705556
 41
0.705556
  0
VERTEX
  8
C00-00-00-BLACK
 10
144.515
 20
172.277
 30
0.0
 40
0.705556
 41
0.705556
  0
VERTEX
  8
C00-00-00-BLACK
 10
139.747
 20
173.757
 30
0.0
 40
0.705556
 41
0.705556
  0
VERTEX
  8
C00-00-00-BLACK
 10
135.906
 20
174.272
 30
0.0
 40
0.705556
 41
0.705556
  0
VERTEX
  8
C00-00-00-BLACK
 10
134.627
 20
174.272
 30
0.0
 40
0.705556
 41
0.705556
  0
VERTEX
  8
C00-00-00-BLACK
 10
133.347
 20
174.272
 30
0.0
 40
0.705556
 41
0.705556
  0
VERTEX
  8
C00-00-00-BLACK
 10
129.506
 20
173.757
 30
0.0
 40
0.705556
 41
0.705556
  0
VERTEX
  8
C00-00-00-BLACK
 10
124.739
 20
172.277
 30
0.0
 40
0.705556
 41
0.705556
  0
VERTEX
  8
C00-00-00-BLACK
 10
120.424
 20
169.936
 30
0.0
 40
0.705556
 41
0.705556
  0
VERTEX
  8
C00-00-00-BLACK
 10
116.666
 20
166.834
 30
0.0
 40
0.705556
 41
0.705556
  0
VERTEX
  8
C00-00-00-BLACK
 10
113.564
 20
163.076
 30
0.0
 40
0.705556
 41
0.705556
  0
VERTEX
  8
C00-00-00-BLACK
 10
111.223
 20
158.761
 30
0.0
 40
0.705556
 41
0.705556
  0
VERTEX
  8
C00-00-00-BLACK
 10
109.743
 20
153.993
 30
0.0
 40
0.705556
 41
0.705556
  0
VERTEX
  8
C00-00-00-BLACK
 10
109.227
 20
150.152
 30
0.0
 40
0.705556
 41
0.705556
  0
VERTEX
  8
C00-00-00-BLACK
 10
109.227
 20
148.872
 30
0.0
 40
0.705556
 41
0.705556
  0
VERTEX
  8
C00-00-00-BLACK
 10
109.227
 20
147.593
 30
0.0
 40
0.705556
 41
0.705556
  0
VERTEX
  8
C00-00-00-BLACK
 10
109.743
 20
143.753
 30
0.0
 40
0.705556
 41
0.705556
  0
VERTEX
  8
C00-00-00-BLACK
 10
111.223
 20
138.985
 30
0.0
 40
0.705556
 41
0.705556
  0
VERTEX
  8
C00-00-00-BLACK
 10
113.564
 20
134.67
 30
0.0
 40
0.705556
 41
0.705556
  0
VERTEX
  8
C00-00-00-BLACK
 10
116.666
 20
130.912
 30
0.0
 40
0.705556
 41
0.705556
  0
VERTEX
  8
C00-00-00-BLACK
 10
120.424
 20
127.81
 30
0.0
 40
0.705556
 41
0.705556
  0
VERTEX
  8
C00-00-00-BLACK
 10
124.739
 20
125.469
 30
0.0
 40
0.705556
 41
0.705556
  0
VERTEX
  8
C00-00-00-BLACK
 10
129.506
 20
123.989
 30
0.0
 40
0.705556
 41
0.705556
  0
VERTEX
  8
C00-00-00-BLACK
 10
133.347
 20
123.472
 30
0.0
 40
0.705556
 41
0.705556
  0
VERTEX
  8
C00-00-00-BLACK
 10
134.627
 20
123.472
 30
0.0
 40
0.705556
 41
0.705556
  0
VERTEX
  8
C00-00-00-BLACK
 10
135.906
 20
123.472
 30
0.0
 40
0.705556
 41
0.705556
  0
VERTEX
  8
C00-00-00-BLACK
 10
139.747
 20
123.989
 30
0.0
 40
0.705556
 41
0.705556
  0
VERTEX
  8
C00-00-00-BLACK
 10
144.515
 20
125.469
 30
0.0
 40
0.705556
 41
0.705556
  0
VERTEX
  8
C00-00-00-BLACK
 10
148.83
 20
127.81
 30
0.0
 40
0.705556
 41
0.705556
  0
VERTEX
  8
C00-00-00-BLACK
 10
152.587
 20
130.912
 30
0.0
 40
0.705556
 41
0.705556
  0
VERTEX
  8
C00-00-00-BLACK
 10
155.689
 20
134.67
 30
0.0
 40
0.705556
 41
0.705556
  0
VERTEX
  8
C00-00-00-BLACK
 10
158.031
 20
138.985
 30
0.0
 40
0.705556
 41
0.705556
  0
VERTEX
  8
C00-00-00-BLACK
 10
159.511
 20
143.753
 30
0.0
 40
0.705556
 41
0.705556
  0
VERTEX
  8
C00-00-00-BLACK
 10
160.027
 20
147.593
 30
0.0
 40
0.705556
 41
0.705556
  0
VERTEX
  8
C00-00-00-BLACK
 10
160.027
 20
148.872
 30
0.0
 40
0.705556
 41
0.705556
  0
SEQEND
 8
0
  0
POLYLINE
  8
C00-00-00-BLACK
 66
     1
 10
0
 20
0
 30
0.0
 70
     1
 40
2
 41
2
  0
VERTEX
  8
C00-00-00-BLACK
 10
213.385
 20
148.872
 30
0.0
 40
0.705556
 41
0.705556
  0
VERTEX
  8
C00-00-00-BLACK
 10
213.385
 20
150.152
 30
0.0
 40
0.705556
 41
0.705556
  0
VERTEX
  8
C00-00-00-BLACK
 10
212.868
 20
153.993
 30
0.0
 40
0.705556
 41
0.705556
  0
VERTEX
  8
C00-00-00-BLACK
 10
211.388
 20
158.761
 30
0.0
 40
0.705556
 41
0.705556
  0
VERTEX
  8
C00-00-00-BLACK
 10
209.047
 20
163.076
 30
0.0
 40
0.705556
 41
0.705556
  0
VERTEX
  8
C00-00-00-BLACK
 10
205.945
 20
166.834
 30
0.0
 40
0.705556
 41
0.705556
  0
VERTEX
  8
C00-00-00-BLACK
 10
202.187
 20
169.936
 30
0.0
 40
0.705556
 41
0.705556
  0
VERTEX
  8
C00-00-00-BLACK
 10
197.872
 20
172.277
 30
0.0
 40
0.705556
 41
0.705556
  0
VERTEX
  8
C00-00-00-BLACK
 10
193.105
 20
173.757
 30
0.0
 40
0.705556
 41
0.705556
  0
VERTEX
  8
C00-00-00-BLACK
 10
189.264
 20
174.272
 30
0.0
 40
0.705556
 41
0.705556
  0
VERTEX
  8
C00-00-00-BLACK
 10
187.985
 20
174.272
 30
0.0
 40
0.705556
 41
0.705556
  0
VERTEX
  8
C00-00-00-BLACK
 10
186.705
 20
174.272
 30
0.0
 40
0.705556
 41
0.705556
  0
VERTEX
  8
C00-00-00-BLACK
 10
182.864
 20
173.757
 30
0.0
 40
0.705556
 41
0.705556
  0
VERTEX
  8
C00-00-00-BLACK
 10
178.096
 20
172.277
 30
0.0
 40
0.705556
 41
0.705556
  0
VERTEX
  8
C00-00-00-BLACK
 10
173.782
 20
169.936
 30
0.0
 40
0.705556
 41
0.705556
  0
VERTEX
  8
C00-00-00-BLACK
 10
170.024
 20
166.834
 30
0.0
 40
0.705556
 41
0.705556
  0
VERTEX
  8
C00-00-00-BLACK
 10
166.922
 20
163.076
 30
0.0
 40
0.705556
 41
0.705556
  0
VERTEX
  8
C00-00-00-BLACK
 10
164.58
 20
158.761
 30
0.0
 40
0.705556
 41
0.705556
  0
VERTEX
  8
C00-00-00-BLACK
 10
163.1
 20
153.993
 30
0.0
 40
0.705556
 41
0.705556
  0
VERTEX
  8
C00-00-00-BLACK
 10
162.585
 20
150.152
 30
0.0
 40
0.705556
 41
0.705556
  0
VERTEX
  8
C00-00-00-BLACK
 10
162.585
 20
148.872
 30
0.0
 40
0.705556
 41
0.705556
  0
VERTEX
  8
C00-00-00-BLACK
 10
162.585
 20
147.593
 30
0.0
 40
0.705556
 41
0.705556
  0
VERTEX
  8
C00-00-00-BLACK
 10
163.1
 20
143.753
 30
0.0
 40
0.705556
 41
0.705556
  0
VERTEX
  8
C00-00-00-BLACK
 10
164.58
 20
138.985
 30
0.0
 40
0.705556
 41
0.705556
  0
VERTEX
  8
C00-00-00-BLACK
 10
166.922
 20
134.67
 30
0.0
 40
0.705556
 41
0.705556
  0
VERTEX
  8
C00-00-00-BLACK
 10
170.024
 20
130.912
 30
0.0
 40
0.705556
 41
0.705556
  0
VERTEX
  8
C00-00-00-BLACK
 10
173.782
 20
127.81
 30
0.0
 40
0.705556
 41
0.705556
  0
VERTEX
  8
C00-00-00-BLACK
 10
178.096
 20
125.469
 30
0.0
 40
0.705556
 41
0.705556
  0
VERTEX
  8
C00-00-00-BLACK
 10
182.864
 20
123.989
 30
0.0
 40
0.705556
 41
0.705556
  0
VERTEX
  8
C00-00-00-BLACK
 10
186.705
 20
123.472
 30
0.0
 40
0.705556
 41
0.705556
  0
VERTEX
  8
C00-00-00-BLACK
 10
187.985
 20
123.472
 30
0.0
 40
0.705556
 41
0.705556
  0
VERTEX
  8
C00-00-00-BLACK
 10
189.264
 20
123.472
 30
0.0
 40
0.705556
 41
0.705556
  0
VERTEX
  8
C00-00-00-BLACK
 10
193.105
 20
123.989
 30
0.0
 40
0.705556
 41
0.705556
  0
VERTEX
  8
C00-00-00-BLACK
 10
197.872
 20
125.469
 30
0.0
 40
0.705556
 41
0.705556
  0
VERTEX
  8
C00-00-00-BLACK
 10
202.187
 20
127.81
 30
0.0
 40
0.705556
 41
0.705556
  0
VERTEX
  8
C00-00-00-BLACK
 10
205.945
 20
130.912
 30
0.0
 40
0.705556
 41
0.705556
  0
VERTEX
  8
C00-00-00-BLACK
 10
209.047
 20
134.67
 30
0.0
 40
0.705556
 41
0.705556
  0
VERTEX
  8
C00-00-00-BLACK
 10
211.388
 20
138.985
 30
0.0
 40
0.705556
 41
0.705556
  0
VERTEX
  8
C00-00-00-BLACK
 10
212.868
 20
143.753
 30
0.0
 40
0.705556
 41
0.705556
  0
VERTEX
  8
C00-00-00-BLACK
 10
213.385
 20
147.593
 30
0.0
 40
0.705556
 41
0.705556
  0
VERTEX
  8
C00-00-00-BLACK
 10
213.385
 20
148.872
 30
0.0
 40
0.705556
 41
0.705556
  0
SEQEND
 8
0
  0
POLYLINE
  8
C00-00-00-BLACK
 66
     1
 10
0
 20
0
 30
0.0
 70
     1
 40
0
 41
0
  0
VERTEX
  8
C00-00-00-BLACK
 10
3.52778
 20
277.636
 30
0.0
 40
0
 41
0
  0
VERTEX
  8
C00-00-00-BLACK
 10
3.52778
 20
277.808
 30
0.0
 40
0
 41
0
  0
VERTEX
  8
C00-00-00-BLACK
 10
3.3886
 20
278.324
 30
0.0
 40
0
 41
0
  0
VERTEX
  8
C00-00-00-BLACK
 10
3.01101
 20
278.885
 30
0.0
 40
0
 41
0
  0
VERTEX
  8
C00-00-00-BLACK
 10
2.45015
 20
279.262
 30
0.0
 40
0
 41
0
  0
VERTEX
  8
C00-00-00-BLACK
 10
1.93477
 20
279.4
 30
0.0
 40
0
 41
0
  0
VERTEX
  8
C00-00-00-BLACK
 10
1.76389
 20
279.4
 30
0.0
 40
0
 41
0
  0
VERTEX
  8
C00-00-00-BLACK
 10
1.59163
 20
279.4
 30
0.0
 40
0
 41
0
  0
VERTEX
  8
C00-00-00-BLACK
 10
1.07625
 20
279.262
 30
0.0
 40
0
 41
0
  0
VERTEX
  8
C00-00-00-BLACK
 10
0.515387
 20
278.885
 30
0.0
 40
0
 41
0
  0
VERTEX
  8
C00-00-00-BLACK
 10
0.137804
 20
278.324
 30
0.0
 40
0
 41
0
  0
VERTEX
  8
C00-00-00-BLACK
 10
0
 20
277.808
 30
0.0
 40
0
 41
0
  0
VERTEX
  8
C00-00-00-BLACK
 10
0
 20
277.636
 30
0.0
 40
0
 41
0
  0
VERTEX
  8
C00-00-00-BLACK
 10
0
 20
277.465
 30
0.0
 40
0
 41
0
  0
VERTEX
  8
C00-00-00-BLACK
 10
0.137804
 20
276.95
 30
0.0
 40
0
 41
0
  0
VERTEX
  8
C00-00-00-BLACK
 10
0.515387
 20
276.389
 30
0.0
 40
0
 41
0
  0
VERTEX
  8
C00-00-00-BLACK
 10
1.07625
 20
276.012
 30
0.0
 40
0
 41
0
  0
VERTEX
  8
C00-00-00-BLACK
 10
1.59163
 20
275.872
 30
0.0
 40
0
 41
0
  0
VERTEX
  8
C00-00-00-BLACK
 10
1.76389
 20
275.872
 30
0.0
 40
0
 41
0
  0
VERTEX
  8
C00-00-00-BLACK
 10
1.93477
 20
275.872
 30
0.0
 40
0
 41
0
  0
VERTEX
  8
C00-00-00-BLACK
 10
2.45015
 20
276.012
 30
0.0
 40
0
 41
0
  0
VERTEX
  8
C00-00-00-BLACK
 10
3.01101
 20
276.389
 30
0.0
 40
0
 41
0
  0
VERTEX
  8
C00-00-00-BLACK
 10
3.3886
 20
276.95
 30
0.0
 40
0
 41
0
  0
VERTEX
  8
C00-00-00-BLACK
 10
3.52778
 20
277.465
 30
0.0
 40
0
 41
0
  0
VERTEX
  8
C00-00-00-BLACK
 10
3.52778
 20
277.636
 30
0.0
 40
0
 41
0
  0
SEQEND
 8
0
  0
POLYLINE
  8
C00-00-00-BLACK
 66
     1
 10
0
 20
0
 30
0.0
 70
     1
 40
0
 41
0
  0
VERTEX
  8
C00-00-00-BLACK
 10
215.9
 20
277.636
 30
0.0
 40
0
 41
0
  0
VERTEX
  8
C00-00-00-BLACK
 10
215.9
 20
277.808
 30
0.0
 40
0
 41
0
  0
VERTEX
  8
C00-00-00-BLACK
 10
215.761
 20
278.324
 30
0.0
 40
0
 41
0
  0
VERTEX
  8
C00-00-00-BLACK
 10
215.383
 20
278.885
 30
0.0
 40
0
 41
0
  0
VERTEX
  8
C00-00-00-BLACK
 10
214.822
 20
279.262
 30
0.0
 40
0
 41
0
  0
VERTEX
  8
C00-00-00-BLACK
 10
214.307
 20
279.4
 30
0.0
 40
0
 41
0
  0
VERTEX
  8
C00-00-00-BLACK
 10
214.136
 20
279.4
 30
0.0
 40
0
 41
0
  0
VERTEX
  8
C00-00-00-BLACK
 10
213.964
 20
279.4
 30
0.0
 40
0
 41
0
  0
VERTEX
  8
C00-00-00-BLACK
 10
213.449
 20
279.262
 30
0.0
 40
0
 41
0
  0
VERTEX
  8
C00-00-00-BLACK
 10
212.888
 20
278.885
 30
0.0
 40
0
 41
0
  0
VERTEX
  8
C00-00-00-BLACK
 10
212.51
 20
278.324
 30
0.0
 40
0
 41
0
  0
VERTEX
  8
C00-00-00-BLACK
 10
212.372
 20
277.808
 30
0.0
 40
0
 41
0
  0
VERTEX
  8
C00-00-00-BLACK
 10
212.372
 20
277.636
 30
0.0
 40
0
 41
0
  0
VERTEX
  8
C00-00-00-BLACK
 10
212.372
 20
277.465
 30
0.0
 40
0
 41
0
  0
VERTEX
  8
C00-00-00-BLACK
 10
212.51
 20
276.95
 30
0.0
 40
0
 41
0
  0
VERTEX
  8
C00-00-00-BLACK
 10
212.888
 20
276.389
 30
0.0
 40
0
 41
0
  0
VERTEX
  8
C00-00-00-BLACK
 10
213.449
 20
276.012
 30
0.0
 40
0
 41
0
  0
VERTEX
  8
C00-00-00-BLACK
 10
213.964
 20
275.872
 30
0.0
 40
0
 41
0
  0
VERTEX
  8
C00-00-00-BLACK
 10
214.136
 20
275.872
 30
0.0
 40
0
 41
0
  0
VERTEX
  8
C00-00-00-BLACK
 10
214.307
 20
275.872
 30
0.0
 40
0
 41
0
  0
VERTEX
  8
C00-00-00-BLACK
 10
214.822
 20
276.012
 30
0.0
 40
0
 41
0
  0
VERTEX
  8
C00-00-00-BLACK
 10
215.383
 20
276.389
 30
0.0
 40
0
 41
0
  0
VERTEX
  8
C00-00-00-BLACK
 10
215.761
 20
276.95
 30
0.0
 40
0
 41
0
  0
VERTEX
  8
C00-00-00-BLACK
 10
215.9
 20
277.465
 30
0.0
 40
0
 41
0
  0
VERTEX
  8
C00-00-00-BLACK
 10
215.9
 20
277.636
 30
0.0
 40
0
 41
0
  0
SEQEND
 8
0
  0
POLYLINE
  8
C00-00-00-BLACK
 66
     1
 10
0
 20
0
 30
0.0
 70
     1
 40
0
 41
0
  0
VERTEX
  8
C00-00-00-BLACK
 10
3.52778
 20
1.76389
 30
0.0
 40
0
 41
0
  0
VERTEX
  8
C00-00-00-BLACK
 10
3.52778
 20
1.93614
 30
0.0
 40
0
 41
0
  0
VERTEX
  8
C00-00-00-BLACK
 10
3.3886
 20
2.45153
 30
0.0
 40
0
 41
0
  0
VERTEX
  8
C00-00-00-BLACK
 10
3.01101
 20
3.01239
 30
0.0
 40
0
 41
0
  0
VERTEX
  8
C00-00-00-BLACK
 10
2.45015
 20
3.38998
 30
0.0
 40
0
 41
0
  0
VERTEX
  8
C00-00-00-BLACK
 10
1.93477
 20
3.52778
 30
0.0
 40
0
 41
0
  0
VERTEX
  8
C00-00-00-BLACK
 10
1.76389
 20
3.52778
 30
0.0
 40
0
 41
0
  0
VERTEX
  8
C00-00-00-BLACK
 10
1.59163
 20
3.52778
 30
0.0
 40
0
 41
0
  0
VERTEX
  8
C00-00-00-BLACK
 10
1.07625
 20
3.38998
 30
0.0
 40
0
 41
0
  0
VERTEX
  8
C00-00-00-BLACK
 10
0.515387
 20
3.01239
 30
0.0
 40
0
 41
0
  0
VERTEX
  8
C00-00-00-BLACK
 10
0.137804
 20
2.45153
 30
0.0
 40
0
 41
0
  0
VERTEX
  8
C00-00-00-BLACK
 10
0
 20
1.93614
 30
0.0
 40
0
 41
0
  0
VERTEX
  8
C00-00-00-BLACK
 10
0
 20
1.76389
 30
0.0
 40
0
 41
0
  0
VERTEX
  8
C00-00-00-BLACK
 10
0
 20
1.59301
 30
0.0
 40
0
 41
0
  0
VERTEX
  8
C00-00-00-BLACK
 10
0.137804
 20
1.07763
 30
0.0
 40
0
 41
0
  0
VERTEX
  8
C00-00-00-BLACK
 10
0.515387
 20
0.516763
 30
0.0
 40
0
 41
0
  0
VERTEX
  8
C00-00-00-BLACK
 10
1.07625
 20
0.139182
 30
0.0
 40
0
 41
0
  0
VERTEX
  8
C00-00-00-BLACK
 10
1.59163
 20
0
 30
0.0
 40
0
 41
0
  0
VERTEX
  8
C00-00-00-BLACK
 10
1.76389
 20
0
 30
0.0
 40
0
 41
0
  0
VERTEX
  8
C00-00-00-BLACK
 10
1.93477
 20
0
 30
0.0
 40
0
 41
0
  0
VERTEX
  8
C00-00-00-BLACK
 10
2.45015
 20
0.139182
 30
0.0
 40
0
 41
0
  0
VERTEX
  8
C00-00-00-BLACK
 10
3.01101
 20
0.516763
 30
0.0
 40
0
 41
0
  0
VERTEX
  8
C00-00-00-BLACK
 10
3.3886
 20
1.07763
 30
0.0
 40
0
 41
0
  0
VERTEX
  8
C00-00-00-BLACK
 10
3.52778
 20
1.59301
 30
0.0
 40
0
 41
0
  0
VERTEX
  8
C00-00-00-BLACK
 10
3.52778
 20
1.76389
 30
0.0
 40
0
 41
0
  0
SEQEND
 8
0
  0
POLYLINE
  8
C00-00-00-BLACK
 66
     1
 10
0
 20
0
 30
0.0
 70
     1
 40
0
 41
0
  0
VERTEX
  8
C00-00-00-BLACK
 10
215.9
 20
1.76389
 30
0.0
 40
0
 41
0
  0
VERTEX
  8
C00-00-00-BLACK
 10
215.9
 20
1.93614
 30
0.0
 40
0
 41
0
  0
VERTEX
  8
C00-00-00-BLACK
 10
215.761
 20
2.45153
 30
0.0
 40
0
 41
0
  0
VERTEX
  8
C00-00-00-BLACK
 10
215.383
 20
3.01239
 30
0.0
 40
0
 41
0
  0
VERTEX
  8
C00-00-00-BLACK
 10
214.822
 20
3.38998
 30
0.0
 40
0
 41
0
  0
VERTEX
  8
C00-00-00-BLACK
 10
214.307
 20
3.52778
 30
0.0
 40
0
 41
0
  0
VERTEX
  8
C00-00-00-BLACK
 10
214.136
 20
3.52778
 30
0.0
 40
0
 41
0
  0
VERTEX
  8
C00-00-00-BLACK
 10
213.964
 20
3.52778
 30
0.0
 40
0
 41
0
  0
VERTEX
  8
C00-00-00-BLACK
 10
213.449
 20
3.38998
 30
0.0
 40
0
 41
0
  0
VERTEX
  8
C00-00-00-BLACK
 10
212.888
 20
3.01239
 30
0.0
 40
0
 41
0
  0
VERTEX
  8
C00-00-00-BLACK
 10
212.51
 20
2.45153
 30
0.0
 40
0
 41
0
  0
VERTEX
  8
C00-00-00-BLACK
 10
212.372
 20
1.93614
 30
0.0
 40
0
 41
0
  0
VERTEX
  8
C00-00-00-BLACK
 10
212.372
 20
1.76389
 30
0.0
 40
0
 41
0
  0
VERTEX
  8
C00-00-00-BLACK
 10
212.372
 20
1.59301
 30
0.0
 40
0
 41
0
  0
VERTEX
  8
C00-00-00-BLACK
 10
212.51
 20
1.07763
 30
0.0
 40
0
 41
0
  0
VERTEX
  8
C00-00-00-BLACK
 10
212.888
 20
0.516763
 30
0.0
 40
0
 41
0
  0
VERTEX
  8
C00-00-00-BLACK
 10
213.449
 20
0.139182
 30
0.0
 40
0
 41
0
  0
VERTEX
  8
C00-00-00-BLACK
 10
213.964
 20
0
 30
0.0
 40
0
 41
0
  0
VERTEX
  8
C00-00-00-BLACK
 10
214.136
 20
0
 30
0.0
 40
0
 41
0
  0
VERTEX
  8
C00-00-00-BLACK
 10
214.307
 20
0
 30
0.0
 40
0
 41
0
  0
VERTEX
  8
C00-00-00-BLACK
 10
214.822
 20
0.139182
 30
0.0
 40
0
 41
0
  0
VERTEX
  8
C00-00-00-BLACK
 10
215.383
 20
0.516763
 30
0.0
 40
0
 41
0
  0
VERTEX
  8
C00-00-00-BLACK
 10
215.761
 20
1.07763
 30
0.0
 40
0
 41
0
  0
VERTEX
  8
C00-00-00-BLACK
 10
215.9
 20
1.59301
 30
0.0
 40
0
 41
0
  0
VERTEX
  8
C00-00-00-BLACK
 10
215.9
 20
1.76389
 30
0.0
 40
0
 41
0
  0
SEQEND
 8
0
  0
POLYLINE
  8
C00-00-00-BLACK
 66
     1
 10
0
 20
0
 30
0.0
 70
     1
 40
2
 41
2
  0
VERTEX
  8
C00-00-00-BLACK
 10
53.315
 20
98.0722
 30
0.0
 40
0.705556
 41
0.705556
  0
VERTEX
  8
C00-00-00-BLACK
 10
53.315
 20
99.3525
 30
0.0
 40
0.705556
 41
0.705556
  0
VERTEX
  8
C00-00-00-BLACK
 10
52.7981
 20
103.193
 30
0.0
 40
0.705556
 41
0.705556
  0
VERTEX
  8
C00-00-00-BLACK
 10
51.3182
 20
107.961
 30
0.0
 40
0.705556
 41
0.705556
  0
VERTEX
  8
C00-00-00-BLACK
 10
48.9768
 20
112.276
 30
0.0
 40
0.705556
 41
0.705556
  0
VERTEX
  8
C00-00-00-BLACK
 10
45.8749
 20
116.034
 30
0.0
 40
0.705556
 41
0.705556
  0
VERTEX
  8
C00-00-00-BLACK
 10
42.1171
 20
119.136
 30
0.0
 40
0.705556
 41
0.705556
  0
VERTEX
  8
C00-00-00-BLACK
 10
37.8023
 20
121.477
 30
0.0
 40
0.705556
 41
0.705556
  0
VERTEX
  8
C00-00-00-BLACK
 10
33.0343
 20
122.957
 30
0.0
 40
0.705556
 41
0.705556
  0
VERTEX
  8
C00-00-00-BLACK
 10
29.1937
 20
123.472
 30
0.0
 40
0.705556
 41
0.705556
  0
VERTEX
  8
C00-00-00-BLACK
 10
27.9149
 20
123.472
 30
0.0
 40
0.705556
 41
0.705556
  0
VERTEX
  8
C00-00-00-BLACK
 10
26.6347
 20
123.472
 30
0.0
 40
0.705556
 41
0.705556
  0
VERTEX
  8
C00-00-00-BLACK
 10
22.7941
 20
122.957
 30
0.0
 40
0.705556
 41
0.705556
  0
VERTEX
  8
C00-00-00-BLACK
 10
18.0261
 20
121.477
 30
0.0
 40
0.705556
 41
0.705556
  0
VERTEX
  8
C00-00-00-BLACK
 10
13.7115
 20
119.136
 30
0.0
 40
0.705556
 41
0.705556
  0
VERTEX
  8
C00-00-00-BLACK
 10
9.95355
 20
116.034
 30
0.0
 40
0.705556
 41
0.705556
  0
VERTEX
  8
C00-00-00-BLACK
 10
6.85161
 20
112.276
 30
0.0
 40
0.705556
 41
0.705556
  0
VERTEX
  8
C00-00-00-BLACK
 10
4.51033
 20
107.961
 30
0.0
 40
0.705556
 41
0.705556
  0
VERTEX
  8
C00-00-00-BLACK
 10
3.0303
 20
103.193
 30
0.0
 40
0.705556
 41
0.705556
  0
VERTEX
  8
C00-00-00-BLACK
 10
2.51492
 20
99.3525
 30
0.0
 40
0.705556
 41
0.705556
  0
VERTEX
  8
C00-00-00-BLACK
 10
2.51492
 20
98.0722
 30
0.0
 40
0.705556
 41
0.705556
  0
VERTEX
  8
C00-00-00-BLACK
 10
2.51492
 20
96.7934
 30
0.0
 40
0.705556
 41
0.705556
  0
VERTEX
  8
C00-00-00-BLACK
 10
3.0303
 20
92.9527
 30
0.0
 40
0.705556
 41
0.705556
  0
VERTEX
  8
C00-00-00-BLACK
 10
4.51033
 20
88.1849
 30
0.0
 40
0.705556
 41
0.705556
  0
VERTEX
  8
C00-00-00-BLACK
 10
6.85161
 20
83.8701
 30
0.0
 40
0.705556
 41
0.705556
  0
VERTEX
  8
C00-00-00-BLACK
 10
9.95355
 20
80.1123
 30
0.0
 40
0.705556
 41
0.705556
  0
VERTEX
  8
C00-00-00-BLACK
 10
13.7115
 20
77.0103
 30
0.0
 40
0.705556
 41
0.705556
  0
VERTEX
  8
C00-00-00-BLACK
 10
18.0261
 20
74.6689
 30
0.0
 40
0.705556
 41
0.705556
  0
VERTEX
  8
C00-00-00-BLACK
 10
22.7941
 20
73.189
 30
0.0
 40
0.705556
 41
0.705556
  0
VERTEX
  8
C00-00-00-BLACK
 10
26.6347
 20
72.6722
 30
0.0
 40
0.705556
 41
0.705556
  0
VERTEX
  8
C00-00-00-BLACK
 10
27.9149
 20
72.6722
 30
0.0
 40
0.705556
 41
0.705556
  0
VERTEX
  8
C00-00-00-BLACK
 10
29.1937
 20
72.6722
 30
0.0
 40
0.705556
 41
0.705556
  0
VERTEX
  8
C00-00-00-BLACK
 10
33.0343
 20
73.189
 30
0.0
 40
0.705556
 41
0.705556
  0
VERTEX
  8
C00-00-00-BLACK
 10
37.8023
 20
74.6689
 30
0.0
 40
0.705556
 41
0.705556
  0
VERTEX
  8
C00-00-00-BLACK
 10
42.1171
 20
77.0103
 30
0.0
 40
0.705556
 41
0.705556
  0
VERTEX
  8
C00-00-00-BLACK
 10
45.8749
 20
80.1123
 30
0.0
 40
0.705556
 41
0.705556
  0
VERTEX
  8
C00-00-00-BLACK
 10
48.9768
 20
83.8701
 30
0.0
 40
0.705556
 41
0.705556
  0
VERTEX
  8
C00-00-00-BLACK
 10
51.3182
 20
88.1849
 30
0.0
 40
0.705556
 41
0.705556
  0
VERTEX
  8
C00-00-00-BLACK
 10
52.7981
 20
92.9527
 30
0.0
 40
0.705556
 41
0.705556
  0
VERTEX
  8
C00-00-00-BLACK
 10
53.315
 20
96.7934
 30
0.0
 40
0.705556
 41
0.705556
  0
VERTEX
  8
C00-00-00-BLACK
 10
53.315
 20
98.0722
 30
0.0
 40
0.705556
 41
0.705556
  0
SEQEND
 8
0
  0
POLYLINE
  8
C00-00-00-BLACK
 66
     1
 10
0
 20
0
 30
0.0
 70
     1
 40
2
 41
2
  0
VERTEX
  8
C00-00-00-BLACK
 10
106.673
 20
98.0722
 30
0.0
 40
0.705556
 41
0.705556
  0
VERTEX
  8
C00-00-00-BLACK
 10
106.673
 20
99.3525
 30
0.0
 40
0.705556
 41
0.705556
  0
VERTEX
  8
C00-00-00-BLACK
 10
106.156
 20
103.193
 30
0.0
 40
0.705556
 41
0.705556
  0
VERTEX
  8
C00-00-00-BLACK
 10
104.676
 20
107.961
 30
0.0
 40
0.705556
 41
0.705556
  0
VERTEX
  8
C00-00-00-BLACK
 10
102.334
 20
112.276
 30
0.0
 40
0.705556
 41
0.705556
  0
VERTEX
  8
C00-00-00-BLACK
 10
99.2325
 20
116.034
 30
0.0
 40
0.705556
 41
0.705556
  0
VERTEX
  8
C00-00-00-BLACK
 10
95.4747
 20
119.136
 30
0.0
 40
0.705556
 41
0.705556
  0
VERTEX
  8
C00-00-00-BLACK
 10
91.1599
 20
121.477
 30
0.0
 40
0.705556
 41
0.705556
  0
VERTEX
  8
C00-00-00-BLACK
 10
86.3921
 20
122.957
 30
0.0
 40
0.705556
 41
0.705556
  0
VERTEX
  8
C00-00-00-BLACK
 10
82.5514
 20
123.472
 30
0.0
 40
0.705556
 41
0.705556
  0
VERTEX
  8
C00-00-00-BLACK
 10
81.2726
 20
123.472
 30
0.0
 40
0.705556
 41
0.705556
  0
VERTEX
  8
C00-00-00-BLACK
 10
79.9924
 20
123.472
 30
0.0
 40
0.705556
 41
0.705556
  0
VERTEX
  8
C00-00-00-BLACK
 10
76.1517
 20
122.957
 30
0.0
 40
0.705556
 41
0.705556
  0
VERTEX
  8
C00-00-00-BLACK
 10
71.3839
 20
121.477
 30
0.0
 40
0.705556
 41
0.705556
  0
VERTEX
  8
C00-00-00-BLACK
 10
67.0691
 20
119.136
 30
0.0
 40
0.705556
 41
0.705556
  0
VERTEX
  8
C00-00-00-BLACK
 10
63.3113
 20
116.034
 30
0.0
 40
0.705556
 41
0.705556
  0
VERTEX
  8
C00-00-00-BLACK
 10
60.2093
 20
112.276
 30
0.0
 40
0.705556
 41
0.705556
  0
VERTEX
  8
C00-00-00-BLACK
 10
57.8679
 20
107.961
 30
0.0
 40
0.705556
 41
0.705556
  0
VERTEX
  8
C00-00-00-BLACK
 10
56.388
 20
103.193
 30
0.0
 40
0.705556
 41
0.705556
  0
VERTEX
  8
C00-00-00-BLACK
 10
55.8726
 20
99.3525
 30
0.0
 40
0.705556
 41
0.705556
  0
VERTEX
  8
C00-00-00-BLACK
 10
55.8726
 20
98.0722
 30
0.0
 40
0.705556
 41
0.705556
  0
VERTEX
  8
C00-00-00-BLACK
 10
55.8726
 20
96.7934
 30
0.0
 40
0.705556
 41
0.705556
  0
VERTEX
  8
C00-00-00-BLACK
 10
56.388
 20
92.9527
 30
0.0
 40
0.705556
 41
0.705556
  0
VERTEX
  8
C00-00-00-BLACK
 10
57.8679
 20
88.1849
 30
0.0
 40
0.705556
 41
0.705556
  0
VERTEX
  8
C00-00-00-BLACK
 10
60.2093
 20
83.8701
 30
0.0
 40
0.705556
 41
0.705556
  0
VERTEX
  8
C00-00-00-BLACK
 10
63.3113
 20
80.1123
 30
0.0
 40
0.705556
 41
0.705556
  0
VERTEX
  8
C00-00-00-BLACK
 10
67.0691
 20
77.0103
 30
0.0
 40
0.705556
 41
0.705556
  0
VERTEX
  8
C00-00-00-BLACK
 10
71.3839
 20
74.6689
 30
0.0
 40
0.705556
 41
0.705556
  0
VERTEX
  8
C00-00-00-BLACK
 10
76.1517
 20
73.189
 30
0.0
 40
0.705556
 41
0.705556
  0
VERTEX
  8
C00-00-00-BLACK
 10
79.9924
 20
72.6722
 30
0.0
 40
0.705556
 41
0.705556
  0
VERTEX
  8
C00-00-00-BLACK
 10
81.2726
 20
72.6722
 30
0.0
 40
0.705556
 41
0.705556
  0
VERTEX
  8
C00-00-00-BLACK
 10
82.5514
 20
72.6722
 30
0.0
 40
0.705556
 41
0.705556
  0
VERTEX
  8
C00-00-00-BLACK
 10
86.3921
 20
73.189
 30
0.0
 40
0.705556
 41
0.705556
  0
VERTEX
  8
C00-00-00-BLACK
 10
91.1599
 20
74.6689
 30
0.0
 40
0.705556
 41
0.705556
  0
VERTEX
  8
C00-00-00-BLACK
 10
95.4747
 20
77.0103
 30
0.0
 40
0.705556
 41
0.705556
  0
VERTEX
  8
C00-00-00-BLACK
 10
99.2325
 20
80.1123
 30
0.0
 40
0.705556
 41
0.705556
  0
VERTEX
  8
C00-00-00-BLACK
 10
102.334
 20
83.8701
 30
0.0
 40
0.705556
 41
0.705556
  0
VERTEX
  8
C00-00-00-BLACK
 10
104.676
 20
88.1849
 30
0.0
 40
0.705556
 41
0.705556
  0
VERTEX
  8
C00-00-00-BLACK
 10
106.156
 20
92.9527
 30
0.0
 40
0.705556
 41
0.705556
  0
VERTEX
  8
C00-00-00-BLACK
 10
106.673
 20
96.7934
 30
0.0
 40
0.705556
 41
0.705556
  0
VERTEX
  8
C00-00-00-BLACK
 10
106.673
 20
98.0722
 30
0.0
 40
0.705556
 41
0.705556
  0
SEQEND
 8
0
  0
POLYLINE
  8
C00-00-00-BLACK
 66
     1
 10
0
 20
0
 30
0.0
 70
     1
 40
2
 41
2
  0
VERTEX
  8
C00-00-00-BLACK
 10
160.027
 20
98.0722
 30
0.0
 40
0.705556
 41
0.705556
  0
VERTEX
  8
C00-00-00-BLACK
 10
160.027
 20
99.3525
 30
0.0
 40
0.705556
 41
0.705556
  0
VERTEX
  8
C00-00-00-BLACK
 10
159.511
 20
103.193
 30
0.0
 40
0.705556
 41
0.705556
  0
VERTEX
  8
C00-00-00-BLACK
 10
158.031
 20
107.961
 30
0.0
 40
0.705556
 41
0.705556
  0
VERTEX
  8
C00-00-00-BLACK
 10
155.689
 20
112.276
 30
0.0
 40
0.705556
 41
0.705556
  0
VERTEX
  8
C00-00-00-BLACK
 10
152.587
 20
116.034
 30
0.0
 40
0.705556
 41
0.705556
  0
VERTEX
  8
C00-00-00-BLACK
 10
148.83
 20
119.136
 30
0.0
 40
0.705556
 41
0.705556
  0
VERTEX
  8
C00-00-00-BLACK
 10
144.515
 20
121.477
 30
0.0
 40
0.705556
 41
0.705556
  0
VERTEX
  8
C00-00-00-BLACK
 10
139.747
 20
122.957
 30
0.0
 40
0.705556
 41
0.705556
  0
VERTEX
  8
C00-00-00-BLACK
 10
135.906
 20
123.472
 30
0.0
 40
0.705556
 41
0.705556
  0
VERTEX
  8
C00-00-00-BLACK
 10
134.627
 20
123.472
 30
0.0
 40
0.705556
 41
0.705556
  0
VERTEX
  8
C00-00-00-BLACK
 10
133.347
 20
123.472
 30
0.0
 40
0.705556
 41
0.705556
  0
VERTEX
  8
C00-00-00-BLACK
 10
129.506
 20
122.957
 30
0.0
 40
0.705556
 41
0.705556
  0
VERTEX
  8
C00-00-00-BLACK
 10
124.739
 20
121.477
 30
0.0
 40
0.705556
 41
0.705556
  0
VERTEX
  8
C00-00-00-BLACK
 10
120.424
 20
119.136
 30
0.0
 40
0.705556
 41
0.705556
  0
VERTEX
  8
C00-00-00-BLACK
 10
116.666
 20
116.034
 30
0.0
 40
0.705556
 41
0.705556
  0
VERTEX
  8
C00-00-00-BLACK
 10
113.564
 20
112.276
 30
0.0
 40
0.705556
 41
0.705556
  0
VERTEX
  8
C00-00-00-BLACK
 10
111.223
 20
107.961
 30
0.0
 40
0.705556
 41
0.705556
  0
VERTEX
  8
C00-00-00-BLACK
 10
109.743
 20
103.193
 30
0.0
 40
0.705556
 41
0.705556
  0
VERTEX
  8
C00-00-00-BLACK
 10
109.227
 20
99.3525
 30
0.0
 40
0.705556
 41
0.705556
  0
VERTEX
  8
C00-00-00-BLACK
 10
109.227
 20
98.0722
 30
0.0
 40
0.705556
 41
0.705556
  0
VERTEX
  8
C00-00-00-BLACK
 10
109.227
 20
96.7934
 30
0.0
 40
0.705556
 41
0.705556
  0
VERTEX
  8
C00-00-00-BLACK
 10
109.743
 20
92.9527
 30
0.0
 40
0.705556
 41
0.705556
  0
VERTEX
  8
C00-00-00-BLACK
 10
111.223
 20
88.1849
 30
0.0
 40
0.705556
 41
0.705556
  0
VERTEX
  8
C00-00-00-BLACK
 10
113.564
 20
83.8701
 30
0.0
 40
0.705556
 41
0.705556
  0
VERTEX
  8
C00-00-00-BLACK
 10
116.666
 20
80.1123
 30
0.0
 40
0.705556
 41
0.705556
  0
VERTEX
  8
C00-00-00-BLACK
 10
120.424
 20
77.0103
 30
0.0
 40
0.705556
 41
0.705556
  0
VERTEX
  8
C00-00-00-BLACK
 10
124.739
 20
74.6689
 30
0.0
 40
0.705556
 41
0.705556
  0
VERTEX
  8
C00-00-00-BLACK
 10
129.506
 20
73.189
 30
0.0
 40
0.705556
 41
0.705556
  0
VERTEX
  8
C00-00-00-BLACK
 10
133.347
 20
72.6722
 30
0.0
 40
0.705556
 41
0.705556
  0
VERTEX
  8
C00-00-00-BLACK
 10
134.627
 20
72.6722
 30
0.0
 40
0.705556
 41
0.705556
  0
VERTEX
  8
C00-00-00-BLACK
 10
135.906
 20
72.6722
 30
0.0
 40
0.705556
 41
0.705556
  0
VERTEX
  8
C00-00-00-BLACK
 10
139.747
 20
73.189
 30
0.0
 40
0.705556
 41
0.705556
  0
VERTEX
  8
C00-00-00-BLACK
 10
144.515
 20
74.6689
 30
0.0
 40
0.705556
 41
0.705556
  0
VERTEX
  8
C00-00-00-BLACK
 10
148.83
 20
77.0103
 30
0.0
 40
0.705556
 41
0.705556
  0
VERTEX
  8
C00-00-00-BLACK
 10
152.587
 20
80.1123
 30
0.0
 40
0.705556
 41
0.705556
  0
VERTEX
  8
C00-00-00-BLACK
 10
155.689
 20
83.8701
 30
0.0
 40
0.705556
 41
0.705556
  0
VERTEX
  8
C00-00-00-BLACK
 10
158.031
 20
88.1849
 30
0.0
 40
0.705556
 41
0.705556
  0
VERTEX
  8
C00-00-00-BLACK
 10
159.511
 20
92.9527
 30
0.0
 40
0.705556
 41
0.705556
  0
VERTEX
  8
C00-00-00-BLACK
 10
160.027
 20
96.7934
 30
0.0
 40
0.705556
 41
0.705556
  0
VERTEX
  8
C00-00-00-BLACK
 10
160.027
 20
98.0722
 30
0.0
 40
0.705556
 41
0.705556
  0
SEQEND
 8
0
  0
POLYLINE
  8
C00-00-00-BLACK
 66
     1
 10
0
 20
0
 30
0.0
 70
     1
 40
2
 41
2
  0
VERTEX
  8
C00-00-00-BLACK
 10
213.385
 20
98.0722
 30
0.0
 40
0.705556
 41
0.705556
  0
VERTEX
  8
C00-00-00-BLACK
 10
213.385
 20
99.3525
 30
0.0
 40
0.705556
 41
0.705556
  0
VERTEX
  8
C00-00-00-BLACK
 10
212.868
 20
103.193
 30
0.0
 40
0.705556
 41
0.705556
  0
VERTEX
  8
C00-00-00-BLACK
 10
211.388
 20
107.961
 30
0.0
 40
0.705556
 41
0.705556
  0
VERTEX
  8
C00-00-00-BLACK
 10
209.047
 20
112.276
 30
0.0
 40
0.705556
 41
0.705556
  0
VERTEX
  8
C00-00-00-BLACK
 10
205.945
 20
116.034
 30
0.0
 40
0.705556
 41
0.705556
  0
VERTEX
  8
C00-00-00-BLACK
 10
202.187
 20
119.136
 30
0.0
 40
0.705556
 41
0.705556
  0
VERTEX
  8
C00-00-00-BLACK
 10
197.872
 20
121.477
 30
0.0
 40
0.705556
 41
0.705556
  0
VERTEX
  8
C00-00-00-BLACK
 10
193.105
 20
122.957
 30
0.0
 40
0.705556
 41
0.705556
  0
VERTEX
  8
C00-00-00-BLACK
 10
189.264
 20
123.472
 30
0.0
 40
0.705556
 41
0.705556
  0
VERTEX
  8
C00-00-00-BLACK
 10
187.985
 20
123.472
 30
0.0
 40
0.705556
 41
0.705556
  0
VERTEX
  8
C00-00-00-BLACK
 10
186.705
 20
123.472
 30
0.0
 40
0.705556
 41
0.705556
  0
VERTEX
  8
C00-00-00-BLACK
 10
182.864
 20
122.957
 30
0.0
 40
0.705556
 41
0.705556
  0
VERTEX
  8
C00-00-00-BLACK
 10
178.096
 20
121.477
 30
0.0
 40
0.705556
 41
0.705556
  0
VERTEX
  8
C00-00-00-BLACK
 10
173.782
 20
119.136
 30
0.0
 40
0.705556
 41
0.705556
  0
VERTEX
  8
C00-00-00-BLACK
 10
170.024
 20
116.034
 30
0.0
 40
0.705556
 41
0.705556
  0
VERTEX
  8
C00-00-00-BLACK
 10
166.922
 20
112.276
 30
0.0
 40
0.705556
 41
0.705556
  0
VERTEX
  8
C00-00-00-BLACK
 10
164.58
 20
107.961
 30
0.0
 40
0.705556
 41
0.705556
  0
VERTEX
  8
C00-00-00-BLACK
 10
163.1
 20
103.193
 30
0.0
 40
0.705556
 41
0.705556
  0
VERTEX
  8
C00-00-00-BLACK
 10
162.585
 20
99.3525
 30
0.0
 40
0.705556
 41
0.705556
  0
VERTEX
  8
C00-00-00-BLACK
 10
162.585
 20
98.0722
 30
0.0
 40
0.705556
 41
0.705556
  0
VERTEX
  8
C00-00-00-BLACK
 10
162.585
 20
96.7934
 30
0.0
 40
0.705556
 41
0.705556
  0
VERTEX
  8
C00-00-00-BLACK
 10
163.1
 20
92.9527
 30
0.0
 40
0.705556
 41
0.705556
  0
VERTEX
  8
C00-00-00-BLACK
 10
164.58
 20
88.1849
 30
0.0
 40
0.705556
 41
0.705556
  0
VERTEX
  8
C00-00-00-BLACK
 10
166.922
 20
83.8701
 30
0.0
 40
0.705556
 41
0.705556
  0
VERTEX
  8
C00-00-00-BLACK
 10
170.024
 20
80.1123
 30
0.0
 40
0.705556
 41
0.705556
  0
VERTEX
  8
C00-00-00-BLACK
 10
173.782
 20
77.0103
 30
0.0
 40
0.705556
 41
0.705556
  0
VERTEX
  8
C00-00-00-BLACK
 10
178.096
 20
74.6689
 30
0.0
 40
0.705556
 41
0.705556
  0
VERTEX
  8
C00-00-00-BLACK
 10
182.864
 20
73.189
 30
0.0
 40
0.705556
 41
0.705556
  0
VERTEX
  8
C00-00-00-BLACK
 10
186.705
 20
72.6722
 30
0.0
 40
0.705556
 41
0.705556
  0
VERTEX
  8
C00-00-00-BLACK
 10
187.985
 20
72.6722
 30
0.0
 40
0.705556
 41
0.705556
  0
VERTEX
  8
C00-00-00-BLACK
 10
189.264
 20
72.6722
 30
0.0
 40
0.705556
 41
0.705556
  0
VERTEX
  8
C00-00-00-BLACK
 10
193.105
 20
73.189
 30
0.0
 40
0.705556
 41
0.705556
  0
VERTEX
  8
C00-00-00-BLACK
 10
197.872
 20
74.6689
 30
0.0
 40
0.705556
 41
0.705556
  0
VERTEX
  8
C00-00-00-BLACK
 10
202.187
 20
77.0103
 30
0.0
 40
0.705556
 41
0.705556
  0
VERTEX
  8
C00-00-00-BLACK
 10
205.945
 20
80.1123
 30
0.0
 40
0.705556
 41
0.705556
  0
VERTEX
  8
C00-00-00-BLACK
 10
209.047
 20
83.8701
 30
0.0
 40
0.705556
 41
0.705556
  0
VERTEX
  8
C00-00-00-BLACK
 10
211.388
 20
88.1849
 30
0.0
 40
0.705556
 41
0.705556
  0
VERTEX
  8
C00-00-00-BLACK
 10
212.868
 20
92.9527
 30
0.0
 40
0.705556
 41
0.705556
  0
VERTEX
  8
C00-00-00-BLACK
 10
213.385
 20
96.7934
 30
0.0
 40
0.705556
 41
0.705556
  0
VERTEX
  8
C00-00-00-BLACK
 10
213.385
 20
98.0722
 30
0.0
 40
0.705556
 41
0.705556
  0
SEQEND
 8
0
  0
POLYLINE
  8
C00-00-00-BLACK
 66
     1
 10
0
 20
0
 30
0.0
 70
     1
 40
0
 41
0
  0
VERTEX
  8
C00-00-00-BLACK
 10
3.52778
 20
277.636
 30
0.0
 40
0
 41
0
  0
VERTEX
  8
C00-00-00-BLACK
 10
3.52778
 20
277.808
 30
0.0
 40
0
 41
0
  0
VERTEX
  8
C00-00-00-BLACK
 10
3.3886
 20
278.324
 30
0.0
 40
0
 41
0
  0
VERTEX
  8
C00-00-00-BLACK
 10
3.01101
 20
278.885
 30
0.0
 40
0
 41
0
  0
VERTEX
  8
C00-00-00-BLACK
 10
2.45015
 20
279.262
 30
0.0
 40
0
 41
0
  0
VERTEX
  8
C00-00-00-BLACK
 10
1.93477
 20
279.4
 30
0.0
 40
0
 41
0
  0
VERTEX
  8
C00-00-00-BLACK
 10
1.76389
 20
279.4
 30
0.0
 40
0
 41
0
  0
VERTEX
  8
C00-00-00-BLACK
 10
1.59163
 20
279.4
 30
0.0
 40
0
 41
0
  0
VERTEX
  8
C00-00-00-BLACK
 10
1.07625
 20
279.262
 30
0.0
 40
0
 41
0
  0
VERTEX
  8
C00-00-00-BLACK
 10
0.515387
 20
278.885
 30
0.0
 40
0
 41
0
  0
VERTEX
  8
C00-00-00-BLACK
 10
0.137804
 20
278.324
 30
0.0
 40
0
 41
0
  0
VERTEX
  8
C00-00-00-BLACK
 10
0
 20
277.808
 30
0.0
 40
0
 41
0
  0
VERTEX
  8
C00-00-00-BLACK
 10
0
 20
277.636
 30
0.0
 40
0
 41
0
  0
VERTEX
  8
C00-00-00-BLACK
 10
0
 20
277.465
 30
0.0
 40
0
 41
0
  0
VERTEX
  8
C00-00-00-BLACK
 10
0.137804
 20
276.95
 30
0.0
 40
0
 41
0
  0
VERTEX
  8
C00-00-00-BLACK
 10
0.515387
 20
276.389
 30
0.0
 40
0
 41
0
  0
VERTEX
  8
C00-00-00-BLACK
 10
1.07625
 20
276.012
 30
0.0
 40
0
 41
0
  0
VERTEX
  8
C00-00-00-BLACK
 10
1.59163
 20
275.872
 30
0.0
 40
0
 41
0
  0
VERTEX
  8
C00-00-00-BLACK
 10
1.76389
 20
275.872
 30
0.0
 40
0
 41
0
  0
VERTEX
  8
C00-00-00-BLACK
 10
1.93477
 20
275.872
 30
0.0
 40
0
 41
0
  0
VERTEX
  8
C00-00-00-BLACK
 10
2.45015
 20
276.012
 30
0.0
 40
0
 41
0
  0
VERTEX
  8
C00-00-00-BLACK
 10
3.01101
 20
276.389
 30
0.0
 40
0
 41
0
  0
VERTEX
  8
C00-00-00-BLACK
 10
3.3886
 20
276.95
 30
0.0
 40
0
 41
0
  0
VERTEX
  8
C00-00-00-BLACK
 10
3.52778
 20
277.465
 30
0.0
 40
0
 41
0
  0
VERTEX
  8
C00-00-00-BLACK
 10
3.52778
 20
277.636
 30
0.0
 40
0
 41
0
  0
SEQEND
 8
0
  0
POLYLINE
  8
C00-00-00-BLACK
 66
     1
 10
0
 20
0
 30
0.0
 70
     1
 40
0
 41
0
  0
VERTEX
  8
C00-00-00-BLACK
 10
215.9
 20
277.636
 30
0.0
 40
0
 41
0
  0
VERTEX
  8
C00-00-00-BLACK
 10
215.9
 20
277.808
 30
0.0
 40
0
 41
0
  0
VERTEX
  8
C00-00-00-BLACK
 10
215.761
 20
278.324
 30
0.0
 40
0
 41
0
  0
VERTEX
  8
C00-00-00-BLACK
 10
215.383
 20
278.885
 30
0.0
 40
0
 41
0
  0
VERTEX
  8
C00-00-00-BLACK
 10
214.822
 20
279.262
 30
0.0
 40
0
 41
0
  0
VERTEX
  8
C00-00-00-BLACK
 10
214.307
 20
279.4
 30
0.0
 40
0
 41
0
  0
VERTEX
  8
C00-00-00-BLACK
 10
214.136
 20
279.4
 30
0.0
 40
0
 41
0
  0
VERTEX
  8
C00-00-00-BLACK
 10
213.964
 20
279.4
 30
0.0
 40
0
 41
0
  0
VERTEX
  8
C00-00-00-BLACK
 10
213.449
 20
279.262
 30
0.0
 40
0
 41
0
  0
VERTEX
  8
C00-00-00-BLACK
 10
212.888
 20
278.885
 30
0.0
 40
0
 41
0
  0
VERTEX
  8
C00-00-00-BLACK
 10
212.51
 20
278.324
 30
0.0
 40
0
 41
0
  0
VERTEX
  8
C00-00-00-BLACK
 10
212.372
 20
277.808
 30
0.0
 40
0
 41
0
  0
VERTEX
  8
C00-00-00-BLACK
 10
212.372
 20
277.636
 30
0.0
 40
0
 41
0
  0
VERTEX
  8
C00-00-00-BLACK
 10
212.372
 20
277.465
 30
0.0
 40
0
 41
0
  0
VERTEX
  8
C00-00-00-BLACK
 10
212.51
 20
276.95
 30
0.0
 40
0
 41
0
  0
VERTEX
  8
C00-00-00-BLACK
 10
212.888
 20
276.389
 30
0.0
 40
0
 41
0
  0
VERTEX
  8
C00-00-00-BLACK
 10
213.449
 20
276.012
 30
0.0
 40
0
 41
0
  0
VERTEX
  8
C00-00-00-BLACK
 10
213.964
 20
275.872
 30
0.0
 40
0
 41
0
  0
VERTEX
  8
C00-00-00-BLACK
 10
214.136
 20
275.872
 30
0.0
 40
0
 41
0
  0
VERTEX
  8
C00-00-00-BLACK
 10
214.307
 20
275.872
 30
0.0
 40
0
 41
0
  0
VERTEX
  8
C00-00-00-BLACK
 10
214.822
 20
276.012
 30
0.0
 40
0
 41
0
  0
VERTEX
  8
C00-00-00-BLACK
 10
215.383
 20
276.389
 30
0.0
 40
0
 41
0
  0
VERTEX
  8
C00-00-00-BLACK
 10
215.761
 20
276.95
 30
0.0
 40
0
 41
0
  0
VERTEX
  8
C00-00-00-BLACK
 10
215.9
 20
277.465
 30
0.0
 40
0
 41
0
  0
VERTEX
  8
C00-00-00-BLACK
 10
215.9
 20
277.636
 30
0.0
 40
0
 41
0
  0
SEQEND
 8
0
  0
POLYLINE
  8
C00-00-00-BLACK
 66
     1
 10
0
 20
0
 30
0.0
 70
     1
 40
0
 41
0
  0
VERTEX
  8
C00-00-00-BLACK
 10
3.52778
 20
1.76389
 30
0.0
 40
0
 41
0
  0
VERTEX
  8
C00-00-00-BLACK
 10
3.52778
 20
1.93614
 30
0.0
 40
0
 41
0
  0
VERTEX
  8
C00-00-00-BLACK
 10
3.3886
 20
2.45153
 30
0.0
 40
0
 41
0
  0
VERTEX
  8
C00-00-00-BLACK
 10
3.01101
 20
3.01239
 30
0.0
 40
0
 41
0
  0
VERTEX
  8
C00-00-00-BLACK
 10
2.45015
 20
3.38998
 30
0.0
 40
0
 41
0
  0
VERTEX
  8
C00-00-00-BLACK
 10
1.93477
 20
3.52778
 30
0.0
 40
0
 41
0
  0
VERTEX
  8
C00-00-00-BLACK
 10
1.76389
 20
3.52778
 30
0.0
 40
0
 41
0
  0
VERTEX
  8
C00-00-00-BLACK
 10
1.59163
 20
3.52778
 30
0.0
 40
0
 41
0
  0
VERTEX
  8
C00-00-00-BLACK
 10
1.07625
 20
3.38998
 30
0.0
 40
0
 41
0
  0
VERTEX
  8
C00-00-00-BLACK
 10
0.515387
 20
3.01239
 30
0.0
 40
0
 41
0
  0
VERTEX
  8
C00-00-00-BLACK
 10
0.137804
 20
2.45153
 30
0.0
 40
0
 41
0
  0
VERTEX
  8
C00-00-00-BLACK
 10
0
 20
1.93614
 30
0.0
 40
0
 41
0
  0
VERTEX
  8
C00-00-00-BLACK
 10
0
 20
1.76389
 30
0.0
 40
0
 41
0
  0
VERTEX
  8
C00-00-00-BLACK
 10
0
 20
1.59301
 30
0.0
 40
0
 41
0
  0
VERTEX
  8
C00-00-00-BLACK
 10
0.137804
 20
1.07763
 30
0.0
 40
0
 41
0
  0
VERTEX
  8
C00-00-00-BLACK
 10
0.515387
 20
0.516763
 30
0.0
 40
0
 41
0
  0
VERTEX
  8
C00-00-00-BLACK
 10
1.07625
 20
0.139182
 30
0.0
 40
0
 41
0
  0
VERTEX
  8
C00-00-00-BLACK
 10
1.59163
 20
0
 30
0.0
 40
0
 41
0
  0
VERTEX
  8
C00-00-00-BLACK
 10
1.76389
 20
0
 30
0.0
 40
0
 41
0
  0
VERTEX
  8
C00-00-00-BLACK
 10
1.93477
 20
0
 30
0.0
 40
0
 41
0
  0
VERTEX
  8
C00-00-00-BLACK
 10
2.45015
 20
0.139182
 30
0.0
 40
0
 41
0
  0
VERTEX
  8
C00-00-00-BLACK
 10
3.01101
 20
0.516763
 30
0.0
 40
0
 41
0
  0
VERTEX
  8
C00-00-00-BLACK
 10
3.3886
 20
1.07763
 30
0.0
 40
0
 41
0
  0
VERTEX
  8
C00-00-00-BLACK
 10
3.52778
 20
1.59301
 30
0.0
 40
0
 41
0
  0
VERTEX
  8
C00-00-00-BLACK
 10
3.52778
 20
1.76389
 30
0.0
 40
0
 41
0
  0
SEQEND
 8
0
  0
POLYLINE
  8
C00-00-00-BLACK
 66
     1
 10
0
 20
0
 30
0.0
 70
     1
 40
0
 41
0
  0
VERTEX
  8
C00-00-00-BLACK
 10
215.9
 20
1.76389
 30
0.0
 40
0
 41
0
  0
VERTEX
  8
C00-00-00-BLACK
 10
215.9
 20
1.93614
 30
0.0
 40
0
 41
0
  0
VERTEX
  8
C00-00-00-BLACK
 10
215.761
 20
2.45153
 30
0.0
 40
0
 41
0
  0
VERTEX
  8
C00-00-00-BLACK
 10
215.383
 20
3.01239
 30
0.0
 40
0
 41
0
  0
VERTEX
  8
C00-00-00-BLACK
 10
214.822
 20
3.38998
 30
0.0
 40
0
 41
0
  0
VERTEX
  8
C00-00-00-BLACK
 10
214.307
 20
3.52778
 30
0.0
 40
0
 41
0
  0
VERTEX
  8
C00-00-00-BLACK
 10
214.136
 20
3.52778
 30
0.0
 40
0
 41
0
  0
VERTEX
  8
C00-00-00-BLACK
 10
213.964
 20
3.52778
 30
0.0
 40
0
 41
0
  0
VERTEX
  8
C00-00-00-BLACK
 10
213.449
 20
3.38998
 30
0.0
 40
0
 41
0
  0
VERTEX
  8
C00-00-00-BLACK
 10
212.888
 20
3.01239
 30
0.0
 40
0
 41
0
  0
VERTEX
  8
C00-00-00-BLACK
 10
212.51
 20
2.45153
 30
0.0
 40
0
 41
0
  0
VERTEX
  8
C00-00-00-BLACK
 10
212.372
 20
1.93614
 30
0.0
 40
0
 41
0
  0
VERTEX
  8
C00-00-00-BLACK
 10
212.372
 20
1.76389
 30
0.0
 40
0
 41
0
  0
VERTEX
  8
C00-00-00-BLACK
 10
212.372
 20
1.59301
 30
0.0
 40
0
 41
0
  0
VERTEX
  8
C00-00-00-BLACK
 10
212.51
 20
1.07763
 30
0.0
 40
0
 41
0
  0
VERTEX
  8
C00-00-00-BLACK
 10
212.888
 20
0.516763
 30
0.0
 40
0
 41
0
  0
VERTEX
  8
C00-00-00-BLACK
 10
213.449
 20
0.139182
 30
0.0
 40
0
 41
0
  0
VERTEX
  8
C00-00-00-BLACK
 10
213.964
 20
0
 30
0.0
 40
0
 41
0
  0
VERTEX
  8
C00-00-00-BLACK
 10
214.136
 20
0
 30
0.0
 40
0
 41
0
  0
VERTEX
  8
C00-00-00-BLACK
 10
214.307
 20
0
 30
0.0
 40
0
 41
0
  0
VERTEX
  8
C00-00-00-BLACK
 10
214.822
 20
0.139182
 30
0.0
 40
0
 41
0
  0
VERTEX
  8
C00-00-00-BLACK
 10
215.383
 20
0.516763
 30
0.0
 40
0
 41
0
  0
VERTEX
  8
C00-00-00-BLACK
 10
215.761
 20
1.07763
 30
0.0
 40
0
 41
0
  0
VERTEX
  8
C00-00-00-BLACK
 10
215.9
 20
1.59301
 30
0.0
 40
0
 41
0
  0
VERTEX
  8
C00-00-00-BLACK
 10
215.9
 20
1.76389
 30
0.0
 40
0
 41
0
  0
SEQEND
 8
0
  0
POLYLINE
  8
C00-00-00-BLACK
 66
     1
 10
0
 20
0
 30
0.0
 70
     1
 40
2
 41
2
  0
VERTEX
  8
C00-00-00-BLACK
 10
53.315
 20
47.2722
 30
0.0
 40
0.705556
 41
0.705556
  0
VERTEX
  8
C00-00-00-BLACK
 10
53.315
 20
48.5525
 30
0.0
 40
0.705556
 41
0.705556
  0
VERTEX
  8
C00-00-00-BLACK
 10
52.7981
 20
52.3931
 30
0.0
 40
0.705556
 41
0.705556
  0
VERTEX
  8
C00-00-00-BLACK
 10
51.3182
 20
57.1609
 30
0.0
 40
0.705556
 41
0.705556
  0
VERTEX
  8
C00-00-00-BLACK
 10
48.9768
 20
61.4758
 30
0.0
 40
0.705556
 41
0.705556
  0
VERTEX
  8
C00-00-00-BLACK
 10
45.8749
 20
65.2336
 30
0.0
 40
0.705556
 41
0.705556
  0
VERTEX
  8
C00-00-00-BLACK
 10
42.1171
 20
68.3355
 30
0.0
 40
0.705556
 41
0.705556
  0
VERTEX
  8
C00-00-00-BLACK
 10
37.8023
 20
70.6769
 30
0.0
 40
0.705556
 41
0.705556
  0
VERTEX
  8
C00-00-00-BLACK
 10
33.0343
 20
72.1568
 30
0.0
 40
0.705556
 41
0.705556
  0
VERTEX
  8
C00-00-00-BLACK
 10
29.1937
 20
72.6722
 30
0.0
 40
0.705556
 41
0.705556
  0
VERTEX
  8
C00-00-00-BLACK
 10
27.9149
 20
72.6722
 30
0.0
 40
0.705556
 41
0.705556
  0
VERTEX
  8
C00-00-00-BLACK
 10
26.6347
 20
72.6722
 30
0.0
 40
0.705556
 41
0.705556
  0
VERTEX
  8
C00-00-00-BLACK
 10
22.7941
 20
72.1568
 30
0.0
 40
0.705556
 41
0.705556
  0
VERTEX
  8
C00-00-00-BLACK
 10
18.0261
 20
70.6769
 30
0.0
 40
0.705556
 41
0.705556
  0
VERTEX
  8
C00-00-00-BLACK
 10
13.7115
 20
68.3355
 30
0.0
 40
0.705556
 41
0.705556
  0
VERTEX
  8
C00-00-00-BLACK
 10
9.95355
 20
65.2336
 30
0.0
 40
0.705556
 41
0.705556
  0
VERTEX
  8
C00-00-00-BLACK
 10
6.85161
 20
61.4758
 30
0.0
 40
0.705556
 41
0.705556
  0
VERTEX
  8
C00-00-00-BLACK
 10
4.51033
 20
57.1609
 30
0.0
 40
0.705556
 41
0.705556
  0
VERTEX
  8
C00-00-00-BLACK
 10
3.0303
 20
52.3931
 30
0.0
 40
0.705556
 41
0.705556
  0
VERTEX
  8
C00-00-00-BLACK
 10
2.51492
 20
48.5525
 30
0.0
 40
0.705556
 41
0.705556
  0
VERTEX
  8
C00-00-00-BLACK
 10
2.51492
 20
47.2722
 30
0.0
 40
0.705556
 41
0.705556
  0
VERTEX
  8
C00-00-00-BLACK
 10
2.51492
 20
45.9934
 30
0.0
 40
0.705556
 41
0.705556
  0
VERTEX
  8
C00-00-00-BLACK
 10
3.0303
 20
42.1527
 30
0.0
 40
0.705556
 41
0.705556
  0
VERTEX
  8
C00-00-00-BLACK
 10
4.51033
 20
37.3849
 30
0.0
 40
0.705556
 41
0.705556
  0
VERTEX
  8
C00-00-00-BLACK
 10
6.85161
 20
33.0702
 30
0.0
 40
0.705556
 41
0.705556
  0
VERTEX
  8
C00-00-00-BLACK
 10
9.95355
 20
29.3122
 30
0.0
 40
0.705556
 41
0.705556
  0
VERTEX
  8
C00-00-00-BLACK
 10
13.7115
 20
26.2103
 30
0.0
 40
0.705556
 41
0.705556
  0
VERTEX
  8
C00-00-00-BLACK
 10
18.0261
 20
23.869
 30
0.0
 40
0.705556
 41
0.705556
  0
VERTEX
  8
C00-00-00-BLACK
 10
22.7941
 20
22.389
 30
0.0
 40
0.705556
 41
0.705556
  0
VERTEX
  8
C00-00-00-BLACK
 10
26.6347
 20
21.8722
 30
0.0
 40
0.705556
 41
0.705556
  0
VERTEX
  8
C00-00-00-BLACK
 10
27.9149
 20
21.8722
 30
0.0
 40
0.705556
 41
0.705556
  0
VERTEX
  8
C00-00-00-BLACK
 10
29.1937
 20
21.8722
 30
0.0
 40
0.705556
 41
0.705556
  0
VERTEX
  8
C00-00-00-BLACK
 10
33.0343
 20
22.389
 30
0.0
 40
0.705556
 41
0.705556
  0
VERTEX
  8
C00-00-00-BLACK
 10
37.8023
 20
23.869
 30
0.0
 40
0.705556
 41
0.705556
  0
VERTEX
  8
C00-00-00-BLACK
 10
42.1171
 20
26.2103
 30
0.0
 40
0.705556
 41
0.705556
  0
VERTEX
  8
C00-00-00-BLACK
 10
45.8749
 20
29.3122
 30
0.0
 40
0.705556
 41
0.705556
  0
VERTEX
  8
C00-00-00-BLACK
 10
48.9768
 20
33.0702
 30
0.0
 40
0.705556
 41
0.705556
  0
VERTEX
  8
C00-00-00-BLACK
 10
51.3182
 20
37.3849
 30
0.0
 40
0.705556
 41
0.705556
  0
VERTEX
  8
C00-00-00-BLACK
 10
52.7981
 20
42.1527
 30
0.0
 40
0.705556
 41
0.705556
  0
VERTEX
  8
C00-00-00-BLACK
 10
53.315
 20
45.9934
 30
0.0
 40
0.705556
 41
0.705556
  0
VERTEX
  8
C00-00-00-BLACK
 10
53.315
 20
47.2722
 30
0.0
 40
0.705556
 41
0.705556
  0
SEQEND
 8
0
  0
POLYLINE
  8
C00-00-00-BLACK
 66
     1
 10
0
 20
0
 30
0.0
 70
     1
 40
2
 41
2
  0
VERTEX
  8
C00-00-00-BLACK
 10
106.673
 20
47.2722
 30
0.0
 40
0.705556
 41
0.705556
  0
VERTEX
  8
C00-00-00-BLACK
 10
106.673
 20
48.5525
 30
0.0
 40
0.705556
 41
0.705556
  0
VERTEX
  8
C00-00-00-BLACK
 10
106.156
 20
52.3931
 30
0.0
 40
0.705556
 41
0.705556
  0
VERTEX
  8
C00-00-00-BLACK
 10
104.676
 20
57.1609
 30
0.0
 40
0.705556
 41
0.705556
  0
VERTEX
  8
C00-00-00-BLACK
 10
102.334
 20
61.4758
 30
0.0
 40
0.705556
 41
0.705556
  0
VERTEX
  8
C00-00-00-BLACK
 10
99.2325
 20
65.2336
 30
0.0
 40
0.705556
 41
0.705556
  0
VERTEX
  8
C00-00-00-BLACK
 10
95.4747
 20
68.3355
 30
0.0
 40
0.705556
 41
0.705556
  0
VERTEX
  8
C00-00-00-BLACK
 10
91.1599
 20
70.6769
 30
0.0
 40
0.705556
 41
0.705556
  0
VERTEX
  8
C00-00-00-BLACK
 10
86.3921
 20
72.1568
 30
0.0
 40
0.705556
 41
0.705556
  0
VERTEX
  8
C00-00-00-BLACK
 10
82.5514
 20
72.6722
 30
0.0
 40
0.705556
 41
0.705556
  0
VERTEX
  8
C00-00-00-BLACK
 10
81.2726
 20
72.6722
 30
0.0
 40
0.705556
 41
0.705556
  0
VERTEX
  8
C00-00-00-BLACK
 10
79.9924
 20
72.6722
 30
0.0
 40
0.705556
 41
0.705556
  0
VERTEX
  8
C00-00-00-BLACK
 10
76.1517
 20
72.1568
 30
0.0
 40
0.705556
 41
0.705556
  0
VERTEX
  8
C00-00-00-BLACK
 10
71.3839
 20
70.6769
 30
0.0
 40
0.705556
 41
0.705556
  0
VERTEX
  8
C00-00-00-BLACK
 10
67.0691
 20
68.3355
 30
0.0
 40
0.705556
 41
0.705556
  0
VERTEX
  8
C00-00-00-BLACK
 10
63.3113
 20
65.2336
 30
0.0
 40
0.705556
 41
0.705556
  0
VERTEX
  8
C00-00-00-BLACK
 10
60.2093
 20
61.4758
 30
0.0
 40
0.705556
 41
0.705556
  0
VERTEX
  8
C00-00-00-BLACK
 10
57.8679
 20
57.1609
 30
0.0
 40
0.705556
 41
0.705556
  0
VERTEX
  8
C00-00-00-BLACK
 10
56.388
 20
52.3931
 30
0.0
 40
0.705556
 41
0.705556
  0
VERTEX
  8
C00-00-00-BLACK
 10
55.8726
 20
48.5525
 30
0.0
 40
0.705556
 41
0.705556
  0
VERTEX
  8
C00-00-00-BLACK
 10
55.8726
 20
47.2722
 30
0.0
 40
0.705556
 41
0.705556
  0
VERTEX
  8
C00-00-00-BLACK
 10
55.8726
 20
45.9934
 30
0.0
 40
0.705556
 41
0.705556
  0
VERTEX
  8
C00-00-00-BLACK
 10
56.388
 20
42.1527
 30
0.0
 40
0.705556
 41
0.705556
  0
VERTEX
  8
C00-00-00-BLACK
 10
57.8679
 20
37.3849
 30
0.0
 40
0.705556
 41
0.705556
  0
VERTEX
  8
C00-00-00-BLACK
 10
60.2093
 20
33.0702
 30
0.0
 40
0.705556
 41
0.705556
  0
VERTEX
  8
C00-00-00-BLACK
 10
63.3113
 20
29.3122
 30
0.0
 40
0.705556
 41
0.705556
  0
VERTEX
  8
C00-00-00-BLACK
 10
67.0691
 20
26.2103
 30
0.0
 40
0.705556
 41
0.705556
  0
VERTEX
  8
C00-00-00-BLACK
 10
71.3839
 20
23.869
 30
0.0
 40
0.705556
 41
0.705556
  0
VERTEX
  8
C00-00-00-BLACK
 10
76.1517
 20
22.389
 30
0.0
 40
0.705556
 41
0.705556
  0
VERTEX
  8
C00-00-00-BLACK
 10
79.9924
 20
21.8722
 30
0.0
 40
0.705556
 41
0.705556
  0
VERTEX
  8
C00-00-00-BLACK
 10
81.2726
 20
21.8722
 30
0.0
 40
0.705556
 41
0.705556
  0
VERTEX
  8
C00-00-00-BLACK
 10
82.5514
 20
21.8722
 30
0.0
 40
0.705556
 41
0.705556
  0
VERTEX
  8
C00-00-00-BLACK
 10
86.3921
 20
22.389
 30
0.0
 40
0.705556
 41
0.705556
  0
VERTEX
  8
C00-00-00-BLACK
 10
91.1599
 20
23.869
 30
0.0
 40
0.705556
 41
0.705556
  0
VERTEX
  8
C00-00-00-BLACK
 10
95.4747
 20
26.2103
 30
0.0
 40
0.705556
 41
0.705556
  0
VERTEX
  8
C00-00-00-BLACK
 10
99.2325
 20
29.3122
 30
0.0
 40
0.705556
 41
0.705556
  0
VERTEX
  8
C00-00-00-BLACK
 10
102.334
 20
33.0702
 30
0.0
 40
0.705556
 41
0.705556
  0
VERTEX
  8
C00-00-00-BLACK
 10
104.676
 20
37.3849
 30
0.0
 40
0.705556
 41
0.705556
  0
VERTEX
  8
C00-00-00-BLACK
 10
106.156
 20
42.1527
 30
0.0
 40
0.705556
 41
0.705556
  0
VERTEX
  8
C00-00-00-BLACK
 10
106.673
 20
45.9934
 30
0.0
 40
0.705556
 41
0.705556
  0
VERTEX
  8
C00-00-00-BLACK
 10
106.673
 20
47.2722
 30
0.0
 40
0.705556
 41
0.705556
  0
SEQEND
 8
0
  0
POLYLINE
  8
C00-00-00-BLACK
 66
     1
 10
0
 20
0
 30
0.0
 70
     1
 40
2
 41
2
  0
VERTEX
  8
C00-00-00-BLACK
 10
160.027
 20
47.2722
 30
0.0
 40
0.705556
 41
0.705556
  0
VERTEX
  8
C00-00-00-BLACK
 10
160.027
 20
48.5525
 30
0.0
 40
0.705556
 41
0.705556
  0
VERTEX
  8
C00-00-00-BLACK
 10
159.511
 20
52.3931
 30
0.0
 40
0.705556
 41
0.705556
  0
VERTEX
  8
C00-00-00-BLACK
 10
158.031
 20
57.1609
 30
0.0
 40
0.705556
 41
0.705556
  0
VERTEX
  8
C00-00-00-BLACK
 10
155.689
 20
61.4758
 30
0.0
 40
0.705556
 41
0.705556
  0
VERTEX
  8
C00-00-00-BLACK
 10
152.587
 20
65.2336
 30
0.0
 40
0.705556
 41
0.705556
  0
VERTEX
  8
C00-00-00-BLACK
 10
148.83
 20
68.3355
 30
0.0
 40
0.705556
 41
0.705556
  0
VERTEX
  8
C00-00-00-BLACK
 10
144.515
 20
70.6769
 30
0.0
 40
0.705556
 41
0.705556
  0
VERTEX
  8
C00-00-00-BLACK
 10
139.747
 20
72.1568
 30
0.0
 40
0.705556
 41
0.705556
  0
VERTEX
  8
C00-00-00-BLACK
 10
135.906
 20
72.6722
 30
0.0
 40
0.705556
 41
0.705556
  0
VERTEX
  8
C00-00-00-BLACK
 10
134.627
 20
72.6722
 30
0.0
 40
0.705556
 41
0.705556
  0
VERTEX
  8
C00-00-00-BLACK
 10
133.347
 20
72.6722
 30
0.0
 40
0.705556
 41
0.705556
  0
VERTEX
  8
C00-00-00-BLACK
 10
129.506
 20
72.1568
 30
0.0
 40
0.705556
 41
0.705556
  0
VERTEX
  8
C00-00-00-BLACK
 10
124.739
 20
70.6769
 30
0.0
 40
0.705556
 41
0.705556
  0
VERTEX
  8
C00-00-00-BLACK
 10
120.424
 20
68.3355
 30
0.0
 40
0.705556
 41
0.705556
  0
VERTEX
  8
C00-00-00-BLACK
 10
116.666
 20
65.2336
 30
0.0
 40
0.705556
 41
0.705556
  0
VERTEX
  8
C00-00-00-BLACK
 10
113.564
 20
61.4758
 30
0.0
 40
0.705556
 41
0.705556
  0
VERTEX
  8
C00-00-00-BLACK
 10
111.223
 20
57.1609
 30
0.0
 40
0.705556
 41
0.705556
  0
VERTEX
  8
C00-00-00-BLACK
 10
109.743
 20
52.3931
 30
0.0
 40
0.705556
 41
0.705556
  0
VERTEX
  8
C00-00-00-BLACK
 10
109.227
 20
48.5525
 30
0.0
 40
0.705556
 41
0.705556
  0
VERTEX
  8
C00-00-00-BLACK
 10
109.227
 20
47.2722
 30
0.0
 40
0.705556
 41
0.705556
  0
VERTEX
  8
C00-00-00-BLACK
 10
109.227
 20
45.9934
 30
0.0
 40
0.705556
 41
0.705556
  0
VERTEX
  8
C00-00-00-BLACK
 10
109.743
 20
42.1527
 30
0.0
 40
0.705556
 41
0.705556
  0
VERTEX
  8
C00-00-00-BLACK
 10
111.223
 20
37.3849
 30
0.0
 40
0.705556
 41
0.705556
  0
VERTEX
  8
C00-00-00-BLACK
 10
113.564
 20
33.0702
 30
0.0
 40
0.705556
 41
0.705556
  0
VERTEX
  8
C00-00-00-BLACK
 10
116.666
 20
29.3122
 30
0.0
 40
0.705556
 41
0.705556
  0
VERTEX
  8
C00-00-00-BLACK
 10
120.424
 20
26.2103
 30
0.0
 40
0.705556
 41
0.705556
  0
VERTEX
  8
C00-00-00-BLACK
 10
124.739
 20
23.869
 30
0.0
 40
0.705556
 41
0.705556
  0
VERTEX
  8
C00-00-00-BLACK
 10
129.506
 20
22.389
 30
0.0
 40
0.705556
 41
0.705556
  0
VERTEX
  8
C00-00-00-BLACK
 10
133.347
 20
21.8722
 30
0.0
 40
0.705556
 41
0.705556
  0
VERTEX
  8
C00-00-00-BLACK
 10
134.627
 20
21.8722
 30
0.0
 40
0.705556
 41
0.705556
  0
VERTEX
  8
C00-00-00-BLACK
 10
135.906
 20
21.8722
 30
0.0
 40
0.705556
 41
0.705556
  0
VERTEX
  8
C00-00-00-BLACK
 10
139.747
 20
22.389
 30
0.0
 40
0.705556
 41
0.705556
  0
VERTEX
  8
C00-00-00-BLACK
 10
144.515
 20
23.869
 30
0.0
 40
0.705556
 41
0.705556
  0
VERTEX
  8
C00-00-00-BLACK
 10
148.83
 20
26.2103
 30
0.0
 40
0.705556
 41
0.705556
  0
VERTEX
  8
C00-00-00-BLACK
 10
152.587
 20
29.3122
 30
0.0
 40
0.705556
 41
0.705556
  0
VERTEX
  8
C00-00-00-BLACK
 10
155.689
 20
33.0702
 30
0.0
 40
0.705556
 41
0.705556
  0
VERTEX
  8
C00-00-00-BLACK
 10
158.031
 20
37.3849
 30
0.0
 40
0.705556
 41
0.705556
  0
VERTEX
  8
C00-00-00-BLACK
 10
159.511
 20
42.1527
 30
0.0
 40
0.705556
 41
0.705556
  0
VERTEX
  8
C00-00-00-BLACK
 10
160.027
 20
45.9934
 30
0.0
 40
0.705556
 41
0.705556
  0
VERTEX
  8
C00-00-00-BLACK
 10
160.027
 20
47.2722
 30
0.0
 40
0.705556
 41
0.705556
  0
SEQEND
 8
0
  0
POLYLINE
  8
C00-00-00-BLACK
 66
     1
 10
0
 20
0
 30
0.0
 70
     1
 40
2
 41
2
  0
VERTEX
  8
C00-00-00-BLACK
 10
213.385
 20
47.2722
 30
0.0
 40
0.705556
 41
0.705556
  0
VERTEX
  8
C00-00-00-BLACK
 10
213.385
 20
48.5525
 30
0.0
 40
0.705556
 41
0.705556
  0
VERTEX
  8
C00-00-00-BLACK
 10
212.868
 20
52.3931
 30
0.0
 40
0.705556
 41
0.705556
  0
VERTEX
  8
C00-00-00-BLACK
 10
211.388
 20
57.1609
 30
0.0
 40
0.705556
 41
0.705556
  0
VERTEX
  8
C00-00-00-BLACK
 10
209.047
 20
61.4758
 30
0.0
 40
0.705556
 41
0.705556
  0
VERTEX
  8
C00-00-00-BLACK
 10
205.945
 20
65.2336
 30
0.0
 40
0.705556
 41
0.705556
  0
VERTEX
  8
C00-00-00-BLACK
 10
202.187
 20
68.3355
 30
0.0
 40
0.705556
 41
0.705556
  0
VERTEX
  8
C00-00-00-BLACK
 10
197.872
 20
70.6769
 30
0.0
 40
0.705556
 41
0.705556
  0
VERTEX
  8
C00-00-00-BLACK
 10
193.105
 20
72.1568
 30
0.0
 40
0.705556
 41
0.705556
  0
VERTEX
  8
C00-00-00-BLACK
 10
189.264
 20
72.6722
 30
0.0
 40
0.705556
 41
0.705556
  0
VERTEX
  8
C00-00-00-BLACK
 10
187.985
 20
72.6722
 30
0.0
 40
0.705556
 41
0.705556
  0
VERTEX
  8
C00-00-00-BLACK
 10
186.705
 20
72.6722
 30
0.0
 40
0.705556
 41
0.705556
  0
VERTEX
  8
C00-00-00-BLACK
 10
182.864
 20
72.1568
 30
0.0
 40
0.705556
 41
0.705556
  0
VERTEX
  8
C00-00-00-BLACK
 10
178.096
 20
70.6769
 30
0.0
 40
0.705556
 41
0.705556
  0
VERTEX
  8
C00-00-00-BLACK
 10
173.782
 20
68.3355
 30
0.0
 40
0.705556
 41
0.705556
  0
VERTEX
  8
C00-00-00-BLACK
 10
170.024
 20
65.2336
 30
0.0
 40
0.705556
 41
0.705556
  0
VERTEX
  8
C00-00-00-BLACK
 10
166.922
 20
61.4758
 30
0.0
 40
0.705556
 41
0.705556
  0
VERTEX
  8
C00-00-00-BLACK
 10
164.58
 20
57.1609
 30
0.0
 40
0.705556
 41
0.705556
  0
VERTEX
  8
C00-00-00-BLACK
 10
163.1
 20
52.3931
 30
0.0
 40
0.705556
 41
0.705556
  0
VERTEX
  8
C00-00-00-BLACK
 10
162.585
 20
48.5525
 30
0.0
 40
0.705556
 41
0.705556
  0
VERTEX
  8
C00-00-00-BLACK
 10
162.585
 20
47.2722
 30
0.0
 40
0.705556
 41
0.705556
  0
VERTEX
  8
C00-00-00-BLACK
 10
162.585
 20
45.9934
 30
0.0
 40
0.705556
 41
0.705556
  0
VERTEX
  8
C00-00-00-BLACK
 10
163.1
 20
42.1527
 30
0.0
 40
0.705556
 41
0.705556
  0
VERTEX
  8
C00-00-00-BLACK
 10
164.58
 20
37.3849
 30
0.0
 40
0.705556
 41
0.705556
  0
VERTEX
  8
C00-00-00-BLACK
 10
166.922
 20
33.0702
 30
0.0
 40
0.705556
 41
0.705556
  0
VERTEX
  8
C00-00-00-BLACK
 10
170.024
 20
29.3122
 30
0.0
 40
0.705556
 41
0.705556
  0
VERTEX
  8
C00-00-00-BLACK
 10
173.782
 20
26.2103
 30
0.0
 40
0.705556
 41
0.705556
  0
VERTEX
  8
C00-00-00-BLACK
 10
178.096
 20
23.869
 30
0.0
 40
0.705556
 41
0.705556
  0
VERTEX
  8
C00-00-00-BLACK
 10
182.864
 20
22.389
 30
0.0
 40
0.705556
 41
0.705556
  0
VERTEX
  8
C00-00-00-BLACK
 10
186.705
 20
21.8722
 30
0.0
 40
0.705556
 41
0.705556
  0
VERTEX
  8
C00-00-00-BLACK
 10
187.985
 20
21.8722
 30
0.0
 40
0.705556
 41
0.705556
  0
VERTEX
  8
C00-00-00-BLACK
 10
189.264
 20
21.8722
 30
0.0
 40
0.705556
 41
0.705556
  0
VERTEX
  8
C00-00-00-BLACK
 10
193.105
 20
22.389
 30
0.0
 40
0.705556
 41
0.705556
  0
VERTEX
  8
C00-00-00-BLACK
 10
197.872
 20
23.869
 30
0.0
 40
0.705556
 41
0.705556
  0
VERTEX
  8
C00-00-00-BLACK
 10
202.187
 20
26.2103
 30
0.0
 40
0.705556
 41
0.705556
  0
VERTEX
  8
C00-00-00-BLACK
 10
205.945
 20
29.3122
 30
0.0
 40
0.705556
 41
0.705556
  0
VERTEX
  8
C00-00-00-BLACK
 10
209.047
 20
33.0702
 30
0.0
 40
0.705556
 41
0.705556
  0
VERTEX
  8
C00-00-00-BLACK
 10
211.388
 20
37.3849
 30
0.0
 40
0.705556
 41
0.705556
  0
VERTEX
  8
C00-00-00-BLACK
 10
212.868
 20
42.1527
 30
0.0
 40
0.705556
 41
0.705556
  0
VERTEX
  8
C00-00-00-BLACK
 10
213.385
 20
45.9934
 30
0.0
 40
0.705556
 41
0.705556
  0
VERTEX
  8
C00-00-00-BLACK
 10
213.385
 20
47.2722
 30
0.0
 40
0.705556
 41
0.705556
  0
SEQEND
 8
0
  0
POLYLINE
  8
C00-00-00-BLACK
 66
     1
 10
0
 20
0
 30
0.0
 70
     1
 40
0
 41
0
  0
VERTEX
  8
C00-00-00-BLACK
 10
3.52778
 20
277.636
 30
0.0
 40
0
 41
0
  0
VERTEX
  8
C00-00-00-BLACK
 10
3.52778
 20
277.808
 30
0.0
 40
0
 41
0
  0
VERTEX
  8
C00-00-00-BLACK
 10
3.3886
 20
278.324
 30
0.0
 40
0
 41
0
  0
VERTEX
  8
C00-00-00-BLACK
 10
3.01101
 20
278.885
 30
0.0
 40
0
 41
0
  0
VERTEX
  8
C00-00-00-BLACK
 10
2.45015
 20
279.262
 30
0.0
 40
0
 41
0
  0
VERTEX
  8
C00-00-00-BLACK
 10
1.93477
 20
279.4
 30
0.0
 40
0
 41
0
  0
VERTEX
  8
C00-00-00-BLACK
 10
1.76389
 20
279.4
 30
0.0
 40
0
 41
0
  0
VERTEX
  8
C00-00-00-BLACK
 10
1.59163
 20
279.4
 30
0.0
 40
0
 41
0
  0
VERTEX
  8
C00-00-00-BLACK
 10
1.07625
 20
279.262
 30
0.0
 40
0
 41
0
  0
VERTEX
  8
C00-00-00-BLACK
 10
0.515387
 20
278.885
 30
0.0
 40
0
 41
0
  0
VERTEX
  8
C00-00-00-BLACK
 10
0.137804
 20
278.324
 30
0.0
 40
0
 41
0
  0
VERTEX
  8
C00-00-00-BLACK
 10
0
 20
277.808
 30
0.0
 40
0
 41
0
  0
VERTEX
  8
C00-00-00-BLACK
 10
0
 20
277.636
 30
0.0
 40
0
 41
0
  0
VERTEX
  8
C00-00-00-BLACK
 10
0
 20
277.465
 30
0.0
 40
0
 41
0
  0
VERTEX
  8
C00-00-00-BLACK
 10
0.137804
 20
276.95
 30
0.0
 40
0
 41
0
  0
VERTEX
  8
C00-00-00-BLACK
 10
0.515387
 20
276.389
 30
0.0
 40
0
 41
0
  0
VERTEX
  8
C00-00-00-BLACK
 10
1.07625
 20
276.012
 30
0.0
 40
0
 41
0
  0
VERTEX
  8
C00-00-00-BLACK
 10
1.59163
 20
275.872
 30
0.0
 40
0
 41
0
  0
VERTEX
  8
C00-00-00-BLACK
 10
1.76389
 20
275.872
 30
0.0
 40
0
 41
0
  0
VERTEX
  8
C00-00-00-BLACK
 10
1.93477
 20
275.872
 30
0.0
 40
0
 41
0
  0
VERTEX
  8
C00-00-00-BLACK
 10
2.45015
 20
276.012
 30
0.0
 40
0
 41
0
  0
VERTEX
  8
C00-00-00-BLACK
 10
3.01101
 20
276.389
 30
0.0
 40
0
 41
0
  0
VERTEX
  8
C00-00-00-BLACK
 10
3.3886
 20
276.95
 30
0.0
 40
0
 41
0
  0
VERTEX
  8
C00-00-00-BLACK
 10
3.52778
 20
277.465
 30
0.0
 40
0
 41
0
  0
VERTEX
  8
C00-00-00-BLACK
 10
3.52778
 20
277.636
 30
0.0
 40
0
 41
0
  0
SEQEND
 8
0
  0
POLYLINE
  8
C00-00-00-BLACK
 66
     1
 10
0
 20
0
 30
0.0
 70
     1
 40
0
 41
0
  0
VERTEX
  8
C00-00-00-BLACK
 10
215.9
 20
277.636
 30
0.0
 40
0
 41
0
  0
VERTEX
  8
C00-00-00-BLACK
 10
215.9
 20
277.808
 30
0.0
 40
0
 41
0
  0
VERTEX
  8
C00-00-00-BLACK
 10
215.761
 20
278.324
 30
0.0
 40
0
 41
0
  0
VERTEX
  8
C00-00-00-BLACK
 10
215.383
 20
278.885
 30
0.0
 40
0
 41
0
  0
VERTEX
  8
C00-00-00-BLACK
 10
214.822
 20
279.262
 30
0.0
 40
0
 41
0
  0
VERTEX
  8
C00-00-00-BLACK
 10
214.307
 20
279.4
 30
0.0
 40
0
 41
0
  0
VERTEX
  8
C00-00-00-BLACK
 10
214.136
 20
279.4
 30
0.0
 40
0
 41
0
  0
VERTEX
  8
C00-00-00-BLACK
 10
213.964
 20
279.4
 30
0.0
 40
0
 41
0
  0
VERTEX
  8
C00-00-00-BLACK
 10
213.449
 20
279.262
 30
0.0
 40
0
 41
0
  0
VERTEX
  8
C00-00-00-BLACK
 10
212.888
 20
278.885
 30
0.0
 40
0
 41
0
  0
VERTEX
  8
C00-00-00-BLACK
 10
212.51
 20
278.324
 30
0.0
 40
0
 41
0
  0
VERTEX
  8
C00-00-00-BLACK
 10
212.372
 20
277.808
 30
0.0
 40
0
 41
0
  0
VERTEX
  8
C00-00-00-BLACK
 10
212.372
 20
277.636
 30
0.0
 40
0
 41
0
  0
VERTEX
  8
C00-00-00-BLACK
 10
212.372
 20
277.465
 30
0.0
 40
0
 41
0
  0
VERTEX
  8
C00-00-00-BLACK
 10
212.51
 20
276.95
 30
0.0
 40
0
 41
0
  0
VERTEX
  8
C00-00-00-BLACK
 10
212.888
 20
276.389
 30
0.0
 40
0
 41
0
  0
VERTEX
  8
C00-00-00-BLACK
 10
213.449
 20
276.012
 30
0.0
 40
0
 41
0
  0
VERTEX
  8
C00-00-00-BLACK
 10
213.964
 20
275.872
 30
0.0
 40
0
 41
0
  0
VERTEX
  8
C00-00-00-BLACK
 10
214.136
 20
275.872
 30
0.0
 40
0
 41
0
  0
VERTEX
  8
C00-00-00-BLACK
 10
214.307
 20
275.872
 30
0.0
 40
0
 41
0
  0
VERTEX
  8
C00-00-00-BLACK
 10
214.822
 20
276.012
 30
0.0
 40
0
 41
0
  0
VERTEX
  8
C00-00-00-BLACK
 10
215.383
 20
276.389
 30
0.0
 40
0
 41
0
  0
VERTEX
  8
C00-00-00-BLACK
 10
215.761
 20
276.95
 30
0.0
 40
0
 41
0
  0
VERTEX
  8
C00-00-00-BLACK
 10
215.9
 20
277.465
 30
0.0
 40
0
 41
0
  0
VERTEX
  8
C00-00-00-BLACK
 10
215.9
 20
277.636
 30
0.0
 40
0
 41
0
  0
SEQEND
 8
0
  0
POLYLINE
  8
C00-00-00-BLACK
 66
     1
 10
0
 20
0
 30
0.0
 70
     1
 40
0
 41
0
  0
VERTEX
  8
C00-00-00-BLACK
 10
3.52778
 20
1.76389
 30
0.0
 40
0
 41
0
  0
VERTEX
  8
C00-00-00-BLACK
 10
3.52778
 20
1.93614
 30
0.0
 40
0
 41
0
  0
VERTEX
  8
C00-00-00-BLACK
 10
3.3886
 20
2.45153
 30
0.0
 40
0
 41
0
  0
VERTEX
  8
C00-00-00-BLACK
 10
3.01101
 20
3.01239
 30
0.0
 40
0
 41
0
  0
VERTEX
  8
C00-00-00-BLACK
 10
2.45015
 20
3.38998
 30
0.0
 40
0
 41
0
  0
VERTEX
  8
C00-00-00-BLACK
 10
1.93477
 20
3.52778
 30
0.0
 40
0
 41
0
  0
VERTEX
  8
C00-00-00-BLACK
 10
1.76389
 20
3.52778
 30
0.0
 40
0
 41
0
  0
VERTEX
  8
C00-00-00-BLACK
 10
1.59163
 20
3.52778
 30
0.0
 40
0
 41
0
  0
VERTEX
  8
C00-00-00-BLACK
 10
1.07625
 20
3.38998
 30
0.0
 40
0
 41
0
  0
VERTEX
  8
C00-00-00-BLACK
 10
0.515387
 20
3.01239
 30
0.0
 40
0
 41
0
  0
VERTEX
  8
C00-00-00-BLACK
 10
0.137804
 20
2.45153
 30
0.0
 40
0
 41
0
  0
VERTEX
  8
C00-00-00-BLACK
 10
0
 20
1.93614
 30
0.0
 40
0
 41
0
  0
VERTEX
  8
C00-00-00-BLACK
 10
0
 20
1.76389
 30
0.0
 40
0
 41
0
  0
VERTEX
  8
C00-00-00-BLACK
 10
0
 20
1.59301
 30
0.0
 40
0
 41
0
  0
VERTEX
  8
C00-00-00-BLACK
 10
0.137804
 20
1.07763
 30
0.0
 40
0
 41
0
  0
VERTEX
  8
C00-00-00-BLACK
 10
0.515387
 20
0.516763
 30
0.0
 40
0
 41
0
  0
VERTEX
  8
C00-00-00-BLACK
 10
1.07625
 20
0.139182
 30
0.0
 40
0
 41
0
  0
VERTEX
  8
C00-00-00-BLACK
 10
1.59163
 20
0
 30
0.0
 40
0
 41
0
  0
VERTEX
  8
C00-00-00-BLACK
 10
1.76389
 20
0
 30
0.0
 40
0
 41
0
  0
VERTEX
  8
C00-00-00-BLACK
 10
1.93477
 20
0
 30
0.0
 40
0
 41
0
  0
VERTEX
  8
C00-00-00-BLACK
 10
2.45015
 20
0.139182
 30
0.0
 40
0
 41
0
  0
VERTEX
  8
C00-00-00-BLACK
 10
3.01101
 20
0.516763
 30
0.0
 40
0
 41
0
  0
VERTEX
  8
C00-00-00-BLACK
 10
3.3886
 20
1.07763
 30
0.0
 40
0
 41
0
  0
VERTEX
  8
C00-00-00-BLACK
 10
3.52778
 20
1.59301
 30
0.0
 40
0
 41
0
  0
VERTEX
  8
C00-00-00-BLACK
 10
3.52778
 20
1.76389
 30
0.0
 40
0
 41
0
  0
SEQEND
 8
0
  0
POLYLINE
  8
C00-00-00-BLACK
 66
     1
 10
0
 20
0
 30
0.0
 70
     1
 40
0
 41
0
  0
VERTEX
  8
C00-00-00-BLACK
 10
215.9
 20
1.76389
 30
0.0
 40
0
 41
0
  0
VERTEX
  8
C00-00-00-BLACK
 10
215.9
 20
1.93614
 30
0.0
 40
0
 41
0
  0
VERTEX
  8
C00-00-00-BLACK
 10
215.761
 20
2.45153
 30
0.0
 40
0
 41
0
  0
VERTEX
  8
C00-00-00-BLACK
 10
215.383
 20
3.01239
 30
0.0
 40
0
 41
0
  0
VERTEX
  8
C00-00-00-BLACK
 10
214.822
 20
3.38998
 30
0.0
 40
0
 41
0
  0
VERTEX
  8
C00-00-00-BLACK
 10
214.307
 20
3.52778
 30
0.0
 40
0
 41
0
  0
VERTEX
  8
C00-00-00-BLACK
 10
214.136
 20
3.52778
 30
0.0
 40
0
 41
0
  0
VERTEX
  8
C00-00-00-BLACK
 10
213.964
 20
3.52778
 30
0.0
 40
0
 41
0
  0
VERTEX
  8
C00-00-00-BLACK
 10
213.449
 20
3.38998
 30
0.0
 40
0
 41
0
  0
VERTEX
  8
C00-00-00-BLACK
 10
212.888
 20
3.01239
 30
0.0
 40
0
 41
0
  0
VERTEX
  8
C00-00-00-BLACK
 10
212.51
 20
2.45153
 30
0.0
 40
0
 41
0
  0
VERTEX
  8
C00-00-00-BLACK
 10
212.372
 20
1.93614
 30
0.0
 40
0
 41
0
  0
VERTEX
  8
C00-00-00-BLACK
 10
212.372
 20
1.76389
 30
0.0
 40
0
 41
0
  0
VERTEX
  8
C00-00-00-BLACK
 10
212.372
 20
1.59301
 30
0.0
 40
0
 41
0
  0
VERTEX
  8
C00-00-00-BLACK
 10
212.51
 20
1.07763
 30
0.0
 40
0
 41
0
  0
VERTEX
  8
C00-00-00-BLACK
 10
212.888
 20
0.516763
 30
0.0
 40
0
 41
0
  0
VERTEX
  8
C00-00-00-BLACK
 10
213.449
 20
0.139182
 30
0.0
 40
0
 41
0
  0
VERTEX
  8
C00-00-00-BLACK
 10
213.964
 20
0
 30
0.0
 40
0
 41
0
  0
VERTEX
  8
C00-00-00-BLACK
 10
214.136
 20
0
 30
0.0
 40
0
 41
0
  0
VERTEX
  8
C00-00-00-BLACK
 10
214.307
 20
0
 30
0.0
 40
0
 41
0
  0
VERTEX
  8
C00-00-00-BLACK
 10
214.822
 20
0.139182
 30
0.0
 40
0
 41
0
  0
VERTEX
  8
C00-00-00-BLACK
 10
215.383
 20
0.516763
 30
0.0
 40
0
 41
0
  0
VERTEX
  8
C00-00-00-BLACK
 10
215.761
 20
1.07763
 30
0.0
 40
0
 41
0
  0
VERTEX
  8
C00-00-00-BLACK
 10
215.9
 20
1.59301
 30
0.0
 40
0
 41
0
  0
VERTEX
  8
C00-00-00-BLACK
 10
215.9
 20
1.76389
 30
0.0
 40
0
 41
0
  0
SEQEND
 8
0
  0
ENDSEC
  0
EOF
